G04 #@! TF.FileFunction,Soldermask,Bot*
%FSLAX46Y46*%
G04 Gerber Fmt 4.6, Leading zero omitted, Abs format (unit mm)*
G04 Created by KiCad (PCBNEW 4.0.7-e2-6376~61~ubuntu18.04.1) date Tue Nov 15 11:44:20 2022*
%MOMM*%
%LPD*%
G01*
G04 APERTURE LIST*
%ADD10C,0.150000*%
%ADD11C,0.100000*%
%ADD12C,0.200000*%
%ADD13C,3.000000*%
%ADD14R,0.300000X0.350000*%
%ADD15R,1.370000X1.370000*%
%ADD16C,1.370000*%
%ADD17R,1.500000X0.450000*%
%ADD18C,5.000000*%
%ADD19R,3.000000X1.000000*%
%ADD20R,8.400000X10.600000*%
%ADD21R,1.600000X2.350000*%
%ADD22R,0.650000X0.300000*%
%ADD23R,0.693420X0.693420*%
%ADD24R,1.000000X0.700000*%
%ADD25R,0.899160X1.399540*%
%ADD26R,0.750000X0.400000*%
%ADD27C,0.250000*%
%ADD28R,0.250000X0.400000*%
%ADD29R,2.540000X1.700000*%
%ADD30R,0.998120X0.898120*%
%ADD31R,0.898120X0.998120*%
%ADD32R,0.798500X0.897560*%
%ADD33R,0.897560X0.798500*%
%ADD34R,0.595300X0.595300*%
%ADD35R,0.350000X0.300000*%
%ADD36R,0.855980X0.553720*%
%ADD37R,0.500000X0.300000*%
%ADD38R,0.300000X0.600000*%
%ADD39R,1.750000X1.750000*%
%ADD40R,1.399540X0.899160*%
%ADD41R,0.600000X0.900000*%
%ADD42R,0.800000X0.900000*%
%ADD43R,1.496060X5.000000*%
%ADD44R,0.700000X1.000000*%
%ADD45R,1.524000X2.032000*%
%ADD46R,5.198120X2.198120*%
%ADD47C,3.298120*%
%ADD48R,0.800000X0.800000*%
%ADD49R,1.100000X1.000000*%
%ADD50R,0.320000X0.430000*%
%ADD51R,1.000000X1.100000*%
%ADD52R,0.430000X0.320000*%
%ADD53R,0.299720X0.949960*%
%ADD54R,0.949960X0.299720*%
%ADD55R,2.250440X2.250440*%
%ADD56R,0.350000X0.600000*%
%ADD57R,0.600000X0.350000*%
%ADD58R,2.800000X2.800000*%
%ADD59O,2.994660X1.524000*%
%ADD60C,1.700000*%
%ADD61R,1.524000X1.524000*%
%ADD62R,4.000000X1.300000*%
%ADD63R,1.300000X4.000000*%
%ADD64R,1.750000X4.250000*%
%ADD65R,0.450000X1.500000*%
%ADD66C,0.254000*%
G04 APERTURE END LIST*
D10*
D11*
X214520000Y-99480000D02*
X214520000Y-99470000D01*
D12*
X57390000Y-99480000D02*
X214520000Y-99480000D01*
X57390000Y-99480000D02*
X57390000Y-262740000D01*
X214520000Y-262730000D02*
X214520000Y-99480000D01*
X57390000Y-262740000D02*
X214520000Y-262740000D01*
D13*
X211240000Y-173940000D03*
X211240000Y-173940000D03*
X61870000Y-258330000D03*
X61870000Y-258330000D03*
D14*
X205945000Y-244270000D03*
X205395000Y-244270000D03*
D15*
X210080420Y-258215000D03*
D16*
X207540420Y-258215000D03*
X210080420Y-255675000D03*
X207540420Y-255675000D03*
X210080420Y-253135000D03*
X207540420Y-253135000D03*
X210080420Y-250595000D03*
X207540420Y-250595000D03*
X207540420Y-248055000D03*
D17*
X207500000Y-239075000D03*
X207500000Y-239725000D03*
X207500000Y-240375000D03*
X207500000Y-241025000D03*
X207500000Y-241675000D03*
X207500000Y-242325000D03*
X207500000Y-242975000D03*
X207500000Y-243625000D03*
X207500000Y-244275000D03*
X207500000Y-244925000D03*
X207500000Y-245575000D03*
X207500000Y-246225000D03*
X213300000Y-246225000D03*
X213300000Y-245575000D03*
X213300000Y-244925000D03*
X213300000Y-244275000D03*
X213300000Y-243625000D03*
X213300000Y-242975000D03*
X213300000Y-239075000D03*
X213300000Y-239725000D03*
X213300000Y-240375000D03*
X213300000Y-241025000D03*
X213300000Y-241675000D03*
X213300000Y-242325000D03*
D18*
X60800000Y-145000000D03*
X60800000Y-215000000D03*
D19*
X80210420Y-108935420D03*
X80210420Y-107235420D03*
X80210420Y-105535420D03*
X80210420Y-103835420D03*
X80210420Y-102135420D03*
D20*
X69910420Y-105535420D03*
D18*
X60800000Y-110000000D03*
X60800000Y-180000000D03*
X60800000Y-250000000D03*
X209000000Y-110000000D03*
X209000000Y-148000000D03*
X209000000Y-186000000D03*
X190640000Y-164730000D03*
X144920000Y-164720000D03*
X99200000Y-164740000D03*
X99200000Y-111380000D03*
X144920000Y-111380000D03*
X190660000Y-111380000D03*
D21*
X78890000Y-197030000D03*
D22*
X80265000Y-196705000D03*
X80265000Y-197355000D03*
X80265000Y-198005000D03*
X80265000Y-196054520D03*
X77515000Y-196054520D03*
X77515000Y-198005240D03*
X77515000Y-197355000D03*
X77515000Y-196705000D03*
D23*
X119008740Y-255350420D03*
X119008740Y-256249580D03*
D24*
X140540000Y-211300000D03*
X140540000Y-213200000D03*
X142940000Y-213200000D03*
X142940000Y-211300000D03*
X142940000Y-212250000D03*
X74090000Y-211310000D03*
X74090000Y-213210000D03*
X76490000Y-213210000D03*
X76490000Y-211310000D03*
X76490000Y-212260000D03*
D23*
X146230420Y-250870000D03*
X147129580Y-250870000D03*
D10*
G36*
X144578729Y-219849897D02*
X144088407Y-220340219D01*
X143598085Y-219849897D01*
X144088407Y-219359575D01*
X144578729Y-219849897D01*
X144578729Y-219849897D01*
G37*
G36*
X143942927Y-219214095D02*
X143452605Y-219704417D01*
X142962283Y-219214095D01*
X143452605Y-218723773D01*
X143942927Y-219214095D01*
X143942927Y-219214095D01*
G37*
D25*
X150062500Y-193900000D03*
X148157500Y-193900000D03*
X150052500Y-198000000D03*
X148147500Y-198000000D03*
D23*
X142109580Y-194800000D03*
X141210420Y-194800000D03*
X143010000Y-192609580D03*
X143010000Y-191710420D03*
X142110000Y-193899580D03*
X142110000Y-193000420D03*
X142990000Y-193900420D03*
X142990000Y-194799580D03*
X146719580Y-194970000D03*
X145820420Y-194970000D03*
X150059580Y-192440000D03*
X149160420Y-192440000D03*
X150039580Y-196550000D03*
X149140420Y-196550000D03*
D26*
X146725000Y-193905000D03*
X146725000Y-193255000D03*
X146725000Y-192605000D03*
X146725000Y-191955000D03*
X143975000Y-191955000D03*
X143975000Y-192605000D03*
X143975000Y-193255000D03*
X143975000Y-193905000D03*
D21*
X145350000Y-192930000D03*
D26*
X146705000Y-198005000D03*
X146705000Y-197355000D03*
X146705000Y-196705000D03*
X146705000Y-196055000D03*
X143955000Y-196055000D03*
X143955000Y-196705000D03*
X143955000Y-197355000D03*
X143955000Y-198005000D03*
D21*
X145330000Y-197030000D03*
D23*
X142189580Y-198890000D03*
X141290420Y-198890000D03*
X143010000Y-196699580D03*
X143010000Y-195800420D03*
X142190000Y-197979580D03*
X142190000Y-197080420D03*
X143010000Y-198000420D03*
X143010000Y-198899580D03*
X146839580Y-199030000D03*
X145940420Y-199030000D03*
D27*
X137900000Y-207345000D03*
D28*
X137900000Y-207545000D03*
X137400000Y-207545000D03*
D27*
X137400000Y-207345000D03*
X138400000Y-207345000D03*
D28*
X138400000Y-207545000D03*
X138900000Y-207545000D03*
D27*
X138900000Y-207345000D03*
X138900000Y-204895000D03*
D28*
X138900000Y-204695000D03*
X138400000Y-204695000D03*
D27*
X138400000Y-204895000D03*
X137400000Y-204895000D03*
D28*
X137400000Y-204695000D03*
X137900000Y-204695000D03*
D27*
X137900000Y-204895000D03*
D29*
X138150000Y-206120000D03*
D23*
X138190000Y-194909580D03*
X138190000Y-194010420D03*
X138190000Y-194910420D03*
X138190000Y-195809580D03*
X137330420Y-209320000D03*
X138229580Y-209320000D03*
X139040420Y-209330000D03*
X139939580Y-209330000D03*
D25*
X146372500Y-212610000D03*
X144467500Y-212610000D03*
D30*
X137120000Y-194920000D03*
X137120000Y-196420000D03*
X139780000Y-201760000D03*
X139780000Y-203260000D03*
X139040000Y-211300000D03*
X139040000Y-212800000D03*
D31*
X136940000Y-203170000D03*
X138440000Y-203170000D03*
D23*
X144470420Y-211310000D03*
X145369580Y-211310000D03*
D30*
X137810000Y-212380000D03*
X137810000Y-210880000D03*
D23*
X147980000Y-212339580D03*
X147980000Y-211440420D03*
D26*
X144715000Y-205865000D03*
X144715000Y-206515000D03*
X144715000Y-207165000D03*
X144715000Y-207815000D03*
X147465000Y-207815000D03*
X147465000Y-207165000D03*
X147465000Y-206515000D03*
X147465000Y-205865000D03*
D21*
X146090000Y-206840000D03*
D23*
X150150000Y-205850420D03*
X150150000Y-206749580D03*
X148310000Y-207170420D03*
X148310000Y-208069580D03*
X149210000Y-205860420D03*
X149210000Y-206759580D03*
X140820000Y-206109580D03*
X140820000Y-205210420D03*
X140820000Y-206110420D03*
X140820000Y-207009580D03*
X148160000Y-205859580D03*
X148160000Y-204960420D03*
D30*
X143020000Y-207190000D03*
X143020000Y-208690000D03*
X141870000Y-207190000D03*
X141870000Y-208690000D03*
D26*
X146965000Y-202245000D03*
X146965000Y-201595000D03*
X146965000Y-200945000D03*
X146965000Y-200295000D03*
X144215000Y-200295000D03*
X144215000Y-200945000D03*
X144215000Y-201595000D03*
X144215000Y-202245000D03*
D21*
X145590000Y-201270000D03*
D23*
X141590000Y-206109580D03*
X141590000Y-205210420D03*
X142290000Y-203110420D03*
X142290000Y-204009580D03*
X143170000Y-201349580D03*
X143170000Y-200450420D03*
X142280000Y-202249580D03*
X142280000Y-201350420D03*
D25*
X150042500Y-202240000D03*
X148137500Y-202240000D03*
D23*
X143180000Y-202250420D03*
X143180000Y-203149580D03*
X148120420Y-200910000D03*
X149019580Y-200910000D03*
X150029580Y-203590000D03*
X149130420Y-203590000D03*
D25*
X71147500Y-242170000D03*
X73052500Y-242170000D03*
D21*
X79650000Y-206840000D03*
D22*
X78275000Y-207165000D03*
X78275000Y-206515000D03*
X78275000Y-205865000D03*
X78275000Y-207815480D03*
X81025000Y-207815480D03*
X81025000Y-205864760D03*
X81025000Y-206515000D03*
X81025000Y-207165000D03*
D21*
X79150000Y-201270000D03*
D22*
X80525000Y-200945000D03*
X80525000Y-201595000D03*
X80525000Y-202245000D03*
X80525000Y-200294520D03*
X77775000Y-200294520D03*
X77775000Y-202245240D03*
X77775000Y-201595000D03*
X77775000Y-200945000D03*
D21*
X78910000Y-192930000D03*
D22*
X80285000Y-192605000D03*
X80285000Y-193255000D03*
X80285000Y-193905000D03*
X80285000Y-191954520D03*
X77535000Y-191954520D03*
X77535000Y-193905240D03*
X77535000Y-193255000D03*
X77535000Y-192605000D03*
D25*
X83612500Y-198000000D03*
X81707500Y-198000000D03*
X83622500Y-193900000D03*
X81717500Y-193900000D03*
X79932500Y-212610000D03*
X78027500Y-212610000D03*
X83602500Y-202240000D03*
X81697500Y-202240000D03*
D32*
X70503900Y-203170000D03*
X71596100Y-203170000D03*
D33*
X70680000Y-194923900D03*
X70680000Y-196016100D03*
X73340000Y-202163900D03*
X73340000Y-203256100D03*
X71370000Y-211966100D03*
X71370000Y-210873900D03*
X72600000Y-211303900D03*
X72600000Y-212396100D03*
D34*
X81720000Y-205859580D03*
X81720000Y-204960420D03*
X76740000Y-202250420D03*
X76740000Y-203149580D03*
X76570000Y-198000420D03*
X76570000Y-198899580D03*
X76550000Y-193900420D03*
X76550000Y-194799580D03*
X81680420Y-200910000D03*
X82579580Y-200910000D03*
X81870000Y-207170420D03*
X81870000Y-208069580D03*
X76570000Y-196699580D03*
X76570000Y-195800420D03*
X83599580Y-196550000D03*
X82700420Y-196550000D03*
X80389580Y-199020000D03*
X79490420Y-199020000D03*
X83710000Y-205850420D03*
X83710000Y-206749580D03*
X75669580Y-194800000D03*
X74770420Y-194800000D03*
X83619580Y-192440000D03*
X82720420Y-192440000D03*
X80279580Y-194980000D03*
X79380420Y-194980000D03*
X70890420Y-209320000D03*
X71789580Y-209320000D03*
X72600420Y-209330000D03*
X73499580Y-209330000D03*
X74380000Y-206110420D03*
X74380000Y-207009580D03*
X74380000Y-206119580D03*
X74380000Y-205220420D03*
X71750000Y-194910420D03*
X71750000Y-195809580D03*
X71750000Y-194909580D03*
X71750000Y-194010420D03*
X76570000Y-192609580D03*
X76570000Y-191710420D03*
X82770000Y-205860420D03*
X82770000Y-206759580D03*
X75670000Y-193899580D03*
X75670000Y-193000420D03*
X75750000Y-197979580D03*
X75750000Y-197080420D03*
X75840000Y-202249580D03*
X75840000Y-201350420D03*
X76730000Y-201349580D03*
X76730000Y-200450420D03*
X83589580Y-203590000D03*
X82690420Y-203590000D03*
X81540000Y-212339580D03*
X81540000Y-211440420D03*
X75850000Y-203110420D03*
X75850000Y-204009580D03*
X75749580Y-198890000D03*
X74850420Y-198890000D03*
X78020420Y-211310000D03*
X78919580Y-211310000D03*
D35*
X173100000Y-203775000D03*
X173100000Y-204325000D03*
X173700000Y-203775000D03*
X173700000Y-204325000D03*
X175500000Y-202625000D03*
X175500000Y-202075000D03*
X175500000Y-203575000D03*
X175500000Y-204125000D03*
X174900000Y-202625000D03*
X174900000Y-202075000D03*
D14*
X180765000Y-202430000D03*
X180215000Y-202430000D03*
D35*
X179490000Y-198075000D03*
X179490000Y-198625000D03*
X174900000Y-203575000D03*
X174900000Y-204125000D03*
X178900000Y-198075000D03*
X178900000Y-198625000D03*
X174300000Y-202625000D03*
X174300000Y-202075000D03*
X174300000Y-203575000D03*
X174300000Y-204125000D03*
D14*
X181615000Y-200530000D03*
X182165000Y-200530000D03*
D35*
X176100000Y-202625000D03*
X176100000Y-202075000D03*
X176700000Y-202625000D03*
X176700000Y-202075000D03*
D14*
X179565000Y-200830000D03*
X179015000Y-200830000D03*
D35*
X176690000Y-198075000D03*
X176690000Y-198625000D03*
D14*
X179565000Y-200240000D03*
X179015000Y-200240000D03*
D35*
X177900000Y-202625000D03*
X177900000Y-202075000D03*
X176080000Y-198075000D03*
X176080000Y-198625000D03*
X177300000Y-202625000D03*
X177300000Y-202075000D03*
X177890000Y-198075000D03*
X177890000Y-198625000D03*
D14*
X177265000Y-204780000D03*
X176715000Y-204780000D03*
X174925000Y-200650000D03*
X175475000Y-200650000D03*
D35*
X177290000Y-198075000D03*
X177290000Y-198625000D03*
D14*
X174925000Y-201260000D03*
X175475000Y-201260000D03*
X176715000Y-195890000D03*
X177265000Y-195890000D03*
X172535000Y-202850000D03*
X173085000Y-202850000D03*
X172535000Y-202260000D03*
X173085000Y-202260000D03*
X178025000Y-196860000D03*
X178575000Y-196860000D03*
X182165000Y-202430000D03*
X181615000Y-202430000D03*
X177825000Y-204450000D03*
X178375000Y-204450000D03*
D35*
X176200000Y-203115000D03*
X176200000Y-203665000D03*
X181590000Y-201155000D03*
X181590000Y-201705000D03*
D14*
X176155000Y-196220000D03*
X175605000Y-196220000D03*
X176165000Y-196860000D03*
X175615000Y-196860000D03*
X176165000Y-197450000D03*
X175615000Y-197450000D03*
X180635000Y-199410000D03*
X181185000Y-199410000D03*
D23*
X180010000Y-204410420D03*
X180010000Y-205309580D03*
D35*
X177860000Y-193305000D03*
X177860000Y-192755000D03*
X176100000Y-193305000D03*
X176100000Y-192755000D03*
X178460000Y-193305000D03*
X178460000Y-192755000D03*
D14*
X179835000Y-207380000D03*
X179285000Y-207380000D03*
X179825000Y-193300000D03*
X179275000Y-193300000D03*
X174145000Y-193290000D03*
X174695000Y-193290000D03*
D36*
X178450000Y-193888200D03*
X178450000Y-194751800D03*
X176470000Y-193888200D03*
X176470000Y-194751800D03*
X177500000Y-193888200D03*
X177500000Y-194751800D03*
X175510000Y-193888200D03*
X175510000Y-194751800D03*
D14*
X179285000Y-206770000D03*
X179835000Y-206770000D03*
X179275000Y-193890000D03*
X179825000Y-193890000D03*
X174695000Y-193890000D03*
X174145000Y-193890000D03*
D23*
X73349580Y-239770000D03*
X72450420Y-239770000D03*
D14*
X172895000Y-200920000D03*
X172345000Y-200920000D03*
D23*
X182999580Y-205910000D03*
X182100420Y-205910000D03*
X184920000Y-206940420D03*
X184920000Y-207839580D03*
X185619580Y-208620000D03*
X184720420Y-208620000D03*
D35*
X177870000Y-207375000D03*
X177870000Y-207925000D03*
X176120000Y-207375000D03*
X176120000Y-207925000D03*
X178470000Y-207365000D03*
X178470000Y-207915000D03*
X175500000Y-193305000D03*
X175500000Y-192755000D03*
X175520000Y-207375000D03*
X175520000Y-207925000D03*
X172390000Y-200095000D03*
X172390000Y-199545000D03*
D14*
X174145000Y-207380000D03*
X174695000Y-207380000D03*
D36*
X177510000Y-206781800D03*
X177510000Y-205918200D03*
X175520000Y-206781800D03*
X175520000Y-205918200D03*
X178470000Y-206781800D03*
X178470000Y-205918200D03*
X176480000Y-206781800D03*
X176480000Y-205918200D03*
D23*
X183930000Y-206670420D03*
X183930000Y-207569580D03*
X182999580Y-206670000D03*
X182100420Y-206670000D03*
D14*
X174695000Y-206780000D03*
X174145000Y-206780000D03*
D23*
X70850420Y-239770000D03*
X71749580Y-239770000D03*
D25*
X71147500Y-238370000D03*
X73052500Y-238370000D03*
D23*
X78900000Y-237720420D03*
X78900000Y-238619580D03*
X78949580Y-239970000D03*
X78050420Y-239970000D03*
X70850420Y-243520000D03*
X71749580Y-243520000D03*
X73249580Y-243520000D03*
X72350420Y-243520000D03*
X77900000Y-241520420D03*
X77900000Y-242419580D03*
X77900000Y-237720420D03*
X77900000Y-238619580D03*
X78900000Y-241520420D03*
X78900000Y-242419580D03*
X78999580Y-243520000D03*
X78100420Y-243520000D03*
D26*
X74325000Y-237795000D03*
X74325000Y-238445000D03*
X74325000Y-239095000D03*
X74325000Y-239745000D03*
X77075000Y-239745000D03*
X77075000Y-239095000D03*
X77075000Y-238445000D03*
X77075000Y-237795000D03*
D21*
X75700000Y-238770000D03*
D26*
X74325000Y-241595000D03*
X74325000Y-242245000D03*
X74325000Y-242895000D03*
X74325000Y-243545000D03*
X77075000Y-243545000D03*
X77075000Y-242895000D03*
X77075000Y-242245000D03*
X77075000Y-241595000D03*
D21*
X75700000Y-242570000D03*
D23*
X137290420Y-239770000D03*
X138189580Y-239770000D03*
X137290420Y-243520000D03*
X138189580Y-243520000D03*
X139789580Y-239770000D03*
X138890420Y-239770000D03*
X139689580Y-243520000D03*
X138790420Y-243520000D03*
X144340000Y-241520420D03*
X144340000Y-242419580D03*
X144340000Y-237720420D03*
X144340000Y-238619580D03*
D25*
X137587500Y-242170000D03*
X139492500Y-242170000D03*
D23*
X79700000Y-241520420D03*
X79700000Y-242419580D03*
X79700000Y-237720420D03*
X79700000Y-238619580D03*
X145340000Y-241520420D03*
X145340000Y-242419580D03*
X145439580Y-243520000D03*
X144540420Y-243520000D03*
X145340000Y-237720420D03*
X145340000Y-238619580D03*
X145389580Y-239970000D03*
X144490420Y-239970000D03*
X146140000Y-241520420D03*
X146140000Y-242419580D03*
X146140000Y-237720420D03*
X146140000Y-238619580D03*
D26*
X140765000Y-237795000D03*
X140765000Y-238445000D03*
X140765000Y-239095000D03*
X140765000Y-239745000D03*
X143515000Y-239745000D03*
X143515000Y-239095000D03*
X143515000Y-238445000D03*
X143515000Y-237795000D03*
D21*
X142140000Y-238770000D03*
D26*
X140765000Y-241595000D03*
X140765000Y-242245000D03*
X140765000Y-242895000D03*
X140765000Y-243545000D03*
X143515000Y-243545000D03*
X143515000Y-242895000D03*
X143515000Y-242245000D03*
X143515000Y-241595000D03*
D21*
X142140000Y-242570000D03*
D10*
G36*
X76828223Y-223937901D02*
X76337901Y-224428223D01*
X75847579Y-223937901D01*
X76337901Y-223447579D01*
X76828223Y-223937901D01*
X76828223Y-223937901D01*
G37*
G36*
X76192421Y-223302099D02*
X75702099Y-223792421D01*
X75211777Y-223302099D01*
X75702099Y-222811777D01*
X76192421Y-223302099D01*
X76192421Y-223302099D01*
G37*
G36*
X73721777Y-221822099D02*
X74212099Y-221331777D01*
X74702421Y-221822099D01*
X74212099Y-222312421D01*
X73721777Y-221822099D01*
X73721777Y-221822099D01*
G37*
G36*
X74357579Y-222457901D02*
X74847901Y-221967579D01*
X75338223Y-222457901D01*
X74847901Y-222948223D01*
X74357579Y-222457901D01*
X74357579Y-222457901D01*
G37*
G36*
X77741777Y-220442099D02*
X78232099Y-219951777D01*
X78722421Y-220442099D01*
X78232099Y-220932421D01*
X77741777Y-220442099D01*
X77741777Y-220442099D01*
G37*
G36*
X78377579Y-221077901D02*
X78867901Y-220587579D01*
X79358223Y-221077901D01*
X78867901Y-221568223D01*
X78377579Y-221077901D01*
X78377579Y-221077901D01*
G37*
G36*
X78128223Y-219847901D02*
X77637901Y-220338223D01*
X77147579Y-219847901D01*
X77637901Y-219357579D01*
X78128223Y-219847901D01*
X78128223Y-219847901D01*
G37*
G36*
X77492421Y-219212099D02*
X77002099Y-219702421D01*
X76511777Y-219212099D01*
X77002099Y-218721777D01*
X77492421Y-219212099D01*
X77492421Y-219212099D01*
G37*
G36*
X70731777Y-227512099D02*
X71222099Y-227021777D01*
X71712421Y-227512099D01*
X71222099Y-228002421D01*
X70731777Y-227512099D01*
X70731777Y-227512099D01*
G37*
G36*
X71367579Y-228147901D02*
X71857901Y-227657579D01*
X72348223Y-228147901D01*
X71857901Y-228638223D01*
X71367579Y-228147901D01*
X71367579Y-228147901D01*
G37*
G36*
X71108223Y-226917901D02*
X70617901Y-227408223D01*
X70127579Y-226917901D01*
X70617901Y-226427579D01*
X71108223Y-226917901D01*
X71108223Y-226917901D01*
G37*
G36*
X70472421Y-226282099D02*
X69982099Y-226772421D01*
X69491777Y-226282099D01*
X69982099Y-225791777D01*
X70472421Y-226282099D01*
X70472421Y-226282099D01*
G37*
D31*
X101270000Y-259460000D03*
X102770000Y-259460000D03*
X101270000Y-258100000D03*
X102770000Y-258100000D03*
D23*
X101860420Y-256860000D03*
X102759580Y-256860000D03*
X105130420Y-251970000D03*
X106029580Y-251970000D03*
X79790420Y-250870000D03*
X80689580Y-250870000D03*
X81780000Y-252360420D03*
X81780000Y-253259580D03*
X82460000Y-252360420D03*
X82460000Y-253259580D03*
X80799580Y-252720000D03*
X79900420Y-252720000D03*
X84389580Y-252910000D03*
X83490420Y-252910000D03*
X80799580Y-253420000D03*
X79900420Y-253420000D03*
X84389580Y-253600000D03*
X83490420Y-253600000D03*
X79800000Y-255460420D03*
X79800000Y-256359580D03*
D10*
G36*
X140162140Y-221816248D02*
X140652462Y-221325926D01*
X141142784Y-221816248D01*
X140652462Y-222306570D01*
X140162140Y-221816248D01*
X140162140Y-221816248D01*
G37*
G36*
X140797942Y-222452050D02*
X141288264Y-221961728D01*
X141778586Y-222452050D01*
X141288264Y-222942372D01*
X140797942Y-222452050D01*
X140797942Y-222452050D01*
G37*
D31*
X167710000Y-259460000D03*
X169210000Y-259460000D03*
D10*
G36*
X143270581Y-223929904D02*
X142780259Y-224420226D01*
X142289937Y-223929904D01*
X142780259Y-223439582D01*
X143270581Y-223929904D01*
X143270581Y-223929904D01*
G37*
G36*
X142634779Y-223294102D02*
X142144457Y-223784424D01*
X141654135Y-223294102D01*
X142144457Y-222803780D01*
X142634779Y-223294102D01*
X142634779Y-223294102D01*
G37*
D31*
X167710000Y-258090000D03*
X169210000Y-258090000D03*
D10*
G36*
X144185578Y-220451532D02*
X144675900Y-219961210D01*
X145166222Y-220451532D01*
X144675900Y-220941854D01*
X144185578Y-220451532D01*
X144185578Y-220451532D01*
G37*
G36*
X144821380Y-221087334D02*
X145311702Y-220597012D01*
X145802024Y-221087334D01*
X145311702Y-221577656D01*
X144821380Y-221087334D01*
X144821380Y-221087334D01*
G37*
D23*
X168300420Y-256860000D03*
X169199580Y-256860000D03*
X171560420Y-251970000D03*
X172459580Y-251970000D03*
D10*
G36*
X137171078Y-227508458D02*
X137661400Y-227018136D01*
X138151722Y-227508458D01*
X137661400Y-227998780D01*
X137171078Y-227508458D01*
X137171078Y-227508458D01*
G37*
G36*
X137806880Y-228144260D02*
X138297202Y-227653938D01*
X138787524Y-228144260D01*
X138297202Y-228634582D01*
X137806880Y-228144260D01*
X137806880Y-228144260D01*
G37*
G36*
X137550088Y-226920965D02*
X137059766Y-227411287D01*
X136569444Y-226920965D01*
X137059766Y-226430643D01*
X137550088Y-226920965D01*
X137550088Y-226920965D01*
G37*
G36*
X136914286Y-226285163D02*
X136423964Y-226775485D01*
X135933642Y-226285163D01*
X136423964Y-225794841D01*
X136914286Y-226285163D01*
X136914286Y-226285163D01*
G37*
D23*
X148220000Y-252360420D03*
X148220000Y-253259580D03*
X148900000Y-252360420D03*
X148900000Y-253259580D03*
X147239580Y-252720000D03*
X146340420Y-252720000D03*
X150829580Y-252910000D03*
X149930420Y-252910000D03*
X147239580Y-253420000D03*
X146340420Y-253420000D03*
X150829580Y-253600000D03*
X149930420Y-253600000D03*
X146240000Y-255470420D03*
X146240000Y-256369580D03*
D37*
X80620000Y-255370000D03*
X80620000Y-255870000D03*
X80620000Y-256370000D03*
X80620000Y-256870000D03*
D38*
X81270000Y-257520000D03*
X81770000Y-257520000D03*
X82270000Y-257520000D03*
X82770000Y-257520000D03*
D37*
X83420000Y-256870000D03*
X83420000Y-256370000D03*
X83420000Y-255870000D03*
X83420000Y-255370000D03*
D38*
X82770000Y-254720000D03*
X82270000Y-254720000D03*
X81770000Y-254720000D03*
X81270000Y-254720000D03*
D39*
X82020000Y-256120000D03*
D37*
X147070000Y-255370000D03*
X147070000Y-255870000D03*
X147070000Y-256370000D03*
X147070000Y-256870000D03*
D38*
X147720000Y-257520000D03*
X148220000Y-257520000D03*
X148720000Y-257520000D03*
X149220000Y-257520000D03*
D37*
X149870000Y-256870000D03*
X149870000Y-256370000D03*
X149870000Y-255870000D03*
X149870000Y-255370000D03*
D38*
X149220000Y-254720000D03*
X148720000Y-254720000D03*
X148220000Y-254720000D03*
X147720000Y-254720000D03*
D39*
X148470000Y-256120000D03*
D23*
X165350420Y-194640000D03*
X166249580Y-194640000D03*
X165360420Y-193820000D03*
X166259580Y-193820000D03*
X165360420Y-193000000D03*
X166259580Y-193000000D03*
X165360420Y-192180000D03*
X166259580Y-192180000D03*
X165360420Y-191360000D03*
X166259580Y-191360000D03*
X165350420Y-189740000D03*
X166249580Y-189740000D03*
X165360420Y-190550000D03*
X166259580Y-190550000D03*
X165350420Y-188940000D03*
X166249580Y-188940000D03*
X165360420Y-188070000D03*
X166259580Y-188070000D03*
D10*
G36*
X75881777Y-219852099D02*
X76372099Y-219361777D01*
X76862421Y-219852099D01*
X76372099Y-220342421D01*
X75881777Y-219852099D01*
X75881777Y-219852099D01*
G37*
G36*
X76517579Y-220487901D02*
X77007901Y-219997579D01*
X77498223Y-220487901D01*
X77007901Y-220978223D01*
X76517579Y-220487901D01*
X76517579Y-220487901D01*
G37*
G36*
X72968223Y-227517901D02*
X72477901Y-228008223D01*
X71987579Y-227517901D01*
X72477901Y-227027579D01*
X72968223Y-227517901D01*
X72968223Y-227517901D01*
G37*
G36*
X72332421Y-226882099D02*
X71842099Y-227372421D01*
X71351777Y-226882099D01*
X71842099Y-226391777D01*
X72332421Y-226882099D01*
X72332421Y-226882099D01*
G37*
G36*
X70131777Y-225652099D02*
X70622099Y-225161777D01*
X71112421Y-225652099D01*
X70622099Y-226142421D01*
X70131777Y-225652099D01*
X70131777Y-225652099D01*
G37*
G36*
X70767579Y-226287901D02*
X71257901Y-225797579D01*
X71748223Y-226287901D01*
X71257901Y-226778223D01*
X70767579Y-226287901D01*
X70767579Y-226287901D01*
G37*
D23*
X106250000Y-255739580D03*
X106250000Y-254840420D03*
X104020000Y-251829580D03*
X104020000Y-250930420D03*
X103200000Y-250940420D03*
X103200000Y-251839580D03*
X105990000Y-250060420D03*
X105990000Y-250959580D03*
X105940000Y-248020420D03*
X105940000Y-248919580D03*
D40*
X73960000Y-250872500D03*
X73960000Y-248967500D03*
X75880000Y-250872500D03*
X75880000Y-248967500D03*
D31*
X77290000Y-250870000D03*
X78790000Y-250870000D03*
X78780000Y-249460000D03*
X80280000Y-249460000D03*
X81780000Y-250840000D03*
X83280000Y-250840000D03*
D23*
X81789580Y-258630000D03*
X80890420Y-258630000D03*
X83409580Y-258630000D03*
X82510420Y-258630000D03*
D10*
G36*
X145158555Y-221716659D02*
X144668233Y-222206981D01*
X144177911Y-221716659D01*
X144668233Y-221226337D01*
X145158555Y-221716659D01*
X145158555Y-221716659D01*
G37*
G36*
X144522753Y-221080857D02*
X144032431Y-221571179D01*
X143542109Y-221080857D01*
X144032431Y-220590535D01*
X144522753Y-221080857D01*
X144522753Y-221080857D01*
G37*
G36*
X142325886Y-219850492D02*
X142816208Y-219360170D01*
X143306530Y-219850492D01*
X142816208Y-220340814D01*
X142325886Y-219850492D01*
X142325886Y-219850492D01*
G37*
G36*
X142961688Y-220486294D02*
X143452010Y-219995972D01*
X143942332Y-220486294D01*
X143452010Y-220976616D01*
X142961688Y-220486294D01*
X142961688Y-220486294D01*
G37*
D23*
X172690000Y-255739580D03*
X172690000Y-254840420D03*
X170460000Y-251839580D03*
X170460000Y-250940420D03*
X169640000Y-250940420D03*
X169640000Y-251839580D03*
D10*
G36*
X139416849Y-227514935D02*
X138926527Y-228005257D01*
X138436205Y-227514935D01*
X138926527Y-227024613D01*
X139416849Y-227514935D01*
X139416849Y-227514935D01*
G37*
G36*
X138781047Y-226879133D02*
X138290725Y-227369455D01*
X137800403Y-226879133D01*
X138290725Y-226388811D01*
X138781047Y-226879133D01*
X138781047Y-226879133D01*
G37*
G36*
X136570038Y-225648767D02*
X137060360Y-225158445D01*
X137550682Y-225648767D01*
X137060360Y-226139089D01*
X136570038Y-225648767D01*
X136570038Y-225648767D01*
G37*
G36*
X137205840Y-226284569D02*
X137696162Y-225794247D01*
X138186484Y-226284569D01*
X137696162Y-226774891D01*
X137205840Y-226284569D01*
X137205840Y-226284569D01*
G37*
D23*
X172430000Y-250060420D03*
X172430000Y-250959580D03*
X172380000Y-248020420D03*
X172380000Y-248919580D03*
D40*
X140400000Y-250872500D03*
X140400000Y-248967500D03*
X142330000Y-250872500D03*
X142330000Y-248967500D03*
D31*
X143730000Y-250870000D03*
X145230000Y-250870000D03*
X145230000Y-249460000D03*
X146730000Y-249460000D03*
X148220000Y-250840000D03*
X149720000Y-250840000D03*
D23*
X148229580Y-258630000D03*
X147330420Y-258630000D03*
X149849580Y-258630000D03*
X148950420Y-258630000D03*
D41*
X105090000Y-253130000D03*
X103190000Y-253130000D03*
X103190000Y-255730000D03*
X104140000Y-255730000D03*
X105090000Y-255730000D03*
X171540000Y-253130000D03*
X169640000Y-253130000D03*
X169640000Y-255730000D03*
X170590000Y-255730000D03*
X171540000Y-255730000D03*
D42*
X102790000Y-249440000D03*
X104690000Y-249440000D03*
X103740000Y-247440000D03*
X169230000Y-249430000D03*
X171130000Y-249430000D03*
X170180000Y-247430000D03*
D10*
G36*
X78718223Y-221717901D02*
X78227901Y-222208223D01*
X77737579Y-221717901D01*
X78227901Y-221227579D01*
X78718223Y-221717901D01*
X78718223Y-221717901D01*
G37*
G36*
X78082421Y-221082099D02*
X77592099Y-221572421D01*
X77101777Y-221082099D01*
X77592099Y-220591777D01*
X78082421Y-221082099D01*
X78082421Y-221082099D01*
G37*
D30*
X75430000Y-207190000D03*
X75430000Y-208690000D03*
X76580000Y-207190000D03*
X76580000Y-208690000D03*
D23*
X75150000Y-206109580D03*
X75150000Y-205210420D03*
X76680000Y-205709580D03*
X76680000Y-204810420D03*
D27*
X71460000Y-207345000D03*
D28*
X71460000Y-207545000D03*
X70960000Y-207545000D03*
D27*
X70960000Y-207345000D03*
X71960000Y-207345000D03*
D28*
X71960000Y-207545000D03*
X72460000Y-207545000D03*
D27*
X72460000Y-207345000D03*
X72460000Y-204895000D03*
D28*
X72460000Y-204695000D03*
X71960000Y-204695000D03*
D27*
X71960000Y-204895000D03*
X70960000Y-204895000D03*
D28*
X70960000Y-204695000D03*
X71460000Y-204695000D03*
D27*
X71460000Y-204895000D03*
D29*
X71710000Y-206120000D03*
D43*
X180540420Y-101985420D03*
X172340420Y-101985420D03*
X202910420Y-101985420D03*
X194710420Y-101985420D03*
D23*
X168850000Y-246830420D03*
X168850000Y-247729580D03*
X150840420Y-251910000D03*
X151739580Y-251910000D03*
D25*
X137587500Y-238370000D03*
X139492500Y-238370000D03*
D43*
X136450000Y-101980000D03*
X128250000Y-101980000D03*
X114100000Y-101980000D03*
X105900000Y-101980000D03*
D23*
X102410000Y-246830420D03*
X102410000Y-247729580D03*
X84400420Y-251910000D03*
X85299580Y-251910000D03*
D25*
X161372500Y-212140000D03*
X159467500Y-212140000D03*
D23*
X143150000Y-205629580D03*
X143150000Y-204730420D03*
D14*
X177385000Y-203660000D03*
X176835000Y-203660000D03*
D23*
X182180000Y-196779580D03*
X182180000Y-195880420D03*
X181280000Y-195880420D03*
X181280000Y-196779580D03*
X183060000Y-196779580D03*
X183060000Y-195880420D03*
X77140420Y-210170000D03*
X78039580Y-210170000D03*
X73330000Y-199899580D03*
X73330000Y-199000420D03*
X143570420Y-210240000D03*
X144469580Y-210240000D03*
X139840000Y-199889580D03*
X139840000Y-198990420D03*
D44*
X70110000Y-201880000D03*
X72010000Y-201880000D03*
X72010000Y-199480000D03*
X70110000Y-199480000D03*
X71060000Y-199480000D03*
X136540000Y-201850000D03*
X138440000Y-201850000D03*
X138440000Y-199450000D03*
X136540000Y-199450000D03*
X137490000Y-199450000D03*
D35*
X106660000Y-203775000D03*
X106660000Y-204325000D03*
X107260000Y-203775000D03*
X107260000Y-204325000D03*
X109060000Y-202625000D03*
X109060000Y-202075000D03*
X109060000Y-203575000D03*
X109060000Y-204125000D03*
X108460000Y-202625000D03*
X108460000Y-202075000D03*
D14*
X114325000Y-202430000D03*
X113775000Y-202430000D03*
D35*
X113050000Y-198075000D03*
X113050000Y-198625000D03*
X108460000Y-203575000D03*
X108460000Y-204125000D03*
X112460000Y-198075000D03*
X112460000Y-198625000D03*
X107860000Y-202625000D03*
X107860000Y-202075000D03*
X107860000Y-203575000D03*
X107860000Y-204125000D03*
D14*
X115175000Y-200530000D03*
X115725000Y-200530000D03*
D35*
X110260000Y-202625000D03*
X110260000Y-202075000D03*
X109660000Y-202625000D03*
X109660000Y-202075000D03*
D14*
X113125000Y-200830000D03*
X112575000Y-200830000D03*
D35*
X109650000Y-198075000D03*
X109650000Y-198625000D03*
D14*
X113125000Y-200240000D03*
X112575000Y-200240000D03*
D35*
X110860000Y-202625000D03*
X110860000Y-202075000D03*
X110250000Y-198075000D03*
X110250000Y-198625000D03*
X111460000Y-202625000D03*
X111460000Y-202075000D03*
D14*
X106455000Y-200920000D03*
X105905000Y-200920000D03*
D35*
X110850000Y-198075000D03*
X110850000Y-198625000D03*
D14*
X110825000Y-204780000D03*
X110275000Y-204780000D03*
X108485000Y-200650000D03*
X109035000Y-200650000D03*
D35*
X111450000Y-198075000D03*
X111450000Y-198625000D03*
D14*
X108485000Y-201260000D03*
X109035000Y-201260000D03*
X110275000Y-195890000D03*
X110825000Y-195890000D03*
D23*
X205529580Y-257710000D03*
X204630420Y-257710000D03*
X194610420Y-257670420D03*
X194610420Y-258569580D03*
X193890420Y-257670420D03*
X193890420Y-258569580D03*
X205469580Y-255200000D03*
X204570420Y-255200000D03*
X205479580Y-255930000D03*
X204580420Y-255930000D03*
X196870420Y-257670420D03*
X196870420Y-258569580D03*
D45*
X80401000Y-127240000D03*
X77099000Y-127240000D03*
D23*
X118480000Y-206940420D03*
X118480000Y-207839580D03*
X129493320Y-257920000D03*
X128594160Y-257920000D03*
X127549160Y-259030420D03*
X127549160Y-259929580D03*
X83525840Y-137100420D03*
X84425000Y-137100420D03*
X126769160Y-259030420D03*
X126769160Y-259929580D03*
X127679160Y-257360000D03*
X126780000Y-257360000D03*
X126619160Y-254780420D03*
X126619160Y-255679580D03*
X119908740Y-257850000D03*
X119009580Y-257850000D03*
X122798740Y-254059580D03*
X122798740Y-253160420D03*
D45*
X77744420Y-139800000D03*
X81046420Y-139800000D03*
D23*
X119009160Y-257110000D03*
X119908320Y-257110000D03*
X122839580Y-260710000D03*
X123738740Y-260710000D03*
X196140420Y-257670420D03*
X196140420Y-258569580D03*
X118138740Y-256220420D03*
X118138740Y-257119580D03*
X120404160Y-260090000D03*
X121303320Y-260090000D03*
X75665420Y-138100000D03*
X75665420Y-137200840D03*
D30*
X74655420Y-138100420D03*
X74655420Y-136600420D03*
D23*
X118424160Y-260090000D03*
X119323320Y-260090000D03*
X73535420Y-138100000D03*
X73535420Y-137200840D03*
X201790420Y-255800000D03*
X202689580Y-255800000D03*
X202700420Y-245240000D03*
X203599580Y-245240000D03*
X198440420Y-257680420D03*
X198440420Y-258579580D03*
X205199580Y-250350000D03*
X204300420Y-250350000D03*
X199170420Y-257680420D03*
X199170420Y-258579580D03*
X124639160Y-240270000D03*
X123740000Y-240270000D03*
D35*
X112020000Y-193305000D03*
X112020000Y-192755000D03*
X109060000Y-193305000D03*
X109060000Y-192755000D03*
X112030000Y-207365000D03*
X112030000Y-207915000D03*
X109670000Y-207365000D03*
X109670000Y-207915000D03*
X111420000Y-193305000D03*
X111420000Y-192755000D03*
X109660000Y-193305000D03*
X109660000Y-192755000D03*
X111430000Y-207375000D03*
X111430000Y-207925000D03*
X109030000Y-207355000D03*
X109030000Y-207905000D03*
D23*
X129139580Y-239799580D03*
X129139580Y-238900420D03*
D33*
X130269580Y-234876100D03*
X130269580Y-233783900D03*
D23*
X125510000Y-239350000D03*
X126409160Y-239350000D03*
X127119580Y-237269580D03*
X127119580Y-236370420D03*
X125469580Y-236370420D03*
X125469580Y-237269580D03*
X205199580Y-251150000D03*
X204300420Y-251150000D03*
X126299580Y-237269580D03*
X126299580Y-236370420D03*
X119420000Y-239449580D03*
X119420000Y-238550420D03*
X116559580Y-205910000D03*
X115660420Y-205910000D03*
X119179580Y-208620000D03*
X118280420Y-208620000D03*
X125469580Y-233790420D03*
X125469580Y-234689580D03*
X126259580Y-234689580D03*
X126259580Y-233790420D03*
X127079580Y-234689580D03*
X127079580Y-233790420D03*
X193910000Y-255280420D03*
X193910000Y-256179580D03*
D46*
X82670420Y-114505420D03*
X82670420Y-119805420D03*
D23*
X187179580Y-252280000D03*
X186280420Y-252280000D03*
X192953740Y-252027080D03*
X192953740Y-251127920D03*
X190953740Y-252027080D03*
X190953740Y-251127920D03*
X192330420Y-241349580D03*
X192330420Y-240450420D03*
X193040420Y-241349580D03*
X193040420Y-240450420D03*
X194610420Y-241359580D03*
X194610420Y-240460420D03*
X193880420Y-241359580D03*
X193880420Y-240460420D03*
X213670000Y-238049580D03*
X213670000Y-237150420D03*
X207860000Y-237899580D03*
X207860000Y-237000420D03*
D14*
X106095000Y-202850000D03*
X106645000Y-202850000D03*
X106095000Y-202260000D03*
X106645000Y-202260000D03*
X111585000Y-196860000D03*
X112135000Y-196860000D03*
X115725000Y-202430000D03*
X115175000Y-202430000D03*
X111385000Y-204450000D03*
X111935000Y-204450000D03*
X110975000Y-203660000D03*
X110425000Y-203660000D03*
D35*
X109760000Y-203115000D03*
X109760000Y-203665000D03*
X115150000Y-201155000D03*
X115150000Y-201705000D03*
X105950000Y-200095000D03*
X105950000Y-199545000D03*
D14*
X109715000Y-196220000D03*
X109165000Y-196220000D03*
X109725000Y-196860000D03*
X109175000Y-196860000D03*
X109725000Y-197450000D03*
X109175000Y-197450000D03*
D25*
X82437920Y-137100420D03*
X80532920Y-137100420D03*
D23*
X119903320Y-258870000D03*
X119004160Y-258870000D03*
D14*
X113395000Y-207380000D03*
X112845000Y-207380000D03*
X113385000Y-193300000D03*
X112835000Y-193300000D03*
X107705000Y-193290000D03*
X108255000Y-193290000D03*
X107705000Y-207380000D03*
X108255000Y-207380000D03*
D33*
X130269580Y-237936100D03*
X130269580Y-236843900D03*
D47*
X77920420Y-118935420D03*
X73720420Y-118935420D03*
X69520420Y-118935420D03*
X77920420Y-113435420D03*
X73720420Y-113435420D03*
X69520420Y-113435420D03*
D36*
X112010000Y-193888200D03*
X112010000Y-194751800D03*
X110030000Y-193888200D03*
X110030000Y-194751800D03*
X111070000Y-206781800D03*
X111070000Y-205918200D03*
X109080000Y-206781800D03*
X109080000Y-205918200D03*
X111060000Y-193888200D03*
X111060000Y-194751800D03*
X109070000Y-193888200D03*
X109070000Y-194751800D03*
X112030000Y-206781800D03*
X112030000Y-205918200D03*
X110040000Y-206781800D03*
X110040000Y-205918200D03*
D48*
X75325420Y-140070420D03*
X73825420Y-140070420D03*
X125418740Y-250500000D03*
X125418740Y-252000000D03*
D14*
X114195000Y-199410000D03*
X114745000Y-199410000D03*
D23*
X113570000Y-204410420D03*
X113570000Y-205309580D03*
X117490000Y-206670420D03*
X117490000Y-207569580D03*
X205529580Y-256870000D03*
X204630420Y-256870000D03*
X75645000Y-138910420D03*
X74745840Y-138910420D03*
X204640420Y-258530000D03*
X205539580Y-258530000D03*
X195330420Y-257670420D03*
X195330420Y-258569580D03*
X205479580Y-254220000D03*
X204580420Y-254220000D03*
X205479580Y-253410000D03*
X204580420Y-253410000D03*
X197600420Y-257670420D03*
X197600420Y-258569580D03*
X128339580Y-259030000D03*
X129238740Y-259030000D03*
X205199580Y-249560000D03*
X204300420Y-249560000D03*
X128329580Y-259930000D03*
X129228740Y-259930000D03*
X127678740Y-256520000D03*
X126779580Y-256520000D03*
X125428740Y-254079580D03*
X125428740Y-253180420D03*
X120928740Y-253520420D03*
X120928740Y-254419580D03*
X127679160Y-258190000D03*
X126780000Y-258190000D03*
X199890420Y-257680420D03*
X199890420Y-258579580D03*
X121948740Y-254069580D03*
X121948740Y-253170420D03*
X123638740Y-254069580D03*
X123638740Y-253170420D03*
X124518740Y-254069580D03*
X124518740Y-253170420D03*
X120404160Y-261130000D03*
X121303320Y-261130000D03*
X122779160Y-240270000D03*
X121880000Y-240270000D03*
X205199580Y-248770000D03*
X204300420Y-248770000D03*
D25*
X94932500Y-212140000D03*
X93027500Y-212140000D03*
D14*
X112845000Y-206770000D03*
X113395000Y-206770000D03*
X112835000Y-193890000D03*
X113385000Y-193890000D03*
X108255000Y-193890000D03*
X107705000Y-193890000D03*
X108255000Y-206780000D03*
X107705000Y-206780000D03*
D25*
X94932500Y-213910000D03*
X93027500Y-213910000D03*
D23*
X126409160Y-240260000D03*
X125510000Y-240260000D03*
X127379580Y-239289580D03*
X127379580Y-238390420D03*
X125500000Y-238330000D03*
X126399160Y-238330000D03*
X127929580Y-237279580D03*
X127929580Y-236380420D03*
X127940000Y-234690000D03*
X128839160Y-234690000D03*
X119420000Y-236700420D03*
X119420000Y-237599580D03*
X119450000Y-234610420D03*
X119450000Y-235509580D03*
X126369160Y-235520000D03*
X125470000Y-235520000D03*
X120460420Y-239450000D03*
X121359580Y-239450000D03*
X116559580Y-206670000D03*
X115660420Y-206670000D03*
D40*
X83380000Y-103042500D03*
X83380000Y-101137500D03*
X80830000Y-110587500D03*
X80830000Y-112492500D03*
D35*
X193090000Y-253685000D03*
X193090000Y-254235000D03*
D14*
X192495000Y-254210000D03*
X191945000Y-254210000D03*
X192495000Y-253380000D03*
X191945000Y-253380000D03*
X194375000Y-259360000D03*
X193825000Y-259360000D03*
D35*
X193800000Y-260555000D03*
X193800000Y-260005000D03*
D14*
X185155000Y-256630000D03*
X184605000Y-256630000D03*
X185145000Y-257400000D03*
X184595000Y-257400000D03*
X185145000Y-258060000D03*
X184595000Y-258060000D03*
X185145000Y-258700000D03*
X184595000Y-258700000D03*
D23*
X127668740Y-253270420D03*
X127668740Y-254169580D03*
D14*
X185145000Y-259360000D03*
X184595000Y-259360000D03*
X185145000Y-260000000D03*
X184595000Y-260000000D03*
X185145000Y-260660000D03*
X184595000Y-260660000D03*
D23*
X186270420Y-251520000D03*
X187169580Y-251520000D03*
X186260420Y-250530000D03*
X187159580Y-250530000D03*
X115740000Y-196779580D03*
X115740000Y-195880420D03*
X114840000Y-195880420D03*
X114840000Y-196779580D03*
X116620000Y-196779580D03*
X116620000Y-195880420D03*
X98920420Y-194640000D03*
X99819580Y-194640000D03*
X98920420Y-193820000D03*
X99819580Y-193820000D03*
X98920420Y-193000000D03*
X99819580Y-193000000D03*
X98920420Y-192180000D03*
X99819580Y-192180000D03*
X98920420Y-191360000D03*
X99819580Y-191360000D03*
X98910420Y-189740000D03*
X99809580Y-189740000D03*
X98920420Y-190550000D03*
X99819580Y-190550000D03*
X98910420Y-188940000D03*
X99809580Y-188940000D03*
X98920420Y-188070000D03*
X99819580Y-188070000D03*
X191600420Y-241349580D03*
X191600420Y-240450420D03*
X195330420Y-241359580D03*
X195330420Y-240460420D03*
X121550420Y-233780000D03*
X122449580Y-233780000D03*
D14*
X205945000Y-241020000D03*
X205395000Y-241020000D03*
X205945000Y-241670000D03*
X205395000Y-241670000D03*
X205945000Y-242320000D03*
X205395000Y-242320000D03*
X205945000Y-242970000D03*
X205395000Y-242970000D03*
X205945000Y-243630000D03*
X205395000Y-243630000D03*
X205945000Y-244920000D03*
X205395000Y-244920000D03*
X205945000Y-245580000D03*
X205395000Y-245580000D03*
D23*
X210060000Y-237000420D03*
X210060000Y-237899580D03*
X208990000Y-237000420D03*
X208990000Y-237899580D03*
D17*
X201790000Y-254715000D03*
X201790000Y-254065000D03*
X201790000Y-253415000D03*
X201790000Y-252765000D03*
X201790000Y-252115000D03*
X201790000Y-251465000D03*
X201790000Y-250815000D03*
X201790000Y-250165000D03*
X195990000Y-250165000D03*
X195990000Y-250815000D03*
X195990000Y-251465000D03*
X195990000Y-252115000D03*
X195990000Y-254715000D03*
X195990000Y-254065000D03*
X195990000Y-253415000D03*
X195990000Y-252765000D03*
X202700000Y-244125000D03*
X202700000Y-243475000D03*
X202700000Y-242825000D03*
X202700000Y-242175000D03*
X202700000Y-241525000D03*
X202700000Y-240875000D03*
X202700000Y-240225000D03*
X202700000Y-239575000D03*
X196900000Y-239575000D03*
X196900000Y-240225000D03*
X196900000Y-240875000D03*
X196900000Y-241525000D03*
X196900000Y-244125000D03*
X196900000Y-243475000D03*
X196900000Y-242825000D03*
X196900000Y-242175000D03*
D49*
X82570420Y-129235420D03*
D50*
X83070420Y-130170420D03*
X82570420Y-130170420D03*
X82070420Y-130170420D03*
X82070420Y-128300420D03*
X82570420Y-128300420D03*
X83070420Y-128300420D03*
D51*
X77725420Y-137600420D03*
D52*
X78660420Y-137100420D03*
X78660420Y-137600420D03*
X78660420Y-138100420D03*
X76790420Y-138100420D03*
X76790420Y-137600420D03*
X76790420Y-137100420D03*
D53*
X122318980Y-259290400D03*
X122816820Y-259290400D03*
X123317200Y-259290400D03*
X123817580Y-259290400D03*
X124317960Y-259290400D03*
D54*
X125237440Y-258370920D03*
X125237440Y-257870540D03*
X125237440Y-257370160D03*
X125237440Y-256869780D03*
X125237440Y-256371940D03*
D53*
X124317960Y-255439760D03*
X123817580Y-255439760D03*
X123317200Y-255439760D03*
X122816820Y-255439760D03*
X122318980Y-255439760D03*
D54*
X121386800Y-256361780D03*
X121386800Y-256859620D03*
X121386800Y-257360000D03*
X121386800Y-257860380D03*
X121386800Y-258360760D03*
D55*
X123309580Y-257360000D03*
D56*
X121450000Y-238360000D03*
X121950000Y-238360000D03*
X122450000Y-238360000D03*
X122950000Y-238360000D03*
X123450000Y-238360000D03*
D57*
X124300000Y-237510000D03*
X124300000Y-237010000D03*
X124300000Y-236510000D03*
X124300000Y-236010000D03*
X124300000Y-235510000D03*
D56*
X123450000Y-234660000D03*
X122950000Y-234660000D03*
X122450000Y-234660000D03*
X121950000Y-234660000D03*
X121450000Y-234660000D03*
D57*
X120600000Y-235510000D03*
X120600000Y-236010000D03*
X120600000Y-236510000D03*
X120600000Y-237010000D03*
X120600000Y-237510000D03*
D58*
X122450000Y-236510000D03*
D59*
X68060420Y-131770420D03*
X68060420Y-136850420D03*
X68060420Y-134310420D03*
X68030420Y-144850420D03*
X68030420Y-149930420D03*
X68030420Y-147390420D03*
X83870000Y-105225000D03*
X83870000Y-110305000D03*
X83870000Y-107765000D03*
D25*
X161372500Y-213910000D03*
X159467500Y-213910000D03*
D43*
X65610000Y-260240000D03*
X73810000Y-260240000D03*
X85380000Y-260240000D03*
X93580000Y-260240000D03*
X105240000Y-260240000D03*
X113440000Y-260240000D03*
X132050000Y-260240000D03*
X140250000Y-260240000D03*
X151820000Y-260240000D03*
X160020000Y-260240000D03*
X171680000Y-260240000D03*
X179880000Y-260240000D03*
D60*
X209830420Y-196505000D03*
X209830420Y-201585000D03*
D61*
X209830420Y-204125000D03*
D60*
X209830420Y-199045000D03*
X209830420Y-193965000D03*
D62*
X68040420Y-176685420D03*
D63*
X64790420Y-171885420D03*
D64*
X71040420Y-171885420D03*
D35*
X180440000Y-248195000D03*
X180440000Y-247645000D03*
D17*
X186460000Y-254805000D03*
X186460000Y-255455000D03*
X186460000Y-256105000D03*
X186460000Y-256755000D03*
X186460000Y-257405000D03*
X186460000Y-258055000D03*
X186460000Y-258705000D03*
X186460000Y-259355000D03*
X186460000Y-260005000D03*
X186460000Y-260655000D03*
X186460000Y-261305000D03*
X186460000Y-261955000D03*
X192260000Y-261955000D03*
X192260000Y-261305000D03*
X192260000Y-260655000D03*
X192260000Y-260005000D03*
X192260000Y-259355000D03*
X192260000Y-258705000D03*
X192260000Y-254805000D03*
X192260000Y-255455000D03*
X192260000Y-256105000D03*
X192260000Y-256755000D03*
X192260000Y-257405000D03*
X192260000Y-258055000D03*
D23*
X180599580Y-254860000D03*
X179700420Y-254860000D03*
X178999580Y-247270000D03*
X178100420Y-247270000D03*
X181100000Y-246220420D03*
X181100000Y-247119580D03*
X182000000Y-246220420D03*
X182000000Y-247119580D03*
D65*
X181095000Y-249380000D03*
X180445000Y-249380000D03*
X179795000Y-249380000D03*
X179145000Y-249380000D03*
X179145000Y-253180000D03*
X179795000Y-253180000D03*
X181095000Y-253180000D03*
X180445000Y-253180000D03*
D13*
X70600000Y-125310000D03*
X70600000Y-125310000D03*
D66*
G36*
X204273000Y-169473000D02*
X85527000Y-169473000D01*
X85527000Y-127930000D01*
X85517000Y-127880620D01*
X85517000Y-121932606D01*
X86039803Y-121409803D01*
X86067666Y-121367789D01*
X86077000Y-121320000D01*
X86077000Y-106727000D01*
X204273000Y-106727000D01*
X204273000Y-169473000D01*
X204273000Y-169473000D01*
G37*
X204273000Y-169473000D02*
X85527000Y-169473000D01*
X85527000Y-127930000D01*
X85517000Y-127880620D01*
X85517000Y-121932606D01*
X86039803Y-121409803D01*
X86067666Y-121367789D01*
X86077000Y-121320000D01*
X86077000Y-106727000D01*
X204273000Y-106727000D01*
X204273000Y-169473000D01*
M02*
