M48
;DRILL file {KiCad 4.0.7-e2-6376~61~ubuntu18.04.1} date Tue Nov 15 11:44:22 2022
;FORMAT={-:-/ absolute / inch / decimal}
FMAT,2
INCH,TZ
T1C0.006
%
G90
G05
M72
T1
X2.7543Y-6.0864
X2.7713Y-5.7024
X2.7835Y-6.0864
X2.8008Y-5.7024
X3.2028Y-7.2055
X3.2339Y-7.236
X3.2626Y-7.2647
X3.3959Y-6.4366
X3.4168Y-6.9916
X3.4199Y-4.6587
X3.429Y-6.4362
X3.4297Y-6.0665
X3.4561Y-4.6685
X3.4738Y-6.0677
X3.4868Y-4.6949
X3.4902Y-6.9835
X3.5055Y-5.6488
X3.5055Y-5.7031
X3.5276Y-7.1984
X3.5276Y-7.2449
X3.5281Y-7.1557
X3.5518Y-7.1321
X3.5717Y-7.1984
X3.5717Y-7.2453
X3.5784Y-5.8006
X3.5791Y-7.1047
X3.6031Y-7.0791
X3.6087Y-5.7996
X3.6089Y-5.8311
X3.6089Y-5.8622
X3.6089Y-5.8902
X3.6126Y-5.1433
X3.6126Y-5.1965
X3.6126Y-5.2571
X3.6134Y-7.2449
X3.6146Y-7.1984
X3.639Y-4.4972
X3.6752Y-4.461
X3.7185Y-6.1563
X3.7382Y-4.461
X3.7406Y-5.976
X3.7539Y-6.1555
X3.7657Y-5.9508
X3.7799Y-6.1563
X3.8274Y-6.8158
X3.861Y-6.7063
X3.861Y-6.8087
X3.8746Y-5.9697
X3.8792Y-5.7141
X3.8803Y-5.7402
X3.9392Y-6.848
X3.9953Y-6.3488
X4.0126Y-6.4394
X4.0142Y-6.3291
X4.0146Y-6.5575
X4.018Y-6.7378
X4.0236Y-6.4791
X4.0323Y-6.313
X4.0445Y-6.5618
X4.0571Y-6.228
X4.0571Y-6.2579
X4.0689Y-4.6283
X4.074Y-6.0736
X4.089Y-5.678
X4.1024Y-6.0732
X4.1039Y-4.5933
X4.1087Y-5.6787
X4.1126Y-6.5917
X4.1303Y-5.3744
X4.1412Y-5.7347
X4.1412Y-5.8398
X4.1413Y-5.7858
X4.148Y-4.5492
X4.1606Y-5.0272
X4.1661Y-6.1315
X4.1835Y-4.5449
X4.2028Y-5.2122
X4.2201Y-5.0622
X4.239Y-6.1437
X4.2715Y-4.826
X4.2835Y-5.9547
X4.2843Y-6.0012
X4.2996Y-6.0815
X4.3016Y-4.8232
X4.323Y-6.6606
X4.338Y-6.2768
X4.3413Y-4.8386
X4.3431Y-6.6807
X4.3455Y-6.9669
X4.3604Y-6.2772
X4.3687Y-6.9669
X4.374Y-6.0492
X4.3896Y-6.5559
X4.3961Y-6.676
X4.4035Y-5.6681
X4.4047Y-5.6484
X4.4098Y-4.6406
X4.4152Y-6.3276
X4.4152Y-6.5559
X4.4295Y-6.6764
X4.4307Y-4.6319
X4.4407Y-6.3276
X4.4407Y-6.5559
X4.4488Y-5.4496
X4.463Y-6.676
X4.4663Y-6.3276
X4.4663Y-6.5559
X4.4874Y-6.4854
X4.4919Y-6.3276
X4.4919Y-6.5559
X4.4965Y-6.6764
X4.5134Y-4.4429
X4.5175Y-6.3276
X4.5303Y-6.676
X4.5431Y-6.3276
X4.5638Y-6.676
X4.5687Y-6.3276
X4.5719Y-5.4347
X4.5943Y-5.8166
X4.5972Y-6.676
X4.5988Y-4.3575
X4.6051Y-6.2764
X4.6063Y-5.6213
X4.6063Y-5.6642
X4.6065Y-5.4347
X4.622Y-4.8756
X4.627Y-5.8091
X4.6311Y-6.25
X4.6402Y-4.3575
X4.6563Y-5.3091
X4.6632Y-6.0677
X4.6708Y-4.9067
X4.6776Y-5.2882
X4.6813Y-5.5748
X4.685Y-4.9728
X4.69Y-6.0677
X4.7077Y-5.574
X4.7819Y-6.274
X4.7894Y-6.6041
X4.7953Y-6.6484
X4.8071Y-6.4976
X4.8083Y-6.2988
X4.8193Y-6.5352
X4.8512Y-6.1339
X4.8736Y-6.1339
X4.8787Y-6.1659
X4.8787Y-6.1909
X4.8787Y-6.2427
X4.8787Y-6.2939
X4.8787Y-6.3195
X4.8792Y-6.2678
X4.8819Y-6.2173
X4.8988Y-5.5047
X4.9037Y-6.0248
X4.9205Y-5.1862
X4.9291Y-6.0413
X4.9378Y-5.5035
X4.9453Y-4.365
X4.9457Y-5.0429
X4.9457Y-5.1008
X4.9524Y-6.0567
X4.9764Y-6.0744
X4.9886Y-4.4736
X4.9886Y-4.6063
X4.9886Y-4.676
X4.9888Y-4.7081
X5.0012Y-4.365
X5.0012Y-6.0906
X5.0014Y-6.9264
X5.0094Y-6.2937
X5.0138Y-4.9898
X5.0146Y-5.6059
X5.0146Y-5.6898
X5.015Y-5.648
X5.015Y-5.8102
X5.0154Y-5.7311
X5.0154Y-5.7705
X5.0165Y-5.85
X5.0201Y-5.5035
X5.0248Y-6.1134
X5.0287Y-6.2303
X5.0305Y-6.9264
X5.0425Y-5.526
X5.0484Y-6.1343
X5.0756Y-5.1378
X5.0756Y-5.174
X5.0779Y-5.6059
X5.0779Y-5.7315
X5.0779Y-5.85
X5.078Y-5.6457
X5.078Y-5.6882
X5.078Y-5.7705
X5.0866Y-5.335
X5.1071Y-6.1659
X5.1071Y-6.2171
X5.1071Y-6.2683
X5.1071Y-6.3195
X5.1071Y-6.3451
X5.1071Y-6.2939
X5.1157Y-5.335
X5.1632Y-6.9433
X5.1805Y-6.9319
X5.1805Y-6.9602
X5.1807Y-6.7035
X5.2264Y-6.6496
X5.2776Y-5.2528
X5.2847Y-6.3789
X5.2894Y-5.2386
X5.2996Y-6.2915
X5.3063Y-6.2634
X5.3228Y-6.4917
X5.325Y-5.7778
X5.3433Y-6.4898
X5.3457Y-6.1717
X5.3476Y-6.2331
X5.3583Y-5.7189
X5.3585Y-5.9567
X5.3585Y-5.9764
X5.3585Y-5.9961
X5.3585Y-6.0157
X5.3585Y-6.0354
X5.3585Y-6.0551
X5.3585Y-6.0748
X5.365Y-4.7465
X5.3843Y-6.1732
X5.3854Y-5.4335
X5.3949Y-5.8996
X5.4106Y-4.7236
X5.4122Y-5.6012
X5.4126Y-5.7185
X5.415Y-5.6791
X5.4189Y-6.1051
X5.424Y-5.9622
X5.4272Y-5.9945
X5.4378Y-4.6846
X5.4382Y-5.5705
X5.439Y-5.747
X5.4429Y-5.7778
X5.4472Y-5.6768
X5.4646Y-4.8165
X5.4768Y-4.6327
X5.487Y-4.8732
X5.487Y-5.1689
X5.487Y-5.4334
X5.5028Y-6.1965
X5.5031Y-5.8872
X5.5031Y-5.964
X5.5031Y-5.9896
X5.5031Y-6.0663
X5.5035Y-5.5624
X5.5035Y-5.588
X5.5036Y-6.1717
X5.5036Y-6.2228
X5.5114Y-4.8949
X5.5122Y-4.7933
X5.5122Y-5.048
X5.5386Y-4.8264
X5.5484Y-5.913
X5.5531Y-6.2551
X5.5563Y-5.7339
X5.5606Y-6.1976
X5.5681Y-5.9717
X5.578Y-6.0697
X5.6173Y-5.6866
X5.6177Y-4.6606
X5.6193Y-7.5063
X5.6228Y-5.6465
X5.624Y-5.5677
X5.6315Y-5.0094
X5.6343Y-5.9114
X5.6346Y-4.8547
X5.6413Y-4.6217
X5.6516Y-5.0453
X5.6567Y-4.8949
X5.6571Y-4.8264
X5.6575Y-6.1429
X5.6587Y-7.5063
X5.6591Y-5.8378
X5.6614Y-5.924
X5.6661Y-5.8988
X5.6705Y-6.1724
X5.6776Y-6.2226
X5.678Y-6.0087
X5.6799Y-5.6236
X5.6839Y-4.7933
X5.7Y-5.5874
X5.715Y-7.5063
X5.7189Y-4.8264
X5.7315Y-6.0152
X5.7315Y-6.0407
X5.7315Y-6.223
X5.7319Y-5.6392
X5.7319Y-5.6648
X5.7319Y-6.1717
X5.7319Y-6.2484
X5.7319Y-6.274
X5.7319Y-6.2996
X5.7319Y-6.3252
X5.7319Y-6.3508
X5.7496Y-5.0835
X5.7496Y-5.1689
X5.7496Y-5.4334
X5.7598Y-4.8087
X5.7752Y-5.0823
X5.7846Y-5.8591
X5.7984Y-6.1327
X5.8055Y-4.8228
X5.8091Y-4.6287
X5.8126Y-6.1118
X5.8157Y-4.9457
X5.8157Y-5.7311
X5.8236Y-6.0421
X5.8307Y-6.1358
X5.8343Y-6.0673
X5.8461Y-5.7059
X5.8508Y-6.0917
X5.852Y-5.4343
X5.8543Y-5.9752
X5.8559Y-5.2531
X5.8575Y-5.2957
X5.8591Y-5.7307
X5.8823Y-5.6197
X5.8827Y-4.822
X5.8902Y-4.6406
X5.8909Y-4.5496
X5.9063Y-6.1323
X5.9138Y-5.5933
X5.9173Y-5.765
X5.9386Y-5.2559
X5.9528Y-4.8953
X5.9555Y-4.9394
X5.9561Y-5.1319
X5.963Y-5.0811
X5.9665Y-4.3768
X6.0089Y-5.7524
X6.0098Y-4.5768
X6.0106Y-7.976
X6.0128Y-5.1311
X6.0136Y-5.4012
X6.0136Y-5.4232
X6.0136Y-5.7236
X6.0315Y-8.1146
X6.0362Y-4.5744
X6.0406Y-4.2831
X6.0618Y-5.8886
X6.0618Y-6.5429
X6.0646Y-4.5744
X6.0681Y-4.8457
X6.0724Y-6.274
X6.0744Y-6.1008
X6.0921Y-5.8878
X6.0923Y-5.1319
X6.0933Y-6.5429
X6.0972Y-4.8362
X6.1228Y-5.8886
X6.1228Y-6.5429
X6.1268Y-5.2559
X6.1368Y-5.3795
X6.1449Y-4.8594
X6.1634Y-5.698
X6.1648Y-5.3797
X6.1717Y-6.1331
X6.1756Y-6.4091
X6.1811Y-4.3772
X6.1892Y-6.8122
X6.1959Y-5.7979
X6.2031Y-4.6957
X6.2185Y-4.539
X6.2246Y-5.7994
X6.2291Y-5.8311
X6.2305Y-6.8122
X6.2472Y-7.0884
X6.2559Y-4.2827
X6.278Y-4.7449
X6.2783Y-6.1933
X6.2819Y-6.1217
X6.2819Y-6.6075
X6.2819Y-6.7457
X6.2937Y-7.1063
X6.3157Y-4.8461
X6.3157Y-5.1902
X6.3299Y-5.5492
X6.3354Y-6.5909
X6.339Y-6.215
X6.365Y-5.1953
X6.3703Y-6.8622
X6.3957Y-4.6972
X6.4114Y-6.3484
X6.4114Y-6.6638
X6.4291Y-5.8587
X6.4366Y-6.1543
X6.4492Y-5.1449
X6.4502Y-6.8095
X6.4567Y-4.8453
X6.4681Y-5.1244
X6.4681Y-5.1669
X6.4701Y-5.8559
X6.4764Y-6.7063
X6.4764Y-6.8087
X6.4839Y-5.3685
X6.498Y-5.9075
X6.5079Y-4.7913
X6.5354Y-6.439
X6.537Y-6.4748
X6.5402Y-6.4098
X6.5508Y-6.387
X6.5516Y-6.774
X6.578Y-6.3685
X6.5823Y-4.6469
X6.6004Y-6.3445
X6.6094Y-6.3209
X6.6334Y-6.7378
X6.636Y-6.6531
X6.6374Y-6.2972
X6.6476Y-5.9803
X6.6535Y-6.574
X6.7279Y-6.5917
X6.7279Y-6.6539
X6.7354Y-6.2421
X6.7354Y-6.2642
X6.7463Y-5.3742
X6.7569Y-5.7856
X6.7569Y-5.8288
X6.7581Y-5.739
X6.7583Y-4.9114
X6.7754Y-5.4504
X6.7807Y-6.1311
X6.7843Y-5.0547
X6.812Y-5.4244
X6.8362Y-5.0622
X6.8492Y-6.152
X6.8853Y-4.8189
X6.8988Y-4.9189
X6.8994Y-5.9549
X6.924Y-4.8043
X6.9295Y-4.9189
X6.9484Y-6.3067
X6.9575Y-4.8386
X6.9899Y-6.0494
X7.0118Y-6.676
X7.0309Y-6.3276
X7.0309Y-6.5559
X7.0453Y-6.6764
X7.0565Y-6.3276
X7.0565Y-6.5559
X7.0652Y-5.4494
X7.0665Y-6.2598
X7.0689Y-6.235
X7.0787Y-6.6756
X7.0821Y-6.3276
X7.0821Y-6.5559
X7.1077Y-6.3276
X7.1077Y-6.5559
X7.1122Y-6.676
X7.1333Y-6.3276
X7.1461Y-6.6756
X7.1567Y-4.7051
X7.1589Y-6.3276
X7.1594Y-4.5843
X7.1795Y-6.676
X7.1844Y-6.3276
X7.188Y-5.4323
X7.1912Y-5.8
X7.2031Y-4.8028
X7.2093Y-5.1075
X7.213Y-6.6764
X7.2226Y-5.6211
X7.2226Y-5.664
X7.2329Y-5.8
X7.2335Y-6.2787
X7.2423Y-5.1409
X7.2461Y-4.874
X7.2785Y-5.1767
X7.287Y-4.9067
X7.3031Y-4.3457
X7.3146Y-5.8772
X7.3594Y-6.0343
X7.3614Y-5.7657
X7.3652Y-6.5173
X7.3799Y-4.7945
X7.3845Y-6.5728
X7.3866Y-6.6224
X7.423Y-6.7016
X7.4349Y-6.2366
X7.4382Y-6.8286
X7.4634Y-6.1339
X7.4945Y-6.1659
X7.4945Y-6.1915
X7.4945Y-6.2171
X7.4945Y-6.2425
X7.4945Y-6.2683
X7.4945Y-6.2939
X7.4945Y-6.3195
X7.5197Y-6.0248
X7.5449Y-6.0413
X7.5535Y-5.1756
X7.5669Y-4.8339
X7.5681Y-6.0567
X7.5697Y-5.0472
X7.5846Y-4.9083
X7.5846Y-4.9685
X7.5921Y-6.0744
X7.6169Y-6.0909
X7.6303Y-5.6059
X7.6303Y-5.6898
X7.6303Y-5.8102
X7.6307Y-5.648
X7.6311Y-5.7705
X7.6315Y-5.7311
X7.6323Y-5.85
X7.6348Y-5.5033
X7.6386Y-7.1051
X7.6406Y-6.1138
X7.648Y-6.4028
X7.6547Y-5.5232
X7.6567Y-6.1949
X7.6634Y-5.1929
X7.6642Y-6.1343
X7.6705Y-6.4252
X7.6831Y-6.4551
X7.6933Y-5.8079
X7.6937Y-5.6059
X7.6937Y-5.6898
X7.6937Y-5.7705
X7.6937Y-5.85
X7.6937Y-5.9839
X7.6937Y-6.0047
X7.6937Y-5.6465
X7.6941Y-5.7303
X7.6945Y-7.1055
X7.6976Y-5.1295
X7.7094Y-6.7827
X7.722Y-5.9528
X7.7228Y-6.1659
X7.7228Y-6.2171
X7.7228Y-6.2427
X7.7228Y-6.2683
X7.7228Y-6.2939
X7.7228Y-6.3195
X7.7228Y-6.3451
X7.7465Y-6.7815
X7.7571Y-7.1075
X7.7854Y-6.7815
X7.8061Y-6.578
X7.8199Y-6.6945
X7.8542Y-6.6594
X7.8758Y-6.772
X7.8949Y-6.5953
X7.926Y-5.8441
X7.926Y-5.8776
X7.952Y-6.9736
X7.9543Y-4.7488
X7.9543Y-4.7925
X7.9543Y-4.928
X7.9543Y-5.048
X7.9614Y-6.1728
X7.9736Y-6.9736
X7.9742Y-5.9567
X7.9742Y-5.9764
X7.9742Y-5.9961
X7.9742Y-6.0157
X7.9742Y-6.0354
X7.9742Y-6.0551
X7.9742Y-6.0748
X7.9772Y-6.8276
X7.9772Y-6.8472
X7.9898Y-7.5839
X7.9902Y-7.5213
X7.9902Y-7.5528
X8.0207Y-5.7754
X8.0211Y-5.8789
X8.0343Y-5.8992
X8.0673Y-6.6988
X8.0695Y-5.8242
X8.1073Y-5.9124
X8.1181Y-7.6713
X8.1571Y-7.4854
X8.2016Y-7.8957
X8.261Y-5.0335
X8.3114Y-5.6079
X8.3378Y-4.926
X8.3886Y-4.7224
T0
M30
