M48
;DRILL file {KiCad 4.0.7-e2-6376~61~ubuntu18.04.1} date Tue Nov 15 11:44:22 2022
;FORMAT={-:-/ absolute / inch / decimal}
FMAT,2
INCH,TZ
T1C0.006
T2C0.008
T3C0.012
T4C0.016
T5C0.039
T6C0.040
T7C0.040
T8C0.049
T9C0.083
T10C0.118
%
G90
G05
M72
T1
X2.5498Y-7.3496
X2.5498Y-7.4031
X2.5508Y-7.4756
X2.5508Y-10.0331
X2.5778Y-10.0634
X2.624Y-5.603
X2.6736Y-5.603
X2.7146Y-9.315
X2.7146Y-9.3386
X2.7146Y-9.3591
X2.7229Y-5.603
X2.724Y-9.5047
X2.7519Y-6.1977
X2.7552Y-8.909
X2.7587Y-7.7984
X2.761Y-7.9496
X2.7802Y-8.8839
X2.7846Y-8.1984
X2.8047Y-6.252
X2.8063Y-6.4719
X2.8134Y-8.0358
X2.8288Y-8.9826
X2.8362Y-7.674
X2.8488Y-7.7079
X2.8539Y-8.9576
X2.8803Y-8.1976
X2.889Y-5.6034
X2.8925Y-5.1856
X2.9039Y-9.4807
X2.9177Y-8.3425
X2.9232Y-8.7921
X2.9288Y-5.6034
X2.9311Y-5.1856
X2.9433Y-7.728
X2.9555Y-8.8972
X2.963Y-8.7748
X2.9634Y-7.8657
X2.9717Y-5.6034
X2.9748Y-5.1856
X3.0068Y-8.6558
X3.0094Y-10.2217
X3.0165Y-9.9268
X3.0189Y-8.0634
X3.0193Y-8.8697
X3.0316Y-8.6304
X3.0319Y-6.6671
X3.0319Y-6.7209
X3.0335Y-4.2219
X3.0339Y-4.2728
X3.0343Y-6.7665
X3.0559Y-10.2217
X3.0622Y-4.3232
X3.0798Y-8.7291
X3.0906Y-5.0876
X3.1049Y-9.648
X3.105Y-8.7039
X3.1254Y-9.3224
X3.1282Y-5.0874
X3.1354Y-10.1736
X3.1445Y-9.578
X3.1563Y-5.0874
X3.172Y-9.5079
X3.1748Y-9.5756
X3.1878Y-4.5083
X3.1937Y-6.2731
X3.2047Y-7.8618
X3.2114Y-10.1386
X3.2268Y-10.2567
X3.2268Y-10.2811
X3.2299Y-8.4134
X3.2307Y-9.8394
X3.2386Y-3.9831
X3.2508Y-5.0049
X3.2508Y-5.0278
X3.2512Y-4.5083
X3.2535Y-7.8051
X3.263Y-9.5642
X3.2723Y-9.1217
X3.274Y-5.0042
X3.2827Y-3.9818
X3.2827Y-4.0568
X3.2846Y-9.5705
X3.29Y-9.14
X3.2916Y-7.5157
X3.2916Y-7.5516
X3.2916Y-7.5803
X3.2957Y-8.1397
X3.3114Y-4.5102
X3.3228Y-3.9827
X3.3256Y-4.0563
X3.3433Y-9.7961
X3.3449Y-8.948
X3.35Y-8.7339
X3.3566Y-3.9818
X3.3583Y-8.3654
X3.3787Y-9.7961
X3.3823Y-9.9169
X3.4189Y-9.8417
X3.4189Y-9.8803
X3.4189Y-9.7961
X3.4376Y-6.8319
X3.4535Y-9.5236
X3.4548Y-9.493
X3.465Y-9.8681
X3.477Y-9.4709
X3.4853Y-6.8315
X3.4884Y-9.4394
X3.5368Y-6.8315
X3.572Y-8.5606
X3.5886Y-8.5886
X3.5945Y-8.5398
X3.5965Y-8.513
X3.5969Y-9.8654
X3.641Y-8.6346
X3.6625Y-8.4217
X3.674Y-8.6382
X3.6941Y-8.2665
X3.7106Y-8.6433
X3.7228Y-8.2665
X3.748Y-8.2665
X3.7508Y-8.6441
X3.7571Y-9.9563
X3.772Y-10.0114
X3.7827Y-8.6486
X3.785Y-9.9209
X3.785Y-9.998
X3.8121Y-7.982
X3.8121Y-8.0182
X3.8122Y-7.9991
X3.8122Y-8.0354
X3.8169Y-10.0421
X3.8337Y-9.6488
X3.8713Y-10.1571
X3.8734Y-9.528
X3.8734Y-9.5567
X3.8734Y-9.6496
X3.9209Y-9.2827
X3.924Y-9.4736
X3.9311Y-7.5343
X3.941Y-9.263
X3.9441Y-9.6323
X3.9543Y-7.6654
X3.9543Y-9.4492
X3.9555Y-7.6657
X3.9646Y-9.2823
X3.9752Y-9.4362
X3.9807Y-9.2563
X3.9949Y-9.4185
X4.0093Y-9.2644
X4.0402Y-7.1835
X4.0415Y-8.5927
X4.0461Y-10.215
X4.0677Y-7.7252
X4.074Y-8.0807
X4.0969Y-7.5335
X4.0992Y-7.7429
X4.1161Y-8.1622
X4.1331Y-8.1339
X4.1465Y-8.0283
X4.1476Y-8.0756
X4.148Y-8.0531
X4.1539Y-7.7736
X4.1547Y-7.8114
X4.1654Y-7.7543
X4.1764Y-8.0071
X4.1799Y-7.6185
X4.1819Y-7.8106
X4.1877Y-7.3077
X4.1909Y-8.8012
X4.1984Y-7.9969
X4.2049Y-7.3076
X4.2067Y-8.1161
X4.2079Y-7.9106
X4.2091Y-7.737
X4.2173Y-8.0047
X4.2189Y-7.6846
X4.224Y-7.3077
X4.2276Y-7.6543
X4.2311Y-7.7307
X4.2411Y-7.3076
X4.2528Y-7.9917
X4.2539Y-7.8992
X4.2547Y-7.922
X4.2563Y-7.6933
X4.2725Y-8.8344
X4.2732Y-8.7593
X4.2752Y-7.9957
X4.2776Y-7.7815
X4.287Y-7.6858
X4.2874Y-8.0898
X4.2913Y-9.565
X4.2972Y-7.9953
X4.3268Y-8.087
X4.3276Y-7.6858
X4.3406Y-7.7815
X4.3409Y-7.9937
X4.3421Y-7.7346
X4.3524Y-8.0854
X4.3543Y-9.9297
X4.3557Y-8.9031
X4.3626Y-8.039
X4.3634Y-7.7811
X4.3638Y-7.9933
X4.3697Y-8.4583
X4.3776Y-7.6854
X4.3787Y-8.0862
X4.3811Y-9.5573
X4.3902Y-9.9504
X4.3917Y-7.7776
X4.4154Y-8.
X4.4173Y-7.6854
X4.4175Y-8.9114
X4.4185Y-8.089
X4.4201Y-9.5411
X4.4276Y-7.7811
X4.4315Y-9.8681
X4.4319Y-8.0681
X4.4378Y-9.1776
X4.439Y-8.0472
X4.4395Y-9.0744
X4.4421Y-7.998
X4.4508Y-7.7803
X4.4528Y-7.7016
X4.4567Y-9.2449
X4.4579Y-7.9827
X4.4629Y-8.466
X4.4693Y-9.7142
X4.4705Y-7.8827
X4.4705Y-7.9071
X4.4728Y-7.7303
X4.4801Y-8.4659
X4.4933Y-7.7559
X4.4992Y-8.466
X4.5161Y-8.0417
X4.5163Y-8.4659
X4.5177Y-7.8949
X4.5177Y-8.1134
X4.5221Y-7.8096
X4.5295Y-7.9697
X4.5461Y-7.8016
X4.5504Y-7.9913
X4.5579Y-9.8382
X4.5583Y-7.7697
X4.5748Y-7.8047
X4.585Y-7.172
X4.6272Y-7.711
X4.648Y-8.3907
X4.6511Y-10.0874
X4.663Y-9.8646
X4.6781Y-8.9413
X4.6852Y-10.1917
X4.6923Y-9.9803
X4.6925Y-7.6159
X4.7047Y-7.7059
X4.7122Y-9.9488
X4.7268Y-9.2917
X4.7898Y-9.5815
X4.8398Y-9.9354
X4.8551Y-9.6917
X4.8681Y-9.9362
X4.9023Y-9.9673
X4.9092Y-9.6496
X4.9161Y-7.7706
X4.9161Y-7.8068
X4.9162Y-7.7877
X4.9162Y-7.824
X4.9306Y-10.0934
X4.9492Y-9.7295
X4.9551Y-8.5691
X4.9752Y-9.2724
X4.9752Y-9.1711
X4.9784Y-8.4486
X5.0179Y-8.5291
X5.0179Y-8.2189
X5.0189Y-8.5967
X5.0366Y-9.3417
X5.0425Y-8.4467
X5.0435Y-8.3008
X5.0435Y-8.5291
X5.0466Y-9.3063
X5.0468Y-9.9004
X5.0496Y-9.7697
X5.0691Y-8.5291
X5.0732Y-9.3927
X5.0947Y-8.3008
X5.0984Y-9.6921
X5.1203Y-8.3008
X5.1445Y-8.4728
X5.1459Y-8.3008
X5.1583Y-8.151
X5.1744Y-7.8799
X5.2004Y-9.9953
X5.2118Y-9.9386
X5.2138Y-8.3518
X5.3225Y-8.1982
X5.3307Y-9.3406
X5.3319Y-9.3563
X5.3319Y-9.376
X5.3398Y-9.5047
X5.371Y-8.9088
X5.3744Y-7.7984
X5.3756Y-7.9469
X5.3961Y-8.8838
X5.4004Y-8.1984
X5.4232Y-8.0346
X5.4406Y-7.6736
X5.4448Y-8.9821
X5.4642Y-7.7091
X5.4695Y-8.9573
X5.4961Y-8.1976
X5.5118Y-8.9843
X5.5331Y-8.3425
X5.5386Y-8.7921
X5.5591Y-7.728
X5.5713Y-8.8972
X5.5787Y-7.8657
X5.579Y-8.7744
X5.5876Y-8.4224
X5.6227Y-8.6555
X5.6323Y-9.9299
X5.635Y-8.8697
X5.6358Y-8.0603
X5.6477Y-8.6305
X5.6827Y-9.3941
X5.6827Y-9.5441
X5.6827Y-9.5894
X5.6886Y-9.4476
X5.6894Y-8.9591
X5.6956Y-8.729
X5.7106Y-8.9697
X5.7209Y-8.7042
X5.7386Y-9.7852
X5.7449Y-10.1831
X5.7878Y-9.5079
X5.7898Y-9.7852
X5.7945Y-7.1787
X5.8122Y-8.6268
X5.8272Y-10.1386
X5.8543Y-7.2134
X5.8591Y-9.828
X5.8693Y-7.8051
X5.875Y-8.3055
X5.9059Y-9.5139
X5.9059Y-9.5329
X5.9059Y-9.5503
X5.9059Y-9.514
X5.9081Y-7.0976
X5.9081Y-7.1673
X5.9081Y-7.4181
X5.9081Y-7.4591
X5.9081Y-7.5209
X5.9085Y-7.5764
X5.912Y-8.1413
X5.9169Y-10.1382
X5.9189Y-9.8305
X5.9254Y-8.7614
X5.9339Y-9.8451
X5.9528Y-9.889
X5.9547Y-9.8665
X5.9636Y-7.5197
X5.9695Y-7.4591
X5.9703Y-7.4181
X5.9707Y-7.0362
X5.9711Y-7.1043
X5.974Y-8.3654
X5.9833Y-8.4488
X5.9992Y-9.7961
X6.0211Y-7.0543
X6.0227Y-7.4181
X6.0228Y-9.7854
X6.023Y-6.9831
X6.023Y-7.4591
X6.0677Y-9.602
X6.0709Y-7.1154
X6.0917Y-9.4713
X6.0965Y-7.0898
X6.1026Y-9.439
X6.1095Y-9.3073
X6.1193Y-8.9026
X6.1409Y-7.0878
X6.15Y-8.0567
X6.1591Y-8.1252
X6.2098Y-9.7276
X6.2142Y-8.2165
X6.2374Y-9.5874
X6.2522Y-8.576
X6.2567Y-8.6346
X6.261Y-9.9654
X6.2898Y-8.6382
X6.2906Y-9.8695
X6.2908Y-8.5776
X6.2933Y-9.9622
X6.3035Y-8.2665
X6.3201Y-8.6307
X6.3217Y-7.1654
X6.3227Y-7.2476
X6.3248Y-7.2024
X6.3266Y-7.3142
X6.3266Y-8.576
X6.3307Y-8.2665
X6.3307Y-9.6559
X6.3559Y-8.2665
X6.3644Y-8.5772
X6.3665Y-8.6441
X6.3689Y-9.6
X6.4201Y-10.0026
X6.4213Y-10.0421
X6.424Y-9.9209
X6.4275Y-7.9816
X6.4275Y-8.0178
X6.4276Y-7.9987
X6.4276Y-8.035
X6.4287Y-10.2803
X6.435Y-9.6634
X6.4433Y-8.2224
X6.476Y-10.2803
X6.4772Y-8.3917
X6.5067Y-8.3266
X6.5093Y-10.0169
X6.5201Y-8.6159
X6.5366Y-10.0362
X6.5413Y-9.2823
X6.5457Y-7.5339
X6.5492Y-9.825
X6.5561Y-9.5335
X6.5567Y-9.2539
X6.5618Y-9.6287
X6.566Y-8.6122
X6.5709Y-7.6657
X6.5843Y-9.278
X6.591Y-8.3266
X6.5961Y-9.2543
X6.6Y-9.6327
X6.603Y-9.7417
X6.6252Y-9.5189
X6.629Y-6.9831
X6.629Y-7.0228
X6.6307Y-9.265
X6.6421Y-9.502
X6.6559Y-7.1835
X6.6618Y-10.161
X6.6902Y-8.0811
X6.7Y-7.5474
X6.7012Y-7.7425
X6.7089Y-7.013
X6.7104Y-6.9823
X6.7165Y-9.2657
X6.7287Y-7.7433
X6.7427Y-8.6346
X6.7496Y-8.1299
X6.7496Y-8.1642
X6.7551Y-9.2707
X6.7618Y-8.0283
X6.763Y-8.0756
X6.7634Y-8.0531
X6.7697Y-7.7736
X6.7705Y-7.8114
X6.7811Y-7.7543
X6.7856Y-10.0957
X6.7866Y-9.7421
X6.7921Y-8.0071
X6.7976Y-7.6193
X6.7976Y-7.8106
X6.803Y-7.3081
X6.8067Y-8.8012
X6.8142Y-7.9969
X6.8202Y-7.308
X6.822Y-8.1134
X6.8236Y-7.9106
X6.8248Y-7.737
X6.828Y-10.0957
X6.8331Y-8.0047
X6.8386Y-7.6909
X6.8393Y-7.3081
X6.8433Y-7.6543
X6.8469Y-7.7307
X6.8564Y-7.308
X6.8685Y-7.9917
X6.8697Y-7.8992
X6.8705Y-7.922
X6.872Y-7.6933
X6.878Y-8.689
X6.8909Y-7.9957
X6.8933Y-7.7815
X6.9028Y-7.6858
X6.9031Y-8.0898
X6.913Y-7.9953
X6.9134Y-8.8555
X6.9386Y-9.5287
X6.9425Y-8.087
X6.9433Y-7.6858
X6.953Y-9.2984
X6.9563Y-7.7815
X6.9567Y-7.9937
X6.9571Y-9.3331
X6.9579Y-7.7346
X6.9697Y-8.0878
X6.9724Y-8.4594
X6.9783Y-8.039
X6.9791Y-7.7811
X6.9795Y-7.9933
X6.9803Y-8.8087
X6.9933Y-7.6854
X6.9945Y-8.0862
X6.9961Y-8.498
X6.9992Y-8.9323
X7.0075Y-7.7776
X7.0154Y-9.7705
X7.0311Y-7.9984
X7.0331Y-7.6854
X7.0343Y-8.089
X7.0433Y-7.7811
X7.0476Y-8.0681
X7.0545Y-9.0744
X7.0547Y-8.0472
X7.0579Y-7.998
X7.0665Y-7.7803
X7.0685Y-7.7016
X7.0736Y-7.9827
X7.0776Y-9.9213
X7.0819Y-9.4764
X7.0862Y-7.8827
X7.0862Y-7.9071
X7.0886Y-7.7303
X7.0914Y-7.7057
X7.1004Y-9.5213
X7.1091Y-7.7559
X7.1319Y-8.0417
X7.1335Y-7.8949
X7.1362Y-7.8116
X7.1402Y-8.1102
X7.1453Y-7.9697
X7.1618Y-7.8016
X7.1618Y-10.0311
X7.1661Y-7.9913
X7.1665Y-9.9492
X7.1685Y-9.7949
X7.1701Y-9.9205
X7.174Y-7.7697
X7.174Y-10.2768
X7.174Y-7.6758
X7.1866Y-10.2254
X7.1906Y-7.8047
X7.1976Y-9.7209
X7.1992Y-8.799
X7.2008Y-7.172
X7.2189Y-9.4569
X7.2232Y-10.262
X7.2429Y-9.1039
X7.2437Y-7.7122
X7.2445Y-7.6675
X7.2473Y-9.4715
X7.25Y-9.203
X7.2673Y-10.2618
X7.2675Y-10.2362
X7.2795Y-9.7374
X7.2899Y-8.9409
X7.3004Y-9.1648
X7.3043Y-9.2866
X7.3327Y-9.876
X7.3335Y-9.9024
X7.341Y-9.2317
X7.3524Y-9.765
X7.3528Y-9.7421
X7.3642Y-9.1104
X7.3677Y-9.9972
X7.3748Y-9.4835
X7.3787Y-9.5059
X7.3858Y-8.86
X7.391Y-8.1719
X7.3945Y-10.2256
X7.4004Y-10.1882
X7.4043Y-9.6173
X7.4047Y-9.572
X7.4146Y-9.7173
X7.4161Y-9.6945
X7.4173Y-9.598
X7.4173Y-7.6228
X7.4227Y-10.1091
X7.4244Y-8.9754
X7.4248Y-9.3661
X7.441Y-9.502
X7.4429Y-9.9882
X7.4583Y-9.5565
X7.4642Y-9.0951
X7.4666Y-8.9262
X7.4768Y-10.1093
X7.487Y-9.5949
X7.489Y-9.774
X7.4929Y-9.7516
X7.4949Y-9.7244
X7.4953Y-9.6591
X7.5063Y-8.6415
X7.5067Y-9.861
X7.5071Y-7.6673
X7.5087Y-9.635
X7.5193Y-10.04
X7.5279Y-7.9662
X7.5279Y-8.0024
X7.528Y-7.9833
X7.528Y-8.0196
X7.5314Y-7.7706
X7.5314Y-7.8068
X7.5315Y-7.7877
X7.5315Y-7.824
X7.5346Y-9.5886
X7.5429Y-9.4653
X7.5516Y-9.1754
X7.5571Y-9.5894
X7.5594Y-9.3764
X7.5638Y-7.7067
X7.5657Y-9.4394
X7.5787Y-10.
X7.5941Y-9.1687
X7.5945Y-9.8575
X7.6008Y-8.5581
X7.602Y-9.0447
X7.602Y-9.4396
X7.6031Y-9.5933
X7.6169Y-9.0986
X7.6307Y-9.5925
X7.6425Y-9.9992
X7.6429Y-8.261
X7.6457Y-9.4041
X7.6488Y-9.4291
X7.6496Y-8.9959
X7.6531Y-9.5929
X7.6533Y-9.4655
X7.665Y-10.0396
X7.6669Y-9.9364
X7.6673Y-10.1
X7.6693Y-9.7417
X7.6701Y-10.0016
X7.6705Y-9.7157
X7.6732Y-8.9201
X7.6795Y-9.5935
X7.6902Y-10.1287
X7.6903Y-9.7918
X7.6907Y-9.6501
X7.6921Y-8.3657
X7.7035Y-9.4031
X7.7103Y-10.1085
X7.7362Y-8.9703
X7.765Y-9.7673
X7.7713Y-9.639
X7.7729Y-9.888
X7.7799Y-9.9102
X7.7803Y-9.2376
X7.7941Y-9.7358
X7.7992Y-8.9951
X7.8008Y-9.7154
X7.802Y-9.4329
X7.8055Y-9.3693
X7.8146Y-10.3283
X7.8158Y-9.4549
X7.8169Y-9.9864
X7.8272Y-9.5061
X7.8358Y-9.6425
X7.8374Y-10.2736
X7.8433Y-10.1242
X7.8437Y-8.8561
X7.8488Y-9.6811
X7.8709Y-9.4348
X7.8713Y-9.4612
X7.874Y-9.6862
X7.8768Y-9.713
X7.8783Y-10.2311
X7.8788Y-9.4085
X7.8799Y-8.9746
X7.8807Y-9.0112
X7.8851Y-10.0108
X7.8858Y-7.9969
X7.8858Y-8.0736
X7.8866Y-7.887
X7.891Y-8.9266
X7.8969Y-8.6297
X7.9016Y-9.4648
X7.9067Y-9.3713
X7.9087Y-10.2701
X7.9319Y-9.4577
X7.9362Y-8.4907
X7.9512Y-9.6402
X7.952Y-7.8967
X7.954Y-9.6746
X7.961Y-8.9002
X7.9662Y-9.3728
X7.9685Y-9.1293
X7.9748Y-8.8053
X7.9752Y-8.9738
X7.9792Y-8.5726
X7.9815Y-9.8179
X7.9909Y-7.2417
X7.9909Y-7.837
X8.0008Y-9.3994
X8.008Y-10.1739
X8.0244Y-9.0128
X8.0319Y-10.0209
X8.0354Y-7.9969
X8.0354Y-8.0736
X8.0433Y-9.8252
X8.0453Y-9.3573
X8.0532Y-8.9073
X8.0535Y-7.035
X8.0535Y-9.6543
X8.0539Y-9.5264
X8.054Y-9.9404
X8.0563Y-10.113
X8.0567Y-9.6795
X8.063Y-9.5917
X8.0697Y-9.6169
X8.0764Y-9.5406
X8.0783Y-9.5657
X8.0843Y-9.5146
X8.0866Y-9.3927
X8.0949Y-9.0986
X8.1284Y-9.201
X8.1335Y-8.8486
X8.139Y-9.3053
X8.1512Y-8.4608
X8.152Y-8.8907
X8.1524Y-8.9459
X8.1524Y-9.0459
X8.1524Y-9.1459
X8.1524Y-9.2459
X8.1528Y-8.3628
X8.1536Y-8.2644
X8.1559Y-8.1664
X8.1571Y-9.3502
X8.1654Y-7.5846
X8.1654Y-8.0075
X8.1673Y-6.6008
X8.1898Y-8.7664
X8.2047Y-6.7551
X8.2177Y-6.9854
X8.2225Y-9.5467
X8.2362Y-9.4896
X8.2567Y-9.5467
X8.2701Y-9.3307
X8.2819Y-9.5561
X8.2866Y-9.4746
X8.2945Y-8.2669
X8.3055Y-9.8167
X8.3236Y-7.9951
X8.3543Y-8.4128
X8.3666Y-8.5093
X8.3669Y-8.1656
X8.3673Y-8.8459
X8.3673Y-8.9459
X8.3673Y-9.0459
X8.3673Y-9.1459
X8.3673Y-9.2459
X8.3673Y-9.3459
X8.3677Y-8.462
X8.3681Y-8.262
X8.3681Y-8.3624
X8.3736Y-10.186
X8.387Y-7.0839
X8.3976Y-9.4124
X8.3976Y-9.438
X8.3976Y-9.4636
X8.3976Y-9.4892
X8.3976Y-9.5148
X8.3976Y-9.5404
X8.3976Y-9.5659
X8.3976Y-9.5915
X8.3976Y-9.6171
X8.3976Y-9.6427
T2
X2.2752Y-7.074
X2.276Y-4.339
X2.2791Y-9.8929
X2.2791Y-10.3228
X2.2795Y-10.237
X2.2799Y-4.1319
X2.2799Y-8.5154
X2.2799Y-9.1823
X2.2799Y-9.4941
X2.2799Y-9.976
X2.2803Y-4.0323
X2.2803Y-7.6165
X2.2803Y-7.7374
X2.2803Y-7.8449
X2.2803Y-8.0543
X2.2803Y-8.8563
X2.2803Y-9.0748
X2.2803Y-9.6854
X2.2803Y-9.772
X2.2807Y-4.2244
X2.2807Y-8.1622
X2.2807Y-8.3894
X2.2807Y-8.7343
X2.2807Y-9.3839
X2.2807Y-10.0634
X2.2807Y-10.1543
X2.2811Y-7.9374
X2.2811Y-8.9579
X2.2811Y-9.2764
X2.2811Y-9.5752
X2.2815Y-6.9701
X2.2815Y-7.287
X2.2815Y-8.2724
X2.2815Y-8.6173
X2.2819Y-7.3949
X2.2823Y-3.9402
X2.2823Y-6.3075
X2.2823Y-7.1701
X2.2827Y-7.5051
X2.2831Y-6.4094
X2.2835Y-4.5567
X2.2835Y-5.4236
X2.2839Y-5.5413
X2.2839Y-5.7752
X2.2839Y-5.8827
X2.2839Y-6.0921
X2.2839Y-6.5264
X2.2843Y-6.2
X2.2846Y-5.6583
X2.2846Y-5.9752
X2.285Y-4.6575
X2.285Y-4.8913
X2.285Y-4.9988
X2.285Y-5.2083
X2.2854Y-4.4492
X2.2854Y-5.3161
X2.2858Y-4.7744
X2.2858Y-5.0913
X2.2894Y-6.8417
X2.2909Y-6.6358
X2.2909Y-6.7433
X2.3362Y-7.665
X2.3386Y-10.135
X2.3409Y-4.1965
X2.3441Y-8.9071
X2.3461Y-9.685
X2.3476Y-9.1626
X2.3496Y-6.0654
X2.35Y-4.6634
X2.3516Y-7.348
X2.352Y-3.9988
X2.3528Y-6.7445
X2.3543Y-10.3236
X2.3551Y-5.8882
X2.3567Y-10.0161
X2.3567Y-10.2406
X2.3598Y-6.8807
X2.3606Y-8.7386
X2.363Y-6.3945
X2.3717Y-9.3071
X2.374Y-4.0807
X2.3748Y-4.8992
X2.3776Y-5.1508
X2.3776Y-9.4807
X2.3791Y-7.8354
X2.3811Y-5.4063
X2.3819Y-9.5626
X2.3827Y-8.0909
X2.3843Y-6.2925
X2.385Y-3.9461
X2.3882Y-6.5429
X2.3917Y-8.6311
X2.3953Y-4.5567
X2.3969Y-7.2413
X2.4051Y-5.5508
X2.4067Y-8.2354
X2.4071Y-9.0217
X2.4091Y-4.1713
X2.4102Y-6.8437
X2.4134Y-4.7012
X2.424Y-4.8173
X2.4256Y-7.502
X2.4276Y-6.1402
X2.4287Y-6.4043
X2.4311Y-10.1138
X2.4358Y-9.3902
X2.4366Y-9.187
X2.4378Y-5.0831
X2.4386Y-5.9776
X2.4406Y-5.2654
X2.4421Y-7.95
X2.4433Y-7.426
X2.4449Y-10.3252
X2.4453Y-8.8453
X2.4453Y-10.2394
X2.4465Y-9.624
X2.452Y-9.9768
X2.4547Y-4.9866
X2.4563Y-7.6713
X2.485Y-3.9437
X2.4894Y-4.0291
X2.4947Y-4.1553
X2.4996Y-6.7594
X2.5098Y-8.5382
X2.5098Y-9.2051
X2.5098Y-9.5169
X2.5098Y-10.0445
X2.5102Y-7.1858
X2.5102Y-7.3047
X2.5102Y-7.5264
X2.5102Y-7.7602
X2.5102Y-7.8677
X2.5102Y-8.0772
X2.5102Y-8.8791
X2.5102Y-9.0976
X2.5102Y-9.7083
X2.5102Y-9.7949
X2.5102Y-9.872
X2.5102Y-9.9587
X2.5106Y-8.185
X2.5106Y-8.4122
X2.5106Y-8.7571
X2.5106Y-9.4067
X2.511Y-6.3177
X2.511Y-7.4217
X2.511Y-7.6433
X2.511Y-7.9602
X2.511Y-8.9807
X2.511Y-9.2992
X2.511Y-9.598
X2.5114Y-8.2953
X2.5114Y-8.6402
X2.5118Y-6.4197
X2.5118Y-6.6535
X2.5122Y-4.5669
X2.5122Y-5.4339
X2.5122Y-6.9961
X2.5122Y-7.0783
X2.5126Y-5.5516
X2.5126Y-5.7854
X2.5126Y-5.8929
X2.5126Y-6.1024
X2.5126Y-6.5366
X2.513Y-6.2102
X2.5134Y-5.6685
X2.5134Y-5.9854
X2.5138Y-4.6677
X2.5138Y-5.2185
X2.5142Y-4.4594
X2.5142Y-5.3264
X2.5146Y-4.7846
X2.5146Y-5.1016
X2.5209Y-10.1
X2.5213Y-4.2524
X2.5217Y-10.3201
X2.5224Y-10.2358
X2.5232Y-10.1736
X2.5624Y-4.1553
X2.563Y-4.6059
X2.563Y-4.8398
X2.563Y-4.9472
X2.5638Y-4.7228
X2.5638Y-5.0398
X2.5854Y-4.4394
X2.5866Y-5.2709
X2.587Y-5.1543
X2.5925Y-9.8311
X2.5925Y-9.9996
X2.5929Y-9.8795
X2.5929Y-9.937
X2.5929Y-10.1169
X2.5933Y-9.3776
X2.5933Y-9.4417
X2.5933Y-9.5161
X2.5933Y-9.5917
X2.5933Y-9.665
X2.5933Y-9.7575
X2.5945Y-6.3862
X2.5953Y-6.4882
X2.5953Y-7.039
X2.5953Y-7.6303
X2.5953Y-7.7035
X2.5953Y-8.3614
X2.5953Y-8.4346
X2.5953Y-8.4988
X2.5953Y-8.5732
X2.5953Y-8.6488
X2.5953Y-8.722
X2.5957Y-6.898
X2.5961Y-6.1709
X2.5961Y-6.6051
X2.5965Y-6.2787
X2.5965Y-7.776
X2.5965Y-7.8504
X2.5965Y-7.926
X2.5965Y-7.9992
X2.5965Y-8.0634
X2.5965Y-8.1378
X2.5965Y-8.2134
X2.5965Y-8.2866
X2.5965Y-8.7945
X2.5965Y-8.8689
X2.5965Y-8.9445
X2.5965Y-9.0177
X2.5965Y-9.0819
X2.5965Y-9.1563
X2.5965Y-9.2319
X2.5965Y-9.3051
X2.598Y-3.9508
X2.602Y-6.7094
X2.6051Y-7.1909
X2.6071Y-7.3591
X2.6083Y-5.463
X2.6114Y-6.8283
X2.6173Y-7.5512
X2.6254Y-4.5289
X2.6333Y-4.0435
X2.6348Y-4.2561
X2.6348Y-4.3506
X2.6362Y-4.1551
X2.6408Y-9.9799
X2.6433Y-9.8323
X2.6465Y-6.2122
X2.6598Y-9.9118
X2.661Y-7.128
X2.6661Y-10.1953
X2.6665Y-10.2713
X2.6713Y-10.1087
X2.674Y-7.4933
X2.678Y-7.628
X2.678Y-7.7035
X2.678Y-7.7768
X2.678Y-8.3606
X2.678Y-8.4339
X2.678Y-8.498
X2.6791Y-7.8492
X2.6791Y-7.9252
X2.6791Y-7.9984
X2.6791Y-8.0626
X2.6791Y-8.137
X2.6791Y-8.2126
X2.6791Y-8.2858
X2.6791Y-8.711
X2.6795Y-8.5866
X2.6795Y-9.3787
X2.6795Y-9.4429
X2.6795Y-9.5173
X2.6795Y-9.5929
X2.6803Y-9.0173
X2.6803Y-9.0815
X2.6803Y-9.1559
X2.6803Y-9.2315
X2.6803Y-9.3047
X2.6815Y-8.7945
X2.6815Y-8.8689
X2.6815Y-8.9445
X2.6866Y-3.9496
X2.687Y-5.5504
X2.6886Y-9.7441
X2.6898Y-6.0193
X2.6929Y-4.9213
X2.6963Y-4.0439
X2.6969Y-9.8854
X2.6978Y-4.2565
X2.6978Y-4.351
X2.6988Y-10.3177
X2.699Y-6.7742
X2.6992Y-10.2331
X2.6996Y-9.9665
X2.7Y-10.1484
X2.7004Y-10.0638
X2.7024Y-4.1531
X2.7031Y-6.6421
X2.7071Y-4.798
X2.7134Y-7.152
X2.7134Y-9.0476
X2.7134Y-9.1201
X2.7142Y-9.1949
X2.7154Y-7.661
X2.7154Y-7.7366
X2.7154Y-7.8098
X2.7154Y-8.3937
X2.7154Y-8.4669
X2.7165Y-7.8823
X2.7165Y-7.9583
X2.7165Y-8.0315
X2.7165Y-8.0957
X2.7165Y-8.1701
X2.7165Y-8.2457
X2.7165Y-8.3189
X2.7197Y-7.0201
X2.7205Y-9.6535
X2.7217Y-7.5685
X2.7256Y-6.8969
X2.726Y-6.4346
X2.7346Y-7.4382
X2.739Y-8.5327
X2.7437Y-8.6461
X2.7535Y-7.0748
X2.7539Y-5.0161
X2.7551Y-9.3335
X2.7598Y-9.8287
X2.7634Y-4.152
X2.764Y-4.0439
X2.7656Y-4.2565
X2.7659Y-4.3274
X2.7677Y-8.8031
X2.7697Y-9.7531
X2.7732Y-3.95
X2.778Y-9.1535
X2.7783Y-9.1874
X2.7807Y-7.6232
X2.7815Y-5.4854
X2.7831Y-7.7614
X2.7843Y-7.5094
X2.7847Y-5.9845
X2.7898Y-7.3161
X2.7906Y-9.9276
X2.7917Y-10.1508
X2.7925Y-10.0106
X2.7929Y-4.8665
X2.7937Y-10.2339
X2.7941Y-10.0949
X2.7949Y-7.3764
X2.7953Y-10.3181
X2.7972Y-7.8224
X2.8028Y-8.5913
X2.8031Y-8.1154
X2.8043Y-9.6559
X2.8055Y-8.9327
X2.8098Y-8.3894
X2.8114Y-5.739
X2.813Y-8.5051
X2.8169Y-8.7406
X2.8177Y-5.1354
X2.8236Y-9.487
X2.8248Y-9.1894
X2.8252Y-9.1535
X2.826Y-7.0319
X2.8264Y-4.0435
X2.8272Y-9.9752
X2.828Y-10.1228
X2.828Y-4.2561
X2.8284Y-4.327
X2.8303Y-10.1906
X2.8307Y-10.2665
X2.8315Y-4.1531
X2.8353Y-10.0169
X2.8358Y-9.3323
X2.8374Y-6.1242
X2.8429Y-7.3315
X2.8449Y-8.1157
X2.848Y-8.0016
X2.8492Y-7.4469
X2.8492Y-5.9069
X2.8516Y-6.8921
X2.8543Y-9.8354
X2.8555Y-4.9646
X2.8567Y-6.5748
X2.8571Y-8.4091
X2.8608Y-6.3114
X2.8616Y-6.4717
X2.8618Y-3.9488
X2.863Y-9.7504
X2.8642Y-9.0949
X2.8642Y-9.1453
X2.8642Y-9.1949
X2.8642Y-9.2453
X2.865Y-8.4717
X2.8654Y-8.6854
X2.8654Y-9.2878
X2.8657Y-9.0311
X2.8677Y-9.6213
X2.8752Y-9.6559
X2.8831Y-8.8
X2.8839Y-9.3327
X2.8846Y-9.0657
X2.8864Y-4.0447
X2.887Y-7.2835
X2.8874Y-7.9154
X2.888Y-4.2573
X2.8884Y-4.3281
X2.8894Y-9.1201
X2.8894Y-9.1701
X2.8894Y-9.2201
X2.8898Y-6.0114
X2.8898Y-7.0346
X2.8925Y-4.1531
X2.8949Y-7.4
X2.8961Y-9.7724
X2.9004Y-8.5874
X2.9024Y-8.502
X2.9063Y-8.7181
X2.9071Y-5.3823
X2.9071Y-8.8547
X2.9094Y-4.852
X2.9098Y-9.0933
X2.911Y-8.4295
X2.9134Y-9.0311
X2.9142Y-9.1453
X2.9142Y-9.1949
X2.9185Y-7.7854
X2.9185Y-9.974
X2.9189Y-6.9567
X2.9193Y-10.0118
X2.9252Y-8.2417
X2.9295Y-9.3327
X2.9339Y-9.7732
X2.9346Y-9.0657
X2.9362Y-7.2421
X2.937Y-3.9488
X2.937Y-8.4626
X2.9394Y-9.1201
X2.9394Y-9.1701
X2.9394Y-9.2201
X2.9425Y-4.2327
X2.9461Y-6.1996
X2.9465Y-7.348
X2.9472Y-4.0449
X2.9539Y-9.6579
X2.9567Y-4.1534
X2.9591Y-9.0307
X2.9622Y-6.6433
X2.9642Y-9.0949
X2.9642Y-9.1453
X2.9642Y-9.1949
X2.9642Y-9.7535
X2.965Y-6.0896
X2.9662Y-6.0585
X2.9666Y-6.1223
X2.9673Y-4.0992
X2.9697Y-8.2441
X2.9705Y-5.0252
X2.9707Y-10.2677
X2.973Y-10.3217
X2.9752Y-8.5902
X2.9764Y-9.3327
X2.9772Y-8.5016
X2.9787Y-9.0665
X2.9807Y-8.3575
X2.9819Y-9.365
X2.9819Y-9.3957
X2.9819Y-9.5146
X2.9823Y-6.5417
X2.9823Y-9.4287
X2.9823Y-9.5461
X2.9823Y-9.5776
X2.9854Y-7.1933
X2.9858Y-7.7091
X2.9866Y-7.1094
X2.9866Y-7.5469
X2.9878Y-5.5146
X2.989Y-9.2701
X2.9894Y-9.1201
X2.9894Y-9.1701
X2.9894Y-9.2201
X2.9933Y-4.3142
X2.9957Y-7.8909
X2.998Y-6.8346
X2.998Y-10.0736
X3.002Y-3.9504
X3.0047Y-7.2902
X3.0055Y-9.0307
X3.0094Y-9.774
X3.0112Y-6.4681
X3.0116Y-6.3032
X3.0116Y-6.4343
X3.012Y-6.2693
X3.012Y-6.4016
X3.0124Y-6.2366
X3.0142Y-9.1453
X3.0142Y-9.1949
X3.0142Y-9.2449
X3.015Y-8.2461
X3.0197Y-8.8299
X3.023Y-7.8315
X3.0232Y-5.9549
X3.0236Y-9.3315
X3.0252Y-7.4173
X3.026Y-5.8646
X3.0299Y-5.7433
X3.0321Y-7.6701
X3.0323Y-7.1476
X3.0331Y-4.0217
X3.0339Y-4.8575
X3.0343Y-5.1146
X3.0358Y-10.0728
X3.0382Y-4.9114
X3.039Y-9.2701
X3.0394Y-9.1201
X3.0394Y-9.1701
X3.0394Y-9.2201
X3.0406Y-9.6567
X3.0409Y-9.75
X3.0421Y-5.3754
X3.0488Y-7.9984
X3.0492Y-10.1642
X3.0524Y-8.502
X3.0524Y-8.5866
X3.0528Y-9.0319
X3.0559Y-8.6799
X3.0598Y-7.2346
X3.0642Y-9.1453
X3.0642Y-9.1949
X3.0642Y-9.2449
X3.0669Y-4.1535
X3.0669Y-9.3941
X3.0669Y-9.5437
X3.0685Y-9.5996
X3.0697Y-9.3315
X3.072Y-10.2669
X3.0728Y-9.4476
X3.0744Y-10.3209
X3.0839Y-3.9508
X3.0862Y-7.0972
X3.089Y-9.2701
X3.0894Y-9.1201
X3.0894Y-9.1701
X3.0894Y-9.2201
X3.0961Y-7.6752
X3.0992Y-9.0319
X3.1028Y-10.013
X3.1035Y-6.5213
X3.1051Y-4.8016
X3.1059Y-7.7354
X3.1059Y-7.7795
X3.1067Y-7.5709
X3.1075Y-7.622
X3.1094Y-9.0925
X3.1106Y-9.976
X3.1132Y-7.1803
X3.1138Y-9.1453
X3.1138Y-9.1949
X3.1142Y-7.4425
X3.1142Y-9.2449
X3.115Y-6.0518
X3.1154Y-8.5906
X3.1161Y-7.9016
X3.1161Y-7.9437
X3.1167Y-7.8354
X3.1173Y-8.502
X3.1189Y-6.6374
X3.1224Y-6.8157
X3.1256Y-9.75
X3.1268Y-5.4237
X3.1315Y-10.0283
X3.1351Y-5.9104
X3.1358Y-8.1224
X3.1358Y-8.1642
X3.139Y-9.1701
X3.14Y-5.4768
X3.1402Y-8.8728
X3.1406Y-8.9287
X3.1409Y-9.0055
X3.141Y-6.3971
X3.1417Y-7.2598
X3.1421Y-6.2305
X3.1425Y-5.3433
X3.1445Y-8.3161
X3.1457Y-7.035
X3.1518Y-4.1537
X3.1591Y-10.0283
X3.1598Y-8.8185
X3.1602Y-8.6472
X3.1642Y-9.1453
X3.1642Y-9.1949
X3.1689Y-10.265
X3.1713Y-10.3189
X3.1744Y-3.9402
X3.1744Y-7.1228
X3.1795Y-9.9287
X3.1811Y-9.6488
X3.1831Y-9.4075
X3.1835Y-6.3571
X3.1839Y-4.8786
X3.1854Y-6.1937
X3.1878Y-6.9937
X3.1886Y-8.7882
X3.1894Y-9.1701
X3.1898Y-8.2717
X3.1941Y-8.5913
X3.1957Y-9.822
X3.1961Y-8.5028
X3.2008Y-9.7492
X3.2075Y-4.6343
X3.2083Y-10.1039
X3.2087Y-10.0626
X3.213Y-6.8618
X3.2165Y-8.7087
X3.2169Y-6.5382
X3.2195Y-8.7839
X3.2205Y-7.0772
X3.2217Y-9.3157
X3.224Y-8.2142
X3.2252Y-9.2803
X3.2256Y-8.0272
X3.2276Y-5.9988
X3.2287Y-9.065
X3.2291Y-7.3858
X3.2295Y-6.687
X3.2295Y-8.913
X3.2311Y-6.9524
X3.2311Y-9.0083
X3.2311Y-9.1283
X3.2346Y-9.1827
X3.2366Y-9.3457
X3.2402Y-9.5846
X3.2465Y-8.8642
X3.2488Y-9.6551
X3.25Y-10.063
X3.25Y-10.1039
X3.2508Y-7.8846
X3.2508Y-9.5059
X3.2516Y-9.2181
X3.2528Y-9.7488
X3.2535Y-9.4268
X3.254Y-4.9199
X3.2563Y-7.5531
X3.2563Y-7.7094
X3.2575Y-9.9161
X3.2591Y-3.9402
X3.263Y-7.0366
X3.2646Y-9.2791
X3.2689Y-8.5909
X3.2709Y-8.5024
X3.2783Y-7.1902
X3.2795Y-6.9055
X3.2849Y-10.2669
X3.2866Y-10.1587
X3.2872Y-10.3209
X3.2894Y-9.937
X3.2913Y-4.7882
X3.2957Y-5.1581
X3.2961Y-9.2031
X3.298Y-5.2567
X3.2988Y-7.1134
X3.2994Y-8.7811
X3.3Y-8.2126
X3.3Y-9.072
X3.3059Y-8.7319
X3.3063Y-6.9933
X3.3079Y-9.276
X3.3102Y-9.8752
X3.3106Y-8.6831
X3.3126Y-8.8614
X3.315Y-9.3602
X3.3165Y-4.622
X3.3193Y-5.5205
X3.3209Y-4.976
X3.3209Y-9.5657
X3.3217Y-9.5004
X3.3217Y-9.7488
X3.3221Y-5.0317
X3.3244Y-9.4252
X3.3283Y-6.8677
X3.3299Y-5.4374
X3.3311Y-8.7807
X3.3315Y-4.8846
X3.3339Y-9.6563
X3.3358Y-6.6543
X3.3441Y-8.5953
X3.3453Y-7.2646
X3.3461Y-8.5028
X3.3465Y-9.9551
X3.3465Y-9.9846
X3.3472Y-3.9409
X3.3488Y-7.9425
X3.35Y-6.9496
X3.3512Y-7.7154
X3.3571Y-7.4051
X3.3598Y-10.0957
X3.3599Y-5.1896
X3.3661Y-9.8374
X3.3681Y-9.4343
X3.3697Y-4.0768
X3.3713Y-9.7472
X3.3744Y-7.0669
X3.3744Y-7.8201
X3.3783Y-6.5504
X3.3791Y-9.3512
X3.3807Y-6.0559
X3.3811Y-9.1382
X3.3815Y-6.3256
X3.3823Y-9.2083
X3.3831Y-8.7807
X3.3831Y-9.0673
X3.3839Y-8.8642
X3.3839Y-8.9319
X3.3839Y-9.5657
X3.3846Y-9.0004
X3.3858Y-9.2933
X3.387Y-5.8949
X3.389Y-6.2134
X3.389Y-6.4909
X3.3906Y-7.6598
X3.3972Y-9.6551
X3.3984Y-7.1614
X3.3988Y-5.7906
X3.4Y-7.5831
X3.4024Y-4.522
X3.4028Y-6.8677
X3.4035Y-6.7736
X3.4083Y-8.5949
X3.4098Y-8.2217
X3.4102Y-6.9433
X3.4102Y-8.7272
X3.4106Y-8.6831
X3.411Y-8.0268
X3.411Y-8.1433
X3.411Y-8.298
X3.411Y-8.3579
X3.4118Y-8.4315
X3.4118Y-8.502
X3.4122Y-8.0831
X3.415Y-4.8768
X3.4154Y-9.4335
X3.4187Y-4.938
X3.4187Y-5.1915
X3.4189Y-4.7909
X3.4191Y-5.0002
X3.4191Y-5.0679
X3.4191Y-5.1297
X3.4213Y-9.748
X3.4228Y-3.9488
X3.4236Y-10.3067
X3.424Y-5.5484
X3.4244Y-5.6094
X3.4244Y-8.7823
X3.4256Y-7.9717
X3.4299Y-9.5677
X3.4331Y-10.1677
X3.4374Y-4.2094
X3.4374Y-4.7264
X3.4429Y-5.9921
X3.4449Y-8.6488
X3.4528Y-9.4327
X3.4535Y-7.8764
X3.4567Y-5.3634
X3.4571Y-8.8807
X3.4577Y-4.9695
X3.4577Y-5.223
X3.4579Y-5.4346
X3.4579Y-5.4941
X3.4579Y-5.5555
X3.4579Y-5.6177
X3.4579Y-5.6795
X3.4581Y-5.0317
X3.4581Y-5.0994
X3.4581Y-5.1612
X3.4581Y-5.2852
X3.4583Y-5.7425
X3.4583Y-5.8035
X3.4583Y-8.9445
X3.4594Y-7.0339
X3.4594Y-9.6555
X3.4598Y-9.0264
X3.4602Y-7.935
X3.4658Y-9.1083
X3.4658Y-9.213
X3.4658Y-9.2933
X3.4658Y-9.328
X3.4705Y-4.9175
X3.4717Y-6.8677
X3.4717Y-7.1539
X3.4728Y-7.2965
X3.4736Y-6.6654
X3.4744Y-9.9744
X3.4748Y-9.9024
X3.4787Y-6.9437
X3.4795Y-9.3539
X3.4795Y-10.0697
X3.4795Y-10.1311
X3.4803Y-10.3291
X3.4807Y-10.1858
X3.4807Y-10.2764
X3.4811Y-9.8307
X3.4815Y-9.7465
X3.4815Y-9.7803
X3.4823Y-7.7567
X3.4846Y-9.565
X3.4866Y-5.8496
X3.4917Y-9.5299
X3.4921Y-4.0394
X3.4929Y-6.3543
X3.4957Y-9.2449
X3.4957Y-9.1181
X3.4957Y-9.178
X3.4984Y-7.8417
X3.5031Y-6.1197
X3.5035Y-7.3831
X3.5047Y-3.9492
X3.5047Y-6.2059
X3.5055Y-8.0957
X3.5055Y-8.148
X3.5055Y-8.3024
X3.5063Y-8.5724
X3.5067Y-8.0232
X3.5071Y-8.8508
X3.5079Y-8.5039
X3.5087Y-8.2276
X3.5087Y-8.3654
X3.5087Y-8.4291
X3.511Y-7.6476
X3.5122Y-4.5299
X3.513Y-7.5839
X3.5142Y-8.7303
X3.5146Y-8.8134
X3.5154Y-4.4303
X3.5191Y-5.3313
X3.5244Y-4.6236
X3.5248Y-4.9167
X3.5252Y-9.4748
X3.5256Y-4.8075
X3.5256Y-6.5528
X3.5264Y-5.9917
X3.5276Y-9.4299
X3.5315Y-9.9807
X3.5327Y-7.0677
X3.5335Y-4.6728
X3.5343Y-6.8673
X3.5378Y-9.2476
X3.5406Y-9.1532
X3.5413Y-6.9433
X3.5421Y-4.2638
X3.5496Y-8.6295
X3.5524Y-5.4559
X3.5524Y-5.5181
X3.5524Y-5.7299
X3.5531Y-5.6453
X3.5567Y-4.1799
X3.5567Y-9.3543
X3.5583Y-4.1071
X3.5587Y-7.8343
X3.5614Y-5.8457
X3.5614Y-6.452
X3.5624Y-4.9778
X3.5624Y-5.04
X3.563Y-8.0118
X3.5634Y-9.8925
X3.5634Y-10.1059
X3.5642Y-9.8236
X3.5657Y-10.1854
X3.5658Y-9.013
X3.5658Y-9.1783
X3.5665Y-9.6012
X3.5677Y-10.3268
X3.5681Y-9.7055
X3.5681Y-10.274
X3.5683Y-9.6697
X3.5693Y-4.9181
X3.576Y-9.328
X3.5772Y-9.4276
X3.5791Y-8.3228
X3.5799Y-8.9811
X3.5815Y-8.2394
X3.5846Y-6.7579
X3.5858Y-9.5583
X3.5909Y-8.1181
X3.5933Y-3.948
X3.5988Y-6.9429
X3.5992Y-8.3917
X3.6004Y-6.8657
X3.6008Y-8.878
X3.6008Y-8.9181
X3.6008Y-8.9583
X3.6055Y-4.2543
X3.6059Y-7.1402
X3.6098Y-7.7047
X3.6102Y-9.9831
X3.6106Y-7.7547
X3.611Y-7.8165
X3.6114Y-5.7575
X3.6114Y-8.7472
X3.6118Y-7.5197
X3.6118Y-7.6409
X3.6122Y-5.5453
X3.6122Y-7.578
X3.6126Y-5.4933
X3.613Y-7.9677
X3.613Y-9.2531
X3.613Y-8.778
X3.6136Y-10.1823
X3.6138Y-8.0091
X3.6142Y-10.2913
X3.6142Y-8.8213
X3.6146Y-4.3327
X3.6146Y-7.9138
X3.6158Y-8.713
X3.6177Y-10.1059
X3.6201Y-7.4535
X3.6209Y-9.328
X3.6232Y-6.3512
X3.6252Y-9.7039
X3.6268Y-5.6634
X3.6307Y-9.513
X3.6309Y-8.0451
X3.6327Y-9.8555
X3.6362Y-9.2311
X3.6398Y-5.5185
X3.6457Y-9.3032
X3.6457Y-9.5579
X3.6488Y-4.0154
X3.6508Y-9.148
X3.6512Y-4.888
X3.652Y-7.2236
X3.6535Y-4.1063
X3.6551Y-6.5366
X3.6559Y-6.4504
X3.6579Y-5.735
X3.6604Y-8.0565
X3.6626Y-9.8035
X3.663Y-6.8654
X3.6634Y-5.002
X3.6638Y-6.6831
X3.6661Y-7.4079
X3.6661Y-8.7323
X3.6673Y-5.4906
X3.6673Y-5.5425
X3.6673Y-6.9433
X3.6689Y-6.7681
X3.6693Y-6.2697
X3.6705Y-4.2295
X3.6717Y-10.1043
X3.6764Y-9.2169
X3.6787Y-5.6339
X3.6791Y-9.7024
X3.6799Y-3.9484
X3.6807Y-9.3681
X3.6839Y-9.8563
X3.685Y-7.0642
X3.685Y-7.913
X3.6862Y-8.2201
X3.6878Y-7.6476
X3.6882Y-7.5264
X3.6882Y-7.5846
X3.6886Y-5.2866
X3.6886Y-5.8433
X3.689Y-7.7047
X3.689Y-7.8165
X3.6902Y-5.15
X3.691Y-8.878
X3.691Y-8.9181
X3.6921Y-4.9081
X3.6931Y-8.0451
X3.6935Y-7.9762
X3.6957Y-5.9819
X3.6957Y-9.4032
X3.6957Y-9.4429
X3.6957Y-9.548
X3.7038Y-5.6988
X3.7047Y-8.1319
X3.7059Y-8.763
X3.7071Y-7.7642
X3.7091Y-6.1079
X3.7094Y-8.9862
X3.7106Y-9.3681
X3.711Y-9.2787
X3.7134Y-4.875
X3.7138Y-7.3681
X3.7158Y-8.9382
X3.7165Y-9.9831
X3.7181Y-8.9055
X3.7193Y-9.1732
X3.7205Y-6.865
X3.7209Y-9.1429
X3.7209Y-9.5232
X3.726Y-5.874
X3.726Y-10.1047
X3.7272Y-4.9209
X3.7272Y-6.1927
X3.7299Y-6.9429
X3.7303Y-7.9142
X3.7307Y-8.7417
X3.7311Y-5.7299
X3.7327Y-4.1343
X3.7335Y-9.7028
X3.7354Y-7.9606
X3.7378Y-7.4606
X3.7382Y-9.8567
X3.7398Y-8.0512
X3.7398Y-10.1894
X3.7409Y-10.2988
X3.7455Y-4.8443
X3.7472Y-7.7272
X3.7488Y-5.6327
X3.7494Y-4.7038
X3.7528Y-5.0803
X3.7563Y-7.8142
X3.7571Y-7.3248
X3.7575Y-6.0331
X3.7598Y-5.3409
X3.7606Y-9.5232
X3.761Y-9.4142
X3.7654Y-9.6413
X3.7661Y-4.9224
X3.7673Y-4.0559
X3.7701Y-6.7539
X3.7724Y-3.9449
X3.7736Y-5.3925
X3.7764Y-8.4193
X3.7766Y-4.5144
X3.7768Y-6.3846
X3.7772Y-7.9142
X3.7803Y-6.4839
X3.7807Y-8.8382
X3.7815Y-5.876
X3.7827Y-5.9858
X3.785Y-10.3264
X3.7858Y-5.2689
X3.7858Y-9.5484
X3.7862Y-10.1028
X3.7878Y-6.3114
X3.7882Y-7.4161
X3.789Y-6.8654
X3.7937Y-9.7008
X3.7949Y-9.852
X3.7957Y-8.9181
X3.7957Y-8.948
X3.7957Y-8.978
X3.7957Y-9.0083
X3.7957Y-9.0382
X3.7957Y-9.098
X3.7957Y-9.128
X3.7957Y-9.1583
X3.7961Y-6.9413
X3.7961Y-9.0681
X3.7961Y-9.1882
X3.7965Y-6.1028
X3.7972Y-7.0642
X3.7976Y-7.952
X3.7992Y-7.1598
X3.8Y-8.0689
X3.8008Y-7.2811
X3.8016Y-7.7295
X3.8079Y-4.1343
X3.8093Y-4.5132
X3.8106Y-6.6551
X3.811Y-5.1957
X3.811Y-6.7858
X3.8114Y-6.1862
X3.813Y-8.8299
X3.8157Y-5.0957
X3.8173Y-7.9091
X3.8181Y-7.5398
X3.8252Y-4.998
X3.826Y-8.9181
X3.826Y-8.948
X3.826Y-8.978
X3.826Y-9.0083
X3.826Y-9.0382
X3.826Y-9.098
X3.826Y-9.128
X3.826Y-9.1583
X3.826Y-9.548
X3.8264Y-9.0681
X3.8264Y-9.1882
X3.8268Y-9.7795
X3.8295Y-8.2185
X3.8303Y-4.8008
X3.8319Y-7.3724
X3.8323Y-8.5311
X3.8331Y-8.1079
X3.8356Y-5.3931
X3.837Y-5.3303
X3.837Y-6.188
X3.8382Y-9.8878
X3.8386Y-10.0091
X3.8394Y-5.8819
X3.8394Y-5.9874
X3.8398Y-9.9685
X3.8402Y-7.7177
X3.8406Y-10.1031
X3.8429Y-4.6217
X3.8445Y-8.8358
X3.8457Y-7.6394
X3.8469Y-7.2354
X3.8476Y-3.9449
X3.8516Y-6.865
X3.8559Y-8.9181
X3.8559Y-8.948
X3.8559Y-8.978
X3.8559Y-9.0083
X3.8559Y-9.0382
X3.8559Y-9.098
X3.8559Y-9.128
X3.8559Y-9.1583
X3.8563Y-9.0681
X3.8563Y-9.1882
X3.8587Y-6.9409
X3.8618Y-7.9102
X3.8626Y-8.3579
X3.8657Y-4.9217
X3.8717Y-10.3268
X3.8756Y-9.3732
X3.876Y-8.8382
X3.8776Y-5.0183
X3.878Y-7.3268
X3.8809Y-9.7098
X3.8811Y-7.8134
X3.8811Y-8.7835
X3.8819Y-8.0087
X3.8827Y-8.109
X3.8835Y-6.3449
X3.8854Y-8.9181
X3.8854Y-8.948
X3.8854Y-8.978
X3.8854Y-9.0083
X3.8854Y-9.0382
X3.8854Y-9.098
X3.8854Y-9.128
X3.8854Y-9.1583
X3.8858Y-9.0681
X3.8858Y-9.1882
X3.8858Y-9.4933
X3.8878Y-7.1969
X3.8906Y-7.7185
X3.8929Y-4.0118
X3.8957Y-5.0819
X3.8976Y-4.0969
X3.898Y-4.9579
X3.898Y-5.2681
X3.898Y-5.3299
X3.898Y-5.3921
X3.8984Y-5.1437
X3.8984Y-5.2059
X3.8988Y-6.7697
X3.9008Y-10.1858
X3.9008Y-9.4382
X3.9012Y-9.2634
X3.9012Y-9.3083
X3.9016Y-10.0634
X3.9075Y-5.8614
X3.9075Y-5.9839
X3.9075Y-8.6008
X3.9075Y-9.739
X3.9079Y-5.674
X3.9081Y-6.0354
X3.9083Y-5.7362
X3.9083Y-5.7976
X3.9083Y-5.9213
X3.9096Y-7.9104
X3.9114Y-6.8654
X3.9158Y-8.9181
X3.9158Y-8.948
X3.9158Y-8.978
X3.9158Y-9.0083
X3.9158Y-9.0382
X3.9158Y-9.098
X3.9158Y-9.128
X3.9158Y-9.1583
X3.9161Y-6.9406
X3.9161Y-9.0681
X3.9161Y-9.1882
X3.9197Y-5.5346
X3.9197Y-5.5866
X3.9205Y-7.2862
X3.9217Y-8.4941
X3.9224Y-6.2732
X3.9274Y-4.6915
X3.9274Y-9.6642
X3.9285Y-4.9175
X3.9295Y-3.9453
X3.9307Y-8.0083
X3.9307Y-8.8181
X3.9311Y-7.1535
X3.9311Y-7.813
X3.9311Y-9.5732
X3.9366Y-7.7193
X3.9396Y-8.1089
X3.9406Y-5.0201
X3.9406Y-8.8429
X3.9417Y-9.7925
X3.9429Y-9.8587
X3.9433Y-9.9346
X3.9437Y-10.0063
X3.9457Y-8.9181
X3.9457Y-8.948
X3.9457Y-8.978
X3.9457Y-9.0083
X3.9457Y-9.0382
X3.9457Y-9.098
X3.9457Y-9.128
X3.9457Y-9.1583
X3.9461Y-9.0681
X3.9461Y-9.1882
X3.9472Y-5.5602
X3.9476Y-6.1071
X3.948Y-4.9589
X3.9508Y-8.7736
X3.9516Y-10.3272
X3.952Y-8.3941
X3.9559Y-8.1575
X3.9563Y-10.1606
X3.9596Y-7.9104
X3.9638Y-7.2429
X3.9681Y-8.8181
X3.9732Y-8.5657
X3.9744Y-5.585
X3.9744Y-6.8622
X3.9744Y-7.1118
X3.9752Y-5.5323
X3.9752Y-8.9181
X3.9752Y-8.948
X3.9752Y-8.978
X3.9752Y-9.0083
X3.9752Y-9.0382
X3.9752Y-9.098
X3.9752Y-9.128
X3.9752Y-9.1583
X3.9756Y-9.0681
X3.9756Y-9.1882
X3.9764Y-8.7933
X3.9783Y-4.1335
X3.9795Y-6.315
X3.9822Y-7.7381
X3.9846Y-6.9409
X3.985Y-6.637
X3.987Y-8.3315
X3.9882Y-5.1437
X3.9882Y-5.2059
X3.9882Y-5.2673
X3.9882Y-5.3177
X3.9882Y-5.3882
X3.9893Y-8.0818
X3.9894Y-4.9697
X3.9921Y-8.2154
X3.9961Y-4.0465
X3.9969Y-6.0476
X3.9996Y-5.8594
X3.9996Y-6.1567
X4.Y-5.7358
X4.Y-5.798
X4.Y-5.9839
X4.0004Y-5.674
X4.0008Y-8.8429
X4.002Y-5.922
X4.0041Y-4.936
X4.0055Y-8.9181
X4.0055Y-8.948
X4.0055Y-8.978
X4.0055Y-9.0083
X4.0055Y-9.0382
X4.0055Y-9.098
X4.0055Y-9.128
X4.0055Y-9.1583
X4.0059Y-9.0681
X4.0059Y-9.1882
X4.0059Y-9.3732
X4.0075Y-7.1992
X4.0075Y-8.7728
X4.0108Y-7.9105
X4.015Y-5.061
X4.0181Y-3.9441
X4.0197Y-6.8323
X4.0224Y-7.072
X4.0244Y-10.0744
X4.026Y-5.426
X4.026Y-8.8232
X4.0264Y-5.476
X4.0264Y-8.248
X4.0307Y-5.913
X4.0311Y-7.739
X4.0354Y-8.9181
X4.0354Y-8.948
X4.0354Y-8.978
X4.0354Y-9.0083
X4.0354Y-9.0382
X4.0354Y-9.098
X4.0354Y-9.128
X4.0354Y-9.1583
X4.0358Y-9.0681
X4.0358Y-9.1882
X4.0358Y-9.413
X4.036Y-9.6764
X4.0382Y-8.0809
X4.0398Y-6.0882
X4.0406Y-4.9346
X4.0406Y-6.2043
X4.0413Y-8.4811
X4.0461Y-7.1465
X4.0461Y-9.7874
X4.0472Y-6.9406
X4.0488Y-6.6244
X4.0508Y-5.3685
X4.0543Y-10.326
X4.0559Y-8.8232
X4.0571Y-9.4736
X4.0577Y-4.4943
X4.0579Y-9.535
X4.0633Y-7.7676
X4.0642Y-5.9815
X4.065Y-4.1339
X4.0654Y-8.9181
X4.0654Y-8.948
X4.0654Y-8.978
X4.0654Y-9.0083
X4.0654Y-9.0382
X4.0654Y-9.098
X4.0654Y-9.128
X4.0654Y-9.1583
X4.0658Y-9.0681
X4.0658Y-9.1882
X4.0685Y-4.839
X4.0691Y-7.9106
X4.0704Y-8.0523
X4.0705Y-5.4343
X4.0709Y-8.7929
X4.0713Y-8.6315
X4.0717Y-9.6031
X4.074Y-6.8496
X4.074Y-8.3669
X4.074Y-8.4157
X4.076Y-8.3205
X4.0787Y-5.0236
X4.0791Y-8.2791
X4.0795Y-5.2465
X4.0807Y-4.7173
X4.0811Y-5.1228
X4.0819Y-5.1819
X4.0854Y-7.4472
X4.0856Y-7.3957
X4.087Y-5.6457
X4.087Y-7.3528
X4.0882Y-6.2465
X4.0902Y-5.7425
X4.0902Y-5.7878
X4.0913Y-5.3366
X4.0917Y-7.7962
X4.0937Y-6.1445
X4.0961Y-7.4953
X4.0961Y-8.828
X4.0988Y-8.0237
X4.1008Y-9.228
X4.1028Y-7.072
X4.1047Y-3.9445
X4.1102Y-5.5402
X4.1126Y-4.9331
X4.113Y-4.0606
X4.1134Y-7.1461
X4.1165Y-9.6587
X4.1181Y-9.9846
X4.1189Y-8.2429
X4.1213Y-6.0248
X4.1234Y-5.9159
X4.124Y-6.7969
X4.1244Y-8.5594
X4.1256Y-8.5087
X4.126Y-9.8787
X4.1264Y-7.5244
X4.1264Y-8.1906
X4.1268Y-6.411
X4.1276Y-6.487
X4.1276Y-8.4528
X4.1282Y-9.7795
X4.1291Y-7.9106
X4.1291Y-5.4748
X4.1299Y-6.9394
X4.1311Y-5.4157
X4.1315Y-7.3248
X4.1358Y-9.5083
X4.136Y-7.5795
X4.1378Y-4.9035
X4.1382Y-9.4567
X4.141Y-8.8882
X4.1441Y-9.0335
X4.1445Y-6.0772
X4.1445Y-6.1681
X4.1457Y-9.1532
X4.148Y-6.7551
X4.1504Y-6.5913
X4.1506Y-6.6482
X4.1539Y-7.2492
X4.1543Y-7.2913
X4.1567Y-4.6268
X4.1585Y-6.249
X4.1591Y-5.052
X4.1602Y-5.9776
X4.1602Y-7.6016
X4.1606Y-6.9976
X4.161Y-9.5331
X4.1614Y-4.713
X4.1614Y-4.7709
X4.163Y-5.8831
X4.163Y-8.576
X4.1644Y-4.8285
X4.1648Y-6.3049
X4.1661Y-8.1654
X4.1663Y-4.8825
X4.1671Y-4.9404
X4.1681Y-7.0728
X4.1701Y-6.8811
X4.1717Y-7.1894
X4.172Y-7.1469
X4.174Y-9.5906
X4.176Y-9.6996
X4.1768Y-4.1681
X4.1787Y-5.9256
X4.1795Y-8.828
X4.1819Y-5.1862
X4.1823Y-5.1244
X4.1823Y-5.2488
X4.187Y-5.463
X4.191Y-9.413
X4.1919Y-6.0232
X4.1921Y-5.3807
X4.1929Y-6.7205
X4.1933Y-6.687
X4.1949Y-5.3094
X4.1949Y-6.4126
X4.1957Y-6.0843
X4.1957Y-8.8929
X4.1961Y-6.1315
X4.1961Y-6.487
X4.1969Y-4.6864
X4.1974Y-5.6656
X4.1974Y-5.7242
X4.1974Y-5.8427
X4.1979Y-5.7788
X4.1988Y-5.6067
X4.2Y-8.1398
X4.2012Y-7.6315
X4.2108Y-4.9844
X4.211Y-6.2047
X4.213Y-8.5256
X4.2138Y-8.5713
X4.2142Y-7.376
X4.2146Y-7.4303
X4.2146Y-8.3402
X4.2146Y-8.3933
X4.2165Y-4.7421
X4.2173Y-10.0614
X4.2181Y-9.6102
X4.2189Y-9.9165
X4.2197Y-9.9874
X4.2224Y-8.6323
X4.224Y-10.1504
X4.2244Y-10.2264
X4.2248Y-10.298
X4.2262Y-6.7203
X4.2266Y-6.6868
X4.229Y-5.9803
X4.2295Y-5.4457
X4.2303Y-5.574
X4.2305Y-5.6352
X4.2305Y-5.6939
X4.2305Y-5.8715
X4.2305Y-5.9305
X4.2309Y-5.7533
X4.2313Y-5.804
X4.2317Y-5.1711
X4.2317Y-5.2301
X4.2317Y-5.3478
X4.2319Y-5.5181
X4.2323Y-5.2929
X4.2331Y-5.1213
X4.2331Y-5.4039
X4.2407Y-4.5522
X4.2411Y-4.4904
X4.2411Y-4.6144
X4.2413Y-4.6827
X4.2421Y-8.063
X4.2431Y-3.9947
X4.2439Y-4.4341
X4.2459Y-3.9352
X4.2459Y-4.0604
X4.2463Y-4.2514
X4.247Y-4.1337
X4.247Y-4.1963
X4.247Y-4.3726
X4.2488Y-4.8425
X4.2496Y-9.7709
X4.2504Y-9.7024
X4.253Y-6.3045
X4.253Y-6.0484
X4.2535Y-4.8925
X4.2539Y-9.8346
X4.2551Y-9.9008
X4.2555Y-9.9768
X4.2559Y-10.0484
X4.2571Y-7.6638
X4.2571Y-8.1118
X4.2575Y-6.2508
X4.2583Y-5.0295
X4.2583Y-10.1161
X4.2594Y-10.2634
X4.2606Y-10.3256
X4.2606Y-9.5335
X4.261Y-6.5811
X4.261Y-6.7858
X4.261Y-9.4331
X4.2614Y-8.9902
X4.2622Y-6.3476
X4.265Y-7.1469
X4.265Y-7.1894
X4.2685Y-6.8606
X4.2689Y-7.0736
X4.2695Y-4.9447
X4.2697Y-6.6461
X4.2744Y-5.5957
X4.2748Y-6.9965
X4.2756Y-7.2492
X4.278Y-8.8032
X4.2799Y-4.7976
X4.2807Y-9.163
X4.2807Y-9.1929
X4.2823Y-6.1614
X4.2827Y-7.2894
X4.2827Y-8.6988
X4.2833Y-4.586
X4.2839Y-5.5445
X4.2846Y-4.2827
X4.2862Y-4.6476
X4.2866Y-4.3425
X4.2866Y-4.4043
X4.2868Y-4.7195
X4.2872Y-3.9652
X4.2882Y-4.0244
X4.2884Y-4.453
X4.2894Y-4.5236
X4.2895Y-7.8436
X4.2907Y-4.2258
X4.2911Y-4.1667
X4.2925Y-5.3232
X4.2929Y-7.3276
X4.2935Y-4.0927
X4.2949Y-7.8106
X4.2976Y-4.8504
X4.3016Y-6.4465
X4.3016Y-6.4984
X4.3028Y-6.0362
X4.3028Y-6.4004
X4.3035Y-6.9354
X4.3049Y-5.1274
X4.3085Y-6.7041
X4.3092Y-7.8712
X4.3092Y-7.9263
X4.3106Y-9.3882
X4.3114Y-5.2276
X4.3122Y-8.4465
X4.3122Y-8.4953
X4.3122Y-8.5445
X4.3146Y-9.6091
X4.3158Y-9.228
X4.3161Y-9.0681
X4.3189Y-5.4276
X4.3197Y-5.6004
X4.3205Y-6.7858
X4.3228Y-6.1642
X4.324Y-8.5917
X4.3256Y-5.0264
X4.3268Y-6.2433
X4.3289Y-7.8436
X4.3289Y-7.8988
X4.3309Y-4.7624
X4.3311Y-8.8028
X4.3378Y-5.7638
X4.3378Y-5.8244
X4.3382Y-7.1476
X4.3409Y-7.0744
X4.3484Y-5.7075
X4.3486Y-7.8712
X4.3486Y-7.9263
X4.3498Y-4.9439
X4.3504Y-4.8874
X4.3504Y-6.872
X4.352Y-8.1677
X4.352Y-8.2177
X4.352Y-8.3173
X4.3524Y-8.3646
X4.3524Y-8.2672
X4.3529Y-7.5067
X4.3529Y-7.5567
X4.3529Y-7.6067
X4.3531Y-8.4173
X4.3535Y-7.4063
X4.3535Y-7.4567
X4.3539Y-7.3579
X4.3559Y-9.9008
X4.3559Y-9.9744
X4.3559Y-10.113
X4.3563Y-9.835
X4.3563Y-10.0264
X4.3563Y-10.261
X4.3575Y-8.6331
X4.3575Y-10.3232
X4.3579Y-9.7693
X4.3583Y-9.7028
X4.3596Y-5.303
X4.3622Y-5.5425
X4.3654Y-5.1555
X4.3677Y-6.0933
X4.3679Y-4.1136
X4.3683Y-7.8436
X4.3683Y-7.8988
X4.3683Y-4.0545
X4.3687Y-4.2309
X4.3691Y-4.1719
X4.3693Y-5.6602
X4.3701Y-4.4634
X4.3711Y-3.9951
X4.3715Y-3.936
X4.372Y-5.4764
X4.3736Y-4.3437
X4.3746Y-4.2841
X4.376Y-4.4028
X4.3764Y-5.4323
X4.3766Y-4.7211
X4.3772Y-4.663
X4.3795Y-5.0535
X4.3827Y-4.6138
X4.388Y-7.8712
X4.388Y-7.9263
X4.3886Y-9.9862
X4.3909Y-10.1496
X4.3913Y-10.0764
X4.3913Y-10.2256
X4.3917Y-6.2126
X4.3917Y-10.2972
X4.3929Y-6.7906
X4.3941Y-7.0331
X4.3949Y-5.3433
X4.3972Y-7.2315
X4.3972Y-7.3114
X4.3976Y-9.7965
X4.398Y-9.6094
X4.3984Y-7.1894
X4.3984Y-8.8185
X4.3988Y-5.6091
X4.3992Y-7.148
X4.3992Y-7.274
X4.4016Y-4.8039
X4.4037Y-7.8436
X4.4055Y-6.9264
X4.4055Y-7.0035
X4.4055Y-7.0657
X4.4075Y-4.4339
X4.4077Y-7.8988
X4.4087Y-8.4484
X4.4106Y-4.378
X4.412Y-4.0841
X4.4124Y-4.025
X4.4124Y-4.2561
X4.4128Y-4.2014
X4.4132Y-4.1423
X4.4138Y-6.0673
X4.4146Y-4.7209
X4.4152Y-3.9656
X4.4228Y-5.5413
X4.4272Y-5.9539
X4.428Y-5.8937
X4.4283Y-5.776
X4.4283Y-6.011
X4.4287Y-5.3429
X4.4287Y-8.4913
X4.4287Y-8.5323
X4.4287Y-9.7051
X4.4297Y-5.8352
X4.4299Y-5.1079
X4.4305Y-4.9738
X4.4311Y-7.9201
X4.4323Y-7.9638
X4.4323Y-8.6441
X4.4325Y-6.8276
X4.439Y-5.602
X4.439Y-5.7205
X4.439Y-6.1622
X4.439Y-6.2701
X4.4402Y-4.5941
X4.4406Y-5.6563
X4.4409Y-4.5055
X4.4413Y-6.4909
X4.4421Y-4.8756
X4.4425Y-5.2835
X4.4427Y-8.8539
X4.4433Y-5.1689
X4.4441Y-5.2228
X4.4445Y-4.4732
X4.447Y-5.4033
X4.4476Y-5.4803
X4.4484Y-8.5752
X4.4496Y-8.1094
X4.4528Y-7.6657
X4.4528Y-9.9772
X4.463Y-10.1165
X4.4681Y-8.7358
X4.4701Y-9.6083
X4.4746Y-5.0238
X4.4768Y-7.0031
X4.4768Y-7.0661
X4.4772Y-4.8039
X4.4772Y-9.8138
X4.4776Y-5.5299
X4.4776Y-5.5594
X4.4805Y-6.8874
X4.4815Y-6.9472
X4.4819Y-6.7449
X4.4819Y-7.1465
X4.4874Y-6.1201
X4.4886Y-7.0346
X4.4898Y-8.3965
X4.4902Y-7.4307
X4.4902Y-8.3437
X4.4906Y-7.2417
X4.4906Y-7.3776
X4.4909Y-7.2004
X4.4953Y-4.3602
X4.4984Y-4.7252
X4.5008Y-9.6988
X4.5012Y-10.0386
X4.5016Y-7.6311
X4.5029Y-8.9028
X4.5047Y-4.2217
X4.5059Y-4.5941
X4.5067Y-4.5051
X4.5067Y-4.5055
X4.5071Y-5.5299
X4.5071Y-5.5594
X4.5083Y-4.6697
X4.5094Y-9.3665
X4.5102Y-9.5516
X4.511Y-9.4248
X4.5114Y-6.2075
X4.5126Y-9.2945
X4.5127Y-9.0035
X4.513Y-9.4823
X4.5138Y-9.2138
X4.5143Y-9.0724
X4.5146Y-9.8933
X4.5147Y-8.7941
X4.5147Y-8.1401
X4.515Y-9.1386
X4.515Y-10.1543
X4.5227Y-10.2772
X4.5242Y-10.3252
X4.5248Y-7.6587
X4.5272Y-5.1059
X4.5274Y-4.8762
X4.5274Y-4.9278
X4.5283Y-5.1657
X4.5287Y-5.224
X4.5319Y-8.5815
X4.5323Y-5.0461
X4.5329Y-4.988
X4.5346Y-6.0728
X4.5358Y-8.5386
X4.5362Y-5.3965
X4.5364Y-5.8352
X4.5364Y-5.8939
X4.5364Y-5.9533
X4.5366Y-5.3429
X4.5366Y-5.461
X4.5366Y-5.6579
X4.5366Y-5.7169
X4.5366Y-5.776
X4.5368Y-6.0124
X4.537Y-5.2839
X4.5402Y-7.6039
X4.5406Y-4.3657
X4.5409Y-7.2004
X4.5488Y-9.6539
X4.5492Y-8.4843
X4.5504Y-4.1299
X4.552Y-4.8024
X4.5528Y-6.9516
X4.5529Y-8.1659
X4.5587Y-6.124
X4.5606Y-7.6449
X4.563Y-6.8748
X4.5642Y-4.587
X4.5669Y-3.9417
X4.5685Y-5.5878
X4.5693Y-4.4508
X4.5693Y-4.7268
X4.5697Y-5.5366
X4.572Y-10.089
X4.5722Y-8.8488
X4.5724Y-9.9697
X4.5742Y-5.4921
X4.5748Y-8.7902
X4.5756Y-7.0752
X4.5764Y-5.7811
X4.577Y-8.197
X4.5776Y-7.1488
X4.5776Y-8.4472
X4.5778Y-8.2444
X4.578Y-5.9831
X4.578Y-6.0449
X4.5807Y-7.5768
X4.5811Y-4.285
X4.5813Y-7.5201
X4.5823Y-4.1933
X4.5839Y-7.2028
X4.5846Y-7.3299
X4.585Y-7.2445
X4.585Y-7.2878
X4.5853Y-5.8591
X4.5862Y-8.7492
X4.5906Y-4.6945
X4.5913Y-6.7413
X4.5917Y-9.789
X4.5928Y-7.8949
X4.5976Y-4.5394
X4.598Y-9.5929
X4.5988Y-4.0051
X4.5988Y-5.0362
X4.5992Y-9.4303
X4.6004Y-9.4906
X4.6008Y-9.2102
X4.6022Y-5.3687
X4.6024Y-9.1398
X4.6024Y-9.3689
X4.6028Y-6.1933
X4.6031Y-8.6508
X4.6039Y-8.5075
X4.6049Y-9.3083
X4.6057Y-9.0618
X4.6061Y-5.1707
X4.6064Y-8.9953
X4.6091Y-8.2774
X4.6092Y-8.8949
X4.6109Y-8.2269
X4.6138Y-4.9075
X4.6169Y-9.6642
X4.6179Y-4.8006
X4.6183Y-7.3417
X4.6183Y-7.4835
X4.6191Y-7.3772
X4.6191Y-7.4339
X4.6199Y-8.0092
X4.6232Y-7.7792
X4.6238Y-8.3171
X4.6238Y-8.3636
X4.6242Y-6.1
X4.6252Y-9.8614
X4.6262Y-8.4148
X4.6281Y-9.2535
X4.6301Y-5.7016
X4.6333Y-5.2726
X4.6343Y-5.0843
X4.635Y-5.3528
X4.6362Y-5.8547
X4.6366Y-4.0862
X4.6372Y-5.5124
X4.6399Y-8.077
X4.6406Y-10.1657
X4.641Y-8.2573
X4.6431Y-8.7957
X4.6443Y-5.7327
X4.6455Y-5.6081
X4.6483Y-8.0378
X4.6484Y-4.4043
X4.6516Y-7.7506
X4.6528Y-7.8949
X4.6531Y-4.4886
X4.6531Y-4.9587
X4.6533Y-4.7187
X4.6551Y-10.3169
X4.6577Y-5.4388
X4.6583Y-3.9465
X4.6614Y-4.8335
X4.6614Y-7.2248
X4.6642Y-7.1492
X4.6646Y-6.8083
X4.6646Y-6.878
X4.6646Y-6.9433
X4.6646Y-7.0146
X4.665Y-7.0748
X4.6661Y-6.6535
X4.6661Y-6.7311
X4.6669Y-6.1571
X4.6669Y-6.2209
X4.6669Y-6.2984
X4.6669Y-6.3685
X4.6673Y-6.5606
X4.6679Y-6.503
X4.6683Y-6.4341
X4.6708Y-8.2927
X4.6713Y-7.6362
X4.6721Y-8.1056
X4.6726Y-8.3317
X4.6726Y-8.3758
X4.6728Y-5.1276
X4.674Y-9.4516
X4.6764Y-8.472
X4.6766Y-8.4195
X4.6772Y-8.5224
X4.6783Y-7.3063
X4.6795Y-4.2953
X4.6795Y-8.5713
X4.6805Y-8.0664
X4.6815Y-7.7252
X4.6824Y-9.0579
X4.6827Y-8.6177
X4.6843Y-9.6638
X4.685Y-8.6626
X4.6882Y-4.7
X4.6963Y-5.5258
X4.6976Y-5.0059
X4.698Y-8.7071
X4.6983Y-8.1335
X4.7008Y-4.0339
X4.7057Y-4.7911
X4.711Y-7.8949
X4.7138Y-5.6087
X4.7138Y-5.7071
X4.7165Y-4.4079
X4.7173Y-8.4846
X4.722Y-8.748
X4.7224Y-10.0138
X4.7236Y-4.9508
X4.7236Y-5.4906
X4.724Y-5.1874
X4.7242Y-8.7933
X4.7242Y-5.2969
X4.7248Y-7.5433
X4.725Y-5.3652
X4.7252Y-6.1102
X4.7254Y-5.247
X4.7254Y-5.4242
X4.7268Y-4.8862
X4.7273Y-8.163
X4.7287Y-7.7236
X4.7291Y-7.363
X4.7294Y-8.0673
X4.7299Y-4.4882
X4.7299Y-4.5846
X4.7333Y-5.7923
X4.7333Y-5.8514
X4.7333Y-5.91
X4.737Y-4.1327
X4.7425Y-6.485
X4.7425Y-6.5547
X4.7425Y-6.6323
X4.7433Y-6.8047
X4.7433Y-6.8744
X4.7433Y-6.9398
X4.7433Y-7.0157
X4.7441Y-6.2071
X4.7441Y-6.4177
X4.7441Y-6.7291
X4.7441Y-7.0748
X4.7441Y-9.6642
X4.7451Y-6.3415
X4.7453Y-6.2756
X4.7476Y-7.1496
X4.748Y-4.2177
X4.7504Y-7.2209
X4.7508Y-5.0598
X4.7521Y-8.8492
X4.7535Y-3.9445
X4.7535Y-9.1287
X4.7568Y-9.0508
X4.7602Y-8.7815
X4.7622Y-7.895
X4.7634Y-4.5508
X4.7638Y-5.5063
X4.7646Y-5.6331
X4.7656Y-5.5659
X4.7665Y-10.2051
X4.7687Y-5.2994
X4.7693Y-9.902
X4.7695Y-8.2006
X4.7697Y-7.2736
X4.7726Y-7.6999
X4.7728Y-8.4846
X4.7732Y-10.3161
X4.7748Y-5.6925
X4.7754Y-5.76
X4.776Y-5.8169
X4.7766Y-6.06
X4.777Y-5.9415
X4.7774Y-6.001
X4.778Y-7.4083
X4.7783Y-5.8843
X4.7795Y-8.6232
X4.7807Y-8.5598
X4.7831Y-8.0858
X4.7835Y-8.6689
X4.785Y-9.2791
X4.7854Y-5.4382
X4.7902Y-5.2402
X4.7902Y-7.9929
X4.7921Y-5.1094
X4.7929Y-4.4087
X4.7929Y-7.7972
X4.7965Y-4.8972
X4.7969Y-4.9587
X4.7976Y-9.7732
X4.7978Y-8.2337
X4.7988Y-6.1606
X4.802Y-6.7
X4.8028Y-4.3114
X4.8028Y-5.0563
X4.8039Y-4.0047
X4.8051Y-8.7953
X4.8071Y-4.5988
X4.8071Y-4.6602
X4.8083Y-4.7957
X4.8087Y-6.448
X4.8089Y-4.8337
X4.8094Y-4.7189
X4.8122Y-7.895
X4.8146Y-7.3169
X4.8146Y-8.7
X4.8177Y-9.3067
X4.8181Y-7.1441
X4.8197Y-7.6236
X4.8224Y-6.2504
X4.8228Y-7.0783
X4.8236Y-7.4575
X4.8291Y-9.5579
X4.8291Y-10.1154
X4.8295Y-7.6998
X4.8317Y-5.3919
X4.8323Y-8.4846
X4.8346Y-8.6224
X4.835Y-4.4476
X4.837Y-8.298
X4.8382Y-9.1323
X4.8386Y-8.3567
X4.8386Y-8.4071
X4.8425Y-8.0846
X4.8433Y-7.798
X4.8437Y-8.8984
X4.8484Y-4.9559
X4.8496Y-7.9929
X4.85Y-5.0984
X4.8508Y-4.8945
X4.8508Y-5.1606
X4.8512Y-6.7878
X4.8512Y-6.8689
X4.8512Y-6.9343
X4.8512Y-6.9972
X4.8512Y-7.0528
X4.8535Y-7.1563
X4.8575Y-7.3602
X4.8606Y-6.1031
X4.8622Y-8.7055
X4.8626Y-4.4079
X4.8642Y-7.8949
X4.865Y-7.4988
X4.8654Y-5.5583
X4.8671Y-5.6128
X4.8677Y-3.939
X4.8687Y-5.7904
X4.8687Y-6.0344
X4.8689Y-4.7248
X4.8691Y-5.6719
X4.8695Y-5.7313
X4.8717Y-4.6622
X4.872Y-4.0744
X4.8724Y-5.8425
X4.8724Y-5.9059
X4.8726Y-5.964
X4.8738Y-4.2844
X4.8752Y-8.5402
X4.8752Y-8.8008
X4.8752Y-10.1563
X4.8772Y-4.5957
X4.878Y-6.6268
X4.8783Y-4.2008
X4.8793Y-8.9976
X4.8795Y-8.4807
X4.8797Y-9.0602
X4.8803Y-7.7008
X4.8827Y-8.5846
X4.8839Y-4.5
X4.8848Y-5.2116
X4.8852Y-5.2703
X4.8856Y-5.3297
X4.8886Y-7.278
X4.8894Y-7.1445
X4.8929Y-10.3118
X4.9Y-4.7941
X4.9004Y-6.7236
X4.9031Y-7.1134
X4.9051Y-7.4079
X4.9055Y-8.3748
X4.9081Y-5.4423
X4.9138Y-7.5469
X4.9142Y-8.087
X4.9189Y-4.8945
X4.9217Y-7.9067
X4.9228Y-7.7386
X4.9268Y-4.8339
X4.9268Y-6.939
X4.9278Y-6.8695
X4.9291Y-7.061
X4.9299Y-7.0071
X4.9315Y-8.9028
X4.9319Y-7.8496
X4.9354Y-6.802
X4.936Y-9.7728
X4.9382Y-6.563
X4.9398Y-4.9539
X4.9476Y-4.6646
X4.948Y-7.4512
X4.9492Y-4.1323
X4.9501Y-8.8512
X4.9506Y-5.2132
X4.9516Y-4.5972
X4.9524Y-4.5035
X4.9524Y-6.3047
X4.9531Y-4.3209
X4.9543Y-8.7992
X4.9567Y-5.1504
X4.9602Y-8.2307
X4.9618Y-6.6669
X4.9626Y-7.5921
X4.9626Y-7.9949
X4.963Y-6.7819
X4.9657Y-3.9441
X4.9657Y-8.7055
X4.9667Y-5.2675
X4.9681Y-7.9024
X4.9687Y-5.5522
X4.9691Y-5.4388
X4.9717Y-8.6047
X4.9732Y-7.7398
X4.9744Y-7.8598
X4.9748Y-8.0823
X4.9776Y-8.9783
X4.9831Y-4.0449
X4.985Y-7.2693
X4.985Y-9.9783
X4.9874Y-7.1626
X4.9902Y-6.528
X4.9902Y-8.6705
X4.9921Y-7.0547
X4.9961Y-4.1669
X4.9984Y-4.2638
X4.9984Y-6.2465
X4.9992Y-7.5008
X5.0083Y-7.6413
X5.0102Y-6.6197
X5.011Y-10.3122
X5.0142Y-8.0055
X5.0154Y-6.7327
X5.0165Y-6.4736
X5.0177Y-8.0728
X5.0201Y-4.5063
X5.0201Y-4.5969
X5.0213Y-7.9012
X5.0228Y-9.1087
X5.024Y-4.4512
X5.0244Y-4.8327
X5.0244Y-9.6094
X5.0295Y-7.8524
X5.0354Y-6.8831
X5.0372Y-5.5604
X5.0476Y-8.6705
X5.048Y-7.5461
X5.0492Y-7.687
X5.0496Y-4.6992
X5.0496Y-7.7366
X5.0496Y-9.813
X5.052Y-7.9831
X5.0528Y-7.0665
X5.0528Y-7.4197
X5.0539Y-6.576
X5.061Y-8.1106
X5.0618Y-6.7898
X5.0624Y-8.9933
X5.063Y-6.4346
X5.0634Y-10.039
X5.0642Y-6.6791
X5.0663Y-8.85
X5.0671Y-8.9106
X5.0724Y-7.9004
X5.0736Y-9.5165
X5.0785Y-4.403
X5.0835Y-4.322
X5.0858Y-7.852
X5.0874Y-8.3803
X5.0878Y-8.2433
X5.089Y-6.5394
X5.0921Y-4.5083
X5.0937Y-7.5953
X5.0961Y-4.5941
X5.1059Y-6.3854
X5.1079Y-8.0413
X5.1124Y-5.6841
X5.1128Y-5.7455
X5.1132Y-5.6246
X5.1132Y-5.8049
X5.1134Y-5.9571
X5.1157Y-5.0724
X5.1157Y-8.7878
X5.1161Y-8.7311
X5.1167Y-5.425
X5.1171Y-5.364
X5.1175Y-5.2455
X5.1177Y-4.7169
X5.1177Y-5.5472
X5.1179Y-5.1907
X5.1179Y-5.3049
X5.1181Y-4.7764
X5.1181Y-4.8354
X5.1183Y-4.6612
X5.1183Y-5.0085
X5.1183Y-5.4833
X5.1183Y-5.1303
X5.1187Y-4.89
X5.1191Y-4.9494
X5.1197Y-6.6295
X5.1258Y-4.0679
X5.1262Y-4.0132
X5.1266Y-3.9541
X5.127Y-4.3037
X5.1274Y-4.249
X5.1278Y-4.1333
X5.1278Y-4.19
X5.1283Y-6.502
X5.1291Y-8.8575
X5.1311Y-8.9504
X5.1315Y-4.6079
X5.1343Y-4.4638
X5.1353Y-10.2193
X5.1358Y-10.1563
X5.1409Y-7.828
X5.1413Y-10.3181
X5.1469Y-9.0488
X5.1488Y-10.039
X5.1516Y-7.6496
X5.1524Y-7.9157
X5.1539Y-6.5874
X5.1543Y-5.5835
X5.1579Y-6.8016
X5.1594Y-6.3575
X5.1606Y-7.9764
X5.1608Y-5.3955
X5.161Y-8.1098
X5.1618Y-6.4398
X5.1624Y-4.9789
X5.1628Y-4.8604
X5.1628Y-5.038
X5.163Y-9.4154
X5.1632Y-4.8057
X5.1632Y-4.9199
X5.1634Y-4.6862
X5.1636Y-4.7467
X5.1642Y-5.102
X5.1642Y-5.5197
X5.1644Y-5.7183
X5.165Y-5.1614
X5.165Y-5.6587
X5.1654Y-9.1949
X5.1657Y-4.628
X5.1657Y-5.7953
X5.1665Y-4.0984
X5.1665Y-5.2173
X5.1669Y-5.3362
X5.1673Y-5.2756
X5.1673Y-5.4524
X5.1673Y-5.8862
X5.1693Y-7.4185
X5.1699Y-4.0384
X5.1703Y-3.9837
X5.1711Y-4.2742
X5.1713Y-4.4465
X5.1715Y-4.2195
X5.1717Y-9.7728
X5.1719Y-4.1604
X5.1736Y-6.2539
X5.1736Y-6.3028
X5.1738Y-4.5911
X5.174Y-4.3882
X5.1744Y-6.1768
X5.1752Y-4.5031
X5.1909Y-7.1429
X5.2008Y-10.1138
X5.2039Y-7.2827
X5.2083Y-5.6205
X5.2091Y-9.3776
X5.2091Y-9.5917
X5.2091Y-9.665
X5.2093Y-5.6876
X5.2093Y-5.7482
X5.2098Y-9.4469
X5.2106Y-9.5161
X5.211Y-7.6299
X5.211Y-7.7035
X5.211Y-8.6488
X5.211Y-8.722
X5.211Y-9.9657
X5.2114Y-8.5949
X5.2118Y-8.0634
X5.2122Y-7.776
X5.2122Y-7.8504
X5.2122Y-7.926
X5.2122Y-7.9992
X5.2122Y-8.526
X5.2122Y-8.7945
X5.2122Y-8.8689
X5.2122Y-8.9445
X5.2122Y-9.0177
X5.2122Y-9.0819
X5.2122Y-9.1563
X5.2122Y-9.2319
X5.2122Y-9.3051
X5.213Y-8.1394
X5.2138Y-9.7201
X5.2146Y-6.9972
X5.2146Y-8.4508
X5.2157Y-8.3803
X5.2169Y-8.2201
X5.226Y-6.0642
X5.228Y-5.9894
X5.2295Y-6.522
X5.2295Y-6.7681
X5.2331Y-7.4201
X5.2335Y-7.5516
X5.237Y-9.811
X5.249Y-4.2793
X5.2494Y-4.2246
X5.2498Y-4.1656
X5.252Y-10.3165
X5.2535Y-5.6587
X5.2541Y-5.7175
X5.2543Y-6.2535
X5.2551Y-5.8803
X5.2559Y-5.2295
X5.2559Y-6.1768
X5.2559Y-6.2913
X5.2559Y-6.3508
X5.2573Y-4.3872
X5.2577Y-4.1022
X5.2581Y-4.0474
X5.2581Y-4.6797
X5.2585Y-3.9884
X5.2585Y-4.5612
X5.2585Y-10.2248
X5.2587Y-4.7421
X5.2589Y-4.5065
X5.2589Y-4.6207
X5.2593Y-4.4474
X5.2598Y-5.5835
X5.26Y-5.0447
X5.26Y-5.4128
X5.2602Y-6.4362
X5.2602Y-9.9071
X5.2604Y-4.9262
X5.2604Y-5.1037
X5.2604Y-5.5305
X5.2606Y-5.7976
X5.2608Y-4.8715
X5.2608Y-4.9856
X5.2608Y-5.1628
X5.2608Y-5.3561
X5.2612Y-4.8124
X5.2612Y-5.297
X5.2612Y-5.4715
X5.2646Y-3.939
X5.2819Y-10.1228
X5.2823Y-10.1988
X5.2902Y-7.4933
X5.2931Y-4.2498
X5.2935Y-4.1951
X5.2935Y-4.3093
X5.2937Y-7.628
X5.2937Y-7.7035
X5.2937Y-7.7768
X5.2937Y-8.3606
X5.2937Y-8.4339
X5.2937Y-8.498
X5.2939Y-4.136
X5.2941Y-5.9894
X5.2945Y-5.6854
X5.2949Y-7.8492
X5.2949Y-7.9252
X5.2949Y-7.9984
X5.2949Y-8.0626
X5.2949Y-8.137
X5.2949Y-8.2126
X5.2949Y-8.2858
X5.2949Y-8.7114
X5.2953Y-8.5866
X5.2957Y-9.3787
X5.2957Y-9.4429
X5.2957Y-9.5173
X5.2957Y-9.5929
X5.2965Y-6.0657
X5.2965Y-9.0173
X5.2965Y-9.0815
X5.2965Y-9.1559
X5.2965Y-9.2315
X5.2965Y-9.3047
X5.2976Y-8.7945
X5.2976Y-8.8689
X5.2976Y-8.9445
X5.2984Y-5.6228
X5.2992Y-5.7488
X5.3018Y-4.0726
X5.3022Y-4.0179
X5.3026Y-3.9589
X5.3026Y-4.5317
X5.3028Y-7.0748
X5.303Y-4.477
X5.303Y-4.5911
X5.303Y-5.199
X5.3033Y-4.4179
X5.3035Y-4.6508
X5.3041Y-5.0152
X5.3043Y-9.7441
X5.3045Y-4.8967
X5.3045Y-5.0742
X5.3045Y-5.3813
X5.3049Y-4.8419
X5.3049Y-4.9561
X5.3051Y-6.6917
X5.3053Y-5.2675
X5.3055Y-5.137
X5.3063Y-4.7118
X5.3063Y-5.3283
X5.3067Y-4.7815
X5.3069Y-6.8543
X5.3071Y-5.4957
X5.3079Y-5.4366
X5.3087Y-5.5587
X5.3122Y-9.8858
X5.3138Y-9.9724
X5.3142Y-10.0618
X5.3142Y-10.3181
X5.3146Y-10.2335
X5.3154Y-10.1488
X5.3291Y-9.0476
X5.3291Y-9.1201
X5.3299Y-9.1949
X5.3307Y-8.7665
X5.3311Y-7.661
X5.3311Y-7.7366
X5.3311Y-7.8098
X5.3311Y-8.3937
X5.3311Y-8.4669
X5.3323Y-7.8823
X5.3323Y-7.9583
X5.3323Y-8.0315
X5.3323Y-8.0957
X5.3323Y-8.1701
X5.3323Y-8.2457
X5.3323Y-8.3189
X5.3343Y-4.3429
X5.3362Y-9.6531
X5.3378Y-7.5685
X5.3412Y-5.8047
X5.3423Y-6.8095
X5.3504Y-7.4382
X5.3539Y-8.5362
X5.3561Y-5.7504
X5.3594Y-8.6465
X5.363Y-5.9016
X5.3677Y-6.1382
X5.3705Y-9.8319
X5.3709Y-9.3335
X5.372Y-7.2634
X5.3811Y-4.5138
X5.3829Y-5.2305
X5.3843Y-5.165
X5.3854Y-9.7531
X5.386Y-5.2961
X5.3872Y-5.3854
X5.3876Y-4.9807
X5.3921Y-4.5937
X5.3933Y-6.2268
X5.3937Y-9.1535
X5.3941Y-9.1874
X5.3949Y-6.6504
X5.3988Y-7.7614
X5.3996Y-7.5091
X5.4055Y-4.4142
X5.4071Y-9.8705
X5.4071Y-9.9276
X5.4083Y-10.1508
X5.4087Y-6.9925
X5.4091Y-10.0106
X5.4102Y-7.3764
X5.4102Y-10.2339
X5.4106Y-10.0949
X5.4118Y-10.3181
X5.413Y-7.8224
X5.4164Y-5.639
X5.4193Y-8.115
X5.4201Y-9.6555
X5.4211Y-8.9322
X5.422Y-8.5898
X5.4252Y-8.5083
X5.426Y-8.3894
X5.4331Y-4.2591
X5.4392Y-10.1122
X5.4394Y-9.487
X5.4406Y-9.1894
X5.4409Y-9.1535
X5.4417Y-6.6083
X5.4421Y-10.1953
X5.4429Y-9.9705
X5.4441Y-6.9213
X5.4469Y-8.6957
X5.4512Y-9.3323
X5.452Y-3.9559
X5.452Y-9.6224
X5.4575Y-8.1134
X5.4591Y-7.3311
X5.4593Y-5.5382
X5.4594Y-10.0224
X5.4616Y-10.2488
X5.4638Y-8.0016
X5.4646Y-7.4465
X5.465Y-4.0394
X5.4681Y-6.8626
X5.4709Y-7.1661
X5.4732Y-8.4091
X5.4752Y-6.528
X5.4787Y-9.7504
X5.4791Y-4.5024
X5.4799Y-9.0949
X5.4799Y-9.1453
X5.4799Y-9.1949
X5.4799Y-9.2453
X5.4807Y-8.4717
X5.4811Y-9.2878
X5.4815Y-9.0311
X5.4878Y-8.8055
X5.488Y-6.726
X5.4909Y-9.6555
X5.4933Y-4.3295
X5.4955Y-4.7453
X5.4976Y-4.1331
X5.4984Y-6.1197
X5.4992Y-9.3327
X5.5004Y-9.0657
X5.5028Y-7.2835
X5.5031Y-7.9154
X5.5051Y-9.1201
X5.5051Y-9.1701
X5.5051Y-9.2201
X5.5106Y-7.4
X5.5112Y-6.3748
X5.5118Y-9.7724
X5.5124Y-4.9571
X5.513Y-4.6311
X5.5161Y-5.1744
X5.5161Y-8.587
X5.5197Y-9.4807
X5.5205Y-8.8547
X5.5222Y-8.7182
X5.5234Y-6.4272
X5.5236Y-8.5055
X5.5246Y-5.3045
X5.5256Y-9.0933
X5.5266Y-6.487
X5.5291Y-9.0311
X5.5295Y-6.5551
X5.5299Y-9.1453
X5.5299Y-9.1949
X5.5319Y-4.2185
X5.5339Y-3.9563
X5.5346Y-9.9709
X5.5346Y-10.0157
X5.5356Y-5.2256
X5.5409Y-8.2469
X5.5441Y-10.0783
X5.5449Y-9.3327
X5.5496Y-9.7732
X5.5504Y-9.0657
X5.5528Y-8.4626
X5.5535Y-7.2406
X5.5543Y-7.0902
X5.5551Y-9.1201
X5.5551Y-9.1701
X5.5551Y-9.2201
X5.5575Y-6.6071
X5.5587Y-5.3748
X5.5601Y-4.8516
X5.5622Y-7.348
X5.563Y-6.8197
X5.5654Y-4.0161
X5.5697Y-9.6559
X5.5705Y-4.5161
X5.5717Y-6.8642
X5.574Y-4.2783
X5.5748Y-9.0307
X5.5799Y-9.0949
X5.5799Y-9.1453
X5.5799Y-9.1949
X5.5799Y-9.7535
X5.5811Y-5.874
X5.5833Y-10.2535
X5.5839Y-6.9185
X5.5854Y-8.2445
X5.5856Y-10.1807
X5.5909Y-5.7768
X5.5909Y-8.5866
X5.5917Y-9.3327
X5.5919Y-6.7693
X5.5929Y-8.5055
X5.5941Y-5.478
X5.5945Y-9.0665
X5.5961Y-8.3567
X5.598Y-9.365
X5.598Y-9.3965
X5.598Y-9.428
X5.598Y-9.5146
X5.598Y-9.5461
X5.598Y-9.5776
X5.6012Y-7.1933
X5.6016Y-7.7091
X5.6047Y-9.2701
X5.6051Y-9.1201
X5.6051Y-9.1701
X5.6051Y-9.2201
X5.6106Y-7.8909
X5.6191Y-5.6028
X5.6205Y-7.2898
X5.6209Y-5.428
X5.6213Y-9.0307
X5.6217Y-4.0815
X5.6224Y-3.9551
X5.6252Y-9.774
X5.6299Y-9.1453
X5.6299Y-9.1949
X5.6299Y-9.2449
X5.6307Y-8.2457
X5.6315Y-10.3177
X5.6352Y-8.8301
X5.639Y-9.3315
X5.6392Y-6.6776
X5.6394Y-6.9917
X5.6398Y-6.024
X5.6457Y-6.3272
X5.6465Y-10.0783
X5.648Y-7.1476
X5.6506Y-5.2161
X5.6508Y-4.1783
X5.6538Y-10.1965
X5.6542Y-4.7394
X5.6547Y-5.1665
X5.6547Y-9.2701
X5.6551Y-9.1201
X5.6551Y-9.1701
X5.6551Y-9.2201
X5.6563Y-9.6563
X5.6567Y-9.75
X5.6587Y-7.6693
X5.6602Y-7.8303
X5.6608Y-5.0024
X5.6642Y-7.9984
X5.6673Y-8.5846
X5.6685Y-8.5024
X5.6685Y-9.0319
X5.6714Y-8.6797
X5.6734Y-6.8642
X5.6756Y-7.2346
X5.6799Y-9.1453
X5.6799Y-9.1949
X5.6799Y-9.2449
X5.685Y-9.3315
X5.6904Y-10.1543
X5.6951Y-6.9272
X5.702Y-7.0969
X5.7024Y-8.2256
X5.7024Y-10.0386
X5.7047Y-9.2701
X5.7051Y-9.1201
X5.7051Y-9.1701
X5.7051Y-9.2201
X5.7063Y-6.8189
X5.7091Y-3.9555
X5.7122Y-7.676
X5.715Y-9.0319
X5.7157Y-7.8358
X5.7205Y-7.7346
X5.7213Y-7.7772
X5.7224Y-4.2622
X5.726Y-9.6563
X5.7268Y-9.0902
X5.7272Y-4.0272
X5.7295Y-9.1453
X5.7295Y-9.1949
X5.7299Y-9.2449
X5.7319Y-7.9433
X5.7323Y-7.9024
X5.7331Y-7.1787
X5.7335Y-8.5024
X5.7343Y-4.6311
X5.735Y-8.5858
X5.735Y-9.9575
X5.7354Y-4.0965
X5.7372Y-4.8563
X5.7408Y-8.4524
X5.7413Y-9.75
X5.7453Y-8.6665
X5.7472Y-10.0287
X5.75Y-10.3181
X5.7516Y-8.1256
X5.7516Y-8.1598
X5.7547Y-9.1701
X5.7563Y-8.8728
X5.7563Y-8.9287
X5.7567Y-9.0055
X5.7598Y-8.3161
X5.7602Y-9.578
X5.7614Y-7.035
X5.765Y-10.1307
X5.7673Y-5.465
X5.7697Y-4.1819
X5.7748Y-10.0287
X5.7752Y-5.3063
X5.7756Y-8.8185
X5.7768Y-5.1827
X5.7768Y-5.5626
X5.7772Y-5.9114
X5.7799Y-9.1453
X5.7799Y-9.1949
X5.7819Y-10.1827
X5.7902Y-7.1224
X5.7906Y-9.5756
X5.7953Y-9.65
X5.7969Y-9.9185
X5.7976Y-3.9543
X5.7992Y-9.4043
X5.7994Y-6.2711
X5.8035Y-6.9937
X5.8043Y-8.7882
X5.8051Y-8.2713
X5.8051Y-9.1701
X5.8087Y-8.585
X5.8108Y-4.9878
X5.8114Y-9.822
X5.8122Y-8.5031
X5.8165Y-9.7492
X5.8248Y-10.063
X5.8248Y-10.1039
X5.8307Y-8.711
X5.835Y-9.3134
X5.8366Y-7.0772
X5.837Y-8.0323
X5.8374Y-4.3146
X5.8392Y-6.8551
X5.8402Y-8.2146
X5.8409Y-9.2799
X5.8421Y-6.0201
X5.8441Y-9.065
X5.8449Y-8.913
X5.8465Y-9.0083
X5.8465Y-9.1283
X5.8469Y-6.9524
X5.8472Y-4.4504
X5.85Y-5.1732
X5.85Y-9.1827
X5.85Y-9.3528
X5.8514Y-8.4535
X5.852Y-4.1996
X5.8551Y-8.7811
X5.8555Y-6.3461
X5.8565Y-4.8583
X5.8567Y-4.124
X5.8598Y-5.4059
X5.8618Y-8.8642
X5.8654Y-9.2177
X5.8661Y-10.063
X5.8661Y-10.1039
X5.8665Y-7.1626
X5.8673Y-7.885
X5.8681Y-9.5098
X5.8681Y-10.3173
X5.8689Y-9.5825
X5.8707Y-4.7925
X5.872Y-7.7091
X5.872Y-9.4264
X5.8728Y-3.9543
X5.8732Y-9.9161
X5.8791Y-7.0366
X5.8846Y-8.5906
X5.887Y-8.5028
X5.8909Y-6.2539
X5.8909Y-9.7492
X5.8933Y-9.6506
X5.8941Y-9.2764
X5.8953Y-6.9055
X5.8965Y-4.7457
X5.899Y-10.2465
X5.9008Y-8.7807
X5.9051Y-9.937
X5.9059Y-10.1772
X5.9069Y-5.6179
X5.9098Y-4.3594
X5.9106Y-9.8848
X5.9118Y-9.2031
X5.9161Y-4.0287
X5.9175Y-6.4152
X5.9201Y-8.0598
X5.9211Y-6.3246
X5.9213Y-8.7315
X5.9224Y-6.9933
X5.923Y-6.4949
X5.9234Y-5.7388
X5.9236Y-9.276
X5.925Y-6.6799
X5.9283Y-8.8614
X5.9307Y-9.3602
X5.9315Y-8.676
X5.9343Y-6.5874
X5.9358Y-9.4264
X5.9378Y-9.5098
X5.9441Y-6.8677
X5.9472Y-8.7807
X5.9539Y-8.589
X5.9547Y-3.9547
X5.9565Y-5.1756
X5.9567Y-7.7819
X5.9569Y-4.9917
X5.9579Y-4.1886
X5.9594Y-10.0626
X5.9618Y-4.6575
X5.9618Y-9.9843
X5.9622Y-8.5031
X5.963Y-4.7051
X5.9657Y-6.9492
X5.9657Y-9.8343
X5.9677Y-9.7488
X5.9701Y-9.6402
X5.9791Y-7.6776
X5.9839Y-9.435
X5.987Y-7.9098
X5.9882Y-9.5087
X5.9917Y-6.25
X5.9933Y-6.3287
X5.9937Y-4.1071
X5.9945Y-8.7819
X5.9949Y-9.3512
X5.9969Y-9.1382
X5.9988Y-9.0673
X5.9988Y-9.2094
X5.9996Y-8.8642
X5.9996Y-8.9319
X6.0004Y-9.0004
X6.0016Y-9.2933
X6.0022Y-6.4049
X6.0028Y-6.0701
X6.0035Y-4.2917
X6.0089Y-6.4844
X6.015Y-5.7913
X6.0185Y-6.8677
X6.0189Y-7.5764
X6.0205Y-4.222
X6.0223Y-6.5421
X6.0248Y-8.5949
X6.0256Y-6.9433
X6.026Y-8.7264
X6.0268Y-6.7346
X6.0268Y-8.3579
X6.0268Y-8.6831
X6.0272Y-8.5031
X6.0276Y-7.522
X6.0276Y-8.0248
X6.0276Y-8.4315
X6.028Y-8.2217
X6.028Y-8.2949
X6.0299Y-8.1445
X6.0303Y-6.6815
X6.0303Y-8.0843
X6.0346Y-9.75
X6.0374Y-4.4949
X6.0394Y-10.1138
X6.0406Y-9.639
X6.0409Y-8.7819
X6.0413Y-7.972
X6.0433Y-3.9535
X6.0441Y-10.2976
X6.0457Y-10.1988
X6.053Y-5.6441
X6.0575Y-7.7315
X6.0585Y-5.5264
X6.0587Y-8.6472
X6.0606Y-7.4335
X6.0632Y-9.5075
X6.065Y-7.8028
X6.0657Y-4.652
X6.0661Y-5.2992
X6.0665Y-9.4339
X6.0707Y-6.5862
X6.0717Y-7.0575
X6.0727Y-5.1705
X6.0728Y-8.8807
X6.0736Y-5.8039
X6.0736Y-8.9476
X6.0738Y-4.9691
X6.0738Y-5.2226
X6.0742Y-4.9073
X6.0742Y-5.0313
X6.0742Y-5.6797
X6.0742Y-5.0866
X6.0744Y-5.7421
X6.0746Y-5.3699
X6.0746Y-5.4321
X6.0746Y-5.6171
X6.0748Y-5.4969
X6.0748Y-9.1067
X6.0752Y-5.5732
X6.0756Y-9.026
X6.0783Y-6.0165
X6.0799Y-7.8849
X6.0819Y-9.213
X6.0819Y-9.328
X6.0823Y-9.2929
X6.0843Y-4.4051
X6.0846Y-6.7933
X6.0854Y-4.0244
X6.0874Y-6.7102
X6.0874Y-6.8677
X6.0886Y-4.3031
X6.089Y-10.0512
X6.0909Y-9.9764
X6.0925Y-9.7492
X6.0945Y-6.9437
X6.0953Y-10.1311
X6.0957Y-9.3543
X6.0961Y-10.2386
X6.0961Y-10.3291
X6.0965Y-10.1858
X6.0976Y-9.5874
X6.098Y-9.6445
X6.0984Y-9.8252
X6.0988Y-7.924
X6.0996Y-9.898
X6.1035Y-5.8492
X6.1071Y-9.5303
X6.1118Y-9.1181
X6.1118Y-9.178
X6.1118Y-9.2449
X6.1122Y-7.8514
X6.1134Y-4.3539
X6.1185Y-8.852
X6.1205Y-8.5768
X6.1213Y-8.0957
X6.1213Y-8.148
X6.1217Y-8.298
X6.1224Y-8.0232
X6.1232Y-8.5035
X6.124Y-4.1783
X6.1244Y-8.2276
X6.1244Y-8.3654
X6.1244Y-8.4291
X6.1299Y-3.9539
X6.1303Y-8.7303
X6.1303Y-8.8134
X6.1352Y-5.3309
X6.1366Y-4.1012
X6.138Y-4.9238
X6.1409Y-9.4752
X6.1437Y-9.4303
X6.1484Y-9.9811
X6.15Y-6.8677
X6.1539Y-9.2476
X6.1571Y-6.9437
X6.1571Y-9.1531
X6.1654Y-8.6346
X6.166Y-8.0197
X6.1681Y-5.6453
X6.1681Y-6.065
X6.1683Y-5.5175
X6.1683Y-5.7297
X6.1685Y-9.3531
X6.1687Y-5.4557
X6.1705Y-4.8902
X6.172Y-4.5768
X6.1744Y-5.987
X6.1744Y-7.8343
X6.175Y-5.847
X6.1752Y-8.4547
X6.1772Y-6.489
X6.1776Y-5.8933
X6.1785Y-4.9774
X6.1785Y-5.0396
X6.1791Y-10.1059
X6.1799Y-4.2402
X6.1815Y-6.7343
X6.1819Y-9.013
X6.1819Y-9.178
X6.1823Y-9.6008
X6.1827Y-9.6496
X6.1835Y-10.2362
X6.1835Y-10.3268
X6.1839Y-10.1835
X6.1866Y-9.7031
X6.1917Y-9.328
X6.1921Y-9.7783
X6.1937Y-9.4272
X6.1949Y-8.3228
X6.1961Y-6.2406
X6.1961Y-8.9807
X6.1972Y-8.2394
X6.1996Y-6.3063
X6.2008Y-4.0236
X6.2014Y-6.3699
X6.202Y-9.5579
X6.2057Y-4.9215
X6.2079Y-3.952
X6.2079Y-4.8272
X6.2146Y-6.9429
X6.2161Y-6.8657
X6.2169Y-8.8783
X6.2169Y-8.9181
X6.2169Y-8.9583
X6.2256Y-7.7047
X6.2256Y-9.9811
X6.2264Y-7.7547
X6.2264Y-10.1941
X6.2268Y-7.8165
X6.2268Y-9.2531
X6.2276Y-7.5197
X6.2276Y-7.6409
X6.228Y-7.578
X6.228Y-8.7433
X6.2285Y-5.4927
X6.2287Y-7.9673
X6.2289Y-5.5451
X6.2289Y-5.7573
X6.2291Y-8.778
X6.2295Y-8.0087
X6.2295Y-8.3898
X6.2299Y-8.8209
X6.2315Y-7.9146
X6.2335Y-10.1063
X6.2354Y-4.3244
X6.2354Y-8.713
X6.2358Y-7.4535
X6.2366Y-9.328
X6.2386Y-10.3102
X6.2388Y-4.8872
X6.2409Y-9.7035
X6.2413Y-4.4839
X6.2433Y-4.6508
X6.2435Y-5.6624
X6.2465Y-9.7787
X6.2467Y-8.0447
X6.2469Y-9.513
X6.251Y-5.9132
X6.252Y-4.1004
X6.252Y-5.9835
X6.252Y-9.228
X6.2565Y-5.5183
X6.2614Y-9.5579
X6.2622Y-9.3031
X6.2669Y-9.1484
X6.2715Y-5.7356
X6.2762Y-8.0561
X6.2791Y-6.8654
X6.2791Y-8.4776
X6.2809Y-4.9215
X6.2819Y-8.7232
X6.2831Y-3.952
X6.2831Y-6.9437
X6.2833Y-5.5427
X6.2841Y-5.4907
X6.2843Y-6.2197
X6.285Y-7.4031
X6.287Y-5.089
X6.2874Y-10.1047
X6.2894Y-4.3815
X6.2902Y-6.776
X6.2921Y-9.2165
X6.2925Y-5.1669
X6.2947Y-5.0354
X6.2949Y-9.702
X6.2965Y-5.6299
X6.2969Y-9.3681
X6.3004Y-9.7772
X6.3008Y-7.913
X6.3012Y-7.0535
X6.3035Y-7.5264
X6.3035Y-7.6476
X6.3039Y-7.5846
X6.3047Y-7.7047
X6.3047Y-7.8165
X6.3055Y-5.2866
X6.3055Y-5.8433
X6.3071Y-8.9181
X6.3083Y-6.6055
X6.3087Y-8.0449
X6.3093Y-7.9758
X6.3106Y-5.9902
X6.3118Y-9.4035
X6.3118Y-9.4429
X6.3118Y-9.548
X6.314Y-4.8872
X6.3169Y-8.8783
X6.3173Y-4.1232
X6.3181Y-5.6886
X6.3217Y-6.1079
X6.322Y-8.763
X6.3228Y-7.7642
X6.3264Y-8.9906
X6.3268Y-9.1681
X6.3268Y-9.278
X6.3268Y-9.3681
X6.3311Y-6.4705
X6.3319Y-8.9382
X6.3319Y-9.9835
X6.3327Y-7.3634
X6.3339Y-8.9075
X6.3358Y-6.865
X6.337Y-9.1429
X6.337Y-9.5232
X6.34Y-5.0862
X6.3417Y-5.1815
X6.3417Y-10.1051
X6.3433Y-5.8744
X6.3453Y-6.9429
X6.3459Y-5.7281
X6.3461Y-7.9142
X6.3469Y-8.7378
X6.3492Y-9.7024
X6.3512Y-7.9606
X6.3516Y-4.2087
X6.3533Y-4.9199
X6.3535Y-4.0311
X6.3535Y-7.4606
X6.3547Y-9.7776
X6.3555Y-8.0512
X6.3571Y-5.0035
X6.3589Y-10.1689
X6.3606Y-8.1445
X6.3618Y-6.0598
X6.363Y-7.7272
X6.365Y-3.9524
X6.3661Y-4.5839
X6.3669Y-10.3193
X6.3677Y-4.4236
X6.3693Y-5.6299
X6.3717Y-7.6563
X6.372Y-7.8142
X6.3726Y-6.7667
X6.3748Y-5.2295
X6.3756Y-4.4988
X6.3756Y-6.3843
X6.376Y-5.3398
X6.376Y-7.3201
X6.3768Y-9.5232
X6.3776Y-9.4142
X6.3815Y-4.2858
X6.3864Y-4.8856
X6.3874Y-7.1732
X6.3902Y-5.3925
X6.3909Y-8.4772
X6.3929Y-7.9142
X6.3963Y-4.8226
X6.3972Y-5.8772
X6.3972Y-8.8382
X6.3984Y-5.9894
X6.4016Y-10.1831
X6.402Y-9.5484
X6.402Y-10.1031
X6.4024Y-5.2689
X6.4039Y-7.4161
X6.4043Y-6.8654
X6.4094Y-9.7004
X6.4094Y-9.7768
X6.4108Y-10.328
X6.4114Y-6.1039
X6.4114Y-6.9413
X6.4114Y-8.9181
X6.4114Y-8.9783
X6.4114Y-9.0382
X6.4114Y-9.1583
X6.4118Y-8.948
X6.4118Y-9.0083
X6.4118Y-9.0681
X6.4118Y-9.098
X6.4118Y-9.1882
X6.4122Y-9.128
X6.4134Y-7.952
X6.415Y-8.5713
X6.4152Y-6.0553
X6.4154Y-8.4118
X6.4157Y-8.0689
X6.4165Y-7.2811
X6.4173Y-7.7295
X6.4246Y-4.9179
X6.4252Y-8.3303
X6.4285Y-4.9967
X6.4285Y-5.1963
X6.4291Y-7.5835
X6.4295Y-8.8335
X6.4303Y-6.2323
X6.4305Y-5.0951
X6.4331Y-7.9091
X6.4417Y-8.9181
X6.4417Y-8.9783
X6.4417Y-9.0382
X6.4417Y-9.1583
X6.4417Y-9.548
X6.4421Y-8.948
X6.4421Y-9.0083
X6.4421Y-9.0681
X6.4421Y-9.098
X6.4421Y-9.1882
X6.4425Y-9.128
X6.4439Y-6.6596
X6.4476Y-7.3724
X6.4484Y-8.1563
X6.4488Y-8.1079
X6.4512Y-6.4374
X6.4522Y-5.3931
X6.4535Y-3.9512
X6.4535Y-5.3303
X6.4543Y-10.0091
X6.4559Y-4.1201
X6.4559Y-7.7177
X6.4563Y-5.885
X6.4563Y-7.0524
X6.4563Y-10.1035
X6.4577Y-4.8837
X6.4587Y-4.6524
X6.461Y-5.9906
X6.4614Y-7.6394
X6.4618Y-8.4878
X6.4618Y-8.8331
X6.4626Y-7.2354
X6.4638Y-9.7008
X6.465Y-9.7913
X6.4654Y-10.3213
X6.4669Y-6.865
X6.4717Y-8.9181
X6.4717Y-8.9783
X6.4717Y-9.0382
X6.4717Y-9.1583
X6.4719Y-6.1663
X6.472Y-8.948
X6.472Y-9.0083
X6.472Y-9.0681
X6.472Y-9.098
X6.472Y-9.1882
X6.4724Y-9.128
X6.474Y-6.9409
X6.4746Y-6.0581
X6.4768Y-4.237
X6.4776Y-7.9102
X6.4803Y-9.8406
X6.4807Y-9.8953
X6.4811Y-9.965
X6.4819Y-9.6354
X6.4846Y-7.813
X6.4888Y-6.6222
X6.4917Y-8.8382
X6.4921Y-9.3732
X6.4923Y-4.9156
X6.4937Y-7.3268
X6.4949Y-6.7709
X6.4965Y-7.7185
X6.4972Y-8.0087
X6.4972Y-8.7831
X6.4984Y-8.1091
X6.4992Y-4.0311
X6.5012Y-8.9181
X6.5012Y-8.9783
X6.5012Y-9.0382
X6.5012Y-9.1583
X6.5016Y-8.948
X6.5016Y-9.0083
X6.5016Y-9.0681
X6.5016Y-9.098
X6.5016Y-9.1882
X6.502Y-9.128
X6.502Y-9.4933
X6.5035Y-7.1969
X6.5059Y-10.1232
X6.514Y-4.9581
X6.5144Y-5.1439
X6.5144Y-5.2057
X6.5144Y-5.2675
X6.5144Y-5.3305
X6.5144Y-5.3919
X6.5148Y-5.0821
X6.5157Y-8.2189
X6.5165Y-10.0638
X6.5167Y-10.3268
X6.5169Y-9.2634
X6.5169Y-9.3079
X6.5169Y-9.4382
X6.5197Y-4.3394
X6.5201Y-10.1835
X6.5224Y-6.4957
X6.5224Y-9.7386
X6.5242Y-5.6738
X6.5244Y-5.9894
X6.5246Y-5.7356
X6.5246Y-5.7978
X6.5246Y-5.86
X6.5246Y-6.0463
X6.5254Y-4.8813
X6.5264Y-6.3705
X6.5268Y-5.9059
X6.5268Y-6.8654
X6.5268Y-7.9106
X6.5315Y-6.9406
X6.5315Y-8.4055
X6.5315Y-8.9181
X6.5315Y-8.9783
X6.5315Y-9.0382
X6.5315Y-9.1583
X6.5319Y-8.948
X6.5319Y-9.0083
X6.5319Y-9.0681
X6.5319Y-9.098
X6.5319Y-9.1882
X6.5323Y-9.128
X6.5356Y-5.5868
X6.5362Y-7.2862
X6.5364Y-5.5344
X6.5402Y-3.9516
X6.5457Y-8.0087
X6.5459Y-6.2014
X6.5469Y-7.1535
X6.5469Y-7.813
X6.5469Y-8.8181
X6.5469Y-9.5732
X6.5472Y-4.4969
X6.5504Y-4.1079
X6.552Y-8.4902
X6.5555Y-8.1091
X6.5567Y-8.8429
X6.5579Y-9.7925
X6.5583Y-7.7189
X6.5587Y-5.0201
X6.5591Y-9.8587
X6.5594Y-9.9346
X6.5598Y-4.4047
X6.5598Y-10.0063
X6.5614Y-8.9181
X6.5614Y-8.9783
X6.5614Y-9.0382
X6.5614Y-9.1583
X6.5618Y-8.948
X6.5618Y-9.0083
X6.5618Y-9.0681
X6.5618Y-9.098
X6.5618Y-9.1882
X6.5622Y-9.128
X6.5636Y-5.5596
X6.5642Y-6.1083
X6.565Y-10.3244
X6.5669Y-8.7681
X6.5673Y-7.9106
X6.5675Y-4.9156
X6.5717Y-8.1575
X6.5717Y-10.161
X6.5752Y-6.3331
X6.5758Y-6.6388
X6.5795Y-7.2429
X6.5839Y-8.8185
X6.5846Y-4.1933
X6.589Y-10.0535
X6.5898Y-6.8622
X6.5906Y-7.1098
X6.5909Y-8.9181
X6.5909Y-8.9783
X6.5909Y-9.0382
X6.5909Y-9.1583
X6.5911Y-5.5844
X6.5913Y-8.948
X6.5913Y-9.0083
X6.5913Y-9.0681
X6.5913Y-9.098
X6.5913Y-9.1882
X6.5915Y-5.5325
X6.5917Y-4.8252
X6.5917Y-9.128
X6.5921Y-8.7933
X6.5939Y-6.2659
X6.598Y-7.7382
X6.5984Y-8.6433
X6.6Y-4.885
X6.6Y-6.9409
X6.6041Y-5.3179
X6.6041Y-5.3884
X6.6045Y-5.1435
X6.6045Y-5.2057
X6.6045Y-5.2675
X6.6047Y-4.9713
X6.6079Y-8.2154
X6.6112Y-8.0787
X6.613Y-4.0433
X6.613Y-6.048
X6.6134Y-7.4063
X6.6142Y-6.1579
X6.6163Y-5.7974
X6.6163Y-5.8596
X6.6167Y-5.6738
X6.6167Y-5.736
X6.6169Y-5.9035
X6.6169Y-5.9894
X6.6169Y-8.8429
X6.6197Y-7.3134
X6.6213Y-8.9181
X6.6213Y-8.9783
X6.6213Y-9.0382
X6.6213Y-9.1583
X6.6217Y-8.948
X6.6217Y-9.0083
X6.6217Y-9.0681
X6.6217Y-9.098
X6.6217Y-9.1882
X6.622Y-9.128
X6.622Y-9.3732
X6.6232Y-7.1992
X6.6232Y-8.7728
X6.6252Y-3.9488
X6.6295Y-4.2933
X6.6311Y-5.0622
X6.6327Y-7.9102
X6.6356Y-6.2663
X6.6382Y-7.072
X6.6417Y-8.8232
X6.6421Y-8.248
X6.6423Y-5.4258
X6.6425Y-10.3213
X6.6427Y-5.4762
X6.6431Y-6.8602
X6.6469Y-7.739
X6.647Y-5.9124
X6.6496Y-4.3945
X6.6512Y-8.9181
X6.6512Y-8.9783
X6.6512Y-9.0382
X6.6512Y-9.1583
X6.6516Y-8.948
X6.6516Y-9.0083
X6.6516Y-9.0681
X6.6516Y-9.098
X6.6516Y-9.1882
X6.652Y-9.128
X6.652Y-9.413
X6.6531Y-6.3654
X6.6533Y-4.7317
X6.6533Y-4.7911
X6.6533Y-4.8502
X6.6539Y-8.0811
X6.6555Y-6.2043
X6.6559Y-6.0878
X6.6569Y-4.9333
X6.6571Y-8.4811
X6.6618Y-9.7878
X6.6622Y-7.1469
X6.6626Y-6.9409
X6.6634Y-9.4736
X6.6634Y-9.5343
X6.6642Y-4.1201
X6.6642Y-6.6244
X6.6667Y-5.3683
X6.672Y-8.8232
X6.672Y-9.6035
X6.6791Y-7.7677
X6.6807Y-5.9823
X6.6811Y-8.9181
X6.6811Y-8.9783
X6.6811Y-9.0382
X6.6811Y-9.1583
X6.6815Y-8.948
X6.6815Y-9.0083
X6.6815Y-9.0681
X6.6815Y-9.098
X6.6815Y-9.1882
X6.6819Y-9.128
X6.6846Y-7.9106
X6.6862Y-8.0524
X6.6868Y-5.4337
X6.687Y-8.7933
X6.6898Y-8.3669
X6.6898Y-8.4157
X6.6913Y-7.2382
X6.6917Y-8.3205
X6.6943Y-6.8496
X6.6949Y-8.2791
X6.6953Y-8.6335
X6.6957Y-4.6083
X6.6957Y-5.2469
X6.6961Y-5.1224
X6.6961Y-5.1846
X6.6963Y-5.025
X6.6984Y-4.2055
X6.7012Y-7.4
X6.7012Y-7.4472
X6.7028Y-7.3528
X6.7047Y-6.2469
X6.7049Y-5.6459
X6.7069Y-5.7439
X6.7069Y-5.7888
X6.7075Y-7.7961
X6.7081Y-5.3368
X6.7091Y-6.1441
X6.7118Y-3.9492
X6.7118Y-7.4953
X6.7122Y-8.828
X6.7146Y-8.0236
X6.7169Y-9.228
X6.7185Y-7.072
X6.724Y-5.5374
X6.724Y-6.0752
X6.7264Y-9.6654
X6.7276Y-4.885
X6.728Y-6.0244
X6.7283Y-4.2827
X6.7295Y-7.1465
X6.7297Y-4.9329
X6.7362Y-7.9106
X6.7394Y-6.7969
X6.7402Y-8.5594
X6.7411Y-5.9159
X6.7412Y-8.2354
X6.7413Y-8.5087
X6.7417Y-9.8791
X6.7421Y-7.5244
X6.7421Y-8.1906
X6.7433Y-6.4075
X6.7433Y-6.487
X6.7433Y-7.572
X6.7433Y-8.4528
X6.7441Y-4.5055
X6.7441Y-5.4819
X6.7457Y-6.939
X6.7463Y-5.4159
X6.7472Y-7.3248
X6.7488Y-10.0039
X6.7496Y-4.6736
X6.752Y-9.5079
X6.7539Y-9.4567
X6.7563Y-5.0319
X6.7571Y-8.8882
X6.7591Y-9.0331
X6.7598Y-6.1685
X6.7618Y-9.1531
X6.7638Y-6.7551
X6.7657Y-6.5933
X6.7657Y-6.6484
X6.7687Y-5.9852
X6.7697Y-7.2508
X6.7701Y-7.2913
X6.775Y-6.2494
X6.776Y-6.9972
X6.7772Y-9.5331
X6.7774Y-4.7132
X6.7774Y-4.7719
X6.7776Y-4.3705
X6.7776Y-5.8831
X6.7787Y-8.576
X6.7793Y-6.3053
X6.7799Y-7.6051
X6.7805Y-4.8285
X6.7823Y-8.1657
X6.7825Y-4.8825
X6.7833Y-4.9404
X6.7835Y-7.0728
X6.7835Y-8.6362
X6.7854Y-6.8811
X6.7882Y-7.1469
X6.7882Y-7.2142
X6.7921Y-9.7067
X6.7929Y-9.5906
X6.7953Y-8.828
X6.7957Y-5.9252
X6.7976Y-5.2449
X6.798Y-5.1862
X6.7984Y-5.1244
X6.8071Y-9.413
X6.8083Y-6.7205
X6.8087Y-6.687
X6.8104Y-5.4622
X6.811Y-5.3843
X6.8114Y-6.1311
X6.8118Y-6.4075
X6.8118Y-6.487
X6.8122Y-8.8933
X6.8136Y-5.8823
X6.814Y-5.6656
X6.814Y-5.7242
X6.8142Y-4.337
X6.8142Y-5.3067
X6.8144Y-5.6061
X6.8144Y-5.7837
X6.8169Y-7.6315
X6.8201Y-8.1398
X6.827Y-4.9844
X6.827Y-6.2049
X6.8287Y-6.0756
X6.8287Y-8.5256
X6.8295Y-7.376
X6.8295Y-8.5713
X6.8299Y-7.4299
X6.8299Y-8.3402
X6.8299Y-8.4079
X6.8305Y-4.7419
X6.8317Y-10.324
X6.8329Y-10.0583
X6.8366Y-9.7913
X6.8366Y-9.9972
X6.8382Y-8.6323
X6.8415Y-6.7203
X6.8417Y-10.1614
X6.8419Y-6.6868
X6.8421Y-10.2331
X6.847Y-5.5167
X6.847Y-5.6352
X6.847Y-5.8124
X6.847Y-5.9305
X6.847Y-5.9892
X6.8474Y-5.5758
X6.8474Y-5.7533
X6.8478Y-5.1711
X6.8478Y-5.2301
X6.8478Y-5.2892
X6.8478Y-5.3478
X6.8482Y-5.4536
X6.8488Y-8.0654
X6.8494Y-5.3988
X6.85Y-5.6772
X6.8522Y-5.8914
X6.8524Y-5.1157
X6.8569Y-4.5526
X6.8573Y-4.4258
X6.8573Y-4.4907
X6.8573Y-4.6148
X6.8575Y-4.6831
X6.8606Y-4.0669
X6.861Y-3.9378
X6.8614Y-4.0031
X6.8618Y-9.613
X6.8638Y-4.137
X6.8654Y-4.8425
X6.8657Y-4.2004
X6.8657Y-9.7657
X6.8661Y-9.7079
X6.8665Y-4.265
X6.8669Y-6.037
X6.8689Y-4.8953
X6.8695Y-6.2486
X6.8701Y-9.8346
X6.8705Y-6.3492
X6.8705Y-7.2134
X6.8713Y-9.9008
X6.8717Y-9.9768
X6.8722Y-6.3057
X6.8728Y-7.6638
X6.8728Y-8.1118
X6.874Y-6.5929
X6.8744Y-10.1161
X6.8744Y-10.3276
X6.8748Y-10.1921
X6.8764Y-6.7858
X6.8768Y-9.5331
X6.8772Y-9.4331
X6.8774Y-10.2488
X6.8778Y-5.0305
X6.8783Y-8.9906
X6.879Y-10.0335
X6.8795Y-6.1547
X6.8811Y-7.1469
X6.8839Y-6.8606
X6.8843Y-7.0736
X6.885Y-6.6461
X6.886Y-4.9447
X6.8902Y-6.9965
X6.8913Y-5.6016
X6.8913Y-7.25
X6.8941Y-8.8028
X6.8969Y-4.7945
X6.8969Y-9.1929
X6.8972Y-9.163
X6.898Y-7.2894
X6.8988Y-4.3886
X6.8994Y-4.5864
X6.8998Y-5.5443
X6.9012Y-7.8114
X6.9018Y-4.2951
X6.9022Y-4.1683
X6.9022Y-4.2333
X6.9024Y-4.648
X6.903Y-4.7199
X6.9031Y-3.9772
X6.9033Y-4.0372
X6.9033Y-4.1022
X6.9045Y-4.4533
X6.9045Y-4.527
X6.9055Y-7.8437
X6.9069Y-5.323
X6.9087Y-7.3276
X6.91Y-8.7012
X6.9169Y-6.4984
X6.9173Y-6.4465
X6.9185Y-6.0366
X6.9185Y-6.4004
X6.9189Y-6.9354
X6.9213Y-4.8512
X6.9236Y-6.7039
X6.9252Y-7.8713
X6.9252Y-7.9264
X6.9268Y-9.3878
X6.9276Y-5.228
X6.9277Y-8.5937
X6.928Y-8.4465
X6.928Y-8.4953
X6.928Y-8.5445
X6.9319Y-6.1272
X6.9319Y-9.0681
X6.9319Y-9.228
X6.9323Y-5.0268
X6.9341Y-5.1752
X6.9352Y-5.4274
X6.9352Y-5.601
X6.9358Y-6.7858
X6.937Y-6.1579
X6.9398Y-8.7307
X6.9421Y-6.248
X6.9449Y-7.8437
X6.9449Y-7.8988
X6.9469Y-8.8028
X6.9474Y-4.7624
X6.952Y-9.6083
X6.9539Y-7.1476
X6.9541Y-5.823
X6.9563Y-7.0744
X6.9573Y-5.7648
X6.965Y-7.8713
X6.965Y-7.9264
X6.9652Y-4.9443
X6.9656Y-5.7069
X6.9657Y-4.8878
X6.9661Y-6.8724
X6.9673Y-8.1677
X6.9677Y-8.2177
X6.9677Y-8.3173
X6.9681Y-8.2673
X6.9681Y-8.3646
X6.9683Y-10.2476
X6.9685Y-7.5567
X6.9685Y-7.6067
X6.9689Y-7.3567
X6.9689Y-7.5067
X6.9689Y-8.4173
X6.9693Y-7.4063
X6.9693Y-7.4567
X6.9707Y-10.0339
X6.9713Y-10.3248
X6.9717Y-9.9008
X6.9717Y-9.9744
X6.9717Y-10.113
X6.9717Y-10.1866
X6.972Y-9.835
X6.9732Y-8.6331
X6.9736Y-9.7673
X6.974Y-9.7028
X6.9758Y-5.3033
X6.9764Y-5.5429
X6.9783Y-6.3028
X6.9815Y-5.1559
X6.9823Y-5.4138
X6.9835Y-6.0945
X6.9843Y-7.8437
X6.9843Y-7.8988
X6.9864Y-4.4636
X6.9878Y-5.6606
X6.9884Y-5.4762
X6.9915Y-4.0557
X6.9919Y-3.9967
X6.9919Y-9.161
X6.9923Y-3.936
X6.9923Y-4.7207
X6.9929Y-4.6626
X6.9951Y-4.2856
X6.9953Y-4.3685
X6.9955Y-4.2309
X6.9957Y-5.0539
X6.9959Y-4.1719
X6.9961Y-9.3244
X6.9961Y-9.4154
X6.9976Y-10.1598
X6.9988Y-4.6138
X6.9992Y-4.1102
X7.Y-10.2276
X7.0039Y-7.8713
X7.0043Y-7.9264
X7.0063Y-10.0154
X7.0079Y-8.6709
X7.0083Y-6.7906
X7.0094Y-7.0331
X7.0096Y-6.212
X7.0102Y-8.9039
X7.0106Y-8.9579
X7.0112Y-5.3431
X7.0118Y-8.8185
X7.013Y-7.2307
X7.013Y-7.3114
X7.0142Y-7.1902
X7.0146Y-7.1476
X7.0146Y-9.6106
X7.0146Y-9.8055
X7.015Y-5.6091
X7.015Y-7.274
X7.0156Y-10.0457
X7.0169Y-9.8705
X7.0169Y-9.9398
X7.0185Y-4.8035
X7.0197Y-4.7138
X7.0197Y-7.8437
X7.0205Y-4.6417
X7.0209Y-6.9264
X7.0209Y-7.0035
X7.0209Y-7.0657
X7.0228Y-8.4461
X7.024Y-7.8988
X7.0266Y-10.3268
X7.0297Y-5.0831
X7.0305Y-6.0671
X7.0352Y-4.0809
X7.0356Y-4.0262
X7.036Y-3.9671
X7.0378Y-4.4287
X7.0388Y-5.5419
X7.0392Y-4.2561
X7.0396Y-4.2014
X7.04Y-4.1423
X7.0441Y-9.7047
X7.0445Y-8.5323
X7.0447Y-5.3427
X7.0447Y-5.953
X7.0451Y-5.8344
X7.0451Y-5.8935
X7.0451Y-6.012
X7.0451Y-5.763
X7.0457Y-8.4957
X7.0459Y-4.9742
X7.0476Y-7.9264
X7.048Y-8.6441
X7.0484Y-7.9642
X7.0531Y-6.8319
X7.0551Y-5.6031
X7.0563Y-4.5937
X7.0567Y-5.6531
X7.0569Y-6.1636
X7.0571Y-4.5055
X7.0575Y-4.876
X7.0579Y-5.7138
X7.0587Y-5.2835
X7.0594Y-5.1689
X7.0602Y-5.2228
X7.0606Y-4.3091
X7.062Y-5.4793
X7.0632Y-5.4033
X7.0642Y-8.5752
X7.0654Y-8.1094
X7.0685Y-7.6657
X7.0701Y-9.9587
X7.0732Y-4.3898
X7.0752Y-10.1205
X7.0835Y-9.6079
X7.0839Y-8.7358
X7.0839Y-8.8866
X7.0846Y-9.3335
X7.0904Y-5.0242
X7.0921Y-7.0031
X7.0921Y-7.0665
X7.0939Y-5.5301
X7.0941Y-4.8035
X7.0947Y-5.5593
X7.0949Y-9.7043
X7.0961Y-6.8783
X7.0969Y-6.9472
X7.0976Y-6.7449
X7.0976Y-7.1465
X7.1016Y-4.2272
X7.1022Y-6.1187
X7.1039Y-7.0346
X7.1055Y-7.4303
X7.1055Y-8.3437
X7.1055Y-8.411
X7.1063Y-7.2417
X7.1063Y-7.3685
X7.1063Y-8.528
X7.1067Y-7.2004
X7.1083Y-8.589
X7.1142Y-6.2447
X7.1173Y-7.6311
X7.1215Y-4.7199
X7.1217Y-4.4335
X7.1228Y-4.5055
X7.1228Y-4.5059
X7.123Y-5.5293
X7.1238Y-5.5589
X7.1248Y-4.5854
X7.1252Y-9.0079
X7.1264Y-9.5516
X7.1268Y-9.4122
X7.1268Y-9.4984
X7.1283Y-9.2654
X7.1285Y-9.0697
X7.1299Y-9.2008
X7.1307Y-8.1402
X7.1307Y-9.1386
X7.1312Y-8.7807
X7.1331Y-9.3409
X7.1382Y-10.1648
X7.1396Y-5.0756
X7.1402Y-10.2384
X7.1406Y-7.6587
X7.1439Y-4.8762
X7.1439Y-4.9278
X7.1441Y-5.2256
X7.1441Y-5.2803
X7.1443Y-10.3268
X7.1449Y-5.1657
X7.1494Y-4.988
X7.1506Y-5.7618
X7.1526Y-5.3427
X7.153Y-5.0474
X7.153Y-5.4018
X7.153Y-5.6573
X7.153Y-5.7163
X7.153Y-5.8348
X7.153Y-5.8935
X7.153Y-5.953
X7.1533Y-5.4608
X7.1533Y-6.012
X7.1533Y-6.0707
X7.1559Y-7.6039
X7.1567Y-7.2004
X7.1575Y-4.1614
X7.165Y-4.2551
X7.1689Y-4.802
X7.1689Y-8.1661
X7.1732Y-3.9469
X7.1742Y-4.3624
X7.1752Y-4.6689
X7.1764Y-7.6449
X7.1766Y-5.8705
X7.1772Y-8.828
X7.1803Y-9.6409
X7.1848Y-5.5864
X7.185Y-4.0283
X7.1854Y-4.4512
X7.1862Y-5.5406
X7.1866Y-8.761
X7.1904Y-5.4876
X7.1913Y-7.0752
X7.1917Y-6.8764
X7.1921Y-6.0465
X7.1923Y-5.7622
X7.1929Y-8.1972
X7.1933Y-7.1488
X7.1933Y-8.4472
X7.1935Y-10.3248
X7.1937Y-8.2445
X7.1945Y-5.9827
X7.1965Y-6.1457
X7.1965Y-7.5768
X7.1967Y-4.7199
X7.1972Y-7.528
X7.1996Y-7.2028
X7.2Y-7.3268
X7.2002Y-5.0407
X7.2008Y-7.2437
X7.2008Y-7.2878
X7.2051Y-4.5504
X7.2059Y-6.2439
X7.2083Y-7.8949
X7.2091Y-8.5614
X7.2138Y-9.5929
X7.2177Y-9.2024
X7.2179Y-9.0677
X7.2183Y-5.3687
X7.2185Y-9.1402
X7.2185Y-9.5016
X7.2189Y-9.2657
X7.2193Y-9.0067
X7.2193Y-9.547
X7.2197Y-8.5075
X7.2201Y-8.8795
X7.2209Y-9.3425
X7.2213Y-8.6193
X7.2222Y-5.1707
X7.2224Y-9.4142
X7.224Y-4.3024
X7.2244Y-8.6783
X7.2252Y-8.2776
X7.2268Y-4.898
X7.2268Y-8.2268
X7.2311Y-4.6972
X7.2327Y-7.4898
X7.2348Y-4.8002
X7.2358Y-7.4031
X7.2358Y-7.4437
X7.2358Y-8.0094
X7.239Y-7.3579
X7.239Y-7.7791
X7.2398Y-8.3169
X7.2398Y-8.3638
X7.2417Y-8.4146
X7.2439Y-5.0841
X7.2445Y-4.2031
X7.2467Y-5.7
X7.2494Y-5.2726
X7.2528Y-7.626
X7.2533Y-5.5124
X7.2559Y-8.0772
X7.2571Y-8.2575
X7.2598Y-3.9472
X7.2616Y-5.6081
X7.2642Y-8.0378
X7.2654Y-4.1378
X7.2669Y-4.4067
X7.2673Y-4.0488
X7.2677Y-7.7508
X7.2685Y-7.8949
X7.2691Y-4.7183
X7.2693Y-4.489
X7.2695Y-4.9593
X7.2738Y-5.4388
X7.2772Y-7.2248
X7.2774Y-4.8325
X7.2782Y-5.8626
X7.2799Y-6.8083
X7.2799Y-6.878
X7.2799Y-6.9433
X7.2799Y-7.0146
X7.2799Y-7.1492
X7.2803Y-7.0748
X7.2815Y-6.6535
X7.2815Y-6.7311
X7.2827Y-6.1575
X7.2827Y-6.2209
X7.2827Y-6.298
X7.2827Y-6.3685
X7.2839Y-6.5929
X7.2843Y-6.4339
X7.2843Y-6.4976
X7.2846Y-6.552
X7.2846Y-8.7638
X7.285Y-7.7012
X7.2866Y-8.2929
X7.2876Y-5.1309
X7.2876Y-6.0459
X7.2878Y-8.1055
X7.2886Y-8.3319
X7.2894Y-8.3689
X7.2898Y-4.2799
X7.2921Y-8.472
X7.2925Y-8.4193
X7.2929Y-8.5224
X7.2941Y-7.3063
X7.2953Y-8.5713
X7.2961Y-8.0665
X7.2972Y-7.7252
X7.2984Y-8.6177
X7.2996Y-10.3142
X7.3008Y-8.6626
X7.3028Y-8.8094
X7.3028Y-9.9173
X7.308Y-9.0642
X7.3093Y-5.7358
X7.3128Y-5.527
X7.3132Y-5.0061
X7.3138Y-8.7071
X7.3142Y-4.737
X7.3142Y-8.1339
X7.3157Y-10.0012
X7.3169Y-7.4657
X7.3219Y-4.7915
X7.3268Y-7.8949
X7.3276Y-7.5776
X7.3295Y-4.6921
X7.3305Y-5.6085
X7.3305Y-5.7065
X7.3319Y-4.5374
X7.3331Y-8.4846
X7.3337Y-5.9978
X7.34Y-4.9502
X7.3402Y-5.187
X7.3404Y-4.8911
X7.3406Y-6.1106
X7.3407Y-5.3061
X7.3411Y-5.3652
X7.3415Y-5.247
X7.3415Y-5.4242
X7.3429Y-8.163
X7.3437Y-4.4063
X7.3445Y-7.7236
X7.3449Y-7.363
X7.3453Y-8.0673
X7.3461Y-3.9469
X7.3461Y-4.4886
X7.3494Y-5.7923
X7.3494Y-5.8514
X7.3494Y-5.91
X7.3516Y-9.0193
X7.3516Y-9.7992
X7.352Y-7.5197
X7.3555Y-8.8583
X7.3575Y-6.5957
X7.3583Y-6.485
X7.3587Y-6.5472
X7.3587Y-6.8047
X7.3587Y-6.8748
X7.3587Y-6.9398
X7.3587Y-7.0157
X7.3591Y-4.1094
X7.3591Y-10.3266
X7.3594Y-6.6614
X7.3594Y-6.7291
X7.3598Y-7.0748
X7.3602Y-6.4043
X7.361Y-6.3417
X7.361Y-9.6933
X7.3614Y-6.2756
X7.3634Y-7.1496
X7.3661Y-7.2209
X7.3662Y-6.2065
X7.3665Y-4.0094
X7.3665Y-5.0602
X7.3744Y-9.4526
X7.378Y-7.8953
X7.3799Y-4.2154
X7.3801Y-5.5026
X7.3807Y-4.528
X7.3807Y-5.6331
X7.3817Y-5.5659
X7.3823Y-7.5756
X7.3848Y-5.2998
X7.3854Y-7.2736
X7.3854Y-8.2008
X7.3886Y-7.7
X7.3886Y-8.4846
X7.3909Y-5.6925
X7.3911Y-5.8785
X7.3915Y-5.76
X7.3919Y-5.8195
X7.3921Y-4.411
X7.3927Y-9.0622
X7.3927Y-6.06
X7.3931Y-5.9415
X7.3935Y-6.001
X7.3937Y-7.4083
X7.3953Y-8.6232
X7.3965Y-8.5598
X7.3976Y-4.3224
X7.3984Y-8.1335
X7.3988Y-8.0858
X7.3992Y-8.6689
X7.4006Y-5.4439
X7.4016Y-9.1705
X7.4053Y-5.24
X7.4055Y-7.9929
X7.4079Y-7.7976
X7.4094Y-5.1114
X7.4134Y-8.2335
X7.415Y-6.263
X7.4185Y-8.8067
X7.4189Y-4.5665
X7.4197Y-6.1538
X7.4217Y-10.05
X7.4242Y-4.8325
X7.428Y-7.8949
X7.4291Y-4.6756
X7.4303Y-7.3169
X7.4303Y-8.7
X7.4315Y-4.6142
X7.4327Y-3.9472
X7.4335Y-4.935
X7.4339Y-7.1441
X7.4382Y-4.1378
X7.4386Y-7.078
X7.4394Y-4.7197
X7.4394Y-7.4575
X7.4445Y-4.0287
X7.4453Y-7.7
X7.4478Y-5.3919
X7.448Y-8.4846
X7.4504Y-8.6224
X7.4512Y-5.0587
X7.4516Y-4.8114
X7.4528Y-8.298
X7.4533Y-9.9364
X7.4539Y-8.4075
X7.4543Y-8.3567
X7.4583Y-8.0846
X7.4587Y-7.798
X7.4591Y-7.9929
X7.4598Y-6.6146
X7.4638Y-7.5465
X7.4654Y-5.0984
X7.4661Y-5.161
X7.4661Y-6.6717
X7.4661Y-7.2795
X7.4669Y-6.7992
X7.4669Y-6.8689
X7.4669Y-6.9343
X7.4669Y-6.9972
X7.4669Y-7.0528
X7.4693Y-7.1563
X7.4732Y-7.3602
X7.4764Y-6.1028
X7.478Y-8.7055
X7.4799Y-7.8949
X7.4807Y-7.4988
X7.4815Y-5.5583
X7.4824Y-9.0606
X7.4833Y-5.6128
X7.4839Y-5.7906
X7.4848Y-6.0344
X7.485Y-5.7307
X7.4852Y-5.6719
X7.4878Y-5.8453
X7.4886Y-5.9043
X7.4888Y-5.964
X7.4909Y-8.5402
X7.4913Y-4.5941
X7.4917Y-4.5051
X7.4953Y-8.4807
X7.4961Y-7.7008
X7.4969Y-6.7508
X7.4984Y-8.5846
X7.5006Y-5.212
X7.501Y-5.2707
X7.5014Y-5.3301
X7.5051Y-7.1445
X7.5067Y-4.2551
X7.5106Y-8.8563
X7.5118Y-8.952
X7.5138Y-4.7201
X7.515Y-3.9469
X7.5177Y-7.6437
X7.5177Y-10.2285
X7.5189Y-7.1134
X7.5209Y-7.4079
X7.5213Y-8.3748
X7.522Y-4.8118
X7.5242Y-5.4423
X7.5268Y-4.0283
X7.5295Y-7.5469
X7.5299Y-8.087
X7.535Y-4.1031
X7.5374Y-7.9067
X7.5378Y-6.702
X7.5382Y-8.4835
X7.5386Y-7.7386
X7.5425Y-6.939
X7.5433Y-6.8067
X7.5433Y-6.8693
X7.5445Y-9.689
X7.5447Y-9.6447
X7.5447Y-9.7337
X7.5449Y-7.061
X7.5457Y-7.0071
X7.5461Y-6.3146
X7.5465Y-4.1969
X7.5472Y-7.8496
X7.5484Y-8.0453
X7.551Y-5.0049
X7.5516Y-8.2169
X7.5591Y-7.2906
X7.5594Y-8.5465
X7.5642Y-7.4512
X7.5657Y-4.5945
X7.5669Y-4.5055
X7.5671Y-5.214
X7.5705Y-8.7992
X7.5764Y-8.1339
X7.578Y-7.5921
X7.5787Y-6.6665
X7.5811Y-8.9941
X7.5815Y-6.2807
X7.5815Y-8.7055
X7.5827Y-5.2685
X7.5839Y-7.9024
X7.5844Y-5.553
X7.586Y-5.4396
X7.5874Y-8.6043
X7.589Y-7.7398
X7.5898Y-7.8598
X7.5898Y-9.6894
X7.59Y-9.6451
X7.59Y-9.7341
X7.5906Y-8.0823
X7.5911Y-5.1541
X7.5915Y-5.09
X7.5933Y-4.2555
X7.5937Y-9.3524
X7.5945Y-9.2823
X7.5957Y-6.7591
X7.5967Y-9.9337
X7.5984Y-8.0386
X7.6008Y-9.4732
X7.6016Y-3.9472
X7.6043Y-7.2707
X7.6059Y-8.6709
X7.6071Y-4.1378
X7.6102Y-7.3862
X7.6134Y-4.0287
X7.6138Y-7.9476
X7.6142Y-7.5008
X7.6177Y-4.6701
X7.6197Y-4.8453
X7.6224Y-6.865
X7.6236Y-6.7972
X7.624Y-7.6413
X7.6256Y-6.6197
X7.6329Y-9.6459
X7.6329Y-9.7348
X7.6331Y-8.1799
X7.6331Y-9.6898
X7.6335Y-8.0728
X7.6343Y-10.1122
X7.6354Y-4.5945
X7.6362Y-4.5067
X7.637Y-7.9012
X7.6409Y-8.4823
X7.6445Y-7.0343
X7.6449Y-7.8524
X7.6461Y-6.2866
X7.65Y-8.0402
X7.6508Y-6.4827
X7.6531Y-5.5606
X7.6563Y-7.4886
X7.6579Y-7.4433
X7.6583Y-6.6965
X7.6587Y-7.3008
X7.6587Y-7.3406
X7.6626Y-7.1606
X7.6626Y-7.1909
X7.6634Y-8.6705
X7.6638Y-7.5465
X7.6644Y-6.9096
X7.6646Y-7.6874
X7.665Y-7.7366
X7.6677Y-9.0244
X7.6681Y-8.8807
X7.6693Y-4.3547
X7.6697Y-6.576
X7.672Y-4.1772
X7.6787Y-7.8547
X7.6827Y-7.9457
X7.6827Y-8.2815
X7.6843Y-8.152
X7.6846Y-4.9984
X7.6866Y-8.9504
X7.6882Y-7.9004
X7.6888Y-4.9297
X7.6898Y-4.4484
X7.6906Y-4.7083
X7.6976Y-8.215
X7.7016Y-8.5457
X7.7035Y-9.4354
X7.7094Y-7.5953
X7.7122Y-4.5941
X7.713Y-4.5059
X7.713Y-4.5063
X7.7154Y-10.2102
X7.7161Y-6.5303
X7.7224Y-5.4937
X7.7232Y-6.6346
X7.7256Y-5.5461
X7.7283Y-5.6843
X7.7287Y-5.7461
X7.7291Y-5.6244
X7.7307Y-7.3543
X7.7311Y-7.4854
X7.7315Y-8.7874
X7.7319Y-7.1909
X7.7319Y-7.3976
X7.7319Y-7.4417
X7.7319Y-7.537
X7.7319Y-8.624
X7.7323Y-8.7311
X7.7331Y-8.4512
X7.7333Y-5.364
X7.7335Y-8.8807
X7.7337Y-5.2455
X7.7337Y-5.423
X7.7341Y-4.7163
X7.7341Y-5.1907
X7.7341Y-5.3049
X7.7344Y-4.6573
X7.7344Y-5.0085
X7.7344Y-5.1317
X7.7348Y-4.89
X7.7348Y-5.0675
X7.7352Y-4.8352
X7.7352Y-4.9494
X7.7356Y-4.7762
X7.7372Y-4.1801
X7.7386Y-10.3278
X7.739Y-4.1354
X7.7392Y-4.0841
X7.7402Y-3.9878
X7.7402Y-4.2496
X7.7402Y-7.8134
X7.7404Y-3.9364
X7.7409Y-4.0394
X7.7415Y-4.4085
X7.7433Y-4.3638
X7.7437Y-7.0496
X7.7445Y-7.5848
X7.7447Y-4.3037
X7.7496Y-9.8457
X7.7504Y-4.4642
X7.752Y-6.9335
X7.7539Y-5.9209
X7.7539Y-8.1358
X7.7547Y-7.9169
X7.7583Y-6.4898
X7.7598Y-7.2642
X7.7618Y-8.3748
X7.7673Y-7.6496
X7.7758Y-6.576
X7.7774Y-5.3344
X7.7778Y-5.2159
X7.7778Y-5.3935
X7.7781Y-4.6868
X7.7781Y-5.1612
X7.7781Y-5.2754
X7.7785Y-4.6278
X7.7785Y-4.9789
X7.7785Y-5.1022
X7.7789Y-4.8604
X7.7789Y-5.038
X7.7791Y-4.2118
X7.7791Y-8.202
X7.7793Y-4.8057
X7.7793Y-4.9199
X7.7795Y-4.0142
X7.7797Y-4.7467
X7.7803Y-4.1571
X7.7807Y-6.4256
X7.7811Y-4.1157
X7.7811Y-5.5177
X7.7815Y-4.2713
X7.7817Y-5.723
X7.7823Y-3.9681
X7.7823Y-4.061
X7.7823Y-5.5764
X7.7823Y-5.6634
X7.7835Y-4.4402
X7.7835Y-6.3311
X7.7843Y-5.4504
X7.7846Y-4.3854
X7.7851Y-8.8234
X7.7854Y-6.1705
X7.7862Y-7.7846
X7.7866Y-4.3354
X7.7874Y-6.2626
X7.789Y-5.8815
X7.7894Y-5.8291
X7.7898Y-7.8803
X7.7906Y-4.5913
X7.7913Y-4.5031
X7.7913Y-7.7071
X7.7961Y-8.7801
X7.7992Y-7.9884
X7.8Y-8.7289
X7.8016Y-7.1902
X7.8016Y-7.387
X7.8016Y-7.5839
X7.8024Y-9.4039
X7.8031Y-7.0587
X7.8032Y-9.6089
X7.8055Y-9.9506
X7.8059Y-9.1085
X7.8146Y-7.8094
X7.8154Y-7.2531
X7.8256Y-5.6252
X7.8266Y-5.6923
X7.8266Y-5.753
X7.8266Y-6.8978
X7.8272Y-7.4783
X7.8303Y-10.2134
X7.835Y-7.6705
X7.8398Y-7.1293
X7.8417Y-6.0646
X7.8431Y-6.5118
X7.8449Y-5.9886
X7.8465Y-8.1297
X7.8467Y-9.7923
X7.8492Y-8.3835
X7.8492Y-8.4567
X7.8492Y-8.5209
X7.8492Y-8.5953
X7.8492Y-8.6709
X7.8504Y-8.2354
X7.8508Y-8.3087
X7.8508Y-10.3285
X7.8561Y-8.1687
X7.8612Y-6.7242
X7.8626Y-10.0222
X7.8642Y-5.8217
X7.8646Y-5.8827
X7.8661Y-6.3874
X7.8673Y-6.4441
X7.8709Y-5.6634
X7.8715Y-5.7222
X7.8744Y-6.5547
X7.8746Y-4.6797
X7.8748Y-9.5616
X7.875Y-4.5612
X7.875Y-4.7388
X7.8754Y-4.5065
X7.8754Y-4.6207
X7.8754Y-5.2285
X7.8758Y-4.1041
X7.8758Y-4.4474
X7.8762Y-4.0494
X7.8762Y-4.3372
X7.8762Y-4.39
X7.8766Y-3.9364
X7.8766Y-3.9904
X7.8766Y-5.0447
X7.8768Y-5.5815
X7.877Y-4.9262
X7.877Y-5.1037
X7.877Y-5.4108
X7.8774Y-4.8715
X7.8774Y-4.9856
X7.8774Y-5.1628
X7.8774Y-5.3561
X7.8774Y-5.5285
X7.8778Y-4.8124
X7.8778Y-5.297
X7.8781Y-4.2797
X7.8781Y-5.4695
X7.8785Y-4.225
X7.8787Y-6.3209
X7.8789Y-4.1659
X7.8795Y-6.1728
X7.8803Y-6.2528
X7.8831Y-8.897
X7.8902Y-7.2638
X7.9Y-6.6697
X7.9037Y-6.9116
X7.9091Y-9.0579
X7.9102Y-5.9894
X7.9126Y-6.0654
X7.9136Y-9.7919
X7.9138Y-7.8356
X7.9158Y-8.0219
X7.9187Y-4.6502
X7.9191Y-4.5317
X7.9191Y-4.7093
X7.9195Y-4.477
X7.9195Y-4.5911
X7.9195Y-5.199
X7.9197Y-5.6717
X7.9199Y-4.0746
X7.9199Y-4.3652
X7.9199Y-4.4179
X7.9203Y-4.0199
X7.9205Y-5.6126
X7.9207Y-3.9608
X7.9207Y-5.0152
X7.9209Y-5.2701
X7.9211Y-4.8967
X7.9211Y-5.0742
X7.9211Y-5.3813
X7.9211Y-8.54
X7.9213Y-5.7346
X7.9215Y-4.8419
X7.9215Y-4.9561
X7.9215Y-5.1333
X7.9215Y-5.3266
X7.9219Y-4.7829
X7.9222Y-4.2502
X7.9226Y-4.1955
X7.9226Y-4.3096
X7.923Y-4.1364
X7.923Y-6.7935
X7.924Y-5.4937
X7.9244Y-10.3173
X7.9248Y-5.4346
X7.9256Y-5.5567
X7.9266Y-6.5417
X7.9358Y-7.0193
X7.9478Y-6.8821
X7.9492Y-7.7933
X7.9524Y-6.3559
X7.9535Y-7.3815
X7.9551Y-7.5118
X7.9551Y-10.1191
X7.9559Y-5.7701
X7.9559Y-7.676
X7.9634Y-4.365
X7.9634Y-8.7634
X7.9657Y-9.322
X7.9669Y-5.2339
X7.9681Y-8.3697
X7.9789Y-5.0057
X7.9815Y-5.3665
X7.9815Y-8.5063
X7.9831Y-5.0996
X7.9831Y-5.8571
X7.9839Y-5.6047
X7.9846Y-7.1941
X7.987Y-6.1354
X7.9882Y-4.2425
X7.9884Y-4.6813
X7.9906Y-4.1469
X7.9909Y-10.2366
X7.9921Y-7.0768
X7.9947Y-4.9112
X7.9996Y-5.7043
X7.9996Y-5.8094
X8.0075Y-5.5051
X8.0098Y-4.7433
X8.0104Y-4.5746
X8.0122Y-8.6465
X8.0126Y-6.8252
X8.0171Y-6.2173
X8.0236Y-8.9219
X8.026Y-5.9992
X8.0262Y-4.4801
X8.0262Y-5.4195
X8.0266Y-5.301
X8.0274Y-5.1872
X8.0281Y-5.0341
X8.0291Y-7.4406
X8.0321Y-6.0715
X8.0337Y-5.9467
X8.0339Y-10.0846
X8.0425Y-10.3165
X8.0437Y-9.5634
X8.0463Y-8.1423
X8.0474Y-8.2018
X8.0476Y-9.1193
X8.0482Y-8.7022
X8.0486Y-6.9057
X8.0486Y-8.5781
X8.0496Y-4.8031
X8.0496Y-9.2114
X8.0496Y-10.1921
X8.0502Y-6.7809
X8.0512Y-8.337
X8.0516Y-7.0736
X8.052Y-7.2472
X8.052Y-8.4417
X8.052Y-9.3091
X8.0528Y-9.7439
X8.0543Y-7.5803
X8.0555Y-8.838
X8.0559Y-8.9778
X8.0559Y-9.049
X8.0587Y-7.7224
X8.0646Y-3.9472
X8.0646Y-4.1472
X8.076Y-5.8634
X8.0764Y-6.5858
X8.078Y-4.3972
X8.0807Y-6.272
X8.0819Y-4.6157
X8.0902Y-9.9339
X8.0925Y-4.0657
X8.1016Y-5.022
X8.1047Y-4.9059
X8.1047Y-7.4886
X8.1094Y-8.5634
X8.111Y-6.0579
X8.1126Y-6.5228
X8.1138Y-4.0071
X8.1144Y-8.7407
X8.1157Y-6.4067
X8.122Y-5.1823
X8.1232Y-5.3921
X8.1256Y-5.5217
X8.1272Y-5.685
X8.1276Y-8.0482
X8.1291Y-4.2228
X8.1295Y-10.3193
X8.1295Y-7.8616
X8.1331Y-6.6831
X8.1343Y-6.8929
X8.1378Y-7.1874
X8.1386Y-9.0986
X8.1398Y-3.9472
X8.1398Y-4.1472
X8.1409Y-6.9819
X8.1417Y-7.0614
X8.1533Y-4.7171
X8.1547Y-4.4634
X8.1551Y-8.413
X8.1575Y-5.2886
X8.1591Y-8.1004
X8.1685Y-6.7894
X8.1689Y-9.3033
X8.1732Y-6.2035
X8.1736Y-4.8075
X8.1783Y-4.5882
X8.1791Y-10.2661
X8.1846Y-6.3083
X8.1984Y-5.9646
X8.1996Y-7.6874
X8.2024Y-5.0874
X8.2028Y-4.0343
X8.2091Y-7.1677
X8.2094Y-5.5909
X8.2098Y-7.572
X8.2106Y-9.8197
X8.2114Y-10.3262
X8.2134Y-6.5882
X8.2146Y-10.0248
X8.2161Y-4.1343
X8.2209Y-7.0406
X8.2217Y-3.9476
X8.2224Y-5.3803
X8.2232Y-6.9386
X8.2248Y-6.8457
X8.2292Y-9.4604
X8.2323Y-6.1272
X8.2358Y-4.9531
X8.2469Y-6.4539
X8.2528Y-8.2161
X8.2528Y-8.6872
X8.2709Y-5.1831
X8.272Y-6.215
X8.274Y-4.7476
X8.2744Y-5.487
X8.2756Y-5.2898
X8.2756Y-9.7488
X8.2819Y-6.6839
X8.2831Y-8.3
X8.2866Y-6.7906
X8.2933Y-5.6791
X8.2949Y-4.8768
X8.3008Y-4.0921
X8.3012Y-6.963
X8.3039Y-10.3217
X8.3059Y-6.3776
X8.3094Y-4.2193
X8.3102Y-3.9465
X8.3138Y-5.0079
X8.3177Y-10.2634
X8.3201Y-7.1551
X8.3217Y-7.0575
X8.3224Y-10.1165
X8.3236Y-4.6429
X8.3248Y-6.5087
X8.3276Y-4.4894
X8.328Y-7.5031
X8.3307Y-10.0051
X8.3311Y-7.6598
X8.3346Y-7.8287
X8.3386Y-6.0091
X8.3465Y-5.3882
X8.3476Y-4.7752
X8.3512Y-5.089
X8.3575Y-6.889
X8.3587Y-6.276
X8.3591Y-6.1256
X8.3622Y-6.5898
X8.3642Y-7.3327
X8.3646Y-5.5815
X8.3713Y-8.8955
X8.3776Y-4.2035
X8.3847Y-9.0963
X8.3874Y-9.2951
X8.3913Y-4.0862
X8.3925Y-8.3124
X8.3929Y-7.9988
X8.3937Y-8.412
X8.3969Y-3.9469
X8.402Y-9.7728
X8.4031Y-10.3142
X8.4047Y-4.0118
X8.4087Y-8.722
X8.4087Y-8.999
X8.4095Y-9.197
X8.411Y-8.5618
X8.411Y-10.2425
X8.4138Y-9.8555
X8.4138Y-10.0055
X8.4138Y-10.0787
X8.4138Y-10.1657
X8.4154Y-9.9299
X8.4177Y-8.1039
X8.4217Y-4.1441
X8.4236Y-9.8106
X8.4244Y-4.2445
X8.4252Y-4.3331
X8.4252Y-4.4102
X8.4264Y-6.198
X8.4264Y-7.0512
X8.4264Y-7.8969
X8.4272Y-4.4957
X8.4272Y-5.3488
X8.4272Y-6.2843
X8.4272Y-6.3724
X8.4272Y-7.1374
X8.4272Y-7.2256
X8.4272Y-7.9854
X8.4272Y-8.0626
X8.428Y-4.5819
X8.428Y-4.6701
X8.428Y-5.435
X8.428Y-5.5232
X8.428Y-6.461
X8.428Y-6.5382
X8.428Y-6.6197
X8.428Y-7.3142
X8.428Y-7.3913
X8.428Y-7.4728
X8.4287Y-4.7587
X8.4287Y-4.8358
X8.4287Y-4.9173
X8.4287Y-5.6118
X8.4287Y-5.689
X8.4287Y-5.7705
X8.4287Y-6.7059
X8.4287Y-6.7941
X8.4287Y-7.5591
X8.4287Y-7.6472
X8.4295Y-5.0035
X8.4295Y-5.0917
X8.4295Y-5.8567
X8.4295Y-5.9449
X8.4295Y-6.8827
X8.4295Y-6.9598
X8.4295Y-7.7358
X8.4295Y-7.813
X8.4303Y-5.1803
X8.4303Y-5.2575
X8.4303Y-6.0335
X8.4303Y-6.1106
T3
X2.7457Y-10.0937
X3.6614Y-8.0079
X4.4413Y-7.0343
X4.8535Y-7.1122
X5.3614Y-10.0941
X6.2772Y-8.0075
X7.0567Y-7.0343
X7.4693Y-7.1126
T4
X3.8465Y-8.6933
X3.9102Y-8.7433
X4.2807Y-9.3327
X6.4622Y-8.6929
X6.5272Y-8.7429
X6.8972Y-9.3327
T6
X2.6784Y-5.7028
X2.6784Y-5.8028
X2.6784Y-5.9028
X2.6795Y-5.1878
X2.6795Y-5.2878
X2.6795Y-5.3878
X3.302Y-4.1427
X3.302Y-4.2427
X3.302Y-4.3427
T7
X8.1709Y-9.7659
X8.1709Y-9.8659
X8.1709Y-9.9659
X8.1709Y-10.0659
X8.1709Y-10.1659
X8.2709Y-9.8659
X8.2709Y-9.9659
X8.2709Y-10.0659
X8.2709Y-10.1659
T8
X8.261Y-7.6364
X8.261Y-7.7364
X8.261Y-7.8364
X8.261Y-7.9364
X8.261Y-8.0364
T9
X2.737Y-4.466
X2.737Y-4.6825
X2.9024Y-4.466
X2.9024Y-4.6825
X3.0677Y-4.466
X3.0677Y-4.6825
T10
X2.3937Y-4.3307
X2.3937Y-5.7087
X2.3937Y-7.0866
X2.3937Y-8.4646
X2.3937Y-9.8425
X3.9055Y-4.385
X3.9055Y-6.4858
X5.7055Y-4.385
X5.7055Y-6.485
X7.5055Y-6.4854
X7.5063Y-4.385
X8.2283Y-4.3307
X8.2283Y-5.8268
X8.2283Y-7.3228
T5
X2.5508Y-6.7179G85X2.5508Y-6.8164
G05
X2.728Y-6.9561G85X2.6295Y-6.9561
G05
T8
X2.7969Y-6.7179G85X2.7969Y-6.8164
G05
T0
M30
