G04 #@! TF.FileFunction,Soldermask,Top*
%FSLAX46Y46*%
G04 Gerber Fmt 4.6, Leading zero omitted, Abs format (unit mm)*
G04 Created by KiCad (PCBNEW 4.0.7-e2-6376~61~ubuntu18.04.1) date Tue Nov 15 11:44:20 2022*
%MOMM*%
%LPD*%
G01*
G04 APERTURE LIST*
%ADD10C,0.150000*%
%ADD11C,0.100000*%
%ADD12C,0.200000*%
%ADD13C,3.000000*%
%ADD14R,1.370000X1.370000*%
%ADD15C,1.370000*%
%ADD16R,0.450000X1.380000*%
%ADD17R,1.475000X2.100000*%
%ADD18R,2.375000X1.900000*%
%ADD19R,1.175000X1.900000*%
%ADD20C,5.000000*%
%ADD21R,0.200000X0.875000*%
%ADD22R,0.875000X0.200000*%
%ADD23R,3.200000X3.200000*%
%ADD24R,0.850000X0.300000*%
%ADD25R,0.300000X0.850000*%
%ADD26R,2.540000X1.270000*%
%ADD27R,1.200000X4.000000*%
%ADD28R,0.693420X0.693420*%
%ADD29R,1.150620X2.039620*%
%ADD30R,1.500000X3.250000*%
%ADD31R,0.700000X1.500000*%
%ADD32O,0.400000X0.200000*%
%ADD33R,0.200000X0.200000*%
%ADD34O,0.200000X0.400000*%
%ADD35R,4.600000X4.300000*%
%ADD36R,4.300000X0.300000*%
%ADD37R,0.127000X0.127000*%
%ADD38R,0.863600X0.254000*%
%ADD39R,0.254000X0.863600*%
%ADD40R,7.467600X7.467600*%
%ADD41R,0.450000X1.500000*%
%ADD42R,0.610000X0.670000*%
%ADD43R,0.610000X1.070000*%
%ADD44R,0.700000X1.000000*%
%ADD45R,0.890000X0.400000*%
%ADD46R,0.400000X0.890000*%
%ADD47R,1.700000X1.700000*%
%ADD48R,1.910000X1.910000*%
%ADD49R,1.520000X1.520000*%
%ADD50R,0.600000X1.100000*%
%ADD51R,0.899160X1.399540*%
%ADD52R,2.000000X4.000000*%
%ADD53R,0.550000X0.280000*%
%ADD54R,0.195000X0.400000*%
%ADD55R,1.200000X1.400000*%
%ADD56R,0.300000X0.350000*%
%ADD57R,0.595300X0.595300*%
%ADD58R,0.350000X0.300000*%
%ADD59R,0.998120X0.898120*%
%ADD60R,0.898120X0.998120*%
%ADD61R,0.410000X0.330000*%
%ADD62R,0.330000X0.410000*%
%ADD63R,1.300000X1.300000*%
%ADD64R,0.800000X0.900000*%
%ADD65R,1.700000X0.800000*%
%ADD66R,2.039620X1.150620*%
%ADD67R,0.410000X1.780000*%
%ADD68R,0.710000X0.360000*%
%ADD69R,1.270000X0.360000*%
%ADD70R,1.780000X0.410000*%
%ADD71R,0.360000X0.710000*%
%ADD72R,0.360000X1.270000*%
%ADD73R,1.000000X0.350000*%
%ADD74R,0.700000X0.300000*%
%ADD75R,0.300000X0.700000*%
%ADD76R,2.600000X2.600000*%
%ADD77R,0.350000X0.850000*%
%ADD78R,0.850000X0.350000*%
%ADD79R,0.350000X1.000000*%
%ADD80R,2.200000X1.000000*%
%ADD81R,1.000000X1.000000*%
%ADD82R,0.540000X0.300000*%
%ADD83R,0.300000X0.540000*%
%ADD84R,0.760000X0.760000*%
%ADD85R,1.496060X5.000000*%
%ADD86R,0.698500X2.500000*%
%ADD87R,0.800000X0.550000*%
%ADD88R,4.200000X4.200000*%
%ADD89R,0.610000X0.350000*%
%ADD90R,0.350000X0.610000*%
%ADD91R,1.250000X1.250000*%
%ADD92R,0.400000X0.700000*%
%ADD93R,0.400000X2.100000*%
%ADD94R,0.400000X0.770000*%
%ADD95R,1.600000X0.700000*%
%ADD96R,0.800000X0.800000*%
%ADD97R,1.500000X0.450000*%
%ADD98R,3.250000X1.500000*%
%ADD99R,1.500000X0.700000*%
%ADD100R,0.400000X0.350000*%
%ADD101R,0.350000X0.400000*%
%ADD102R,1.524000X2.032000*%
%ADD103R,1.270000X3.200000*%
%ADD104R,1.270000X3.200400*%
%ADD105R,1.000000X2.200000*%
%ADD106C,3.298120*%
%ADD107R,3.200400X1.270000*%
%ADD108R,3.400000X1.850000*%
%ADD109R,1.399540X0.899160*%
%ADD110R,1.000000X0.700000*%
%ADD111R,1.000000X1.100000*%
%ADD112R,0.430000X0.320000*%
%ADD113R,0.750000X0.400000*%
%ADD114R,1.600000X2.350000*%
%ADD115R,0.250000X0.600000*%
%ADD116R,2.400000X0.250000*%
%ADD117R,0.660000X0.300000*%
%ADD118R,0.550000X1.600000*%
%ADD119R,5.798120X2.298120*%
%ADD120R,0.950000X0.950000*%
%ADD121R,0.800000X0.950000*%
%ADD122R,1.000000X1.350000*%
%ADD123R,0.700000X1.350000*%
%ADD124R,1.350000X0.700000*%
%ADD125R,0.250000X0.180000*%
%ADD126O,2.994660X1.524000*%
%ADD127R,1.000000X1.750000*%
%ADD128R,0.600000X1.000000*%
%ADD129R,1.000000X2.500000*%
%ADD130C,1.700000*%
%ADD131R,1.524000X1.524000*%
%ADD132R,1.100000X0.400000*%
%ADD133R,4.000000X1.300000*%
%ADD134R,1.300000X4.000000*%
%ADD135R,1.750000X4.250000*%
%ADD136R,1.350000X1.000000*%
%ADD137R,1.350000X1.200000*%
%ADD138R,1.350000X0.600000*%
%ADD139R,0.760000X1.650000*%
%ADD140R,0.800000X1.700000*%
G04 APERTURE END LIST*
D10*
D11*
X214520000Y-99480000D02*
X214520000Y-99470000D01*
D12*
X57390000Y-99480000D02*
X214520000Y-99480000D01*
X57390000Y-99480000D02*
X57390000Y-262740000D01*
X214520000Y-262730000D02*
X214520000Y-99480000D01*
X57390000Y-262740000D02*
X214520000Y-262740000D01*
D11*
G36*
X95973165Y-225136745D02*
X95973155Y-225797145D01*
X96176355Y-226000345D01*
X96227165Y-226000345D01*
X96227165Y-225136745D01*
X95973165Y-225136745D01*
G37*
X95973165Y-225136745D02*
X95973155Y-225797145D01*
X96176355Y-226000345D01*
X96227165Y-226000345D01*
X96227165Y-225136745D01*
X95973165Y-225136745D01*
G36*
X95036865Y-226073045D02*
X95036860Y-226327046D01*
X95900465Y-226327045D01*
X95900460Y-226276246D01*
X95697260Y-226073046D01*
X95036865Y-226073045D01*
G37*
X95036865Y-226073045D02*
X95036860Y-226327046D01*
X95900465Y-226327045D01*
X95900460Y-226276246D01*
X95697260Y-226073046D01*
X95036865Y-226073045D01*
G36*
X95036865Y-233573044D02*
X95036865Y-233827045D01*
X95697265Y-233827044D01*
X95900465Y-233623844D01*
X95900465Y-233573044D01*
X95036865Y-233573044D01*
G37*
X95036865Y-233573044D02*
X95036865Y-233827045D01*
X95697265Y-233827044D01*
X95900465Y-233623844D01*
X95900465Y-233573044D01*
X95036865Y-233573044D01*
G36*
X95973160Y-234102945D02*
X95973165Y-234763345D01*
X96227165Y-234763345D01*
X96227165Y-233899745D01*
X96176360Y-233899745D01*
X95973160Y-234102945D01*
G37*
X95973160Y-234102945D02*
X95973165Y-234763345D01*
X96227165Y-234763345D01*
X96227165Y-233899745D01*
X96176360Y-233899745D01*
X95973160Y-234102945D01*
G36*
X103473165Y-233899745D02*
X103473170Y-234763345D01*
X103727165Y-234763345D01*
X103727170Y-234102945D01*
X103523970Y-233899745D01*
X103473165Y-233899745D01*
G37*
X103473165Y-233899745D02*
X103473170Y-234763345D01*
X103727165Y-234763345D01*
X103727170Y-234102945D01*
X103523970Y-233899745D01*
X103473165Y-233899745D01*
G36*
X103799865Y-233573044D02*
X103799865Y-233623844D01*
X104003065Y-233827044D01*
X104663465Y-233827045D01*
X104663465Y-233573045D01*
X103799865Y-233573044D01*
G37*
X103799865Y-233573044D02*
X103799865Y-233623844D01*
X104003065Y-233827044D01*
X104663465Y-233827045D01*
X104663465Y-233573045D01*
X103799865Y-233573044D01*
G36*
X103473165Y-225136745D02*
X103473165Y-226000345D01*
X103523965Y-226000345D01*
X103727165Y-225797145D01*
X103727165Y-225136745D01*
X103473165Y-225136745D01*
G37*
X103473165Y-225136745D02*
X103473165Y-226000345D01*
X103523965Y-226000345D01*
X103727165Y-225797145D01*
X103727165Y-225136745D01*
X103473165Y-225136745D01*
G36*
X103799860Y-226276246D02*
X103799860Y-226327046D01*
X104663465Y-226327045D01*
X104663465Y-226073045D01*
X104003060Y-226073046D01*
X103799860Y-226276246D01*
G37*
X103799860Y-226276246D02*
X103799860Y-226327046D01*
X104663465Y-226327045D01*
X104663465Y-226073045D01*
X104003060Y-226073046D01*
X103799860Y-226276246D01*
G36*
X162413000Y-225136700D02*
X162412990Y-225797100D01*
X162616190Y-226000300D01*
X162667000Y-226000300D01*
X162667000Y-225136700D01*
X162413000Y-225136700D01*
G37*
X162413000Y-225136700D02*
X162412990Y-225797100D01*
X162616190Y-226000300D01*
X162667000Y-226000300D01*
X162667000Y-225136700D01*
X162413000Y-225136700D01*
G36*
X161476700Y-226073000D02*
X161476695Y-226327001D01*
X162340300Y-226327000D01*
X162340295Y-226276201D01*
X162137095Y-226073001D01*
X161476700Y-226073000D01*
G37*
X161476700Y-226073000D02*
X161476695Y-226327001D01*
X162340300Y-226327000D01*
X162340295Y-226276201D01*
X162137095Y-226073001D01*
X161476700Y-226073000D01*
G36*
X161476700Y-233572999D02*
X161476700Y-233827000D01*
X162137100Y-233826999D01*
X162340300Y-233623799D01*
X162340300Y-233572999D01*
X161476700Y-233572999D01*
G37*
X161476700Y-233572999D02*
X161476700Y-233827000D01*
X162137100Y-233826999D01*
X162340300Y-233623799D01*
X162340300Y-233572999D01*
X161476700Y-233572999D01*
G36*
X162412995Y-234102900D02*
X162413000Y-234763300D01*
X162667000Y-234763300D01*
X162667000Y-233899700D01*
X162616195Y-233899700D01*
X162412995Y-234102900D01*
G37*
X162412995Y-234102900D02*
X162413000Y-234763300D01*
X162667000Y-234763300D01*
X162667000Y-233899700D01*
X162616195Y-233899700D01*
X162412995Y-234102900D01*
G36*
X169913000Y-233899700D02*
X169913005Y-234763300D01*
X170167000Y-234763300D01*
X170167005Y-234102900D01*
X169963805Y-233899700D01*
X169913000Y-233899700D01*
G37*
X169913000Y-233899700D02*
X169913005Y-234763300D01*
X170167000Y-234763300D01*
X170167005Y-234102900D01*
X169963805Y-233899700D01*
X169913000Y-233899700D01*
G36*
X170239700Y-233572999D02*
X170239700Y-233623799D01*
X170442900Y-233826999D01*
X171103300Y-233827000D01*
X171103300Y-233573000D01*
X170239700Y-233572999D01*
G37*
X170239700Y-233572999D02*
X170239700Y-233623799D01*
X170442900Y-233826999D01*
X171103300Y-233827000D01*
X171103300Y-233573000D01*
X170239700Y-233572999D01*
G36*
X169913000Y-225136700D02*
X169913000Y-226000300D01*
X169963800Y-226000300D01*
X170167000Y-225797100D01*
X170167000Y-225136700D01*
X169913000Y-225136700D01*
G37*
X169913000Y-225136700D02*
X169913000Y-226000300D01*
X169963800Y-226000300D01*
X170167000Y-225797100D01*
X170167000Y-225136700D01*
X169913000Y-225136700D01*
G36*
X170239695Y-226276201D02*
X170239695Y-226327001D01*
X171103300Y-226327000D01*
X171103300Y-226073000D01*
X170442895Y-226073001D01*
X170239695Y-226276201D01*
G37*
X170239695Y-226276201D02*
X170239695Y-226327001D01*
X171103300Y-226327000D01*
X171103300Y-226073000D01*
X170442895Y-226073001D01*
X170239695Y-226276201D01*
D13*
X211240000Y-173940000D03*
X211240000Y-173940000D03*
X61870000Y-258330000D03*
X61870000Y-258330000D03*
D14*
X210080420Y-258215000D03*
D15*
X207540420Y-258215000D03*
X210080420Y-255675000D03*
X207540420Y-255675000D03*
X210080420Y-253135000D03*
X207540420Y-253135000D03*
X210080420Y-250595000D03*
X207540420Y-250595000D03*
X207540420Y-248055000D03*
D16*
X190573740Y-258630000D03*
X191223740Y-258630000D03*
X191873740Y-258630000D03*
X192523740Y-258630000D03*
X193173740Y-258630000D03*
D17*
X189411240Y-258990000D03*
X194336240Y-258990000D03*
D18*
X188963740Y-261290000D03*
X194783740Y-261290000D03*
D19*
X191033740Y-261290000D03*
X192713740Y-261290000D03*
D20*
X60800000Y-145000000D03*
X60800000Y-215000000D03*
X60800000Y-110000000D03*
X60800000Y-180000000D03*
X60800000Y-250000000D03*
D21*
X195353740Y-249547500D03*
X194953740Y-249547500D03*
X194553740Y-249547500D03*
X194153740Y-249547500D03*
X193753740Y-249547500D03*
X193353740Y-249547500D03*
X192953740Y-249547500D03*
X192553740Y-249547500D03*
X192153740Y-249547500D03*
X191753740Y-249547500D03*
X191353740Y-249547500D03*
X190953740Y-249547500D03*
X190553740Y-249547500D03*
X190153740Y-249547500D03*
X190153740Y-242672500D03*
X190553740Y-242672500D03*
X190953740Y-242672500D03*
X191353740Y-242672500D03*
X191753740Y-242672500D03*
X192153740Y-242672500D03*
X192553740Y-242672500D03*
X192953740Y-242672500D03*
X193353740Y-242672500D03*
X193753740Y-242672500D03*
X194153740Y-242672500D03*
X194553740Y-242672500D03*
X194953740Y-242672500D03*
X195353740Y-242672500D03*
D22*
X189316240Y-248710000D03*
X189316240Y-248310000D03*
X189316240Y-247910000D03*
X189316240Y-247510000D03*
X189316240Y-247110000D03*
X189316240Y-246710000D03*
X189316240Y-246310000D03*
X189316240Y-245910000D03*
X189316240Y-245510000D03*
X189316240Y-245110000D03*
X189316240Y-244710000D03*
X189316240Y-244310000D03*
X189316240Y-243910000D03*
X189316240Y-243510000D03*
X196191240Y-243510000D03*
X196191240Y-243910000D03*
X196191240Y-244310000D03*
X196191240Y-244710000D03*
X196191240Y-245110000D03*
X196191240Y-245510000D03*
X196191240Y-245910000D03*
X196191240Y-248710000D03*
X196191240Y-248310000D03*
X196191240Y-247910000D03*
X196191240Y-247510000D03*
X196191240Y-247110000D03*
X196191240Y-246710000D03*
X196191240Y-246310000D03*
D23*
X192753740Y-246110000D03*
D24*
X169675000Y-165560000D03*
X169675000Y-165060000D03*
X169675000Y-164560000D03*
X169675000Y-164060000D03*
X169675000Y-163560000D03*
X169675000Y-163060000D03*
X169675000Y-162560000D03*
X169675000Y-162060000D03*
X174625000Y-162060000D03*
X174625000Y-162560000D03*
X174625000Y-163060000D03*
X174625000Y-163560000D03*
X174625000Y-164060000D03*
X174625000Y-164560000D03*
X174625000Y-165060000D03*
X174625000Y-165560000D03*
D25*
X170400000Y-161335000D03*
X170900000Y-161335000D03*
X171400000Y-161335000D03*
X171900000Y-161335000D03*
X172400000Y-161335000D03*
X172900000Y-161335000D03*
X173400000Y-161335000D03*
X173900000Y-161335000D03*
X173900000Y-166285000D03*
X173400000Y-166285000D03*
X172900000Y-166285000D03*
X172400000Y-166285000D03*
X171900000Y-166285000D03*
X171400000Y-166285000D03*
X170900000Y-166285000D03*
D23*
X172150000Y-163810000D03*
D25*
X170400000Y-166285000D03*
D26*
X207070420Y-237385000D03*
X207070420Y-234845000D03*
X207070420Y-232305000D03*
X207070420Y-229765000D03*
X207070420Y-227225000D03*
X207070420Y-224685000D03*
X212530420Y-224685000D03*
X212530420Y-227225000D03*
X212530420Y-229765000D03*
X212530420Y-232305000D03*
X212530420Y-234845000D03*
X212530420Y-237385000D03*
D20*
X209000000Y-110000000D03*
X209000000Y-148000000D03*
X209000000Y-186000000D03*
X190640000Y-164730000D03*
X144920000Y-164720000D03*
X99200000Y-164740000D03*
X99200000Y-111380000D03*
X144920000Y-111380000D03*
X190660000Y-111380000D03*
D27*
X108780000Y-144970000D03*
X111320000Y-146570000D03*
D28*
X189000840Y-241350000D03*
X189900000Y-241350000D03*
D24*
X202545000Y-151300000D03*
X202545000Y-151800000D03*
X202545000Y-152300000D03*
X202545000Y-152800000D03*
X202545000Y-153300000D03*
X202545000Y-153800000D03*
X202545000Y-154300000D03*
X202545000Y-154800000D03*
X197595000Y-154800000D03*
X197595000Y-154300000D03*
X197595000Y-153800000D03*
X197595000Y-153300000D03*
X197595000Y-152800000D03*
X197595000Y-152300000D03*
X197595000Y-151800000D03*
X197595000Y-151300000D03*
D25*
X201820000Y-155525000D03*
X201320000Y-155525000D03*
X200820000Y-155525000D03*
X200320000Y-155525000D03*
X199820000Y-155525000D03*
X199320000Y-155525000D03*
X198820000Y-155525000D03*
X198320000Y-155525000D03*
X198320000Y-150575000D03*
X198820000Y-150575000D03*
X199320000Y-150575000D03*
X199820000Y-150575000D03*
X200320000Y-150575000D03*
X200820000Y-150575000D03*
X201320000Y-150575000D03*
D23*
X200070000Y-153050000D03*
D25*
X201820000Y-150575000D03*
D29*
X172198880Y-213164840D03*
X173468880Y-213164840D03*
X174738880Y-213164840D03*
X174738880Y-216342380D03*
X172198880Y-216342380D03*
D30*
X174955000Y-176300000D03*
X172005000Y-176300000D03*
D31*
X173480000Y-174400000D03*
X173480000Y-178200000D03*
D29*
X105768880Y-213164840D03*
X107038880Y-213164840D03*
X108308880Y-213164840D03*
X108308880Y-216342380D03*
X105768880Y-216342380D03*
D32*
X114054364Y-202928375D03*
X114054364Y-202528375D03*
X114054364Y-202128375D03*
X114054364Y-201728375D03*
X114054364Y-201328375D03*
X114054364Y-200928375D03*
X114054364Y-200528375D03*
X114054364Y-200128375D03*
X114054364Y-199728375D03*
X114054364Y-199328375D03*
X114054364Y-198928375D03*
X114054364Y-198528375D03*
X114054364Y-198128375D03*
X114054364Y-197728375D03*
D33*
X114154364Y-202928375D03*
X114154364Y-202528375D03*
X114154364Y-202128375D03*
X114154364Y-201728375D03*
X114154364Y-201328375D03*
X114154364Y-200928375D03*
X114154364Y-200528375D03*
X114154364Y-200128375D03*
X114154364Y-199728375D03*
X114154364Y-199328375D03*
X114154364Y-198928375D03*
X114154364Y-198528375D03*
X114154364Y-198128375D03*
X114154364Y-197728375D03*
X113354364Y-196928375D03*
X112954364Y-196928375D03*
X112554364Y-196928375D03*
X112154364Y-196928375D03*
X111754364Y-196928375D03*
X111354364Y-196928375D03*
X110954364Y-196928375D03*
X110554364Y-196928375D03*
X110154364Y-196928375D03*
X109754364Y-196928375D03*
X109354364Y-196928375D03*
X108954364Y-196928375D03*
X108554364Y-196928375D03*
X108154364Y-196928375D03*
X107354364Y-197728375D03*
X107354364Y-198128375D03*
X107354364Y-198528375D03*
X107354364Y-198928375D03*
X107354364Y-199328375D03*
X107354364Y-199728375D03*
X107354364Y-200128375D03*
X107354364Y-200528375D03*
X107354364Y-200928375D03*
X107354364Y-201328375D03*
X107354364Y-201728375D03*
X107354364Y-202128375D03*
X107354364Y-202528375D03*
X107354364Y-202928375D03*
X108154364Y-203728375D03*
X108554364Y-203728375D03*
X108954364Y-203728375D03*
X109354364Y-203728375D03*
X109754364Y-203728375D03*
X110154364Y-203728375D03*
X110554364Y-203728375D03*
X110954364Y-203728375D03*
X111354364Y-203728375D03*
X111754364Y-203728375D03*
X112154364Y-203728375D03*
X112554364Y-203728375D03*
X112954364Y-203728375D03*
X113354364Y-203728375D03*
D34*
X113354364Y-197028375D03*
X112954364Y-197028375D03*
X112554364Y-197028375D03*
X112154364Y-197028375D03*
X111754364Y-197028375D03*
X111354364Y-197028375D03*
X110954364Y-197028375D03*
X110554364Y-197028375D03*
X110154364Y-197028375D03*
X109754364Y-197028375D03*
X109354364Y-197028375D03*
X108954364Y-197028375D03*
X108554364Y-197028375D03*
X108154364Y-197028375D03*
D32*
X107454364Y-197728375D03*
X107454364Y-198128375D03*
X107454364Y-198528375D03*
X107454364Y-198928375D03*
X107454364Y-199328375D03*
X107454364Y-199728375D03*
X107454364Y-200128375D03*
X107454364Y-200528375D03*
X107454364Y-200928375D03*
X107454364Y-201328375D03*
X107454364Y-201728375D03*
X107454364Y-202128375D03*
X107454364Y-202528375D03*
X107454364Y-202928375D03*
D34*
X108154364Y-203628375D03*
X108554364Y-203628375D03*
X108954364Y-203628375D03*
X109354364Y-203628375D03*
X109754364Y-203628375D03*
X110154364Y-203628375D03*
X110554364Y-203628375D03*
X110954364Y-203628375D03*
X111354364Y-203628375D03*
X111754364Y-203628375D03*
X112154364Y-203628375D03*
X112554364Y-203628375D03*
X112954364Y-203628375D03*
X113354364Y-203628375D03*
D35*
X110754364Y-200178375D03*
D36*
X110604364Y-202478375D03*
D10*
G36*
X113054364Y-202328375D02*
X112754364Y-202628375D01*
X112554364Y-202628375D01*
X112254364Y-202328375D01*
X113054364Y-202328375D01*
X113054364Y-202328375D01*
G37*
D28*
X155930000Y-256760420D03*
X155930000Y-257659580D03*
D37*
X95468665Y-226200045D03*
D38*
X95468665Y-226700044D03*
X95468665Y-227200045D03*
X95468665Y-227700044D03*
X95468665Y-228200046D03*
X95468665Y-228700045D03*
X95468665Y-229200044D03*
X95468665Y-229700045D03*
X95468665Y-230200045D03*
X95468665Y-230700046D03*
X95468665Y-231200045D03*
X95468665Y-231700044D03*
X95468665Y-232200046D03*
X95468665Y-232700045D03*
X95468665Y-233200046D03*
D37*
X95468665Y-233700045D03*
X96100165Y-234331545D03*
D39*
X96600164Y-234331545D03*
X97100165Y-234331545D03*
X97600164Y-234331545D03*
X98100166Y-234331545D03*
X98600165Y-234331545D03*
X99100164Y-234331545D03*
X99600165Y-234331545D03*
X100100165Y-234331545D03*
X100600166Y-234331545D03*
X101100165Y-234331545D03*
X101600164Y-234331545D03*
X102100166Y-234331545D03*
X102600165Y-234331545D03*
X103100166Y-234331545D03*
D37*
X103600165Y-234331545D03*
X104231665Y-233700045D03*
D38*
X104231665Y-233200046D03*
X104231665Y-232700045D03*
X104231665Y-232200046D03*
X104231665Y-231700044D03*
X104231665Y-231200045D03*
X104231665Y-230700046D03*
X104231665Y-230200045D03*
X104231665Y-229700045D03*
X104231665Y-229200044D03*
X104231665Y-228700045D03*
X104231665Y-228200046D03*
X104231665Y-227700044D03*
X104231665Y-227200045D03*
X104231665Y-226700044D03*
D37*
X104231665Y-226200045D03*
X103600165Y-225568545D03*
D39*
X103100166Y-225568545D03*
X102600165Y-225568545D03*
X102100166Y-225568545D03*
X101600164Y-225568545D03*
X101100165Y-225568545D03*
X100600166Y-225568545D03*
X100100165Y-225568545D03*
X99600165Y-225568545D03*
X99100164Y-225568545D03*
X98600165Y-225568545D03*
X98100166Y-225568545D03*
X97600164Y-225568545D03*
X97100165Y-225568545D03*
X96600164Y-225568545D03*
D37*
X96100165Y-225568545D03*
D40*
X99850165Y-229950045D03*
D28*
X132369580Y-115540000D03*
X131470420Y-115540000D03*
D41*
X127455000Y-210840000D03*
X128105000Y-210840000D03*
X128755000Y-210840000D03*
X129405000Y-210840000D03*
X130055000Y-210840000D03*
X130705000Y-210840000D03*
X131355000Y-210840000D03*
X132005000Y-210840000D03*
X132005000Y-216640000D03*
X131355000Y-216640000D03*
X130705000Y-216640000D03*
X130055000Y-216640000D03*
X127455000Y-216640000D03*
X128105000Y-216640000D03*
X128755000Y-216640000D03*
X129405000Y-216640000D03*
D42*
X88270165Y-221975045D03*
D43*
X89260165Y-221775045D03*
D42*
X90250165Y-221975045D03*
X90250165Y-223625045D03*
D43*
X89260165Y-223825045D03*
D42*
X88270165Y-223625045D03*
D44*
X160570000Y-119300000D03*
X162470000Y-119300000D03*
X162470000Y-121700000D03*
X161520000Y-121700000D03*
X160570000Y-121700000D03*
D45*
X174845000Y-169940000D03*
X174845000Y-170600000D03*
X171875000Y-169940000D03*
X171875000Y-170600000D03*
D46*
X173030000Y-168785000D03*
X173690000Y-168785000D03*
X173690000Y-171755000D03*
D47*
X173360000Y-170270000D03*
D46*
X173030000Y-171755000D03*
D44*
X141740000Y-118480000D03*
X143640000Y-118480000D03*
X143640000Y-120880000D03*
X142690000Y-120880000D03*
X141740000Y-120880000D03*
X146610000Y-118490000D03*
X148510000Y-118490000D03*
X148510000Y-120890000D03*
X147560000Y-120890000D03*
X146610000Y-120890000D03*
D48*
X145400000Y-256090000D03*
X145400000Y-251350000D03*
D49*
X143030000Y-253720000D03*
D48*
X140660000Y-251350000D03*
X140660000Y-256090000D03*
D50*
X164500000Y-170340000D03*
X165450000Y-170340000D03*
X166400000Y-170340000D03*
X166400000Y-172940000D03*
X165450000Y-172940000D03*
X164500000Y-172940000D03*
D51*
X170392500Y-171140000D03*
X168487500Y-171140000D03*
D52*
X158180000Y-133530000D03*
X158180000Y-126430000D03*
D28*
X198799580Y-115540000D03*
X197900420Y-115540000D03*
D32*
X180490000Y-202930000D03*
X180490000Y-202530000D03*
X180490000Y-202130000D03*
X180490000Y-201730000D03*
X180490000Y-201330000D03*
X180490000Y-200930000D03*
X180490000Y-200530000D03*
X180490000Y-200130000D03*
X180490000Y-199730000D03*
X180490000Y-199330000D03*
X180490000Y-198930000D03*
X180490000Y-198530000D03*
X180490000Y-198130000D03*
X180490000Y-197730000D03*
D33*
X180590000Y-202930000D03*
X180590000Y-202530000D03*
X180590000Y-202130000D03*
X180590000Y-201730000D03*
X180590000Y-201330000D03*
X180590000Y-200930000D03*
X180590000Y-200530000D03*
X180590000Y-200130000D03*
X180590000Y-199730000D03*
X180590000Y-199330000D03*
X180590000Y-198930000D03*
X180590000Y-198530000D03*
X180590000Y-198130000D03*
X180590000Y-197730000D03*
X179790000Y-196930000D03*
X179390000Y-196930000D03*
X178990000Y-196930000D03*
X178590000Y-196930000D03*
X178190000Y-196930000D03*
X177790000Y-196930000D03*
X177390000Y-196930000D03*
X176990000Y-196930000D03*
X176590000Y-196930000D03*
X176190000Y-196930000D03*
X175790000Y-196930000D03*
X175390000Y-196930000D03*
X174990000Y-196930000D03*
X174590000Y-196930000D03*
X173790000Y-197730000D03*
X173790000Y-198130000D03*
X173790000Y-198530000D03*
X173790000Y-198930000D03*
X173790000Y-199330000D03*
X173790000Y-199730000D03*
X173790000Y-200130000D03*
X173790000Y-200530000D03*
X173790000Y-200930000D03*
X173790000Y-201330000D03*
X173790000Y-201730000D03*
X173790000Y-202130000D03*
X173790000Y-202530000D03*
X173790000Y-202930000D03*
X174590000Y-203730000D03*
X174990000Y-203730000D03*
X175390000Y-203730000D03*
X175790000Y-203730000D03*
X176190000Y-203730000D03*
X176590000Y-203730000D03*
X176990000Y-203730000D03*
X177390000Y-203730000D03*
X177790000Y-203730000D03*
X178190000Y-203730000D03*
X178590000Y-203730000D03*
X178990000Y-203730000D03*
X179390000Y-203730000D03*
X179790000Y-203730000D03*
D34*
X179790000Y-197030000D03*
X179390000Y-197030000D03*
X178990000Y-197030000D03*
X178590000Y-197030000D03*
X178190000Y-197030000D03*
X177790000Y-197030000D03*
X177390000Y-197030000D03*
X176990000Y-197030000D03*
X176590000Y-197030000D03*
X176190000Y-197030000D03*
X175790000Y-197030000D03*
X175390000Y-197030000D03*
X174990000Y-197030000D03*
X174590000Y-197030000D03*
D32*
X173890000Y-197730000D03*
X173890000Y-198130000D03*
X173890000Y-198530000D03*
X173890000Y-198930000D03*
X173890000Y-199330000D03*
X173890000Y-199730000D03*
X173890000Y-200130000D03*
X173890000Y-200530000D03*
X173890000Y-200930000D03*
X173890000Y-201330000D03*
X173890000Y-201730000D03*
X173890000Y-202130000D03*
X173890000Y-202530000D03*
X173890000Y-202930000D03*
D34*
X174590000Y-203630000D03*
X174990000Y-203630000D03*
X175390000Y-203630000D03*
X175790000Y-203630000D03*
X176190000Y-203630000D03*
X176590000Y-203630000D03*
X176990000Y-203630000D03*
X177390000Y-203630000D03*
X177790000Y-203630000D03*
X178190000Y-203630000D03*
X178590000Y-203630000D03*
X178990000Y-203630000D03*
X179390000Y-203630000D03*
X179790000Y-203630000D03*
D35*
X177190000Y-200180000D03*
D36*
X177040000Y-202480000D03*
D10*
G36*
X179490000Y-202330000D02*
X179190000Y-202630000D01*
X178990000Y-202630000D01*
X178690000Y-202330000D01*
X179490000Y-202330000D01*
X179490000Y-202330000D01*
G37*
D53*
X179230000Y-179810000D03*
X179230000Y-180930000D03*
D54*
X179027500Y-180370000D03*
X179432500Y-180370000D03*
D10*
G36*
X176954264Y-220566776D02*
X176706776Y-220814264D01*
X176494644Y-220602132D01*
X176742132Y-220354644D01*
X176954264Y-220566776D01*
X176954264Y-220566776D01*
G37*
G36*
X176565356Y-220177868D02*
X176317868Y-220425356D01*
X176105736Y-220213224D01*
X176353224Y-219965736D01*
X176565356Y-220177868D01*
X176565356Y-220177868D01*
G37*
G36*
X178604264Y-222236776D02*
X178356776Y-222484264D01*
X178144644Y-222272132D01*
X178392132Y-222024644D01*
X178604264Y-222236776D01*
X178604264Y-222236776D01*
G37*
G36*
X178215356Y-221847868D02*
X177967868Y-222095356D01*
X177755736Y-221883224D01*
X178003224Y-221635736D01*
X178215356Y-221847868D01*
X178215356Y-221847868D01*
G37*
D55*
X107710165Y-226190045D03*
X107710165Y-228390045D03*
X109310165Y-228390045D03*
X109310165Y-226190045D03*
D56*
X179625000Y-209620000D03*
X180175000Y-209620000D03*
D57*
X159060000Y-236990420D03*
X159060000Y-237889580D03*
D56*
X172205000Y-203930000D03*
X172755000Y-203930000D03*
X172205000Y-204540000D03*
X172755000Y-204540000D03*
X172205000Y-205130000D03*
X172755000Y-205130000D03*
D10*
G36*
X182166776Y-204725736D02*
X182414264Y-204973224D01*
X182202132Y-205185356D01*
X181954644Y-204937868D01*
X182166776Y-204725736D01*
X182166776Y-204725736D01*
G37*
G36*
X181777868Y-205114644D02*
X182025356Y-205362132D01*
X181813224Y-205574264D01*
X181565736Y-205326776D01*
X181777868Y-205114644D01*
X181777868Y-205114644D01*
G37*
D58*
X181720000Y-204135000D03*
X181720000Y-203585000D03*
D56*
X181035000Y-204870000D03*
X180485000Y-204870000D03*
D58*
X170580000Y-201755000D03*
X170580000Y-202305000D03*
X183880000Y-199705000D03*
X183880000Y-199155000D03*
X170580000Y-201155000D03*
X170580000Y-201705000D03*
X170580000Y-202365000D03*
X170580000Y-202915000D03*
X183880000Y-200305000D03*
X183880000Y-199755000D03*
X183880000Y-199105000D03*
X183880000Y-198555000D03*
D56*
X171205000Y-201630000D03*
X171755000Y-201630000D03*
X171205000Y-202230000D03*
X171755000Y-202230000D03*
X183255000Y-199830000D03*
X182705000Y-199830000D03*
X183255000Y-199230000D03*
X182705000Y-199230000D03*
D58*
X172380000Y-201655000D03*
X172380000Y-202205000D03*
D56*
X175695000Y-204870000D03*
X176245000Y-204870000D03*
X178255000Y-195790000D03*
X177705000Y-195790000D03*
X177705000Y-204870000D03*
X178255000Y-204870000D03*
X176255000Y-195790000D03*
X175705000Y-195790000D03*
D58*
X176270000Y-194975000D03*
X176270000Y-194425000D03*
X175690000Y-194975000D03*
X175690000Y-194425000D03*
X177680000Y-205695000D03*
X177680000Y-206245000D03*
X178270000Y-205695000D03*
X178270000Y-206245000D03*
X175690000Y-205715000D03*
X175690000Y-206265000D03*
X176270000Y-205715000D03*
X176270000Y-206265000D03*
X178260000Y-194975000D03*
X178260000Y-194425000D03*
X177670000Y-194965000D03*
X177670000Y-194415000D03*
D56*
X174325000Y-191030000D03*
X173775000Y-191030000D03*
X180175000Y-191030000D03*
X179625000Y-191030000D03*
X173775000Y-209620000D03*
X174325000Y-209620000D03*
D58*
X169970000Y-202305000D03*
X169970000Y-201755000D03*
X184480000Y-199155000D03*
X184480000Y-199705000D03*
D10*
G36*
X183406776Y-205975736D02*
X183654264Y-206223224D01*
X183442132Y-206435356D01*
X183194644Y-206187868D01*
X183406776Y-205975736D01*
X183406776Y-205975736D01*
G37*
G36*
X183017868Y-206364644D02*
X183265356Y-206612132D01*
X183053224Y-206824264D01*
X182805736Y-206576776D01*
X183017868Y-206364644D01*
X183017868Y-206364644D01*
G37*
G36*
X182485736Y-205303224D02*
X182733224Y-205055736D01*
X182945356Y-205267868D01*
X182697868Y-205515356D01*
X182485736Y-205303224D01*
X182485736Y-205303224D01*
G37*
G36*
X182874644Y-205692132D02*
X183122132Y-205444644D01*
X183334264Y-205656776D01*
X183086776Y-205904264D01*
X182874644Y-205692132D01*
X182874644Y-205692132D01*
G37*
G36*
X181865736Y-205913224D02*
X182113224Y-205665736D01*
X182325356Y-205877868D01*
X182077868Y-206125356D01*
X181865736Y-205913224D01*
X181865736Y-205913224D01*
G37*
G36*
X182254644Y-206302132D02*
X182502132Y-206054644D01*
X182714264Y-206266776D01*
X182466776Y-206514264D01*
X182254644Y-206302132D01*
X182254644Y-206302132D01*
G37*
D58*
X182080000Y-199805000D03*
X182080000Y-199255000D03*
D28*
X91249745Y-220900045D03*
X90350585Y-220900045D03*
D10*
G36*
X90988223Y-242617901D02*
X90497901Y-243108223D01*
X90007579Y-242617901D01*
X90497901Y-242127579D01*
X90988223Y-242617901D01*
X90988223Y-242617901D01*
G37*
G36*
X90352421Y-241982099D02*
X89862099Y-242472421D01*
X89371777Y-241982099D01*
X89862099Y-241491777D01*
X90352421Y-241982099D01*
X90352421Y-241982099D01*
G37*
D28*
X89289745Y-228420045D03*
X88390585Y-228420045D03*
X90570165Y-231520465D03*
X90570165Y-232419625D03*
X98120585Y-239090045D03*
X99019745Y-239090045D03*
X92350165Y-229500465D03*
X92350165Y-230399625D03*
X93360165Y-232420465D03*
X93360165Y-233319625D03*
X96220585Y-237310045D03*
X97119745Y-237310045D03*
D59*
X93110165Y-222720045D03*
X93110165Y-224220045D03*
D28*
X93049745Y-226520045D03*
X92150585Y-226520045D03*
X92150585Y-225500045D03*
X93049745Y-225500045D03*
X93049745Y-227530045D03*
X92150585Y-227530045D03*
X94260165Y-236360465D03*
X94260165Y-237259625D03*
X100289745Y-223340045D03*
X99390585Y-223340045D03*
X99080165Y-237120465D03*
X99080165Y-238019625D03*
X101120165Y-237120465D03*
X101120165Y-238019625D03*
X105940165Y-228230465D03*
X105940165Y-229129625D03*
X106000585Y-230070045D03*
X106899745Y-230070045D03*
X106899745Y-231720045D03*
X106000585Y-231720045D03*
X105940165Y-234070465D03*
X105940165Y-234969625D03*
X105940165Y-224930465D03*
X105940165Y-225829625D03*
X103969745Y-237310045D03*
X103070585Y-237310045D03*
X108039745Y-232740045D03*
X107140585Y-232740045D03*
X94760165Y-222640465D03*
X94760165Y-223539625D03*
D60*
X108720165Y-234400045D03*
X107220165Y-234400045D03*
D28*
X105749745Y-239090045D03*
X104850585Y-239090045D03*
D60*
X97670165Y-223360045D03*
X96170165Y-223360045D03*
D28*
X107470585Y-223620045D03*
X108369745Y-223620045D03*
X108030585Y-230330045D03*
X108929745Y-230330045D03*
X104999745Y-242140045D03*
X104100585Y-242140045D03*
X92090165Y-232420465D03*
X92090165Y-233319625D03*
X93309745Y-228550045D03*
X92410585Y-228550045D03*
X93370165Y-229500465D03*
X93370165Y-230399625D03*
X95270165Y-236350465D03*
X95270165Y-237249625D03*
X98060165Y-236360465D03*
X98060165Y-237259625D03*
X96220585Y-236300045D03*
X97119745Y-236300045D03*
X103979745Y-236300045D03*
X103080585Y-236300045D03*
X104920165Y-237249625D03*
X104920165Y-236350465D03*
X102130165Y-237259625D03*
X102130165Y-236360465D03*
D60*
X97670165Y-221830045D03*
X96170165Y-221830045D03*
X108720165Y-235920045D03*
X107220165Y-235920045D03*
D28*
X86860585Y-220780045D03*
X87759745Y-220780045D03*
X92600165Y-236990465D03*
X92600165Y-237889625D03*
X85930585Y-224100045D03*
X86829745Y-224100045D03*
X85930585Y-238580045D03*
X86829745Y-238580045D03*
X89879745Y-238580045D03*
X88980585Y-238580045D03*
X88030165Y-237630465D03*
X88030165Y-238529625D03*
X90820165Y-237630465D03*
X90820165Y-238529625D03*
X86890165Y-224160465D03*
X86890165Y-225059625D03*
X86890165Y-238529625D03*
X86890165Y-237630465D03*
X93870165Y-241819625D03*
X93870165Y-240920465D03*
X90300165Y-226139625D03*
X90300165Y-225240465D03*
X94570585Y-240870045D03*
X95469745Y-240870045D03*
X91529745Y-224340045D03*
X90630585Y-224340045D03*
X88730585Y-227030045D03*
X89629745Y-227030045D03*
X97180165Y-241829625D03*
X97180165Y-240930465D03*
X92410585Y-235030045D03*
X93309745Y-235030045D03*
X101800585Y-223350045D03*
X102699745Y-223350045D03*
X105119745Y-223340045D03*
X104220585Y-223340045D03*
X95469745Y-240170045D03*
X94570585Y-240170045D03*
D61*
X91940165Y-238855045D03*
X92600165Y-238855045D03*
X93260165Y-238855045D03*
X93260165Y-239845045D03*
X92600165Y-239845045D03*
X91940165Y-239845045D03*
X89910165Y-229455045D03*
X90570165Y-229455045D03*
X91230165Y-229455045D03*
X91230165Y-230445045D03*
X90570165Y-230445045D03*
X89910165Y-230445045D03*
D62*
X96165165Y-239750045D03*
X96165165Y-239090045D03*
X96165165Y-238430045D03*
X97155165Y-238430045D03*
X97155165Y-239090045D03*
X97155165Y-239750045D03*
X103025165Y-239750045D03*
X103025165Y-239090045D03*
X103025165Y-238430045D03*
X104015165Y-238430045D03*
X104015165Y-239090045D03*
X104015165Y-239750045D03*
D28*
X108929745Y-231340045D03*
X108030585Y-231340045D03*
X157020000Y-231530420D03*
X157020000Y-232429580D03*
X164570420Y-239090000D03*
X165469580Y-239090000D03*
X158800000Y-229500420D03*
X158800000Y-230399580D03*
X159810000Y-232410420D03*
X159810000Y-233309580D03*
X162670420Y-237310000D03*
X163569580Y-237310000D03*
D59*
X159560000Y-222720000D03*
X159560000Y-224220000D03*
D28*
X159509580Y-226520000D03*
X158610420Y-226520000D03*
X158600420Y-225500000D03*
X159499580Y-225500000D03*
X159499580Y-227530000D03*
X158600420Y-227530000D03*
X166739580Y-223340000D03*
X165840420Y-223340000D03*
X165530000Y-237120420D03*
X165530000Y-238019580D03*
X167560000Y-237120420D03*
X167560000Y-238019580D03*
X172390000Y-228230420D03*
X172390000Y-229129580D03*
X172450420Y-230080000D03*
X173349580Y-230080000D03*
X173349580Y-231720000D03*
X172450420Y-231720000D03*
X172390000Y-234070420D03*
X172390000Y-234969580D03*
X172390000Y-224930420D03*
X172390000Y-225829580D03*
X170419580Y-237320000D03*
X169520420Y-237320000D03*
X174489580Y-232740000D03*
X173590420Y-232740000D03*
X161220000Y-222640420D03*
X161220000Y-223539580D03*
D60*
X175170000Y-234400000D03*
X173670000Y-234400000D03*
D28*
X172199580Y-239090000D03*
X171300420Y-239090000D03*
D60*
X164120000Y-223350000D03*
X162620000Y-223350000D03*
D28*
X173920420Y-223620000D03*
X174819580Y-223620000D03*
X174480420Y-230330000D03*
X175379580Y-230330000D03*
X171439580Y-242140000D03*
X170540420Y-242140000D03*
X175369580Y-231340000D03*
X174470420Y-231340000D03*
X158550000Y-232420420D03*
X158550000Y-233319580D03*
X159759580Y-228550000D03*
X158860420Y-228550000D03*
X159759580Y-231350000D03*
X158860420Y-231350000D03*
X159820000Y-229500420D03*
X159820000Y-230399580D03*
X161720000Y-236350420D03*
X161720000Y-237249580D03*
X164520000Y-236360420D03*
X164520000Y-237259580D03*
X162670420Y-236300000D03*
X163569580Y-236300000D03*
X170429580Y-236300000D03*
X169530420Y-236300000D03*
X171370000Y-237249580D03*
X171370000Y-236350420D03*
X168580000Y-237249580D03*
X168580000Y-236350420D03*
D60*
X164120000Y-221820000D03*
X162620000Y-221820000D03*
X175170000Y-235920000D03*
X173670000Y-235920000D03*
D28*
X153320420Y-220770000D03*
X154219580Y-220770000D03*
X152380420Y-224110000D03*
X153279580Y-224110000D03*
X152370420Y-238580000D03*
X153269580Y-238580000D03*
X156329580Y-238580000D03*
X155430420Y-238580000D03*
X154480000Y-237630420D03*
X154480000Y-238529580D03*
X157270000Y-237620420D03*
X157270000Y-238519580D03*
X153340000Y-224160420D03*
X153340000Y-225059580D03*
X153340000Y-238519580D03*
X153340000Y-237620420D03*
X160320000Y-241829580D03*
X160320000Y-240930420D03*
X161020420Y-240870000D03*
X161919580Y-240870000D03*
X163620000Y-241829580D03*
X163620000Y-240930420D03*
X158850420Y-235030000D03*
X159749580Y-235030000D03*
X168250420Y-223340000D03*
X169149580Y-223340000D03*
X171569580Y-223340000D03*
X170670420Y-223340000D03*
D42*
X154720000Y-221985000D03*
D43*
X155710000Y-221785000D03*
D42*
X156700000Y-221985000D03*
X156700000Y-223635000D03*
D43*
X155710000Y-223835000D03*
D42*
X154720000Y-223635000D03*
D61*
X158390000Y-238845000D03*
X159050000Y-238845000D03*
X159710000Y-238845000D03*
X159710000Y-239835000D03*
X159050000Y-239835000D03*
X158390000Y-239835000D03*
D62*
X162625000Y-239750000D03*
X162625000Y-239090000D03*
X162625000Y-238430000D03*
X163615000Y-238430000D03*
X163615000Y-239090000D03*
X163615000Y-239750000D03*
D37*
X161908500Y-226200000D03*
D38*
X161908500Y-226699999D03*
X161908500Y-227200000D03*
X161908500Y-227699999D03*
X161908500Y-228200001D03*
X161908500Y-228700000D03*
X161908500Y-229199999D03*
X161908500Y-229700000D03*
X161908500Y-230200000D03*
X161908500Y-230700001D03*
X161908500Y-231200000D03*
X161908500Y-231699999D03*
X161908500Y-232200001D03*
X161908500Y-232700000D03*
X161908500Y-233200001D03*
D37*
X161908500Y-233700000D03*
X162540000Y-234331500D03*
D39*
X163039999Y-234331500D03*
X163540000Y-234331500D03*
X164039999Y-234331500D03*
X164540001Y-234331500D03*
X165040000Y-234331500D03*
X165539999Y-234331500D03*
X166040000Y-234331500D03*
X166540000Y-234331500D03*
X167040001Y-234331500D03*
X167540000Y-234331500D03*
X168039999Y-234331500D03*
X168540001Y-234331500D03*
X169040000Y-234331500D03*
X169540001Y-234331500D03*
D37*
X170040000Y-234331500D03*
X170671500Y-233700000D03*
D38*
X170671500Y-233200001D03*
X170671500Y-232700000D03*
X170671500Y-232200001D03*
X170671500Y-231699999D03*
X170671500Y-231200000D03*
X170671500Y-230700001D03*
X170671500Y-230200000D03*
X170671500Y-229700000D03*
X170671500Y-229199999D03*
X170671500Y-228700000D03*
X170671500Y-228200001D03*
X170671500Y-227699999D03*
X170671500Y-227200000D03*
X170671500Y-226699999D03*
D37*
X170671500Y-226200000D03*
X170040000Y-225568500D03*
D39*
X169540001Y-225568500D03*
X169040000Y-225568500D03*
X168540001Y-225568500D03*
X168039999Y-225568500D03*
X167540000Y-225568500D03*
X167040001Y-225568500D03*
X166540000Y-225568500D03*
X166040000Y-225568500D03*
X165539999Y-225568500D03*
X165040000Y-225568500D03*
X164540001Y-225568500D03*
X164039999Y-225568500D03*
X163540000Y-225568500D03*
X163039999Y-225568500D03*
D37*
X162540000Y-225568500D03*
D40*
X166290000Y-229950000D03*
D62*
X169485000Y-239750000D03*
X169485000Y-239090000D03*
X169485000Y-238430000D03*
X170475000Y-238430000D03*
X170475000Y-239090000D03*
X170475000Y-239750000D03*
D10*
G36*
X157418223Y-242707901D02*
X156927901Y-243198223D01*
X156437579Y-242707901D01*
X156927901Y-242217579D01*
X157418223Y-242707901D01*
X157418223Y-242707901D01*
G37*
G36*
X156782421Y-242072099D02*
X156292099Y-242562421D01*
X155801777Y-242072099D01*
X156292099Y-241581777D01*
X156782421Y-242072099D01*
X156782421Y-242072099D01*
G37*
D28*
X157699580Y-220900000D03*
X156800420Y-220900000D03*
X155739580Y-228420000D03*
X154840420Y-228420000D03*
X160700000Y-236350420D03*
X160700000Y-237249580D03*
X156760000Y-226129580D03*
X156760000Y-225230420D03*
X157979580Y-224330000D03*
X157080420Y-224330000D03*
X155180420Y-227030000D03*
X156079580Y-227030000D03*
D63*
X71520000Y-234920000D03*
X71520000Y-230920000D03*
X80520000Y-230920000D03*
X80520000Y-234920000D03*
X137960000Y-234920000D03*
X137960000Y-230920000D03*
X146960000Y-230920000D03*
X146960000Y-234920000D03*
D61*
X156360000Y-229455000D03*
X157020000Y-229455000D03*
X157680000Y-229455000D03*
X157680000Y-230445000D03*
X157020000Y-230445000D03*
X156360000Y-230445000D03*
D55*
X174150000Y-226190000D03*
X174150000Y-228390000D03*
X175750000Y-228390000D03*
X175750000Y-226190000D03*
D56*
X160095000Y-199720000D03*
X160645000Y-199720000D03*
D58*
X170580000Y-199555000D03*
X170580000Y-200105000D03*
D56*
X171195000Y-199630000D03*
X171745000Y-199630000D03*
X171205000Y-200230000D03*
X171755000Y-200230000D03*
D58*
X172380000Y-199655000D03*
X172380000Y-200205000D03*
X169970000Y-200105000D03*
X169970000Y-199555000D03*
D56*
X194695000Y-203010000D03*
X194145000Y-203010000D03*
D58*
X183880000Y-201905000D03*
X183880000Y-201355000D03*
D56*
X183255000Y-201830000D03*
X182705000Y-201830000D03*
X183255000Y-201230000D03*
X182705000Y-201230000D03*
D58*
X182080000Y-201805000D03*
X182080000Y-201255000D03*
X174750000Y-217925000D03*
X174750000Y-218475000D03*
X173470000Y-182745000D03*
X173470000Y-182195000D03*
X181740000Y-217915000D03*
X181740000Y-218465000D03*
X184480000Y-201355000D03*
X184480000Y-201905000D03*
D10*
G36*
X175670621Y-221671942D02*
X176377728Y-220964835D01*
X177615165Y-222202272D01*
X176908058Y-222909379D01*
X175670621Y-221671942D01*
X175670621Y-221671942D01*
G37*
G36*
X177084835Y-220257728D02*
X177791942Y-219550621D01*
X179029379Y-220788058D01*
X178322272Y-221495165D01*
X177084835Y-220257728D01*
X177084835Y-220257728D01*
G37*
G36*
X178057107Y-222361371D02*
X178481371Y-221937107D01*
X179188477Y-222644213D01*
X178764213Y-223068477D01*
X178057107Y-222361371D01*
X178057107Y-222361371D01*
G37*
G36*
X175511523Y-219815787D02*
X175935787Y-219391523D01*
X176642893Y-220098629D01*
X176218629Y-220522893D01*
X175511523Y-219815787D01*
X175511523Y-219815787D01*
G37*
D56*
X160115000Y-203410000D03*
X160665000Y-203410000D03*
X194775000Y-198050000D03*
X194225000Y-198050000D03*
D58*
X179250000Y-182755000D03*
X179250000Y-182205000D03*
X186610000Y-219375000D03*
X186610000Y-218825000D03*
X170580000Y-198955000D03*
X170580000Y-199505000D03*
X170580000Y-200155000D03*
X170580000Y-200705000D03*
X183880000Y-202505000D03*
X183880000Y-201955000D03*
X183880000Y-201305000D03*
X183880000Y-200755000D03*
D48*
X196970000Y-224730000D03*
X196970000Y-219990000D03*
D49*
X194600000Y-222360000D03*
D48*
X192230000Y-219990000D03*
X192230000Y-224730000D03*
D28*
X93299745Y-231330045D03*
X92400585Y-231330045D03*
D48*
X78960000Y-256090000D03*
X78960000Y-251350000D03*
D49*
X76590000Y-253720000D03*
D48*
X74220000Y-251350000D03*
X74220000Y-256090000D03*
D64*
X136805000Y-241855000D03*
X135855000Y-239855000D03*
X137755000Y-239855000D03*
D10*
G36*
X78232099Y-222218223D02*
X77741777Y-221727901D01*
X78232099Y-221237579D01*
X78722421Y-221727901D01*
X78232099Y-222218223D01*
X78232099Y-222218223D01*
G37*
G36*
X78867901Y-221582421D02*
X78377579Y-221092099D01*
X78867901Y-220601777D01*
X79358223Y-221092099D01*
X78867901Y-221582421D01*
X78867901Y-221582421D01*
G37*
G36*
X76862099Y-220818223D02*
X76371777Y-220327901D01*
X76862099Y-219837579D01*
X77352421Y-220327901D01*
X76862099Y-220818223D01*
X76862099Y-220818223D01*
G37*
G36*
X77497901Y-220182421D02*
X77007579Y-219692099D01*
X77497901Y-219201777D01*
X77988223Y-219692099D01*
X77497901Y-220182421D01*
X77497901Y-220182421D01*
G37*
G36*
X76372099Y-220348223D02*
X75881777Y-219857901D01*
X76372099Y-219367579D01*
X76862421Y-219857901D01*
X76372099Y-220348223D01*
X76372099Y-220348223D01*
G37*
G36*
X77007901Y-219712421D02*
X76517579Y-219222099D01*
X77007901Y-218731777D01*
X77498223Y-219222099D01*
X77007901Y-219712421D01*
X77007901Y-219712421D01*
G37*
G36*
X72487901Y-227031777D02*
X72978223Y-227522099D01*
X72487901Y-228012421D01*
X71997579Y-227522099D01*
X72487901Y-227031777D01*
X72487901Y-227031777D01*
G37*
G36*
X71852099Y-227667579D02*
X72342421Y-228157901D01*
X71852099Y-228648223D01*
X71361777Y-228157901D01*
X71852099Y-227667579D01*
X71852099Y-227667579D01*
G37*
G36*
X71997901Y-226541777D02*
X72488223Y-227032099D01*
X71997901Y-227522421D01*
X71507579Y-227032099D01*
X71997901Y-226541777D01*
X71997901Y-226541777D01*
G37*
G36*
X71362099Y-227177579D02*
X71852421Y-227667901D01*
X71362099Y-228158223D01*
X70871777Y-227667901D01*
X71362099Y-227177579D01*
X71362099Y-227177579D01*
G37*
G36*
X71077901Y-225621777D02*
X71568223Y-226112099D01*
X71077901Y-226602421D01*
X70587579Y-226112099D01*
X71077901Y-225621777D01*
X71077901Y-225621777D01*
G37*
G36*
X70442099Y-226257579D02*
X70932421Y-226747901D01*
X70442099Y-227238223D01*
X69951777Y-226747901D01*
X70442099Y-226257579D01*
X70442099Y-226257579D01*
G37*
G36*
X70617901Y-225161777D02*
X71108223Y-225652099D01*
X70617901Y-226142421D01*
X70127579Y-225652099D01*
X70617901Y-225161777D01*
X70617901Y-225161777D01*
G37*
G36*
X69982099Y-225797579D02*
X70472421Y-226287901D01*
X69982099Y-226778223D01*
X69491777Y-226287901D01*
X69982099Y-225797579D01*
X69982099Y-225797579D01*
G37*
G36*
X144668829Y-222206981D02*
X144178507Y-221716659D01*
X144668829Y-221226337D01*
X145159151Y-221716659D01*
X144668829Y-222206981D01*
X144668829Y-222206981D01*
G37*
G36*
X145304631Y-221571179D02*
X144814309Y-221080857D01*
X145304631Y-220590535D01*
X145794953Y-221080857D01*
X145304631Y-221571179D01*
X145304631Y-221571179D01*
G37*
G36*
X144216280Y-221740291D02*
X143725958Y-221249969D01*
X144216280Y-220759647D01*
X144706602Y-221249969D01*
X144216280Y-221740291D01*
X144216280Y-221740291D01*
G37*
G36*
X144852082Y-221104489D02*
X144361760Y-220614167D01*
X144852082Y-220123845D01*
X145342404Y-220614167D01*
X144852082Y-221104489D01*
X144852082Y-221104489D01*
G37*
G36*
X143297041Y-220821053D02*
X142806719Y-220330731D01*
X143297041Y-219840409D01*
X143787363Y-220330731D01*
X143297041Y-220821053D01*
X143297041Y-220821053D01*
G37*
G36*
X143932843Y-220185251D02*
X143442521Y-219694929D01*
X143932843Y-219204607D01*
X144423165Y-219694929D01*
X143932843Y-220185251D01*
X143932843Y-220185251D01*
G37*
G36*
X142816209Y-220340219D02*
X142325887Y-219849897D01*
X142816209Y-219359575D01*
X143306531Y-219849897D01*
X142816209Y-220340219D01*
X142816209Y-220340219D01*
G37*
G36*
X143452011Y-219704417D02*
X142961689Y-219214095D01*
X143452011Y-218723773D01*
X143942333Y-219214095D01*
X143452011Y-219704417D01*
X143452011Y-219704417D01*
G37*
G36*
X138926527Y-227025208D02*
X139416849Y-227515530D01*
X138926527Y-228005852D01*
X138436205Y-227515530D01*
X138926527Y-227025208D01*
X138926527Y-227025208D01*
G37*
G36*
X138290725Y-227661010D02*
X138781047Y-228151332D01*
X138290725Y-228641654D01*
X137800403Y-228151332D01*
X138290725Y-227661010D01*
X138290725Y-227661010D01*
G37*
G36*
X138438624Y-226537303D02*
X138928946Y-227027625D01*
X138438624Y-227517947D01*
X137948302Y-227027625D01*
X138438624Y-226537303D01*
X138438624Y-226537303D01*
G37*
G36*
X137802822Y-227173105D02*
X138293144Y-227663427D01*
X137802822Y-228153749D01*
X137312500Y-227663427D01*
X137802822Y-227173105D01*
X137802822Y-227173105D01*
G37*
G36*
X137519384Y-225618065D02*
X138009706Y-226108387D01*
X137519384Y-226598709D01*
X137029062Y-226108387D01*
X137519384Y-225618065D01*
X137519384Y-225618065D01*
G37*
G36*
X136883582Y-226253867D02*
X137373904Y-226744189D01*
X136883582Y-227234511D01*
X136393260Y-226744189D01*
X136883582Y-226253867D01*
X136883582Y-226253867D01*
G37*
G36*
X137059766Y-225158445D02*
X137550088Y-225648767D01*
X137059766Y-226139089D01*
X136569444Y-225648767D01*
X137059766Y-225158445D01*
X137059766Y-225158445D01*
G37*
G36*
X136423964Y-225794247D02*
X136914286Y-226284569D01*
X136423964Y-226774891D01*
X135933642Y-226284569D01*
X136423964Y-225794247D01*
X136423964Y-225794247D01*
G37*
D28*
X141749580Y-240780000D03*
X140850420Y-240780000D03*
X138910420Y-240770000D03*
X139809580Y-240770000D03*
D65*
X144070000Y-244170000D03*
X144070000Y-240770000D03*
D10*
G36*
X74270901Y-226349328D02*
X74518388Y-226596815D01*
X73387017Y-227728186D01*
X73139530Y-227480699D01*
X74270901Y-226349328D01*
X74270901Y-226349328D01*
G37*
G36*
X73811282Y-225889709D02*
X74058769Y-226137196D01*
X72927398Y-227268567D01*
X72679911Y-227021080D01*
X73811282Y-225889709D01*
X73811282Y-225889709D01*
G37*
G36*
X73351662Y-225430089D02*
X73599149Y-225677576D01*
X72467778Y-226808947D01*
X72220291Y-226561460D01*
X73351662Y-225430089D01*
X73351662Y-225430089D01*
G37*
G36*
X72892043Y-224970470D02*
X73139530Y-225217957D01*
X72008159Y-226349328D01*
X71760672Y-226101841D01*
X72892043Y-224970470D01*
X72892043Y-224970470D01*
G37*
G36*
X72432424Y-224510851D02*
X72679911Y-224758338D01*
X71548540Y-225889709D01*
X71301053Y-225642222D01*
X72432424Y-224510851D01*
X72432424Y-224510851D01*
G37*
G36*
X71972804Y-224051231D02*
X72220291Y-224298718D01*
X71088920Y-225430089D01*
X70841433Y-225182602D01*
X71972804Y-224051231D01*
X71972804Y-224051231D01*
G37*
G36*
X71513185Y-223591612D02*
X71760672Y-223839099D01*
X70629301Y-224970470D01*
X70381814Y-224722983D01*
X71513185Y-223591612D01*
X71513185Y-223591612D01*
G37*
G36*
X75472983Y-219631814D02*
X75720470Y-219879301D01*
X74589099Y-221010672D01*
X74341612Y-220763185D01*
X75472983Y-219631814D01*
X75472983Y-219631814D01*
G37*
G36*
X75932602Y-220091433D02*
X76180089Y-220338920D01*
X75048718Y-221470291D01*
X74801231Y-221222804D01*
X75932602Y-220091433D01*
X75932602Y-220091433D01*
G37*
G36*
X76392222Y-220551053D02*
X76639709Y-220798540D01*
X75508338Y-221929911D01*
X75260851Y-221682424D01*
X76392222Y-220551053D01*
X76392222Y-220551053D01*
G37*
G36*
X76851841Y-221010672D02*
X77099328Y-221258159D01*
X75967957Y-222389530D01*
X75720470Y-222142043D01*
X76851841Y-221010672D01*
X76851841Y-221010672D01*
G37*
G36*
X77311460Y-221470291D02*
X77558947Y-221717778D01*
X76427576Y-222849149D01*
X76180089Y-222601662D01*
X77311460Y-221470291D01*
X77311460Y-221470291D01*
G37*
G36*
X77771080Y-221929911D02*
X78018567Y-222177398D01*
X76887196Y-223308769D01*
X76639709Y-223061282D01*
X77771080Y-221929911D01*
X77771080Y-221929911D01*
G37*
G36*
X78230699Y-222389530D02*
X78478186Y-222637017D01*
X77346815Y-223768388D01*
X77099328Y-223520901D01*
X78230699Y-222389530D01*
X78230699Y-222389530D01*
G37*
G36*
X140712269Y-226344970D02*
X140959756Y-226592457D01*
X139828385Y-227723828D01*
X139580898Y-227476341D01*
X140712269Y-226344970D01*
X140712269Y-226344970D01*
G37*
G36*
X140252650Y-225885351D02*
X140500137Y-226132838D01*
X139368766Y-227264209D01*
X139121279Y-227016722D01*
X140252650Y-225885351D01*
X140252650Y-225885351D01*
G37*
G36*
X139793030Y-225425731D02*
X140040517Y-225673218D01*
X138909146Y-226804589D01*
X138661659Y-226557102D01*
X139793030Y-225425731D01*
X139793030Y-225425731D01*
G37*
G36*
X139333411Y-224966112D02*
X139580898Y-225213599D01*
X138449527Y-226344970D01*
X138202040Y-226097483D01*
X139333411Y-224966112D01*
X139333411Y-224966112D01*
G37*
G36*
X138873792Y-224506493D02*
X139121279Y-224753980D01*
X137989908Y-225885351D01*
X137742421Y-225637864D01*
X138873792Y-224506493D01*
X138873792Y-224506493D01*
G37*
G36*
X138414172Y-224046873D02*
X138661659Y-224294360D01*
X137530288Y-225425731D01*
X137282801Y-225178244D01*
X138414172Y-224046873D01*
X138414172Y-224046873D01*
G37*
G36*
X137954553Y-223587254D02*
X138202040Y-223834741D01*
X137070669Y-224966112D01*
X136823182Y-224718625D01*
X137954553Y-223587254D01*
X137954553Y-223587254D01*
G37*
G36*
X141914351Y-219627456D02*
X142161838Y-219874943D01*
X141030467Y-221006314D01*
X140782980Y-220758827D01*
X141914351Y-219627456D01*
X141914351Y-219627456D01*
G37*
G36*
X142373970Y-220087075D02*
X142621457Y-220334562D01*
X141490086Y-221465933D01*
X141242599Y-221218446D01*
X142373970Y-220087075D01*
X142373970Y-220087075D01*
G37*
G36*
X142833590Y-220546695D02*
X143081077Y-220794182D01*
X141949706Y-221925553D01*
X141702219Y-221678066D01*
X142833590Y-220546695D01*
X142833590Y-220546695D01*
G37*
G36*
X143293209Y-221006314D02*
X143540696Y-221253801D01*
X142409325Y-222385172D01*
X142161838Y-222137685D01*
X143293209Y-221006314D01*
X143293209Y-221006314D01*
G37*
G36*
X143752828Y-221465933D02*
X144000315Y-221713420D01*
X142868944Y-222844791D01*
X142621457Y-222597304D01*
X143752828Y-221465933D01*
X143752828Y-221465933D01*
G37*
G36*
X144212448Y-221925553D02*
X144459935Y-222173040D01*
X143328564Y-223304411D01*
X143081077Y-223056924D01*
X144212448Y-221925553D01*
X144212448Y-221925553D01*
G37*
G36*
X144672067Y-222385172D02*
X144919554Y-222632659D01*
X143788183Y-223764030D01*
X143540696Y-223516543D01*
X144672067Y-222385172D01*
X144672067Y-222385172D01*
G37*
G36*
X77772099Y-221748223D02*
X77281777Y-221257901D01*
X77772099Y-220767579D01*
X78262421Y-221257901D01*
X77772099Y-221748223D01*
X77772099Y-221748223D01*
G37*
G36*
X78407901Y-221112421D02*
X77917579Y-220622099D01*
X78407901Y-220131777D01*
X78898223Y-220622099D01*
X78407901Y-221112421D01*
X78407901Y-221112421D01*
G37*
D66*
X165115160Y-197178880D03*
X165115160Y-198448880D03*
X165115160Y-199718880D03*
X161937620Y-199718880D03*
X161937620Y-197178880D03*
D29*
X181761120Y-187545160D03*
X180491120Y-187545160D03*
X179221120Y-187545160D03*
X179221120Y-184367620D03*
X181761120Y-184367620D03*
D67*
X163260000Y-203420000D03*
D68*
X164175000Y-204130000D03*
D69*
X163895000Y-203420000D03*
D68*
X164175000Y-202710000D03*
D69*
X162625000Y-202710000D03*
D68*
X162345000Y-203420000D03*
D69*
X162625000Y-204130000D03*
D67*
X191300000Y-198050000D03*
D68*
X190385000Y-197340000D03*
D69*
X190665000Y-198050000D03*
D68*
X190385000Y-198760000D03*
D69*
X191935000Y-198760000D03*
D68*
X192215000Y-198050000D03*
D69*
X191935000Y-197340000D03*
D70*
X173480000Y-185620000D03*
D71*
X172770000Y-186535000D03*
D72*
X173480000Y-186255000D03*
D71*
X174190000Y-186535000D03*
D72*
X174190000Y-184985000D03*
D71*
X173480000Y-184705000D03*
D72*
X172770000Y-184985000D03*
D73*
X174380000Y-215700000D03*
X174380000Y-215050000D03*
X174380000Y-214400000D03*
X172580000Y-214400000D03*
X172580000Y-215050000D03*
X172580000Y-215700000D03*
X179590000Y-185010000D03*
X179590000Y-185660000D03*
X179590000Y-186310000D03*
X181390000Y-186310000D03*
X181390000Y-185660000D03*
X181390000Y-185010000D03*
D28*
X100450000Y-146359580D03*
X100450000Y-145460420D03*
X94700000Y-146280420D03*
X94700000Y-147179580D03*
D59*
X93740000Y-145790000D03*
X93740000Y-147290000D03*
D28*
X96310000Y-141880420D03*
X96310000Y-142779580D03*
X92140000Y-142250420D03*
X92140000Y-143149580D03*
D59*
X91120000Y-142050000D03*
X91120000Y-143550000D03*
D28*
X94869580Y-139830000D03*
X93970420Y-139830000D03*
X92680000Y-138729580D03*
X92680000Y-137830420D03*
X103360000Y-139819580D03*
X103360000Y-138920420D03*
D59*
X93770000Y-136630000D03*
X93770000Y-135130000D03*
D28*
X94780000Y-136559580D03*
X94780000Y-135660420D03*
X100340420Y-137850000D03*
X101239580Y-137850000D03*
X100310420Y-135920000D03*
X101209580Y-135920000D03*
X100170000Y-132579580D03*
X100170000Y-131680420D03*
X166905000Y-146354580D03*
X166905000Y-145455420D03*
X161155000Y-146275420D03*
X161135000Y-147174580D03*
D59*
X160195000Y-145785000D03*
X160175000Y-147285000D03*
D28*
X162765000Y-141875420D03*
X162765000Y-142774580D03*
D60*
X171980000Y-140790000D03*
X173480000Y-140790000D03*
D28*
X158595000Y-142245420D03*
X158595000Y-143144580D03*
D59*
X157565000Y-142045000D03*
X157565000Y-143545000D03*
D28*
X161314580Y-139815000D03*
X160415420Y-139815000D03*
X159135000Y-138724580D03*
X159135000Y-137825420D03*
X169790000Y-139819580D03*
X169790000Y-138920420D03*
D59*
X160240000Y-136640000D03*
X160240000Y-135140000D03*
D28*
X161235000Y-136554580D03*
X161235000Y-135655420D03*
X166795420Y-137845000D03*
X167694580Y-137845000D03*
X166765420Y-135915000D03*
X167664580Y-135915000D03*
X166625000Y-132574580D03*
X166625000Y-131675420D03*
X113900000Y-143610420D03*
X113900000Y-144509580D03*
X117000000Y-144769580D03*
X117000000Y-143870420D03*
X118180000Y-144769580D03*
X118180000Y-143870420D03*
X109730000Y-140620420D03*
X109730000Y-141519580D03*
X109720000Y-138600420D03*
X109720000Y-139499580D03*
X110750000Y-135510420D03*
X110750000Y-136409580D03*
X111880000Y-136500420D03*
X111880000Y-137399580D03*
X113900000Y-136340420D03*
X113900000Y-137239580D03*
X175265000Y-153334580D03*
X175265000Y-152435420D03*
X180355000Y-143605420D03*
X180355000Y-144504580D03*
X183455000Y-144764580D03*
X183455000Y-143865420D03*
X184635000Y-144764580D03*
X184635000Y-143865420D03*
X176185000Y-140615420D03*
X176185000Y-141514580D03*
X176175000Y-138595420D03*
X176175000Y-139494580D03*
X177205000Y-135505420D03*
X177205000Y-136404580D03*
X178335000Y-136495420D03*
X178335000Y-137394580D03*
X180355000Y-136335420D03*
X180355000Y-137234580D03*
X100460000Y-147250420D03*
X100460000Y-148149580D03*
D60*
X95720000Y-147350000D03*
X97220000Y-147350000D03*
D28*
X97219580Y-144430000D03*
X96320420Y-144430000D03*
D60*
X93680000Y-142100000D03*
X95180000Y-142100000D03*
X95570000Y-138130000D03*
X97070000Y-138130000D03*
D28*
X166905000Y-147255420D03*
X166905000Y-148154580D03*
D60*
X162155000Y-147345000D03*
X163655000Y-147345000D03*
D28*
X163654580Y-144435000D03*
X162755420Y-144435000D03*
D60*
X160135000Y-142095000D03*
X161635000Y-142095000D03*
X162025000Y-138125000D03*
X163525000Y-138125000D03*
D28*
X113000420Y-138420000D03*
X113899580Y-138420000D03*
X179455420Y-138415000D03*
X180354580Y-138415000D03*
X92559580Y-147310000D03*
X91660420Y-147310000D03*
X104660420Y-142640000D03*
X105559580Y-142640000D03*
X104640420Y-141650000D03*
X105539580Y-141650000D03*
X91510000Y-138719580D03*
X91510000Y-137820420D03*
X159004580Y-147305000D03*
X158105420Y-147305000D03*
X171090420Y-142640000D03*
X171989580Y-142640000D03*
X171070420Y-141650000D03*
X171969580Y-141650000D03*
X157955000Y-138714580D03*
X157955000Y-137815420D03*
X116999580Y-142780000D03*
X116100420Y-142780000D03*
X111759580Y-141530000D03*
X110860420Y-141530000D03*
X111769580Y-140030000D03*
X110870420Y-140030000D03*
X176645420Y-153655000D03*
X177544580Y-153655000D03*
X177554580Y-152525000D03*
X176655420Y-152525000D03*
X183454580Y-142775000D03*
X182555420Y-142775000D03*
X178214580Y-141525000D03*
X177315420Y-141525000D03*
X178224580Y-140025000D03*
X177325420Y-140025000D03*
D74*
X102100000Y-141490000D03*
X102100000Y-141990000D03*
X102100000Y-140990000D03*
X102100000Y-140490000D03*
X102100000Y-139990000D03*
X102100000Y-142490000D03*
X98300000Y-142490000D03*
X98300000Y-139990000D03*
X98300000Y-140490000D03*
X98300000Y-140990000D03*
X98300000Y-141990000D03*
X98300000Y-141490000D03*
D75*
X99950000Y-139340000D03*
X99450000Y-139340000D03*
X100450000Y-139340000D03*
X100950000Y-139340000D03*
X101450000Y-139340000D03*
X98950000Y-139340000D03*
X98950000Y-143140000D03*
X101450000Y-143140000D03*
X100950000Y-143140000D03*
X100450000Y-143140000D03*
X99450000Y-143140000D03*
D76*
X100200000Y-141240000D03*
D75*
X99950000Y-143140000D03*
D74*
X168530000Y-141490000D03*
X168530000Y-141990000D03*
X168530000Y-140990000D03*
X168530000Y-140490000D03*
X168530000Y-139990000D03*
X168530000Y-142490000D03*
X164730000Y-142490000D03*
X164730000Y-139990000D03*
X164730000Y-140490000D03*
X164730000Y-140990000D03*
X164730000Y-141990000D03*
X164730000Y-141490000D03*
D75*
X166380000Y-139340000D03*
X165880000Y-139340000D03*
X166880000Y-139340000D03*
X167380000Y-139340000D03*
X167880000Y-139340000D03*
X165380000Y-139340000D03*
X165380000Y-143140000D03*
X167880000Y-143140000D03*
X167380000Y-143140000D03*
X166880000Y-143140000D03*
X165880000Y-143140000D03*
D76*
X166630000Y-141240000D03*
D75*
X166380000Y-143140000D03*
D77*
X172005000Y-138705000D03*
X170705000Y-138705000D03*
X170705000Y-136505000D03*
X171355000Y-136505000D03*
X172005000Y-136505000D03*
D78*
X175245000Y-151255000D03*
X175245000Y-149955000D03*
X177445000Y-149955000D03*
X177445000Y-150605000D03*
X177445000Y-151255000D03*
D79*
X162580000Y-199350000D03*
X163230000Y-199350000D03*
X163880000Y-199350000D03*
X163880000Y-197550000D03*
X163230000Y-197550000D03*
X162580000Y-197550000D03*
D80*
X183530000Y-222370000D03*
X183530000Y-219470000D03*
D81*
X185030000Y-220920000D03*
X182030000Y-220920000D03*
D28*
X180240420Y-219670000D03*
X181139580Y-219670000D03*
X175779580Y-245290000D03*
X174880420Y-245290000D03*
X175780000Y-246189580D03*
X175780000Y-245290420D03*
X154290000Y-217090420D03*
X154290000Y-217989580D03*
D27*
X169095000Y-145355000D03*
X171625000Y-146955000D03*
X168925000Y-131275000D03*
X171465000Y-132875000D03*
X175215000Y-144975000D03*
X177765000Y-146575000D03*
D28*
X172235000Y-154815420D03*
X172235000Y-155714580D03*
X173400000Y-124549580D03*
X173400000Y-123650420D03*
X176470000Y-118239580D03*
X176470000Y-117340420D03*
X175820420Y-122900000D03*
X176719580Y-122900000D03*
D82*
X172475000Y-158105000D03*
X172475000Y-157605000D03*
X172475000Y-157105000D03*
X174335000Y-157105000D03*
X174335000Y-157605000D03*
X174335000Y-158105000D03*
D83*
X172905000Y-156675000D03*
X173405000Y-156675000D03*
X173905000Y-156675000D03*
X173905000Y-158535000D03*
X173405000Y-158535000D03*
D84*
X173405000Y-157605000D03*
D83*
X172905000Y-158535000D03*
D82*
X174335000Y-126115000D03*
X174335000Y-126615000D03*
X174335000Y-127115000D03*
X172475000Y-127115000D03*
X172475000Y-126615000D03*
X172475000Y-126115000D03*
D83*
X173905000Y-127545000D03*
X173405000Y-127545000D03*
X172905000Y-127545000D03*
X172905000Y-125685000D03*
X173405000Y-125685000D03*
D84*
X173405000Y-126615000D03*
D83*
X173905000Y-125685000D03*
D82*
X177405000Y-120465000D03*
X177405000Y-120965000D03*
X177405000Y-121465000D03*
X175545000Y-121465000D03*
X175545000Y-120965000D03*
X175545000Y-120465000D03*
D83*
X176975000Y-121895000D03*
X176475000Y-121895000D03*
X175975000Y-121895000D03*
X175975000Y-120035000D03*
X176475000Y-120035000D03*
D84*
X176475000Y-120965000D03*
D83*
X176975000Y-120035000D03*
D85*
X172340420Y-101985420D03*
X180540420Y-101985420D03*
D86*
X176440420Y-100735420D03*
D28*
X201319580Y-149290000D03*
X200420420Y-149290000D03*
X201319580Y-148440000D03*
X200420420Y-148440000D03*
D85*
X194710420Y-101985420D03*
X202910420Y-101985420D03*
D86*
X198810420Y-100735420D03*
D10*
G36*
X111967901Y-113201777D02*
X112458223Y-113692099D01*
X111967901Y-114182421D01*
X111477579Y-113692099D01*
X111967901Y-113201777D01*
X111967901Y-113201777D01*
G37*
G36*
X111332099Y-113837579D02*
X111822421Y-114327901D01*
X111332099Y-114818223D01*
X110841777Y-114327901D01*
X111332099Y-113837579D01*
X111332099Y-113837579D01*
G37*
D87*
X198810000Y-141655000D03*
X198820000Y-147295000D03*
D88*
X198820000Y-144470000D03*
D87*
X198810000Y-141655000D03*
X198810000Y-147305000D03*
D88*
X198810000Y-144480000D03*
D28*
X184190420Y-124630000D03*
X185089580Y-124630000D03*
X179509580Y-120970000D03*
X178610420Y-120970000D03*
X187899580Y-122760000D03*
X187000420Y-122760000D03*
X198800000Y-114640420D03*
X198800000Y-115539580D03*
X155949580Y-246330000D03*
X155050420Y-246330000D03*
X155950000Y-245430420D03*
X155950000Y-246329580D03*
X154289580Y-217090000D03*
X153390420Y-217090000D03*
X196400000Y-201600420D03*
X196400000Y-202499580D03*
D82*
X185770000Y-122260000D03*
X185770000Y-122760000D03*
X185770000Y-123260000D03*
X183910000Y-123260000D03*
X183910000Y-122760000D03*
X183910000Y-122260000D03*
D83*
X185340000Y-123690000D03*
X184840000Y-123690000D03*
X184340000Y-123690000D03*
X184340000Y-121830000D03*
X184840000Y-121830000D03*
D84*
X184840000Y-122760000D03*
D83*
X185340000Y-121830000D03*
D28*
X122680000Y-132760420D03*
X122680000Y-133659580D03*
X128899580Y-138570000D03*
X128000420Y-138570000D03*
X125420000Y-139789580D03*
X125420000Y-138890420D03*
X126230000Y-139789580D03*
X126230000Y-138890420D03*
X189125000Y-132755420D03*
X189125000Y-133654580D03*
X195344580Y-138565000D03*
X194445420Y-138565000D03*
X191865000Y-139784580D03*
X191865000Y-138885420D03*
X192685000Y-139784580D03*
X192685000Y-138885420D03*
X122679580Y-134580000D03*
X121780420Y-134580000D03*
X124429580Y-139820000D03*
X123530420Y-139820000D03*
X189124580Y-134585000D03*
X188225420Y-134585000D03*
X190874580Y-139815000D03*
X189975420Y-139815000D03*
X127340000Y-130280420D03*
X127340000Y-131179580D03*
X126450420Y-132440000D03*
X127349580Y-132440000D03*
X125430000Y-136020420D03*
X125430000Y-136919580D03*
X193795000Y-130285420D03*
X193795000Y-131184580D03*
X192895420Y-132445000D03*
X193794580Y-132445000D03*
X191875000Y-136025420D03*
X191875000Y-136924580D03*
D77*
X128000000Y-136670000D03*
X126700000Y-136670000D03*
X126700000Y-134470000D03*
X127350000Y-134470000D03*
X128000000Y-134470000D03*
D89*
X124065000Y-136460000D03*
X124065000Y-136970000D03*
X124065000Y-137480000D03*
D90*
X123220000Y-138325000D03*
X122710000Y-138325000D03*
X122200000Y-138325000D03*
D89*
X121355000Y-137480000D03*
X121355000Y-136970000D03*
X121355000Y-136460000D03*
D90*
X122200000Y-135615000D03*
X123220000Y-135615000D03*
D91*
X122710000Y-136970000D03*
D90*
X122710000Y-135615000D03*
D77*
X194445000Y-136675000D03*
X193145000Y-136675000D03*
X193145000Y-134475000D03*
X193795000Y-134475000D03*
X194445000Y-134475000D03*
D89*
X190495000Y-136460000D03*
X190495000Y-136970000D03*
X190495000Y-137480000D03*
D90*
X189650000Y-138325000D03*
X189140000Y-138325000D03*
X188630000Y-138325000D03*
D89*
X187785000Y-137480000D03*
X187785000Y-136970000D03*
X187785000Y-136460000D03*
D90*
X188630000Y-135615000D03*
X189650000Y-135615000D03*
D91*
X189140000Y-136970000D03*
D90*
X189140000Y-135615000D03*
D28*
X174549580Y-128590000D03*
X173650420Y-128590000D03*
D59*
X167410000Y-170160000D03*
X167410000Y-171660000D03*
X168490000Y-174000000D03*
X168490000Y-172500000D03*
D28*
X169440000Y-169040420D03*
X169440000Y-169939580D03*
X173480000Y-180929580D03*
X173480000Y-180030420D03*
D60*
X162170000Y-170370000D03*
X163670000Y-170370000D03*
D92*
X173475000Y-179690000D03*
X173475000Y-181170000D03*
D93*
X174425000Y-180430000D03*
D67*
X191210000Y-203020000D03*
D68*
X190295000Y-202310000D03*
D69*
X190575000Y-203020000D03*
D68*
X190295000Y-203730000D03*
D69*
X191845000Y-203730000D03*
D68*
X192125000Y-203020000D03*
D69*
X191845000Y-202310000D03*
D28*
X158130000Y-255069580D03*
X158130000Y-254170420D03*
X154189580Y-248820000D03*
X153290420Y-248820000D03*
X154189580Y-249890000D03*
X153290420Y-249890000D03*
X158130000Y-252889580D03*
X158130000Y-251990420D03*
D59*
X153290000Y-251100000D03*
X153290000Y-252600000D03*
X179230000Y-179620000D03*
X179230000Y-181120000D03*
D28*
X161680420Y-255070000D03*
X162579580Y-255070000D03*
X161680420Y-251990000D03*
X162579580Y-251990000D03*
X160830000Y-255069580D03*
X160830000Y-254170420D03*
X160830000Y-251990420D03*
X160830000Y-252889580D03*
X159969580Y-255070000D03*
X159070420Y-255070000D03*
X159969580Y-251990000D03*
X159070420Y-251990000D03*
D94*
X155420000Y-252645000D03*
X155920000Y-252645000D03*
X156420000Y-252645000D03*
X156920000Y-252645000D03*
X156920000Y-254415000D03*
X156420000Y-254415000D03*
X155920000Y-254415000D03*
D95*
X156170000Y-253530000D03*
D94*
X155420000Y-254415000D03*
D28*
X155920000Y-249390420D03*
X155920000Y-250289580D03*
D73*
X181380000Y-215660000D03*
X181380000Y-215010000D03*
X181380000Y-214360000D03*
X179580000Y-214360000D03*
X179580000Y-215010000D03*
X179580000Y-215660000D03*
D29*
X179198880Y-213164840D03*
X180468880Y-213164840D03*
X181738880Y-213164840D03*
X181738880Y-216342380D03*
X179198880Y-216342380D03*
D48*
X189443740Y-229480000D03*
X189443740Y-224740000D03*
D49*
X187073740Y-227110000D03*
D48*
X184703740Y-224740000D03*
X184703740Y-229480000D03*
D28*
X161919580Y-240870000D03*
X161020420Y-240870000D03*
X161660000Y-218759580D03*
X161660000Y-217860420D03*
X160710000Y-218759580D03*
X160710000Y-217860420D03*
X159770000Y-218759580D03*
X159770000Y-217860420D03*
X158810000Y-218749580D03*
X158810000Y-217850420D03*
X139810000Y-238760420D03*
X139810000Y-239659580D03*
X177040000Y-232679580D03*
X177040000Y-231780420D03*
X178180000Y-230480420D03*
X178180000Y-231379580D03*
D96*
X136730000Y-243530000D03*
X138230000Y-243530000D03*
X136530000Y-238370000D03*
X138030000Y-238370000D03*
D28*
X140740420Y-139130000D03*
X141639580Y-139130000D03*
X129720000Y-155769580D03*
X129720000Y-154870420D03*
X143429580Y-139120000D03*
X142530420Y-139120000D03*
X150320000Y-111770420D03*
X150320000Y-112669580D03*
X155590000Y-109659580D03*
X155590000Y-108760420D03*
X150300000Y-109679580D03*
X150300000Y-108780420D03*
X154130000Y-118400420D03*
X154130000Y-119299580D03*
X155590000Y-111780420D03*
X155590000Y-112679580D03*
X158980000Y-118400420D03*
X158980000Y-119299580D03*
X137330000Y-148929580D03*
X137330000Y-148030420D03*
X146930000Y-148820420D03*
X146930000Y-149719580D03*
X196160000Y-155769580D03*
X196160000Y-154870420D03*
X135880000Y-117650420D03*
X135880000Y-118549580D03*
X164030000Y-118420420D03*
X164030000Y-119319580D03*
D97*
X129720000Y-156615000D03*
X129720000Y-157265000D03*
X129720000Y-157915000D03*
X129720000Y-158565000D03*
X129720000Y-159215000D03*
X129720000Y-159865000D03*
X129720000Y-160515000D03*
X129720000Y-161165000D03*
X123920000Y-161165000D03*
X123920000Y-160515000D03*
X123920000Y-159865000D03*
X123920000Y-159215000D03*
X123920000Y-156615000D03*
X123920000Y-157265000D03*
X123920000Y-157915000D03*
X123920000Y-158565000D03*
D77*
X151900000Y-112670000D03*
X153200000Y-112670000D03*
X153200000Y-114870000D03*
X152550000Y-114870000D03*
X151900000Y-114870000D03*
X157310000Y-112670000D03*
X158610000Y-112670000D03*
X158610000Y-114870000D03*
X157960000Y-114870000D03*
X157310000Y-114870000D03*
D44*
X151550000Y-108770000D03*
X153450000Y-108770000D03*
X153450000Y-111170000D03*
X152500000Y-111170000D03*
X151550000Y-111170000D03*
X155680000Y-119300000D03*
X157580000Y-119300000D03*
X157580000Y-121700000D03*
X156630000Y-121700000D03*
X155680000Y-121700000D03*
X157000000Y-108770000D03*
X158900000Y-108770000D03*
X158900000Y-111170000D03*
X157950000Y-111170000D03*
X157000000Y-111170000D03*
D97*
X196160000Y-156615000D03*
X196160000Y-157265000D03*
X196160000Y-157915000D03*
X196160000Y-158565000D03*
X196160000Y-159215000D03*
X196160000Y-159865000D03*
X196160000Y-160515000D03*
X196160000Y-161165000D03*
X190360000Y-161165000D03*
X190360000Y-160515000D03*
X190360000Y-159865000D03*
X190360000Y-159215000D03*
X190360000Y-156615000D03*
X190360000Y-157265000D03*
X190360000Y-157915000D03*
X190360000Y-158565000D03*
D44*
X137210000Y-118530000D03*
X139110000Y-118530000D03*
X139110000Y-120930000D03*
X138160000Y-120930000D03*
X137210000Y-120930000D03*
X165300000Y-119300000D03*
X167200000Y-119300000D03*
X167200000Y-121700000D03*
X166250000Y-121700000D03*
X165300000Y-121700000D03*
D28*
X105790000Y-154820420D03*
X105790000Y-155719580D03*
X106290420Y-128580000D03*
X107189580Y-128580000D03*
X117740420Y-124630000D03*
X118639580Y-124630000D03*
X106950000Y-124549580D03*
X106950000Y-123650420D03*
X113079580Y-120970000D03*
X112180420Y-120970000D03*
X111179580Y-122920000D03*
X110280420Y-122920000D03*
X110020000Y-118239580D03*
X110020000Y-117340420D03*
X143900000Y-132840420D03*
X143900000Y-133739580D03*
X143900000Y-129989580D03*
X143900000Y-129090420D03*
X134879580Y-149290000D03*
X133980420Y-149290000D03*
X134879580Y-148450000D03*
X133980420Y-148450000D03*
D59*
X100980000Y-170160000D03*
X100980000Y-171660000D03*
X102060000Y-174010000D03*
X102060000Y-172510000D03*
D28*
X103010000Y-169040420D03*
X103010000Y-169939580D03*
X89490000Y-256760420D03*
X89490000Y-257659580D03*
X91690000Y-255069580D03*
X91690000Y-254170420D03*
X87739580Y-248820000D03*
X86840420Y-248820000D03*
X87739580Y-249850000D03*
X86840420Y-249850000D03*
X91690000Y-252889580D03*
X91690000Y-251990420D03*
X89480000Y-249390420D03*
X89480000Y-250289580D03*
D96*
X70080000Y-238370000D03*
X71580000Y-238370000D03*
D85*
X128250000Y-101980000D03*
X136450000Y-101980000D03*
D86*
X132350000Y-100730000D03*
D85*
X105900000Y-101980000D03*
X114100000Y-101980000D03*
D86*
X110000000Y-100730000D03*
D48*
X123013740Y-229480000D03*
X123013740Y-224740000D03*
D49*
X120643740Y-227110000D03*
D48*
X118273740Y-224740000D03*
X118273740Y-229480000D03*
D59*
X86850000Y-251100000D03*
X86850000Y-252600000D03*
D28*
X121449580Y-122760000D03*
X120550420Y-122760000D03*
X146040000Y-138009580D03*
X146040000Y-137110420D03*
X148079580Y-137110000D03*
X147180420Y-137110000D03*
X109339580Y-245290000D03*
X108440420Y-245290000D03*
X109340000Y-246189580D03*
X109340000Y-245290420D03*
X89509580Y-246330000D03*
X88610420Y-246330000D03*
X89510000Y-245430420D03*
X89510000Y-246329580D03*
X87850000Y-217090420D03*
X87850000Y-217989580D03*
X87849580Y-217090000D03*
X86950420Y-217090000D03*
D60*
X95740000Y-170370000D03*
X97240000Y-170370000D03*
D51*
X103962500Y-171140000D03*
X102057500Y-171140000D03*
D28*
X95240420Y-255070000D03*
X96139580Y-255070000D03*
X95240420Y-251990000D03*
X96139580Y-251990000D03*
X94390000Y-255069580D03*
X94390000Y-254170420D03*
X94390000Y-251990420D03*
X94390000Y-252889580D03*
X93529580Y-255070000D03*
X92630420Y-255070000D03*
X93529580Y-251990000D03*
X92630420Y-251990000D03*
X95220000Y-218759580D03*
X95220000Y-217860420D03*
X94270000Y-218759580D03*
X94270000Y-217860420D03*
X93340000Y-218759580D03*
X93340000Y-217860420D03*
X92370000Y-218749580D03*
X92370000Y-217850420D03*
X73370000Y-238760420D03*
X73370000Y-239659580D03*
X110600000Y-232679580D03*
X110600000Y-231780420D03*
X111740000Y-230480420D03*
X111740000Y-231379580D03*
D82*
X106030000Y-158100000D03*
X106030000Y-157600000D03*
X106030000Y-157100000D03*
X107890000Y-157100000D03*
X107890000Y-157600000D03*
X107890000Y-158100000D03*
D83*
X106460000Y-156670000D03*
X106960000Y-156670000D03*
X107460000Y-156670000D03*
X107460000Y-158530000D03*
X106960000Y-158530000D03*
D84*
X106960000Y-157600000D03*
D83*
X106460000Y-158530000D03*
D82*
X107890000Y-126110000D03*
X107890000Y-126610000D03*
X107890000Y-127110000D03*
X106030000Y-127110000D03*
X106030000Y-126610000D03*
X106030000Y-126110000D03*
D83*
X107460000Y-127540000D03*
X106960000Y-127540000D03*
X106460000Y-127540000D03*
X106460000Y-125680000D03*
X106960000Y-125680000D03*
D84*
X106960000Y-126610000D03*
D83*
X107460000Y-125680000D03*
D77*
X138690000Y-124330000D03*
X139990000Y-124330000D03*
X139990000Y-126530000D03*
X139340000Y-126530000D03*
X138690000Y-126530000D03*
X142380000Y-124330000D03*
X143680000Y-124330000D03*
X143680000Y-126530000D03*
X143030000Y-126530000D03*
X142380000Y-126530000D03*
D82*
X119320000Y-122260000D03*
X119320000Y-122760000D03*
X119320000Y-123260000D03*
X117460000Y-123260000D03*
X117460000Y-122760000D03*
X117460000Y-122260000D03*
D83*
X118890000Y-123690000D03*
X118390000Y-123690000D03*
X117890000Y-123690000D03*
X117890000Y-121830000D03*
X118390000Y-121830000D03*
D84*
X118390000Y-122760000D03*
D83*
X118890000Y-121830000D03*
D82*
X110950000Y-120460000D03*
X110950000Y-120960000D03*
X110950000Y-121460000D03*
X109090000Y-121460000D03*
X109090000Y-120960000D03*
X109090000Y-120460000D03*
D83*
X110520000Y-121890000D03*
X110020000Y-121890000D03*
X109520000Y-121890000D03*
X109520000Y-120030000D03*
X110020000Y-120030000D03*
D84*
X110020000Y-120960000D03*
D83*
X110520000Y-120030000D03*
D87*
X132370000Y-141655000D03*
X132370000Y-147305000D03*
D88*
X132370000Y-144480000D03*
D87*
X132370000Y-141655000D03*
X132370000Y-147305000D03*
D88*
X132370000Y-144480000D03*
D77*
X145390000Y-133740000D03*
X146690000Y-133740000D03*
X146690000Y-135940000D03*
X146040000Y-135940000D03*
X145390000Y-135940000D03*
X145390000Y-129090000D03*
X146690000Y-129090000D03*
X146690000Y-131290000D03*
X146040000Y-131290000D03*
X145390000Y-131290000D03*
D24*
X136105000Y-151300000D03*
X136105000Y-151800000D03*
X136105000Y-152300000D03*
X136105000Y-152800000D03*
X136105000Y-153300000D03*
X136105000Y-153800000D03*
X136105000Y-154300000D03*
X136105000Y-154800000D03*
X131155000Y-154800000D03*
X131155000Y-154300000D03*
X131155000Y-153800000D03*
X131155000Y-153300000D03*
X131155000Y-152800000D03*
X131155000Y-152300000D03*
X131155000Y-151800000D03*
X131155000Y-151300000D03*
D25*
X135380000Y-155525000D03*
X134880000Y-155525000D03*
X134380000Y-155525000D03*
X133880000Y-155525000D03*
X133380000Y-155525000D03*
X132880000Y-155525000D03*
X132380000Y-155525000D03*
X131880000Y-155525000D03*
X131880000Y-150575000D03*
X132380000Y-150575000D03*
X132880000Y-150575000D03*
X133380000Y-150575000D03*
X133880000Y-150575000D03*
X134380000Y-150575000D03*
X134880000Y-150575000D03*
D23*
X133630000Y-153050000D03*
D25*
X135380000Y-150575000D03*
D94*
X88980000Y-252645000D03*
X89480000Y-252645000D03*
X89980000Y-252645000D03*
X90480000Y-252645000D03*
X90480000Y-254415000D03*
X89980000Y-254415000D03*
X89480000Y-254415000D03*
D95*
X89730000Y-253530000D03*
D94*
X88980000Y-254415000D03*
D50*
X98070000Y-170340000D03*
X99020000Y-170340000D03*
X99970000Y-170340000D03*
X99970000Y-172940000D03*
X99020000Y-172940000D03*
X98070000Y-172940000D03*
D45*
X108415000Y-169940000D03*
X108415000Y-170600000D03*
X105445000Y-169940000D03*
X105445000Y-170600000D03*
D46*
X106600000Y-168785000D03*
X107260000Y-168785000D03*
X107260000Y-171755000D03*
D47*
X106930000Y-170270000D03*
D46*
X106600000Y-171755000D03*
D77*
X146110000Y-124340000D03*
X147410000Y-124340000D03*
X147410000Y-126540000D03*
X146760000Y-126540000D03*
X146110000Y-126540000D03*
X149910000Y-124330000D03*
X151210000Y-124330000D03*
X151210000Y-126530000D03*
X150560000Y-126530000D03*
X149910000Y-126530000D03*
D96*
X70290000Y-243530000D03*
X71790000Y-243530000D03*
D64*
X70360000Y-241850000D03*
X69410000Y-239850000D03*
X71310000Y-239850000D03*
D28*
X75309580Y-240780000D03*
X74410420Y-240780000D03*
X72470420Y-240770000D03*
X73369580Y-240770000D03*
D65*
X77630000Y-244170000D03*
X77630000Y-240770000D03*
D28*
X132370000Y-114640420D03*
X132370000Y-115539580D03*
D60*
X105550000Y-140790000D03*
X107050000Y-140790000D03*
D28*
X108820000Y-153329580D03*
X108820000Y-152430420D03*
D27*
X102650000Y-145360000D03*
X105190000Y-146960000D03*
X102470000Y-131250000D03*
X105010000Y-132850000D03*
D28*
X110200420Y-153650000D03*
X111099580Y-153650000D03*
X111099580Y-152530000D03*
X110200420Y-152530000D03*
D77*
X105560000Y-138710000D03*
X104260000Y-138710000D03*
X104260000Y-136510000D03*
X104910000Y-136510000D03*
X105560000Y-136510000D03*
D78*
X108800000Y-151250000D03*
X108800000Y-149950000D03*
X111000000Y-149950000D03*
X111000000Y-150600000D03*
X111000000Y-151250000D03*
D52*
X91760000Y-133530000D03*
X91760000Y-126430000D03*
D28*
X125800420Y-148590000D03*
X126699580Y-148590000D03*
X125800420Y-142390000D03*
X126699580Y-142390000D03*
X125800420Y-143460000D03*
X126699580Y-143460000D03*
X125800420Y-144520000D03*
X126699580Y-144520000D03*
X141200000Y-123440420D03*
X141200000Y-124339580D03*
X137460000Y-123430420D03*
X137460000Y-124329580D03*
X122680000Y-133659580D03*
X122680000Y-132760420D03*
X189120000Y-133649580D03*
X189120000Y-132750420D03*
X140500000Y-117610420D03*
X140500000Y-118509580D03*
X145160000Y-117600420D03*
X145160000Y-118499580D03*
X144900000Y-123440420D03*
X144900000Y-124339580D03*
X148660000Y-123440420D03*
X148660000Y-124339580D03*
X125800420Y-145570000D03*
X126699580Y-145570000D03*
X125800420Y-146570000D03*
X126699580Y-146570000D03*
X125800420Y-147580000D03*
X126699580Y-147580000D03*
X128080420Y-148590000D03*
X128979580Y-148590000D03*
X128080420Y-142390000D03*
X128979580Y-142390000D03*
X128080420Y-143460000D03*
X128979580Y-143460000D03*
X128080420Y-144520000D03*
X128979580Y-144520000D03*
X111160000Y-228659580D03*
X111160000Y-227760420D03*
X177600000Y-228659580D03*
X177600000Y-227760420D03*
X128080420Y-145580000D03*
X128979580Y-145580000D03*
X128080420Y-146570000D03*
X128979580Y-146570000D03*
X128080420Y-147580000D03*
X128979580Y-147580000D03*
D48*
X128380000Y-123300000D03*
X128380000Y-118560000D03*
D49*
X126010000Y-120930000D03*
D48*
X123640000Y-118560000D03*
X123640000Y-123300000D03*
X194810000Y-123300000D03*
X194810000Y-118560000D03*
D49*
X192440000Y-120930000D03*
D48*
X190070000Y-118560000D03*
X190070000Y-123300000D03*
D28*
X179510000Y-120070420D03*
X179510000Y-120969580D03*
D30*
X108525000Y-176300000D03*
X105575000Y-176300000D03*
D31*
X107050000Y-174400000D03*
X107050000Y-178200000D03*
D59*
X107010000Y-176840000D03*
X107010000Y-178340000D03*
X107020000Y-174360000D03*
X107020000Y-175860000D03*
D60*
X117930000Y-117540000D03*
X116430000Y-117540000D03*
X120370000Y-117540000D03*
X118870000Y-117540000D03*
D30*
X111485000Y-110330000D03*
X108535000Y-110330000D03*
D31*
X110010000Y-108430000D03*
X110010000Y-112230000D03*
D59*
X110020000Y-110820000D03*
X110020000Y-112320000D03*
X110020000Y-108330000D03*
X110020000Y-109830000D03*
D98*
X118410000Y-119055000D03*
X118410000Y-116105000D03*
D99*
X120310000Y-117580000D03*
X116510000Y-117580000D03*
D28*
X113080000Y-120070420D03*
X113080000Y-120969580D03*
D98*
X184840000Y-119055000D03*
X184840000Y-116105000D03*
D99*
X186740000Y-117580000D03*
X182940000Y-117580000D03*
D59*
X173440000Y-176840000D03*
X173440000Y-178340000D03*
X173450000Y-174360000D03*
X173450000Y-175860000D03*
D60*
X184360000Y-117540000D03*
X182860000Y-117540000D03*
X186800000Y-117540000D03*
X185300000Y-117540000D03*
D59*
X176450000Y-110820000D03*
X176450000Y-112320000D03*
X176450000Y-108330000D03*
X176450000Y-109830000D03*
D30*
X177915000Y-110330000D03*
X174965000Y-110330000D03*
D31*
X176440000Y-108430000D03*
X176440000Y-112230000D03*
D100*
X179335000Y-141525000D03*
X179335000Y-141025000D03*
X179335000Y-140525000D03*
X179335000Y-140025000D03*
D101*
X179855000Y-139505000D03*
X180355000Y-139505000D03*
X180855000Y-139505000D03*
X181355000Y-139505000D03*
D100*
X181875000Y-140025000D03*
X181875000Y-140525000D03*
X181875000Y-141025000D03*
X181875000Y-141525000D03*
D101*
X181355000Y-142045000D03*
X180855000Y-142045000D03*
X180355000Y-142045000D03*
X179855000Y-142045000D03*
D47*
X180605000Y-140775000D03*
D100*
X112880000Y-141530000D03*
X112880000Y-141030000D03*
X112880000Y-140530000D03*
X112880000Y-140030000D03*
D101*
X113400000Y-139510000D03*
X113900000Y-139510000D03*
X114400000Y-139510000D03*
X114900000Y-139510000D03*
D100*
X115420000Y-140030000D03*
X115420000Y-140530000D03*
X115420000Y-141030000D03*
X115420000Y-141530000D03*
D101*
X114900000Y-142050000D03*
X114400000Y-142050000D03*
X113900000Y-142050000D03*
X113400000Y-142050000D03*
D47*
X114150000Y-140780000D03*
D28*
X125243740Y-238079580D03*
X125243740Y-237180420D03*
D58*
X120180000Y-219375000D03*
X120180000Y-218825000D03*
D28*
X127708740Y-242299580D03*
X127708740Y-241400420D03*
D58*
X115290000Y-204135000D03*
X115290000Y-203585000D03*
D56*
X114605000Y-204870000D03*
X114055000Y-204870000D03*
X93675000Y-199720000D03*
X94225000Y-199720000D03*
X128185000Y-201730000D03*
X127635000Y-201730000D03*
X93685000Y-203410000D03*
X94235000Y-203410000D03*
X128345000Y-198050000D03*
X127795000Y-198050000D03*
D58*
X117450000Y-201905000D03*
X117450000Y-201355000D03*
X104150000Y-201755000D03*
X104150000Y-202305000D03*
X104150000Y-199555000D03*
X104150000Y-200105000D03*
X117450000Y-199705000D03*
X117450000Y-199155000D03*
X117450000Y-202505000D03*
X117450000Y-201955000D03*
X117450000Y-201305000D03*
X117450000Y-200755000D03*
X104150000Y-201155000D03*
X104150000Y-201705000D03*
X104150000Y-202365000D03*
X104150000Y-202915000D03*
X104150000Y-198955000D03*
X104150000Y-199505000D03*
X104150000Y-200155000D03*
X104150000Y-200705000D03*
X117450000Y-200305000D03*
X117450000Y-199755000D03*
X117450000Y-199105000D03*
X117450000Y-198555000D03*
D56*
X116825000Y-201830000D03*
X116275000Y-201830000D03*
X116825000Y-201230000D03*
X116275000Y-201230000D03*
X104775000Y-201630000D03*
X105325000Y-201630000D03*
X104775000Y-202230000D03*
X105325000Y-202230000D03*
X104765000Y-199630000D03*
X105315000Y-199630000D03*
X104775000Y-200230000D03*
X105325000Y-200230000D03*
X116825000Y-199830000D03*
X116275000Y-199830000D03*
X116825000Y-199230000D03*
X116275000Y-199230000D03*
D58*
X115650000Y-201805000D03*
X115650000Y-201255000D03*
X105950000Y-201655000D03*
X105950000Y-202205000D03*
X105950000Y-199655000D03*
X105950000Y-200205000D03*
X115650000Y-199805000D03*
X115650000Y-199255000D03*
X111250000Y-205695000D03*
X111250000Y-206245000D03*
X111840000Y-205695000D03*
X111840000Y-206245000D03*
X109250000Y-205715000D03*
X109250000Y-206265000D03*
X109840000Y-205715000D03*
X109840000Y-206265000D03*
X109840000Y-194965000D03*
X109840000Y-194415000D03*
X109260000Y-194965000D03*
X109260000Y-194415000D03*
X111840000Y-194965000D03*
X111840000Y-194415000D03*
X111260000Y-194965000D03*
X111260000Y-194415000D03*
X108320000Y-217925000D03*
X108320000Y-218475000D03*
X107030000Y-182755000D03*
X107030000Y-182205000D03*
X114050000Y-217915000D03*
X114050000Y-218465000D03*
X112790000Y-182755000D03*
X112790000Y-182205000D03*
D56*
X109265000Y-204870000D03*
X109815000Y-204870000D03*
X111265000Y-204870000D03*
X111815000Y-204870000D03*
X111825000Y-195800000D03*
X111275000Y-195800000D03*
X109815000Y-195800000D03*
X109265000Y-195800000D03*
X113195000Y-209650000D03*
X113745000Y-209650000D03*
X107895000Y-191030000D03*
X107345000Y-191030000D03*
X107345000Y-209650000D03*
X107895000Y-209650000D03*
X113745000Y-191020000D03*
X113195000Y-191020000D03*
D10*
G36*
X115726776Y-204715736D02*
X115974264Y-204963224D01*
X115762132Y-205175356D01*
X115514644Y-204927868D01*
X115726776Y-204715736D01*
X115726776Y-204715736D01*
G37*
G36*
X115337868Y-205104644D02*
X115585356Y-205352132D01*
X115373224Y-205564264D01*
X115125736Y-205316776D01*
X115337868Y-205104644D01*
X115337868Y-205104644D01*
G37*
D28*
X123113740Y-234239580D03*
X123113740Y-233340420D03*
X123933740Y-233340420D03*
X123933740Y-234239580D03*
X185870420Y-255330000D03*
X186769580Y-255330000D03*
X124763740Y-233330420D03*
X124763740Y-234229580D03*
X126093740Y-237190420D03*
X126093740Y-238089580D03*
X126843740Y-237180420D03*
X126843740Y-238079580D03*
X196490840Y-226635000D03*
X197390000Y-226635000D03*
X203820420Y-227934580D03*
X203820420Y-227035420D03*
X203810420Y-223654580D03*
X203810420Y-222755420D03*
D59*
X126703740Y-236300000D03*
X126703740Y-234800000D03*
X125613740Y-236300000D03*
X125613740Y-234800000D03*
D102*
X74951420Y-150985420D03*
X71649420Y-150985420D03*
D28*
X202340420Y-238069580D03*
X202340420Y-237170420D03*
X80400000Y-153725420D03*
X79500840Y-153725420D03*
X77800840Y-153725420D03*
X78700000Y-153725420D03*
X71750420Y-153695840D03*
X71750420Y-154595000D03*
X93685840Y-122920420D03*
X94585000Y-122920420D03*
D59*
X95895420Y-123310420D03*
X95895420Y-121810420D03*
D60*
X95555420Y-114620420D03*
X94055420Y-114620420D03*
X97315420Y-114640420D03*
X98815420Y-114640420D03*
D28*
X202400420Y-232620420D03*
X202400420Y-233519580D03*
X198970420Y-243165420D03*
X198970420Y-244064580D03*
X189900000Y-240470000D03*
X189000840Y-240470000D03*
X200993740Y-247517920D03*
X200993740Y-248417080D03*
X201720420Y-260065420D03*
X201720420Y-260964580D03*
X196810840Y-260985000D03*
X197710000Y-260985000D03*
X197954160Y-248707500D03*
X198853320Y-248707500D03*
X198030000Y-244959580D03*
X198030000Y-244060420D03*
X195340420Y-240460420D03*
X195340420Y-241359580D03*
X193393740Y-251127920D03*
X193393740Y-252027080D03*
X193423740Y-240422920D03*
X193423740Y-241322080D03*
X192663740Y-251127920D03*
X192663740Y-252027080D03*
X190443740Y-251127920D03*
X190443740Y-252027080D03*
X192713740Y-240422920D03*
X192713740Y-241322080D03*
X189713740Y-252027080D03*
X189713740Y-251127920D03*
D59*
X188643740Y-252627500D03*
X188643740Y-251127500D03*
D28*
X188053320Y-248707500D03*
X187154160Y-248707500D03*
X188053320Y-245607500D03*
X187154160Y-245607500D03*
X71235840Y-160310420D03*
X72135000Y-160310420D03*
X71290840Y-164385420D03*
X72190000Y-164385420D03*
X74095000Y-160310420D03*
X73195840Y-160310420D03*
X74080000Y-164385420D03*
X73180840Y-164385420D03*
X80075420Y-160230000D03*
X80075420Y-159330840D03*
X80050420Y-164395000D03*
X80050420Y-163495840D03*
X207120000Y-221575420D03*
X206220840Y-221575420D03*
X212530840Y-221555420D03*
X213430000Y-221555420D03*
D56*
X105775000Y-203930000D03*
X106325000Y-203930000D03*
X105775000Y-204540000D03*
X106325000Y-204540000D03*
X105775000Y-205130000D03*
X106325000Y-205130000D03*
D51*
X80132920Y-155205420D03*
X78227920Y-155205420D03*
X71702920Y-158780420D03*
X73607920Y-158780420D03*
X71707920Y-162925420D03*
X73612920Y-162925420D03*
D48*
X130543740Y-224730000D03*
X130543740Y-219990000D03*
D49*
X128173740Y-222360000D03*
D48*
X125803740Y-219990000D03*
X125803740Y-224730000D03*
X121678740Y-258590000D03*
X121678740Y-253850000D03*
D49*
X119308740Y-256220000D03*
D48*
X116938740Y-253850000D03*
X116938740Y-258590000D03*
X130558740Y-253840000D03*
X130558740Y-249100000D03*
D49*
X128188740Y-251470000D03*
D48*
X125818740Y-249100000D03*
X125818740Y-253840000D03*
D103*
X184655420Y-249580000D03*
X182080420Y-249580000D03*
X179540420Y-249580000D03*
D104*
X184655420Y-254730000D03*
D103*
X182080420Y-254730000D03*
X179540420Y-254730000D03*
D105*
X128350000Y-204230000D03*
X131250000Y-204230000D03*
D81*
X129800000Y-205730000D03*
X129800000Y-202730000D03*
D80*
X116490000Y-221210000D03*
X116490000Y-218310000D03*
D81*
X117990000Y-219760000D03*
X114990000Y-219760000D03*
D26*
X212550420Y-207315420D03*
X212550420Y-209855420D03*
X212550420Y-212395420D03*
X212550420Y-214935420D03*
X212550420Y-217475420D03*
X212550420Y-220015420D03*
X207090420Y-220015420D03*
X207090420Y-217475420D03*
X207090420Y-214935420D03*
X207090420Y-212395420D03*
X207090420Y-209855420D03*
X207090420Y-207315420D03*
D106*
X77920420Y-118935420D03*
X73720420Y-118935420D03*
X69520420Y-118935420D03*
X77920420Y-113435420D03*
X73720420Y-113435420D03*
X69520420Y-113435420D03*
D27*
X203113740Y-244597500D03*
X200573740Y-242997500D03*
D107*
X74455420Y-129220420D03*
X74455420Y-131760420D03*
X74455420Y-134300420D03*
X79456680Y-129220420D03*
X79456680Y-131760420D03*
X79456680Y-134300420D03*
X74425420Y-142290420D03*
X74425420Y-144830420D03*
X74425420Y-147370420D03*
X79426680Y-142290420D03*
X79426680Y-144830420D03*
X79426680Y-147370420D03*
D58*
X118050000Y-201355000D03*
X118050000Y-201905000D03*
X103540000Y-202305000D03*
X103540000Y-201755000D03*
X103540000Y-200105000D03*
X103540000Y-199555000D03*
X118050000Y-199155000D03*
X118050000Y-199705000D03*
D108*
X100470000Y-122525000D03*
X100470000Y-116975000D03*
D59*
X187513740Y-252627500D03*
X187513740Y-251127500D03*
D96*
X82110420Y-151595420D03*
X82110420Y-150095420D03*
X85340420Y-131395420D03*
X85340420Y-129895420D03*
D28*
X102020420Y-206120000D03*
X102919580Y-206120000D03*
X107050000Y-180929580D03*
X107050000Y-180030420D03*
X85340420Y-127105840D03*
X85340420Y-128005000D03*
X79005420Y-160230000D03*
X79005420Y-159330840D03*
X121163320Y-233330000D03*
X120264160Y-233330000D03*
X129800000Y-200790420D03*
X129800000Y-201689580D03*
X80670420Y-151005000D03*
X80670420Y-150105840D03*
D10*
G36*
X116986776Y-205975736D02*
X117234264Y-206223224D01*
X117022132Y-206435356D01*
X116774644Y-206187868D01*
X116986776Y-205975736D01*
X116986776Y-205975736D01*
G37*
G36*
X116597868Y-206364644D02*
X116845356Y-206612132D01*
X116633224Y-206824264D01*
X116385736Y-206576776D01*
X116597868Y-206364644D01*
X116597868Y-206364644D01*
G37*
G36*
X116075736Y-205283224D02*
X116323224Y-205035736D01*
X116535356Y-205247868D01*
X116287868Y-205495356D01*
X116075736Y-205283224D01*
X116075736Y-205283224D01*
G37*
G36*
X116464644Y-205672132D02*
X116712132Y-205424644D01*
X116924264Y-205636776D01*
X116676776Y-205884264D01*
X116464644Y-205672132D01*
X116464644Y-205672132D01*
G37*
G36*
X115445736Y-205913224D02*
X115693224Y-205665736D01*
X115905356Y-205877868D01*
X115657868Y-206125356D01*
X115445736Y-205913224D01*
X115445736Y-205913224D01*
G37*
G36*
X115834644Y-206302132D02*
X116082132Y-206054644D01*
X116294264Y-206266776D01*
X116046776Y-206514264D01*
X115834644Y-206302132D01*
X115834644Y-206302132D01*
G37*
D28*
X72880420Y-153705840D03*
X72880420Y-154605000D03*
X72880420Y-156405000D03*
X72880420Y-155505840D03*
X70700420Y-153695840D03*
X70700420Y-154595000D03*
X122283320Y-242720000D03*
X121384160Y-242720000D03*
X121383320Y-241710000D03*
X120484160Y-241710000D03*
X121384160Y-241710000D03*
X122283320Y-241710000D03*
X123794160Y-245440000D03*
X124693320Y-245440000D03*
X123353740Y-237199580D03*
X123353740Y-236300420D03*
X125593320Y-245440000D03*
X124694160Y-245440000D03*
X123353740Y-236299580D03*
X123353740Y-235400420D03*
D51*
X94727920Y-117410420D03*
X92822920Y-117410420D03*
X94727920Y-117410420D03*
X92822920Y-117410420D03*
D109*
X96225420Y-119312920D03*
X96225420Y-117407920D03*
X91185420Y-119302920D03*
X91185420Y-117397920D03*
D58*
X202340420Y-238955000D03*
X202340420Y-239505000D03*
X202390420Y-231065000D03*
X202390420Y-231615000D03*
D10*
G36*
X110524264Y-220566776D02*
X110276776Y-220814264D01*
X110064644Y-220602132D01*
X110312132Y-220354644D01*
X110524264Y-220566776D01*
X110524264Y-220566776D01*
G37*
G36*
X110135356Y-220177868D02*
X109887868Y-220425356D01*
X109675736Y-220213224D01*
X109923224Y-219965736D01*
X110135356Y-220177868D01*
X110135356Y-220177868D01*
G37*
D59*
X112800000Y-179620000D03*
X112800000Y-181120000D03*
D28*
X104080420Y-206120000D03*
X104979580Y-206120000D03*
X79005420Y-158390000D03*
X79005420Y-157490840D03*
X78950420Y-164395000D03*
X78950420Y-163495840D03*
D10*
G36*
X112184264Y-222226776D02*
X111936776Y-222474264D01*
X111724644Y-222262132D01*
X111972132Y-222014644D01*
X112184264Y-222226776D01*
X112184264Y-222226776D01*
G37*
G36*
X111795356Y-221837868D02*
X111547868Y-222085356D01*
X111335736Y-221873224D01*
X111583224Y-221625736D01*
X111795356Y-221837868D01*
X111795356Y-221837868D01*
G37*
D28*
X191183740Y-252029580D03*
X191183740Y-251130420D03*
X191933740Y-252029580D03*
X191933740Y-251130420D03*
X203113740Y-248417080D03*
X203113740Y-247517920D03*
X188053320Y-244892500D03*
X187154160Y-244892500D03*
X202053740Y-247517920D03*
X202053740Y-248417080D03*
X196810840Y-261715000D03*
X197710000Y-261715000D03*
X190883740Y-241327080D03*
X190883740Y-240427920D03*
X191883740Y-241317080D03*
X191883740Y-240417920D03*
X194393740Y-240422920D03*
X194393740Y-241322080D03*
X78950420Y-162605000D03*
X78950420Y-161705840D03*
X81120420Y-160235000D03*
X81120420Y-159335840D03*
X81110420Y-164395000D03*
X81110420Y-163495840D03*
X203810420Y-225554580D03*
X203810420Y-224655420D03*
X203820420Y-228925420D03*
X203820420Y-229824580D03*
X189299580Y-193620000D03*
X188400420Y-193620000D03*
X189299580Y-194640000D03*
X188400420Y-194640000D03*
X114050000Y-219760420D03*
X114050000Y-220659580D03*
X207120840Y-222665420D03*
X208020000Y-222665420D03*
X211630840Y-222665420D03*
X212530000Y-222665420D03*
D67*
X96830000Y-203420000D03*
D68*
X97745000Y-204130000D03*
D69*
X97465000Y-203420000D03*
D68*
X97745000Y-202710000D03*
D69*
X96195000Y-202710000D03*
D68*
X95915000Y-203420000D03*
D69*
X96195000Y-204130000D03*
D67*
X124870000Y-198050000D03*
D68*
X123955000Y-197340000D03*
D69*
X124235000Y-198050000D03*
D68*
X123955000Y-198760000D03*
D69*
X125505000Y-198760000D03*
D68*
X125785000Y-198050000D03*
D69*
X125505000Y-197340000D03*
D66*
X98695160Y-197178880D03*
X98695160Y-198448880D03*
X98695160Y-199718880D03*
X95517620Y-199718880D03*
X95517620Y-197178880D03*
D70*
X107050000Y-185620000D03*
D71*
X106340000Y-186535000D03*
D72*
X107050000Y-186255000D03*
D71*
X107760000Y-186535000D03*
D72*
X107760000Y-184985000D03*
D71*
X107050000Y-184705000D03*
D72*
X106340000Y-184985000D03*
D79*
X125440000Y-202110000D03*
X124790000Y-202110000D03*
X124140000Y-202110000D03*
X124140000Y-203910000D03*
X124790000Y-203910000D03*
X125440000Y-203910000D03*
D66*
X122904840Y-204271120D03*
X122904840Y-203001120D03*
X122904840Y-201731120D03*
X126082380Y-201731120D03*
X126082380Y-204271120D03*
D29*
X115331120Y-187545160D03*
X114061120Y-187545160D03*
X112791120Y-187545160D03*
X112791120Y-184367620D03*
X115331120Y-184367620D03*
D70*
X114040000Y-215040000D03*
D71*
X114750000Y-214125000D03*
D72*
X114040000Y-214405000D03*
D71*
X113330000Y-214125000D03*
D72*
X113330000Y-215675000D03*
D71*
X114040000Y-215955000D03*
D72*
X114750000Y-215675000D03*
D79*
X96150000Y-199350000D03*
X96800000Y-199350000D03*
X97450000Y-199350000D03*
X97450000Y-197550000D03*
X96800000Y-197550000D03*
X96150000Y-197550000D03*
D73*
X107950000Y-215700000D03*
X107950000Y-215050000D03*
X107950000Y-214400000D03*
X106150000Y-214400000D03*
X106150000Y-215050000D03*
X106150000Y-215700000D03*
X113160000Y-185010000D03*
X113160000Y-185660000D03*
X113160000Y-186310000D03*
X114960000Y-186310000D03*
X114960000Y-185660000D03*
X114960000Y-185010000D03*
D78*
X196500420Y-227845000D03*
X196500420Y-229145000D03*
X194300420Y-229145000D03*
X194300420Y-228495000D03*
X194300420Y-227845000D03*
D110*
X202560420Y-223655000D03*
X202560420Y-225555000D03*
X200160420Y-225555000D03*
X200160420Y-224605000D03*
X200160420Y-223655000D03*
X202570420Y-227935000D03*
X202570420Y-229835000D03*
X200170420Y-229835000D03*
X200170420Y-228885000D03*
X200170420Y-227935000D03*
D111*
X78700420Y-151015420D03*
D112*
X77765420Y-150515420D03*
X77765420Y-151015420D03*
X77765420Y-151515420D03*
X79635420Y-151515420D03*
X79635420Y-151015420D03*
X79635420Y-150515420D03*
D113*
X76755420Y-153710420D03*
X76755420Y-154360420D03*
X76755420Y-155010420D03*
X76755420Y-155660420D03*
X74005420Y-155660420D03*
X74005420Y-155010420D03*
X74005420Y-154360420D03*
X74005420Y-153710420D03*
D114*
X75380420Y-154685420D03*
D10*
G36*
X109250621Y-221661942D02*
X109957728Y-220954835D01*
X111195165Y-222192272D01*
X110488058Y-222899379D01*
X109250621Y-221661942D01*
X109250621Y-221661942D01*
G37*
G36*
X110664835Y-220247728D02*
X111371942Y-219540621D01*
X112609379Y-220778058D01*
X111902272Y-221485165D01*
X110664835Y-220247728D01*
X110664835Y-220247728D01*
G37*
G36*
X111637107Y-222351371D02*
X112061371Y-221927107D01*
X112768477Y-222634213D01*
X112344213Y-223058477D01*
X111637107Y-222351371D01*
X111637107Y-222351371D01*
G37*
G36*
X109091523Y-219805787D02*
X109515787Y-219381523D01*
X110222893Y-220088629D01*
X109798629Y-220512893D01*
X109091523Y-219805787D01*
X109091523Y-219805787D01*
G37*
D53*
X112800000Y-179810000D03*
X112800000Y-180930000D03*
D54*
X112597500Y-180370000D03*
X113002500Y-180370000D03*
D115*
X93195420Y-121930420D03*
X93695420Y-121930420D03*
X94195420Y-121930420D03*
X94695420Y-121930420D03*
X94695420Y-119330420D03*
X94195420Y-119330420D03*
X93195420Y-119330420D03*
X93695420Y-119330420D03*
D116*
X93945420Y-120130420D03*
X93945420Y-121130420D03*
X93945420Y-120630420D03*
D92*
X107045000Y-179690000D03*
X107045000Y-181170000D03*
D93*
X107995000Y-180430000D03*
D113*
X75125420Y-164390420D03*
X75125420Y-163740420D03*
X75125420Y-163090420D03*
X75125420Y-162440420D03*
X77875420Y-162440420D03*
X77875420Y-163090420D03*
X77875420Y-163740420D03*
X77875420Y-164390420D03*
D114*
X76500420Y-163415420D03*
D117*
X192473740Y-257070000D03*
X192473740Y-256420000D03*
X192473740Y-255770000D03*
X190633740Y-255770000D03*
X190633740Y-256420000D03*
X190633740Y-257070000D03*
D118*
X202058740Y-258420000D03*
X200788740Y-258420000D03*
X199518740Y-258420000D03*
X198248740Y-258420000D03*
X198248740Y-251540000D03*
X199518740Y-251540000D03*
X200788740Y-251540000D03*
X202058740Y-251540000D03*
X202058740Y-258417500D03*
X200788740Y-258417500D03*
X199518740Y-258417500D03*
X198248740Y-258417500D03*
X198248740Y-251537500D03*
X199518740Y-251537500D03*
X200788740Y-251537500D03*
X202058740Y-251537500D03*
D113*
X75120420Y-160225420D03*
X75120420Y-159575420D03*
X75120420Y-158925420D03*
X75120420Y-158275420D03*
X77870420Y-158275420D03*
X77870420Y-158925420D03*
X77870420Y-159575420D03*
X77870420Y-160225420D03*
D114*
X76495420Y-159250420D03*
D119*
X198910420Y-236415000D03*
X189410420Y-236415000D03*
D120*
X121383740Y-239075000D03*
D121*
X120108740Y-239075000D03*
D120*
X118833740Y-239075000D03*
X118833740Y-234725000D03*
D121*
X120108740Y-234725000D03*
D120*
X121383740Y-234725000D03*
D122*
X123978740Y-243625000D03*
X123978740Y-239775000D03*
X126278740Y-243625000D03*
X126278740Y-239775000D03*
D123*
X125128740Y-243625000D03*
D124*
X124153740Y-242300000D03*
X124153740Y-241100000D03*
X126103740Y-241090400D03*
X126103740Y-242300000D03*
D123*
X125133820Y-239775000D03*
D10*
G36*
X90936776Y-200085736D02*
X91184264Y-200333224D01*
X90972132Y-200545356D01*
X90724644Y-200297868D01*
X90936776Y-200085736D01*
X90936776Y-200085736D01*
G37*
G36*
X90547868Y-200474644D02*
X90795356Y-200722132D01*
X90583224Y-200934264D01*
X90335736Y-200686776D01*
X90547868Y-200474644D01*
X90547868Y-200474644D01*
G37*
G36*
X157366776Y-200085736D02*
X157614264Y-200333224D01*
X157402132Y-200545356D01*
X157154644Y-200297868D01*
X157366776Y-200085736D01*
X157366776Y-200085736D01*
G37*
G36*
X156977868Y-200474644D02*
X157225356Y-200722132D01*
X157013224Y-200934264D01*
X156765736Y-200686776D01*
X156977868Y-200474644D01*
X156977868Y-200474644D01*
G37*
G36*
X89276776Y-201745736D02*
X89524264Y-201993224D01*
X89312132Y-202205356D01*
X89064644Y-201957868D01*
X89276776Y-201745736D01*
X89276776Y-201745736D01*
G37*
G36*
X88887868Y-202134644D02*
X89135356Y-202382132D01*
X88923224Y-202594264D01*
X88675736Y-202346776D01*
X88887868Y-202134644D01*
X88887868Y-202134644D01*
G37*
G36*
X90371942Y-203019379D02*
X89664835Y-202312272D01*
X90902272Y-201074835D01*
X91609379Y-201781942D01*
X90371942Y-203019379D01*
X90371942Y-203019379D01*
G37*
G36*
X88957728Y-201605165D02*
X88250621Y-200898058D01*
X89488058Y-199660621D01*
X90195165Y-200367728D01*
X88957728Y-201605165D01*
X88957728Y-201605165D01*
G37*
G36*
X91061371Y-200632893D02*
X90637107Y-200208629D01*
X91344213Y-199501523D01*
X91768477Y-199925787D01*
X91061371Y-200632893D01*
X91061371Y-200632893D01*
G37*
G36*
X88515787Y-203178477D02*
X88091523Y-202754213D01*
X88798629Y-202047107D01*
X89222893Y-202471371D01*
X88515787Y-203178477D01*
X88515787Y-203178477D01*
G37*
D92*
X173475000Y-179690000D03*
X173475000Y-181170000D03*
D93*
X174425000Y-180430000D03*
D92*
X173475000Y-179690000D03*
X173475000Y-181170000D03*
D93*
X174425000Y-180430000D03*
D92*
X107045000Y-179690000D03*
X107045000Y-181170000D03*
D93*
X107995000Y-180430000D03*
D92*
X107045000Y-179690000D03*
X107045000Y-181170000D03*
D93*
X107995000Y-180430000D03*
D28*
X117000000Y-166519580D03*
X117000000Y-165620420D03*
X183440000Y-166519580D03*
X183440000Y-165620420D03*
X111660000Y-170859580D03*
X111660000Y-169960420D03*
X178100000Y-170859580D03*
X178100000Y-169960420D03*
X116770000Y-170869580D03*
X116770000Y-169970420D03*
X183210000Y-170869580D03*
X183210000Y-169970420D03*
X115920000Y-170859580D03*
X115920000Y-169960420D03*
X182360000Y-170859580D03*
X182360000Y-169960420D03*
X115070000Y-170859580D03*
X115070000Y-169960420D03*
X181510000Y-170859580D03*
X181510000Y-169960420D03*
X114210000Y-170859580D03*
X114210000Y-169960420D03*
X180650000Y-170859580D03*
X180650000Y-169960420D03*
X113360000Y-170859580D03*
X113360000Y-169960420D03*
X179800000Y-170859580D03*
X179800000Y-169960420D03*
X112510000Y-170869580D03*
X112510000Y-169970420D03*
X178950000Y-170869580D03*
X178950000Y-169970420D03*
X104469580Y-168220000D03*
X103570420Y-168220000D03*
X170899580Y-168220000D03*
X170000420Y-168220000D03*
X104459580Y-167430000D03*
X103560420Y-167430000D03*
X170889580Y-167430000D03*
X169990420Y-167430000D03*
X111660000Y-169179580D03*
X111660000Y-168280420D03*
X178100000Y-169179580D03*
X178100000Y-168280420D03*
X116770000Y-169179580D03*
X116770000Y-168280420D03*
X183210000Y-169179580D03*
X183210000Y-168280420D03*
X115920000Y-169179580D03*
X115920000Y-168280420D03*
X182360000Y-169179580D03*
X182360000Y-168280420D03*
X115070000Y-169179580D03*
X115070000Y-168280420D03*
X181510000Y-169179580D03*
X181510000Y-168280420D03*
X114210000Y-169179580D03*
X114210000Y-168280420D03*
X180650000Y-169179580D03*
X180650000Y-168280420D03*
X113360000Y-169179580D03*
X113360000Y-168280420D03*
X179800000Y-169179580D03*
X179800000Y-168280420D03*
X112510000Y-169179580D03*
X112510000Y-168280420D03*
X178950000Y-169179580D03*
X178950000Y-168280420D03*
X103570420Y-160170000D03*
X104469580Y-160170000D03*
X170000420Y-160170000D03*
X170899580Y-160170000D03*
X135779580Y-156760000D03*
X134880420Y-156760000D03*
X202219580Y-156790000D03*
X201320420Y-156790000D03*
D41*
X116045000Y-166520000D03*
X115395000Y-166520000D03*
X114745000Y-166520000D03*
X114095000Y-166520000D03*
X113445000Y-166520000D03*
X112795000Y-166520000D03*
X112145000Y-166520000D03*
X111495000Y-166520000D03*
X111495000Y-160720000D03*
X112145000Y-160720000D03*
X112795000Y-160720000D03*
X113445000Y-160720000D03*
X116045000Y-160720000D03*
X115395000Y-160720000D03*
X114745000Y-160720000D03*
X114095000Y-160720000D03*
X182485000Y-166520000D03*
X181835000Y-166520000D03*
X181185000Y-166520000D03*
X180535000Y-166520000D03*
X179885000Y-166520000D03*
X179235000Y-166520000D03*
X178585000Y-166520000D03*
X177935000Y-166520000D03*
X177935000Y-160720000D03*
X178585000Y-160720000D03*
X179235000Y-160720000D03*
X179885000Y-160720000D03*
X182485000Y-160720000D03*
X181835000Y-160720000D03*
X181185000Y-160720000D03*
X180535000Y-160720000D03*
D24*
X103245000Y-165560000D03*
X103245000Y-165060000D03*
X103245000Y-164560000D03*
X103245000Y-164060000D03*
X103245000Y-163560000D03*
X103245000Y-163060000D03*
X103245000Y-162560000D03*
X103245000Y-162060000D03*
X108195000Y-162060000D03*
X108195000Y-162560000D03*
X108195000Y-163060000D03*
X108195000Y-163560000D03*
X108195000Y-164060000D03*
X108195000Y-164560000D03*
X108195000Y-165060000D03*
X108195000Y-165560000D03*
D25*
X103970000Y-161335000D03*
X104470000Y-161335000D03*
X104970000Y-161335000D03*
X105470000Y-161335000D03*
X105970000Y-161335000D03*
X106470000Y-161335000D03*
X106970000Y-161335000D03*
X107470000Y-161335000D03*
X107470000Y-166285000D03*
X106970000Y-166285000D03*
X106470000Y-166285000D03*
X105970000Y-166285000D03*
X105470000Y-166285000D03*
X104970000Y-166285000D03*
X104470000Y-166285000D03*
D23*
X105720000Y-163810000D03*
D25*
X103970000Y-166285000D03*
D125*
X110475000Y-114540000D03*
X110475000Y-114920000D03*
X110475000Y-115300000D03*
X110025000Y-115300000D03*
X110025000Y-114920000D03*
X110025000Y-114540000D03*
X176905000Y-114540000D03*
X176905000Y-114920000D03*
X176905000Y-115300000D03*
X176455000Y-115300000D03*
X176455000Y-114920000D03*
X176455000Y-114540000D03*
D28*
X137140000Y-126479580D03*
X137140000Y-125580420D03*
X147490000Y-156750420D03*
X147490000Y-157649580D03*
X137260000Y-132840420D03*
X137260000Y-133739580D03*
X137340000Y-129969580D03*
X137340000Y-129070420D03*
X148510000Y-130789580D03*
X148510000Y-129890420D03*
X192240420Y-148590000D03*
X193139580Y-148590000D03*
X192240420Y-142390000D03*
X193139580Y-142390000D03*
X192240420Y-143460000D03*
X193139580Y-143460000D03*
X192240420Y-144520000D03*
X193139580Y-144520000D03*
X192240420Y-145570000D03*
X193139580Y-145570000D03*
X192240420Y-146570000D03*
X193139580Y-146570000D03*
X192240420Y-147580000D03*
X193139580Y-147580000D03*
X126480000Y-210839580D03*
X126480000Y-209940420D03*
D126*
X68060420Y-131770420D03*
X68060420Y-136850420D03*
X68060420Y-134310420D03*
X68030420Y-144850420D03*
X68030420Y-149930420D03*
X68030420Y-147390420D03*
X83870000Y-105225000D03*
X83870000Y-110305000D03*
X83870000Y-107765000D03*
D105*
X194950000Y-205630000D03*
X197850000Y-205630000D03*
D81*
X196400000Y-207130000D03*
X196400000Y-204130000D03*
D28*
X136120000Y-127490420D03*
X136120000Y-128389580D03*
X136120000Y-126479580D03*
X136120000Y-125580420D03*
X139370000Y-138009580D03*
X139370000Y-137110420D03*
X141369580Y-137110000D03*
X140470420Y-137110000D03*
X149490000Y-129880420D03*
X149490000Y-130779580D03*
X149489580Y-128900000D03*
X148590420Y-128900000D03*
X194520420Y-148590000D03*
X195419580Y-148590000D03*
X194520420Y-142390000D03*
X195419580Y-142390000D03*
X194520420Y-143460000D03*
X195419580Y-143460000D03*
X194520420Y-144520000D03*
X195419580Y-144520000D03*
X194520420Y-145580000D03*
X195419580Y-145580000D03*
X194520420Y-146570000D03*
X195419580Y-146570000D03*
X194520420Y-147580000D03*
X195419580Y-147580000D03*
D10*
G36*
X178397901Y-113201777D02*
X178888223Y-113692099D01*
X178397901Y-114182421D01*
X177907579Y-113692099D01*
X178397901Y-113201777D01*
X178397901Y-113201777D01*
G37*
G36*
X177762099Y-113837579D02*
X178252421Y-114327901D01*
X177762099Y-114818223D01*
X177271777Y-114327901D01*
X177762099Y-113837579D01*
X177762099Y-113837579D01*
G37*
D97*
X145590420Y-156760000D03*
X145590420Y-157410000D03*
X145590420Y-158060000D03*
X145590420Y-158710000D03*
X145590420Y-159360000D03*
X145590420Y-160010000D03*
X145590420Y-160660000D03*
X145590420Y-161310000D03*
X139790420Y-161310000D03*
X139790420Y-160660000D03*
X139790420Y-160010000D03*
X139790420Y-159360000D03*
X139790420Y-156760000D03*
X139790420Y-157410000D03*
X139790420Y-158060000D03*
X139790420Y-158710000D03*
D77*
X138720000Y-133740000D03*
X140020000Y-133740000D03*
X140020000Y-135940000D03*
X139370000Y-135940000D03*
X138720000Y-135940000D03*
X138720000Y-129090000D03*
X140020000Y-129090000D03*
X140020000Y-131290000D03*
X139370000Y-131290000D03*
X138720000Y-131290000D03*
D28*
X168440420Y-206140000D03*
X169339580Y-206140000D03*
D10*
G36*
X155706776Y-201745736D02*
X155954264Y-201993224D01*
X155742132Y-202205356D01*
X155494644Y-201957868D01*
X155706776Y-201745736D01*
X155706776Y-201745736D01*
G37*
G36*
X155317868Y-202134644D02*
X155565356Y-202382132D01*
X155353224Y-202594264D01*
X155105736Y-202346776D01*
X155317868Y-202134644D01*
X155317868Y-202134644D01*
G37*
D28*
X170540420Y-206140000D03*
X171439580Y-206140000D03*
D10*
G36*
X156801942Y-203019379D02*
X156094835Y-202312272D01*
X157332272Y-201074835D01*
X158039379Y-201781942D01*
X156801942Y-203019379D01*
X156801942Y-203019379D01*
G37*
G36*
X155387728Y-201605165D02*
X154680621Y-200898058D01*
X155918058Y-199660621D01*
X156625165Y-200367728D01*
X155387728Y-201605165D01*
X155387728Y-201605165D01*
G37*
G36*
X157491371Y-200632893D02*
X157067107Y-200208629D01*
X157774213Y-199501523D01*
X158198477Y-199925787D01*
X157491371Y-200632893D01*
X157491371Y-200632893D01*
G37*
G36*
X154945787Y-203178477D02*
X154521523Y-202754213D01*
X155228629Y-202047107D01*
X155652893Y-202471371D01*
X154945787Y-203178477D01*
X154945787Y-203178477D01*
G37*
D59*
X89490000Y-258270000D03*
X89490000Y-259770000D03*
X155920000Y-258270000D03*
X155920000Y-259770000D03*
D53*
X89490000Y-258460000D03*
X89490000Y-259580000D03*
D54*
X89287500Y-259020000D03*
X89692500Y-259020000D03*
D53*
X155920000Y-258460000D03*
X155920000Y-259580000D03*
D54*
X155717500Y-259020000D03*
X156122500Y-259020000D03*
D59*
X69710000Y-258920000D03*
X69710000Y-257420000D03*
D58*
X109350000Y-254515000D03*
X109350000Y-253965000D03*
X109350000Y-256855000D03*
X109350000Y-256305000D03*
D59*
X136150000Y-258920000D03*
X136150000Y-257420000D03*
D58*
X175780000Y-254515000D03*
X175780000Y-253965000D03*
X175780000Y-256855000D03*
X175780000Y-256305000D03*
D53*
X69710000Y-258730000D03*
X69710000Y-257610000D03*
D54*
X69912500Y-258170000D03*
X69507500Y-258170000D03*
D127*
X108350000Y-255410000D03*
X110350000Y-255410000D03*
D128*
X109350000Y-257210000D03*
X109350000Y-253610000D03*
D53*
X136150000Y-258730000D03*
X136150000Y-257610000D03*
D54*
X136352500Y-258170000D03*
X135947500Y-258170000D03*
D127*
X174780000Y-255410000D03*
X176780000Y-255410000D03*
D128*
X175780000Y-257210000D03*
X175780000Y-253610000D03*
D28*
X87840420Y-206754580D03*
X87840420Y-205855420D03*
X154300420Y-206754580D03*
X154300420Y-205855420D03*
D92*
X87845420Y-205565000D03*
X87845420Y-207045000D03*
D93*
X88795420Y-206305000D03*
D92*
X87845420Y-205565000D03*
X87845420Y-207045000D03*
D93*
X88795420Y-206305000D03*
D92*
X87845420Y-205565000D03*
X87845420Y-207045000D03*
D93*
X88795420Y-206305000D03*
D92*
X154305420Y-205565000D03*
X154305420Y-207045000D03*
D93*
X155255420Y-206305000D03*
D92*
X154305420Y-205565000D03*
X154305420Y-207045000D03*
D93*
X155255420Y-206305000D03*
D92*
X154305420Y-205565000D03*
X154305420Y-207045000D03*
D93*
X155255420Y-206305000D03*
D85*
X73810000Y-260240000D03*
X65610000Y-260240000D03*
D129*
X69710000Y-261490000D03*
D85*
X93580000Y-260240000D03*
X85380000Y-260240000D03*
D129*
X89480000Y-261490000D03*
D85*
X113440000Y-260240000D03*
X105240000Y-260240000D03*
D129*
X109340000Y-261490000D03*
D85*
X140250000Y-260240000D03*
X132050000Y-260240000D03*
D129*
X136150000Y-261490000D03*
D85*
X160020000Y-260240000D03*
X151820000Y-260240000D03*
D129*
X155920000Y-261490000D03*
D85*
X179880000Y-260240000D03*
X171680000Y-260240000D03*
D129*
X175780000Y-261490000D03*
D28*
X213120000Y-201590420D03*
X213120000Y-202489580D03*
X209829580Y-191940000D03*
X208930420Y-191940000D03*
D130*
X209830420Y-196505000D03*
X209830420Y-201585000D03*
D131*
X209830420Y-204125000D03*
D130*
X209830420Y-199045000D03*
X209830420Y-193965000D03*
D28*
X209829580Y-191040000D03*
X208930420Y-191040000D03*
X209829580Y-190130000D03*
X208930420Y-190130000D03*
X205290840Y-204415000D03*
X206190000Y-204415000D03*
X206190000Y-203415000D03*
X205290840Y-203415000D03*
X206190000Y-202415000D03*
X205290840Y-202415000D03*
X205260840Y-199685000D03*
X206160000Y-199685000D03*
X206150000Y-198715000D03*
X205250840Y-198715000D03*
X206150000Y-197745000D03*
X205250840Y-197745000D03*
D132*
X204120420Y-198380000D03*
X204120420Y-199030000D03*
X204120420Y-199680000D03*
X204120420Y-200330000D03*
X200320420Y-200330000D03*
X200320420Y-199680000D03*
X200320420Y-199030000D03*
X200320420Y-198380000D03*
D133*
X68040420Y-176685420D03*
D134*
X64790420Y-171885420D03*
D135*
X71040420Y-171885420D03*
D28*
X100450420Y-150465840D03*
X100450420Y-151365000D03*
X113900420Y-151415000D03*
X113900420Y-150515840D03*
X166900420Y-150515840D03*
X166900420Y-151415000D03*
X180350420Y-151415000D03*
X180350420Y-150515840D03*
D92*
X100455420Y-150185420D03*
X100455420Y-151665420D03*
D93*
X101405420Y-150925420D03*
D92*
X113905420Y-150225420D03*
X113905420Y-151705420D03*
D93*
X114855420Y-150965420D03*
D92*
X166905420Y-150225420D03*
X166905420Y-151705420D03*
D93*
X167855420Y-150965420D03*
D92*
X180355420Y-150225420D03*
X180355420Y-151705420D03*
D93*
X181305420Y-150965420D03*
D92*
X100455420Y-150185420D03*
X100455420Y-151665420D03*
D93*
X101405420Y-150925420D03*
D92*
X113905420Y-150225420D03*
X113905420Y-151705420D03*
D93*
X114855420Y-150965420D03*
D92*
X166905420Y-150225420D03*
X166905420Y-151705420D03*
D93*
X167855420Y-150965420D03*
D92*
X180355420Y-150225420D03*
X180355420Y-151705420D03*
D93*
X181305420Y-150965420D03*
D28*
X118749580Y-251280000D03*
X117850420Y-251280000D03*
X116660000Y-249450420D03*
X116660000Y-250349580D03*
X123340420Y-251400000D03*
X124239580Y-251400000D03*
X124239580Y-250600000D03*
X123340420Y-250600000D03*
X124239580Y-249810000D03*
X123340420Y-249810000D03*
D60*
X125150000Y-247110000D03*
X123650000Y-247110000D03*
X126550000Y-247100000D03*
X128050000Y-247100000D03*
D28*
X121690420Y-245550000D03*
X122589580Y-245550000D03*
X121170420Y-250810000D03*
X122069580Y-250810000D03*
X116650000Y-251110420D03*
X116650000Y-252009580D03*
X123340420Y-248890000D03*
X124239580Y-248890000D03*
D136*
X118215000Y-247050000D03*
D137*
X122065000Y-247050000D03*
D136*
X118215000Y-249450000D03*
D137*
X122065000Y-249450000D03*
D138*
X118215000Y-248250000D03*
D123*
X119540000Y-247125000D03*
X120740000Y-247125000D03*
X120749600Y-249375000D03*
X119540000Y-249375000D03*
D124*
X122065000Y-248255080D03*
D132*
X204100420Y-203120000D03*
X204100420Y-203770000D03*
X204100420Y-204420000D03*
X204100420Y-205070000D03*
X200300420Y-205070000D03*
X200300420Y-204420000D03*
X200300420Y-203770000D03*
X200300420Y-203120000D03*
D139*
X186630000Y-213940000D03*
X189170000Y-213940000D03*
X186630000Y-217120000D03*
X189170000Y-217120000D03*
X187900000Y-217120000D03*
X187900000Y-213940000D03*
X120190000Y-213940000D03*
X122730000Y-213940000D03*
X120190000Y-217120000D03*
X122730000Y-217120000D03*
X121460000Y-217120000D03*
X121460000Y-213940000D03*
D97*
X145590000Y-139985000D03*
X145590000Y-140635000D03*
X145590000Y-141285000D03*
X145590000Y-141935000D03*
X145590000Y-142585000D03*
X145590000Y-143235000D03*
X145590000Y-143885000D03*
X145590000Y-144535000D03*
X145590000Y-145185000D03*
X145590000Y-145835000D03*
X145590000Y-146485000D03*
X145590000Y-147135000D03*
X139790000Y-147135000D03*
X139790000Y-146485000D03*
X139790000Y-145835000D03*
X139790000Y-145185000D03*
X139790000Y-144535000D03*
X139790000Y-143885000D03*
X139790000Y-139985000D03*
X139790000Y-140635000D03*
X139790000Y-141285000D03*
X139790000Y-141935000D03*
X139790000Y-142585000D03*
X139790000Y-143235000D03*
X145580000Y-148235000D03*
X145580000Y-148885000D03*
X145580000Y-149535000D03*
X145580000Y-150185000D03*
X145580000Y-150835000D03*
X145580000Y-151485000D03*
X145580000Y-152135000D03*
X145580000Y-152785000D03*
X145580000Y-153435000D03*
X145580000Y-154085000D03*
X145580000Y-154735000D03*
X145580000Y-155385000D03*
X139780000Y-155385000D03*
X139780000Y-154735000D03*
X139780000Y-154085000D03*
X139780000Y-153435000D03*
X139780000Y-152785000D03*
X139780000Y-152135000D03*
X139780000Y-148235000D03*
X139780000Y-148885000D03*
X139780000Y-149535000D03*
X139780000Y-150185000D03*
X139780000Y-150835000D03*
X139780000Y-151485000D03*
D140*
X183910000Y-242780000D03*
X187310000Y-242780000D03*
D13*
X70600000Y-125310000D03*
X70600000Y-125310000D03*
M02*
