M48
;DRILL file {KiCad 4.0.7-e2-6376~61~ubuntu18.04.1} date Mon May 30 11:29:37 2022
;FORMAT={-:-/ absolute / inch / decimal}
FMAT,2
INCH,TZ
T1C0.006
T2C0.008
T3C0.012
T4C0.016
T5C0.039
T6C0.040
T7C0.079
T8C0.083
T9C0.118
%
G90
G05
M72
T1
X1.8077Y-8.7069
X1.9984Y-8.6925
X2.2563Y-8.5772
X2.3Y-8.5689
X2.3165Y-7.4232
X2.3354Y-8.5713
X2.4484Y-8.5398
X2.4654Y-7.4228
X2.5335Y-8.2543
X2.5346Y-8.3945
X2.5425Y-9.7657
X2.5583Y-8.3232
X2.6248Y-4.4154
X2.6563Y-3.8055
X2.6648Y-4.2687
X2.713Y-4.1467
X2.7146Y-9.3591
X2.724Y-9.5047
X2.7354Y-3.7787
X2.7552Y-8.909
X2.7659Y-4.0159
X2.7802Y-8.8839
X2.7821Y-3.9171
X2.7846Y-8.1984
X2.7937Y-7.9512
X2.803Y-3.723
X2.8134Y-8.0358
X2.8209Y-7.535
X2.828Y-7.7902
X2.8288Y-8.9826
X2.8488Y-7.7083
X2.849Y-3.7026
X2.8512Y-7.5138
X2.8539Y-8.9576
X2.8594Y-7.5457
X2.8646Y-3.9776
X2.8646Y-7.474
X2.865Y-7.4736
X2.8717Y-7.5323
X2.8724Y-3.9988
X2.8766Y-3.7963
X2.8766Y-3.9053
X2.8803Y-8.1976
X2.8844Y-3.9565
X2.8898Y-7.589
X2.9039Y-9.4807
X2.9114Y-7.7461
X2.9134Y-7.6681
X2.9154Y-7.5472
X2.9173Y-7.5886
X2.9177Y-8.3425
X2.9232Y-8.7921
X2.924Y-7.7083
X2.9244Y-7.4512
X2.9244Y-7.6362
X2.9287Y-7.0197
X2.9335Y-7.8748
X2.939Y-3.8035
X2.9463Y-4.1065
X2.9555Y-8.8972
X2.963Y-8.7748
X2.9634Y-7.8657
X2.9685Y-3.7457
X2.9929Y-7.2886
X3.0068Y-8.6558
X3.0104Y-4.0833
X3.013Y-3.826
X3.0165Y-9.9268
X3.0181Y-3.9051
X3.0193Y-8.8697
X3.0316Y-8.6304
X3.0795Y-7.3283
X3.0798Y-8.7291
X3.0909Y-3.5012
X3.105Y-8.7039
X3.1118Y-7.4701
X3.1181Y-7.2594
X3.1181Y-7.4083
X3.1291Y-8.0209
X3.1311Y-8.0587
X3.1354Y-10.1736
X3.1441Y-9.4583
X3.1445Y-9.4256
X3.1445Y-9.578
X3.1526Y-4.0837
X3.1618Y-7.3799
X3.1657Y-7.1299
X3.172Y-9.5079
X3.1748Y-9.5756
X3.2114Y-10.1386
X3.2122Y-3.8736
X3.2122Y-3.9205
X3.2228Y-7.322
X3.2307Y-9.8394
X3.2461Y-7.472
X3.2512Y-4.1059
X3.263Y-9.5642
X3.2736Y-8.2811
X3.2817Y-3.9112
X3.2846Y-9.5705
X3.2913Y-7.7382
X3.2921Y-7.5764
X3.3053Y-9.1553
X3.3106Y-8.2748
X3.3378Y-9.6815
X3.35Y-8.7339
X3.3512Y-7.6441
X3.3547Y-7.7185
X3.3756Y-9.6811
X3.3846Y-7.6441
X3.4039Y-7.6268
X3.4268Y-7.3602
X3.4445Y-7.0752
X3.45Y-9.8417
X3.5315Y-8.3335
X3.539Y-8.0925
X3.5449Y-8.3665
X3.5469Y-8.0512
X3.572Y-8.5606
X3.5728Y-7.9917
X3.5846Y-8.1988
X3.5886Y-8.5886
X3.5945Y-8.5398
X3.5965Y-8.513
X3.5988Y-9.6752
X3.6008Y-7.2823
X3.6051Y-7.9764
X3.6067Y-8.2205
X3.6122Y-9.5413
X3.6189Y-7.9441
X3.6323Y-7.25
X3.6346Y-9.6606
X3.641Y-8.6346
X3.6453Y-7.9378
X3.6461Y-7.5988
X3.6622Y-7.3173
X3.6654Y-9.6614
X3.6724Y-7.9268
X3.674Y-8.6382
X3.6839Y-7.7327
X3.6854Y-8.1957
X3.6898Y-9.8799
X3.6898Y-9.9957
X3.6992Y-8.213
X3.7004Y-7.3224
X3.7004Y-7.9272
X3.7051Y-8.372
X3.7094Y-8.3331
X3.7106Y-8.6433
X3.7272Y-8.2634
X3.7276Y-8.2114
X3.7287Y-8.3087
X3.7378Y-8.3528
X3.7508Y-8.6441
X3.7512Y-8.2835
X3.7543Y-9.9339
X3.7665Y-7.2413
X3.8157Y-9.8713
X3.8177Y-9.9626
X3.8346Y-8.1862
X3.8681Y-8.187
X3.8709Y-7.6516
X3.8752Y-7.6035
X3.8752Y-8.137
X3.876Y-8.437
X3.8831Y-8.5858
X3.8984Y-8.4906
X3.9063Y-8.2094
X3.9075Y-8.4244
X3.9098Y-8.3654
X3.9154Y-8.3949
X3.9208Y-7.6033
X3.9209Y-9.2827
X3.9228Y-8.4622
X3.924Y-9.4736
X3.9327Y-10.0429
X3.941Y-9.263
X3.9441Y-9.6323
X3.9543Y-9.4492
X3.9543Y-9.9756
X3.9646Y-9.2823
X3.9689Y-9.8224
X3.9709Y-8.3075
X3.972Y-8.5402
X3.9724Y-8.0807
X3.9744Y-8.5681
X3.9752Y-9.4362
X3.9807Y-9.2563
X3.9894Y-9.9028
X3.9949Y-9.4185
X4.0071Y-8.3768
X4.0093Y-9.2644
X4.0417Y-8.6665
X4.0461Y-10.215
X4.0488Y-8.5417
X4.0591Y-8.0811
X4.0614Y-8.4591
X4.0665Y-8.3898
X4.074Y-7.0929
X4.0748Y-7.1787
X4.0815Y-8.0461
X4.0827Y-7.4815
X4.0961Y-8.5169
X4.128Y-7.9728
X4.128Y-8.0264
X4.1547Y-7.7571
X4.1626Y-8.0173
X4.1673Y-7.9811
X4.17Y-7.7826
X4.1815Y-8.1008
X4.1945Y-7.8043
X4.198Y-7.9835
X4.198Y-8.026
X4.2029Y-7.8791
X4.2042Y-7.3081
X4.2042Y-8.4652
X4.2042Y-7.7324
X4.2214Y-7.308
X4.2214Y-8.4651
X4.2271Y-8.0183
X4.2405Y-7.3081
X4.2405Y-8.4652
X4.2478Y-8.0439
X4.2502Y-7.8673
X4.2502Y-7.8909
X4.2516Y-8.0874
X4.2576Y-7.308
X4.2576Y-8.4651
X4.2634Y-7.7917
X4.2732Y-7.9949
X4.2787Y-7.7758
X4.2807Y-8.6898
X4.2823Y-7.7291
X4.2884Y-7.7066
X4.2945Y-8.5504
X4.2992Y-7.9953
X4.3033Y-8.0888
X4.3034Y-7.685
X4.3052Y-7.7757
X4.3289Y-7.9966
X4.3413Y-8.0882
X4.3429Y-7.6846
X4.3565Y-7.7806
X4.3565Y-7.9932
X4.3579Y-7.7343
X4.3579Y-8.0394
X4.3787Y-7.735
X4.3787Y-8.0398
X4.3799Y-9.4374
X4.3801Y-7.7806
X4.3801Y-7.9932
X4.3925Y-7.6854
X4.3945Y-8.0882
X4.4098Y-9.5224
X4.4146Y-9.0323
X4.4234Y-7.7787
X4.4323Y-7.685
X4.4331Y-8.0888
X4.4425Y-9.0736
X4.4431Y-7.9932
X4.4437Y-8.8925
X4.4445Y-8.0654
X4.447Y-7.7791
X4.4667Y-7.8515
X4.4667Y-7.8751
X4.4669Y-8.0835
X4.4689Y-7.7764
X4.474Y-8.0429
X4.489Y-9.3161
X4.4909Y-8.1217
X4.4949Y-6.8626
X4.4951Y-7.6689
X4.5059Y-7.7677
X4.5114Y-9.8894
X4.5118Y-8.0539
X4.512Y-7.8633
X4.5152Y-9.915
X4.5152Y-9.9406
X4.5152Y-9.9661
X4.5272Y-8.0161
X4.5287Y-7.7685
X4.5488Y-8.0205
X4.552Y-7.7665
X4.5701Y-7.9394
X4.573Y-7.6901
X4.573Y-7.7216
X4.573Y-7.7452
X4.5756Y-7.122
X4.5878Y-6.9244
X4.589Y-8.0287
X4.5961Y-7.0339
X4.5961Y-8.0567
X4.6068Y-7.7002
X4.6142Y-6.8413
X4.6152Y-7.6709
X4.6169Y-7.0929
X4.6177Y-8.0445
X4.6273Y-7.6898
X4.6299Y-7.5287
X4.6307Y-7.648
X4.6378Y-8.9728
X4.6398Y-8.0382
X4.6417Y-7.0378
X4.6445Y-9.8563
X4.6567Y-8.9118
X4.6583Y-9.6764
X4.6677Y-8.0697
X4.6764Y-8.2315
X4.6799Y-9.7988
X4.685Y-8.1909
X4.6917Y-9.4835
X4.6929Y-8.1083
X4.6949Y-9.4461
X4.6961Y-9.4071
X4.6969Y-9.7776
X4.7039Y-8.313
X4.7055Y-8.2472
X4.7075Y-7.5583
X4.7094Y-7.0087
X4.7146Y-9.7563
X4.7232Y-8.9535
X4.7256Y-9.3126
X4.7323Y-9.0126
X4.7366Y-8.6575
X4.7409Y-9.8122
X4.748Y-9.4024
X4.7614Y-8.1496
X4.7614Y-8.1819
X4.7622Y-8.2146
X4.7622Y-8.2468
X4.7622Y-7.1921
X4.7626Y-8.278
X4.7626Y-8.3126
X4.7626Y-8.3465
X4.7626Y-8.3811
X4.7772Y-7.3874
X4.7803Y-8.5614
X4.797Y-8.5781
X4.802Y-7.3366
X4.8094Y-8.5906
X4.8161Y-10.1433
X4.8181Y-8.7134
X4.8291Y-8.8642
X4.8303Y-9.2516
X4.839Y-8.0945
X4.8488Y-7.1248
X4.8496Y-9.6563
X4.8764Y-7.1449
X4.8941Y-7.5823
X4.9051Y-7.4319
X4.9086Y-7.7387
X4.9086Y-7.7749
X4.9087Y-7.7558
X4.9087Y-7.7921
X4.909Y-7.9347
X4.909Y-7.9709
X4.9091Y-7.9518
X4.9091Y-7.9881
X4.9106Y-7.2193
X4.9291Y-9.6602
X4.9291Y-9.8634
X4.9366Y-8.8567
X4.9429Y-8.7197
X4.9461Y-7.3157
X4.9465Y-9.6339
X4.9504Y-9.4248
X4.9508Y-9.3339
X4.9547Y-7.3409
X4.9598Y-9.8898
X4.9634Y-9.6091
X4.9709Y-9.915
X4.9724Y-9.5224
X4.974Y-7.1795
X4.9768Y-7.4079
X4.9787Y-9.8437
X4.9803Y-9.5831
X4.9819Y-9.1894
X4.9819Y-9.2413
X4.9858Y-9.2787
X4.989Y-8.3236
X4.9953Y-8.5646
X4.9957Y-9.3811
X4.9965Y-9.5575
X4.9969Y-8.2689
X4.9969Y-8.5945
X4.9972Y-8.4406
X4.9988Y-9.3583
X4.9996Y-9.8201
X5.0031Y-7.8457
X5.0063Y-8.1157
X5.0094Y-7.8772
X5.0146Y-6.9705
X5.0146Y-9.7677
X5.0252Y-8.2236
X5.0331Y-9.4811
X5.0441Y-7.3197
X5.0441Y-7.3729
X5.05Y-9.2925
X5.0634Y-8.6591
X5.0642Y-8.3236
X5.0646Y-9.4512
X5.0673Y-8.1083
X5.0673Y-9.478
X5.0701Y-9.7689
X5.0736Y-8.5992
X5.0961Y-8.224
X5.1035Y-8.5744
X5.1146Y-9.5339
X5.1283Y-9.1764
X5.135Y-7.3256
X5.1433Y-7.4268
X5.1539Y-6.8744
X5.1559Y-7.398
X5.1642Y-9.215
X5.1661Y-8.7197
X5.1697Y-9.8882
X5.1783Y-7.3118
X5.1846Y-8.9469
X5.1862Y-9.3339
X5.1882Y-6.9728
X5.1894Y-8.4713
X5.1965Y-8.0441
X5.2035Y-8.2835
X5.2059Y-9.3783
X5.2075Y-8.3744
X5.2079Y-8.163
X5.211Y-8.1386
X5.2157Y-8.2433
X5.2197Y-8.2106
X5.2197Y-8.3071
X5.2201Y-8.1146
X5.222Y-8.0681
X5.2264Y-8.7193
X5.2303Y-10.1941
X5.2315Y-8.1819
X5.239Y-8.0004
X5.2405Y-8.2599
X5.2547Y-9.4673
X5.2594Y-9.4437
X5.2638Y-8.0752
X5.2724Y-6.9374
X5.2768Y-8.7835
X5.2843Y-6.9634
X5.3047Y-7.111
X5.3154Y-9.4772
X5.3205Y-8.7197
X5.3394Y-8.252
X5.3413Y-9.1646
X5.3453Y-8.2126
X5.3453Y-9.8138
X5.3467Y-8.4417
X5.3469Y-9.4366
X5.3472Y-9.413
X5.3539Y-9.7315
X5.3591Y-9.2087
X5.3598Y-9.3425
X5.365Y-9.889
X5.3657Y-9.685
X5.3677Y-9.3689
X5.3693Y-9.4587
X5.3764Y-9.2874
X5.3787Y-9.322
X5.3807Y-9.2579
X5.4004Y-9.9701
X5.413Y-10.0398
X5.4197Y-9.6614
X5.4228Y-9.6343
X5.4276Y-9.6083
X5.4858Y-10.0457
X5.4862Y-8.7823
X5.5051Y-8.2102
X5.5201Y-10.0283
X5.5209Y-8.7508
X5.5291Y-8.2256
X5.55Y-8.1921
X5.615Y-7.0457
X5.6173Y-7.2315
X5.6197Y-7.4461
X5.6264Y-7.3059
X5.6317Y-7.4337
X5.6457Y-7.2039
X5.6843Y-7.1335
X5.6862Y-9.376
X5.6941Y-9.5047
X5.711Y-7.2079
X5.7116Y-7.0266
X5.7189Y-7.6413
X5.7254Y-8.9088
X5.7331Y-8.3224
X5.7343Y-8.063
X5.7346Y-8.3992
X5.737Y-7.5827
X5.7504Y-8.8838
X5.752Y-7.9516
X5.7685Y-6.8827
X5.7685Y-7.5626
X5.7807Y-9.8098
X5.7835Y-8.0358
X5.7835Y-8.1976
X5.7937Y-7.7516
X5.7984Y-7.7902
X5.7991Y-8.9821
X5.8053Y-9.8337
X5.8185Y-7.7087
X5.8239Y-8.9573
X5.8386Y-9.8465
X5.85Y-8.1976
X5.8661Y-8.1083
X5.8689Y-7.5398
X5.8689Y-7.5925
X5.8744Y-7.5673
X5.8839Y-7.6488
X5.8843Y-7.6673
X5.8906Y-8.3441
X5.8929Y-8.7921
X5.8949Y-7.7839
X5.8992Y-7.7335
X5.9024Y-7.0677
X5.9106Y-7.3465
X5.9126Y-6.7713
X5.9256Y-8.8972
X5.9333Y-8.7744
X5.954Y-7.0039
X5.9701Y-7.2756
X5.977Y-8.6555
X5.9839Y-7.0705
X5.9866Y-9.9299
X5.9894Y-8.8697
X6.0021Y-8.6305
X6.037Y-9.3941
X6.037Y-9.5441
X6.037Y-9.5894
X6.0429Y-9.4476
X6.0492Y-7.3205
X6.05Y-8.729
X6.0753Y-8.7042
X6.0819Y-7.4701
X6.0882Y-7.4079
X6.0969Y-8.0575
X6.098Y-8.0232
X6.0992Y-10.1831
X6.1039Y-6.874
X6.1043Y-7.2484
X6.1256Y-8.2331
X6.1303Y-7.1465
X6.1319Y-7.3795
X6.1421Y-9.5079
X6.1539Y-6.9213
X6.165Y-7.3268
X6.1815Y-10.1386
X6.1827Y-7.378
X6.1945Y-6.9
X6.2134Y-9.828
X6.2161Y-7.472
X6.2398Y-8.2559
X6.2693Y-8.0555
X6.2713Y-10.1382
X6.2728Y-9.8035
X6.276Y-8.2551
X6.2762Y-9.1561
X6.2787Y-7.5398
X6.3071Y-9.889
X6.3091Y-9.8665
X6.3114Y-9.6811
X6.3138Y-7.7012
X6.3146Y-9.0988
X6.3201Y-8.7335
X6.322Y-7.5146
X6.3417Y-7.6638
X6.3441Y-7.6433
X6.3453Y-9.9173
X6.3457Y-7.578
X6.3902Y-9.9559
X6.4079Y-7.2575
X6.4134Y-7.2134
X6.4142Y-7.0756
X6.4146Y-7.3543
X6.4201Y-9.8441
X6.4232Y-9.8024
X6.4496Y-6.9913
X6.4854Y-7.0299
X6.4854Y-7.1567
X6.4886Y-7.4803
X6.5181Y-8.3626
X6.5362Y-7.9709
X6.5362Y-8.5732
X6.5567Y-7.976
X6.5598Y-8.3031
X6.563Y-8.5783
X6.5646Y-8.5398
X6.5709Y-7.2823
X6.5736Y-7.9492
X6.578Y-8.1736
X6.5957Y-8.189
X6.602Y-7.352
X6.611Y-7.6055
X6.611Y-8.6346
X6.6126Y-9.9295
X6.6169Y-8.1941
X6.6398Y-7.3228
X6.6441Y-8.6382
X6.6453Y-8.5051
X6.6496Y-7.9327
X6.6555Y-8.1957
X6.6642Y-8.3008
X6.6693Y-8.213
X6.6744Y-8.6307
X6.6768Y-7.9374
X6.6933Y-8.3185
X6.6933Y-8.3669
X6.6965Y-7.9449
X6.6976Y-8.2114
X6.6992Y-8.2941
X6.7024Y-8.3417
X6.7083Y-7.5122
X6.7083Y-8.2701
X6.7209Y-8.6441
X6.75Y-7.1646
X6.7551Y-9.9295
X6.7736Y-7.1894
X6.7751Y-7.9501
X6.7751Y-7.9863
X6.7752Y-7.9672
X6.7752Y-8.0035
X6.7756Y-9.9634
X6.7894Y-9.6634
X6.7913Y-9.6331
X6.7929Y-7.6555
X6.8004Y-7.5976
X6.8122Y-8.4591
X6.8382Y-8.187
X6.839Y-8.3795
X6.8445Y-8.4575
X6.8457Y-8.4031
X6.8469Y-7.5984
X6.8528Y-8.1461
X6.8539Y-8.4807
X6.8768Y-8.2091
X6.8917Y-7.6031
X6.8957Y-9.2823
X6.9083Y-8.6303
X6.911Y-9.2539
X6.9319Y-8.6618
X6.9386Y-9.278
X6.9504Y-9.2543
X6.9539Y-8.6567
X6.9795Y-9.5189
X6.985Y-9.265
X6.9965Y-9.502
X7.0028Y-9.6921
X7.0134Y-8.0846
X7.0161Y-10.161
X7.0205Y-8.1165
X7.0587Y-8.0429
X7.076Y-8.022
X7.0783Y-7.298
X7.1161Y-7.9697
X7.1327Y-8.0043
X7.139Y-8.635
X7.1406Y-7.7827
X7.1409Y-9.7421
X7.1449Y-7.9728
X7.161Y-7.8039
X7.1677Y-7.9665
X7.1697Y-8.0268
X7.1732Y-7.8791
X7.1743Y-7.3081
X7.1748Y-7.7323
X7.1915Y-7.308
X7.1976Y-8.0181
X7.2106Y-7.3081
X7.2181Y-8.0437
X7.2197Y-8.7346
X7.2205Y-7.8669
X7.2205Y-7.8909
X7.2277Y-7.308
X7.2335Y-7.7913
X7.2382Y-8.0724
X7.2406Y-7.9933
X7.2492Y-7.776
X7.252Y-7.7268
X7.2594Y-7.7059
X7.2638Y-7.9933
X7.2736Y-7.685
X7.2736Y-8.0886
X7.2756Y-7.7756
X7.2882Y-7.2724
X7.2992Y-7.9965
X7.3122Y-7.6878
X7.313Y-8.089
X7.3228Y-7.2248
X7.3268Y-7.7807
X7.3272Y-7.9929
X7.328Y-8.0386
X7.3283Y-7.735
X7.3488Y-8.039
X7.3492Y-7.735
X7.35Y-9.4374
X7.3504Y-7.7807
X7.3504Y-7.9925
X7.3543Y-9.498
X7.3579Y-6.863
X7.363Y-9.0378
X7.3638Y-8.0886
X7.365Y-7.6866
X7.3795Y-9.5201
X7.3937Y-7.7787
X7.4035Y-7.685
X7.4035Y-8.0886
X7.4126Y-9.0736
X7.4134Y-7.9925
X7.4138Y-8.8929
X7.4165Y-7.7783
X7.4201Y-8.9835
X7.4335Y-6.8921
X7.4343Y-8.0803
X7.4358Y-9.3791
X7.437Y-7.8516
X7.437Y-7.8752
X7.4382Y-7.7823
X7.4386Y-9.4406
X7.4598Y-8.0433
X7.461Y-8.9118
X7.4634Y-8.1197
X7.465Y-7.6598
X7.4685Y-8.0835
X7.4736Y-7.7693
X7.4791Y-6.8575
X7.4823Y-8.0374
X7.4827Y-7.863
X7.4852Y-9.8894
X7.4852Y-9.915
X7.4852Y-9.9406
X7.4852Y-9.9661
X7.4882Y-6.9319
X7.4927Y-7.7772
X7.5071Y-7.0921
X7.5091Y-7.9634
X7.515Y-7.7669
X7.5169Y-9.7028
X7.5252Y-8.0197
X7.5362Y-7.9626
X7.537Y-8.0004
X7.5429Y-7.7217
X7.5433Y-7.689
X7.5437Y-7.7453
X7.5441Y-7.0492
X7.5492Y-6.8831
X7.5772Y-7.7004
X7.578Y-8.0307
X7.5858Y-7.6705
X7.5902Y-10.1429
X7.5969Y-6.8894
X7.5976Y-7.6902
X7.6055Y-9.8539
X7.6059Y-8.0315
X7.6189Y-6.8677
X7.6366Y-9.2921
X7.6465Y-8.2315
X7.6531Y-7.6051
X7.6559Y-8.1902
X7.663Y-8.1083
X7.6669Y-9.7776
X7.6671Y-8.0593
X7.6701Y-6.8685
X7.6717Y-9.2138
X7.674Y-8.313
X7.6764Y-8.2465
X7.6795Y-6.8354
X7.6933Y-8.9535
X7.6939Y-9.7474
X7.7173Y-8.6043
X7.728Y-9.3988
X7.7327Y-8.1488
X7.7327Y-8.1811
X7.7327Y-8.278
X7.7327Y-8.3126
X7.7327Y-8.3465
X7.7327Y-8.3811
X7.7331Y-8.2138
X7.7331Y-8.2461
X7.7358Y-8.5811
X7.7508Y-8.5614
X7.7772Y-8.7122
X7.7797Y-8.5904
X7.7874Y-9.3083
X7.7929Y-7.3402
X7.7992Y-8.8642
X7.802Y-9.2839
X7.8063Y-8.1035
X7.8134Y-9.8083
X7.8295Y-6.9165
X7.8331Y-9.6787
X7.8787Y-7.7387
X7.8787Y-7.7749
X7.8788Y-7.7558
X7.8788Y-7.7921
X7.8791Y-7.9347
X7.8791Y-7.9709
X7.8792Y-7.9518
X7.8792Y-7.9881
X7.8807Y-7.2193
X7.8854Y-7.4382
X7.8921Y-10.0071
X7.8992Y-9.8634
X7.8994Y-9.66
X7.9067Y-8.8567
X7.9163Y-9.6341
X7.9201Y-9.4268
X7.9209Y-9.3339
X7.9217Y-9.8276
X7.926Y-7.3236
X7.9337Y-9.6089
X7.9406Y-9.5457
X7.9407Y-9.9152
X7.9437Y-7.1799
X7.9453Y-9.1807
X7.9502Y-9.5833
X7.9543Y-9.837
X7.9559Y-8.4236
X7.9575Y-9.2488
X7.9606Y-9.5122
X7.9622Y-8.5732
X7.9638Y-9.3776
X7.9661Y-9.2752
X7.9665Y-9.5575
X7.9677Y-8.3236
X7.9677Y-9.3512
X7.9693Y-7.3394
X7.9697Y-8.1236
X7.9713Y-9.2976
X7.9724Y-9.4811
X7.9756Y-9.8177
X7.9846Y-9.7677
X7.9913Y-8.5992
X8.0055Y-9.4437
X8.0122Y-8.224
X8.0142Y-7.3729
X8.0169Y-8.6484
X8.0264Y-8.3232
X8.0402Y-9.7689
X8.0437Y-8.5992
X8.0689Y-9.811
X8.0736Y-8.5744
X8.0846Y-9.5339
X8.0906Y-9.3878
X8.1051Y-7.3256
X8.1232Y-8.9854
X8.1311Y-9.1787
X8.1362Y-8.7197
X8.1398Y-9.8882
X8.1484Y-7.3118
X8.1551Y-8.9465
X8.1563Y-9.3339
X8.1591Y-8.4713
X8.1701Y-9.378
X8.1776Y-8.3744
X8.1843Y-8.1272
X8.1878Y-8.4909
X8.2008Y-9.0717
X8.2008Y-10.1937
X8.2055Y-8.7193
X8.2201Y-8.3138
X8.2295Y-9.4437
X8.235Y-9.1134
X8.2665Y-9.4669
X8.2732Y-7.1071
X8.3055Y-9.4736
X8.3114Y-9.1646
X8.3154Y-9.8138
X8.3217Y-9.4035
X8.324Y-9.7315
X8.3291Y-9.2087
X8.3299Y-9.3425
X8.3346Y-9.889
X8.3358Y-9.685
X8.3382Y-9.3689
X8.3433Y-7.2902
X8.3476Y-9.4213
X8.349Y-9.2659
X8.3512Y-9.3295
X8.3543Y-9.302
X8.3815Y-7.4709
X8.3831Y-7.5102
X8.3831Y-9.6862
X8.3835Y-7.5496
X8.3862Y-9.6213
X8.3937Y-9.6508
X8.3984Y-7.5295
X8.3984Y-7.5693
X8.3984Y-7.5992
X8.3988Y-7.4906
X8.4043Y-9.3839
T2
X1.4709Y-7.0335
X1.4728Y-7.6976
X1.4772Y-5.7276
X1.4785Y-7.3589
X1.4795Y-7.2193
X1.4805Y-7.4805
X1.4809Y-6.9254
X1.4833Y-6.3675
X1.4833Y-6.8132
X1.4841Y-6.5632
X1.4854Y-8.0248
X1.4864Y-6.6994
X1.487Y-8.8559
X1.4969Y-8.5465
X1.497Y-8.2415
X1.4978Y-8.4372
X1.5Y-8.7484
X1.5124Y-7.6344
X1.5136Y-7.9002
X1.5193Y-7.2929
X1.5213Y-7.4051
X1.5234Y-7.1152
X1.5344Y-6.4014
X1.5348Y-6.6104
X1.5407Y-8.3368
X1.5411Y-8.6589
X1.5425Y-8.8575
X1.5555Y-6.915
X1.5606Y-5.8185
X1.5665Y-8.1551
X1.5728Y-7.9409
X1.5744Y-7.7882
X1.576Y-5.728
X1.5992Y-8.8583
X1.6169Y-8.3295
X1.6319Y-8.5594
X1.6457Y-5.7906
X1.6476Y-8.7803
X1.6575Y-8.8614
X1.6665Y-6.0043
X1.6689Y-5.8642
X1.6717Y-5.7283
X1.6776Y-7.9449
X1.6906Y-8.1295
X1.7039Y-8.4457
X1.7045Y-7.7648
X1.7045Y-7.9841
X1.7053Y-7.8396
X1.7053Y-8.0589
X1.713Y-8.8614
X1.7183Y-8.3254
X1.7232Y-6.7933
X1.7407Y-8.6368
X1.7504Y-8.3543
X1.7594Y-5.7283
X1.7726Y-8.5805
X1.7791Y-8.8594
X1.8004Y-8.7835
X1.8228Y-6.6858
X1.8283Y-6.5516
X1.8341Y-8.3053
X1.8396Y-8.5797
X1.8492Y-8.8591
X1.8496Y-6.1169
X1.8583Y-5.7287
X1.8587Y-6.3118
X1.8636Y-5.177
X1.864Y-5.0781
X1.8644Y-5.6439
X1.8648Y-5.5451
X1.8652Y-5.3616
X1.8652Y-5.4494
X1.8656Y-5.2628
X1.8665Y-8.1402
X1.8673Y-8.435
X1.8728Y-8.6382
X1.8862Y-5.8118
X1.887Y-5.9776
X1.8974Y-8.3057
X1.9012Y-5.6874
X1.9104Y-8.5809
X1.9213Y-8.8579
X1.9246Y-8.2431
X1.9278Y-5.027
X1.9303Y-7.5177
X1.9311Y-5.1437
X1.9394Y-5.9701
X1.9463Y-7.99
X1.948Y-8.0504
X1.95Y-5.6402
X1.9533Y-7.7703
X1.9539Y-5.7291
X1.9551Y-7.8307
X1.9715Y-5.9919
X1.986Y-8.5813
X1.9882Y-8.8591
X1.9884Y-5.5719
X1.9886Y-5.6878
X2.0024Y-5.828
X2.0081Y-7.9518
X2.0154Y-6.8917
X2.0167Y-5.0514
X2.0171Y-4.9526
X2.0203Y-8.6518
X2.0215Y-7.7372
X2.024Y-4.7043
X2.0258Y-8.1994
X2.0264Y-5.7815
X2.0287Y-4.4138
X2.0311Y-8.3339
X2.0315Y-8.437
X2.0319Y-4.8858
X2.0374Y-5.6406
X2.0411Y-4.5494
X2.0413Y-5.7295
X2.0449Y-8.8583
X2.0695Y-5.5679
X2.0703Y-4.7805
X2.0709Y-8.728
X2.0713Y-8.7661
X2.072Y-8.8
X2.0724Y-8.8382
X2.0738Y-5.3939
X2.0815Y-5.6862
X2.0821Y-8.1833
X2.0846Y-7.8618
X2.0894Y-6.2776
X2.1104Y-8.3321
X2.112Y-8.5467
X2.1154Y-8.1169
X2.1215Y-6.0719
X2.1217Y-4.4122
X2.1226Y-5.9939
X2.1244Y-6.9437
X2.1303Y-5.639
X2.1319Y-8.8575
X2.1343Y-5.728
X2.1396Y-8.3321
X2.1575Y-8.7953
X2.1602Y-7.8697
X2.1638Y-7.8354
X2.1685Y-8.4173
X2.175Y-5.5628
X2.1783Y-4.4138
X2.1799Y-4.4835
X2.1803Y-5.6866
X2.1866Y-8.5035
X2.1866Y-8.6421
X2.1909Y-8.8555
X2.1965Y-7.6791
X2.1992Y-7.8488
X2.2028Y-7.8146
X2.2112Y-7.7348
X2.2146Y-8.1913
X2.215Y-8.0154
X2.215Y-8.0472
X2.215Y-8.0795
X2.215Y-8.1539
X2.215Y-8.2295
X2.2154Y-8.1181
X2.2157Y-8.2634
X2.2161Y-8.3016
X2.2201Y-7.0843
X2.2226Y-5.1746
X2.2234Y-7.3927
X2.2236Y-7.9461
X2.2236Y-7.978
X2.2291Y-5.6394
X2.2291Y-8.8551
X2.2311Y-8.535
X2.2319Y-8.4705
X2.2319Y-8.6091
X2.2331Y-5.7283
X2.2406Y-7.1945
X2.2406Y-7.3535
X2.2431Y-7.5096
X2.2606Y-5.8382
X2.263Y-8.8543
X2.2713Y-4.4122
X2.2768Y-8.6555
X2.2768Y-8.7465
X2.2783Y-5.6878
X2.2799Y-4.7705
X2.2821Y-6.0565
X2.2831Y-8.4465
X2.2858Y-8.4008
X2.2866Y-7.8815
X2.287Y-8.3598
X2.2886Y-8.1866
X2.289Y-8.0106
X2.289Y-8.0425
X2.289Y-8.0748
X2.289Y-8.1492
X2.289Y-8.2248
X2.2894Y-8.1134
X2.2898Y-7.9256
X2.2898Y-8.2587
X2.2902Y-7.9705
X2.2902Y-8.2969
X2.2969Y-5.7744
X2.2969Y-8.5965
X2.3012Y-5.8984
X2.3012Y-8.8539
X2.3122Y-7.0846
X2.3185Y-6.9598
X2.3185Y-6.9598
X2.3185Y-6.9598
X2.3185Y-6.9598
X2.3201Y-5.3189
X2.3209Y-5.4102
X2.3272Y-5.6406
X2.3299Y-8.7106
X2.3311Y-5.7295
X2.3358Y-8.6291
X2.3366Y-8.8524
X2.3421Y-4.7638
X2.3425Y-7.3693
X2.3539Y-8.426
X2.3539Y-8.5114
X2.3551Y-8.1807
X2.3551Y-8.3472
X2.3551Y-8.385
X2.3555Y-8.4689
X2.3567Y-4.6488
X2.3567Y-7.6913
X2.3571Y-7.8984
X2.3571Y-8.0362
X2.3575Y-7.9697
X2.3575Y-8.1063
X2.3616Y-5.0691
X2.3618Y-7.8185
X2.3618Y-8.2559
X2.362Y-4.9703
X2.3626Y-6.4319
X2.3701Y-4.4126
X2.374Y-5.6882
X2.3748Y-8.852
X2.3764Y-8.6476
X2.3831Y-4.8563
X2.4008Y-7.1484
X2.4087Y-8.8512
X2.4089Y-5.8455
X2.4089Y-5.9045
X2.4089Y-5.9636
X2.4089Y-6.0226
X2.4089Y-6.0817
X2.4091Y-8.5835
X2.4102Y-8.4161
X2.4126Y-7.9374
X2.4126Y-8.6681
X2.413Y-7.8768
X2.413Y-8.2193
X2.4134Y-8.2909
X2.4134Y-8.3504
X2.4138Y-8.0795
X2.4138Y-8.1606
X2.4146Y-7.7984
X2.4146Y-8.0004
X2.4173Y-8.5102
X2.4193Y-6.9622
X2.4201Y-7.0303
X2.4209Y-6.576
X2.4228Y-5.6409
X2.4268Y-5.7299
X2.4333Y-5.3691
X2.435Y-7.272
X2.4469Y-8.7563
X2.4469Y-8.8508
X2.4539Y-7.3366
X2.4587Y-8.6803
X2.4661Y-8.5657
X2.4665Y-4.639
X2.4665Y-4.7374
X2.4673Y-7.8811
X2.4677Y-7.8402
X2.4681Y-4.4138
X2.4689Y-7.6606
X2.4693Y-7.6197
X2.4697Y-8.0858
X2.4697Y-8.1669
X2.4709Y-8.0217
X2.4713Y-7.8059
X2.4717Y-8.426
X2.472Y-8.2433
X2.472Y-8.2984
X2.472Y-8.3807
X2.4728Y-7.5854
X2.4728Y-8.511
X2.4736Y-7.761
X2.4748Y-8.4705
X2.4752Y-7.5406
X2.4758Y-5.0285
X2.4762Y-4.9297
X2.4858Y-7.1634
X2.4876Y-5.8455
X2.4876Y-5.9045
X2.4876Y-5.9636
X2.4876Y-6.0226
X2.4876Y-6.0817
X2.489Y-6.9831
X2.4894Y-8.7169
X2.4933Y-7.3386
X2.5031Y-8.5846
X2.5122Y-4.2618
X2.5138Y-4.1189
X2.515Y-7.0122
X2.5165Y-8.6457
X2.5177Y-8.7571
X2.5209Y-5.785
X2.528Y-7.326
X2.5283Y-7.285
X2.5295Y-3.4614
X2.5311Y-4.0406
X2.5319Y-7.2508
X2.5343Y-7.2059
X2.535Y-7.0469
X2.5354Y-3.5547
X2.5354Y-7.0878
X2.537Y-7.1646
X2.5374Y-7.1236
X2.5413Y-6.9138
X2.5457Y-6.7898
X2.5583Y-4.7378
X2.5614Y-4.6598
X2.5622Y-5.6031
X2.5638Y-3.648
X2.5638Y-5.6445
X2.5638Y-5.687
X2.5638Y-5.7295
X2.5638Y-5.772
X2.564Y-4.1994
X2.5642Y-4.8465
X2.5663Y-5.8455
X2.5663Y-5.9045
X2.5663Y-5.9636
X2.5663Y-6.0226
X2.5663Y-6.0817
X2.5699Y-6.1577
X2.5699Y-6.2758
X2.5701Y-6.3898
X2.5709Y-5.5142
X2.5728Y-5.213
X2.5776Y-4.9594
X2.5791Y-5.2811
X2.5791Y-5.3795
X2.5862Y-4.6976
X2.5925Y-9.8311
X2.5925Y-9.9996
X2.5929Y-4.4799
X2.5929Y-9.8795
X2.5929Y-9.937
X2.5933Y-9.3776
X2.5933Y-9.4417
X2.5933Y-9.5161
X2.5933Y-9.5917
X2.5933Y-9.665
X2.5933Y-9.7575
X2.5941Y-7.2008
X2.5945Y-7.2378
X2.5945Y-7.3118
X2.5953Y-7.274
X2.5953Y-7.5547
X2.5953Y-7.6303
X2.5953Y-7.7035
X2.5953Y-8.3614
X2.5953Y-8.4346
X2.5953Y-8.4988
X2.5953Y-8.5732
X2.5953Y-8.6488
X2.5953Y-8.722
X2.5957Y-7.0634
X2.5965Y-7.776
X2.5965Y-7.8504
X2.5965Y-7.926
X2.5965Y-7.9992
X2.5965Y-8.0634
X2.5965Y-8.1378
X2.5965Y-8.2134
X2.5965Y-8.2866
X2.5965Y-8.7945
X2.5965Y-8.8689
X2.5965Y-8.9445
X2.5965Y-9.0177
X2.5965Y-9.0819
X2.5965Y-9.1563
X2.5965Y-9.2319
X2.5965Y-9.3051
X2.602Y-4.2563
X2.602Y-5.6035
X2.6043Y-4.322
X2.6055Y-5.6461
X2.6055Y-5.6886
X2.6055Y-5.7311
X2.6055Y-5.7736
X2.6081Y-4.5943
X2.6165Y-6.9346
X2.6276Y-6.7138
X2.6339Y-7.5173
X2.635Y-4.887
X2.6406Y-6.848
X2.6409Y-6.8173
X2.6413Y-6.8843
X2.6417Y-7.0575
X2.6417Y-7.1839
X2.6421Y-3.6122
X2.6421Y-7.1465
X2.6425Y-6.9173
X2.6425Y-7.0252
X2.6425Y-7.2185
X2.6429Y-6.989
X2.6429Y-7.2555
X2.6433Y-6.9535
X2.6433Y-7.3272
X2.6433Y-9.8323
X2.6437Y-6.785
X2.6437Y-7.2917
X2.6451Y-5.8455
X2.6451Y-5.9045
X2.6451Y-5.9636
X2.6451Y-6.0226
X2.6451Y-6.0817
X2.6463Y-3.4659
X2.6469Y-5.6028
X2.6543Y-5.3047
X2.6598Y-9.9118
X2.6622Y-4.2012
X2.6622Y-10.0146
X2.6661Y-10.1953
X2.6665Y-10.2713
X2.6697Y-6.7559
X2.6713Y-10.1087
X2.6715Y-5.5722
X2.6742Y-4.5246
X2.6776Y-7.4894
X2.678Y-7.628
X2.678Y-7.7035
X2.678Y-7.7768
X2.678Y-8.3606
X2.678Y-8.4339
X2.678Y-8.498
X2.6791Y-7.8492
X2.6791Y-7.9252
X2.6791Y-7.9984
X2.6791Y-8.0626
X2.6791Y-8.137
X2.6791Y-8.2126
X2.6791Y-8.2858
X2.6791Y-8.711
X2.6795Y-8.5866
X2.6795Y-9.3787
X2.6795Y-9.4429
X2.6795Y-9.5173
X2.6795Y-9.5929
X2.6803Y-9.0173
X2.6803Y-9.0815
X2.6803Y-9.1559
X2.6803Y-9.2315
X2.6803Y-9.3047
X2.6815Y-8.7945
X2.6815Y-8.8689
X2.6815Y-8.9445
X2.6874Y-4.3185
X2.6886Y-9.7441
X2.6909Y-7.0295
X2.6913Y-5.6039
X2.6913Y-7.1043
X2.6913Y-7.2122
X2.6917Y-7.176
X2.6917Y-7.2492
X2.6921Y-7.1406
X2.6921Y-7.3209
X2.6925Y-7.2854
X2.6949Y-5.6524
X2.6969Y-9.8854
X2.6988Y-10.3177
X2.6992Y-10.2331
X2.6996Y-6.9138
X2.6996Y-9.9665
X2.7Y-10.1484
X2.7004Y-10.0638
X2.7016Y-5.7685
X2.7051Y-6.7406
X2.7134Y-9.0476
X2.7134Y-9.1201
X2.7138Y-6.798
X2.7142Y-9.1949
X2.715Y-4.0181
X2.7154Y-7.661
X2.7154Y-7.7366
X2.7154Y-7.8098
X2.7154Y-8.3937
X2.7154Y-8.4669
X2.7165Y-7.8823
X2.7165Y-7.9583
X2.7165Y-8.0315
X2.7165Y-8.0957
X2.7165Y-8.1701
X2.7165Y-8.2457
X2.7165Y-8.3189
X2.7193Y-3.9154
X2.7205Y-9.6535
X2.7207Y-5.2222
X2.7217Y-7.5685
X2.7238Y-5.8455
X2.7238Y-5.9045
X2.7238Y-5.9636
X2.7238Y-6.0226
X2.7238Y-6.0817
X2.7276Y-6.5965
X2.728Y-4.9039
X2.7289Y-3.6096
X2.7303Y-6.715
X2.7364Y-5.4124
X2.739Y-7.0563
X2.739Y-7.0984
X2.739Y-7.174
X2.739Y-7.2472
X2.739Y-7.2795
X2.739Y-7.3114
X2.739Y-8.5327
X2.74Y-4.8372
X2.7402Y-6.2772
X2.7421Y-5.6055
X2.7437Y-8.6461
X2.7457Y-5.7114
X2.748Y-7.4327
X2.7498Y-4.7467
X2.7524Y-6.6921
X2.7531Y-6.5701
X2.7543Y-6.4768
X2.7551Y-9.3335
X2.7559Y-5.6449
X2.7598Y-9.8287
X2.7677Y-8.8031
X2.7697Y-9.7531
X2.7742Y-4.6734
X2.7756Y-5.0988
X2.7756Y-5.2224
X2.7764Y-3.7114
X2.7776Y-6.6665
X2.778Y-3.763
X2.778Y-9.1535
X2.7783Y-6.5449
X2.7783Y-9.1874
X2.7785Y-4.5931
X2.7791Y-5.7697
X2.7809Y-4.5226
X2.7831Y-5.2906
X2.7831Y-7.7614
X2.7843Y-7.5094
X2.785Y-3.4843
X2.7878Y-5.4134
X2.7906Y-5.6831
X2.7906Y-9.9276
X2.7917Y-10.1508
X2.7925Y-10.0106
X2.7937Y-10.2339
X2.7941Y-10.0949
X2.7953Y-10.3181
X2.7957Y-7.0547
X2.7957Y-7.1291
X2.7957Y-7.2047
X2.7957Y-7.278
X2.7957Y-7.3421
X2.7972Y-7.8224
X2.7988Y-6.6437
X2.8004Y-6.8933
X2.8016Y-6.95
X2.8028Y-4.2154
X2.8028Y-8.5913
X2.8031Y-8.1154
X2.8043Y-9.6559
X2.8055Y-8.9327
X2.8063Y-6.8138
X2.8071Y-5.0031
X2.8071Y-6.5252
X2.8081Y-4.8947
X2.8098Y-8.3894
X2.813Y-8.5051
X2.8181Y-4.1602
X2.8217Y-5.1272
X2.8217Y-5.222
X2.8236Y-9.487
X2.824Y-3.9969
X2.824Y-6.6181
X2.8248Y-9.1894
X2.8252Y-9.1535
X2.8256Y-5.7252
X2.8264Y-5.802
X2.8264Y-5.8445
X2.8268Y-5.9634
X2.8268Y-6.0059
X2.8272Y-5.8843
X2.8272Y-5.9268
X2.8272Y-6.239
X2.8272Y-6.2815
X2.8272Y-9.9752
X2.8276Y-6.0457
X2.8276Y-6.0882
X2.8276Y-6.2024
X2.8276Y-10.0512
X2.828Y-10.1228
X2.8303Y-10.1906
X2.8307Y-10.2665
X2.8348Y-4.399
X2.8354Y-6.3827
X2.8358Y-9.3323
X2.8374Y-3.5421
X2.8427Y-4.7986
X2.8449Y-8.1157
X2.8457Y-3.9035
X2.8469Y-6.5941
X2.848Y-3.7862
X2.848Y-8.0016
X2.8492Y-6.7469
X2.8492Y-7.4469
X2.8559Y-6.8984
X2.8571Y-6.4776
X2.8571Y-8.4091
X2.8606Y-4.9098
X2.863Y-9.7504
X2.8642Y-9.0949
X2.8642Y-9.1453
X2.8642Y-9.1949
X2.8642Y-9.2453
X2.865Y-8.4717
X2.8654Y-4.8571
X2.8654Y-9.2878
X2.8657Y-9.0311
X2.8661Y-5.1272
X2.8665Y-3.465
X2.8665Y-5.2224
X2.8677Y-9.6213
X2.8681Y-6.3465
X2.8697Y-6.5685
X2.8752Y-9.6559
X2.8756Y-5.7713
X2.8756Y-5.8059
X2.8756Y-5.8484
X2.876Y-5.9673
X2.876Y-6.0098
X2.8764Y-5.8882
X2.8764Y-5.9307
X2.8764Y-6.3083
X2.8768Y-6.0496
X2.8776Y-6.6378
X2.878Y-6.1878
X2.878Y-6.2303
X2.8783Y-6.1512
X2.8787Y-6.2701
X2.8807Y-5.5799
X2.8839Y-9.3327
X2.8841Y-4.3959
X2.8846Y-9.0657
X2.8858Y-5.6303
X2.8874Y-7.9154
X2.8894Y-7.2252
X2.8894Y-9.1201
X2.8894Y-9.1701
X2.8894Y-9.2201
X2.8906Y-7.0516
X2.8917Y-7.1406
X2.8917Y-7.3307
X2.8925Y-6.5445
X2.8949Y-7.4
X2.8961Y-9.7724
X2.9004Y-8.5874
X2.9024Y-8.502
X2.9031Y-6.7102
X2.9063Y-8.7181
X2.9094Y-3.5098
X2.9098Y-9.0933
X2.911Y-6.9803
X2.911Y-8.4295
X2.9122Y-4.9083
X2.9126Y-5.1276
X2.9134Y-9.0311
X2.9138Y-6.8441
X2.9142Y-9.1453
X2.9142Y-9.1949
X2.9161Y-5.2213
X2.9173Y-6.5205
X2.9185Y-9.974
X2.9193Y-10.0118
X2.9248Y-5.7724
X2.9248Y-5.8689
X2.9248Y-5.9665
X2.9248Y-6.1291
X2.9248Y-6.2075
X2.9248Y-6.389
X2.9252Y-6.2858
X2.9252Y-8.2417
X2.9256Y-6.3343
X2.9295Y-9.3327
X2.9339Y-9.7732
X2.9346Y-9.0657
X2.937Y-8.4626
X2.9376Y-5.686
X2.9394Y-9.1201
X2.9394Y-9.1701
X2.9394Y-9.2201
X2.9429Y-6.5776
X2.952Y-6.4772
X2.9539Y-9.6563
X2.9559Y-6.6449
X2.9591Y-9.0307
X2.9612Y-5.5423
X2.963Y-6.9224
X2.9642Y-9.0949
X2.9642Y-9.1453
X2.9642Y-9.1949
X2.9642Y-9.7535
X2.9697Y-8.2441
X2.9709Y-5.774
X2.9717Y-3.7165
X2.9717Y-6.1091
X2.9752Y-8.5902
X2.9764Y-9.3327
X2.9772Y-8.5016
X2.9783Y-5.902
X2.9787Y-9.0665
X2.9791Y-7.1622
X2.9807Y-8.3575
X2.9819Y-6.8004
X2.9819Y-9.365
X2.9819Y-9.3957
X2.9819Y-9.5146
X2.9823Y-9.4287
X2.9823Y-9.5461
X2.9823Y-9.5776
X2.9858Y-7.7091
X2.9866Y-7.5469
X2.9874Y-6.7079
X2.9876Y-5.2356
X2.9886Y-5.1441
X2.989Y-5.3028
X2.989Y-9.2701
X2.9894Y-9.1201
X2.9894Y-9.1701
X2.9894Y-9.2201
X2.9906Y-6.5287
X2.9913Y-5.1024
X2.9933Y-4.1315
X2.9957Y-7.8909
X2.9978Y-4.8022
X2.998Y-10.0736
X3.0012Y-3.5094
X3.002Y-6.7425
X3.0055Y-9.0307
X3.0071Y-6.5917
X3.0094Y-9.774
X3.0142Y-9.1453
X3.0142Y-9.1949
X3.0142Y-9.2449
X3.015Y-8.2461
X3.0197Y-6.8748
X3.0197Y-8.8299
X3.0236Y-9.3315
X3.0358Y-10.0728
X3.039Y-9.2701
X3.0394Y-5.122
X3.0394Y-9.1201
X3.0394Y-9.1701
X3.0394Y-9.2201
X3.0406Y-9.6567
X3.0409Y-9.75
X3.0429Y-7.6689
X3.0437Y-6.424
X3.0441Y-4.9571
X3.0441Y-7.8307
X3.0445Y-5.0531
X3.048Y-6.2583
X3.0484Y-6.1571
X3.0488Y-7.9984
X3.0512Y-5.985
X3.0514Y-5.5703
X3.052Y-5.8476
X3.0524Y-8.502
X3.0524Y-8.5866
X3.0528Y-9.0319
X3.0559Y-8.6799
X3.064Y-5.6671
X3.0642Y-9.1453
X3.0642Y-9.1949
X3.0642Y-9.2449
X3.0669Y-9.3941
X3.0669Y-9.5437
X3.0685Y-9.5996
X3.0695Y-3.8537
X3.0695Y-3.897
X3.0695Y-3.9404
X3.0697Y-9.3315
X3.0705Y-6.7992
X3.0726Y-5.2191
X3.0728Y-5.1563
X3.0728Y-9.4476
X3.0787Y-6.6276
X3.089Y-9.2701
X3.0894Y-9.1201
X3.0894Y-9.1701
X3.0894Y-9.2201
X3.0933Y-6.8736
X3.0949Y-6.0256
X3.0949Y-6.1744
X3.0953Y-5.7858
X3.0961Y-7.6752
X3.0965Y-4.8091
X3.0992Y-9.0319
X3.0996Y-6.4823
X3.0996Y-7.8358
X3.1004Y-6.3299
X3.1028Y-10.013
X3.1035Y-3.5406
X3.1059Y-7.7354
X3.1059Y-7.7795
X3.1067Y-7.5709
X3.1075Y-7.622
X3.1087Y-6.7114
X3.1106Y-9.976
X3.111Y-9.0902
X3.1128Y-3.8537
X3.1128Y-3.897
X3.1128Y-3.9404
X3.1138Y-9.1453
X3.1138Y-9.1949
X3.1142Y-7.4425
X3.1142Y-9.2449
X3.1154Y-8.5906
X3.1161Y-7.9016
X3.1161Y-7.9437
X3.1173Y-8.502
X3.1256Y-6.7492
X3.1256Y-9.75
X3.1315Y-10.0283
X3.1358Y-8.1224
X3.1358Y-8.1642
X3.139Y-9.1701
X3.1402Y-8.8728
X3.1406Y-8.9287
X3.1409Y-9.0055
X3.1425Y-5.589
X3.1445Y-8.3161
X3.148Y-6.4583
X3.1524Y-6.7996
X3.1545Y-5.3919
X3.1561Y-3.8537
X3.1561Y-3.897
X3.1561Y-3.9404
X3.1591Y-10.0283
X3.1598Y-8.8185
X3.1602Y-3.6535
X3.1606Y-5.6657
X3.1614Y-5.0008
X3.1642Y-9.1453
X3.1642Y-9.1949
X3.1654Y-4.1441
X3.1681Y-4.4913
X3.1701Y-6.8744
X3.1728Y-7.2591
X3.1778Y-3.4691
X3.1795Y-9.9287
X3.1811Y-9.6488
X3.1831Y-9.4075
X3.1886Y-8.7882
X3.1894Y-9.1701
X3.1898Y-8.2717
X3.1913Y-7.3866
X3.1921Y-4.1591
X3.1923Y-5.3309
X3.1937Y-4.6945
X3.1941Y-8.5913
X3.1957Y-9.822
X3.1961Y-8.5028
X3.2008Y-9.7492
X3.2083Y-10.1039
X3.2087Y-10.0626
X3.2217Y-9.3157
X3.224Y-8.2142
X3.2252Y-9.2803
X3.2256Y-8.0272
X3.2287Y-9.065
X3.2295Y-8.913
X3.2311Y-9.0083
X3.2311Y-9.1283
X3.2346Y-9.1827
X3.2366Y-9.3457
X3.237Y-6.9413
X3.2398Y-8.7815
X3.2402Y-9.5846
X3.2409Y-6.7984
X3.2441Y-6.8736
X3.2465Y-8.8642
X3.2488Y-9.6992
X3.25Y-10.063
X3.25Y-10.1039
X3.2508Y-7.8846
X3.2508Y-9.5059
X3.2516Y-9.2181
X3.2535Y-9.4268
X3.2563Y-7.5531
X3.2563Y-7.7094
X3.2571Y-6.5154
X3.2575Y-9.9161
X3.2583Y-4.3543
X3.2585Y-4.8187
X3.2596Y-4.877
X3.2614Y-6.2402
X3.2626Y-6.6441
X3.2638Y-3.4717
X3.2646Y-9.2791
X3.2689Y-8.5909
X3.2709Y-8.5024
X3.2728Y-7.111
X3.2748Y-6.378
X3.2791Y-5.8839
X3.2791Y-6.0661
X3.2803Y-7.0343
X3.2823Y-4.4984
X3.2858Y-5.6524
X3.2858Y-8.7807
X3.2866Y-10.1587
X3.2894Y-9.937
X3.2947Y-5.0065
X3.2961Y-9.2031
X3.2961Y-9.6508
X3.2969Y-4.9406
X3.3055Y-6.4583
X3.3059Y-8.7319
X3.3079Y-9.276
X3.3087Y-6.5492
X3.3102Y-9.8752
X3.3106Y-8.6831
X3.3122Y-4.1197
X3.3126Y-8.8614
X3.315Y-9.3602
X3.3177Y-6.8744
X3.3197Y-6.7969
X3.3209Y-9.5657
X3.3217Y-9.5004
X3.3226Y-4.877
X3.3242Y-4.8171
X3.3244Y-9.4252
X3.3262Y-5.2423
X3.3311Y-8.7807
X3.3409Y-6.9972
X3.3409Y-7.7819
X3.3441Y-8.5953
X3.3453Y-5.0693
X3.3457Y-5.2969
X3.3459Y-3.4715
X3.3461Y-8.5028
X3.3465Y-9.9551
X3.3465Y-9.9846
X3.3488Y-6.428
X3.3539Y-9.6437
X3.3559Y-3.8043
X3.3661Y-9.7587
X3.3669Y-3.9358
X3.3677Y-9.7181
X3.3681Y-3.8811
X3.3681Y-9.4343
X3.3728Y-6.6358
X3.3732Y-4.0346
X3.374Y-3.5913
X3.376Y-4.8972
X3.3791Y-6.3787
X3.3791Y-9.3512
X3.3807Y-7.6831
X3.3811Y-9.1382
X3.3823Y-9.2083
X3.3831Y-8.7807
X3.3831Y-9.0673
X3.3839Y-8.8642
X3.3839Y-8.9319
X3.3839Y-9.5657
X3.3846Y-9.0004
X3.3858Y-9.2933
X3.389Y-4.3378
X3.3909Y-6.8736
X3.398Y-4.2276
X3.4024Y-6.3173
X3.4047Y-7.5311
X3.4083Y-8.5949
X3.4098Y-8.2217
X3.4102Y-8.7272
X3.4106Y-8.6831
X3.411Y-8.1433
X3.411Y-8.298
X3.411Y-8.3579
X3.4118Y-6.7957
X3.4118Y-8.4315
X3.4118Y-8.502
X3.4122Y-8.0831
X3.4154Y-8.0264
X3.4161Y-9.4335
X3.4165Y-7.9693
X3.4169Y-9.6441
X3.4177Y-6.0287
X3.4185Y-7.9031
X3.4207Y-3.5014
X3.4217Y-3.8642
X3.422Y-5.0028
X3.4224Y-3.7433
X3.4228Y-4.8945
X3.4228Y-6.1531
X3.4236Y-3.9315
X3.4244Y-8.7823
X3.4252Y-10.2756
X3.4283Y-3.6543
X3.4299Y-9.5677
X3.4307Y-7.2732
X3.4331Y-10.1677
X3.4339Y-5.115
X3.4343Y-6.713
X3.4376Y-5.1762
X3.4376Y-5.4297
X3.438Y-5.2384
X3.438Y-5.3061
X3.438Y-5.3679
X3.4429Y-5.7866
X3.4433Y-5.8476
X3.4449Y-8.6488
X3.4512Y-9.4327
X3.452Y-6.5118
X3.4528Y-6.4287
X3.4543Y-7.7634
X3.4571Y-8.8807
X3.4583Y-8.9445
X3.4598Y-9.0264
X3.4614Y-7.8583
X3.4646Y-6.8732
X3.4658Y-9.1083
X3.4658Y-9.213
X3.4658Y-9.2933
X3.4658Y-9.328
X3.4748Y-9.9024
X3.4756Y-5.6016
X3.4766Y-5.2077
X3.4766Y-5.4612
X3.4768Y-5.6728
X3.4768Y-5.7323
X3.4768Y-5.7937
X3.4768Y-5.8559
X3.4768Y-5.9177
X3.477Y-5.2699
X3.477Y-5.3376
X3.477Y-5.3994
X3.477Y-5.5234
X3.4772Y-5.9807
X3.4772Y-6.0417
X3.4783Y-9.9654
X3.4791Y-10.0728
X3.4795Y-9.3539
X3.4795Y-10.0201
X3.4795Y-10.1311
X3.4803Y-9.7087
X3.4803Y-10.2386
X3.4803Y-10.3291
X3.4807Y-7.2134
X3.4807Y-10.1858
X3.4807Y-10.2764
X3.4811Y-9.8307
X3.4815Y-9.7634
X3.4819Y-9.6445
X3.4827Y-6.2248
X3.4831Y-5.0807
X3.4846Y-9.565
X3.4894Y-6.324
X3.4913Y-4.9146
X3.4913Y-6.3811
X3.4917Y-9.5299
X3.4933Y-4.8224
X3.4937Y-6.7961
X3.4957Y-9.2449
X3.4957Y-9.1181
X3.4957Y-9.178
X3.5001Y-7.5421
X3.5016Y-4.6646
X3.5035Y-8.0087
X3.5047Y-7.3075
X3.5047Y-7.9362
X3.5055Y-6.0878
X3.5055Y-8.148
X3.5055Y-8.3024
X3.5063Y-8.5724
X3.5067Y-8.0728
X3.5071Y-8.8508
X3.5079Y-8.5039
X3.5087Y-8.2276
X3.5087Y-8.3654
X3.5087Y-8.4291
X3.5132Y-5.112
X3.5142Y-5.0484
X3.5142Y-8.7303
X3.5146Y-8.8134
X3.5205Y-4.2453
X3.5213Y-4.2921
X3.522Y-4.4736
X3.522Y-4.5295
X3.5224Y-4.3409
X3.524Y-4.3988
X3.5252Y-9.4748
X3.5276Y-9.4299
X3.5283Y-7.7866
X3.5331Y-3.6972
X3.5378Y-9.2476
X3.538Y-5.5695
X3.5382Y-6.8732
X3.5406Y-9.1532
X3.5455Y-5.0774
X3.5496Y-8.6295
X3.55Y-4.7882
X3.5563Y-6.7154
X3.5567Y-9.3543
X3.5575Y-4.2047
X3.5634Y-10.1059
X3.5642Y-10.0264
X3.5658Y-9.013
X3.5658Y-9.1783
X3.5661Y-3.4705
X3.5665Y-9.6012
X3.5669Y-4.5965
X3.5669Y-9.65
X3.5669Y-10.1654
X3.5669Y-10.2205
X3.5677Y-10.3268
X3.5681Y-9.7055
X3.5681Y-10.274
X3.5685Y-4.6941
X3.5697Y-7.8791
X3.5713Y-4.9063
X3.5713Y-5.6941
X3.5713Y-5.7563
X3.5713Y-5.9681
X3.572Y-5.8835
X3.5744Y-6.6055
X3.5746Y-5.047
X3.5756Y-9.7787
X3.576Y-7.6713
X3.576Y-9.328
X3.5772Y-6.1465
X3.5772Y-9.4276
X3.5799Y-8.9811
X3.5803Y-6.0839
X3.5813Y-5.2159
X3.5813Y-5.2781
X3.5823Y-6.7949
X3.5839Y-4.339
X3.585Y-4.3878
X3.5858Y-9.5583
X3.587Y-4.2917
X3.5894Y-5.1563
X3.5906Y-6.4992
X3.5925Y-4.4559
X3.5945Y-4.5248
X3.5969Y-6.3957
X3.5984Y-4.9559
X3.5988Y-4.2429
X3.6008Y-8.878
X3.6008Y-8.9181
X3.6008Y-8.9583
X3.6071Y-10.2126
X3.6079Y-6.3492
X3.6102Y-9.9043
X3.6114Y-8.7472
X3.613Y-9.2531
X3.613Y-8.778
X3.6134Y-6.874
X3.6142Y-4.0673
X3.6142Y-10.2913
X3.6142Y-8.8213
X3.6158Y-8.713
X3.6177Y-10.1059
X3.6185Y-10.0268
X3.6209Y-9.328
X3.6224Y-8.1299
X3.6228Y-5.0827
X3.6252Y-9.7039
X3.628Y-6.9984
X3.628Y-7.0472
X3.6299Y-9.7791
X3.6303Y-5.9957
X3.6307Y-9.513
X3.6311Y-5.7835
X3.6315Y-5.7315
X3.6362Y-9.2311
X3.6382Y-4.1319
X3.6409Y-3.5004
X3.6417Y-7.9811
X3.6453Y-6.7287
X3.6457Y-5.9016
X3.6457Y-7.8823
X3.6457Y-9.3032
X3.6457Y-9.5579
X3.6461Y-4.0303
X3.6498Y-5.047
X3.6506Y-4.7604
X3.6508Y-9.148
X3.6524Y-6.152
X3.6547Y-7.7768
X3.6557Y-4.9203
X3.6587Y-5.7567
X3.6661Y-8.7323
X3.6689Y-6.7953
X3.6713Y-6.9453
X3.6717Y-10.1043
X3.6724Y-10.0252
X3.6756Y-4.4713
X3.6756Y-7.0906
X3.6764Y-9.2169
X3.6768Y-5.9732
X3.6791Y-9.7024
X3.6807Y-9.3681
X3.6839Y-9.7776
X3.6862Y-5.7287
X3.6862Y-5.7807
X3.6866Y-4.5256
X3.687Y-6.8748
X3.6909Y-4.589
X3.6909Y-7.8913
X3.691Y-8.878
X3.691Y-8.9181
X3.6941Y-7.565
X3.6957Y-9.4032
X3.6957Y-9.4429
X3.6957Y-9.548
X3.698Y-5.8732
X3.698Y-7.6898
X3.7008Y-5.076
X3.7016Y-7.776
X3.7059Y-8.763
X3.7071Y-6.6071
X3.7075Y-5.5248
X3.7075Y-6.0815
X3.7091Y-5.3882
X3.7094Y-8.9862
X3.7106Y-9.3681
X3.711Y-9.2787
X3.7146Y-5.0465
X3.7146Y-6.2201
X3.7158Y-8.9382
X3.7165Y-9.9043
X3.7181Y-8.9055
X3.7193Y-9.1732
X3.7205Y-6.9453
X3.7209Y-9.1429
X3.7209Y-9.5232
X3.7232Y-5.9224
X3.7244Y-3.4783
X3.7248Y-7.0906
X3.726Y-10.1047
X3.7268Y-10.0256
X3.728Y-6.3461
X3.7295Y-7.976
X3.7303Y-7.8827
X3.7307Y-8.7417
X3.7309Y-4.9203
X3.7327Y-4.6657
X3.7331Y-8.1154
X3.7335Y-9.7028
X3.7382Y-9.778
X3.7421Y-7.6898
X3.7441Y-7.7791
X3.7449Y-6.1122
X3.7476Y-4.2846
X3.748Y-7.1689
X3.75Y-5.9681
X3.7504Y-6.4768
X3.7575Y-6.7941
X3.7606Y-6.8736
X3.7606Y-9.5232
X3.761Y-9.4142
X3.7677Y-5.8709
X3.7764Y-6.2713
X3.7772Y-7.8827
X3.7783Y-5.0732
X3.7787Y-5.5791
X3.7807Y-8.8382
X3.7815Y-10.0248
X3.7854Y-8.0764
X3.7858Y-9.5484
X3.7862Y-10.1028
X3.7874Y-6.7276
X3.7898Y-6.663
X3.7902Y-7.6894
X3.7925Y-4.3571
X3.7925Y-5.6307
X3.7929Y-9.7772
X3.7937Y-9.7008
X3.7957Y-8.9181
X3.7957Y-8.948
X3.7957Y-8.978
X3.7957Y-9.0083
X3.7957Y-9.0382
X3.7957Y-9.098
X3.7957Y-9.128
X3.7957Y-9.1583
X3.7961Y-9.0681
X3.7961Y-9.1882
X3.7992Y-3.5083
X3.8004Y-6.1142
X3.8016Y-6.224
X3.8047Y-5.5071
X3.8087Y-5.0425
X3.8122Y-4.5213
X3.813Y-8.8299
X3.8134Y-6.3957
X3.8134Y-6.5067
X3.8154Y-6.3409
X3.8165Y-4.0169
X3.8173Y-7.8776
X3.8181Y-3.9799
X3.826Y-8.9181
X3.826Y-8.948
X3.826Y-8.978
X3.826Y-9.0083
X3.826Y-9.0382
X3.826Y-9.098
X3.826Y-9.128
X3.826Y-9.1583
X3.826Y-9.548
X3.8264Y-9.0681
X3.8264Y-9.1882
X3.8289Y-4.7612
X3.8299Y-5.4339
X3.8307Y-6.6949
X3.8321Y-5.0715
X3.8323Y-5.235
X3.8331Y-8.0764
X3.8339Y-6.8736
X3.8346Y-5.3339
X3.837Y-7.189
X3.8386Y-7.2417
X3.8386Y-10.0091
X3.8394Y-6.7945
X3.8402Y-7.2929
X3.8406Y-4.174
X3.8406Y-10.1031
X3.8425Y-3.6953
X3.8445Y-8.8358
X3.848Y-9.7012
X3.8484Y-9.7917
X3.8508Y-7.3728
X3.8545Y-5.6313
X3.8547Y-7.3402
X3.8559Y-5.5685
X3.8559Y-8.9181
X3.8559Y-8.948
X3.8559Y-8.978
X3.8559Y-9.0083
X3.8559Y-9.0382
X3.8559Y-9.098
X3.8559Y-9.128
X3.8559Y-9.1583
X3.8563Y-9.0681
X3.8563Y-9.1882
X3.8575Y-7.0681
X3.8583Y-6.1201
X3.8583Y-6.2256
X3.8583Y-6.9713
X3.8612Y-5.0411
X3.8618Y-4.6571
X3.8618Y-7.8787
X3.8646Y-4.5894
X3.8646Y-9.8406
X3.865Y-9.8953
X3.8654Y-9.965
X3.8756Y-6.7677
X3.8756Y-9.3732
X3.876Y-8.8382
X3.8774Y-3.4746
X3.8783Y-4.8343
X3.8811Y-8.7835
X3.8819Y-7.452
X3.8827Y-8.0775
X3.8843Y-7.4161
X3.885Y-7.1512
X3.8854Y-8.9181
X3.8854Y-8.948
X3.8854Y-8.978
X3.8854Y-9.0083
X3.8854Y-9.0382
X3.8854Y-9.098
X3.8854Y-9.128
X3.8854Y-9.1583
X3.8858Y-9.0681
X3.8858Y-9.1882
X3.8858Y-9.4933
X3.8858Y-7.6795
X3.8874Y-7.2846
X3.9008Y-9.4382
X3.9012Y-9.2634
X3.9012Y-9.3083
X3.9016Y-10.0634
X3.9039Y-7.5192
X3.9051Y-7.0736
X3.9059Y-4.5264
X3.9073Y-5.0715
X3.9075Y-6.874
X3.9075Y-9.739
X3.9096Y-7.8789
X3.911Y-4.7614
X3.9146Y-5.3201
X3.9146Y-6.9783
X3.9158Y-8.9181
X3.9158Y-8.948
X3.9158Y-8.978
X3.9158Y-9.0083
X3.9158Y-9.0382
X3.9158Y-9.098
X3.9158Y-9.128
X3.9158Y-9.1583
X3.9161Y-9.0681
X3.9161Y-9.1882
X3.9169Y-4.1732
X3.9169Y-5.1961
X3.9169Y-5.5063
X3.9169Y-5.5681
X3.9169Y-5.6303
X3.9173Y-5.3819
X3.9173Y-5.4441
X3.9185Y-6.6787
X3.9228Y-7.5402
X3.9264Y-4.8866
X3.9264Y-6.0996
X3.9264Y-6.222
X3.9264Y-7.2846
X3.9268Y-5.9122
X3.9272Y-5.9744
X3.9272Y-6.0358
X3.9272Y-6.1594
X3.9274Y-7.9767
X3.928Y-6.7933
X3.9291Y-6.2843
X3.9304Y-7.7812
X3.9307Y-8.8181
X3.9311Y-9.5732
X3.9362Y-7.1047
X3.9362Y-8.4902
X3.9364Y-5.0411
X3.9386Y-5.7728
X3.9386Y-5.8248
X3.9396Y-8.0774
X3.9402Y-7.1504
X3.9406Y-8.8429
X3.9417Y-9.7925
X3.9427Y-7.6795
X3.9429Y-9.8587
X3.9433Y-9.9346
X3.9437Y-10.0063
X3.9457Y-8.9181
X3.9457Y-8.948
X3.9457Y-8.978
X3.9457Y-9.0083
X3.9457Y-9.0382
X3.9457Y-9.098
X3.9457Y-9.128
X3.9457Y-9.1583
X3.9461Y-9.0681
X3.9461Y-9.1882
X3.9508Y-8.7736
X3.9512Y-7.5732
X3.9522Y-3.5045
X3.9528Y-8.1492
X3.9563Y-10.1606
X3.9594Y-5.2583
X3.9594Y-6.9921
X3.9596Y-7.8789
X3.9642Y-4.5929
X3.9657Y-7.2846
X3.9661Y-5.7984
X3.9665Y-6.3453
X3.9681Y-8.8181
X3.9752Y-8.9181
X3.9752Y-8.948
X3.9752Y-8.978
X3.9752Y-9.0083
X3.9752Y-9.0382
X3.9752Y-9.098
X3.9752Y-9.128
X3.9752Y-9.1583
X3.9756Y-9.0681
X3.9756Y-9.1882
X3.9764Y-8.7933
X3.9797Y-5.0699
X3.9803Y-4.9323
X3.9803Y-6.8744
X3.985Y-4.6551
X3.9893Y-8.0503
X3.9909Y-4.8315
X3.9924Y-7.7066
X3.9933Y-5.8232
X3.9933Y-7.6108
X3.9941Y-5.7705
X3.9976Y-7.0256
X4.0008Y-8.8429
X4.0024Y-7.289
X4.0055Y-8.9181
X4.0055Y-8.948
X4.0055Y-8.978
X4.0055Y-9.0083
X4.0055Y-9.0382
X4.0055Y-9.098
X4.0055Y-9.128
X4.0055Y-9.1583
X4.0059Y-9.0681
X4.0059Y-9.1882
X4.0059Y-9.3732
X4.0071Y-5.3819
X4.0071Y-5.4441
X4.0071Y-5.5055
X4.0071Y-5.5559
X4.0071Y-5.6264
X4.0075Y-3.5012
X4.0075Y-8.7728
X4.0083Y-5.2079
X4.0108Y-7.879
X4.0126Y-6.7972
X4.013Y-3.7862
X4.0157Y-6.2858
X4.0185Y-6.0976
X4.0185Y-6.3949
X4.0189Y-5.974
X4.0189Y-6.0362
X4.0189Y-6.222
X4.0193Y-5.9122
X4.0209Y-6.1602
X4.0217Y-7.0665
X4.0223Y-7.6403
X4.026Y-8.8232
X4.0323Y-6.928
X4.0339Y-5.2992
X4.0346Y-7.111
X4.0354Y-8.9181
X4.0354Y-8.948
X4.0354Y-8.978
X4.0354Y-9.0083
X4.0354Y-9.0382
X4.0354Y-9.098
X4.0354Y-9.128
X4.0354Y-9.1583
X4.0358Y-9.0681
X4.0358Y-9.1882
X4.0358Y-9.413
X4.037Y-7.1559
X4.0382Y-8.0494
X4.0394Y-4.5319
X4.0402Y-7.2024
X4.0413Y-7.7075
X4.0425Y-7.2512
X4.0433Y-7.3016
X4.0441Y-7.3543
X4.0449Y-5.6642
X4.0453Y-5.7142
X4.0461Y-9.7874
X4.0476Y-9.4736
X4.048Y-7.398
X4.048Y-7.4421
X4.048Y-9.535
X4.0485Y-7.6682
X4.0496Y-6.1512
X4.0498Y-7.4811
X4.0553Y-4.9699
X4.0553Y-5.0293
X4.0553Y-5.0884
X4.0559Y-8.8232
X4.0571Y-9.6039
X4.0587Y-6.3264
X4.0594Y-5.1728
X4.0594Y-6.4425
X4.0622Y-4.1583
X4.0654Y-8.9181
X4.0654Y-8.948
X4.0654Y-8.978
X4.0654Y-9.0083
X4.0654Y-9.0382
X4.0654Y-9.098
X4.0654Y-9.128
X4.0654Y-9.1583
X4.0657Y-6.8488
X4.0658Y-9.0681
X4.0658Y-9.1882
X4.0691Y-7.8791
X4.0697Y-5.6067
X4.0704Y-8.0208
X4.0709Y-8.7929
X4.0713Y-8.6315
X4.0728Y-6.5055
X4.0735Y-7.7361
X4.0796Y-7.5165
X4.0799Y-4.2051
X4.0807Y-7.6968
X4.0817Y-6.5344
X4.0831Y-6.2197
X4.0894Y-5.6724
X4.0921Y-4.613
X4.0931Y-4.8959
X4.0945Y-7.3591
X4.0947Y-4.7734
X4.0961Y-8.828
X4.0969Y-7.4102
X4.0969Y-7.4567
X4.0976Y-3.4736
X4.0976Y-5.2618
X4.0976Y-8.3165
X4.098Y-8.3634
X4.0984Y-5.4846
X4.0988Y-8.4126
X4.0988Y-7.9922
X4.1Y-5.361
X4.1008Y-5.4201
X4.1008Y-9.228
X4.1019Y-7.7647
X4.1059Y-5.8839
X4.1059Y-7.1028
X4.1071Y-6.4846
X4.1083Y-7.0425
X4.1091Y-5.9807
X4.1091Y-6.026
X4.1097Y-7.5469
X4.1097Y-7.7263
X4.1102Y-5.5748
X4.1106Y-9.6654
X4.1115Y-7.4964
X4.1118Y-8.2752
X4.1126Y-6.3827
X4.1138Y-6.9803
X4.1205Y-6.9035
X4.1252Y-4.2516
X4.126Y-9.8787
X4.1268Y-4.372
X4.1268Y-8.4575
X4.1291Y-7.8791
X4.1291Y-5.7783
X4.1315Y-5.1713
X4.1346Y-6.7213
X4.1358Y-9.5083
X4.1362Y-7.3272
X4.1382Y-9.4567
X4.1402Y-6.263
X4.141Y-8.8882
X4.1423Y-6.1541
X4.1428Y-7.5294
X4.1431Y-8.2422
X4.1436Y-7.5768
X4.1439Y-8.1948
X4.1441Y-9.0335
X4.1457Y-9.1532
X4.148Y-5.713
X4.15Y-5.6539
X4.1508Y-6.8673
X4.1516Y-4.5031
X4.1547Y-6.7764
X4.161Y-3.6902
X4.161Y-9.5331
X4.1634Y-6.3154
X4.1634Y-6.4063
X4.1677Y-6.6642
X4.1703Y-6.5573
X4.1717Y-6.2236
X4.1728Y-3.5622
X4.1728Y-7.1224
X4.1744Y-7.2984
X4.1748Y-8.4724
X4.1752Y-7.2512
X4.176Y-8.5189
X4.1762Y-5.2793
X4.1768Y-9.5906
X4.1768Y-9.7071
X4.1774Y-6.4872
X4.1795Y-8.828
X4.1803Y-4.9512
X4.1803Y-5.0091
X4.1811Y-6.9012
X4.1819Y-4.1488
X4.1819Y-6.1213
X4.1819Y-7.2008
X4.1833Y-5.0667
X4.1834Y-7.608
X4.1835Y-4.3268
X4.1837Y-8.1636
X4.1843Y-7.0476
X4.1852Y-5.1207
X4.186Y-5.1785
X4.1864Y-4.7254
X4.1882Y-6.9819
X4.1904Y-4.7974
X4.191Y-9.413
X4.1957Y-8.8929
X4.1976Y-6.1638
X4.2008Y-5.4244
X4.2012Y-5.3626
X4.2012Y-5.487
X4.2031Y-4.2039
X4.2059Y-5.7012
X4.2063Y-4.5807
X4.2126Y-6.6295
X4.213Y-6.5961
X4.2138Y-5.5476
X4.2138Y-5.6224
X4.2146Y-6.3224
X4.215Y-6.3697
X4.2163Y-5.9037
X4.2163Y-5.9624
X4.2163Y-6.0809
X4.2163Y-6.2577
X4.2167Y-6.0219
X4.2173Y-10.0614
X4.2177Y-5.8449
X4.2189Y-9.9165
X4.2197Y-9.9874
X4.2216Y-7.6338
X4.2219Y-8.1378
X4.2224Y-3.6075
X4.224Y-10.1504
X4.2244Y-10.2264
X4.2248Y-10.298
X4.2297Y-5.2226
X4.2299Y-6.4429
X4.2303Y-8.3937
X4.2307Y-7.4311
X4.2307Y-8.3433
X4.2311Y-7.378
X4.2323Y-8.6902
X4.2327Y-4.4283
X4.2354Y-4.9803
X4.2398Y-3.9535
X4.2409Y-3.8969
X4.2409Y-4.4894
X4.2457Y-3.3929
X4.2457Y-9.613
X4.2459Y-6.6293
X4.2463Y-6.5959
X4.2484Y-5.6839
X4.2492Y-5.8122
X4.2494Y-5.8734
X4.2494Y-5.9321
X4.2494Y-6.0506
X4.2494Y-6.1096
X4.2494Y-6.1687
X4.2494Y-6.2274
X4.2496Y-9.7709
X4.2498Y-5.9915
X4.25Y-5.6421
X4.2504Y-9.7024
X4.2506Y-5.4093
X4.2506Y-5.4683
X4.2506Y-5.586
X4.2508Y-5.7563
X4.2512Y-5.5311
X4.252Y-5.3594
X4.2539Y-9.8346
X4.2551Y-9.9008
X4.2555Y-9.9768
X4.2559Y-10.0484
X4.2583Y-4.0953
X4.2583Y-10.1161
X4.2587Y-4.0382
X4.2587Y-10.1921
X4.2591Y-3.5071
X4.2594Y-10.2634
X4.2596Y-4.7904
X4.26Y-4.6636
X4.26Y-4.7285
X4.26Y-4.8526
X4.2602Y-4.9209
X4.2606Y-10.3256
X4.2606Y-9.5335
X4.261Y-9.4331
X4.2614Y-8.9902
X4.2618Y-4.1531
X4.265Y-6.2713
X4.2677Y-5.0807
X4.2685Y-4.2154
X4.2685Y-4.2728
X4.2701Y-4.3933
X4.2709Y-4.3315
X4.272Y-6.7602
X4.2724Y-5.1307
X4.2732Y-7.6636
X4.2733Y-8.1079
X4.2752Y-6.8193
X4.2764Y-6.489
X4.2772Y-4.5854
X4.2772Y-5.2677
X4.278Y-8.8032
X4.2795Y-6.8972
X4.2807Y-9.163
X4.2807Y-9.1929
X4.2823Y-3.8555
X4.2831Y-8.635
X4.2835Y-7.1197
X4.2835Y-7.2031
X4.2858Y-7.248
X4.2884Y-5.1829
X4.2895Y-7.8436
X4.2898Y-7.2969
X4.2921Y-4.4811
X4.2933Y-5.8339
X4.2953Y-4.5484
X4.2965Y-6.6717
X4.2972Y-7.0689
X4.2988Y-5.0358
X4.2996Y-3.5681
X4.3006Y-6.5663
X4.3012Y-6.3996
X4.3022Y-4.8242
X4.3024Y-8.8476
X4.3028Y-5.7827
X4.3028Y-6.9827
X4.3043Y-3.7886
X4.3051Y-4.8858
X4.3055Y-3.9118
X4.3057Y-4.9577
X4.3067Y-3.9969
X4.3067Y-4.0677
X4.3073Y-4.6911
X4.3083Y-4.7618
X4.3085Y-4.6305
X4.3091Y-4.1295
X4.3092Y-7.8161
X4.3092Y-7.8712
X4.3092Y-7.9263
X4.3094Y-4.2472
X4.3094Y-4.3047
X4.3102Y-4.1854
X4.3106Y-9.3882
X4.311Y-4.4252
X4.3114Y-5.5614
X4.3118Y-4.3634
X4.3158Y-9.228
X4.3161Y-9.0681
X4.3165Y-5.0886
X4.3165Y-6.8622
X4.3177Y-6.7937
X4.3217Y-6.2744
X4.3238Y-5.3656
X4.3248Y-7.3252
X4.3281Y-6.6132
X4.3289Y-7.8436
X4.3289Y-7.8988
X4.3303Y-3.2953
X4.3303Y-5.4657
X4.3327Y-8.5154
X4.3335Y-8.4539
X4.3358Y-9.6083
X4.3378Y-5.6657
X4.3386Y-5.8386
X4.3402Y-6.6949
X4.3417Y-6.4024
X4.3433Y-3.7476
X4.3445Y-5.2646
X4.3457Y-6.4815
X4.3476Y-7.0248
X4.3486Y-7.8712
X4.3486Y-7.9263
X4.3498Y-5.0006
X4.3531Y-8.6311
X4.3559Y-9.9008
X4.3559Y-9.9744
X4.3559Y-10.113
X4.3559Y-10.1866
X4.3563Y-9.835
X4.3563Y-10.0488
X4.3563Y-10.261
X4.3567Y-6.002
X4.3567Y-6.0626
X4.3575Y-10.3232
X4.3579Y-9.7693
X4.3583Y-9.7028
X4.3622Y-3.4449
X4.3646Y-8.726
X4.3673Y-5.9457
X4.3677Y-8.3173
X4.3681Y-8.3646
X4.3681Y-8.1672
X4.3681Y-8.2172
X4.3681Y-8.2672
X4.3682Y-7.5067
X4.3682Y-7.5567
X4.3682Y-7.6067
X4.3683Y-7.8436
X4.3683Y-7.8988
X4.3687Y-5.1821
X4.3689Y-7.4063
X4.3689Y-7.4567
X4.3689Y-8.4173
X4.3693Y-5.1256
X4.3693Y-7.3579
X4.3756Y-3.3524
X4.3785Y-5.5411
X4.3811Y-3.7098
X4.3811Y-5.7807
X4.3827Y-6.9496
X4.3843Y-5.3937
X4.3858Y-4.6114
X4.3866Y-3.2228
X4.3866Y-6.3315
X4.3878Y-4.4331
X4.388Y-7.8712
X4.388Y-7.9263
X4.3882Y-5.8984
X4.3886Y-9.9862
X4.389Y-4.7016
X4.3909Y-5.7146
X4.3909Y-6.7398
X4.3909Y-10.1496
X4.3913Y-10.2256
X4.3917Y-10.2972
X4.3929Y-4.1299
X4.3937Y-4.248
X4.3937Y-4.3055
X4.3945Y-4.1862
X4.3949Y-4.0677
X4.3953Y-5.6705
X4.3955Y-4.9593
X4.3961Y-4.9012
X4.3965Y-4.0059
X4.398Y-6.8181
X4.398Y-9.6094
X4.3984Y-5.2917
X4.4016Y-4.852
X4.402Y-6.8921
X4.4035Y-4.485
X4.4037Y-7.8436
X4.4039Y-4.5528
X4.4055Y-7.1256
X4.4063Y-7.2307
X4.4063Y-7.3114
X4.4075Y-7.1902
X4.4077Y-7.8988
X4.4083Y-7.274
X4.4106Y-6.4508
X4.4126Y-7.0681
X4.4138Y-5.5815
X4.4169Y-8.5579
X4.4177Y-3.5394
X4.4177Y-5.8472
X4.4181Y-8.4598
X4.4181Y-8.5075
X4.4205Y-5.0421
X4.4205Y-10.0665
X4.4244Y-4.3583
X4.428Y-9.8323
X4.4287Y-9.7051
X4.4295Y-6.9972
X4.4307Y-4.4638
X4.4311Y-7.9201
X4.4323Y-7.9638
X4.4327Y-6.3055
X4.4335Y-4.9591
X4.4358Y-4.5854
X4.4394Y-3.6571
X4.4406Y-4.6665
X4.4409Y-4.6665
X4.4417Y-5.7795
X4.4461Y-6.1921
X4.4469Y-6.1319
X4.4472Y-6.0142
X4.4472Y-6.2492
X4.4476Y-5.5811
X4.4486Y-6.0734
X4.4488Y-5.3461
X4.4494Y-5.212
X4.452Y-6.5961
X4.4528Y-3.5988
X4.4543Y-4.2039
X4.4547Y-4.087
X4.4579Y-5.8402
X4.4579Y-5.9587
X4.4579Y-6.4004
X4.4587Y-8.5795
X4.4591Y-4.8323
X4.4594Y-5.8945
X4.4598Y-4.7433
X4.4598Y-4.7437
X4.4604Y-6.7726
X4.461Y-5.1138
X4.4614Y-5.5217
X4.4622Y-5.4071
X4.463Y-5.461
X4.463Y-7.666
X4.4633Y-8.1102
X4.465Y-6.5394
X4.4659Y-3.014
X4.4659Y-5.6415
X4.4663Y-2.8955
X4.4665Y-5.7185
X4.4671Y-2.7817
X4.4677Y-4.4004
X4.4687Y-3.2057
X4.4687Y-3.3199
X4.4691Y-3.1467
X4.4701Y-4.1299
X4.4701Y-9.6083
X4.4705Y-7.7114
X4.4748Y-3.4154
X4.4756Y-8.7299
X4.4756Y-9.8209
X4.4764Y-4.6276
X4.4811Y-6.9988
X4.4839Y-3.4913
X4.4882Y-4.5787
X4.4886Y-4.5161
X4.4898Y-2.9583
X4.4906Y-4.4531
X4.4935Y-5.262
X4.4961Y-5.0421
X4.4965Y-5.7681
X4.4965Y-5.7976
X4.4988Y-3.5681
X4.5008Y-9.6988
X4.5016Y-7.7087
X4.502Y-10.076
X4.5031Y-7.0339
X4.5043Y-7.0689
X4.5043Y-7.1268
X4.5051Y-7.2378
X4.5055Y-7.1965
X4.5055Y-8.6276
X4.5063Y-6.3583
X4.5063Y-8.3437
X4.5067Y-8.5744
X4.5075Y-7.4346
X4.5087Y-8.526
X4.5094Y-8.9429
X4.5094Y-9.0079
X4.5102Y-8.6807
X4.5102Y-8.8807
X4.5102Y-9.4118
X4.5102Y-9.5516
X4.5108Y-2.8112
X4.511Y-9.0724
X4.5118Y-4.2378
X4.5118Y-8.8043
X4.5124Y-3.2309
X4.5126Y-9.4819
X4.5128Y-3.2904
X4.5132Y-3.1171
X4.5138Y-4.3614
X4.5142Y-9.2008
X4.5142Y-9.2657
X4.5144Y-7.6361
X4.5147Y-8.1401
X4.515Y-9.1386
X4.5154Y-4.3055
X4.5165Y-4.1295
X4.5173Y-4.9634
X4.5177Y-9.3409
X4.5248Y-4.8323
X4.5256Y-4.7433
X4.5256Y-4.7437
X4.526Y-5.7681
X4.526Y-5.7976
X4.5272Y-4.9079
X4.5276Y-10.1925
X4.5303Y-6.4457
X4.5366Y-10.3165
X4.5461Y-5.3441
X4.5463Y-5.1144
X4.5463Y-5.1659
X4.5472Y-5.4039
X4.5476Y-5.4622
X4.5488Y-9.6539
X4.5512Y-5.2843
X4.5518Y-5.2262
X4.5526Y-7.6103
X4.5529Y-8.1659
X4.5535Y-4.0854
X4.5535Y-6.311
X4.5551Y-5.6346
X4.5553Y-6.0734
X4.5553Y-6.1321
X4.5553Y-6.1915
X4.5555Y-5.5811
X4.5555Y-5.6992
X4.5555Y-5.8961
X4.5555Y-5.9551
X4.5555Y-6.0142
X4.5555Y-7.1965
X4.5557Y-6.2506
X4.5559Y-5.522
X4.5626Y-6.7504
X4.5685Y-6.874
X4.5709Y-5.0406
X4.5709Y-7.0122
X4.5752Y-2.9701
X4.5827Y-2.8874
X4.5831Y-4.8252
X4.5872Y-5.8242
X4.5882Y-4.689
X4.5882Y-4.965
X4.5884Y-5.7762
X4.5924Y-7.5791
X4.5927Y-8.1971
X4.5928Y-7.8634
X4.5932Y-7.5317
X4.5935Y-8.2445
X4.5949Y-7.3248
X4.5949Y-8.4539
X4.5951Y-6.1049
X4.5953Y-6.0193
X4.5957Y-5.7303
X4.5963Y-3.0557
X4.5969Y-6.2213
X4.5969Y-6.2831
X4.5974Y-2.8234
X4.5976Y-3.5311
X4.598Y-9.5929
X4.5984Y-7.1988
X4.5988Y-6.385
X4.599Y-3.2474
X4.599Y-3.3616
X4.5992Y-7.2823
X4.5996Y-7.2398
X4.6Y-4.3406
X4.6Y-4.5232
X4.6008Y-3.4358
X4.6008Y-4.2382
X4.6012Y-4.4315
X4.6016Y-9.202
X4.6016Y-9.2669
X4.6024Y-9.1398
X4.6031Y-8.9413
X4.6031Y-9.0063
X4.6039Y-5.2807
X4.6039Y-8.5075
X4.6039Y-8.8791
X4.6039Y-9.0752
X4.6051Y-9.3425
X4.6055Y-8.8079
X4.6059Y-8.5559
X4.6059Y-9.4846
X4.6067Y-6.5382
X4.6075Y-9.4142
X4.6083Y-4.152
X4.6083Y-8.6189
X4.6094Y-4.9327
X4.611Y-8.6815
X4.6165Y-4.7776
X4.6181Y-7.75
X4.6199Y-7.9777
X4.6201Y-6.7409
X4.6211Y-5.6069
X4.6217Y-6.4315
X4.6232Y-5.9634
X4.624Y-8.2799
X4.625Y-5.4089
X4.6283Y-7.4925
X4.6327Y-5.1457
X4.6362Y-8.7311
X4.6368Y-5.0388
X4.6382Y-8.415
X4.6394Y-8.3173
X4.6394Y-8.3638
X4.6395Y-7.3621
X4.6395Y-7.4125
X4.6395Y-7.4574
X4.6411Y-2.9671
X4.6415Y-2.7939
X4.6435Y-3.1589
X4.6465Y-7.7214
X4.6469Y-5.322
X4.6472Y-10.0228
X4.6483Y-8.0063
X4.65Y-9.7898
X4.6516Y-6.9012
X4.6522Y-5.5108
X4.6528Y-7.8634
X4.6535Y-4.0858
X4.6539Y-5.5909
X4.6551Y-6.0929
X4.6551Y-10.3169
X4.6561Y-5.7506
X4.6606Y-4.3728
X4.661Y-4.2287
X4.6638Y-5.8469
X4.6644Y-5.8463
X4.6665Y-3.2457
X4.6673Y-4.6425
X4.6717Y-5.9705
X4.672Y-4.7268
X4.672Y-5.1969
X4.6722Y-4.9569
X4.6766Y-5.677
X4.6787Y-7.6928
X4.6803Y-5.0717
X4.6805Y-8.0349
X4.6839Y-4.1402
X4.6866Y-6.387
X4.6874Y-9.5394
X4.6902Y-5.3705
X4.6933Y-3.3445
X4.6945Y-6.3
X4.6957Y-6.4386
X4.6957Y-9.1441
X4.6969Y-9.3697
X4.6984Y-4.5335
X4.6984Y-9.6583
X4.7Y-3.4358
X4.7031Y-4.4602
X4.7035Y-6.5988
X4.7071Y-4.9382
X4.7075Y-6.537
X4.7094Y-4.3402
X4.7102Y-6.2185
X4.711Y-7.8634
X4.713Y-8.5043
X4.7142Y-9.285
X4.7152Y-5.764
X4.7165Y-5.2441
X4.7169Y-6.6583
X4.7197Y-6.7516
X4.7246Y-5.0293
X4.7276Y-6.3406
X4.7276Y-7.6919
X4.7294Y-8.0358
X4.7311Y-4.2476
X4.7327Y-5.8469
X4.7327Y-5.9453
X4.7333Y-5.8467
X4.7343Y-4.0854
X4.7354Y-4.6461
X4.7362Y-8.8102
X4.7425Y-5.189
X4.7425Y-5.7287
X4.7429Y-5.4256
X4.7435Y-5.5443
X4.7439Y-5.6033
X4.7443Y-5.4852
X4.7443Y-5.6624
X4.7457Y-5.1244
X4.7469Y-3.9358
X4.7488Y-4.7264
X4.7488Y-4.8228
X4.7522Y-6.0305
X4.7522Y-6.0896
X4.7522Y-6.1482
X4.7591Y-2.9528
X4.7594Y-9.6673
X4.7622Y-2.8138
X4.7622Y-7.8635
X4.765Y-8.8657
X4.7657Y-6.7764
X4.7661Y-10.2079
X4.7665Y-8.6669
X4.7673Y-3.2862
X4.7697Y-5.298
X4.7732Y-10.3161
X4.7773Y-7.6648
X4.7791Y-8.0618
X4.7827Y-5.7445
X4.7835Y-5.8713
X4.7844Y-5.8041
X4.7876Y-5.5376
X4.7892Y-7.9611
X4.7896Y-6.5687
X4.7899Y-7.7656
X4.7906Y-4.1449
X4.7911Y-6.4872
X4.7915Y-6.3687
X4.7919Y-6.4281
X4.7937Y-5.9307
X4.7943Y-5.9982
X4.7947Y-6.0577
X4.7955Y-6.2982
X4.7959Y-6.1797
X4.7963Y-6.2392
X4.7965Y-6.1169
X4.8043Y-5.6764
X4.8063Y-4.4311
X4.8091Y-5.4783
X4.811Y-5.3476
X4.8118Y-4.6469
X4.8122Y-7.8635
X4.815Y-6.7287
X4.8154Y-5.1354
X4.8157Y-5.1969
X4.8157Y-6.7874
X4.8173Y-3.9362
X4.8197Y-4.2374
X4.8205Y-3.8787
X4.8217Y-4.5496
X4.8217Y-5.2945
X4.8217Y-6.6303
X4.8232Y-4.2969
X4.8252Y-4.7272
X4.826Y-4.837
X4.826Y-4.8984
X4.8272Y-5.0339
X4.8278Y-5.0719
X4.828Y-10.2661
X4.8283Y-4.9571
X4.8342Y-7.6648
X4.8343Y-4.0898
X4.8358Y-8.061
X4.8384Y-7.7656
X4.8393Y-7.9607
X4.8506Y-5.6301
X4.8642Y-7.8634
X4.8646Y-2.9445
X4.8657Y-2.872
X4.8657Y-8.8425
X4.8673Y-5.1941
X4.8689Y-5.3366
X4.8689Y-10.0693
X4.8697Y-5.1327
X4.8697Y-5.3988
X4.8752Y-6.7705
X4.8787Y-6.6815
X4.8815Y-4.6461
X4.8839Y-6.5535
X4.8839Y-6.9587
X4.8843Y-5.7965
X4.885Y-7.6657
X4.8856Y-6.4726
X4.886Y-5.851
X4.887Y-4.0744
X4.8872Y-6.3911
X4.8874Y-8.0642
X4.8876Y-6.0285
X4.8876Y-6.2726
X4.8878Y-4.963
X4.888Y-5.91
X4.888Y-6.3321
X4.8884Y-5.9695
X4.8906Y-4.9004
X4.8909Y-4.2008
X4.8913Y-3.7787
X4.8915Y-6.2022
X4.8919Y-6.0837
X4.8923Y-6.1427
X4.8927Y-4.5226
X4.8929Y-10.3118
X4.8933Y-4.1465
X4.8933Y-4.3441
X4.8933Y-6.8606
X4.8937Y-3.9362
X4.8949Y-4.7264
X4.8961Y-4.8339
X4.9Y-3.8717
X4.9037Y-5.4498
X4.9041Y-5.5085
X4.9045Y-5.5679
X4.9055Y-8.3748
X4.9102Y-7.8587
X4.9189Y-5.0323
X4.9205Y-6.7264
X4.9217Y-7.9067
X4.9224Y-6.6055
X4.9224Y-8.0201
X4.9264Y-3.8244
X4.9264Y-7.7067
X4.9268Y-3.7248
X4.927Y-5.6805
X4.9272Y-3.0217
X4.928Y-7.8311
X4.9303Y-2.9606
X4.9303Y-3.1598
X4.9376Y-6.2085
X4.9378Y-5.1327
X4.938Y-6.09
X4.9384Y-6.149
X4.9406Y-6.4319
X4.9425Y-5.9177
X4.9433Y-5.9787
X4.9457Y-5.072
X4.9472Y-2.7882
X4.9512Y-7.2728
X4.9559Y-4.6465
X4.9583Y-3.1177
X4.9587Y-5.1921
X4.9606Y-4.202
X4.9646Y-4.7768
X4.9657Y-8.9799
X4.9665Y-4.9028
X4.9665Y-6.6563
X4.9681Y-4.3705
X4.9681Y-7.9024
X4.9685Y-6.5406
X4.9695Y-5.4514
X4.9705Y-4.8354
X4.972Y-4.5591
X4.974Y-9.0614
X4.9744Y-8.0193
X4.9768Y-7.7079
X4.978Y-6.7846
X4.9787Y-7.824
X4.9815Y-4.6846
X4.9846Y-6.6043
X4.985Y-10.0173
X4.9856Y-5.5057
X4.9876Y-5.7904
X4.988Y-5.677
X4.9913Y-3.0496
X4.9917Y-9.1555
X4.9957Y-3.1681
X4.9961Y-6.3012
X4.9972Y-10.0689
X4.999Y-5.9128
X4.9996Y-8.6224
X5.0024Y-3.9555
X5.0039Y-7.2248
X5.0043Y-9.4291
X5.0063Y-3.2248
X5.0071Y-3.8898
X5.0085Y-5.8514
X5.0094Y-6.461
X5.011Y-10.3122
X5.0157Y-7.076
X5.0193Y-8.011
X5.0193Y-8.8012
X5.0201Y-3.7783
X5.0201Y-7.913
X5.0224Y-6.7091
X5.024Y-7.813
X5.0248Y-3.6827
X5.0248Y-6.8339
X5.028Y-8.7209
X5.0299Y-7.7161
X5.0378Y-4.2
X5.039Y-4.7445
X5.039Y-4.835
X5.0406Y-6.8917
X5.0409Y-4.0394
X5.0409Y-7.3441
X5.0421Y-7.4433
X5.0421Y-7.4898
X5.0425Y-6.9429
X5.0425Y-7.2941
X5.0433Y-5.0709
X5.0437Y-6.9878
X5.0441Y-7.037
X5.0441Y-7.5339
X5.0445Y-9.7567
X5.0469Y-6.5264
X5.0469Y-7.1299
X5.0469Y-7.1606
X5.0469Y-7.1909
X5.0484Y-7.5886
X5.0488Y-7.6382
X5.0506Y-4.5254
X5.0528Y-8.9815
X5.0539Y-4.4232
X5.0581Y-4.303
X5.0581Y-6.6254
X5.0587Y-10.1406
X5.0598Y-9.0661
X5.0614Y-3.1146
X5.0622Y-3.1713
X5.063Y-8.8732
X5.0677Y-8.4984
X5.0689Y-7.8161
X5.0713Y-7.9122
X5.0726Y-5.9116
X5.0728Y-8.013
X5.0744Y-6.7598
X5.0756Y-10.2772
X5.0768Y-7.7142
X5.0776Y-7.676
X5.0839Y-3.3024
X5.0898Y-3.8559
X5.0929Y-6.389
X5.0965Y-3.9787
X5.0972Y-6.4646
X5.0974Y-4.6411
X5.098Y-3.7929
X5.1014Y-3.1348
X5.1018Y-3.0758
X5.1041Y-2.9518
X5.1045Y-2.7837
X5.1045Y-2.897
X5.1049Y-2.838
X5.1049Y-3.0144
X5.111Y-4.7465
X5.115Y-4.8323
X5.115Y-7.4898
X5.1154Y-7.3524
X5.1154Y-7.5882
X5.1157Y-7.3972
X5.1157Y-7.4413
X5.1161Y-7.1299
X5.1161Y-7.1606
X5.1161Y-7.1909
X5.1165Y-7.5339
X5.1189Y-6.9484
X5.1189Y-6.9882
X5.1191Y-6.8719
X5.1213Y-3.5764
X5.122Y-6.8063
X5.1232Y-3.7386
X5.1244Y-7.813
X5.1252Y-6.2122
X5.1252Y-7.7114
X5.1268Y-6.1453
X5.1283Y-5.7846
X5.1283Y-6.2685
X5.1285Y-6.3494
X5.1287Y-7.05
X5.1307Y-5.8453
X5.1309Y-3.2593
X5.1323Y-8.013
X5.1331Y-5.9587
X5.1346Y-5.3106
X5.1352Y-5.9057
X5.136Y-5.6022
X5.1364Y-5.4837
X5.1364Y-5.6612
X5.1366Y-4.9551
X5.1368Y-5.4289
X5.1368Y-5.5431
X5.1368Y-5.7203
X5.137Y-5.0146
X5.137Y-5.0736
X5.1372Y-4.8994
X5.1372Y-5.2467
X5.1372Y-5.3699
X5.1376Y-5.1281
X5.138Y-5.1876
X5.1386Y-7.9161
X5.1394Y-6.0811
X5.1398Y-6.022
X5.1402Y-8.072
X5.1413Y-10.3181
X5.1433Y-3.3976
X5.1435Y-6.7167
X5.1441Y-7.2626
X5.1449Y-4.0173
X5.1451Y-6.5919
X5.1453Y-4.5295
X5.1455Y-3.1053
X5.1455Y-6.651
X5.1459Y-3.0463
X5.1461Y-4.2272
X5.1461Y-8.3752
X5.1465Y-6.902
X5.1472Y-4.2866
X5.1472Y-4.3409
X5.1474Y-6.7848
X5.1476Y-3.9157
X5.1476Y-4.1665
X5.148Y-6.8465
X5.1482Y-2.9222
X5.1484Y-4.4047
X5.1486Y-2.8675
X5.1486Y-2.9817
X5.149Y-2.8085
X5.1496Y-4.1142
X5.153Y-6.9691
X5.1531Y-4.702
X5.1559Y-7.6236
X5.1594Y-9.4012
X5.1606Y-9.1445
X5.1606Y-9.7874
X5.1646Y-3.7
X5.1705Y-7.7843
X5.1772Y-6.2945
X5.1776Y-6.1795
X5.1783Y-6.235
X5.1789Y-6.1085
X5.1793Y-5.9904
X5.1799Y-3.2898
X5.1813Y-5.2171
X5.1817Y-5.0986
X5.1817Y-5.2762
X5.1819Y-5.935
X5.1821Y-5.0439
X5.1821Y-5.1581
X5.1823Y-4.9244
X5.1825Y-4.9848
X5.1827Y-5.7567
X5.1831Y-3.2098
X5.1831Y-5.3402
X5.1839Y-5.3996
X5.1839Y-5.8205
X5.1846Y-4.8661
X5.1854Y-5.4555
X5.1858Y-5.5744
X5.1858Y-5.6303
X5.1858Y-5.6894
X5.1862Y-5.5138
X5.1874Y-6.6815
X5.1874Y-7.0583
X5.1876Y-4.5596
X5.1892Y-6.5041
X5.1892Y-6.7455
X5.1896Y-6.6215
X5.1898Y-5.8799
X5.1898Y-6.4445
X5.1902Y-4.6846
X5.1906Y-3.3681
X5.1906Y-3.9709
X5.1921Y-6.0362
X5.1925Y-4.4449
X5.1927Y-4.8293
X5.1929Y-4.3705
X5.1929Y-4.6264
X5.1929Y-6.8803
X5.1931Y-4.4931
X5.1931Y-6.9467
X5.1933Y-4.3161
X5.1941Y-4.7413
X5.1945Y-6.815
X5.1953Y-4.052
X5.1963Y-4.2553
X5.1972Y-4.1425
X5.1972Y-4.1925
X5.1972Y-6.337
X5.1972Y-7.1965
X5.1976Y-7.9969
X5.198Y-7.3953
X5.1984Y-7.3429
X5.1988Y-7.8098
X5.1992Y-7.8709
X5.1996Y-7.2528
X5.2Y-7.6732
X5.2Y-7.7378
X5.2043Y-3.8224
X5.2059Y-10.0858
X5.2083Y-3.8949
X5.211Y-3.4598
X5.213Y-3.5587
X5.2161Y-8.4453
X5.2173Y-8.5559
X5.2232Y-8.8555
X5.2258Y-3.0459
X5.226Y-9.0094
X5.2262Y-2.9274
X5.2262Y-3.1049
X5.2266Y-2.8726
X5.2266Y-2.9868
X5.227Y-2.8136
X5.2285Y-3.2376
X5.2289Y-3.1785
X5.2331Y-6.4063
X5.2341Y-6.4734
X5.2341Y-6.5341
X5.2406Y-8.8154
X5.2415Y-8.7577
X5.2417Y-3.628
X5.2461Y-3.6961
X5.2472Y-7.9433
X5.2504Y-7.5783
X5.252Y-10.3165
X5.2524Y-7.5035
X5.2543Y-3.7772
X5.2551Y-3.3783
X5.261Y-3.85
X5.261Y-8.8547
X5.265Y-9.0469
X5.2654Y-8.1413
X5.2699Y-3.0163
X5.2703Y-2.8978
X5.2703Y-3.0754
X5.2707Y-2.8431
X5.2707Y-2.9573
X5.2711Y-2.7841
X5.2726Y-3.2081
X5.2728Y-7.1004
X5.273Y-3.149
X5.2732Y-7.3358
X5.2734Y-4.3195
X5.2736Y-7.3969
X5.2738Y-4.201
X5.2738Y-4.3785
X5.2742Y-4.1463
X5.2742Y-4.2604
X5.2744Y-7.2638
X5.2746Y-4.0872
X5.2752Y-4.5681
X5.2762Y-4.6254
X5.277Y-4.9179
X5.2774Y-4.7994
X5.2776Y-4.9803
X5.2778Y-4.7447
X5.2778Y-4.8589
X5.2778Y-5.4667
X5.2778Y-5.9514
X5.278Y-7.7496
X5.2781Y-4.6856
X5.2783Y-5.8917
X5.2783Y-6.0311
X5.2783Y-6.4445
X5.2783Y-7.8106
X5.2787Y-7.8799
X5.2789Y-5.2829
X5.2789Y-5.7675
X5.2789Y-6.5033
X5.2791Y-6.0827
X5.2791Y-7.6776
X5.2793Y-5.1644
X5.2793Y-5.3419
X5.2793Y-5.649
X5.2793Y-5.8266
X5.2795Y-4.4457
X5.2795Y-6.2634
X5.2797Y-5.1096
X5.2797Y-5.2238
X5.2797Y-5.401
X5.2797Y-5.5943
X5.2797Y-5.7085
X5.2799Y-4.5091
X5.2801Y-5.0506
X5.2801Y-5.5352
X5.2807Y-6.1413
X5.2807Y-6.2094
X5.2807Y-7.2327
X5.2823Y-7.0008
X5.2823Y-7.0484
X5.2833Y-6.3368
X5.2835Y-4.0213
X5.2839Y-6.7224
X5.2843Y-6.6516
X5.2846Y-6.5972
X5.2878Y-3.285
X5.288Y-6.9116
X5.2886Y-6.7894
X5.2888Y-8.3974
X5.29Y-6.8459
X5.2909Y-3.5378
X5.2909Y-8.5469
X5.2941Y-10.1598
X5.3035Y-3.7291
X5.3051Y-3.9669
X5.3083Y-3.8059
X5.3104Y-8.7868
X5.315Y-4.2291
X5.3173Y-4.1197
X5.3179Y-4.1715
X5.3185Y-7.5035
X5.3197Y-4.35
X5.3199Y-4.5364
X5.3201Y-4.2941
X5.3201Y-7.5783
X5.3203Y-4.4817
X5.3203Y-4.5959
X5.3207Y-4.4226
X5.3209Y-8.3307
X5.3215Y-4.7699
X5.3219Y-4.7152
X5.3219Y-4.8293
X5.3219Y-5.4372
X5.3222Y-4.6561
X5.3224Y-4.889
X5.3228Y-4.0583
X5.323Y-5.2533
X5.3234Y-5.1348
X5.3234Y-5.3124
X5.3234Y-5.6195
X5.3238Y-5.0801
X5.3238Y-5.1943
X5.324Y-5.8551
X5.3242Y-5.5057
X5.3244Y-5.3752
X5.3244Y-5.9197
X5.3252Y-4.95
X5.3252Y-5.5665
X5.3256Y-5.0197
X5.3256Y-5.7327
X5.3262Y-5.9915
X5.3264Y-5.6736
X5.3283Y-6.1114
X5.3289Y-3.4533
X5.3297Y-3.3396
X5.3297Y-8.9317
X5.3303Y-6.0441
X5.3305Y-8.9695
X5.3311Y-6.1732
X5.3311Y-6.2472
X5.3315Y-5.7957
X5.3317Y-6.6234
X5.3321Y-6.8821
X5.3323Y-6.3031
X5.3323Y-6.6909
X5.3323Y-6.7433
X5.3341Y-6.8163
X5.3354Y-3.0346
X5.3419Y-3.6002
X5.3427Y-8.6159
X5.3445Y-3.1559
X5.3449Y-9.9681
X5.3502Y-8.4994
X5.3512Y-8.5665
X5.3559Y-3.9244
X5.3587Y-9.9189
X5.3602Y-10.024
X5.3626Y-3.9972
X5.3634Y-3.6736
X5.3661Y-3.7539
X5.3705Y-10.3169
X5.3709Y-8.2697
X5.3711Y-3.0589
X5.3722Y-9.8341
X5.3728Y-3.2744
X5.3734Y-3.4833
X5.3776Y-5.8677
X5.3785Y-6.0407
X5.3801Y-5.0514
X5.3858Y-5.9362
X5.3888Y-4.2793
X5.4012Y-5.7591
X5.4037Y-9.7553
X5.4049Y-5.6648
X5.4071Y-5.8173
X5.4081Y-4.7234
X5.4087Y-3.8748
X5.4093Y-4.89
X5.4098Y-3.9531
X5.4106Y-4.5323
X5.4116Y-8.6148
X5.4118Y-8.565
X5.4157Y-4.4031
X5.4185Y-3.3768
X5.4193Y-9.9252
X5.4201Y-9.0465
X5.4205Y-3.6165
X5.4211Y-5.251
X5.4217Y-3.7047
X5.4219Y-9.7018
X5.4226Y-5.3238
X5.4236Y-8.8894
X5.4244Y-8.4933
X5.4262Y-9.8274
X5.4276Y-10.1882
X5.4297Y-4.3026
X5.4339Y-3.5287
X5.4394Y-10.0858
X5.4439Y-8.7829
X5.4449Y-3.4299
X5.4533Y-4.0644
X5.4535Y-5.9882
X5.4585Y-8.1144
X5.463Y-5.385
X5.4661Y-8.9693
X5.4661Y-9.2933
X5.4667Y-8.54
X5.4701Y-3.8925
X5.4724Y-3.811
X5.4752Y-9.7043
X5.476Y-9.8657
X5.4783Y-5.4421
X5.4799Y-3.6429
X5.4829Y-3.0439
X5.4833Y-2.9254
X5.4833Y-3.103
X5.4837Y-2.8707
X5.4837Y-2.9848
X5.4841Y-2.8116
X5.4852Y-3.2904
X5.4856Y-3.2356
X5.4856Y-3.3498
X5.486Y-3.1766
X5.4866Y-7.9634
X5.4882Y-4.1248
X5.4886Y-10.3161
X5.4945Y-3.5433
X5.4982Y-3.4372
X5.502Y-4.3409
X5.503Y-8.6026
X5.5039Y-9.5555
X5.5071Y-9.1217
X5.5118Y-8.8213
X5.5122Y-5.5055
X5.5142Y-7.7075
X5.522Y-3.7638
X5.5232Y-3.852
X5.524Y-7.8657
X5.527Y-3.0144
X5.5274Y-2.8959
X5.5274Y-3.0734
X5.5278Y-2.8411
X5.5278Y-2.9553
X5.5281Y-2.7821
X5.5293Y-3.2608
X5.5297Y-3.2061
X5.5297Y-3.3203
X5.5301Y-3.147
X5.5317Y-3.3805
X5.535Y-4.8992
X5.5384Y-4.7065
X5.5392Y-4.5321
X5.5407Y-4.3793
X5.5417Y-3.5803
X5.5591Y-3.476
X5.5626Y-9.8311
X5.5634Y-9.3776
X5.5634Y-9.4417
X5.5634Y-9.5917
X5.5634Y-9.665
X5.5634Y-9.7575
X5.5648Y-4.0463
X5.565Y-9.5161
X5.5654Y-7.5547
X5.5654Y-7.6303
X5.5654Y-8.065
X5.5654Y-8.3614
X5.5654Y-8.4346
X5.5654Y-8.4988
X5.5654Y-8.5732
X5.5654Y-8.6488
X5.5654Y-8.722
X5.5654Y-9.9083
X5.5654Y-9.9657
X5.5665Y-7.776
X5.5665Y-7.8504
X5.5665Y-7.926
X5.5665Y-7.9992
X5.5665Y-8.1378
X5.5665Y-8.2134
X5.5665Y-8.2866
X5.5665Y-8.7945
X5.5665Y-8.8689
X5.5665Y-8.9445
X5.5665Y-9.0177
X5.5665Y-9.0819
X5.5665Y-9.1563
X5.5665Y-9.2319
X5.5665Y-9.3051
X5.5665Y-10.0252
X5.5673Y-7.7043
X5.5815Y-3.7902
X5.5831Y-2.9535
X5.5837Y-3.9278
X5.5902Y-2.8114
X5.5961Y-3.6906
X5.5972Y-5.0012
X5.5976Y-4.9122
X5.5984Y-4.6315
X5.6008Y-3.2622
X5.6008Y-3.5232
X5.6118Y-3.4319
X5.613Y-9.8319
X5.6146Y-9.9071
X5.6181Y-6.065
X5.6242Y-4.5856
X5.6246Y-4.2667
X5.626Y-6.9165
X5.6276Y-9.9606
X5.6291Y-7.0705
X5.6293Y-5.9892
X5.6303Y-6.8339
X5.635Y-4.228
X5.6362Y-10.1228
X5.6366Y-10.1988
X5.637Y-10.2705
X5.6417Y-4.0657
X5.6433Y-3.7276
X5.6433Y-5.152
X5.6441Y-3.0591
X5.6463Y-3.9226
X5.6465Y-3.1606
X5.6476Y-7.0201
X5.648Y-7.4894
X5.648Y-7.628
X5.648Y-7.7035
X5.648Y-7.7768
X5.648Y-8.3606
X5.648Y-8.4339
X5.648Y-8.498
X5.6484Y-4.6681
X5.6492Y-7.8492
X5.6492Y-7.9252
X5.6492Y-7.9984
X5.6492Y-8.0626
X5.6492Y-8.137
X5.6492Y-8.2126
X5.6492Y-8.2858
X5.6492Y-8.7114
X5.6496Y-8.5866
X5.65Y-4.8331
X5.65Y-9.3787
X5.65Y-9.4429
X5.65Y-9.5173
X5.65Y-9.5929
X5.6508Y-9.0173
X5.6508Y-9.0815
X5.6508Y-9.1559
X5.6508Y-9.2315
X5.6508Y-9.3047
X5.652Y-2.835
X5.652Y-8.7945
X5.652Y-8.8689
X5.652Y-8.9445
X5.6587Y-9.7441
X5.6602Y-3.4693
X5.6606Y-3.6232
X5.6612Y-5.327
X5.6622Y-3.2783
X5.6642Y-6.7354
X5.6646Y-3.3823
X5.6665Y-9.8858
X5.6685Y-10.0618
X5.6685Y-10.3181
X5.6689Y-10.2335
X5.6693Y-5.2079
X5.6693Y-9.9669
X5.6697Y-10.1488
X5.6776Y-4.9949
X5.6835Y-9.0476
X5.6835Y-9.1201
X5.6843Y-6.8358
X5.6843Y-9.1949
X5.685Y-8.7665
X5.6854Y-7.661
X5.6854Y-7.7366
X5.6854Y-7.8098
X5.6854Y-8.3937
X5.6854Y-8.4669
X5.6862Y-6.3362
X5.6866Y-7.8823
X5.6866Y-7.9583
X5.6866Y-8.0315
X5.6866Y-8.0957
X5.6866Y-8.1701
X5.6866Y-8.2457
X5.6866Y-8.3189
X5.6906Y-9.6531
X5.6921Y-7.5685
X5.7024Y-3.6705
X5.7039Y-3.9705
X5.7039Y-4.1087
X5.7043Y-3.0886
X5.7051Y-3.8283
X5.7061Y-4.5132
X5.7083Y-8.5362
X5.7091Y-5.55
X5.7134Y-3.5791
X5.7138Y-8.6465
X5.7177Y-7.4331
X5.7199Y-4.1907
X5.7232Y-3.4075
X5.7242Y-4.0407
X5.7248Y-9.8319
X5.7252Y-9.3335
X5.7287Y-3.3209
X5.7311Y-2.9992
X5.7331Y-5.3272
X5.7398Y-9.7531
X5.7453Y-6.6713
X5.748Y-9.1535
X5.7484Y-9.1874
X5.7512Y-3.1835
X5.7531Y-7.7614
X5.7539Y-7.5091
X5.7614Y-9.9276
X5.7618Y-3.6165
X5.7626Y-10.1508
X5.7634Y-10.0106
X5.7646Y-10.2339
X5.765Y-10.0949
X5.7657Y-7.0551
X5.7657Y-7.1295
X5.7657Y-7.2783
X5.7657Y-7.3425
X5.7661Y-3.5295
X5.7661Y-7.1957
X5.7661Y-10.3181
X5.7673Y-7.8224
X5.7691Y-4.762
X5.7697Y-5.252
X5.7717Y-6.9504
X5.7736Y-3.7469
X5.7736Y-8.115
X5.7744Y-9.6555
X5.7755Y-8.9322
X5.7764Y-8.5898
X5.7795Y-8.5083
X5.7803Y-8.3894
X5.7844Y-3.2624
X5.7846Y-3.3547
X5.7896Y-3.1392
X5.79Y-3.0801
X5.7923Y-2.9561
X5.7927Y-2.9014
X5.7931Y-2.7856
X5.7931Y-2.8423
X5.7931Y-3.0187
X5.7937Y-9.487
X5.7941Y-10.1276
X5.7949Y-9.1894
X5.7953Y-9.1535
X5.7965Y-10.1953
X5.7969Y-10.2713
X5.7972Y-9.9705
X5.7996Y-4.1165
X5.8012Y-8.6957
X5.8024Y-6.8413
X5.8055Y-9.3323
X5.8063Y-9.6224
X5.811Y-7.9858
X5.8118Y-8.1134
X5.8146Y-4.5248
X5.8161Y-3.8177
X5.8161Y-4.6071
X5.8189Y-7.4465
X5.8217Y-4.6783
X5.8248Y-3.5547
X5.8268Y-6.8988
X5.8272Y-4.0087
X5.8276Y-8.4091
X5.8278Y-5.6431
X5.8281Y-3.2904
X5.8303Y-3.4681
X5.8307Y-5.7878
X5.8331Y-9.7504
X5.8333Y-3.1644
X5.8337Y-3.1096
X5.8337Y-3.2238
X5.8341Y-3.0506
X5.8343Y-9.0949
X5.8343Y-9.1453
X5.8343Y-9.1949
X5.8343Y-9.2453
X5.835Y-8.4717
X5.8354Y-9.2878
X5.8358Y-9.0311
X5.8364Y-2.9266
X5.8368Y-2.8719
X5.8368Y-2.986
X5.8372Y-2.8128
X5.8417Y-5.163
X5.8421Y-8.8055
X5.8453Y-9.6555
X5.8526Y-6.3053
X5.8535Y-9.3327
X5.8547Y-9.0657
X5.8575Y-7.9154
X5.8594Y-7.2252
X5.8594Y-9.1201
X5.8594Y-9.1701
X5.8594Y-9.2201
X5.8606Y-7.0516
X5.8618Y-7.1406
X5.8618Y-7.3307
X5.8622Y-5.1
X5.8626Y-4.8083
X5.8628Y-4.636
X5.865Y-7.4
X5.8661Y-9.7724
X5.8705Y-8.587
X5.874Y-9.4807
X5.8748Y-8.8547
X5.8765Y-8.7182
X5.878Y-8.5055
X5.8783Y-10.172
X5.8799Y-9.0933
X5.8815Y-6.9807
X5.8835Y-5.3862
X5.8835Y-9.0311
X5.8839Y-6.8441
X5.8843Y-9.1453
X5.8843Y-9.1949
X5.886Y-3.4096
X5.8862Y-3.502
X5.8878Y-3.8642
X5.889Y-3.6587
X5.889Y-9.9709
X5.889Y-10.0157
X5.8941Y-8.4598
X5.8953Y-8.2469
X5.8992Y-9.3327
X5.8996Y-6.589
X5.9039Y-9.7732
X5.9047Y-5.1551
X5.9047Y-9.0657
X5.9055Y-4.9965
X5.9094Y-9.1201
X5.9094Y-9.1701
X5.9094Y-9.2201
X5.9102Y-6.7433
X5.913Y-7.3201
X5.9134Y-5.2776
X5.914Y-3.0502
X5.9144Y-2.9317
X5.9144Y-3.1093
X5.9148Y-2.877
X5.9148Y-2.9911
X5.9152Y-2.8179
X5.9163Y-3.2967
X5.9167Y-3.2419
X5.9167Y-3.3561
X5.9171Y-3.1829
X5.924Y-9.6559
X5.9287Y-4.1815
X5.9291Y-9.0307
X5.9293Y-3.4435
X5.9299Y-4.3453
X5.9307Y-4.5051
X5.9331Y-6.9228
X5.9343Y-9.0949
X5.9343Y-9.1453
X5.9343Y-9.1949
X5.9343Y-9.7535
X5.9398Y-8.2445
X5.9453Y-8.5866
X5.9461Y-9.3327
X5.9465Y-3.7335
X5.9472Y-8.5055
X5.948Y-4.061
X5.9488Y-9.0665
X5.9504Y-4.8425
X5.9504Y-8.3567
X5.952Y-4.9969
X5.9524Y-6.8
X5.9524Y-9.365
X5.9524Y-9.3965
X5.9524Y-9.428
X5.9524Y-9.5146
X5.9524Y-9.5461
X5.9524Y-9.5776
X5.9528Y-5.3177
X5.9531Y-4.2055
X5.9559Y-7.7091
X5.9575Y-7.5476
X5.9581Y-3.0207
X5.9585Y-2.9022
X5.9585Y-3.0797
X5.9589Y-2.8474
X5.9589Y-2.9616
X5.9591Y-9.2701
X5.9593Y-2.7884
X5.9594Y-9.1201
X5.9594Y-9.1701
X5.9594Y-9.2201
X5.9598Y-10.1992
X5.9604Y-3.2671
X5.9608Y-3.2124
X5.9608Y-3.3266
X5.9612Y-3.1533
X5.9628Y-3.3868
X5.965Y-7.8909
X5.9665Y-4.7969
X5.9681Y-10.0736
X5.9689Y-4.6232
X5.9756Y-9.0307
X5.9795Y-9.774
X5.9839Y-7.1465
X5.9843Y-9.1453
X5.9843Y-9.1949
X5.9843Y-9.2449
X5.985Y-8.2457
X5.9858Y-10.3177
X5.9895Y-8.8301
X5.9898Y-6.8748
X5.9933Y-9.3315
X6.0008Y-5.889
X6.0047Y-3.9217
X6.0059Y-10.0728
X6.0091Y-9.2701
X6.0094Y-9.1201
X6.0094Y-9.1701
X6.0094Y-9.2201
X6.0106Y-3.015
X6.0106Y-9.6563
X6.011Y-9.75
X6.013Y-7.6693
X6.0146Y-7.8303
X6.0157Y-5.1535
X6.0181Y-3.7799
X6.0185Y-7.9984
X6.0209Y-3.2039
X6.0217Y-8.5846
X6.0228Y-7.2291
X6.0228Y-8.5024
X6.0228Y-9.0319
X6.0256Y-3.5327
X6.0257Y-8.6797
X6.0299Y-7.3866
X6.0339Y-7.1161
X6.0343Y-9.1453
X6.0343Y-9.1949
X6.0343Y-9.2449
X6.0358Y-5.9882
X6.0394Y-9.3315
X6.0409Y-6.7988
X6.0445Y-10.2819
X6.048Y-4.5197
X6.0567Y-8.2256
X6.0585Y-4.2813
X6.0591Y-9.2701
X6.0594Y-9.1201
X6.0594Y-9.1701
X6.0594Y-9.2201
X6.061Y-3.915
X6.0614Y-3.0929
X6.0614Y-4.3846
X6.0622Y-5.3744
X6.0634Y-6.8736
X6.0642Y-3.4102
X6.0665Y-7.676
X6.0669Y-7.2551
X6.0693Y-9.0319
X6.0701Y-7.8358
X6.0705Y-5.6402
X6.0709Y-5.2161
X6.0713Y-3.2984
X6.0764Y-3.7965
X6.0764Y-7.7819
X6.0768Y-7.6122
X6.0768Y-7.7516
X6.078Y-7.5752
X6.0803Y-9.6563
X6.0811Y-9.0902
X6.0839Y-9.1453
X6.0839Y-9.1949
X6.0843Y-7.0524
X6.0843Y-9.2449
X6.0862Y-7.9433
X6.0866Y-7.9024
X6.0878Y-4.1146
X6.0878Y-8.5024
X6.088Y-3.6144
X6.0894Y-8.5858
X6.0894Y-9.9575
X6.0933Y-6.698
X6.0957Y-9.75
X6.0996Y-8.6665
X6.1002Y-8.4608
X6.1016Y-10.0287
X6.102Y-3.687
X6.1043Y-10.3181
X6.1059Y-8.1256
X6.1059Y-8.1598
X6.1091Y-9.1701
X6.1106Y-8.8728
X6.1106Y-8.9287
X6.111Y-9.0055
X6.1142Y-8.3161
X6.1142Y-9.4583
X6.1146Y-9.4256
X6.1146Y-9.578
X6.1193Y-10.1307
X6.1205Y-5.4528
X6.1228Y-6.7992
X6.1291Y-5.1358
X6.1291Y-10.0287
X6.1299Y-8.8185
X6.1343Y-9.1453
X6.1343Y-9.1949
X6.135Y-7.052
X6.1358Y-7.1035
X6.1362Y-10.1827
X6.1402Y-6.8744
X6.1427Y-3.0482
X6.1429Y-5.2362
X6.1429Y-5.2862
X6.1431Y-2.9297
X6.1431Y-3.1073
X6.1433Y-5.3343
X6.1435Y-2.875
X6.1435Y-2.9892
X6.1439Y-2.8159
X6.1449Y-9.5756
X6.1451Y-3.2947
X6.1455Y-3.24
X6.1455Y-3.3541
X6.1459Y-3.1809
X6.1488Y-4.0291
X6.1496Y-9.65
X6.1504Y-4.8264
X6.1512Y-9.9185
X6.1516Y-7.1972
X6.1535Y-9.4043
X6.1577Y-4.2722
X6.1579Y-6.961
X6.1581Y-3.4415
X6.1583Y-4.6465
X6.1587Y-8.7882
X6.1594Y-8.2713
X6.1594Y-9.1701
X6.163Y-8.585
X6.1657Y-9.822
X6.1661Y-4.4854
X6.1665Y-8.5031
X6.1709Y-9.7492
X6.1736Y-4.9114
X6.1791Y-5.0142
X6.1791Y-10.063
X6.1791Y-10.1039
X6.1815Y-3.9331
X6.1823Y-7.8528
X6.1829Y-3.5561
X6.1844Y-6.1467
X6.185Y-8.711
X6.1868Y-3.0187
X6.187Y-9.2791
X6.1872Y-2.9002
X6.1872Y-3.0778
X6.1876Y-2.8455
X6.1876Y-2.9596
X6.188Y-2.7864
X6.1892Y-3.2652
X6.1894Y-5.1811
X6.1894Y-9.3134
X6.1896Y-3.2104
X6.1896Y-3.3246
X6.19Y-3.1514
X6.1913Y-8.0323
X6.1915Y-3.3848
X6.1919Y-8.4156
X6.1937Y-5.2386
X6.1937Y-5.287
X6.1937Y-5.3661
X6.1945Y-8.2146
X6.1984Y-9.065
X6.1992Y-8.913
X6.2008Y-9.0083
X6.2008Y-9.1283
X6.2039Y-4.3319
X6.2043Y-9.1827
X6.2043Y-9.3528
X6.2047Y-5.702
X6.2067Y-5.6413
X6.2075Y-4.1756
X6.2094Y-8.7811
X6.2114Y-6.798
X6.2122Y-9.587
X6.2142Y-6.8736
X6.2161Y-8.8642
X6.2185Y-6.4035
X6.2193Y-9.6996
X6.2205Y-10.063
X6.2205Y-10.1039
X6.2209Y-9.5043
X6.2213Y-9.2181
X6.2217Y-7.885
X6.2224Y-10.3173
X6.2236Y-5.5484
X6.2244Y-6.5213
X6.2264Y-7.7091
X6.2264Y-9.4264
X6.2272Y-7.5618
X6.2276Y-9.9161
X6.2289Y-3.701
X6.2295Y-5.4469
X6.2343Y-9.2791
X6.2346Y-8.0638
X6.2358Y-4.9252
X6.237Y-4.7925
X6.2382Y-5.235
X6.2382Y-5.2866
X6.2386Y-5.1787
X6.239Y-5.1291
X6.239Y-5.3429
X6.239Y-8.5906
X6.2406Y-7.1094
X6.2413Y-8.5028
X6.2425Y-3.8476
X6.2449Y-10.263
X6.2472Y-7.0508
X6.2551Y-8.7807
X6.2579Y-2.9744
X6.2594Y-9.937
X6.2602Y-10.1772
X6.261Y-3.6165
X6.2646Y-9.876
X6.2657Y-9.6508
X6.2661Y-9.2031
X6.2709Y-5.8874
X6.2732Y-4.0787
X6.2756Y-8.7315
X6.278Y-9.276
X6.2813Y-4.714
X6.2823Y-5.4579
X6.2827Y-8.8614
X6.2846Y-5.0413
X6.285Y-5.1839
X6.285Y-9.3602
X6.2854Y-5.2406
X6.2854Y-5.3811
X6.2858Y-4.9232
X6.2858Y-5.287
X6.2858Y-8.676
X6.2874Y-6.3909
X6.2882Y-3.1823
X6.2882Y-6.8776
X6.2882Y-6.9543
X6.2898Y-4.511
X6.2898Y-9.5024
X6.2902Y-9.4264
X6.2909Y-9.5654
X6.2913Y-4.8276
X6.2937Y-6.7965
X6.3016Y-8.7807
X6.3047Y-6.5209
X6.3059Y-3.063
X6.3083Y-8.589
X6.3102Y-3.3402
X6.3138Y-10.0626
X6.3142Y-7.7854
X6.3154Y-7.8547
X6.3161Y-9.9551
X6.3161Y-9.9843
X6.3165Y-3.852
X6.3165Y-8.5031
X6.3173Y-4.424
X6.3197Y-5.5906
X6.3226Y-4.3274
X6.323Y-9.7175
X6.323Y-9.7585
X6.3236Y-9.6437
X6.3311Y-5.4539
X6.3321Y-3.5333
X6.3348Y-8.46
X6.3382Y-9.435
X6.3409Y-3.4256
X6.3488Y-8.7819
X6.3492Y-9.3512
X6.3512Y-3.2606
X6.3512Y-9.1382
X6.3526Y-6.4561
X6.3531Y-9.0673
X6.3531Y-9.2094
X6.3539Y-8.8642
X6.3539Y-8.9319
X6.3539Y-9.5657
X6.3547Y-9.0004
X6.3559Y-9.2933
X6.3593Y-5.9175
X6.3622Y-4.928
X6.3646Y-6.8776
X6.3665Y-5.2862
X6.3671Y-4.2388
X6.3764Y-5.3646
X6.3764Y-6.5213
X6.378Y-3.9496
X6.3791Y-8.5949
X6.3803Y-8.7264
X6.3803Y-9.4335
X6.3811Y-8.6831
X6.3815Y-8.5031
X6.3819Y-7.6665
X6.3821Y-3.614
X6.3823Y-6.7953
X6.3823Y-8.2217
X6.3823Y-8.2949
X6.3823Y-8.3591
X6.3823Y-8.4335
X6.3827Y-7.585
X6.3843Y-8.1445
X6.3846Y-8.0843
X6.3866Y-9.6441
X6.3882Y-8.0252
X6.3886Y-7.9709
X6.3906Y-7.9043
X6.3915Y-3.1348
X6.3919Y-3.0758
X6.3927Y-2.7797
X6.3937Y-10.1138
X6.3943Y-2.9518
X6.3947Y-2.897
X6.3951Y-2.838
X6.3951Y-3.0144
X6.3951Y-3.7608
X6.3953Y-8.7819
X6.3957Y-6.3213
X6.3984Y-10.2976
X6.4Y-9.5677
X6.4Y-10.1988
X6.402Y-7.7295
X6.4031Y-7.3264
X6.4055Y-7.4071
X6.4128Y-5.7864
X6.413Y-8.6472
X6.4132Y-5.8478
X6.4146Y-3.2071
X6.4157Y-7.1768
X6.4161Y-5.0126
X6.4177Y-7.0114
X6.4189Y-4.7957
X6.4205Y-4.6197
X6.4209Y-9.4339
X6.4228Y-2.926
X6.4264Y-6.4406
X6.4272Y-8.8807
X6.4272Y-9.2091
X6.428Y-8.9476
X6.4291Y-9.1067
X6.4295Y-2.9807
X6.4299Y-9.026
X6.4323Y-7.8591
X6.4352Y-3.16
X6.4356Y-3.1053
X6.436Y-3.0463
X6.4362Y-6.0146
X6.4362Y-6.8768
X6.4362Y-9.328
X6.4366Y-9.2929
X6.4388Y-2.8675
X6.4392Y-2.8085
X6.4425Y-3.8709
X6.4433Y-9.9724
X6.4453Y-9.8976
X6.4467Y-5.2073
X6.4467Y-5.4608
X6.4469Y-5.526
X6.447Y-5.0805
X6.447Y-5.1455
X6.447Y-5.2695
X6.447Y-5.3372
X6.447Y-5.399
X6.447Y-5.9179
X6.4474Y-5.6081
X6.4474Y-5.6703
X6.4474Y-5.7943
X6.4474Y-5.8553
X6.4476Y-5.735
X6.4484Y-10.0307
X6.4492Y-10.0728
X6.4496Y-10.1311
X6.4504Y-10.2386
X6.4504Y-10.3291
X6.4508Y-9.7087
X6.4508Y-10.1858
X6.4508Y-10.2764
X6.452Y-6.9555
X6.452Y-7.6669
X6.452Y-9.7634
X6.4524Y-9.6445
X6.4528Y-9.8252
X6.4547Y-9.565
X6.4567Y-9.3551
X6.4575Y-3.4366
X6.4614Y-9.5303
X6.4624Y-4.5813
X6.4634Y-6.7976
X6.4659Y-4.403
X6.4661Y-9.1181
X6.4661Y-9.178
X6.4663Y-4.2297
X6.4665Y-4.0858
X6.4665Y-9.248
X6.4669Y-7.3256
X6.4701Y-7.5421
X6.4728Y-8.852
X6.474Y-3.6524
X6.4748Y-7.9358
X6.4748Y-8.0091
X6.4748Y-8.0732
X6.4748Y-8.1476
X6.4748Y-8.5768
X6.4752Y-3.2575
X6.4756Y-3.552
X6.4756Y-8.228
X6.476Y-6.4953
X6.476Y-8.298
X6.4776Y-8.365
X6.4776Y-8.4291
X6.4776Y-8.5035
X6.4791Y-3.3748
X6.4791Y-6.0898
X6.4846Y-8.7303
X6.4846Y-8.8134
X6.4937Y-3.2154
X6.4953Y-9.4752
X6.498Y-9.4303
X6.5Y-7.7878
X6.5028Y-9.9024
X6.5037Y-4.9183
X6.5081Y-5.5691
X6.5083Y-9.2476
X6.5094Y-6.8772
X6.5114Y-9.1531
X6.5126Y-7.122
X6.5148Y-5.0781
X6.5163Y-3.1049
X6.5167Y-2.8726
X6.5171Y-2.8136
X6.5197Y-8.6346
X6.5205Y-3.0461
X6.5228Y-9.3531
X6.5256Y-3.3047
X6.5272Y-2.9839
X6.5287Y-2.9228
X6.5295Y-8.4547
X6.5299Y-7.6256
X6.5335Y-10.1059
X6.5343Y-10.0268
X6.535Y-4.772
X6.5362Y-9.013
X6.5362Y-9.178
X6.5366Y-9.6008
X6.537Y-9.6496
X6.5378Y-10.2362
X6.5378Y-10.3268
X6.5382Y-7.4429
X6.5382Y-10.1835
X6.5382Y-10.274
X6.539Y-7.8799
X6.5394Y-3.4417
X6.5398Y-3.2496
X6.5409Y-5.8835
X6.5409Y-9.7031
X6.5411Y-5.7557
X6.5411Y-5.9679
X6.5415Y-5.6939
X6.5461Y-9.328
X6.5465Y-9.7783
X6.5474Y-6.2089
X6.5476Y-6.2705
X6.5478Y-6.0852
X6.5478Y-6.147
X6.548Y-9.4272
X6.5492Y-8.148
X6.5504Y-8.9807
X6.5506Y-5.1537
X6.5514Y-5.2156
X6.5514Y-5.2778
X6.5539Y-6.798
X6.5559Y-3.7421
X6.5563Y-9.5579
X6.56Y-3.0163
X6.5604Y-2.8978
X6.5604Y-3.0754
X6.5608Y-2.8431
X6.5608Y-2.9573
X6.5612Y-2.7841
X6.5632Y-3.149
X6.565Y-3.3417
X6.5713Y-8.8783
X6.5713Y-8.9181
X6.5713Y-8.9583
X6.5791Y-3.9283
X6.5799Y-9.9024
X6.5807Y-10.1941
X6.5811Y-9.2531
X6.5819Y-6.8772
X6.5823Y-8.7433
X6.5835Y-8.778
X6.5843Y-8.8209
X6.5878Y-10.1063
X6.5886Y-10.0272
X6.5894Y-8.4169
X6.5898Y-8.713
X6.59Y-5.0781
X6.5909Y-9.328
X6.5929Y-10.3102
X6.5953Y-9.7035
X6.5969Y-3.5157
X6.5969Y-4.5232
X6.598Y-6.9984
X6.598Y-7.0472
X6.5984Y-3.8669
X6.6008Y-9.7787
X6.6012Y-9.513
X6.6014Y-5.7309
X6.6016Y-3.6496
X6.6018Y-5.7833
X6.6018Y-5.9955
X6.602Y-7.6571
X6.6043Y-3.3157
X6.6063Y-9.228
X6.6083Y-3.1307
X6.6087Y-4.3165
X6.6102Y-7.9138
X6.6134Y-4.9224
X6.6157Y-9.5579
X6.6161Y-3.1921
X6.6161Y-7.8811
X6.6163Y-5.9006
X6.6165Y-9.3031
X6.6213Y-9.1484
X6.6217Y-4.1535
X6.6238Y-6.1514
X6.6238Y-6.2136
X6.6238Y-6.2758
X6.6248Y-7.7791
X6.6283Y-4.0441
X6.6293Y-5.7565
X6.6317Y-4.6376
X6.6343Y-8.4531
X6.6362Y-8.7232
X6.6394Y-6.7949
X6.6413Y-6.9453
X6.6417Y-10.1047
X6.6425Y-7.0902
X6.6425Y-10.0256
X6.6437Y-8.1547
X6.6443Y-5.9738
X6.6465Y-9.2165
X6.6492Y-9.702
X6.6512Y-9.3681
X6.6516Y-3.0547
X6.652Y-6.8791
X6.6547Y-9.7772
X6.6561Y-5.7809
X6.6569Y-5.7289
X6.6591Y-7.8921
X6.6614Y-8.9181
X6.6618Y-3.185
X6.6624Y-5.0766
X6.6634Y-8.0476
X6.6661Y-9.4035
X6.6661Y-9.4429
X6.6661Y-9.548
X6.6673Y-6.4988
X6.6681Y-4.8016
X6.6681Y-7.6902
X6.6693Y-5.8681
X6.6709Y-7.7791
X6.6713Y-7.4181
X6.6713Y-8.8783
X6.6717Y-7.5969
X6.672Y-7.3508
X6.6744Y-3.2441
X6.6764Y-8.763
X6.6776Y-7.1748
X6.6783Y-5.5248
X6.6783Y-6.0815
X6.6807Y-8.9906
X6.6811Y-9.1681
X6.6811Y-9.278
X6.6811Y-9.3681
X6.6815Y-4.4441
X6.6848Y-6.2195
X6.6862Y-8.9382
X6.6862Y-9.9047
X6.6882Y-8.9075
X6.6906Y-6.9453
X6.6909Y-5.9268
X6.6913Y-9.1429
X6.6913Y-9.5232
X6.6925Y-3.6937
X6.6925Y-6.4425
X6.6949Y-7.0906
X6.6961Y-10.1051
X6.6969Y-10.026
X6.7012Y-3.5937
X6.7012Y-8.7378
X6.7035Y-3.9016
X6.7035Y-9.7024
X6.7043Y-7.8815
X6.7091Y-9.7776
X6.7112Y-4.6026
X6.713Y-7.7799
X6.7134Y-7.6898
X6.7142Y-8.0449
X6.7161Y-6.1126
X6.7187Y-5.9663
X6.7205Y-3.1843
X6.7213Y-10.3193
X6.7217Y-2.7902
X6.7258Y-6.277
X6.728Y-6.7937
X6.7311Y-9.5232
X6.7319Y-9.4142
X6.7337Y-5.0746
X6.7343Y-4.9287
X6.739Y-6.8787
X6.7409Y-4.3295
X6.7417Y-2.9311
X6.7417Y-4.698
X6.7421Y-5.8681
X6.7433Y-8.5071
X6.7445Y-4.2142
X6.7469Y-3.7799
X6.7469Y-7.8823
X6.748Y-8.274
X6.7488Y-5.578
X6.7516Y-7.4665
X6.7516Y-8.8382
X6.7516Y-10.0252
X6.7559Y-10.1831
X6.7563Y-9.5484
X6.7563Y-10.1031
X6.7567Y-3.0657
X6.7575Y-8.0768
X6.7598Y-7.6898
X6.7614Y-8.3339
X6.763Y-5.6307
X6.7638Y-9.7004
X6.7638Y-9.7768
X6.7657Y-8.9181
X6.7657Y-8.9783
X6.7657Y-9.0382
X6.7657Y-9.1583
X6.7661Y-8.948
X6.7661Y-9.0083
X6.7661Y-9.0681
X6.7661Y-9.098
X6.7661Y-9.1882
X6.7665Y-9.128
X6.7701Y-6.1154
X6.7711Y-6.2242
X6.7736Y-10.2606
X6.7752Y-5.5071
X6.7772Y-3.1165
X6.7839Y-8.8335
X6.7866Y-6.5992
X6.7876Y-6.4171
X6.7878Y-7.878
X6.788Y-6.2935
X6.788Y-6.3553
X6.788Y-6.4793
X6.788Y-6.547
X6.788Y-6.7329
X6.7886Y-6.6661
X6.7906Y-4.0559
X6.7961Y-8.9181
X6.7961Y-8.9783
X6.7961Y-9.0382
X6.7961Y-9.1583
X6.7961Y-9.548
X6.7965Y-8.948
X6.7965Y-9.0083
X6.7965Y-9.0681
X6.7965Y-9.098
X6.7965Y-9.1882
X6.7969Y-9.128
X6.7976Y-8.3764
X6.7984Y-6.878
X6.8014Y-5.0722
X6.8014Y-5.2348
X6.8014Y-5.4344
X6.8031Y-8.0776
X6.8033Y-5.3333
X6.8035Y-3.6114
X6.8055Y-3.9236
X6.8079Y-8.3193
X6.8083Y-7.2398
X6.8087Y-7.1898
X6.8087Y-10.0091
X6.8098Y-6.7941
X6.8106Y-10.1035
X6.8142Y-7.2902
X6.8154Y-2.824
X6.8161Y-8.2146
X6.8161Y-8.8331
X6.8181Y-9.7008
X6.8193Y-9.7913
X6.8197Y-7.328
X6.8197Y-7.3744
X6.8197Y-10.3213
X6.825Y-5.6313
X6.826Y-8.9181
X6.826Y-8.9783
X6.826Y-9.0382
X6.826Y-9.1583
X6.8264Y-5.5685
X6.8264Y-8.948
X6.8264Y-9.0083
X6.8264Y-9.0681
X6.8264Y-9.098
X6.8264Y-9.1882
X6.8268Y-9.128
X6.8276Y-6.1197
X6.8276Y-7.0681
X6.8283Y-6.9713
X6.8295Y-3.0374
X6.8303Y-7.8787
X6.8346Y-6.226
X6.8346Y-9.8406
X6.835Y-9.8953
X6.8354Y-4.8402
X6.8354Y-9.965
X6.8386Y-3.8543
X6.8447Y-6.4045
X6.8461Y-8.8382
X6.8465Y-9.3732
X6.8474Y-6.2963
X6.8476Y-7.976
X6.8516Y-8.7831
X6.8531Y-7.4563
X6.8531Y-8.0772
X6.8535Y-7.4169
X6.8551Y-7.1516
X6.8555Y-8.9181
X6.8555Y-8.9783
X6.8555Y-9.0382
X6.8555Y-9.1583
X6.8559Y-7.4957
X6.8559Y-8.948
X6.8559Y-9.0083
X6.8559Y-9.0681
X6.8559Y-9.098
X6.8559Y-9.1882
X6.8563Y-7.6795
X6.8563Y-9.128
X6.8563Y-9.4933
X6.8579Y-7.2839
X6.8602Y-10.1232
X6.865Y-4.4362
X6.8697Y-3.1114
X6.8709Y-10.0638
X6.8713Y-2.9161
X6.8713Y-9.2634
X6.8713Y-9.3079
X6.8713Y-9.4382
X6.8732Y-3.7
X6.8744Y-10.1835
X6.8766Y-5.0722
X6.8768Y-7.0752
X6.8768Y-9.7386
X6.8783Y-6.8783
X6.8803Y-7.8787
X6.8823Y-6.9783
X6.8858Y-8.9181
X6.8858Y-8.9783
X6.8858Y-9.0382
X6.8858Y-9.1583
X6.8862Y-8.948
X6.8862Y-9.0083
X6.8862Y-9.0681
X6.8862Y-9.098
X6.8862Y-9.1882
X6.8866Y-9.128
X6.8868Y-5.1963
X6.8872Y-5.3821
X6.8872Y-5.4439
X6.8872Y-5.5057
X6.8872Y-5.5687
X6.8872Y-5.6301
X6.8876Y-5.3203
X6.8882Y-6.6953
X6.8957Y-7.285
X6.897Y-5.912
X6.897Y-6.2219
X6.8974Y-5.9738
X6.8974Y-6.036
X6.8974Y-6.0982
X6.8974Y-6.2844
X6.8978Y-6.16
X6.898Y-7.5496
X6.898Y-7.9768
X6.8984Y-6.7929
X6.8992Y-4.5913
X6.9008Y-7.7811
X6.9012Y-8.8181
X6.9012Y-9.5732
X6.9031Y-10.278
X6.9043Y-8.5051
X6.9063Y-7.1063
X6.9073Y-2.79
X6.9085Y-5.825
X6.9093Y-5.7726
X6.9102Y-8.0776
X6.911Y-7.1516
X6.911Y-7.1516
X6.911Y-8.8429
X6.9122Y-4.6949
X6.9122Y-9.7925
X6.913Y-7.6795
X6.9134Y-3.0031
X6.9134Y-9.8587
X6.9138Y-9.9346
X6.9142Y-10.0063
X6.9157Y-8.9181
X6.9157Y-8.9783
X6.9157Y-9.0382
X6.9157Y-9.1583
X6.9161Y-8.948
X6.9161Y-9.0083
X6.9161Y-9.0681
X6.9161Y-9.098
X6.9161Y-9.1882
X6.9165Y-9.128
X6.9181Y-4.1685
X6.9187Y-6.4396
X6.9193Y-10.3244
X6.9213Y-8.7681
X6.924Y-7.5772
X6.926Y-10.161
X6.9268Y-7.8787
X6.9272Y-8.2713
X6.9311Y-6.9933
X6.9315Y-5.2583
X6.9319Y-8.3165
X6.9331Y-7.285
X6.9343Y-4.0205
X6.9364Y-5.7978
X6.937Y-6.3465
X6.9382Y-8.8185
X6.9417Y-8.1402
X6.9421Y-8.2154
X6.9433Y-10.0535
X6.9445Y-8.3614
X6.9453Y-4.9138
X6.9453Y-8.9181
X6.9453Y-8.9783
X6.9453Y-9.0382
X6.9453Y-9.1583
X6.9457Y-8.948
X6.9457Y-9.0083
X6.9457Y-9.0681
X6.9457Y-9.098
X6.9457Y-9.1882
X6.9461Y-3.1815
X6.9461Y-9.128
X6.9465Y-8.7933
X6.949Y-5.0707
X6.9559Y-8.0504
X6.9571Y-6.8791
X6.9598Y-6.6921
X6.9618Y-3.7709
X6.963Y-7.7067
X6.9634Y-7.6106
X6.964Y-5.8226
X6.9644Y-5.7707
X6.9667Y-6.5041
X6.9673Y-7.026
X6.9713Y-8.8429
X6.9732Y-7.285
X6.9744Y-8.6012
X6.9756Y-2.9295
X6.9756Y-8.9181
X6.9756Y-8.9783
X6.9756Y-9.0382
X6.9756Y-9.1583
X6.976Y-8.948
X6.976Y-9.0083
X6.976Y-9.0681
X6.976Y-9.098
X6.976Y-9.1882
X6.9764Y-8.7681
X6.9764Y-9.128
X6.9764Y-9.3732
X6.977Y-5.5561
X6.977Y-5.6266
X6.9774Y-5.3817
X6.9774Y-5.4439
X6.9774Y-5.5057
X6.9776Y-5.2094
X6.978Y-3.0402
X6.9831Y-6.7984
X6.9843Y-6.3953
X6.9846Y-7.8791
X6.987Y-2.8512
X6.987Y-4.3583
X6.9892Y-6.0356
X6.9892Y-6.0978
X6.9892Y-6.1604
X6.9892Y-6.2222
X6.9892Y-6.2841
X6.9894Y-3.8531
X6.9896Y-5.912
X6.9896Y-5.9742
X6.9909Y-8.3185
X6.9913Y-7.0669
X6.9917Y-8.3634
X6.9929Y-7.6402
X6.9933Y-8.4965
X6.9949Y-8.2724
X6.9953Y-8.2165
X6.9961Y-8.8232
X6.9969Y-10.3213
X7.0004Y-4.4988
X7.0031Y-6.9268
X7.0039Y-5.3004
X7.0047Y-7.1122
X7.0055Y-8.9181
X7.0055Y-8.9783
X7.0055Y-9.0382
X7.0055Y-9.1583
X7.0059Y-8.948
X7.0059Y-9.0083
X7.0059Y-9.0681
X7.0059Y-9.098
X7.0059Y-9.1882
X7.0063Y-9.128
X7.0063Y-9.413
X7.0067Y-7.1563
X7.0085Y-6.5045
X7.0114Y-8.0535
X7.0118Y-7.7075
X7.0122Y-7.2035
X7.013Y-3.9378
X7.0134Y-7.2528
X7.0134Y-7.3004
X7.0152Y-5.664
X7.0156Y-5.7144
X7.0161Y-9.7878
X7.0177Y-7.3516
X7.0177Y-7.4417
X7.0177Y-9.4736
X7.0177Y-9.5343
X7.0185Y-7.398
X7.0189Y-7.6681
X7.0199Y-6.1506
X7.0205Y-7.4811
X7.0217Y-6.6984
X7.0262Y-4.9699
X7.0262Y-5.0293
X7.0262Y-5.0884
X7.0264Y-8.8232
X7.0264Y-9.6035
X7.0268Y-6.4398
X7.0291Y-3.1504
X7.0297Y-5.1715
X7.0327Y-6.3303
X7.0354Y-8.9181
X7.0354Y-8.9783
X7.0354Y-9.0382
X7.0354Y-9.1583
X7.0358Y-8.948
X7.0358Y-9.0083
X7.0358Y-9.0681
X7.0358Y-9.098
X7.0358Y-9.1882
X7.0362Y-8.7114
X7.0362Y-9.128
X7.0394Y-7.8791
X7.0396Y-5.6065
X7.0406Y-8.0209
X7.0413Y-8.7933
X7.0441Y-7.7358
X7.048Y-6.8535
X7.0496Y-8.6335
X7.05Y-7.5165
X7.0512Y-7.6969
X7.0518Y-6.5348
X7.0549Y-6.2219
X7.0596Y-5.6719
X7.061Y-3.2374
X7.061Y-3.9894
X7.0665Y-8.828
X7.0673Y-7.3598
X7.0673Y-7.4559
X7.0673Y-8.3161
X7.0677Y-7.4098
X7.0677Y-8.3618
X7.0681Y-8.4114
X7.0685Y-4.8465
X7.0685Y-5.485
X7.0689Y-5.3606
X7.0689Y-5.4228
X7.0691Y-5.2632
X7.0693Y-7.9921
X7.0713Y-9.228
X7.072Y-4.3429
X7.0724Y-7.7646
X7.0752Y-4.0744
X7.0776Y-6.485
X7.0778Y-5.8841
X7.0797Y-5.9821
X7.0797Y-6.027
X7.0799Y-7.5469
X7.0803Y-7.7264
X7.0807Y-4.1437
X7.0807Y-9.6654
X7.0809Y-5.575
X7.0819Y-7.4961
X7.0823Y-8.2752
X7.0839Y-6.3819
X7.0862Y-4.739
X7.0866Y-6.9783
X7.0925Y-6.8992
X7.0929Y-6.852
X7.0943Y-2.9482
X7.0947Y-2.8935
X7.0947Y-3.0077
X7.0951Y-2.8344
X7.0961Y-9.8791
X7.0969Y-5.7756
X7.0969Y-8.4567
X7.0984Y-3.3516
X7.0996Y-7.8791
X7.1Y-2.7791
X7.1026Y-5.1711
X7.1031Y-10.0039
X7.1039Y-4.5772
X7.1039Y-8.5697
X7.1059Y-7.326
X7.1063Y-9.5079
X7.1083Y-9.4567
X7.1114Y-8.8882
X7.113Y-7.5295
X7.1134Y-8.2421
X7.1134Y-9.0331
X7.114Y-6.1541
X7.1142Y-7.5768
X7.1142Y-8.1945
X7.1161Y-9.1531
X7.1173Y-5.713
X7.1191Y-5.6541
X7.1213Y-6.7807
X7.1315Y-9.5331
X7.1362Y-6.6787
X7.1374Y-5.2831
X7.138Y-3.0372
X7.138Y-6.3033
X7.1384Y-2.9187
X7.1384Y-3.0963
X7.1388Y-2.864
X7.1388Y-2.9781
X7.1392Y-2.8049
X7.1404Y-6.4096
X7.1404Y-6.5573
X7.1413Y-8.8283
X7.1415Y-6.2234
X7.1441Y-7.1224
X7.1441Y-8.5185
X7.1445Y-7.298
X7.1445Y-8.4724
X7.1461Y-7.2508
X7.1465Y-9.7067
X7.1472Y-9.5906
X7.1478Y-6.4876
X7.148Y-3.1736
X7.1502Y-4.9514
X7.1502Y-5.01
X7.1504Y-6.1213
X7.1508Y-6.8992
X7.1516Y-6.978
X7.1528Y-6.752
X7.1528Y-7.2024
X7.1533Y-5.0667
X7.1535Y-7.0469
X7.1539Y-7.6079
X7.1539Y-8.1638
X7.1553Y-5.1207
X7.1561Y-5.1785
X7.1614Y-9.413
X7.1622Y-4.0547
X7.1654Y-3.4055
X7.1665Y-8.8933
X7.1685Y-6.1634
X7.1705Y-5.4831
X7.1709Y-5.4244
X7.1713Y-5.3626
X7.172Y-3.2516
X7.176Y-5.7012
X7.1827Y-6.6295
X7.1831Y-6.5961
X7.1839Y-5.6224
X7.1868Y-5.9037
X7.1868Y-5.9624
X7.1868Y-6.0809
X7.1868Y-6.2577
X7.187Y-5.5449
X7.1872Y-5.8443
X7.1872Y-6.0219
X7.1872Y-6.3171
X7.1876Y-6.3754
X7.1884Y-3.0632
X7.1888Y-2.9447
X7.1888Y-3.1222
X7.1892Y-2.89
X7.1892Y-3.0041
X7.1896Y-2.7813
X7.1896Y-2.8309
X7.1898Y-3.1965
X7.1909Y-9.7913
X7.1909Y-9.9972
X7.1913Y-10.0677
X7.1921Y-7.6335
X7.1925Y-8.1378
X7.1957Y-10.2969
X7.1961Y-10.1614
X7.1965Y-10.2331
X7.1992Y-4.4933
X7.1998Y-5.2226
X7.1998Y-6.4431
X7.2008Y-7.4303
X7.2008Y-8.3433
X7.2012Y-7.3776
X7.2016Y-4.552
X7.2024Y-8.5228
X7.2033Y-4.9801
X7.2059Y-8.6886
X7.2069Y-4.012
X7.2159Y-6.6293
X7.2161Y-9.613
X7.2163Y-6.5959
X7.2199Y-5.7549
X7.2199Y-5.8734
X7.2199Y-6.0506
X7.2199Y-6.1096
X7.2199Y-6.1687
X7.2199Y-6.2274
X7.2201Y-5.6421
X7.2201Y-5.6886
X7.2201Y-9.7657
X7.2203Y-5.814
X7.2203Y-5.9915
X7.2203Y-6.2868
X7.2205Y-9.7079
X7.2207Y-5.4093
X7.2207Y-5.4683
X7.2207Y-5.5274
X7.2207Y-5.586
X7.2228Y-5.9154
X7.2244Y-9.8346
X7.2248Y-3.2669
X7.2252Y-5.3539
X7.2256Y-9.9008
X7.226Y-9.9768
X7.2264Y-10.0484
X7.2272Y-6.3469
X7.2287Y-10.1161
X7.2287Y-10.3276
X7.2291Y-10.1921
X7.2295Y-10.2638
X7.2297Y-4.7907
X7.2301Y-4.664
X7.2301Y-4.7289
X7.2301Y-4.853
X7.2303Y-4.9213
X7.2311Y-9.5331
X7.2315Y-9.4331
X7.2327Y-8.9906
X7.2368Y-3.3305
X7.2372Y-3.39
X7.2382Y-5.0807
X7.2402Y-4.0929
X7.2417Y-5.1335
X7.2419Y-4.049
X7.2423Y-6.4868
X7.2425Y-6.7598
X7.2433Y-4.2205
X7.2437Y-7.6638
X7.2437Y-8.1079
X7.2447Y-4.3278
X7.2449Y-3.5118
X7.2449Y-4.1516
X7.2453Y-4.4618
X7.2457Y-6.8189
X7.2469Y-4.3945
X7.2472Y-4.5858
X7.2478Y-4.2663
X7.2484Y-8.8028
X7.25Y-6.8969
X7.2506Y-3.9841
X7.2506Y-5.2687
X7.2512Y-9.1929
X7.2516Y-6.4004
X7.2516Y-9.163
X7.2524Y-7.1201
X7.2524Y-7.2012
X7.2547Y-7.2469
X7.2559Y-6.6799
X7.2587Y-7.2949
X7.2589Y-5.1829
X7.2598Y-7.8437
X7.2642Y-5.8398
X7.2705Y-7.0669
X7.2707Y-6.5663
X7.2722Y-4.8246
X7.2726Y-5.7825
X7.2732Y-6.2969
X7.2736Y-4.0228
X7.2736Y-5.0319
X7.2736Y-6.9827
X7.2752Y-4.8862
X7.2756Y-4.113
X7.2758Y-4.9581
X7.2774Y-4.6915
X7.2774Y-4.7652
X7.278Y-8.8433
X7.2785Y-4.6309
X7.2791Y-4.2469
X7.2791Y-4.3043
X7.2795Y-7.8161
X7.2795Y-7.8713
X7.2795Y-7.9264
X7.2797Y-5.5612
X7.2799Y-4.185
X7.2807Y-4.4248
X7.2809Y-3.301
X7.2811Y-9.3878
X7.2815Y-4.363
X7.2817Y-3.1872
X7.2862Y-9.0681
X7.2862Y-9.228
X7.287Y-6.8618
X7.2882Y-6.7933
X7.2939Y-5.3659
X7.2941Y-5.0894
X7.2949Y-7.3252
X7.2961Y-2.811
X7.2976Y-3.0661
X7.2982Y-6.6132
X7.2992Y-7.8437
X7.2992Y-7.8988
X7.3004Y-5.4661
X7.302Y-8.515
X7.3028Y-8.4543
X7.3051Y-5.265
X7.3063Y-9.6083
X7.3081Y-5.6656
X7.3081Y-5.8392
X7.3098Y-6.3961
X7.3106Y-6.6937
X7.315Y-6.4862
X7.3154Y-2.9335
X7.3165Y-7.024
X7.3177Y-3.8961
X7.3193Y-7.8713
X7.3193Y-7.9264
X7.3203Y-5.0006
X7.3228Y-3.4484
X7.3236Y-8.6327
X7.3256Y-10.3248
X7.326Y-9.9008
X7.326Y-9.9744
X7.326Y-10.113
X7.326Y-10.1866
X7.3264Y-9.835
X7.3264Y-10.0488
X7.3264Y-10.261
X7.327Y-6.0612
X7.328Y-9.7673
X7.3283Y-9.7028
X7.3301Y-6.003
X7.3346Y-8.726
X7.338Y-5.1825
X7.3382Y-8.2173
X7.3382Y-8.2673
X7.3382Y-8.3673
X7.3382Y-8.4169
X7.3384Y-5.9451
X7.3386Y-5.126
X7.3386Y-7.3567
X7.3386Y-7.4067
X7.3386Y-7.4567
X7.3386Y-7.5067
X7.3386Y-7.5567
X7.3386Y-7.6067
X7.3386Y-7.8437
X7.3386Y-7.8988
X7.3386Y-8.1669
X7.3386Y-8.3173
X7.3486Y-5.5415
X7.3492Y-3.0354
X7.3504Y-9.3244
X7.3518Y-5.7813
X7.352Y-9.3835
X7.352Y-10.1598
X7.3535Y-6.9492
X7.3543Y-5.3941
X7.3543Y-10.2276
X7.3547Y-10.3035
X7.3555Y-4.339
X7.3563Y-4.6114
X7.3583Y-3.8409
X7.3583Y-4.4331
X7.3583Y-7.8713
X7.3587Y-7.9264
X7.3593Y-4.7018
X7.3602Y-6.3492
X7.3606Y-5.8988
X7.3606Y-10.0154
X7.3612Y-5.7144
X7.3614Y-6.7386
X7.3614Y-9.1657
X7.3624Y-3.9167
X7.3634Y-3.552
X7.3638Y-4.248
X7.3638Y-4.3055
X7.3646Y-4.1862
X7.3646Y-8.9039
X7.365Y-8.9579
X7.3652Y-4.9589
X7.3656Y-5.6699
X7.3657Y-4.9008
X7.3665Y-6.8929
X7.3673Y-4.0319
X7.3673Y-4.1276
X7.3681Y-10.0638
X7.3685Y-3.976
X7.3685Y-5.2921
X7.3685Y-6.8169
X7.3689Y-9.6106
X7.3713Y-3.265
X7.3717Y-4.852
X7.372Y-3.3307
X7.374Y-4.485
X7.374Y-7.8437
X7.3744Y-4.5528
X7.3748Y-7.072
X7.3772Y-7.3138
X7.3776Y-7.1913
X7.3776Y-7.2732
X7.378Y-7.2307
X7.3783Y-7.8988
X7.3787Y-3.1921
X7.3787Y-7.1283
X7.3825Y-6.4502
X7.3841Y-5.5813
X7.3874Y-8.4591
X7.3874Y-8.5563
X7.3878Y-5.8472
X7.3882Y-8.5075
X7.3913Y-4.0858
X7.3913Y-5.0417
X7.3925Y-4.952
X7.3933Y-4.8799
X7.3945Y-4.3583
X7.3949Y-3.4543
X7.3953Y-9.7976
X7.3984Y-9.7047
X7.3992Y-6.9984
X7.3996Y-8.6906
X7.4008Y-3.1043
X7.402Y-7.9264
X7.402Y-7.9618
X7.4028Y-8.7874
X7.4033Y-6.3053
X7.4065Y-3.9463
X7.4085Y-3.886
X7.4106Y-4.6669
X7.4116Y-5.7801
X7.413Y-8.9583
X7.4154Y-9.0189
X7.4173Y-3.7969
X7.4175Y-5.5809
X7.4175Y-6.014
X7.4175Y-6.1911
X7.4179Y-6.0726
X7.4179Y-6.1317
X7.4179Y-6.2502
X7.4187Y-5.2124
X7.4189Y-5.3461
X7.4236Y-4.1551
X7.4248Y-9.8913
X7.4252Y-3.6209
X7.4252Y-8.8563
X7.4276Y-4.3937
X7.4276Y-8.5669
X7.428Y-5.8413
X7.4291Y-4.8319
X7.4295Y-5.8913
X7.4297Y-6.4018
X7.4299Y-4.7437
X7.4303Y-5.1142
X7.4307Y-5.952
X7.4315Y-5.5217
X7.4319Y-6.535
X7.4323Y-5.4071
X7.4331Y-5.461
X7.4331Y-7.6618
X7.4339Y-8.1102
X7.4348Y-5.7175
X7.436Y-5.6415
X7.4378Y-9.6079
X7.439Y-9.3335
X7.4409Y-7.7114
X7.4409Y-10.0138
X7.4461Y-4.628
X7.4472Y-8.7283
X7.4492Y-6.9992
X7.4516Y-4.4661
X7.4579Y-4.5791
X7.4583Y-4.5165
X7.4587Y-4.2646
X7.4632Y-5.2624
X7.4642Y-3.3114
X7.4667Y-5.7683
X7.4669Y-5.0417
X7.4675Y-5.7974
X7.4679Y-3.2652
X7.4681Y-3.8705
X7.4689Y-6.9043
X7.4697Y-3.2012
X7.4717Y-9.7008
X7.4724Y-7.7079
X7.473Y-3.1419
X7.4732Y-7.0728
X7.4734Y-3.0829
X7.4736Y-7.0319
X7.474Y-7.1264
X7.4744Y-3.3587
X7.4744Y-3.5201
X7.4748Y-7.1965
X7.475Y-6.3569
X7.4752Y-7.2378
X7.4758Y-2.9589
X7.4762Y-2.9041
X7.4764Y-7.4339
X7.4764Y-8.3437
X7.4764Y-8.5717
X7.4764Y-8.6256
X7.4766Y-2.8451
X7.4766Y-3.0215
X7.4768Y-8.5287
X7.4778Y-2.786
X7.4778Y-3.6313
X7.4795Y-8.6811
X7.4795Y-8.9429
X7.4795Y-9.0079
X7.4799Y-8.8083
X7.4803Y-8.8807
X7.4807Y-9.5516
X7.4811Y-9.0724
X7.4811Y-9.4122
X7.4815Y-4.0118
X7.4823Y-9.4835
X7.4843Y-9.2008
X7.4843Y-9.2657
X7.485Y-7.6362
X7.485Y-8.1402
X7.485Y-9.1386
X7.4874Y-9.3409
X7.4909Y-3.7256
X7.4943Y-4.9581
X7.4945Y-4.6717
X7.4957Y-4.7437
X7.4957Y-4.7441
X7.4959Y-5.7675
X7.4967Y-5.797
X7.4976Y-4.8236
X7.5016Y-4.5559
X7.5043Y-4.1272
X7.5114Y-3.398
X7.5116Y-3.2931
X7.5126Y-10.2252
X7.5165Y-5.3441
X7.5167Y-3.1671
X7.5167Y-5.1144
X7.5167Y-5.1659
X7.5169Y-5.4638
X7.5169Y-5.5185
X7.5171Y-3.1124
X7.5171Y-3.2266
X7.5175Y-3.0533
X7.5177Y-5.4039
X7.5199Y-2.9293
X7.5201Y-9.6559
X7.5203Y-2.8746
X7.5203Y-2.9888
X7.5207Y-2.8156
X7.5222Y-5.2262
X7.5232Y-7.6102
X7.5232Y-8.1661
X7.524Y-10.1055
X7.5248Y-4.9366
X7.5248Y-7.1965
X7.5254Y-5.5809
X7.5258Y-5.2856
X7.5258Y-5.64
X7.5258Y-5.8955
X7.5258Y-5.9545
X7.5258Y-6.014
X7.5258Y-6.073
X7.5258Y-6.1317
X7.5258Y-6.1911
X7.5262Y-5.699
X7.5262Y-6.2502
X7.5262Y-6.3089
X7.5268Y-6.9508
X7.5346Y-6.6106
X7.5354Y-10.3138
X7.5417Y-5.0402
X7.5433Y-3.9465
X7.5441Y-3.3634
X7.547Y-4.6006
X7.5537Y-4.1148
X7.5545Y-4.0337
X7.5555Y-3.4335
X7.5577Y-5.8246
X7.5583Y-4.6894
X7.5589Y-5.7766
X7.5616Y-3.7852
X7.563Y-7.5791
X7.563Y-8.1972
X7.5632Y-5.7258
X7.5634Y-7.8634
X7.5638Y-7.5319
X7.5638Y-8.2445
X7.5642Y-7.3248
X7.5642Y-8.4547
X7.565Y-6.2846
X7.5656Y-6.1045
X7.5657Y-6.0189
X7.5673Y-6.2209
X7.5681Y-9.5929
X7.5685Y-7.1976
X7.5685Y-7.2394
X7.5685Y-7.2815
X7.5695Y-4.9581
X7.572Y-9.2024
X7.572Y-9.2673
X7.5728Y-9.1402
X7.573Y-5.2789
X7.5736Y-8.9417
X7.5736Y-9.0067
X7.5744Y-3.5882
X7.5744Y-8.8795
X7.5744Y-9.0756
X7.5752Y-8.5555
X7.5752Y-9.3425
X7.5756Y-8.5067
X7.5756Y-8.6193
X7.576Y-8.8083
X7.576Y-9.7331
X7.5764Y-9.485
X7.5766Y-4.5144
X7.5768Y-9.4142
X7.578Y-4.7886
X7.5787Y-8.6783
X7.5807Y-9.6776
X7.5839Y-4.2197
X7.5862Y-7.1303
X7.587Y-7.0413
X7.5886Y-7.75
X7.5902Y-7.9776
X7.5911Y-5.6069
X7.5949Y-7.4988
X7.5951Y-5.4089
X7.5953Y-8.2776
X7.5961Y-6.9567
X7.5974Y-3.053
X7.5978Y-2.9344
X7.5978Y-3.112
X7.5982Y-2.8797
X7.5982Y-2.9939
X7.5986Y-2.8207
X7.5996Y-3.4878
X7.5998Y-3.2994
X7.6Y-3.2449
X7.6006Y-3.1856
X7.6016Y-5.1453
X7.6022Y-3.4191
X7.6031Y-8.7323
X7.6039Y-4.9354
X7.6071Y-7.626
X7.6077Y-5.0384
X7.6087Y-4.1799
X7.6094Y-7.3626
X7.6094Y-7.4122
X7.6094Y-8.3642
X7.6098Y-7.4579
X7.6098Y-8.3181
X7.6098Y-8.4138
X7.6167Y-5.3222
X7.6169Y-7.7213
X7.6185Y-3.6717
X7.6189Y-8.0063
X7.6201Y-10.0449
X7.6203Y-9.7896
X7.6222Y-5.5108
X7.6232Y-7.8634
X7.6262Y-5.7506
X7.6319Y-7.0862
X7.6327Y-10.1689
X7.6339Y-7.2291
X7.6343Y-4.4665
X7.6344Y-5.8463
X7.6358Y-6.6087
X7.6382Y-3.4594
X7.6394Y-3.861
X7.6398Y-4.6449
X7.6402Y-6.9492
X7.6415Y-3.0234
X7.6417Y-5.9713
X7.6419Y-2.9049
X7.6419Y-3.0825
X7.6419Y-4.9565
X7.6421Y-4.7272
X7.6423Y-2.8502
X7.6423Y-2.9644
X7.6423Y-5.1974
X7.6427Y-2.7911
X7.6433Y-9.1441
X7.6439Y-3.2699
X7.6443Y-3.2152
X7.6447Y-3.1561
X7.6449Y-9.0795
X7.6461Y-3.5339
X7.6463Y-4.5805
X7.6465Y-6.3193
X7.6467Y-5.677
X7.6492Y-7.6929
X7.6502Y-5.0707
X7.6506Y-4.0754
X7.6508Y-8.035
X7.6514Y-3.9943
X7.6539Y-10.3142
X7.6543Y-6.072
X7.6555Y-3.9157
X7.6559Y-9.3354
X7.6559Y-9.5331
X7.6571Y-8.8094
X7.6571Y-8.8744
X7.6577Y-6.1904
X7.6604Y-5.3691
X7.6634Y-3.3457
X7.6654Y-9.7303
X7.6683Y-4.4183
X7.6687Y-4.3195
X7.6695Y-4.2384
X7.6697Y-7.3642
X7.672Y-9.4102
X7.6783Y-6.9764
X7.6795Y-7.1157
X7.6799Y-7.2252
X7.6811Y-8.5783
X7.6815Y-7.8634
X7.6819Y-7.5776
X7.6846Y-4.0484
X7.6846Y-8.7264
X7.6856Y-5.7652
X7.686Y-5.2443
X7.687Y-4.9752
X7.6878Y-3.5035
X7.6882Y-4.5264
X7.6917Y-3.3138
X7.6941Y-3.585
X7.6947Y-5.0297
X7.6949Y-8.4591
X7.698Y-7.6921
X7.6996Y-8.0358
X7.7024Y-4.9303
X7.7033Y-5.8467
X7.7033Y-5.9447
X7.7047Y-4.7756
X7.7063Y-7.5197
X7.7065Y-6.236
X7.7065Y-6.5333
X7.7067Y-3.7642
X7.7081Y-6.4518
X7.7085Y-6.3333
X7.7089Y-6.3927
X7.7102Y-7.3638
X7.7118Y-9.8559
X7.7128Y-5.1884
X7.7132Y-5.1293
X7.7136Y-5.5443
X7.714Y-5.4258
X7.714Y-5.6033
X7.7144Y-5.4852
X7.7144Y-5.6624
X7.7161Y-3.3953
X7.7165Y-4.6445
X7.7177Y-3.1965
X7.7189Y-4.7268
X7.722Y-3.0689
X7.7222Y-6.0305
X7.7222Y-6.0896
X7.7222Y-6.1482
X7.7262Y-3.9104
X7.7289Y-4.1616
X7.7295Y-3.3583
X7.7323Y-7.8634
X7.7366Y-7.5756
X7.7366Y-9.674
X7.7374Y-3.5531
X7.7378Y-6.8543
X7.7396Y-5.301
X7.7402Y-3.6358
X7.7402Y-4.4866
X7.7417Y-6.7098
X7.7476Y-7.0567
X7.7476Y-7.665
X7.7484Y-6.9969
X7.7492Y-8.063
X7.753Y-5.7407
X7.7535Y-5.8713
X7.7535Y-8.6551
X7.7541Y-4.41
X7.7545Y-4.3112
X7.7545Y-5.8041
X7.7547Y-7.365
X7.7547Y-10.2248
X7.7553Y-4.2301
X7.7577Y-5.538
X7.7596Y-6.5687
X7.7598Y-7.961
X7.7606Y-7.7657
X7.7612Y-6.4872
X7.7614Y-7.2295
X7.7616Y-6.3687
X7.762Y-6.4281
X7.7638Y-5.9307
X7.764Y-6.1167
X7.7644Y-5.9982
X7.7648Y-6.0577
X7.7656Y-6.2982
X7.7659Y-6.1797
X7.7663Y-6.2392
X7.772Y-10.3134
X7.7724Y-3.4492
X7.7728Y-8.8067
X7.7734Y-5.6821
X7.778Y-7.4831
X7.7781Y-5.4781
X7.7827Y-6.8374
X7.7827Y-7.8634
X7.7868Y-5.3455
X7.7874Y-3.6272
X7.7886Y-3.4098
X7.7894Y-4.924
X7.7906Y-3.6787
X7.7921Y-6.6319
X7.7929Y-4.6453
X7.7945Y-4.8331
X7.7953Y-4.7276
X7.797Y-5.0707
X7.8004Y-6.9764
X7.8014Y-5.2683
X7.8047Y-7.6646
X7.8063Y-5.1732
X7.8067Y-8.063
X7.8091Y-7.7654
X7.8093Y-4.1234
X7.8098Y-7.9606
X7.81Y-3.9502
X7.8122Y-4.9579
X7.8124Y-4.2561
X7.8181Y-7.5465
X7.8189Y-3.8291
X7.8197Y-7.4063
X7.8207Y-5.6301
X7.8232Y-6.752
X7.8244Y-9.7315
X7.8248Y-5.0417
X7.8287Y-4.5693
X7.8295Y-3.5063
X7.8299Y-3.3307
X7.8327Y-7.8634
X7.8362Y-2.8008
X7.8364Y-5.3951
X7.8366Y-3.4626
X7.8374Y-7.1413
X7.8392Y-10.0695
X7.8409Y-3.0933
X7.8472Y-6.6823
X7.8492Y-3.6898
X7.8504Y-3.7433
X7.8524Y-6.8913
X7.8539Y-6.5535
X7.8543Y-5.7965
X7.8543Y-7.665
X7.8543Y-8.8606
X7.8557Y-6.4726
X7.8561Y-5.851
X7.8567Y-7.3165
X7.8567Y-8.063
X7.8573Y-6.3911
X7.8577Y-6.0285
X7.8577Y-6.2726
X7.8581Y-5.91
X7.8581Y-6.3321
X7.8594Y-5.9752
X7.8606Y-4.4614
X7.8616Y-6.2022
X7.862Y-6.0837
X7.8624Y-6.1431
X7.8626Y-4.6445
X7.8642Y-4.8323
X7.865Y-4.7268
X7.8705Y-4.3492
X7.8734Y-5.4502
X7.8738Y-5.5089
X7.8742Y-5.5683
X7.8756Y-8.3748
X7.8776Y-7.8634
X7.8783Y-6.8366
X7.8799Y-7.5244
X7.8866Y-4.9583
X7.8913Y-7.9028
X7.8917Y-5.3157
X7.8929Y-6.6043
X7.8929Y-8.0193
X7.8933Y-6.7358
X7.897Y-5.6805
X7.8984Y-7.7063
X7.8984Y-7.8264
X7.8992Y-3.5303
X7.8992Y-5.0421
X7.9035Y-3.5795
X7.9083Y-3.7469
X7.911Y-3.8071
X7.913Y-8.7197
X7.9134Y-3.2075
X7.9134Y-7.2906
X7.9157Y-7.0323
X7.9201Y-6.2626
X7.9201Y-7.4917
X7.9238Y-5.2431
X7.9252Y-10.3165
X7.9315Y-7.6169
X7.9323Y-6.5
X7.9327Y-6.8799
X7.9327Y-7.4394
X7.9354Y-4.0811
X7.9354Y-6.6547
X7.9358Y-4.7819
X7.937Y-4.6449
X7.9386Y-4.8327
X7.9398Y-2.902
X7.9398Y-7.5543
X7.94Y-5.4522
X7.9402Y-6.0319
X7.9406Y-9.1512
X7.9406Y-10.152
X7.9413Y-7.9028
X7.9429Y-8.0193
X7.9441Y-6.3827
X7.9449Y-9.9925
X7.9465Y-5.9402
X7.9469Y-4.4024
X7.9474Y-6.1152
X7.9484Y-6.7862
X7.9484Y-7.7063
X7.9488Y-7.8217
X7.9547Y-9.2165
X7.9555Y-5.5067
X7.9573Y-5.7911
X7.9589Y-5.6778
X7.9618Y-3.4496
X7.964Y-5.3923
X7.9644Y-5.3281
X7.9646Y-7.3862
X7.9661Y-3.102
X7.9669Y-8.6252
X7.9675Y-10.0687
X7.9677Y-3.8008
X7.9679Y-5.0967
X7.9681Y-3.6469
X7.9705Y-3.863
X7.9713Y-7.2268
X7.9717Y-9.4256
X7.9764Y-4.7039
X7.9807Y-3.5929
X7.9823Y-10.2224
X7.9858Y-3.9843
X7.9858Y-7.076
X7.9874Y-6.5535
X7.989Y-7.9126
X7.9898Y-8.0122
X7.9906Y-6.7051
X7.9925Y-7.8154
X7.9949Y-6.8339
X7.998Y-7.7134
X7.998Y-8.7209
X7.9992Y-8.9807
X8.003Y-4.5037
X8.0035Y-4.1756
X8.0043Y-4.6264
X8.0061Y-4.2659
X8.0083Y-4.8327
X8.0091Y-4.7449
X8.0106Y-6.8917
X8.0106Y-7.4886
X8.0106Y-7.5378
X8.0114Y-6.2535
X8.0118Y-7.0528
X8.0118Y-8.8079
X8.0122Y-7.4433
X8.013Y-6.9465
X8.013Y-6.9925
X8.013Y-7.3008
X8.013Y-7.3406
X8.0146Y-9.7567
X8.0169Y-7.1299
X8.0169Y-7.1606
X8.0169Y-7.1909
X8.0181Y-7.5902
X8.0185Y-7.6409
X8.0209Y-3.6909
X8.0274Y-8.8982
X8.028Y-3.3197
X8.0307Y-3.648
X8.0307Y-3.8626
X8.0329Y-9.0396
X8.037Y-8.2815
X8.0378Y-6.1063
X8.0388Y-6.3884
X8.0407Y-6.1884
X8.0409Y-7.8161
X8.0413Y-7.9122
X8.0433Y-3.9185
X8.0433Y-10.3169
X8.0437Y-8.0122
X8.0445Y-6.7614
X8.0451Y-5.9994
X8.0488Y-7.6681
X8.0488Y-7.7142
X8.0494Y-4.3502
X8.0551Y-10.2232
X8.0563Y-6.4835
X8.0606Y-2.9831
X8.0616Y-5.1679
X8.0626Y-8.4669
X8.0685Y-6.6913
X8.0705Y-5.8705
X8.0736Y-3.7406
X8.0783Y-2.8469
X8.0787Y-3.6906
X8.085Y-4.8323
X8.085Y-7.3543
X8.0854Y-7.4854
X8.0854Y-7.5929
X8.0858Y-4.7441
X8.0858Y-4.7445
X8.0862Y-7.1299
X8.0862Y-7.1606
X8.0862Y-7.1909
X8.0862Y-7.3976
X8.0862Y-7.4417
X8.0862Y-7.537
X8.087Y-3.9713
X8.0874Y-6.9465
X8.0878Y-6.9917
X8.0882Y-10.0449
X8.0888Y-6.8128
X8.0892Y-6.8719
X8.0921Y-3.9154
X8.0945Y-7.8134
X8.0969Y-7.7114
X8.098Y-7.0496
X8.0986Y-6.3494
X8.0996Y-8.0122
X8.1002Y-6.2679
X8.1004Y-3.4957
X8.1006Y-6.1494
X8.101Y-6.2089
X8.1045Y-6.0789
X8.1049Y-5.786
X8.1049Y-5.9604
X8.1051Y-4.0512
X8.1053Y-5.9057
X8.1053Y-6.0199
X8.1057Y-5.8467
X8.1061Y-5.6022
X8.1065Y-5.4837
X8.1065Y-5.6612
X8.1069Y-4.9545
X8.1069Y-5.4289
X8.1069Y-5.5431
X8.1069Y-5.7203
X8.1073Y-4.8955
X8.1073Y-5.2467
X8.1073Y-5.3699
X8.1077Y-5.1281
X8.1077Y-5.3057
X8.1081Y-5.0734
X8.1081Y-5.1876
X8.1085Y-5.0144
X8.1091Y-7.9169
X8.113Y-8.0752
X8.1136Y-6.7167
X8.1142Y-7.2642
X8.1152Y-6.5919
X8.1156Y-6.651
X8.1161Y-8.3748
X8.1175Y-6.7848
X8.1179Y-6.8439
X8.1191Y-4.4089
X8.1193Y-4.6484
X8.1195Y-4.3498
X8.1199Y-4.6498
X8.1209Y-4.4724
X8.1213Y-6.902
X8.1219Y-4.2258
X8.1222Y-4.1711
X8.1226Y-4.112
X8.1226Y-4.2884
X8.123Y-6.9691
X8.1232Y-4.7024
X8.1236Y-3.7508
X8.1248Y-4.5264
X8.1256Y-7.6213
X8.1276Y-4.5909
X8.1299Y-9.4012
X8.1305Y-9.7872
X8.1309Y-9.1447
X8.1356Y-3.9797
X8.1358Y-9.2173
X8.137Y-9.2996
X8.1378Y-3.802
X8.139Y-7.787
X8.1443Y-6.2384
X8.1447Y-6.2974
X8.1451Y-6.1793
X8.1486Y-6.0494
X8.149Y-5.7565
X8.149Y-5.9309
X8.149Y-6.1085
X8.1494Y-5.8762
X8.1494Y-5.9904
X8.1498Y-5.8171
X8.1502Y-5.5726
X8.1506Y-5.4541
X8.1506Y-5.6317
X8.151Y-4.925
X8.151Y-5.3994
X8.151Y-5.5136
X8.151Y-5.6907
X8.1514Y-4.8659
X8.1514Y-5.2171
X8.1514Y-5.3404
X8.1518Y-5.0986
X8.1518Y-5.2762
X8.1522Y-5.0439
X8.1522Y-5.1581
X8.1526Y-4.9848
X8.1575Y-7.0587
X8.1577Y-4.56
X8.1577Y-6.6872
X8.1593Y-6.5041
X8.1593Y-6.7455
X8.1596Y-6.6215
X8.16Y-6.8801
X8.1602Y-10.3169
X8.161Y-4.024
X8.1612Y-6.4384
X8.1618Y-4.6815
X8.162Y-6.8144
X8.1628Y-4.4341
X8.163Y-4.6268
X8.1632Y-4.3793
X8.1632Y-4.4935
X8.1632Y-6.9467
X8.1634Y-4.8295
X8.1636Y-4.3203
X8.1642Y-4.7413
X8.1659Y-4.1963
X8.1663Y-4.1415
X8.1663Y-4.2557
X8.1667Y-4.0825
X8.1673Y-7.1969
X8.1681Y-7.3957
X8.1685Y-7.3433
X8.1689Y-7.8094
X8.1693Y-7.8705
X8.1693Y-7.9961
X8.1697Y-7.2531
X8.1701Y-7.6728
X8.1701Y-7.7374
X8.1795Y-3.3417
X8.1831Y-10.0858
X8.185Y-8.3461
X8.1854Y-3.8161
X8.1866Y-8.4457
X8.187Y-8.5559
X8.1935Y-3.8604
X8.1937Y-8.8555
X8.1965Y-9.0094
X8.2016Y-3.6343
X8.2039Y-6.4098
X8.2041Y-6.4734
X8.2041Y-6.5341
X8.211Y-8.8154
X8.2177Y-7.9429
X8.2209Y-7.4992
X8.2209Y-7.5787
X8.226Y-2.8929
X8.2315Y-8.8547
X8.2354Y-9.0469
X8.2429Y-7.0976
X8.2433Y-7.3358
X8.2437Y-7.3969
X8.2445Y-7.2638
X8.2463Y-4.1451
X8.2467Y-4.0266
X8.2467Y-4.2041
X8.247Y-3.9719
X8.247Y-4.086
X8.2474Y-3.9128
X8.2474Y-4.9179
X8.2478Y-4.7994
X8.2478Y-4.977
X8.248Y-7.7504
X8.2482Y-4.51
X8.2482Y-4.7447
X8.2482Y-4.8589
X8.2482Y-5.4667
X8.2482Y-5.9514
X8.2482Y-6.438
X8.2484Y-7.8114
X8.2486Y-4.3915
X8.2486Y-4.5691
X8.2486Y-4.6856
X8.249Y-4.3368
X8.249Y-4.451
X8.249Y-4.6281
X8.249Y-6.5033
X8.2492Y-7.1441
X8.2492Y-7.6783
X8.2492Y-7.8783
X8.2494Y-4.2778
X8.2494Y-5.2829
X8.2494Y-5.7675
X8.2498Y-5.1644
X8.2498Y-5.3419
X8.2498Y-5.649
X8.2498Y-5.8266
X8.2502Y-5.1096
X8.2502Y-5.2238
X8.2502Y-5.401
X8.2502Y-5.5943
X8.2502Y-5.7085
X8.2502Y-5.8856
X8.2506Y-5.0506
X8.2506Y-5.5352
X8.2512Y-7.2283
X8.2514Y-6.2049
X8.2524Y-7.0008
X8.2524Y-7.0484
X8.2526Y-6.0211
X8.253Y-6.0801
X8.2533Y-6.1392
X8.2537Y-6.3368
X8.2543Y-3.8705
X8.2557Y-6.2711
X8.2557Y-6.7187
X8.2567Y-10.1378
X8.2573Y-6.5939
X8.2577Y-6.653
X8.2581Y-6.9116
X8.2596Y-6.7868
X8.26Y-6.8459
X8.2634Y-3.5
X8.2634Y-10.2457
X8.2665Y-8.7118
X8.2711Y-8.153
X8.2711Y-8.4128
X8.2715Y-8.0289
X8.2734Y-8.6057
X8.2738Y-8.2219
X8.2754Y-8.54
X8.2787Y-10.3173
X8.2858Y-9.7996
X8.2894Y-7.4992
X8.2894Y-7.5787
X8.2904Y-4.1156
X8.2907Y-3.997
X8.2907Y-4.1746
X8.2911Y-3.9423
X8.2915Y-4.8884
X8.2919Y-4.7699
X8.2919Y-4.9474
X8.2923Y-4.4805
X8.2923Y-4.7152
X8.2923Y-4.8293
X8.2923Y-5.4372
X8.2923Y-5.9219
X8.2927Y-4.362
X8.2927Y-4.5396
X8.2927Y-4.6561
X8.2931Y-4.3073
X8.2931Y-4.4215
X8.2931Y-4.5986
X8.2935Y-4.2482
X8.2935Y-5.2533
X8.2935Y-5.738
X8.2939Y-5.1348
X8.2939Y-5.3124
X8.2939Y-5.6195
X8.2939Y-5.797
X8.2943Y-5.0801
X8.2943Y-5.1943
X8.2943Y-5.3715
X8.2943Y-5.5648
X8.2943Y-5.6789
X8.2943Y-5.8561
X8.2947Y-5.0211
X8.2947Y-5.5057
X8.2955Y-6.1754
X8.2967Y-5.9915
X8.297Y-6.0506
X8.2974Y-6.1096
X8.2978Y-6.3073
X8.2984Y-4.0563
X8.2984Y-7.8567
X8.2996Y-9.215
X8.2998Y-6.2415
X8.2998Y-6.6892
X8.3002Y-8.9317
X8.301Y-8.9695
X8.3014Y-6.7474
X8.3018Y-6.6234
X8.3022Y-6.8821
X8.3041Y-6.8163
X8.3071Y-7.7047
X8.3079Y-9.5315
X8.3161Y-3.3024
X8.3177Y-8.7634
X8.3236Y-3.7839
X8.3256Y-9.7579
X8.328Y-8.265
X8.3291Y-2.8445
X8.335Y-6.9606
X8.3358Y-8.5063
X8.3378Y-5.4854
X8.3382Y-3.687
X8.3382Y-5.8654
X8.3386Y-7.9504
X8.3386Y-9.9665
X8.3409Y-7.8055
X8.3465Y-7.0768
X8.3465Y-8.1689
X8.3484Y-6.5323
X8.3488Y-3.0118
X8.3488Y-8.365
X8.3496Y-5.7217
X8.3518Y-5.2439
X8.3528Y-6.2283
X8.3528Y-10.0736
X8.3539Y-7.1972
X8.3543Y-5.6047
X8.3555Y-5.9709
X8.3559Y-5.3378
X8.3559Y-6.0953
X8.3579Y-4.4177
X8.3598Y-6.3736
X8.3612Y-4.9195
X8.3622Y-6.7039
X8.3642Y-4.6469
X8.3665Y-8.6465
X8.3669Y-6.8252
X8.3675Y-5.1494
X8.3685Y-4.2256
X8.3689Y-6.5984
X8.3732Y-4.015
X8.374Y-7.6846
X8.3752Y-8.9193
X8.3756Y-9.7437
X8.3778Y-4.9821
X8.3787Y-7.3236
X8.3803Y-10.2071
X8.3819Y-9.0575
X8.3819Y-9.878
X8.3833Y-4.8128
X8.3882Y-7.4283
X8.3969Y-10.3165
X8.3982Y-7.9494
X8.399Y-4.7183
X8.399Y-5.6577
X8.3994Y-5.5392
X8.3998Y-5.7758
X8.3998Y-8.0077
X8.4002Y-5.4254
X8.4002Y-7.8837
X8.4004Y-3.3768
X8.4006Y-8.1423
X8.401Y-5.2722
X8.4012Y-3.5
X8.4014Y-8.3258
X8.4016Y-4.3287
X8.4018Y-8.2018
X8.402Y-9.1193
X8.4022Y-5.9112
X8.4022Y-8.4604
X8.4026Y-8.7022
X8.403Y-6.0293
X8.403Y-6.9057
X8.403Y-8.5781
X8.4033Y-8.8368
X8.4037Y-6.6463
X8.4039Y-9.2114
X8.4041Y-6.5222
X8.4045Y-6.7809
X8.4045Y-7.2596
X8.4047Y-4.1303
X8.4049Y-6.3096
X8.4053Y-7.0986
X8.4053Y-9.3014
X8.4061Y-9.4396
X8.4065Y-6.1848
X8.4069Y-9.5742
X8.4073Y-6.4415
X8.4073Y-7.0329
X8.4089Y-7.3868
X8.4089Y-8.9781
X8.4091Y-4.5102
T3
X2.7457Y-10.0937
X4.4571Y-7.0366
X5.7157Y-10.0941
X7.4272Y-7.0366
T4
X3.8465Y-8.6933
X3.9102Y-8.7433
X4.2807Y-9.3327
X6.8165Y-8.6929
X6.8815Y-8.7429
X7.2516Y-9.3327
T5
X4.7807Y-8.9602
X4.7807Y-9.0602
X4.7807Y-9.1602
X4.7807Y-9.2602
X4.7807Y-9.3602
X4.7807Y-9.4602
X4.7807Y-9.5602
X4.8807Y-8.9602
X4.8807Y-9.0602
X4.8807Y-9.1591
X4.8807Y-9.2602
X4.8807Y-9.3602
X4.8807Y-9.4602
X4.8807Y-9.5602
X7.7508Y-8.9602
X7.7508Y-9.0602
X7.7508Y-9.1602
X7.7508Y-9.2602
X7.7508Y-9.3602
X7.7508Y-9.4602
X7.7508Y-9.5602
X7.8508Y-8.9602
X7.8508Y-9.0602
X7.8508Y-9.1591
X7.8508Y-9.2602
X7.8508Y-9.3602
X7.8508Y-9.4602
X7.8508Y-9.5602
T6
X1.7425Y-7.4636
X1.7425Y-7.5636
X1.7425Y-7.6636
X1.7429Y-7.097
X1.7429Y-7.197
X1.7429Y-7.297
X1.7724Y-5.8175
X1.7724Y-5.9175
X1.7724Y-6.0175
T7
X1.537Y-5.976
X1.537Y-6.176
T8
X2.0075Y-6.4583
X2.0075Y-6.6236
X2.0075Y-6.789
X2.224Y-6.4583
X2.224Y-6.6236
X2.224Y-6.789
T9
X3.9453Y-4.3854
X3.9453Y-6.4854
X4.7874Y-3.1063
X5.7453Y-4.3854
X5.7453Y-6.4854
X7.5453Y-4.3854
X7.5453Y-6.4854
X8.2283Y-3.1378
T0
M30
