G04 #@! TF.FileFunction,Paste,Top*
%FSLAX46Y46*%
G04 Gerber Fmt 4.6, Leading zero omitted, Abs format (unit mm)*
G04 Created by KiCad (PCBNEW 4.0.7-e2-6376~61~ubuntu18.04.1) date Mon May 30 11:29:29 2022*
%MOMM*%
%LPD*%
G01*
G04 APERTURE LIST*
%ADD10C,0.150000*%
%ADD11C,0.200000*%
%ADD12C,0.100000*%
%ADD13R,0.495300X0.495300*%
%ADD14R,0.800000X1.700000*%
%ADD15O,0.400000X0.200000*%
%ADD16R,0.200000X0.200000*%
%ADD17O,0.200000X0.400000*%
%ADD18R,4.600000X4.300000*%
%ADD19R,4.300000X0.300000*%
%ADD20R,2.540000X1.270000*%
%ADD21R,0.127000X0.127000*%
%ADD22R,0.863600X0.254000*%
%ADD23R,0.254000X0.863600*%
%ADD24R,1.270000X2.540000*%
%ADD25R,1.380000X0.450000*%
%ADD26R,2.100000X1.475000*%
%ADD27R,1.900000X2.375000*%
%ADD28R,1.900000X1.175000*%
%ADD29R,0.450000X1.500000*%
%ADD30R,0.610000X0.670000*%
%ADD31R,0.610000X1.070000*%
%ADD32R,1.000000X0.700000*%
%ADD33R,0.790000X0.300000*%
%ADD34R,0.300000X0.790000*%
%ADD35R,1.700000X1.700000*%
%ADD36R,1.500000X0.450000*%
%ADD37R,1.910000X1.910000*%
%ADD38R,1.520000X1.520000*%
%ADD39R,0.600000X1.100000*%
%ADD40R,0.899160X1.399540*%
%ADD41R,2.000000X4.000000*%
%ADD42R,0.550000X0.280000*%
%ADD43R,0.195000X0.400000*%
%ADD44R,0.350000X0.300000*%
%ADD45R,0.280000X0.550000*%
%ADD46R,0.400000X0.195000*%
%ADD47R,1.200000X1.400000*%
%ADD48R,0.300000X0.350000*%
%ADD49R,1.000000X1.350000*%
%ADD50R,0.700000X1.350000*%
%ADD51R,1.350000X0.700000*%
%ADD52R,0.797560X0.797560*%
%ADD53R,0.797560X0.698500*%
%ADD54R,0.800000X0.700000*%
%ADD55R,0.700000X0.800000*%
%ADD56R,0.410000X0.330000*%
%ADD57R,0.330000X0.410000*%
%ADD58R,1.300000X1.300000*%
%ADD59R,1.000000X1.750000*%
%ADD60R,0.600000X1.000000*%
%ADD61R,0.760000X1.650000*%
%ADD62R,1.200000X4.000000*%
%ADD63R,0.800000X0.900000*%
%ADD64R,1.700000X0.800000*%
%ADD65R,1.648460X0.759460*%
%ADD66R,0.759460X1.648460*%
%ADD67R,0.410000X1.780000*%
%ADD68R,0.710000X0.360000*%
%ADD69R,1.270000X0.360000*%
%ADD70R,1.780000X0.410000*%
%ADD71R,0.360000X0.710000*%
%ADD72R,0.360000X1.270000*%
%ADD73R,1.000000X0.350000*%
%ADD74R,0.700000X0.300000*%
%ADD75R,0.300000X0.700000*%
%ADD76R,2.600000X2.600000*%
%ADD77R,0.350000X0.850000*%
%ADD78R,0.850000X0.350000*%
%ADD79R,1.496060X5.000000*%
%ADD80R,0.698500X2.500000*%
%ADD81R,0.350000X1.000000*%
%ADD82R,2.200000X1.000000*%
%ADD83R,1.000000X1.000000*%
%ADD84R,0.440000X0.200000*%
%ADD85R,0.200000X0.440000*%
%ADD86R,0.760000X0.760000*%
%ADD87R,0.850000X0.300000*%
%ADD88R,0.300000X0.850000*%
%ADD89R,3.200000X3.200000*%
%ADD90R,0.800000X0.550000*%
%ADD91R,4.200000X4.200000*%
%ADD92R,1.000000X2.200000*%
%ADD93R,0.510000X0.250000*%
%ADD94R,0.250000X0.510000*%
%ADD95R,1.250000X1.250000*%
%ADD96R,0.400000X0.700000*%
%ADD97R,0.400000X2.100000*%
%ADD98R,0.300000X0.670000*%
%ADD99R,1.600000X0.700000*%
%ADD100R,0.800000X0.800000*%
%ADD101R,2.032000X1.524000*%
%ADD102R,1.524000X2.032000*%
%ADD103R,5.000000X2.000000*%
%ADD104R,3.200000X1.270000*%
%ADD105R,3.200400X1.270000*%
%ADD106R,4.000000X1.200000*%
%ADD107R,1.850000X3.400000*%
%ADD108R,1.399540X0.899160*%
%ADD109R,1.100000X1.000000*%
%ADD110R,0.320000X0.430000*%
%ADD111R,1.000000X1.100000*%
%ADD112R,0.430000X0.320000*%
%ADD113R,0.300000X0.650000*%
%ADD114R,2.350000X1.600000*%
%ADD115R,0.600000X0.250000*%
%ADD116R,0.250000X2.400000*%
%ADD117R,1.000000X3.000000*%
%ADD118R,10.600000X8.400000*%
%ADD119R,0.300000X0.660000*%
%ADD120R,0.550000X1.600000*%
%ADD121R,0.875000X0.200000*%
%ADD122R,0.200000X0.875000*%
%ADD123R,0.650000X0.300000*%
%ADD124R,1.600000X2.350000*%
%ADD125R,0.950000X0.950000*%
%ADD126R,0.800000X0.950000*%
%ADD127R,1.500000X3.250000*%
%ADD128R,0.700000X1.500000*%
%ADD129R,3.250000X1.500000*%
%ADD130R,1.500000X0.700000*%
%ADD131R,5.600000X2.100000*%
%ADD132R,0.300000X0.250000*%
%ADD133R,0.250000X0.300000*%
G04 APERTURE END LIST*
D10*
D11*
X63390000Y-111490000D02*
X63390000Y-87350000D01*
X50960000Y-111490000D02*
X63390000Y-111490000D01*
X50960000Y-124590000D02*
X50960000Y-111490000D01*
X46770000Y-128780000D02*
X50960000Y-124590000D01*
X46770000Y-145000000D02*
X46770000Y-128780000D01*
X36820000Y-145000000D02*
X46770000Y-145000000D01*
X63390000Y-225550000D02*
X63390000Y-262740000D01*
X36820000Y-225550000D02*
X63390000Y-225550000D01*
X36820000Y-145000000D02*
X36820000Y-225550000D01*
X104330000Y-87350000D02*
X63390000Y-87350000D01*
X112510000Y-79170000D02*
X104330000Y-87350000D01*
X112510000Y-70160000D02*
X112510000Y-79170000D01*
X213990000Y-70160000D02*
X112510000Y-70160000D01*
X213990000Y-262740000D02*
X213990000Y-70160000D01*
X63390000Y-262740000D02*
X213990000Y-262740000D01*
D12*
G36*
X96216365Y-226316245D02*
X96216365Y-227609765D01*
X97509885Y-227609765D01*
X97509885Y-226316245D01*
X96216365Y-226316245D01*
G37*
X96216365Y-226316245D02*
X96216365Y-227609765D01*
X97509885Y-227609765D01*
X97509885Y-226316245D01*
X96216365Y-226316245D01*
G36*
X96216365Y-227809765D02*
X96216365Y-229103285D01*
X97509885Y-229103285D01*
X97509885Y-227809765D01*
X96216365Y-227809765D01*
G37*
X96216365Y-227809765D02*
X96216365Y-229103285D01*
X97509885Y-229103285D01*
X97509885Y-227809765D01*
X96216365Y-227809765D01*
G36*
X96216365Y-229303285D02*
X96216365Y-230596805D01*
X97509885Y-230596805D01*
X97509885Y-229303285D01*
X96216365Y-229303285D01*
G37*
X96216365Y-229303285D02*
X96216365Y-230596805D01*
X97509885Y-230596805D01*
X97509885Y-229303285D01*
X96216365Y-229303285D01*
G36*
X96216365Y-230796805D02*
X96216365Y-232090325D01*
X97509885Y-232090325D01*
X97509885Y-230796805D01*
X96216365Y-230796805D01*
G37*
X96216365Y-230796805D02*
X96216365Y-232090325D01*
X97509885Y-232090325D01*
X97509885Y-230796805D01*
X96216365Y-230796805D01*
G36*
X96216365Y-232290325D02*
X96216365Y-233583845D01*
X97509885Y-233583845D01*
X97509885Y-232290325D01*
X96216365Y-232290325D01*
G37*
X96216365Y-232290325D02*
X96216365Y-233583845D01*
X97509885Y-233583845D01*
X97509885Y-232290325D01*
X96216365Y-232290325D01*
G36*
X97709885Y-226316245D02*
X97709885Y-227609765D01*
X99003405Y-227609765D01*
X99003405Y-226316245D01*
X97709885Y-226316245D01*
G37*
X97709885Y-226316245D02*
X97709885Y-227609765D01*
X99003405Y-227609765D01*
X99003405Y-226316245D01*
X97709885Y-226316245D01*
G36*
X97709885Y-227809765D02*
X97709885Y-229103285D01*
X99003405Y-229103285D01*
X99003405Y-227809765D01*
X97709885Y-227809765D01*
G37*
X97709885Y-227809765D02*
X97709885Y-229103285D01*
X99003405Y-229103285D01*
X99003405Y-227809765D01*
X97709885Y-227809765D01*
G36*
X97709885Y-229303285D02*
X97709885Y-230596805D01*
X99003405Y-230596805D01*
X99003405Y-229303285D01*
X97709885Y-229303285D01*
G37*
X97709885Y-229303285D02*
X97709885Y-230596805D01*
X99003405Y-230596805D01*
X99003405Y-229303285D01*
X97709885Y-229303285D01*
G36*
X97709885Y-230796805D02*
X97709885Y-232090325D01*
X99003405Y-232090325D01*
X99003405Y-230796805D01*
X97709885Y-230796805D01*
G37*
X97709885Y-230796805D02*
X97709885Y-232090325D01*
X99003405Y-232090325D01*
X99003405Y-230796805D01*
X97709885Y-230796805D01*
G36*
X97709885Y-232290325D02*
X97709885Y-233583845D01*
X99003405Y-233583845D01*
X99003405Y-232290325D01*
X97709885Y-232290325D01*
G37*
X97709885Y-232290325D02*
X97709885Y-233583845D01*
X99003405Y-233583845D01*
X99003405Y-232290325D01*
X97709885Y-232290325D01*
G36*
X99203405Y-226316245D02*
X99203405Y-227609765D01*
X100496925Y-227609765D01*
X100496925Y-226316245D01*
X99203405Y-226316245D01*
G37*
X99203405Y-226316245D02*
X99203405Y-227609765D01*
X100496925Y-227609765D01*
X100496925Y-226316245D01*
X99203405Y-226316245D01*
G36*
X99203405Y-227809765D02*
X99203405Y-229103285D01*
X100496925Y-229103285D01*
X100496925Y-227809765D01*
X99203405Y-227809765D01*
G37*
X99203405Y-227809765D02*
X99203405Y-229103285D01*
X100496925Y-229103285D01*
X100496925Y-227809765D01*
X99203405Y-227809765D01*
G36*
X99203405Y-229303285D02*
X99203405Y-230596805D01*
X100496925Y-230596805D01*
X100496925Y-229303285D01*
X99203405Y-229303285D01*
G37*
X99203405Y-229303285D02*
X99203405Y-230596805D01*
X100496925Y-230596805D01*
X100496925Y-229303285D01*
X99203405Y-229303285D01*
G36*
X99203405Y-230796805D02*
X99203405Y-232090325D01*
X100496925Y-232090325D01*
X100496925Y-230796805D01*
X99203405Y-230796805D01*
G37*
X99203405Y-230796805D02*
X99203405Y-232090325D01*
X100496925Y-232090325D01*
X100496925Y-230796805D01*
X99203405Y-230796805D01*
G36*
X99203405Y-232290325D02*
X99203405Y-233583845D01*
X100496925Y-233583845D01*
X100496925Y-232290325D01*
X99203405Y-232290325D01*
G37*
X99203405Y-232290325D02*
X99203405Y-233583845D01*
X100496925Y-233583845D01*
X100496925Y-232290325D01*
X99203405Y-232290325D01*
G36*
X100696925Y-226316245D02*
X100696925Y-227609765D01*
X101990445Y-227609765D01*
X101990445Y-226316245D01*
X100696925Y-226316245D01*
G37*
X100696925Y-226316245D02*
X100696925Y-227609765D01*
X101990445Y-227609765D01*
X101990445Y-226316245D01*
X100696925Y-226316245D01*
G36*
X100696925Y-227809765D02*
X100696925Y-229103285D01*
X101990445Y-229103285D01*
X101990445Y-227809765D01*
X100696925Y-227809765D01*
G37*
X100696925Y-227809765D02*
X100696925Y-229103285D01*
X101990445Y-229103285D01*
X101990445Y-227809765D01*
X100696925Y-227809765D01*
G36*
X100696925Y-229303285D02*
X100696925Y-230596805D01*
X101990445Y-230596805D01*
X101990445Y-229303285D01*
X100696925Y-229303285D01*
G37*
X100696925Y-229303285D02*
X100696925Y-230596805D01*
X101990445Y-230596805D01*
X101990445Y-229303285D01*
X100696925Y-229303285D01*
G36*
X100696925Y-230796805D02*
X100696925Y-232090325D01*
X101990445Y-232090325D01*
X101990445Y-230796805D01*
X100696925Y-230796805D01*
G37*
X100696925Y-230796805D02*
X100696925Y-232090325D01*
X101990445Y-232090325D01*
X101990445Y-230796805D01*
X100696925Y-230796805D01*
G36*
X100696925Y-232290325D02*
X100696925Y-233583845D01*
X101990445Y-233583845D01*
X101990445Y-232290325D01*
X100696925Y-232290325D01*
G37*
X100696925Y-232290325D02*
X100696925Y-233583845D01*
X101990445Y-233583845D01*
X101990445Y-232290325D01*
X100696925Y-232290325D01*
G36*
X102190445Y-226316245D02*
X102190445Y-227609765D01*
X103483965Y-227609765D01*
X103483965Y-226316245D01*
X102190445Y-226316245D01*
G37*
X102190445Y-226316245D02*
X102190445Y-227609765D01*
X103483965Y-227609765D01*
X103483965Y-226316245D01*
X102190445Y-226316245D01*
G36*
X102190445Y-227809765D02*
X102190445Y-229103285D01*
X103483965Y-229103285D01*
X103483965Y-227809765D01*
X102190445Y-227809765D01*
G37*
X102190445Y-227809765D02*
X102190445Y-229103285D01*
X103483965Y-229103285D01*
X103483965Y-227809765D01*
X102190445Y-227809765D01*
G36*
X102190445Y-229303285D02*
X102190445Y-230596805D01*
X103483965Y-230596805D01*
X103483965Y-229303285D01*
X102190445Y-229303285D01*
G37*
X102190445Y-229303285D02*
X102190445Y-230596805D01*
X103483965Y-230596805D01*
X103483965Y-229303285D01*
X102190445Y-229303285D01*
G36*
X102190445Y-230796805D02*
X102190445Y-232090325D01*
X103483965Y-232090325D01*
X103483965Y-230796805D01*
X102190445Y-230796805D01*
G37*
X102190445Y-230796805D02*
X102190445Y-232090325D01*
X103483965Y-232090325D01*
X103483965Y-230796805D01*
X102190445Y-230796805D01*
G36*
X102190445Y-232290325D02*
X102190445Y-233583845D01*
X103483965Y-233583845D01*
X103483965Y-232290325D01*
X102190445Y-232290325D01*
G37*
X102190445Y-232290325D02*
X102190445Y-233583845D01*
X103483965Y-233583845D01*
X103483965Y-232290325D01*
X102190445Y-232290325D01*
G36*
X95036865Y-226073045D02*
X95036860Y-226327046D01*
X95900465Y-226327045D01*
X95900460Y-226276246D01*
X95697260Y-226073046D01*
X95036865Y-226073045D01*
G37*
X95036865Y-226073045D02*
X95036860Y-226327046D01*
X95900465Y-226327045D01*
X95900460Y-226276246D01*
X95697260Y-226073046D01*
X95036865Y-226073045D01*
G36*
X95973165Y-225136745D02*
X95973155Y-225797145D01*
X96176355Y-226000345D01*
X96227165Y-226000345D01*
X96227165Y-225136745D01*
X95973165Y-225136745D01*
G37*
X95973165Y-225136745D02*
X95973155Y-225797145D01*
X96176355Y-226000345D01*
X96227165Y-226000345D01*
X96227165Y-225136745D01*
X95973165Y-225136745D01*
G36*
X103473165Y-225136745D02*
X103473165Y-226000345D01*
X103523965Y-226000345D01*
X103727165Y-225797145D01*
X103727165Y-225136745D01*
X103473165Y-225136745D01*
G37*
X103473165Y-225136745D02*
X103473165Y-226000345D01*
X103523965Y-226000345D01*
X103727165Y-225797145D01*
X103727165Y-225136745D01*
X103473165Y-225136745D01*
G36*
X103799860Y-226276246D02*
X103799860Y-226327046D01*
X104663465Y-226327045D01*
X104663465Y-226073045D01*
X104003060Y-226073046D01*
X103799860Y-226276246D01*
G37*
X103799860Y-226276246D02*
X103799860Y-226327046D01*
X104663465Y-226327045D01*
X104663465Y-226073045D01*
X104003060Y-226073046D01*
X103799860Y-226276246D01*
G36*
X95036865Y-233573044D02*
X95036865Y-233827045D01*
X95697265Y-233827044D01*
X95900465Y-233623844D01*
X95900465Y-233573044D01*
X95036865Y-233573044D01*
G37*
X95036865Y-233573044D02*
X95036865Y-233827045D01*
X95697265Y-233827044D01*
X95900465Y-233623844D01*
X95900465Y-233573044D01*
X95036865Y-233573044D01*
G36*
X95973160Y-234102945D02*
X95973165Y-234763345D01*
X96227165Y-234763345D01*
X96227165Y-233899745D01*
X96176360Y-233899745D01*
X95973160Y-234102945D01*
G37*
X95973160Y-234102945D02*
X95973165Y-234763345D01*
X96227165Y-234763345D01*
X96227165Y-233899745D01*
X96176360Y-233899745D01*
X95973160Y-234102945D01*
G36*
X103473165Y-233899745D02*
X103473170Y-234763345D01*
X103727165Y-234763345D01*
X103727170Y-234102945D01*
X103523970Y-233899745D01*
X103473165Y-233899745D01*
G37*
X103473165Y-233899745D02*
X103473170Y-234763345D01*
X103727165Y-234763345D01*
X103727170Y-234102945D01*
X103523970Y-233899745D01*
X103473165Y-233899745D01*
G36*
X103799865Y-233573044D02*
X103799865Y-233623844D01*
X104003065Y-233827044D01*
X104663465Y-233827045D01*
X104663465Y-233573045D01*
X103799865Y-233573044D01*
G37*
X103799865Y-233573044D02*
X103799865Y-233623844D01*
X104003065Y-233827044D01*
X104663465Y-233827045D01*
X104663465Y-233573045D01*
X103799865Y-233573044D01*
G36*
X171656200Y-226316200D02*
X171656200Y-227609720D01*
X172949720Y-227609720D01*
X172949720Y-226316200D01*
X171656200Y-226316200D01*
G37*
X171656200Y-226316200D02*
X171656200Y-227609720D01*
X172949720Y-227609720D01*
X172949720Y-226316200D01*
X171656200Y-226316200D01*
G36*
X171656200Y-227809720D02*
X171656200Y-229103240D01*
X172949720Y-229103240D01*
X172949720Y-227809720D01*
X171656200Y-227809720D01*
G37*
X171656200Y-227809720D02*
X171656200Y-229103240D01*
X172949720Y-229103240D01*
X172949720Y-227809720D01*
X171656200Y-227809720D01*
G36*
X171656200Y-229303240D02*
X171656200Y-230596760D01*
X172949720Y-230596760D01*
X172949720Y-229303240D01*
X171656200Y-229303240D01*
G37*
X171656200Y-229303240D02*
X171656200Y-230596760D01*
X172949720Y-230596760D01*
X172949720Y-229303240D01*
X171656200Y-229303240D01*
G36*
X171656200Y-230796760D02*
X171656200Y-232090280D01*
X172949720Y-232090280D01*
X172949720Y-230796760D01*
X171656200Y-230796760D01*
G37*
X171656200Y-230796760D02*
X171656200Y-232090280D01*
X172949720Y-232090280D01*
X172949720Y-230796760D01*
X171656200Y-230796760D01*
G36*
X171656200Y-232290280D02*
X171656200Y-233583800D01*
X172949720Y-233583800D01*
X172949720Y-232290280D01*
X171656200Y-232290280D01*
G37*
X171656200Y-232290280D02*
X171656200Y-233583800D01*
X172949720Y-233583800D01*
X172949720Y-232290280D01*
X171656200Y-232290280D01*
G36*
X173149720Y-226316200D02*
X173149720Y-227609720D01*
X174443240Y-227609720D01*
X174443240Y-226316200D01*
X173149720Y-226316200D01*
G37*
X173149720Y-226316200D02*
X173149720Y-227609720D01*
X174443240Y-227609720D01*
X174443240Y-226316200D01*
X173149720Y-226316200D01*
G36*
X173149720Y-227809720D02*
X173149720Y-229103240D01*
X174443240Y-229103240D01*
X174443240Y-227809720D01*
X173149720Y-227809720D01*
G37*
X173149720Y-227809720D02*
X173149720Y-229103240D01*
X174443240Y-229103240D01*
X174443240Y-227809720D01*
X173149720Y-227809720D01*
G36*
X173149720Y-229303240D02*
X173149720Y-230596760D01*
X174443240Y-230596760D01*
X174443240Y-229303240D01*
X173149720Y-229303240D01*
G37*
X173149720Y-229303240D02*
X173149720Y-230596760D01*
X174443240Y-230596760D01*
X174443240Y-229303240D01*
X173149720Y-229303240D01*
G36*
X173149720Y-230796760D02*
X173149720Y-232090280D01*
X174443240Y-232090280D01*
X174443240Y-230796760D01*
X173149720Y-230796760D01*
G37*
X173149720Y-230796760D02*
X173149720Y-232090280D01*
X174443240Y-232090280D01*
X174443240Y-230796760D01*
X173149720Y-230796760D01*
G36*
X173149720Y-232290280D02*
X173149720Y-233583800D01*
X174443240Y-233583800D01*
X174443240Y-232290280D01*
X173149720Y-232290280D01*
G37*
X173149720Y-232290280D02*
X173149720Y-233583800D01*
X174443240Y-233583800D01*
X174443240Y-232290280D01*
X173149720Y-232290280D01*
G36*
X174643240Y-226316200D02*
X174643240Y-227609720D01*
X175936760Y-227609720D01*
X175936760Y-226316200D01*
X174643240Y-226316200D01*
G37*
X174643240Y-226316200D02*
X174643240Y-227609720D01*
X175936760Y-227609720D01*
X175936760Y-226316200D01*
X174643240Y-226316200D01*
G36*
X174643240Y-227809720D02*
X174643240Y-229103240D01*
X175936760Y-229103240D01*
X175936760Y-227809720D01*
X174643240Y-227809720D01*
G37*
X174643240Y-227809720D02*
X174643240Y-229103240D01*
X175936760Y-229103240D01*
X175936760Y-227809720D01*
X174643240Y-227809720D01*
G36*
X174643240Y-229303240D02*
X174643240Y-230596760D01*
X175936760Y-230596760D01*
X175936760Y-229303240D01*
X174643240Y-229303240D01*
G37*
X174643240Y-229303240D02*
X174643240Y-230596760D01*
X175936760Y-230596760D01*
X175936760Y-229303240D01*
X174643240Y-229303240D01*
G36*
X174643240Y-230796760D02*
X174643240Y-232090280D01*
X175936760Y-232090280D01*
X175936760Y-230796760D01*
X174643240Y-230796760D01*
G37*
X174643240Y-230796760D02*
X174643240Y-232090280D01*
X175936760Y-232090280D01*
X175936760Y-230796760D01*
X174643240Y-230796760D01*
G36*
X174643240Y-232290280D02*
X174643240Y-233583800D01*
X175936760Y-233583800D01*
X175936760Y-232290280D01*
X174643240Y-232290280D01*
G37*
X174643240Y-232290280D02*
X174643240Y-233583800D01*
X175936760Y-233583800D01*
X175936760Y-232290280D01*
X174643240Y-232290280D01*
G36*
X176136760Y-226316200D02*
X176136760Y-227609720D01*
X177430280Y-227609720D01*
X177430280Y-226316200D01*
X176136760Y-226316200D01*
G37*
X176136760Y-226316200D02*
X176136760Y-227609720D01*
X177430280Y-227609720D01*
X177430280Y-226316200D01*
X176136760Y-226316200D01*
G36*
X176136760Y-227809720D02*
X176136760Y-229103240D01*
X177430280Y-229103240D01*
X177430280Y-227809720D01*
X176136760Y-227809720D01*
G37*
X176136760Y-227809720D02*
X176136760Y-229103240D01*
X177430280Y-229103240D01*
X177430280Y-227809720D01*
X176136760Y-227809720D01*
G36*
X176136760Y-229303240D02*
X176136760Y-230596760D01*
X177430280Y-230596760D01*
X177430280Y-229303240D01*
X176136760Y-229303240D01*
G37*
X176136760Y-229303240D02*
X176136760Y-230596760D01*
X177430280Y-230596760D01*
X177430280Y-229303240D01*
X176136760Y-229303240D01*
G36*
X176136760Y-230796760D02*
X176136760Y-232090280D01*
X177430280Y-232090280D01*
X177430280Y-230796760D01*
X176136760Y-230796760D01*
G37*
X176136760Y-230796760D02*
X176136760Y-232090280D01*
X177430280Y-232090280D01*
X177430280Y-230796760D01*
X176136760Y-230796760D01*
G36*
X176136760Y-232290280D02*
X176136760Y-233583800D01*
X177430280Y-233583800D01*
X177430280Y-232290280D01*
X176136760Y-232290280D01*
G37*
X176136760Y-232290280D02*
X176136760Y-233583800D01*
X177430280Y-233583800D01*
X177430280Y-232290280D01*
X176136760Y-232290280D01*
G36*
X177630280Y-226316200D02*
X177630280Y-227609720D01*
X178923800Y-227609720D01*
X178923800Y-226316200D01*
X177630280Y-226316200D01*
G37*
X177630280Y-226316200D02*
X177630280Y-227609720D01*
X178923800Y-227609720D01*
X178923800Y-226316200D01*
X177630280Y-226316200D01*
G36*
X177630280Y-227809720D02*
X177630280Y-229103240D01*
X178923800Y-229103240D01*
X178923800Y-227809720D01*
X177630280Y-227809720D01*
G37*
X177630280Y-227809720D02*
X177630280Y-229103240D01*
X178923800Y-229103240D01*
X178923800Y-227809720D01*
X177630280Y-227809720D01*
G36*
X177630280Y-229303240D02*
X177630280Y-230596760D01*
X178923800Y-230596760D01*
X178923800Y-229303240D01*
X177630280Y-229303240D01*
G37*
X177630280Y-229303240D02*
X177630280Y-230596760D01*
X178923800Y-230596760D01*
X178923800Y-229303240D01*
X177630280Y-229303240D01*
G36*
X177630280Y-230796760D02*
X177630280Y-232090280D01*
X178923800Y-232090280D01*
X178923800Y-230796760D01*
X177630280Y-230796760D01*
G37*
X177630280Y-230796760D02*
X177630280Y-232090280D01*
X178923800Y-232090280D01*
X178923800Y-230796760D01*
X177630280Y-230796760D01*
G36*
X177630280Y-232290280D02*
X177630280Y-233583800D01*
X178923800Y-233583800D01*
X178923800Y-232290280D01*
X177630280Y-232290280D01*
G37*
X177630280Y-232290280D02*
X177630280Y-233583800D01*
X178923800Y-233583800D01*
X178923800Y-232290280D01*
X177630280Y-232290280D01*
G36*
X170476700Y-226073000D02*
X170476695Y-226327001D01*
X171340300Y-226327000D01*
X171340295Y-226276201D01*
X171137095Y-226073001D01*
X170476700Y-226073000D01*
G37*
X170476700Y-226073000D02*
X170476695Y-226327001D01*
X171340300Y-226327000D01*
X171340295Y-226276201D01*
X171137095Y-226073001D01*
X170476700Y-226073000D01*
G36*
X171413000Y-225136700D02*
X171412990Y-225797100D01*
X171616190Y-226000300D01*
X171667000Y-226000300D01*
X171667000Y-225136700D01*
X171413000Y-225136700D01*
G37*
X171413000Y-225136700D02*
X171412990Y-225797100D01*
X171616190Y-226000300D01*
X171667000Y-226000300D01*
X171667000Y-225136700D01*
X171413000Y-225136700D01*
G36*
X178913000Y-225136700D02*
X178913000Y-226000300D01*
X178963800Y-226000300D01*
X179167000Y-225797100D01*
X179167000Y-225136700D01*
X178913000Y-225136700D01*
G37*
X178913000Y-225136700D02*
X178913000Y-226000300D01*
X178963800Y-226000300D01*
X179167000Y-225797100D01*
X179167000Y-225136700D01*
X178913000Y-225136700D01*
G36*
X179239695Y-226276201D02*
X179239695Y-226327001D01*
X180103300Y-226327000D01*
X180103300Y-226073000D01*
X179442895Y-226073001D01*
X179239695Y-226276201D01*
G37*
X179239695Y-226276201D02*
X179239695Y-226327001D01*
X180103300Y-226327000D01*
X180103300Y-226073000D01*
X179442895Y-226073001D01*
X179239695Y-226276201D01*
G36*
X170476700Y-233572999D02*
X170476700Y-233827000D01*
X171137100Y-233826999D01*
X171340300Y-233623799D01*
X171340300Y-233572999D01*
X170476700Y-233572999D01*
G37*
X170476700Y-233572999D02*
X170476700Y-233827000D01*
X171137100Y-233826999D01*
X171340300Y-233623799D01*
X171340300Y-233572999D01*
X170476700Y-233572999D01*
G36*
X171412995Y-234102900D02*
X171413000Y-234763300D01*
X171667000Y-234763300D01*
X171667000Y-233899700D01*
X171616195Y-233899700D01*
X171412995Y-234102900D01*
G37*
X171412995Y-234102900D02*
X171413000Y-234763300D01*
X171667000Y-234763300D01*
X171667000Y-233899700D01*
X171616195Y-233899700D01*
X171412995Y-234102900D01*
G36*
X178913000Y-233899700D02*
X178913005Y-234763300D01*
X179167000Y-234763300D01*
X179167005Y-234102900D01*
X178963805Y-233899700D01*
X178913000Y-233899700D01*
G37*
X178913000Y-233899700D02*
X178913005Y-234763300D01*
X179167000Y-234763300D01*
X179167005Y-234102900D01*
X178963805Y-233899700D01*
X178913000Y-233899700D01*
G36*
X179239700Y-233572999D02*
X179239700Y-233623799D01*
X179442900Y-233826999D01*
X180103300Y-233827000D01*
X180103300Y-233573000D01*
X179239700Y-233572999D01*
G37*
X179239700Y-233572999D02*
X179239700Y-233623799D01*
X179442900Y-233826999D01*
X180103300Y-233827000D01*
X180103300Y-233573000D01*
X179239700Y-233572999D01*
D13*
X76379580Y-94390000D03*
X75480420Y-94390000D03*
D14*
X85015000Y-91185000D03*
X81615000Y-91185000D03*
D15*
X107454364Y-197728375D03*
X107454364Y-198128375D03*
X107454364Y-198528375D03*
X107454364Y-198928375D03*
X107454364Y-199328375D03*
X107454364Y-199728375D03*
X107454364Y-200128375D03*
X107454364Y-200528375D03*
X107454364Y-200928375D03*
X107454364Y-201328375D03*
X107454364Y-201728375D03*
X107454364Y-202128375D03*
X107454364Y-202528375D03*
X107454364Y-202928375D03*
D16*
X107354364Y-197728375D03*
X107354364Y-198128375D03*
X107354364Y-198528375D03*
X107354364Y-198928375D03*
X107354364Y-199328375D03*
X107354364Y-199728375D03*
X107354364Y-200128375D03*
X107354364Y-200528375D03*
X107354364Y-200928375D03*
X107354364Y-201328375D03*
X107354364Y-201728375D03*
X107354364Y-202128375D03*
X107354364Y-202528375D03*
X107354364Y-202928375D03*
X108154364Y-203728375D03*
X108554364Y-203728375D03*
X108954364Y-203728375D03*
X109354364Y-203728375D03*
X109754364Y-203728375D03*
X110154364Y-203728375D03*
X110554364Y-203728375D03*
X110954364Y-203728375D03*
X111354364Y-203728375D03*
X111754364Y-203728375D03*
X112154364Y-203728375D03*
X112554364Y-203728375D03*
X112954364Y-203728375D03*
X113354364Y-203728375D03*
X114154364Y-202928375D03*
X114154364Y-202528375D03*
X114154364Y-202128375D03*
X114154364Y-201728375D03*
X114154364Y-201328375D03*
X114154364Y-200928375D03*
X114154364Y-200528375D03*
X114154364Y-200128375D03*
X114154364Y-199728375D03*
X114154364Y-199328375D03*
X114154364Y-198928375D03*
X114154364Y-198528375D03*
X114154364Y-198128375D03*
X114154364Y-197728375D03*
X113354364Y-196928375D03*
X112954364Y-196928375D03*
X112554364Y-196928375D03*
X112154364Y-196928375D03*
X111754364Y-196928375D03*
X111354364Y-196928375D03*
X110954364Y-196928375D03*
X110554364Y-196928375D03*
X110154364Y-196928375D03*
X109754364Y-196928375D03*
X109354364Y-196928375D03*
X108954364Y-196928375D03*
X108554364Y-196928375D03*
X108154364Y-196928375D03*
D17*
X108154364Y-203628375D03*
X108554364Y-203628375D03*
X108954364Y-203628375D03*
X109354364Y-203628375D03*
X109754364Y-203628375D03*
X110154364Y-203628375D03*
X110554364Y-203628375D03*
X110954364Y-203628375D03*
X111354364Y-203628375D03*
X111754364Y-203628375D03*
X112154364Y-203628375D03*
X112554364Y-203628375D03*
X112954364Y-203628375D03*
X113354364Y-203628375D03*
D15*
X114054364Y-202928375D03*
X114054364Y-202528375D03*
X114054364Y-202128375D03*
X114054364Y-201728375D03*
X114054364Y-201328375D03*
X114054364Y-200928375D03*
X114054364Y-200528375D03*
X114054364Y-200128375D03*
X114054364Y-199728375D03*
X114054364Y-199328375D03*
X114054364Y-198928375D03*
X114054364Y-198528375D03*
X114054364Y-198128375D03*
X114054364Y-197728375D03*
D17*
X113354364Y-197028375D03*
X112954364Y-197028375D03*
X112554364Y-197028375D03*
X112154364Y-197028375D03*
X111754364Y-197028375D03*
X111354364Y-197028375D03*
X110954364Y-197028375D03*
X110554364Y-197028375D03*
X110154364Y-197028375D03*
X109754364Y-197028375D03*
X109354364Y-197028375D03*
X108954364Y-197028375D03*
X108554364Y-197028375D03*
X108154364Y-197028375D03*
D18*
X110754364Y-200478375D03*
D19*
X110904364Y-198178375D03*
D10*
G36*
X108454364Y-198328375D02*
X108754364Y-198028375D01*
X108954364Y-198028375D01*
X109254364Y-198328375D01*
X108454364Y-198328375D01*
X108454364Y-198328375D01*
G37*
D20*
X206040000Y-206340000D03*
X206040000Y-208880000D03*
X206040000Y-211420000D03*
X206040000Y-213960000D03*
X206040000Y-216500000D03*
X206040000Y-219040000D03*
X200580000Y-219040000D03*
X200580000Y-216500000D03*
X200580000Y-213960000D03*
X200580000Y-211420000D03*
X200580000Y-208880000D03*
X200580000Y-206340000D03*
D21*
X95468665Y-226200045D03*
D22*
X95468665Y-226700044D03*
X95468665Y-227200045D03*
X95468665Y-227700044D03*
X95468665Y-228200046D03*
X95468665Y-228700045D03*
X95468665Y-229200044D03*
X95468665Y-229700045D03*
X95468665Y-230200045D03*
X95468665Y-230700046D03*
X95468665Y-231200045D03*
X95468665Y-231700044D03*
X95468665Y-232200046D03*
X95468665Y-232700045D03*
X95468665Y-233200046D03*
D21*
X95468665Y-233700045D03*
X96100165Y-234331545D03*
D23*
X96600164Y-234331545D03*
X97100165Y-234331545D03*
X97600164Y-234331545D03*
X98100166Y-234331545D03*
X98600165Y-234331545D03*
X99100164Y-234331545D03*
X99600165Y-234331545D03*
X100100165Y-234331545D03*
X100600166Y-234331545D03*
X101100165Y-234331545D03*
X101600164Y-234331545D03*
X102100166Y-234331545D03*
X102600165Y-234331545D03*
X103100166Y-234331545D03*
D21*
X103600165Y-234331545D03*
X104231665Y-233700045D03*
D22*
X104231665Y-233200046D03*
X104231665Y-232700045D03*
X104231665Y-232200046D03*
X104231665Y-231700044D03*
X104231665Y-231200045D03*
X104231665Y-230700046D03*
X104231665Y-230200045D03*
X104231665Y-229700045D03*
X104231665Y-229200044D03*
X104231665Y-228700045D03*
X104231665Y-228200046D03*
X104231665Y-227700044D03*
X104231665Y-227200045D03*
X104231665Y-226700044D03*
D21*
X104231665Y-226200045D03*
X103600165Y-225568545D03*
D23*
X103100166Y-225568545D03*
X102600165Y-225568545D03*
X102100166Y-225568545D03*
X101600164Y-225568545D03*
X101100165Y-225568545D03*
X100600166Y-225568545D03*
X100100165Y-225568545D03*
X99600165Y-225568545D03*
X99100164Y-225568545D03*
X98600165Y-225568545D03*
X98100166Y-225568545D03*
X97600164Y-225568545D03*
X97100165Y-225568545D03*
X96600164Y-225568545D03*
D21*
X96100165Y-225568545D03*
D13*
X71220420Y-97310000D03*
X72119580Y-97310000D03*
D20*
X130600000Y-206340000D03*
X130600000Y-208880000D03*
X130600000Y-211420000D03*
X130600000Y-213960000D03*
X130600000Y-216500000D03*
X130600000Y-219040000D03*
X125140000Y-219040000D03*
X125140000Y-216500000D03*
X125140000Y-213960000D03*
X125140000Y-211420000D03*
X125140000Y-208880000D03*
X125140000Y-206340000D03*
D24*
X48770000Y-133500000D03*
X51310000Y-133500000D03*
X53850000Y-133500000D03*
X56390000Y-133500000D03*
X58930000Y-133500000D03*
X61470000Y-133500000D03*
X61470000Y-138960000D03*
X58930000Y-138960000D03*
X56390000Y-138960000D03*
X53850000Y-138960000D03*
X51310000Y-138960000D03*
X48770000Y-138960000D03*
D25*
X67470000Y-96660000D03*
X67470000Y-97310000D03*
X67470000Y-97960000D03*
X67470000Y-98610000D03*
X67470000Y-99260000D03*
D26*
X67110000Y-95497500D03*
X67110000Y-100422500D03*
D27*
X64810000Y-95050000D03*
X64810000Y-100870000D03*
D28*
X64810000Y-97120000D03*
X64810000Y-98800000D03*
D13*
X132999580Y-121590000D03*
X132100420Y-121590000D03*
D29*
X135155000Y-214420000D03*
X135805000Y-214420000D03*
X136455000Y-214420000D03*
X137105000Y-214420000D03*
X137755000Y-214420000D03*
X138405000Y-214420000D03*
X139055000Y-214420000D03*
X139705000Y-214420000D03*
X139705000Y-220220000D03*
X139055000Y-220220000D03*
X138405000Y-220220000D03*
X137755000Y-220220000D03*
X135155000Y-220220000D03*
X135805000Y-220220000D03*
X136455000Y-220220000D03*
X137105000Y-220220000D03*
D13*
X187800000Y-167970420D03*
X187800000Y-168869580D03*
D24*
X117250000Y-252180000D03*
X119790000Y-252180000D03*
X122330000Y-252180000D03*
X124870000Y-252180000D03*
X127410000Y-252180000D03*
X129950000Y-252180000D03*
X129950000Y-257640000D03*
X127410000Y-257640000D03*
X124870000Y-257640000D03*
X122330000Y-257640000D03*
X119790000Y-257640000D03*
X117250000Y-257640000D03*
D29*
X96145000Y-99700000D03*
X90295000Y-99700000D03*
X90295000Y-93900000D03*
X96145000Y-93900000D03*
X95495000Y-99700000D03*
X94845000Y-99700000D03*
X94195000Y-99700000D03*
X93545000Y-99700000D03*
X92895000Y-99700000D03*
X92245000Y-99700000D03*
X91595000Y-99700000D03*
X90945000Y-99700000D03*
X90945000Y-93900000D03*
X91595000Y-93900000D03*
X92245000Y-93900000D03*
X92895000Y-93900000D03*
X95495000Y-93900000D03*
X94845000Y-93900000D03*
X94195000Y-93900000D03*
X93545000Y-93900000D03*
D13*
X89490420Y-255660000D03*
X90389580Y-255660000D03*
D30*
X88270165Y-221975045D03*
D31*
X89260165Y-221775045D03*
D30*
X90250165Y-221975045D03*
X90250165Y-223625045D03*
D31*
X89260165Y-223825045D03*
D30*
X88270165Y-223625045D03*
D10*
G36*
X93158131Y-203947901D02*
X92807901Y-204298131D01*
X92457671Y-203947901D01*
X92807901Y-203597671D01*
X93158131Y-203947901D01*
X93158131Y-203947901D01*
G37*
G36*
X92522329Y-203312099D02*
X92172099Y-203662329D01*
X91821869Y-203312099D01*
X92172099Y-202961869D01*
X92522329Y-203312099D01*
X92522329Y-203312099D01*
G37*
D32*
X152800000Y-120030000D03*
X152800000Y-121930000D03*
X150400000Y-121930000D03*
X150400000Y-120980000D03*
X150400000Y-120030000D03*
D33*
X184360000Y-167635000D03*
X184360000Y-168295000D03*
X181390000Y-167635000D03*
X181390000Y-168295000D03*
D34*
X182545000Y-166480000D03*
X183205000Y-166480000D03*
X183205000Y-169450000D03*
D35*
X182875000Y-167965000D03*
D34*
X182545000Y-169450000D03*
D32*
X146450000Y-115790000D03*
X146450000Y-117690000D03*
X144050000Y-117690000D03*
X144050000Y-116740000D03*
X144050000Y-115790000D03*
D36*
X170030000Y-166265000D03*
X170030000Y-166915000D03*
X170030000Y-167565000D03*
X170030000Y-168215000D03*
X170030000Y-168865000D03*
X170030000Y-169515000D03*
X170030000Y-170165000D03*
X170030000Y-170815000D03*
X164230000Y-170815000D03*
X164230000Y-170165000D03*
X164230000Y-169515000D03*
X164230000Y-168865000D03*
X164230000Y-166265000D03*
X164230000Y-166915000D03*
X164230000Y-167565000D03*
X164230000Y-168215000D03*
D32*
X146470000Y-120030000D03*
X146470000Y-121930000D03*
X144070000Y-121930000D03*
X144070000Y-120980000D03*
X144070000Y-120030000D03*
D37*
X154400000Y-256090000D03*
X154400000Y-251350000D03*
D38*
X152030000Y-253720000D03*
D37*
X149660000Y-251350000D03*
X149660000Y-256090000D03*
D24*
X192690000Y-252180000D03*
X195230000Y-252180000D03*
X197770000Y-252180000D03*
X200310000Y-252180000D03*
X202850000Y-252180000D03*
X205390000Y-252180000D03*
X205390000Y-257640000D03*
X202850000Y-257640000D03*
X200310000Y-257640000D03*
X197770000Y-257640000D03*
X195230000Y-257640000D03*
X192690000Y-257640000D03*
D39*
X174015000Y-167735000D03*
X174965000Y-167735000D03*
X175915000Y-167735000D03*
X175915000Y-170335000D03*
X174965000Y-170335000D03*
X174015000Y-170335000D03*
D40*
X179907500Y-168835000D03*
X178002500Y-168835000D03*
D41*
X168035000Y-139115000D03*
X168035000Y-132015000D03*
D13*
X208429580Y-121590000D03*
X207530420Y-121590000D03*
D15*
X182900000Y-197730000D03*
X182900000Y-198130000D03*
X182900000Y-198530000D03*
X182900000Y-198930000D03*
X182900000Y-199330000D03*
X182900000Y-199730000D03*
X182900000Y-200130000D03*
X182900000Y-200530000D03*
X182900000Y-200930000D03*
X182900000Y-201330000D03*
X182900000Y-201730000D03*
X182900000Y-202130000D03*
X182900000Y-202530000D03*
X182900000Y-202930000D03*
D16*
X182800000Y-197730000D03*
X182800000Y-198130000D03*
X182800000Y-198530000D03*
X182800000Y-198930000D03*
X182800000Y-199330000D03*
X182800000Y-199730000D03*
X182800000Y-200130000D03*
X182800000Y-200530000D03*
X182800000Y-200930000D03*
X182800000Y-201330000D03*
X182800000Y-201730000D03*
X182800000Y-202130000D03*
X182800000Y-202530000D03*
X182800000Y-202930000D03*
X183600000Y-203730000D03*
X184000000Y-203730000D03*
X184400000Y-203730000D03*
X184800000Y-203730000D03*
X185200000Y-203730000D03*
X185600000Y-203730000D03*
X186000000Y-203730000D03*
X186400000Y-203730000D03*
X186800000Y-203730000D03*
X187200000Y-203730000D03*
X187600000Y-203730000D03*
X188000000Y-203730000D03*
X188400000Y-203730000D03*
X188800000Y-203730000D03*
X189600000Y-202930000D03*
X189600000Y-202530000D03*
X189600000Y-202130000D03*
X189600000Y-201730000D03*
X189600000Y-201330000D03*
X189600000Y-200930000D03*
X189600000Y-200530000D03*
X189600000Y-200130000D03*
X189600000Y-199730000D03*
X189600000Y-199330000D03*
X189600000Y-198930000D03*
X189600000Y-198530000D03*
X189600000Y-198130000D03*
X189600000Y-197730000D03*
X188800000Y-196930000D03*
X188400000Y-196930000D03*
X188000000Y-196930000D03*
X187600000Y-196930000D03*
X187200000Y-196930000D03*
X186800000Y-196930000D03*
X186400000Y-196930000D03*
X186000000Y-196930000D03*
X185600000Y-196930000D03*
X185200000Y-196930000D03*
X184800000Y-196930000D03*
X184400000Y-196930000D03*
X184000000Y-196930000D03*
X183600000Y-196930000D03*
D17*
X183600000Y-203630000D03*
X184000000Y-203630000D03*
X184400000Y-203630000D03*
X184800000Y-203630000D03*
X185200000Y-203630000D03*
X185600000Y-203630000D03*
X186000000Y-203630000D03*
X186400000Y-203630000D03*
X186800000Y-203630000D03*
X187200000Y-203630000D03*
X187600000Y-203630000D03*
X188000000Y-203630000D03*
X188400000Y-203630000D03*
X188800000Y-203630000D03*
D15*
X189500000Y-202930000D03*
X189500000Y-202530000D03*
X189500000Y-202130000D03*
X189500000Y-201730000D03*
X189500000Y-201330000D03*
X189500000Y-200930000D03*
X189500000Y-200530000D03*
X189500000Y-200130000D03*
X189500000Y-199730000D03*
X189500000Y-199330000D03*
X189500000Y-198930000D03*
X189500000Y-198530000D03*
X189500000Y-198130000D03*
X189500000Y-197730000D03*
D17*
X188800000Y-197030000D03*
X188400000Y-197030000D03*
X188000000Y-197030000D03*
X187600000Y-197030000D03*
X187200000Y-197030000D03*
X186800000Y-197030000D03*
X186400000Y-197030000D03*
X186000000Y-197030000D03*
X185600000Y-197030000D03*
X185200000Y-197030000D03*
X184800000Y-197030000D03*
X184400000Y-197030000D03*
X184000000Y-197030000D03*
X183600000Y-197030000D03*
D18*
X186200000Y-200480000D03*
D19*
X186350000Y-198180000D03*
D10*
G36*
X183900000Y-198330000D02*
X184200000Y-198030000D01*
X184400000Y-198030000D01*
X184700000Y-198330000D01*
X183900000Y-198330000D01*
X183900000Y-198330000D01*
G37*
D42*
X188650000Y-179790000D03*
X188650000Y-180910000D03*
D43*
X188447500Y-180350000D03*
X188852500Y-180350000D03*
D44*
X191190000Y-220935000D03*
X191190000Y-220385000D03*
X191190000Y-223285000D03*
X191190000Y-222735000D03*
D45*
X167600000Y-198910000D03*
X166480000Y-198910000D03*
D46*
X167040000Y-198707500D03*
X167040000Y-199112500D03*
D47*
X107710165Y-226190045D03*
X107710165Y-228390045D03*
X109310165Y-228390045D03*
X109310165Y-226190045D03*
D48*
X183195000Y-209630000D03*
X183745000Y-209630000D03*
X113605124Y-209629815D03*
X114155124Y-209629815D03*
X107745124Y-209629815D03*
X108295124Y-209629815D03*
D44*
X107470000Y-217305000D03*
X107470000Y-217855000D03*
X115750000Y-217885000D03*
X115750000Y-218435000D03*
D48*
X128155000Y-202220000D03*
X127605000Y-202220000D03*
X128165000Y-197250000D03*
X127615000Y-197250000D03*
D49*
X82650000Y-187045000D03*
X82650000Y-183195000D03*
X84950000Y-187045000D03*
X84950000Y-183195000D03*
D50*
X83800000Y-187045000D03*
D51*
X82825000Y-185720000D03*
X82825000Y-184520000D03*
X84775000Y-184510400D03*
X84775000Y-185720000D03*
D50*
X83805080Y-183195000D03*
D52*
X194939900Y-188940000D03*
X196540100Y-188940000D03*
D13*
X168060000Y-236990420D03*
X168060000Y-237889580D03*
D37*
X121050000Y-176180000D03*
X121050000Y-180920000D03*
D38*
X123420000Y-178550000D03*
D37*
X125790000Y-180920000D03*
X125790000Y-176180000D03*
D13*
X143030000Y-171039580D03*
X143030000Y-170140420D03*
D52*
X119499900Y-188940000D03*
X121100100Y-188940000D03*
D13*
X87939580Y-190040000D03*
X87040420Y-190040000D03*
X80499580Y-186140000D03*
X79600420Y-186140000D03*
X82020000Y-180619580D03*
X82020000Y-179720420D03*
X79600420Y-185130000D03*
X80499580Y-185130000D03*
X88900000Y-190030420D03*
X88900000Y-190929580D03*
X86380000Y-185719580D03*
X86380000Y-184820420D03*
X82959580Y-188800000D03*
X82060420Y-188800000D03*
X79599580Y-185130000D03*
X78700420Y-185130000D03*
X81160420Y-188810000D03*
X82059580Y-188810000D03*
X84710000Y-180610420D03*
X84710000Y-181509580D03*
X83910000Y-180610420D03*
X83910000Y-181509580D03*
X85510000Y-181499580D03*
X85510000Y-180600420D03*
X82020000Y-179719580D03*
X82020000Y-178820420D03*
X82600000Y-176760420D03*
X82600000Y-177659580D03*
X83430000Y-176760420D03*
X83430000Y-177659580D03*
X81780000Y-177659580D03*
X81780000Y-176760420D03*
X122949580Y-188940000D03*
X122050420Y-188940000D03*
X79889580Y-175970000D03*
X78990420Y-175970000D03*
D53*
X84270000Y-179716100D03*
X84270000Y-178623900D03*
X85380000Y-179716100D03*
X85380000Y-178623900D03*
D37*
X95510000Y-192360000D03*
X95510000Y-187620000D03*
D38*
X93140000Y-189990000D03*
D37*
X90770000Y-187620000D03*
X90770000Y-192360000D03*
D44*
X117958284Y-200553135D03*
X117958284Y-201103135D03*
X117356304Y-200503695D03*
X117356304Y-199953695D03*
X117356304Y-201705115D03*
X117356304Y-201155115D03*
D48*
X116732144Y-200429355D03*
X116182144Y-200429355D03*
D44*
X115555444Y-201004075D03*
X115555444Y-200454075D03*
D48*
X116732144Y-201028795D03*
X116182144Y-201028795D03*
D44*
X115555444Y-199005095D03*
X115555444Y-198455095D03*
D48*
X116729604Y-199029815D03*
X116179604Y-199029815D03*
D44*
X117955744Y-198353495D03*
X117955744Y-198903495D03*
X117356304Y-201105675D03*
X117356304Y-200555675D03*
X117356304Y-198903495D03*
X117356304Y-198353495D03*
D48*
X116729604Y-198430375D03*
X116179604Y-198430375D03*
D44*
X117356304Y-199502935D03*
X117356304Y-198952935D03*
X117353764Y-198298975D03*
X117353764Y-197748975D03*
X112248364Y-205681395D03*
X112248364Y-206231395D03*
X111651464Y-205683935D03*
X111651464Y-206233935D03*
X109665184Y-205681395D03*
X109665184Y-206231395D03*
X110254464Y-205686475D03*
X110254464Y-206236475D03*
D48*
X109674664Y-204861655D03*
X110224664Y-204861655D03*
X111676184Y-204866735D03*
X112226184Y-204866735D03*
D44*
X105854364Y-198853375D03*
X105854364Y-199403375D03*
D48*
X104679364Y-198828375D03*
X105229364Y-198828375D03*
X104679364Y-199428375D03*
X105229364Y-199428375D03*
D44*
X104054364Y-198153375D03*
X104054364Y-198703375D03*
X104054364Y-199353375D03*
X104054364Y-199903375D03*
X103454364Y-199303375D03*
X103454364Y-198753375D03*
X105854364Y-200853375D03*
X105854364Y-201403375D03*
D48*
X104679364Y-200828375D03*
X105229364Y-200828375D03*
X104679364Y-201428375D03*
X105229364Y-201428375D03*
D44*
X104054364Y-200353375D03*
X104054364Y-200903375D03*
X104054364Y-201553375D03*
X104054364Y-202103375D03*
X103454364Y-201503375D03*
X103454364Y-200953375D03*
D48*
X115729364Y-195528375D03*
X115179364Y-195528375D03*
X115729364Y-196728375D03*
X115179364Y-196728375D03*
X115729364Y-196128375D03*
X115179364Y-196128375D03*
D44*
X104054364Y-198753375D03*
X104054364Y-199303375D03*
X104054364Y-200953375D03*
X104054364Y-201503375D03*
D37*
X96290000Y-180670000D03*
X96290000Y-175930000D03*
D38*
X93920000Y-178300000D03*
D37*
X91550000Y-175930000D03*
X91550000Y-180670000D03*
D48*
X108304424Y-191031355D03*
X107754424Y-191031355D03*
X114159124Y-191031355D03*
X113609124Y-191031355D03*
X106898444Y-195788775D03*
X107448444Y-195788775D03*
D44*
X106208244Y-196514535D03*
X106208244Y-197064535D03*
D10*
G36*
X105810488Y-195981899D02*
X105563000Y-195734411D01*
X105775132Y-195522279D01*
X106022620Y-195769767D01*
X105810488Y-195981899D01*
X105810488Y-195981899D01*
G37*
G36*
X106199396Y-195592991D02*
X105951908Y-195345503D01*
X106164040Y-195133371D01*
X106411528Y-195380859D01*
X106199396Y-195592991D01*
X106199396Y-195592991D01*
G37*
G36*
X106005128Y-194797151D02*
X105757640Y-195044639D01*
X105545508Y-194832507D01*
X105792996Y-194585019D01*
X106005128Y-194797151D01*
X106005128Y-194797151D01*
G37*
G36*
X105616220Y-194408243D02*
X105368732Y-194655731D01*
X105156600Y-194443599D01*
X105404088Y-194196111D01*
X105616220Y-194408243D01*
X105616220Y-194408243D01*
G37*
G36*
X105474268Y-195333091D02*
X105226780Y-195580579D01*
X105014648Y-195368447D01*
X105262136Y-195120959D01*
X105474268Y-195333091D01*
X105474268Y-195333091D01*
G37*
G36*
X105085360Y-194944183D02*
X104837872Y-195191671D01*
X104625740Y-194979539D01*
X104873228Y-194732051D01*
X105085360Y-194944183D01*
X105085360Y-194944183D01*
G37*
G36*
X104489688Y-194663639D02*
X104242200Y-194416151D01*
X104454332Y-194204019D01*
X104701820Y-194451507D01*
X104489688Y-194663639D01*
X104489688Y-194663639D01*
G37*
G36*
X104878596Y-194274731D02*
X104631108Y-194027243D01*
X104843240Y-193815111D01*
X105090728Y-194062599D01*
X104878596Y-194274731D01*
X104878596Y-194274731D01*
G37*
D44*
X109660104Y-194974115D03*
X109660104Y-194424115D03*
X110257004Y-194971575D03*
X110257004Y-194421575D03*
D48*
X110232284Y-195788775D03*
X109682284Y-195788775D03*
D44*
X111654004Y-194969035D03*
X111654004Y-194419035D03*
X112243284Y-194974115D03*
X112243284Y-194424115D03*
D48*
X112233804Y-195793855D03*
X111683804Y-195793855D03*
X191175000Y-196730000D03*
X190625000Y-196730000D03*
X191175000Y-196120000D03*
X190625000Y-196120000D03*
X191175000Y-195530000D03*
X190625000Y-195530000D03*
D10*
G36*
X181263224Y-195984264D02*
X181015736Y-195736776D01*
X181227868Y-195524644D01*
X181475356Y-195772132D01*
X181263224Y-195984264D01*
X181263224Y-195984264D01*
G37*
G36*
X181652132Y-195595356D02*
X181404644Y-195347868D01*
X181616776Y-195135736D01*
X181864264Y-195383224D01*
X181652132Y-195595356D01*
X181652132Y-195595356D01*
G37*
D44*
X181660000Y-196515000D03*
X181660000Y-197065000D03*
D48*
X182345000Y-195790000D03*
X182895000Y-195790000D03*
D44*
X192800000Y-201105000D03*
X192800000Y-200555000D03*
X192800000Y-198905000D03*
X192800000Y-198355000D03*
X192800000Y-201705000D03*
X192800000Y-201155000D03*
X192800000Y-200505000D03*
X192800000Y-199955000D03*
X192800000Y-199505000D03*
X192800000Y-198955000D03*
X192800000Y-198295000D03*
X192800000Y-197745000D03*
D48*
X192185000Y-201030000D03*
X191635000Y-201030000D03*
X192175000Y-200430000D03*
X191625000Y-200430000D03*
X192175000Y-199030000D03*
X191625000Y-199030000D03*
X192175000Y-198430000D03*
X191625000Y-198430000D03*
D44*
X191000000Y-201005000D03*
X191000000Y-200455000D03*
D48*
X187125000Y-204870000D03*
X187675000Y-204870000D03*
X187685000Y-195790000D03*
X187135000Y-195790000D03*
X185125000Y-204860000D03*
X185675000Y-204860000D03*
X185680000Y-195790000D03*
X185130000Y-195790000D03*
D44*
X185700000Y-194970000D03*
X185700000Y-194420000D03*
X185110000Y-194970000D03*
X185110000Y-194420000D03*
X185110000Y-205675000D03*
X185110000Y-206225000D03*
X185700000Y-205685000D03*
X185700000Y-206235000D03*
X187100000Y-205685000D03*
X187100000Y-206235000D03*
X187700000Y-205685000D03*
X187700000Y-206235000D03*
X187690000Y-194975000D03*
X187690000Y-194425000D03*
X187100000Y-194965000D03*
X187100000Y-194415000D03*
D48*
X183750000Y-191030000D03*
X183200000Y-191030000D03*
X189605000Y-191030000D03*
X189055000Y-191030000D03*
X189055000Y-209620000D03*
X189605000Y-209620000D03*
D44*
X193410000Y-200555000D03*
X193410000Y-201105000D03*
X193400000Y-198355000D03*
X193400000Y-198905000D03*
D10*
G36*
X179933224Y-194664264D02*
X179685736Y-194416776D01*
X179897868Y-194204644D01*
X180145356Y-194452132D01*
X179933224Y-194664264D01*
X179933224Y-194664264D01*
G37*
G36*
X180322132Y-194275356D02*
X180074644Y-194027868D01*
X180286776Y-193815736D01*
X180534264Y-194063224D01*
X180322132Y-194275356D01*
X180322132Y-194275356D01*
G37*
G36*
X180924264Y-195336776D02*
X180676776Y-195584264D01*
X180464644Y-195372132D01*
X180712132Y-195124644D01*
X180924264Y-195336776D01*
X180924264Y-195336776D01*
G37*
G36*
X180535356Y-194947868D02*
X180287868Y-195195356D01*
X180075736Y-194983224D01*
X180323224Y-194735736D01*
X180535356Y-194947868D01*
X180535356Y-194947868D01*
G37*
G36*
X181454264Y-194796776D02*
X181206776Y-195044264D01*
X180994644Y-194832132D01*
X181242132Y-194584644D01*
X181454264Y-194796776D01*
X181454264Y-194796776D01*
G37*
G36*
X181065356Y-194407868D02*
X180817868Y-194655356D01*
X180605736Y-194443224D01*
X180853224Y-194195736D01*
X181065356Y-194407868D01*
X181065356Y-194407868D01*
G37*
D44*
X191000000Y-199005000D03*
X191000000Y-198455000D03*
D13*
X91249745Y-220900045D03*
X90350585Y-220900045D03*
D10*
G36*
X90848131Y-242617901D02*
X90497901Y-242968131D01*
X90147671Y-242617901D01*
X90497901Y-242267671D01*
X90848131Y-242617901D01*
X90848131Y-242617901D01*
G37*
G36*
X90212329Y-241982099D02*
X89862099Y-242332329D01*
X89511869Y-241982099D01*
X89862099Y-241631869D01*
X90212329Y-241982099D01*
X90212329Y-241982099D01*
G37*
D13*
X89289745Y-228420045D03*
X88390585Y-228420045D03*
X90570165Y-231520465D03*
X90570165Y-232419625D03*
X98120585Y-239090045D03*
X99019745Y-239090045D03*
X92350165Y-229500465D03*
X92350165Y-230399625D03*
X93360165Y-232420465D03*
X93360165Y-233319625D03*
X96220585Y-237310045D03*
X97119745Y-237310045D03*
D54*
X93110165Y-222720045D03*
X93110165Y-224220045D03*
D13*
X93049745Y-226520045D03*
X92150585Y-226520045D03*
X92150585Y-225500045D03*
X93049745Y-225500045D03*
X93049745Y-227530045D03*
X92150585Y-227530045D03*
X94260165Y-236360465D03*
X94260165Y-237259625D03*
X100289745Y-223340045D03*
X99390585Y-223340045D03*
X99080165Y-237120465D03*
X99080165Y-238019625D03*
X101120165Y-237120465D03*
X101120165Y-238019625D03*
X105940165Y-228230465D03*
X105940165Y-229129625D03*
X106000585Y-230070045D03*
X106899745Y-230070045D03*
X106899745Y-231720045D03*
X106000585Y-231720045D03*
X105940165Y-234070465D03*
X105940165Y-234969625D03*
X105940165Y-224930465D03*
X105940165Y-225829625D03*
X103969745Y-237310045D03*
X103070585Y-237310045D03*
X108039745Y-232740045D03*
X107140585Y-232740045D03*
X94760165Y-222640465D03*
X94760165Y-223539625D03*
D55*
X108720165Y-234400045D03*
X107220165Y-234400045D03*
D13*
X105749745Y-239090045D03*
X104850585Y-239090045D03*
D55*
X97670165Y-223360045D03*
X96170165Y-223360045D03*
D13*
X107470585Y-223620045D03*
X108369745Y-223620045D03*
X108030585Y-230330045D03*
X108929745Y-230330045D03*
X104999745Y-242140045D03*
X104100585Y-242140045D03*
X92090165Y-232420465D03*
X92090165Y-233319625D03*
X93309745Y-228550045D03*
X92410585Y-228550045D03*
X93370165Y-229500465D03*
X93370165Y-230399625D03*
X95270165Y-236350465D03*
X95270165Y-237249625D03*
X98060165Y-236360465D03*
X98060165Y-237259625D03*
X96220585Y-236300045D03*
X97119745Y-236300045D03*
X103979745Y-236300045D03*
X103080585Y-236300045D03*
X104920165Y-237249625D03*
X104920165Y-236350465D03*
X102130165Y-237259625D03*
X102130165Y-236360465D03*
D55*
X97670165Y-221830045D03*
X96170165Y-221830045D03*
X108720165Y-235920045D03*
X107220165Y-235920045D03*
D13*
X86860585Y-220780045D03*
X87759745Y-220780045D03*
X92600165Y-236990465D03*
X92600165Y-237889625D03*
X85930585Y-224100045D03*
X86829745Y-224100045D03*
X85930585Y-238580045D03*
X86829745Y-238580045D03*
X89879745Y-238580045D03*
X88980585Y-238580045D03*
X88030165Y-237630465D03*
X88030165Y-238529625D03*
X90820165Y-237630465D03*
X90820165Y-238529625D03*
X86890165Y-224160465D03*
X86890165Y-225059625D03*
X86890165Y-238529625D03*
X86890165Y-237630465D03*
X93870165Y-241819625D03*
X93870165Y-240920465D03*
X90300165Y-226139625D03*
X90300165Y-225240465D03*
X94570585Y-240870045D03*
X95469745Y-240870045D03*
X91529745Y-224340045D03*
X90630585Y-224340045D03*
X88730585Y-227030045D03*
X89629745Y-227030045D03*
X97180165Y-241829625D03*
X97180165Y-240930465D03*
X92410585Y-235030045D03*
X93309745Y-235030045D03*
X101800585Y-223350045D03*
X102699745Y-223350045D03*
X105119745Y-223340045D03*
X104220585Y-223340045D03*
X95469745Y-240170045D03*
X94570585Y-240170045D03*
D56*
X91940165Y-238855045D03*
X92600165Y-238855045D03*
X93260165Y-238855045D03*
X93260165Y-239845045D03*
X92600165Y-239845045D03*
X91940165Y-239845045D03*
X89910165Y-229455045D03*
X90570165Y-229455045D03*
X91230165Y-229455045D03*
X91230165Y-230445045D03*
X90570165Y-230445045D03*
X89910165Y-230445045D03*
D57*
X96165165Y-239750045D03*
X96165165Y-239090045D03*
X96165165Y-238430045D03*
X97155165Y-238430045D03*
X97155165Y-239090045D03*
X97155165Y-239750045D03*
X103025165Y-239750045D03*
X103025165Y-239090045D03*
X103025165Y-238430045D03*
X104015165Y-238430045D03*
X104015165Y-239090045D03*
X104015165Y-239750045D03*
D13*
X108929745Y-231340045D03*
X108030585Y-231340045D03*
X166020000Y-231530420D03*
X166020000Y-232429580D03*
X173570420Y-239090000D03*
X174469580Y-239090000D03*
X167800000Y-229500420D03*
X167800000Y-230399580D03*
X168810000Y-232410420D03*
X168810000Y-233309580D03*
X171670420Y-237310000D03*
X172569580Y-237310000D03*
D54*
X168560000Y-222720000D03*
X168560000Y-224220000D03*
D13*
X168509580Y-226520000D03*
X167610420Y-226520000D03*
X167600420Y-225500000D03*
X168499580Y-225500000D03*
X168499580Y-227530000D03*
X167600420Y-227530000D03*
X175739580Y-223340000D03*
X174840420Y-223340000D03*
X174530000Y-237120420D03*
X174530000Y-238019580D03*
X176560000Y-237120420D03*
X176560000Y-238019580D03*
X181390000Y-228230420D03*
X181390000Y-229129580D03*
X181450420Y-230080000D03*
X182349580Y-230080000D03*
X182349580Y-231720000D03*
X181450420Y-231720000D03*
X181390000Y-234070420D03*
X181390000Y-234969580D03*
X181390000Y-224930420D03*
X181390000Y-225829580D03*
X179419580Y-237320000D03*
X178520420Y-237320000D03*
X183489580Y-232740000D03*
X182590420Y-232740000D03*
X170220000Y-222640420D03*
X170220000Y-223539580D03*
D55*
X184170000Y-234400000D03*
X182670000Y-234400000D03*
D13*
X181199580Y-239090000D03*
X180300420Y-239090000D03*
D55*
X173120000Y-223350000D03*
X171620000Y-223350000D03*
D13*
X182920420Y-223620000D03*
X183819580Y-223620000D03*
X183480420Y-230330000D03*
X184379580Y-230330000D03*
X180439580Y-242140000D03*
X179540420Y-242140000D03*
X184369580Y-231340000D03*
X183470420Y-231340000D03*
X167550000Y-232420420D03*
X167550000Y-233319580D03*
X168759580Y-228550000D03*
X167860420Y-228550000D03*
X168759580Y-231350000D03*
X167860420Y-231350000D03*
X168820000Y-229500420D03*
X168820000Y-230399580D03*
X170720000Y-236350420D03*
X170720000Y-237249580D03*
X173520000Y-236360420D03*
X173520000Y-237259580D03*
X171670420Y-236300000D03*
X172569580Y-236300000D03*
X179429580Y-236300000D03*
X178530420Y-236300000D03*
X180370000Y-237249580D03*
X180370000Y-236350420D03*
X177580000Y-237249580D03*
X177580000Y-236350420D03*
D55*
X173120000Y-221820000D03*
X171620000Y-221820000D03*
X184170000Y-235920000D03*
X182670000Y-235920000D03*
D13*
X162320420Y-220770000D03*
X163219580Y-220770000D03*
X161380420Y-224110000D03*
X162279580Y-224110000D03*
X161370420Y-238580000D03*
X162269580Y-238580000D03*
X165329580Y-238580000D03*
X164430420Y-238580000D03*
X163480000Y-237630420D03*
X163480000Y-238529580D03*
X166270000Y-237620420D03*
X166270000Y-238519580D03*
X162340000Y-224160420D03*
X162340000Y-225059580D03*
X162340000Y-238519580D03*
X162340000Y-237620420D03*
X169320000Y-241829580D03*
X169320000Y-240930420D03*
X170020420Y-240870000D03*
X170919580Y-240870000D03*
X172620000Y-241829580D03*
X172620000Y-240930420D03*
X167850420Y-235030000D03*
X168749580Y-235030000D03*
X177250420Y-223340000D03*
X178149580Y-223340000D03*
X180569580Y-223340000D03*
X179670420Y-223340000D03*
D30*
X163720000Y-221985000D03*
D31*
X164710000Y-221785000D03*
D30*
X165700000Y-221985000D03*
X165700000Y-223635000D03*
D31*
X164710000Y-223835000D03*
D30*
X163720000Y-223635000D03*
D56*
X167390000Y-238845000D03*
X168050000Y-238845000D03*
X168710000Y-238845000D03*
X168710000Y-239835000D03*
X168050000Y-239835000D03*
X167390000Y-239835000D03*
D57*
X171625000Y-239750000D03*
X171625000Y-239090000D03*
X171625000Y-238430000D03*
X172615000Y-238430000D03*
X172615000Y-239090000D03*
X172615000Y-239750000D03*
D21*
X170908500Y-226200000D03*
D22*
X170908500Y-226699999D03*
X170908500Y-227200000D03*
X170908500Y-227699999D03*
X170908500Y-228200001D03*
X170908500Y-228700000D03*
X170908500Y-229199999D03*
X170908500Y-229700000D03*
X170908500Y-230200000D03*
X170908500Y-230700001D03*
X170908500Y-231200000D03*
X170908500Y-231699999D03*
X170908500Y-232200001D03*
X170908500Y-232700000D03*
X170908500Y-233200001D03*
D21*
X170908500Y-233700000D03*
X171540000Y-234331500D03*
D23*
X172039999Y-234331500D03*
X172540000Y-234331500D03*
X173039999Y-234331500D03*
X173540001Y-234331500D03*
X174040000Y-234331500D03*
X174539999Y-234331500D03*
X175040000Y-234331500D03*
X175540000Y-234331500D03*
X176040001Y-234331500D03*
X176540000Y-234331500D03*
X177039999Y-234331500D03*
X177540001Y-234331500D03*
X178040000Y-234331500D03*
X178540001Y-234331500D03*
D21*
X179040000Y-234331500D03*
X179671500Y-233700000D03*
D22*
X179671500Y-233200001D03*
X179671500Y-232700000D03*
X179671500Y-232200001D03*
X179671500Y-231699999D03*
X179671500Y-231200000D03*
X179671500Y-230700001D03*
X179671500Y-230200000D03*
X179671500Y-229700000D03*
X179671500Y-229199999D03*
X179671500Y-228700000D03*
X179671500Y-228200001D03*
X179671500Y-227699999D03*
X179671500Y-227200000D03*
X179671500Y-226699999D03*
D21*
X179671500Y-226200000D03*
X179040000Y-225568500D03*
D23*
X178540001Y-225568500D03*
X178040000Y-225568500D03*
X177540001Y-225568500D03*
X177039999Y-225568500D03*
X176540000Y-225568500D03*
X176040001Y-225568500D03*
X175540000Y-225568500D03*
X175040000Y-225568500D03*
X174539999Y-225568500D03*
X174040000Y-225568500D03*
X173540001Y-225568500D03*
X173039999Y-225568500D03*
X172540000Y-225568500D03*
X172039999Y-225568500D03*
D21*
X171540000Y-225568500D03*
D57*
X178485000Y-239750000D03*
X178485000Y-239090000D03*
X178485000Y-238430000D03*
X179475000Y-238430000D03*
X179475000Y-239090000D03*
X179475000Y-239750000D03*
D10*
G36*
X166278131Y-242707901D02*
X165927901Y-243058131D01*
X165577671Y-242707901D01*
X165927901Y-242357671D01*
X166278131Y-242707901D01*
X166278131Y-242707901D01*
G37*
G36*
X165642329Y-242072099D02*
X165292099Y-242422329D01*
X164941869Y-242072099D01*
X165292099Y-241721869D01*
X165642329Y-242072099D01*
X165642329Y-242072099D01*
G37*
D13*
X166699580Y-220900000D03*
X165800420Y-220900000D03*
X164739580Y-228420000D03*
X163840420Y-228420000D03*
X169700000Y-236350420D03*
X169700000Y-237249580D03*
X165760000Y-226129580D03*
X165760000Y-225230420D03*
X166979580Y-224330000D03*
X166080420Y-224330000D03*
X164180420Y-227030000D03*
X165079580Y-227030000D03*
D58*
X71520000Y-234920000D03*
X71520000Y-230920000D03*
X80520000Y-230920000D03*
X80520000Y-234920000D03*
X146960000Y-234920000D03*
X146960000Y-230920000D03*
X155960000Y-230920000D03*
X155960000Y-234920000D03*
D56*
X165360000Y-229455000D03*
X166020000Y-229455000D03*
X166680000Y-229455000D03*
X166680000Y-230445000D03*
X166020000Y-230445000D03*
X165360000Y-230445000D03*
D47*
X183170000Y-226220000D03*
X183170000Y-228420000D03*
X184770000Y-228420000D03*
X184770000Y-226220000D03*
D48*
X168715000Y-198920000D03*
X169265000Y-198920000D03*
D44*
X179500000Y-198755000D03*
X179500000Y-199305000D03*
D48*
X180125000Y-198830000D03*
X180675000Y-198830000D03*
X180125000Y-199430000D03*
X180675000Y-199430000D03*
D44*
X181300000Y-198855000D03*
X181300000Y-199405000D03*
X178900000Y-199305000D03*
X178900000Y-198755000D03*
D48*
X168605000Y-202610000D03*
X169155000Y-202610000D03*
D44*
X179500000Y-200955000D03*
X179500000Y-201505000D03*
D48*
X180125000Y-200830000D03*
X180675000Y-200830000D03*
X180125000Y-201430000D03*
X180675000Y-201430000D03*
D44*
X181300000Y-200855000D03*
X181300000Y-201405000D03*
X191190000Y-217885000D03*
X191190000Y-218435000D03*
X182900000Y-182745000D03*
X182900000Y-182195000D03*
X184160000Y-217845000D03*
X184160000Y-218395000D03*
X178900000Y-201505000D03*
X178900000Y-200955000D03*
D59*
X190190000Y-221840000D03*
X192190000Y-221840000D03*
D60*
X191190000Y-223640000D03*
X191190000Y-220040000D03*
D48*
X203595000Y-202220000D03*
X203045000Y-202220000D03*
X203605000Y-197250000D03*
X203055000Y-197250000D03*
D44*
X188650000Y-182725000D03*
X188650000Y-182175000D03*
X176770000Y-181285000D03*
X176770000Y-181835000D03*
X179500000Y-198155000D03*
X179500000Y-198705000D03*
X179500000Y-199355000D03*
X179500000Y-199905000D03*
X179500000Y-200355000D03*
X179500000Y-200905000D03*
X179500000Y-201555000D03*
X179500000Y-202105000D03*
D37*
X171730000Y-180670000D03*
X171730000Y-175930000D03*
D38*
X169360000Y-178300000D03*
D37*
X166990000Y-175930000D03*
X166990000Y-180670000D03*
D61*
X176760000Y-186720000D03*
X174220000Y-186720000D03*
X176760000Y-183540000D03*
X174220000Y-183540000D03*
X175490000Y-183540000D03*
X175490000Y-186720000D03*
D13*
X163379580Y-190040000D03*
X162480420Y-190040000D03*
D37*
X170950000Y-192370000D03*
X170950000Y-187630000D03*
D38*
X168580000Y-190000000D03*
D37*
X166210000Y-187630000D03*
X166210000Y-192370000D03*
D13*
X155939580Y-186140000D03*
X155040420Y-186140000D03*
X155039580Y-185130000D03*
X154140420Y-185130000D03*
X155040420Y-185130000D03*
X155939580Y-185130000D03*
X198389580Y-188940000D03*
X197490420Y-188940000D03*
X156600420Y-188810000D03*
X157499580Y-188810000D03*
X158399580Y-188800000D03*
X157500420Y-188800000D03*
X164340000Y-190030420D03*
X164340000Y-190929580D03*
D49*
X158090000Y-187045000D03*
X158090000Y-183195000D03*
X160390000Y-187045000D03*
X160390000Y-183195000D03*
D50*
X159240000Y-187045000D03*
D51*
X158265000Y-185720000D03*
X158265000Y-184520000D03*
X160215000Y-184510400D03*
X160215000Y-185720000D03*
D50*
X159245080Y-183195000D03*
D13*
X158870000Y-177659580D03*
X158870000Y-176760420D03*
X158040000Y-177659580D03*
X158040000Y-176760420D03*
X157220000Y-177659580D03*
X157220000Y-176760420D03*
X161820000Y-185719580D03*
X161820000Y-184820420D03*
X160150000Y-181509580D03*
X160150000Y-180610420D03*
X160950000Y-181499580D03*
X160950000Y-180600420D03*
X159350000Y-181509580D03*
X159350000Y-180610420D03*
X157460000Y-179719580D03*
X157460000Y-178820420D03*
X155329580Y-175970000D03*
X154430420Y-175970000D03*
X157460000Y-179720420D03*
X157460000Y-180619580D03*
D53*
X160820000Y-179716100D03*
X160820000Y-178623900D03*
X159720000Y-179716100D03*
X159720000Y-178623900D03*
D13*
X93299745Y-231330045D03*
X92400585Y-231330045D03*
D62*
X131090000Y-245630000D03*
X133630000Y-247230000D03*
D13*
X131920420Y-257030000D03*
X132819580Y-257030000D03*
X131920420Y-253200000D03*
X132819580Y-253200000D03*
X131920420Y-258060000D03*
X132819580Y-258060000D03*
X207360420Y-257030000D03*
X208259580Y-257030000D03*
X207360420Y-253200000D03*
X208259580Y-253200000D03*
D37*
X78960000Y-256090000D03*
X78960000Y-251350000D03*
D38*
X76590000Y-253720000D03*
D37*
X74220000Y-251350000D03*
X74220000Y-256090000D03*
D62*
X206530000Y-245630000D03*
X209070000Y-247230000D03*
D63*
X145805000Y-241855000D03*
X144855000Y-239855000D03*
X146755000Y-239855000D03*
D10*
G36*
X78232099Y-222078131D02*
X77881869Y-221727901D01*
X78232099Y-221377671D01*
X78582329Y-221727901D01*
X78232099Y-222078131D01*
X78232099Y-222078131D01*
G37*
G36*
X78867901Y-221442329D02*
X78517671Y-221092099D01*
X78867901Y-220741869D01*
X79218131Y-221092099D01*
X78867901Y-221442329D01*
X78867901Y-221442329D01*
G37*
G36*
X76862099Y-220678131D02*
X76511869Y-220327901D01*
X76862099Y-219977671D01*
X77212329Y-220327901D01*
X76862099Y-220678131D01*
X76862099Y-220678131D01*
G37*
G36*
X77497901Y-220042329D02*
X77147671Y-219692099D01*
X77497901Y-219341869D01*
X77848131Y-219692099D01*
X77497901Y-220042329D01*
X77497901Y-220042329D01*
G37*
G36*
X76372099Y-220208131D02*
X76021869Y-219857901D01*
X76372099Y-219507671D01*
X76722329Y-219857901D01*
X76372099Y-220208131D01*
X76372099Y-220208131D01*
G37*
G36*
X77007901Y-219572329D02*
X76657671Y-219222099D01*
X77007901Y-218871869D01*
X77358131Y-219222099D01*
X77007901Y-219572329D01*
X77007901Y-219572329D01*
G37*
G36*
X72487901Y-227171869D02*
X72838131Y-227522099D01*
X72487901Y-227872329D01*
X72137671Y-227522099D01*
X72487901Y-227171869D01*
X72487901Y-227171869D01*
G37*
G36*
X71852099Y-227807671D02*
X72202329Y-228157901D01*
X71852099Y-228508131D01*
X71501869Y-228157901D01*
X71852099Y-227807671D01*
X71852099Y-227807671D01*
G37*
G36*
X71997901Y-226681869D02*
X72348131Y-227032099D01*
X71997901Y-227382329D01*
X71647671Y-227032099D01*
X71997901Y-226681869D01*
X71997901Y-226681869D01*
G37*
G36*
X71362099Y-227317671D02*
X71712329Y-227667901D01*
X71362099Y-228018131D01*
X71011869Y-227667901D01*
X71362099Y-227317671D01*
X71362099Y-227317671D01*
G37*
G36*
X71077901Y-225761869D02*
X71428131Y-226112099D01*
X71077901Y-226462329D01*
X70727671Y-226112099D01*
X71077901Y-225761869D01*
X71077901Y-225761869D01*
G37*
G36*
X70442099Y-226397671D02*
X70792329Y-226747901D01*
X70442099Y-227098131D01*
X70091869Y-226747901D01*
X70442099Y-226397671D01*
X70442099Y-226397671D01*
G37*
G36*
X70617901Y-225301869D02*
X70968131Y-225652099D01*
X70617901Y-226002329D01*
X70267671Y-225652099D01*
X70617901Y-225301869D01*
X70617901Y-225301869D01*
G37*
G36*
X69982099Y-225937671D02*
X70332329Y-226287901D01*
X69982099Y-226638131D01*
X69631869Y-226287901D01*
X69982099Y-225937671D01*
X69982099Y-225937671D01*
G37*
G36*
X153668829Y-222066889D02*
X153318599Y-221716659D01*
X153668829Y-221366429D01*
X154019059Y-221716659D01*
X153668829Y-222066889D01*
X153668829Y-222066889D01*
G37*
G36*
X154304631Y-221431087D02*
X153954401Y-221080857D01*
X154304631Y-220730627D01*
X154654861Y-221080857D01*
X154304631Y-221431087D01*
X154304631Y-221431087D01*
G37*
G36*
X153216280Y-221600199D02*
X152866050Y-221249969D01*
X153216280Y-220899739D01*
X153566510Y-221249969D01*
X153216280Y-221600199D01*
X153216280Y-221600199D01*
G37*
G36*
X153852082Y-220964397D02*
X153501852Y-220614167D01*
X153852082Y-220263937D01*
X154202312Y-220614167D01*
X153852082Y-220964397D01*
X153852082Y-220964397D01*
G37*
G36*
X152297041Y-220680961D02*
X151946811Y-220330731D01*
X152297041Y-219980501D01*
X152647271Y-220330731D01*
X152297041Y-220680961D01*
X152297041Y-220680961D01*
G37*
G36*
X152932843Y-220045159D02*
X152582613Y-219694929D01*
X152932843Y-219344699D01*
X153283073Y-219694929D01*
X152932843Y-220045159D01*
X152932843Y-220045159D01*
G37*
G36*
X151816209Y-220200127D02*
X151465979Y-219849897D01*
X151816209Y-219499667D01*
X152166439Y-219849897D01*
X151816209Y-220200127D01*
X151816209Y-220200127D01*
G37*
G36*
X152452011Y-219564325D02*
X152101781Y-219214095D01*
X152452011Y-218863865D01*
X152802241Y-219214095D01*
X152452011Y-219564325D01*
X152452011Y-219564325D01*
G37*
G36*
X147926527Y-227165300D02*
X148276757Y-227515530D01*
X147926527Y-227865760D01*
X147576297Y-227515530D01*
X147926527Y-227165300D01*
X147926527Y-227165300D01*
G37*
G36*
X147290725Y-227801102D02*
X147640955Y-228151332D01*
X147290725Y-228501562D01*
X146940495Y-228151332D01*
X147290725Y-227801102D01*
X147290725Y-227801102D01*
G37*
G36*
X147438624Y-226677395D02*
X147788854Y-227027625D01*
X147438624Y-227377855D01*
X147088394Y-227027625D01*
X147438624Y-226677395D01*
X147438624Y-226677395D01*
G37*
G36*
X146802822Y-227313197D02*
X147153052Y-227663427D01*
X146802822Y-228013657D01*
X146452592Y-227663427D01*
X146802822Y-227313197D01*
X146802822Y-227313197D01*
G37*
G36*
X146519384Y-225758157D02*
X146869614Y-226108387D01*
X146519384Y-226458617D01*
X146169154Y-226108387D01*
X146519384Y-225758157D01*
X146519384Y-225758157D01*
G37*
G36*
X145883582Y-226393959D02*
X146233812Y-226744189D01*
X145883582Y-227094419D01*
X145533352Y-226744189D01*
X145883582Y-226393959D01*
X145883582Y-226393959D01*
G37*
G36*
X146059766Y-225298537D02*
X146409996Y-225648767D01*
X146059766Y-225998997D01*
X145709536Y-225648767D01*
X146059766Y-225298537D01*
X146059766Y-225298537D01*
G37*
G36*
X145423964Y-225934339D02*
X145774194Y-226284569D01*
X145423964Y-226634799D01*
X145073734Y-226284569D01*
X145423964Y-225934339D01*
X145423964Y-225934339D01*
G37*
D13*
X131920000Y-259909580D03*
X131920000Y-259010420D03*
X150749580Y-240780000D03*
X149850420Y-240780000D03*
X131910000Y-251149580D03*
X131910000Y-250250420D03*
X131910420Y-252120000D03*
X132809580Y-252120000D03*
X147910420Y-240770000D03*
X148809580Y-240770000D03*
X207360420Y-258060000D03*
X208259580Y-258060000D03*
X207360000Y-259909580D03*
X207360000Y-259010420D03*
X207350000Y-251149580D03*
X207350000Y-250250420D03*
X207350420Y-252120000D03*
X208249580Y-252120000D03*
D64*
X153070000Y-244170000D03*
X153070000Y-240770000D03*
D10*
G36*
X74270901Y-226349328D02*
X74518388Y-226596815D01*
X73387017Y-227728186D01*
X73139530Y-227480699D01*
X74270901Y-226349328D01*
X74270901Y-226349328D01*
G37*
G36*
X73811282Y-225889709D02*
X74058769Y-226137196D01*
X72927398Y-227268567D01*
X72679911Y-227021080D01*
X73811282Y-225889709D01*
X73811282Y-225889709D01*
G37*
G36*
X73351662Y-225430089D02*
X73599149Y-225677576D01*
X72467778Y-226808947D01*
X72220291Y-226561460D01*
X73351662Y-225430089D01*
X73351662Y-225430089D01*
G37*
G36*
X72892043Y-224970470D02*
X73139530Y-225217957D01*
X72008159Y-226349328D01*
X71760672Y-226101841D01*
X72892043Y-224970470D01*
X72892043Y-224970470D01*
G37*
G36*
X72432424Y-224510851D02*
X72679911Y-224758338D01*
X71548540Y-225889709D01*
X71301053Y-225642222D01*
X72432424Y-224510851D01*
X72432424Y-224510851D01*
G37*
G36*
X71972804Y-224051231D02*
X72220291Y-224298718D01*
X71088920Y-225430089D01*
X70841433Y-225182602D01*
X71972804Y-224051231D01*
X71972804Y-224051231D01*
G37*
G36*
X71513185Y-223591612D02*
X71760672Y-223839099D01*
X70629301Y-224970470D01*
X70381814Y-224722983D01*
X71513185Y-223591612D01*
X71513185Y-223591612D01*
G37*
G36*
X75472983Y-219631814D02*
X75720470Y-219879301D01*
X74589099Y-221010672D01*
X74341612Y-220763185D01*
X75472983Y-219631814D01*
X75472983Y-219631814D01*
G37*
G36*
X75932602Y-220091433D02*
X76180089Y-220338920D01*
X75048718Y-221470291D01*
X74801231Y-221222804D01*
X75932602Y-220091433D01*
X75932602Y-220091433D01*
G37*
G36*
X76392222Y-220551053D02*
X76639709Y-220798540D01*
X75508338Y-221929911D01*
X75260851Y-221682424D01*
X76392222Y-220551053D01*
X76392222Y-220551053D01*
G37*
G36*
X76851841Y-221010672D02*
X77099328Y-221258159D01*
X75967957Y-222389530D01*
X75720470Y-222142043D01*
X76851841Y-221010672D01*
X76851841Y-221010672D01*
G37*
G36*
X77311460Y-221470291D02*
X77558947Y-221717778D01*
X76427576Y-222849149D01*
X76180089Y-222601662D01*
X77311460Y-221470291D01*
X77311460Y-221470291D01*
G37*
G36*
X77771080Y-221929911D02*
X78018567Y-222177398D01*
X76887196Y-223308769D01*
X76639709Y-223061282D01*
X77771080Y-221929911D01*
X77771080Y-221929911D01*
G37*
G36*
X78230699Y-222389530D02*
X78478186Y-222637017D01*
X77346815Y-223768388D01*
X77099328Y-223520901D01*
X78230699Y-222389530D01*
X78230699Y-222389530D01*
G37*
G36*
X149712269Y-226344970D02*
X149959756Y-226592457D01*
X148828385Y-227723828D01*
X148580898Y-227476341D01*
X149712269Y-226344970D01*
X149712269Y-226344970D01*
G37*
G36*
X149252650Y-225885351D02*
X149500137Y-226132838D01*
X148368766Y-227264209D01*
X148121279Y-227016722D01*
X149252650Y-225885351D01*
X149252650Y-225885351D01*
G37*
G36*
X148793030Y-225425731D02*
X149040517Y-225673218D01*
X147909146Y-226804589D01*
X147661659Y-226557102D01*
X148793030Y-225425731D01*
X148793030Y-225425731D01*
G37*
G36*
X148333411Y-224966112D02*
X148580898Y-225213599D01*
X147449527Y-226344970D01*
X147202040Y-226097483D01*
X148333411Y-224966112D01*
X148333411Y-224966112D01*
G37*
G36*
X147873792Y-224506493D02*
X148121279Y-224753980D01*
X146989908Y-225885351D01*
X146742421Y-225637864D01*
X147873792Y-224506493D01*
X147873792Y-224506493D01*
G37*
G36*
X147414172Y-224046873D02*
X147661659Y-224294360D01*
X146530288Y-225425731D01*
X146282801Y-225178244D01*
X147414172Y-224046873D01*
X147414172Y-224046873D01*
G37*
G36*
X146954553Y-223587254D02*
X147202040Y-223834741D01*
X146070669Y-224966112D01*
X145823182Y-224718625D01*
X146954553Y-223587254D01*
X146954553Y-223587254D01*
G37*
G36*
X150914351Y-219627456D02*
X151161838Y-219874943D01*
X150030467Y-221006314D01*
X149782980Y-220758827D01*
X150914351Y-219627456D01*
X150914351Y-219627456D01*
G37*
G36*
X151373970Y-220087075D02*
X151621457Y-220334562D01*
X150490086Y-221465933D01*
X150242599Y-221218446D01*
X151373970Y-220087075D01*
X151373970Y-220087075D01*
G37*
G36*
X151833590Y-220546695D02*
X152081077Y-220794182D01*
X150949706Y-221925553D01*
X150702219Y-221678066D01*
X151833590Y-220546695D01*
X151833590Y-220546695D01*
G37*
G36*
X152293209Y-221006314D02*
X152540696Y-221253801D01*
X151409325Y-222385172D01*
X151161838Y-222137685D01*
X152293209Y-221006314D01*
X152293209Y-221006314D01*
G37*
G36*
X152752828Y-221465933D02*
X153000315Y-221713420D01*
X151868944Y-222844791D01*
X151621457Y-222597304D01*
X152752828Y-221465933D01*
X152752828Y-221465933D01*
G37*
G36*
X153212448Y-221925553D02*
X153459935Y-222173040D01*
X152328564Y-223304411D01*
X152081077Y-223056924D01*
X153212448Y-221925553D01*
X153212448Y-221925553D01*
G37*
G36*
X153672067Y-222385172D02*
X153919554Y-222632659D01*
X152788183Y-223764030D01*
X152540696Y-223516543D01*
X153672067Y-222385172D01*
X153672067Y-222385172D01*
G37*
G36*
X77772099Y-221608131D02*
X77421869Y-221257901D01*
X77772099Y-220907671D01*
X78122329Y-221257901D01*
X77772099Y-221608131D01*
X77772099Y-221608131D01*
G37*
G36*
X78407901Y-220972329D02*
X78057671Y-220622099D01*
X78407901Y-220271869D01*
X78758131Y-220622099D01*
X78407901Y-220972329D01*
X78407901Y-220972329D01*
G37*
D65*
X174035160Y-196378880D03*
X174035160Y-197648880D03*
X174035160Y-198918880D03*
X170857620Y-198918880D03*
X170857620Y-196378880D03*
D66*
X188638880Y-213124840D03*
X189908880Y-213124840D03*
X191178880Y-213124840D03*
X191178880Y-216302380D03*
X188638880Y-216302380D03*
X191171120Y-187495160D03*
X189901120Y-187495160D03*
X188631120Y-187495160D03*
X188631120Y-184317620D03*
X191171120Y-184317620D03*
D67*
X200130000Y-202220000D03*
D68*
X199215000Y-201510000D03*
D69*
X199495000Y-202220000D03*
D68*
X199215000Y-202930000D03*
D69*
X200765000Y-202930000D03*
D68*
X201045000Y-202220000D03*
D69*
X200765000Y-201510000D03*
D67*
X200120000Y-197240000D03*
D68*
X199205000Y-196530000D03*
D69*
X199485000Y-197240000D03*
D68*
X199205000Y-197950000D03*
D69*
X200755000Y-197950000D03*
D68*
X201035000Y-197240000D03*
D69*
X200755000Y-196530000D03*
D70*
X182910000Y-185620000D03*
D71*
X182200000Y-186535000D03*
D72*
X182910000Y-186255000D03*
D71*
X183620000Y-186535000D03*
D72*
X183620000Y-184985000D03*
D71*
X182910000Y-184705000D03*
D72*
X182200000Y-184985000D03*
D73*
X190810000Y-215650000D03*
X190810000Y-215000000D03*
X190810000Y-214350000D03*
X189010000Y-214350000D03*
X189010000Y-215000000D03*
X189010000Y-215650000D03*
X189000000Y-184960000D03*
X189000000Y-185610000D03*
X189000000Y-186260000D03*
X190800000Y-186260000D03*
X190800000Y-185610000D03*
X190800000Y-184960000D03*
D13*
X208680000Y-214049580D03*
X208680000Y-213150420D03*
X124250000Y-220420420D03*
X124250000Y-221319580D03*
X199690000Y-220420420D03*
X199690000Y-221319580D03*
X133240000Y-214049580D03*
X133240000Y-213150420D03*
X133240000Y-216400420D03*
X133240000Y-217299580D03*
X208680000Y-216400420D03*
X208680000Y-217299580D03*
X130560000Y-220580420D03*
X130560000Y-221479580D03*
X206000000Y-220580420D03*
X206000000Y-221479580D03*
X100930000Y-152409580D03*
X100930000Y-151510420D03*
X95180000Y-152330420D03*
X95180000Y-153229580D03*
D54*
X94220000Y-151840000D03*
X94220000Y-153340000D03*
D13*
X96790000Y-147930420D03*
X96790000Y-148829580D03*
X92620000Y-148300420D03*
X92620000Y-149199580D03*
D54*
X91600000Y-148100000D03*
X91600000Y-149600000D03*
D13*
X95349580Y-145880000D03*
X94450420Y-145880000D03*
X93160000Y-144779580D03*
X93160000Y-143880420D03*
X103840000Y-145869580D03*
X103840000Y-144970420D03*
D54*
X94250000Y-142680000D03*
X94250000Y-141180000D03*
D13*
X95260000Y-142609580D03*
X95260000Y-141710420D03*
X100820420Y-143900000D03*
X101719580Y-143900000D03*
X100790420Y-141970000D03*
X101689580Y-141970000D03*
X100650000Y-138629580D03*
X100650000Y-137730420D03*
X176375000Y-152404580D03*
X176375000Y-151505420D03*
X170625000Y-152325420D03*
X170625000Y-153224580D03*
D54*
X169665000Y-151835000D03*
X169665000Y-153335000D03*
D13*
X172235000Y-147925420D03*
X172235000Y-148824580D03*
D55*
X181460000Y-146900000D03*
X182960000Y-146900000D03*
D13*
X168065000Y-148295420D03*
X168065000Y-149194580D03*
D54*
X167035000Y-148095000D03*
X167035000Y-149595000D03*
D13*
X170784580Y-145865000D03*
X169885420Y-145865000D03*
X168605000Y-144774580D03*
X168605000Y-143875420D03*
X179295000Y-145864580D03*
X179295000Y-144965420D03*
D54*
X169710000Y-142690000D03*
X169710000Y-141190000D03*
D13*
X170705000Y-142604580D03*
X170705000Y-141705420D03*
X176265420Y-143895000D03*
X177164580Y-143895000D03*
X176235420Y-141965000D03*
X177134580Y-141965000D03*
X176095000Y-138624580D03*
X176095000Y-137725420D03*
X114380000Y-149660420D03*
X114380000Y-150559580D03*
X117480000Y-150819580D03*
X117480000Y-149920420D03*
X118660000Y-150819580D03*
X118660000Y-149920420D03*
X110210000Y-146670420D03*
X110210000Y-147569580D03*
X110200000Y-144650420D03*
X110200000Y-145549580D03*
X111230000Y-141560420D03*
X111230000Y-142459580D03*
X112360000Y-142550420D03*
X112360000Y-143449580D03*
X114380000Y-142390420D03*
X114380000Y-143289580D03*
X184735000Y-159384580D03*
X184735000Y-158485420D03*
X189825000Y-149655420D03*
X189825000Y-150554580D03*
X192925000Y-150814580D03*
X192925000Y-149915420D03*
X194105000Y-150814580D03*
X194105000Y-149915420D03*
X185655000Y-146665420D03*
X185655000Y-147564580D03*
X185645000Y-144645420D03*
X185645000Y-145544580D03*
X186675000Y-141555420D03*
X186675000Y-142454580D03*
X187805000Y-142545420D03*
X187805000Y-143444580D03*
X189825000Y-142385420D03*
X189825000Y-143284580D03*
X100940000Y-153300420D03*
X100940000Y-154199580D03*
D55*
X96200000Y-153400000D03*
X97700000Y-153400000D03*
D13*
X97699580Y-150480000D03*
X96800420Y-150480000D03*
D55*
X94160000Y-148150000D03*
X95660000Y-148150000D03*
X96050000Y-144180000D03*
X97550000Y-144180000D03*
D13*
X176375000Y-153305420D03*
X176375000Y-154204580D03*
D55*
X171645000Y-153395000D03*
X173145000Y-153395000D03*
D13*
X173144580Y-150485000D03*
X172245420Y-150485000D03*
D55*
X169605000Y-148145000D03*
X171105000Y-148145000D03*
X171495000Y-144175000D03*
X172995000Y-144175000D03*
D13*
X113480420Y-144470000D03*
X114379580Y-144470000D03*
X188925420Y-144465000D03*
X189824580Y-144465000D03*
X93039580Y-153360000D03*
X92140420Y-153360000D03*
X105140420Y-148690000D03*
X106039580Y-148690000D03*
X105120420Y-147700000D03*
X106019580Y-147700000D03*
X91990000Y-144769580D03*
X91990000Y-143870420D03*
X168474580Y-153355000D03*
X167575420Y-153355000D03*
X180585420Y-148695000D03*
X181484580Y-148695000D03*
X180565420Y-147705000D03*
X181464580Y-147705000D03*
X167425000Y-144764580D03*
X167425000Y-143865420D03*
X117479580Y-148830000D03*
X116580420Y-148830000D03*
X112239580Y-147580000D03*
X111340420Y-147580000D03*
X112249580Y-146080000D03*
X111350420Y-146080000D03*
X186115420Y-159705000D03*
X187014580Y-159705000D03*
X187024580Y-158575000D03*
X186125420Y-158575000D03*
X192924580Y-148825000D03*
X192025420Y-148825000D03*
X187684580Y-147575000D03*
X186785420Y-147575000D03*
X187694580Y-146075000D03*
X186795420Y-146075000D03*
D74*
X102580000Y-147540000D03*
X102580000Y-148040000D03*
X102580000Y-147040000D03*
X102580000Y-146540000D03*
X102580000Y-146040000D03*
X102580000Y-148540000D03*
X98780000Y-148540000D03*
X98780000Y-146040000D03*
X98780000Y-146540000D03*
X98780000Y-147040000D03*
X98780000Y-148040000D03*
X98780000Y-147540000D03*
D75*
X100430000Y-145390000D03*
X99930000Y-145390000D03*
X100930000Y-145390000D03*
X101430000Y-145390000D03*
X101930000Y-145390000D03*
X99430000Y-145390000D03*
X99430000Y-149190000D03*
X101930000Y-149190000D03*
X101430000Y-149190000D03*
X100930000Y-149190000D03*
X99930000Y-149190000D03*
D76*
X100680000Y-147290000D03*
D75*
X100430000Y-149190000D03*
D74*
X178025000Y-147535000D03*
X178025000Y-148035000D03*
X178025000Y-147035000D03*
X178025000Y-146535000D03*
X178025000Y-146035000D03*
X178025000Y-148535000D03*
X174225000Y-148535000D03*
X174225000Y-146035000D03*
X174225000Y-146535000D03*
X174225000Y-147035000D03*
X174225000Y-148035000D03*
X174225000Y-147535000D03*
D75*
X175875000Y-145385000D03*
X175375000Y-145385000D03*
X176375000Y-145385000D03*
X176875000Y-145385000D03*
X177375000Y-145385000D03*
X174875000Y-145385000D03*
X174875000Y-149185000D03*
X177375000Y-149185000D03*
X176875000Y-149185000D03*
X176375000Y-149185000D03*
X175375000Y-149185000D03*
D76*
X176125000Y-147285000D03*
D75*
X175875000Y-149185000D03*
D77*
X181475000Y-144755000D03*
X180175000Y-144755000D03*
X180175000Y-142555000D03*
X180825000Y-142555000D03*
X181475000Y-142555000D03*
D78*
X184715000Y-157305000D03*
X184715000Y-156005000D03*
X186915000Y-156005000D03*
X186915000Y-156655000D03*
X186915000Y-157305000D03*
D37*
X201230000Y-180920000D03*
X201230000Y-176180000D03*
D38*
X198860000Y-178550000D03*
D37*
X196490000Y-176180000D03*
X196490000Y-180920000D03*
D79*
X188880000Y-260220000D03*
X180680000Y-260220000D03*
D80*
X184780000Y-261470000D03*
D81*
X171510000Y-198550000D03*
X172160000Y-198550000D03*
X172810000Y-198550000D03*
X172810000Y-196750000D03*
X172160000Y-196750000D03*
X171510000Y-196750000D03*
D82*
X181420000Y-217820000D03*
X181420000Y-220720000D03*
D83*
X179920000Y-219270000D03*
X182920000Y-219270000D03*
D13*
X185279580Y-219270000D03*
X184380420Y-219270000D03*
X184779580Y-245290000D03*
X183880420Y-245290000D03*
X184780000Y-246189580D03*
X184780000Y-245290420D03*
X163290000Y-217090420D03*
X163290000Y-217989580D03*
D62*
X178565000Y-151405000D03*
X181105000Y-153005000D03*
X178395000Y-137325000D03*
X180935000Y-138925000D03*
X184695000Y-151025000D03*
X187235000Y-152625000D03*
D13*
X181705000Y-160865420D03*
X181705000Y-161764580D03*
X182870000Y-130599580D03*
X182870000Y-129700420D03*
X185940000Y-124289580D03*
X185940000Y-123390420D03*
X185290420Y-128950000D03*
X186189580Y-128950000D03*
D84*
X181945000Y-164155000D03*
X181945000Y-163655000D03*
X181945000Y-163155000D03*
X183805000Y-163155000D03*
X183805000Y-163655000D03*
X183805000Y-164155000D03*
D85*
X182375000Y-162725000D03*
X182875000Y-162725000D03*
X183375000Y-162725000D03*
X183375000Y-164585000D03*
X182875000Y-164585000D03*
D86*
X182875000Y-163655000D03*
D85*
X182375000Y-164585000D03*
D84*
X183805000Y-132165000D03*
X183805000Y-132665000D03*
X183805000Y-133165000D03*
X181945000Y-133165000D03*
X181945000Y-132665000D03*
X181945000Y-132165000D03*
D85*
X183375000Y-133595000D03*
X182875000Y-133595000D03*
X182375000Y-133595000D03*
X182375000Y-131735000D03*
X182875000Y-131735000D03*
D86*
X182875000Y-132665000D03*
D85*
X183375000Y-131735000D03*
D84*
X186875000Y-126515000D03*
X186875000Y-127015000D03*
X186875000Y-127515000D03*
X185015000Y-127515000D03*
X185015000Y-127015000D03*
X185015000Y-126515000D03*
D85*
X186445000Y-127945000D03*
X185945000Y-127945000D03*
X185445000Y-127945000D03*
X185445000Y-126085000D03*
X185945000Y-126085000D03*
D86*
X185945000Y-127015000D03*
D85*
X186445000Y-126085000D03*
D79*
X160460000Y-72660000D03*
X168660000Y-72660000D03*
D80*
X164560000Y-71410000D03*
D13*
X210939580Y-187750000D03*
X210040420Y-187750000D03*
X210939580Y-186900000D03*
X210040420Y-186900000D03*
D79*
X187920000Y-72660000D03*
X196120000Y-72660000D03*
D80*
X192020000Y-71410000D03*
D10*
G36*
X130068131Y-90477901D02*
X129717901Y-90828131D01*
X129367671Y-90477901D01*
X129717901Y-90127671D01*
X130068131Y-90477901D01*
X130068131Y-90477901D01*
G37*
G36*
X129432329Y-89842099D02*
X129082099Y-90192329D01*
X128731869Y-89842099D01*
X129082099Y-89491869D01*
X129432329Y-89842099D01*
X129432329Y-89842099D01*
G37*
D87*
X212165000Y-189760000D03*
X212165000Y-190260000D03*
X212165000Y-190760000D03*
X212165000Y-191260000D03*
X212165000Y-191760000D03*
X212165000Y-192260000D03*
X212165000Y-192760000D03*
X212165000Y-193260000D03*
X207215000Y-193260000D03*
X207215000Y-192760000D03*
X207215000Y-192260000D03*
X207215000Y-191760000D03*
X207215000Y-191260000D03*
X207215000Y-190760000D03*
X207215000Y-190260000D03*
X207215000Y-189760000D03*
D88*
X211440000Y-193985000D03*
X210940000Y-193985000D03*
X210440000Y-193985000D03*
X209940000Y-193985000D03*
X209440000Y-193985000D03*
X208940000Y-193985000D03*
X208440000Y-193985000D03*
X207940000Y-193985000D03*
X207940000Y-189035000D03*
X208440000Y-189035000D03*
X208940000Y-189035000D03*
X209440000Y-189035000D03*
X209940000Y-189035000D03*
X210440000Y-189035000D03*
X210940000Y-189035000D03*
D89*
X209690000Y-191510000D03*
D88*
X211440000Y-189035000D03*
D90*
X208430000Y-161615000D03*
X208430000Y-167265000D03*
D91*
X208430000Y-164440000D03*
D90*
X208430000Y-161615000D03*
X208430000Y-167265000D03*
D91*
X208430000Y-164440000D03*
D13*
X210940000Y-185170420D03*
X210940000Y-186069580D03*
X193660420Y-130680000D03*
X194559580Y-130680000D03*
X188999580Y-127020000D03*
X188100420Y-127020000D03*
D79*
X149250000Y-260220000D03*
X141050000Y-260220000D03*
D80*
X145150000Y-261470000D03*
D92*
X166450000Y-205370000D03*
X169350000Y-205370000D03*
D83*
X167900000Y-206870000D03*
X167900000Y-203870000D03*
D13*
X197369580Y-128810000D03*
X196470420Y-128810000D03*
X208440000Y-120690420D03*
X208440000Y-121589580D03*
X164949580Y-244000000D03*
X164050420Y-244000000D03*
X164950000Y-243100420D03*
X164950000Y-243999580D03*
X163289580Y-217090000D03*
X162390420Y-217090000D03*
X167900000Y-201710420D03*
X167900000Y-202609580D03*
D84*
X195240000Y-128310000D03*
X195240000Y-128810000D03*
X195240000Y-129310000D03*
X193380000Y-129310000D03*
X193380000Y-128810000D03*
X193380000Y-128310000D03*
D85*
X194810000Y-129740000D03*
X194310000Y-129740000D03*
X193810000Y-129740000D03*
X193810000Y-127880000D03*
X194310000Y-127880000D03*
D86*
X194310000Y-128810000D03*
D85*
X194810000Y-127880000D03*
D13*
X123160000Y-138810420D03*
X123160000Y-139709580D03*
X129379580Y-144620000D03*
X128480420Y-144620000D03*
X125900000Y-145839580D03*
X125900000Y-144940420D03*
X126710000Y-145839580D03*
X126710000Y-144940420D03*
X198595000Y-138805420D03*
X198595000Y-139704580D03*
X204814580Y-144615000D03*
X203915420Y-144615000D03*
X201335000Y-145834580D03*
X201335000Y-144935420D03*
X202155000Y-145834580D03*
X202155000Y-144935420D03*
X123159580Y-140630000D03*
X122260420Y-140630000D03*
X124909580Y-145870000D03*
X124010420Y-145870000D03*
X198594580Y-140635000D03*
X197695420Y-140635000D03*
X200344580Y-145865000D03*
X199445420Y-145865000D03*
X127820000Y-136330420D03*
X127820000Y-137229580D03*
X126930420Y-138490000D03*
X127829580Y-138490000D03*
X125910000Y-142070420D03*
X125910000Y-142969580D03*
X203265000Y-136335420D03*
X203265000Y-137234580D03*
X202365420Y-138495000D03*
X203264580Y-138495000D03*
X201345000Y-142075420D03*
X201345000Y-142974580D03*
D77*
X128480000Y-142720000D03*
X127180000Y-142720000D03*
X127180000Y-140520000D03*
X127830000Y-140520000D03*
X128480000Y-140520000D03*
D93*
X124545000Y-142510000D03*
X124545000Y-143020000D03*
X124545000Y-143530000D03*
D94*
X123700000Y-144375000D03*
X123190000Y-144375000D03*
X122680000Y-144375000D03*
D93*
X121835000Y-143530000D03*
X121835000Y-143020000D03*
X121835000Y-142510000D03*
D94*
X122680000Y-141665000D03*
X123700000Y-141665000D03*
D95*
X123190000Y-143020000D03*
D94*
X123190000Y-141665000D03*
D77*
X203915000Y-142725000D03*
X202615000Y-142725000D03*
X202615000Y-140525000D03*
X203265000Y-140525000D03*
X203915000Y-140525000D03*
D93*
X199980000Y-142515000D03*
X199980000Y-143025000D03*
X199980000Y-143535000D03*
D94*
X199135000Y-144380000D03*
X198625000Y-144380000D03*
X198115000Y-144380000D03*
D93*
X197270000Y-143535000D03*
X197270000Y-143025000D03*
X197270000Y-142515000D03*
D94*
X198115000Y-141670000D03*
X199135000Y-141670000D03*
D95*
X198625000Y-143025000D03*
D94*
X198625000Y-141670000D03*
D13*
X182210420Y-134630000D03*
X183109580Y-134630000D03*
X182900000Y-181069580D03*
X182900000Y-180170420D03*
D54*
X176925000Y-167545000D03*
X176925000Y-166045000D03*
X178005000Y-166045000D03*
X178005000Y-167545000D03*
D13*
X178945000Y-166735420D03*
X178945000Y-167634580D03*
X182900000Y-178819580D03*
X182900000Y-177920420D03*
D55*
X175515000Y-166125000D03*
X174015000Y-166125000D03*
D96*
X182895000Y-177630000D03*
X182895000Y-179110000D03*
D97*
X183845000Y-178370000D03*
D55*
X167770000Y-198920000D03*
X166270000Y-198920000D03*
D67*
X172090000Y-202610000D03*
D68*
X173005000Y-203320000D03*
D69*
X172725000Y-202610000D03*
D68*
X173005000Y-201900000D03*
D69*
X171455000Y-201900000D03*
D68*
X171175000Y-202610000D03*
D69*
X171455000Y-203320000D03*
D13*
X164930000Y-254760420D03*
X164930000Y-255659580D03*
X167130000Y-253069580D03*
X167130000Y-252170420D03*
X161325420Y-246825000D03*
X162224580Y-246825000D03*
X161325420Y-247845000D03*
X162224580Y-247845000D03*
X167130000Y-250889580D03*
X167130000Y-249990420D03*
D54*
X162290000Y-249100000D03*
X162290000Y-250600000D03*
X188650000Y-179600000D03*
X188650000Y-181100000D03*
D13*
X170680420Y-253070000D03*
X171579580Y-253070000D03*
X170680420Y-249990000D03*
X171579580Y-249990000D03*
X169830000Y-253069580D03*
X169830000Y-252170420D03*
X169830000Y-249990420D03*
X169830000Y-250889580D03*
X168969580Y-253070000D03*
X168070420Y-253070000D03*
X161340420Y-245790000D03*
X162239580Y-245790000D03*
X168969580Y-249990000D03*
X168070420Y-249990000D03*
D98*
X164420000Y-250645000D03*
X164920000Y-250645000D03*
X165420000Y-250645000D03*
X165920000Y-250645000D03*
X165920000Y-252415000D03*
X165420000Y-252415000D03*
X164920000Y-252415000D03*
D99*
X165170000Y-251530000D03*
D98*
X164420000Y-252415000D03*
D13*
X164920000Y-247390420D03*
X164920000Y-248289580D03*
X164920420Y-247390000D03*
X165819580Y-247390000D03*
D79*
X169020000Y-260220000D03*
X160820000Y-260220000D03*
D80*
X164920000Y-261470000D03*
D13*
X164920420Y-255660000D03*
X165819580Y-255660000D03*
D73*
X183790000Y-215650000D03*
X183790000Y-215000000D03*
X183790000Y-214350000D03*
X181990000Y-214350000D03*
X181990000Y-215000000D03*
X181990000Y-215650000D03*
D66*
X181618880Y-213114840D03*
X182888880Y-213114840D03*
X184158880Y-213114840D03*
X184158880Y-216292380D03*
X181618880Y-216292380D03*
D37*
X210940000Y-229620000D03*
X210940000Y-224880000D03*
D38*
X208570000Y-227250000D03*
D37*
X206200000Y-224880000D03*
X206200000Y-229620000D03*
D13*
X170919580Y-240870000D03*
X170020420Y-240870000D03*
X170660000Y-218759580D03*
X170660000Y-217860420D03*
X169710000Y-218759580D03*
X169710000Y-217860420D03*
X168770000Y-218759580D03*
X168770000Y-217860420D03*
X167810000Y-218749580D03*
X167810000Y-217850420D03*
X148810000Y-238760420D03*
X148810000Y-239659580D03*
X186040000Y-232679580D03*
X186040000Y-231780420D03*
X187180000Y-230480420D03*
X187180000Y-231379580D03*
D100*
X145730000Y-243530000D03*
X147230000Y-243530000D03*
X145530000Y-238370000D03*
X147030000Y-238370000D03*
D13*
X168079580Y-164980000D03*
X167180420Y-164980000D03*
X146470420Y-143330000D03*
X147369580Y-143330000D03*
X149169580Y-153590000D03*
X148270420Y-153590000D03*
X149589580Y-143330000D03*
X148690420Y-143330000D03*
X145420420Y-123140000D03*
X146319580Y-123140000D03*
X151870420Y-123290000D03*
X152769580Y-123290000D03*
X145330420Y-127000000D03*
X146229580Y-127000000D03*
X151890420Y-114620000D03*
X152789580Y-114620000D03*
X151870420Y-126960000D03*
X152769580Y-126960000D03*
X151900420Y-118890000D03*
X152799580Y-118890000D03*
X156160420Y-143290000D03*
X157059580Y-143290000D03*
X159189580Y-143290000D03*
X158290420Y-143290000D03*
X158009580Y-155490000D03*
X157110420Y-155490000D03*
X145530420Y-104400000D03*
X146429580Y-104400000D03*
X151900420Y-110370000D03*
X152799580Y-110370000D03*
D36*
X150560000Y-154455000D03*
X150560000Y-155105000D03*
X150560000Y-155755000D03*
X150560000Y-156405000D03*
X150560000Y-157055000D03*
X150560000Y-157705000D03*
X150560000Y-158355000D03*
X150560000Y-159005000D03*
X144760000Y-159005000D03*
X144760000Y-158355000D03*
X144760000Y-157705000D03*
X144760000Y-157055000D03*
X144760000Y-154455000D03*
X144760000Y-155105000D03*
X144760000Y-155755000D03*
X144760000Y-156405000D03*
X150870000Y-144515000D03*
X150870000Y-145165000D03*
X150870000Y-145815000D03*
X150870000Y-146465000D03*
X150870000Y-147115000D03*
X150870000Y-147765000D03*
X150870000Y-148415000D03*
X150870000Y-149065000D03*
X150870000Y-149715000D03*
X150870000Y-150365000D03*
X145070000Y-150365000D03*
X145070000Y-149715000D03*
X145070000Y-149065000D03*
X145070000Y-148415000D03*
X145070000Y-147765000D03*
X145070000Y-144515000D03*
X145070000Y-145165000D03*
X145070000Y-145815000D03*
X145070000Y-146465000D03*
X145070000Y-147115000D03*
D78*
X146310000Y-124420000D03*
X146310000Y-125720000D03*
X144110000Y-125720000D03*
X144110000Y-125070000D03*
X144110000Y-124420000D03*
X152780000Y-124420000D03*
X152780000Y-125720000D03*
X150580000Y-125720000D03*
X150580000Y-125070000D03*
X150580000Y-124420000D03*
D32*
X146260000Y-128140000D03*
X146260000Y-130040000D03*
X143860000Y-130040000D03*
X143860000Y-129090000D03*
X143860000Y-128140000D03*
X152790000Y-115790000D03*
X152790000Y-117690000D03*
X150390000Y-117690000D03*
X150390000Y-116740000D03*
X150390000Y-115790000D03*
X152780000Y-128190000D03*
X152780000Y-130090000D03*
X150380000Y-130090000D03*
X150380000Y-129140000D03*
X150380000Y-128190000D03*
D36*
X160540000Y-144415000D03*
X160540000Y-145065000D03*
X160540000Y-145715000D03*
X160540000Y-146365000D03*
X160540000Y-147015000D03*
X160540000Y-147665000D03*
X160540000Y-148315000D03*
X160540000Y-148965000D03*
X160540000Y-149615000D03*
X160540000Y-150265000D03*
X154740000Y-150265000D03*
X154740000Y-149615000D03*
X154740000Y-148965000D03*
X154740000Y-148315000D03*
X154740000Y-147665000D03*
X154740000Y-144415000D03*
X154740000Y-145065000D03*
X154740000Y-145715000D03*
X154740000Y-146365000D03*
X154740000Y-147015000D03*
X159280000Y-156635000D03*
X159280000Y-157285000D03*
X159280000Y-157935000D03*
X159280000Y-158585000D03*
X159280000Y-159235000D03*
X159280000Y-159885000D03*
X159280000Y-160535000D03*
X159280000Y-161185000D03*
X153480000Y-161185000D03*
X153480000Y-160535000D03*
X153480000Y-159885000D03*
X153480000Y-159235000D03*
X153480000Y-156635000D03*
X153480000Y-157285000D03*
X153480000Y-157935000D03*
X153480000Y-158585000D03*
D32*
X146430000Y-105440000D03*
X146430000Y-107340000D03*
X144030000Y-107340000D03*
X144030000Y-106390000D03*
X144030000Y-105440000D03*
X152790000Y-111480000D03*
X152790000Y-113380000D03*
X150390000Y-113380000D03*
X150390000Y-112430000D03*
X150390000Y-111480000D03*
D13*
X106270000Y-160870420D03*
X106270000Y-161769580D03*
X107460000Y-181069580D03*
X107460000Y-180170420D03*
X106770420Y-134630000D03*
X107669580Y-134630000D03*
D101*
X57020000Y-192109000D03*
X57020000Y-195411000D03*
D13*
X43640000Y-210050420D03*
X43640000Y-210949580D03*
D101*
X47360000Y-208689000D03*
X47360000Y-211991000D03*
D13*
X52470000Y-209189580D03*
X52470000Y-208290420D03*
D54*
X52920000Y-210120000D03*
X52920000Y-211620000D03*
D13*
X53290000Y-209189580D03*
X53290000Y-208290420D03*
X73639580Y-135240000D03*
X72740420Y-135240000D03*
X83810420Y-135240000D03*
X84709580Y-135240000D03*
X104830000Y-99700420D03*
X104830000Y-100599580D03*
X96960000Y-99700420D03*
X96960000Y-100599580D03*
D102*
X57309000Y-177700000D03*
X60611000Y-177700000D03*
D13*
X69160420Y-114890000D03*
X70059580Y-114890000D03*
X118220420Y-130680000D03*
X119119580Y-130680000D03*
X107430000Y-130599580D03*
X107430000Y-129700420D03*
X113559580Y-127020000D03*
X112660420Y-127020000D03*
X109850420Y-128950000D03*
X110749580Y-128950000D03*
X110500000Y-124289580D03*
X110500000Y-123390420D03*
X50435000Y-216565420D03*
X50435000Y-217464580D03*
X48525000Y-216565420D03*
X48525000Y-217464580D03*
X43585000Y-220294580D03*
X43585000Y-219395420D03*
X145590420Y-159910000D03*
X146489580Y-159910000D03*
X142520000Y-181020420D03*
X142520000Y-181919580D03*
X149730420Y-159890000D03*
X150629580Y-159890000D03*
X142540000Y-178099580D03*
X142540000Y-177200420D03*
X50070000Y-150660420D03*
X50070000Y-151559580D03*
D55*
X50070000Y-152900000D03*
X51570000Y-152900000D03*
D54*
X57990000Y-153040000D03*
X57990000Y-151540000D03*
D103*
X66535000Y-169055000D03*
X66535000Y-174355000D03*
D54*
X57990000Y-154650000D03*
X57990000Y-156150000D03*
D13*
X72099580Y-114890000D03*
X71200420Y-114890000D03*
X135499580Y-187750000D03*
X134600420Y-187750000D03*
X135499580Y-186900000D03*
X134600420Y-186900000D03*
D54*
X101480000Y-167850000D03*
X101480000Y-169350000D03*
X102560000Y-171700000D03*
X102560000Y-170200000D03*
D13*
X103510000Y-166730420D03*
X103510000Y-167629580D03*
X89490000Y-254760420D03*
X89490000Y-255659580D03*
X91690000Y-253069580D03*
X91690000Y-252170420D03*
X85890420Y-246820000D03*
X86789580Y-246820000D03*
X85890420Y-247840000D03*
X86789580Y-247840000D03*
X91690000Y-250889580D03*
X91690000Y-249990420D03*
X89480000Y-247390420D03*
X89480000Y-248289580D03*
X144770000Y-171039580D03*
X144770000Y-170140420D03*
X82494580Y-105635000D03*
X81595420Y-105635000D03*
X72984580Y-105665000D03*
X72085420Y-105665000D03*
X70635420Y-111255000D03*
X71534580Y-111255000D03*
X70635420Y-112205000D03*
X71534580Y-112205000D03*
X69150420Y-94690000D03*
X70049580Y-94690000D03*
X76465000Y-103715420D03*
X76465000Y-104614580D03*
X80065000Y-103715420D03*
X80065000Y-104614580D03*
X79764580Y-90445000D03*
X78865420Y-90445000D03*
X73964580Y-99495000D03*
X73065420Y-99495000D03*
X85074580Y-98935000D03*
X84175420Y-98935000D03*
X73964580Y-98765000D03*
X73065420Y-98765000D03*
X73964580Y-96785000D03*
X73065420Y-96785000D03*
X85074580Y-98225000D03*
X84175420Y-98225000D03*
X73065420Y-96065000D03*
X73964580Y-96065000D03*
D55*
X72365000Y-95195000D03*
X73865000Y-95195000D03*
D13*
X135160000Y-212979580D03*
X135160000Y-212080420D03*
D100*
X70080000Y-238370000D03*
X71580000Y-238370000D03*
D40*
X43637500Y-208690000D03*
X45542500Y-208690000D03*
X50427500Y-215265000D03*
X48522500Y-215265000D03*
D79*
X145220000Y-72660000D03*
X153420000Y-72660000D03*
D80*
X149320000Y-71410000D03*
D79*
X93580000Y-260220000D03*
X85380000Y-260220000D03*
D80*
X89480000Y-261470000D03*
D79*
X113440000Y-260220000D03*
X105240000Y-260220000D03*
D80*
X109340000Y-261470000D03*
D79*
X73810000Y-260220000D03*
X65610000Y-260220000D03*
D80*
X69710000Y-261470000D03*
D79*
X127690000Y-72660000D03*
X135890000Y-72660000D03*
D80*
X131790000Y-71410000D03*
D104*
X73435000Y-131495000D03*
X73435000Y-128920000D03*
X73435000Y-126380000D03*
D105*
X68285000Y-131495000D03*
D104*
X68285000Y-128920000D03*
X68285000Y-126380000D03*
D20*
X86480000Y-112850000D03*
X86480000Y-115390000D03*
X86480000Y-117930000D03*
X86480000Y-120470000D03*
X86480000Y-123010000D03*
X86480000Y-125550000D03*
X81020000Y-125550000D03*
X81020000Y-123010000D03*
X81020000Y-120470000D03*
X81020000Y-117930000D03*
X81020000Y-115390000D03*
X81020000Y-112850000D03*
D92*
X90950000Y-206300000D03*
X93850000Y-206300000D03*
D83*
X92400000Y-207800000D03*
X92400000Y-204800000D03*
D82*
X105380000Y-217830000D03*
X105380000Y-220730000D03*
D83*
X103880000Y-219280000D03*
X106880000Y-219280000D03*
D37*
X135500000Y-229620000D03*
X135500000Y-224880000D03*
D38*
X133130000Y-227250000D03*
D37*
X130760000Y-224880000D03*
X130760000Y-229620000D03*
D106*
X72905000Y-92575000D03*
X74505000Y-90035000D03*
D105*
X48765000Y-187105000D03*
X48765000Y-189645000D03*
X48765000Y-192185000D03*
X53766260Y-187105000D03*
X53766260Y-189645000D03*
X53766260Y-192185000D03*
X48755000Y-177735000D03*
X48755000Y-180275000D03*
X48755000Y-182815000D03*
X53756260Y-177735000D03*
X53756260Y-180275000D03*
X53756260Y-182815000D03*
D107*
X50045000Y-157630000D03*
X55595000Y-157630000D03*
D55*
X72365000Y-94045000D03*
X73865000Y-94045000D03*
D54*
X86850000Y-249100000D03*
X86850000Y-250600000D03*
D100*
X55050000Y-211670000D03*
X55050000Y-210170000D03*
X53665000Y-217875000D03*
X52165000Y-217875000D03*
X56930000Y-185930000D03*
X58430000Y-185930000D03*
D13*
X107460000Y-178819580D03*
X107460000Y-177920420D03*
X54170420Y-209190000D03*
X55069580Y-209190000D03*
X58490000Y-188259580D03*
X58490000Y-187360420D03*
D44*
X52110000Y-198755000D03*
X52110000Y-198205000D03*
D13*
X52155000Y-215485420D03*
X52155000Y-216384580D03*
X121929580Y-128810000D03*
X121030420Y-128810000D03*
X45015420Y-220275000D03*
X45914580Y-220275000D03*
X47624580Y-220275000D03*
X46725420Y-220275000D03*
X45015420Y-221155000D03*
X45914580Y-221155000D03*
X142430000Y-166879580D03*
X142430000Y-165980420D03*
X143030000Y-168390420D03*
X143030000Y-169289580D03*
X147900000Y-168179580D03*
X147900000Y-167280420D03*
X145289580Y-185500000D03*
X144390420Y-185500000D03*
X148830000Y-168179580D03*
X148830000Y-167280420D03*
X145279580Y-186600000D03*
X144380420Y-186600000D03*
D108*
X55620000Y-151602500D03*
X55620000Y-149697500D03*
X55620000Y-151602500D03*
X55620000Y-149697500D03*
D40*
X53837500Y-153310000D03*
X55742500Y-153310000D03*
X53847500Y-148210000D03*
X55752500Y-148210000D03*
X66062500Y-165700000D03*
X64157500Y-165700000D03*
D108*
X68680000Y-164207500D03*
X68680000Y-166112500D03*
D44*
X65190000Y-116945000D03*
X65190000Y-116395000D03*
D48*
X65775000Y-116020000D03*
X66325000Y-116020000D03*
X65785000Y-117320000D03*
X66335000Y-117320000D03*
X74915000Y-116020000D03*
X75465000Y-116020000D03*
X74915000Y-117330000D03*
X75465000Y-117330000D03*
X74925000Y-117980000D03*
X75475000Y-117980000D03*
X74925000Y-118620000D03*
X75475000Y-118620000D03*
X74925000Y-119270000D03*
X75475000Y-119270000D03*
D54*
X113210000Y-179600000D03*
X113210000Y-181100000D03*
D48*
X74925000Y-119920000D03*
X75475000Y-119920000D03*
X74925000Y-120570000D03*
X75475000Y-120570000D03*
X74925000Y-121220000D03*
X75475000Y-121220000D03*
D13*
X76480000Y-115070420D03*
X76480000Y-115969580D03*
X109339580Y-245290000D03*
X108440420Y-245290000D03*
X109340000Y-246189580D03*
X109340000Y-245290420D03*
X89509580Y-244000000D03*
X88610420Y-244000000D03*
X89510000Y-243100420D03*
X89510000Y-243999580D03*
X87850000Y-217090420D03*
X87850000Y-217989580D03*
X87849580Y-217090000D03*
X86950420Y-217090000D03*
D55*
X96240000Y-168060000D03*
X97740000Y-168060000D03*
D40*
X104462500Y-168830000D03*
X102557500Y-168830000D03*
D13*
X143850000Y-168399580D03*
X143850000Y-167500420D03*
X95240420Y-253070000D03*
X96139580Y-253070000D03*
X95240420Y-249990000D03*
X96139580Y-249990000D03*
X94390000Y-253069580D03*
X94390000Y-252170420D03*
X94390000Y-249990420D03*
X94390000Y-250889580D03*
X93529580Y-253070000D03*
X92630420Y-253070000D03*
X85900420Y-245790000D03*
X86799580Y-245790000D03*
X93529580Y-249990000D03*
X92630420Y-249990000D03*
X89480420Y-247390000D03*
X90379580Y-247390000D03*
X144770000Y-168390420D03*
X144770000Y-169289580D03*
X71220420Y-98160000D03*
X72119580Y-98160000D03*
X70285000Y-101324580D03*
X70285000Y-100425420D03*
X79765420Y-91185000D03*
X80664580Y-91185000D03*
X73884580Y-104625000D03*
X72985420Y-104625000D03*
X69150420Y-93880000D03*
X70049580Y-93880000D03*
X80664580Y-89715000D03*
X79765420Y-89715000D03*
X80664580Y-88955000D03*
X79765420Y-88955000D03*
X85074580Y-99985000D03*
X84175420Y-99985000D03*
X95220000Y-218759580D03*
X95220000Y-217860420D03*
X94270000Y-218759580D03*
X94270000Y-217860420D03*
X93340000Y-218759580D03*
X93340000Y-217860420D03*
X92370000Y-218749580D03*
X92370000Y-217850420D03*
X73370000Y-238760420D03*
X73370000Y-239659580D03*
X110600000Y-232679580D03*
X110600000Y-231780420D03*
X111740000Y-230480420D03*
X111740000Y-231379580D03*
X108029580Y-219380000D03*
X107130420Y-219380000D03*
D84*
X106510000Y-164150000D03*
X106510000Y-163650000D03*
X106510000Y-163150000D03*
X108370000Y-163150000D03*
X108370000Y-163650000D03*
X108370000Y-164150000D03*
D85*
X106940000Y-162720000D03*
X107440000Y-162720000D03*
X107940000Y-162720000D03*
X107940000Y-164580000D03*
X107440000Y-164580000D03*
D86*
X107440000Y-163650000D03*
D85*
X106940000Y-164580000D03*
D36*
X73640000Y-136175000D03*
X73640000Y-136825000D03*
X73640000Y-137475000D03*
X73640000Y-138125000D03*
X73640000Y-138775000D03*
X73640000Y-139425000D03*
X73640000Y-140075000D03*
X73640000Y-140725000D03*
X67840000Y-140725000D03*
X67840000Y-140075000D03*
X67840000Y-139425000D03*
X67840000Y-138775000D03*
X67840000Y-136175000D03*
X67840000Y-136825000D03*
X67840000Y-137475000D03*
X67840000Y-138125000D03*
X83810000Y-136295000D03*
X83810000Y-136945000D03*
X83810000Y-137595000D03*
X83810000Y-138245000D03*
X83810000Y-138895000D03*
X83810000Y-139545000D03*
X83810000Y-140195000D03*
X83810000Y-140845000D03*
X78010000Y-140845000D03*
X78010000Y-140195000D03*
X78010000Y-139545000D03*
X78010000Y-138895000D03*
X78010000Y-136295000D03*
X78010000Y-136945000D03*
X78010000Y-137595000D03*
X78010000Y-138245000D03*
D78*
X93300000Y-105520000D03*
X93300000Y-106820000D03*
X91100000Y-106820000D03*
X91100000Y-106170000D03*
X91100000Y-105520000D03*
D109*
X56980000Y-189200000D03*
D110*
X56480000Y-190135000D03*
X56980000Y-190135000D03*
X57480000Y-190135000D03*
X57480000Y-188265000D03*
X56980000Y-188265000D03*
X56480000Y-188265000D03*
D111*
X50500000Y-209190000D03*
D112*
X49565000Y-208690000D03*
X49565000Y-209190000D03*
X49565000Y-209690000D03*
X51435000Y-209690000D03*
X51435000Y-209190000D03*
X51435000Y-208690000D03*
D32*
X98350000Y-106830000D03*
X98350000Y-108730000D03*
X95950000Y-108730000D03*
X95950000Y-107780000D03*
X95950000Y-106830000D03*
X94090000Y-112580000D03*
X94090000Y-110680000D03*
X96490000Y-110680000D03*
X96490000Y-111630000D03*
X96490000Y-112580000D03*
D78*
X94710000Y-103870000D03*
X94710000Y-102570000D03*
X96910000Y-102570000D03*
X96910000Y-103220000D03*
X96910000Y-103870000D03*
D29*
X104065000Y-99700000D03*
X98215000Y-99700000D03*
X98215000Y-93900000D03*
X104065000Y-93900000D03*
X103415000Y-99700000D03*
X102765000Y-99700000D03*
X102115000Y-99700000D03*
X101465000Y-99700000D03*
X100815000Y-99700000D03*
X100165000Y-99700000D03*
X99515000Y-99700000D03*
X98865000Y-99700000D03*
X98865000Y-93900000D03*
X99515000Y-93900000D03*
X100165000Y-93900000D03*
X100815000Y-93900000D03*
X103415000Y-93900000D03*
X102765000Y-93900000D03*
X102115000Y-93900000D03*
X101465000Y-93900000D03*
D36*
X73420000Y-116025000D03*
X73420000Y-116675000D03*
X73420000Y-117325000D03*
X73420000Y-117975000D03*
X73420000Y-118625000D03*
X73420000Y-119275000D03*
X73420000Y-119925000D03*
X73420000Y-120575000D03*
X73420000Y-121225000D03*
X73420000Y-121875000D03*
X67620000Y-121875000D03*
X67620000Y-121225000D03*
X67620000Y-120575000D03*
X67620000Y-119925000D03*
X67620000Y-119275000D03*
X67620000Y-116025000D03*
X67620000Y-116675000D03*
X67620000Y-117325000D03*
X67620000Y-117975000D03*
X67620000Y-118625000D03*
D111*
X49825000Y-219845000D03*
D112*
X50760000Y-220345000D03*
X50760000Y-219845000D03*
X50760000Y-219345000D03*
X48890000Y-219345000D03*
X48890000Y-219845000D03*
X48890000Y-220345000D03*
D84*
X108370000Y-132160000D03*
X108370000Y-132660000D03*
X108370000Y-133160000D03*
X106510000Y-133160000D03*
X106510000Y-132660000D03*
X106510000Y-132160000D03*
D85*
X107940000Y-133590000D03*
X107440000Y-133590000D03*
X106940000Y-133590000D03*
X106940000Y-131730000D03*
X107440000Y-131730000D03*
D86*
X107440000Y-132660000D03*
D85*
X107940000Y-131730000D03*
D78*
X146440000Y-98330000D03*
X146440000Y-99630000D03*
X144240000Y-99630000D03*
X144240000Y-98980000D03*
X144240000Y-98330000D03*
X146430000Y-101980000D03*
X146430000Y-103280000D03*
X144230000Y-103280000D03*
X144230000Y-102630000D03*
X144230000Y-101980000D03*
D84*
X119800000Y-128310000D03*
X119800000Y-128810000D03*
X119800000Y-129310000D03*
X117940000Y-129310000D03*
X117940000Y-128810000D03*
X117940000Y-128310000D03*
D85*
X119370000Y-129740000D03*
X118870000Y-129740000D03*
X118370000Y-129740000D03*
X118370000Y-127880000D03*
X118870000Y-127880000D03*
D86*
X118870000Y-128810000D03*
D85*
X119370000Y-127880000D03*
D84*
X111430000Y-126510000D03*
X111430000Y-127010000D03*
X111430000Y-127510000D03*
X109570000Y-127510000D03*
X109570000Y-127010000D03*
X109570000Y-126510000D03*
D85*
X111000000Y-127940000D03*
X110500000Y-127940000D03*
X110000000Y-127940000D03*
X110000000Y-126080000D03*
X110500000Y-126080000D03*
D86*
X110500000Y-127010000D03*
D85*
X111000000Y-126080000D03*
D113*
X44860000Y-216540000D03*
X45510000Y-216540000D03*
X46160000Y-216540000D03*
X46810000Y-216540000D03*
X46810000Y-219290000D03*
X46160000Y-219290000D03*
X45510000Y-219290000D03*
X44860000Y-219290000D03*
D114*
X45835000Y-217915000D03*
D90*
X133000000Y-161615000D03*
X133000000Y-167265000D03*
D91*
X133000000Y-164440000D03*
D90*
X133000000Y-161615000D03*
X133000000Y-167265000D03*
D91*
X133000000Y-164440000D03*
D45*
X92160000Y-198910000D03*
X91040000Y-198910000D03*
D46*
X91600000Y-198707500D03*
X91600000Y-199112500D03*
D59*
X114740000Y-221840000D03*
X116740000Y-221840000D03*
D60*
X115740000Y-223640000D03*
X115740000Y-220040000D03*
D42*
X113210000Y-179790000D03*
X113210000Y-180910000D03*
D43*
X113007500Y-180350000D03*
X113412500Y-180350000D03*
D78*
X152220000Y-165360000D03*
X152220000Y-166660000D03*
X150020000Y-166660000D03*
X150020000Y-166010000D03*
X150020000Y-165360000D03*
D77*
X143740000Y-181890000D03*
X145040000Y-181890000D03*
X145040000Y-184090000D03*
X144390000Y-184090000D03*
X143740000Y-184090000D03*
D78*
X150630000Y-161060000D03*
X150630000Y-162360000D03*
X148430000Y-162360000D03*
X148430000Y-161710000D03*
X148430000Y-161060000D03*
D77*
X143710000Y-177200000D03*
X145010000Y-177200000D03*
X145010000Y-179400000D03*
X144360000Y-179400000D03*
X143710000Y-179400000D03*
D115*
X51330000Y-150160000D03*
X51330000Y-150660000D03*
X51330000Y-151160000D03*
X51330000Y-151660000D03*
X53930000Y-151660000D03*
X53930000Y-151160000D03*
X53930000Y-150160000D03*
X53930000Y-150660000D03*
D116*
X53130000Y-150910000D03*
X52130000Y-150910000D03*
X52630000Y-150910000D03*
D117*
X68680000Y-161940000D03*
X66980000Y-161940000D03*
X65280000Y-161940000D03*
X63580000Y-161940000D03*
X61880000Y-161940000D03*
D118*
X65280000Y-151640000D03*
D87*
X136725000Y-189760000D03*
X136725000Y-190260000D03*
X136725000Y-190760000D03*
X136725000Y-191260000D03*
X136725000Y-191760000D03*
X136725000Y-192260000D03*
X136725000Y-192760000D03*
X136725000Y-193260000D03*
X131775000Y-193260000D03*
X131775000Y-192760000D03*
X131775000Y-192260000D03*
X131775000Y-191760000D03*
X131775000Y-191260000D03*
X131775000Y-190760000D03*
X131775000Y-190260000D03*
X131775000Y-189760000D03*
D88*
X136000000Y-193985000D03*
X135500000Y-193985000D03*
X135000000Y-193985000D03*
X134500000Y-193985000D03*
X134000000Y-193985000D03*
X133500000Y-193985000D03*
X133000000Y-193985000D03*
X132500000Y-193985000D03*
X132500000Y-189035000D03*
X133000000Y-189035000D03*
X133500000Y-189035000D03*
X134000000Y-189035000D03*
X134500000Y-189035000D03*
X135000000Y-189035000D03*
X135500000Y-189035000D03*
D89*
X134250000Y-191510000D03*
D88*
X136000000Y-189035000D03*
D98*
X88980000Y-250645000D03*
X89480000Y-250645000D03*
X89980000Y-250645000D03*
X90480000Y-250645000D03*
X90480000Y-252415000D03*
X89980000Y-252415000D03*
X89480000Y-252415000D03*
D99*
X89730000Y-251530000D03*
D98*
X88980000Y-252415000D03*
D39*
X98570000Y-168030000D03*
X99520000Y-168030000D03*
X100470000Y-168030000D03*
X100470000Y-170630000D03*
X99520000Y-170630000D03*
X98570000Y-170630000D03*
D33*
X108915000Y-167630000D03*
X108915000Y-168290000D03*
X105945000Y-167630000D03*
X105945000Y-168290000D03*
D34*
X107100000Y-166475000D03*
X107760000Y-166475000D03*
X107760000Y-169445000D03*
D35*
X107430000Y-167960000D03*
D34*
X107100000Y-169445000D03*
D96*
X107455000Y-177630000D03*
X107455000Y-179110000D03*
D97*
X108405000Y-178370000D03*
D78*
X152780000Y-104350000D03*
X152780000Y-105650000D03*
X150580000Y-105650000D03*
X150580000Y-105000000D03*
X150580000Y-104350000D03*
X152790000Y-108020000D03*
X152790000Y-109320000D03*
X150590000Y-109320000D03*
X150590000Y-108670000D03*
X150590000Y-108020000D03*
D119*
X68860000Y-98610000D03*
X69510000Y-98610000D03*
X70160000Y-98610000D03*
X70160000Y-96770000D03*
X69510000Y-96770000D03*
X68860000Y-96770000D03*
D120*
X68910000Y-112205000D03*
X67640000Y-112205000D03*
X66370000Y-112205000D03*
X65100000Y-112205000D03*
X65100000Y-105325000D03*
X66370000Y-105325000D03*
X67640000Y-105325000D03*
X68910000Y-105325000D03*
X68910000Y-112205000D03*
X67640000Y-112205000D03*
X66370000Y-112205000D03*
X65100000Y-112205000D03*
X65100000Y-105325000D03*
X66370000Y-105325000D03*
X67640000Y-105325000D03*
X68910000Y-105325000D03*
D121*
X75627500Y-101585000D03*
X75627500Y-101185000D03*
X75627500Y-100785000D03*
X75627500Y-100385000D03*
X75627500Y-99985000D03*
X75627500Y-99585000D03*
X75627500Y-99185000D03*
X75627500Y-98785000D03*
X75627500Y-98385000D03*
X75627500Y-97985000D03*
X75627500Y-97585000D03*
X75627500Y-97185000D03*
X75627500Y-96785000D03*
X75627500Y-96385000D03*
X82502500Y-96385000D03*
X82502500Y-96785000D03*
X82502500Y-97185000D03*
X82502500Y-97585000D03*
X82502500Y-97985000D03*
X82502500Y-98385000D03*
X82502500Y-98785000D03*
X82502500Y-99185000D03*
X82502500Y-99585000D03*
X82502500Y-99985000D03*
X82502500Y-100385000D03*
X82502500Y-100785000D03*
X82502500Y-101185000D03*
X82502500Y-101585000D03*
D122*
X76465000Y-95547500D03*
X76865000Y-95547500D03*
X77265000Y-95547500D03*
X77665000Y-95547500D03*
X78065000Y-95547500D03*
X78465000Y-95547500D03*
X78865000Y-95547500D03*
X79265000Y-95547500D03*
X79665000Y-95547500D03*
X80065000Y-95547500D03*
X80465000Y-95547500D03*
X80865000Y-95547500D03*
X81265000Y-95547500D03*
X81665000Y-95547500D03*
X81665000Y-102422500D03*
X81265000Y-102422500D03*
X80865000Y-102422500D03*
X80465000Y-102422500D03*
X80065000Y-102422500D03*
X79665000Y-102422500D03*
X79265000Y-102422500D03*
X76465000Y-102422500D03*
X76865000Y-102422500D03*
X77265000Y-102422500D03*
X77665000Y-102422500D03*
X78065000Y-102422500D03*
X78465000Y-102422500D03*
X78865000Y-102422500D03*
D89*
X79065000Y-98985000D03*
D44*
X101330000Y-181285000D03*
X101330000Y-181835000D03*
D48*
X93275000Y-198920000D03*
X93825000Y-198920000D03*
X93595000Y-203880000D03*
X94145000Y-203880000D03*
D44*
X107460000Y-182745000D03*
X107460000Y-182195000D03*
X113210000Y-182725000D03*
X113210000Y-182175000D03*
D61*
X101320000Y-186720000D03*
X98780000Y-186720000D03*
X101320000Y-183540000D03*
X98780000Y-183540000D03*
X100050000Y-183540000D03*
X100050000Y-186720000D03*
D67*
X124690000Y-202220000D03*
D68*
X123775000Y-201510000D03*
D69*
X124055000Y-202220000D03*
D68*
X123775000Y-202930000D03*
D69*
X125325000Y-202930000D03*
D68*
X125605000Y-202220000D03*
D69*
X125325000Y-201510000D03*
D67*
X124680000Y-197240000D03*
D68*
X123765000Y-196530000D03*
D69*
X124045000Y-197240000D03*
D68*
X123765000Y-197950000D03*
D69*
X125315000Y-197950000D03*
D68*
X125595000Y-197240000D03*
D69*
X125315000Y-196530000D03*
D65*
X98595160Y-196378880D03*
X98595160Y-197648880D03*
X98595160Y-198918880D03*
X95417620Y-198918880D03*
X95417620Y-196378880D03*
D70*
X107470000Y-185620000D03*
D71*
X106760000Y-186535000D03*
D72*
X107470000Y-186255000D03*
D71*
X108180000Y-186535000D03*
D72*
X108180000Y-184985000D03*
D71*
X107470000Y-184705000D03*
D72*
X106760000Y-184985000D03*
D81*
X96070000Y-203540000D03*
X96720000Y-203540000D03*
X97370000Y-203540000D03*
X97370000Y-201740000D03*
X96720000Y-201740000D03*
X96070000Y-201740000D03*
D65*
X98595160Y-201338880D03*
X98595160Y-202608880D03*
X98595160Y-203878880D03*
X95417620Y-203878880D03*
X95417620Y-201338880D03*
D66*
X113198880Y-213124840D03*
X114468880Y-213124840D03*
X115738880Y-213124840D03*
X115738880Y-216302380D03*
X113198880Y-216302380D03*
X115731120Y-187495160D03*
X114461120Y-187495160D03*
X113191120Y-187495160D03*
X113191120Y-184317620D03*
X115731120Y-184317620D03*
D70*
X107470000Y-215020000D03*
D71*
X108180000Y-214105000D03*
D72*
X107470000Y-214385000D03*
D71*
X106760000Y-214105000D03*
D72*
X106760000Y-215655000D03*
D71*
X107470000Y-215935000D03*
D72*
X108180000Y-215655000D03*
D81*
X96070000Y-198550000D03*
X96720000Y-198550000D03*
X97370000Y-198550000D03*
X97370000Y-196750000D03*
X96720000Y-196750000D03*
X96070000Y-196750000D03*
D73*
X115370000Y-215650000D03*
X115370000Y-215000000D03*
X115370000Y-214350000D03*
X113570000Y-214350000D03*
X113570000Y-215000000D03*
X113570000Y-215650000D03*
X113560000Y-184960000D03*
X113560000Y-185610000D03*
X113560000Y-186260000D03*
X115360000Y-186260000D03*
X115360000Y-185610000D03*
X115360000Y-184960000D03*
D44*
X115750000Y-220935000D03*
X115750000Y-220385000D03*
X115750000Y-223285000D03*
X115750000Y-222735000D03*
D13*
X51950000Y-204489580D03*
X51950000Y-203590420D03*
D100*
X70290000Y-243530000D03*
X71790000Y-243530000D03*
D63*
X70360000Y-241850000D03*
X69410000Y-239850000D03*
X71310000Y-239850000D03*
D13*
X135500000Y-185170420D03*
X135500000Y-186069580D03*
X75309580Y-240780000D03*
X74410420Y-240780000D03*
X72470420Y-240770000D03*
X73369580Y-240770000D03*
D64*
X77630000Y-244170000D03*
X77630000Y-240770000D03*
D13*
X133000000Y-120690420D03*
X133000000Y-121589580D03*
D55*
X106030000Y-146840000D03*
X107530000Y-146840000D03*
D13*
X109300000Y-159379580D03*
X109300000Y-158480420D03*
D62*
X103130000Y-151410000D03*
X105670000Y-153010000D03*
X102950000Y-137300000D03*
X105490000Y-138900000D03*
X109260000Y-151020000D03*
X111800000Y-152620000D03*
D13*
X110680420Y-159700000D03*
X111579580Y-159700000D03*
X111579580Y-158580000D03*
X110680420Y-158580000D03*
D77*
X106040000Y-144760000D03*
X104740000Y-144760000D03*
X104740000Y-142560000D03*
X105390000Y-142560000D03*
X106040000Y-142560000D03*
D78*
X109280000Y-157300000D03*
X109280000Y-156000000D03*
X111480000Y-156000000D03*
X111480000Y-156650000D03*
X111480000Y-157300000D03*
D13*
X44729580Y-197230000D03*
X43830420Y-197230000D03*
X44739580Y-202780000D03*
X43840420Y-202780000D03*
X44729580Y-199140000D03*
X43830420Y-199140000D03*
X44739580Y-204690000D03*
X43840420Y-204690000D03*
X52109580Y-200390000D03*
X51210420Y-200390000D03*
X51919580Y-205890000D03*
X51020420Y-205890000D03*
D108*
X46270000Y-197237500D03*
X46270000Y-199142500D03*
X46080000Y-202787500D03*
X46080000Y-204692500D03*
D123*
X48145000Y-204695000D03*
X48145000Y-204045000D03*
X48145000Y-203395000D03*
X48145000Y-202745000D03*
X50895000Y-202745000D03*
X50895000Y-203395000D03*
X50895000Y-204045000D03*
X50895000Y-204695000D03*
D124*
X49520000Y-203720000D03*
D123*
X48305000Y-199135000D03*
X48305000Y-198485000D03*
X48305000Y-197835000D03*
X48305000Y-197185000D03*
X51055000Y-197185000D03*
X51055000Y-197835000D03*
X51055000Y-198485000D03*
X51055000Y-199135000D03*
D124*
X49680000Y-198160000D03*
D13*
X52770000Y-205329580D03*
X52770000Y-204430420D03*
D41*
X92240000Y-139580000D03*
X92240000Y-132480000D03*
D13*
X52910000Y-198759580D03*
X52910000Y-197860420D03*
X97780000Y-195189580D03*
X97780000Y-194290420D03*
X52120000Y-197389580D03*
X52120000Y-196490420D03*
X51900000Y-202799580D03*
X51900000Y-201900420D03*
X77379580Y-116670000D03*
X76480420Y-116670000D03*
X126060420Y-152930000D03*
X126959580Y-152930000D03*
X126060420Y-154000000D03*
X126959580Y-154000000D03*
X126060420Y-155070000D03*
X126959580Y-155070000D03*
X126060420Y-156130000D03*
X126959580Y-156130000D03*
X145530420Y-100850000D03*
X146429580Y-100850000D03*
X92440000Y-123390420D03*
X92440000Y-124289580D03*
X95630000Y-119410420D03*
X95630000Y-120309580D03*
X96460000Y-119410420D03*
X96460000Y-120309580D03*
X94330000Y-123390420D03*
X94330000Y-124289580D03*
X95270000Y-123390420D03*
X95270000Y-124289580D03*
X97290000Y-119410420D03*
X97290000Y-120309580D03*
X98120000Y-119410420D03*
X98120000Y-120309580D03*
X98950000Y-119410420D03*
X98950000Y-120309580D03*
X96190000Y-123390420D03*
X96190000Y-124289580D03*
X99770000Y-119410420D03*
X99770000Y-120309580D03*
X97140000Y-123390420D03*
X97140000Y-124289580D03*
X65290000Y-131489580D03*
X65290000Y-130590420D03*
X93299580Y-104340000D03*
X92400420Y-104340000D03*
X95950420Y-113870000D03*
X96849580Y-113870000D03*
X98329580Y-105420000D03*
X97430420Y-105420000D03*
X93289580Y-103320000D03*
X92390420Y-103320000D03*
X145550420Y-97210000D03*
X146449580Y-97210000D03*
X81970420Y-127160000D03*
X82869580Y-127160000D03*
X123160000Y-139709580D03*
X123160000Y-138810420D03*
X198590000Y-139699580D03*
X198590000Y-138800420D03*
X145550420Y-114620000D03*
X146449580Y-114620000D03*
X145560420Y-118840000D03*
X146459580Y-118840000D03*
X85389580Y-127160000D03*
X84490420Y-127160000D03*
X125910420Y-220590000D03*
X126809580Y-220590000D03*
X201460420Y-220570000D03*
X202359580Y-220570000D03*
X129069580Y-220590000D03*
X128170420Y-220590000D03*
X204639580Y-220550000D03*
X203740420Y-220550000D03*
X151880420Y-103220000D03*
X152779580Y-103220000D03*
X151890420Y-106870000D03*
X152789580Y-106870000D03*
X80050000Y-94359580D03*
X80050000Y-93460420D03*
X194580000Y-168380420D03*
X194580000Y-169279580D03*
X193480000Y-168380420D03*
X193480000Y-169279580D03*
X192390000Y-168380420D03*
X192390000Y-169279580D03*
X191280000Y-168380420D03*
X191280000Y-169279580D03*
X126060420Y-157180000D03*
X126959580Y-157180000D03*
X190130000Y-167420420D03*
X190130000Y-168319580D03*
X126060420Y-158180000D03*
X126959580Y-158180000D03*
X188940000Y-166850420D03*
X188940000Y-167749580D03*
X126060420Y-159190000D03*
X126959580Y-159190000D03*
X187800000Y-166100420D03*
X187800000Y-166999580D03*
X92320000Y-119410420D03*
X92320000Y-120309580D03*
X93140000Y-119410420D03*
X93140000Y-120309580D03*
X93990000Y-119410420D03*
X93990000Y-120309580D03*
X94810000Y-119410420D03*
X94810000Y-120309580D03*
X173290000Y-195189580D03*
X173290000Y-194290420D03*
X93390000Y-124289580D03*
X93390000Y-123390420D03*
X95630000Y-118439580D03*
X95630000Y-117540420D03*
X95270000Y-122519580D03*
X95270000Y-121620420D03*
X97290000Y-118439580D03*
X97290000Y-117540420D03*
X98950000Y-118439580D03*
X98950000Y-117540420D03*
X97140000Y-122519580D03*
X97140000Y-121620420D03*
D44*
X103410000Y-92735000D03*
X103410000Y-92185000D03*
X102770000Y-92735000D03*
X102770000Y-92185000D03*
X102120000Y-92735000D03*
X102120000Y-92185000D03*
X101470000Y-92735000D03*
X101470000Y-92185000D03*
D13*
X128340420Y-152930000D03*
X129239580Y-152930000D03*
X128340420Y-154000000D03*
X129239580Y-154000000D03*
X128340420Y-155070000D03*
X129239580Y-155070000D03*
X128340420Y-156130000D03*
X129239580Y-156130000D03*
D44*
X100820000Y-92735000D03*
X100820000Y-92185000D03*
X100170000Y-92735000D03*
X100170000Y-92185000D03*
X99520000Y-92735000D03*
X99520000Y-92185000D03*
X98870000Y-92735000D03*
X98870000Y-92185000D03*
X95500000Y-92765000D03*
X95500000Y-92215000D03*
X94850000Y-92765000D03*
X94850000Y-92215000D03*
X94200000Y-92765000D03*
X94200000Y-92215000D03*
X93550000Y-92765000D03*
X93550000Y-92215000D03*
D48*
X78705000Y-125550000D03*
X78155000Y-125550000D03*
X65755000Y-120580000D03*
X66305000Y-120580000D03*
X65755000Y-121220000D03*
X66305000Y-121220000D03*
X89315000Y-125550000D03*
X88765000Y-125550000D03*
D55*
X92350000Y-198940000D03*
X90850000Y-198940000D03*
D13*
X98730000Y-194289580D03*
X98730000Y-193390420D03*
X174310000Y-194289580D03*
X174310000Y-193390420D03*
X123279580Y-221320000D03*
X122380420Y-221320000D03*
X198439580Y-221290000D03*
X197540420Y-221290000D03*
X70630420Y-113150000D03*
X71529580Y-113150000D03*
X131850420Y-221470000D03*
X132749580Y-221470000D03*
X207520420Y-221470000D03*
X208419580Y-221470000D03*
D44*
X92900000Y-92765000D03*
X92900000Y-92215000D03*
X92250000Y-92765000D03*
X92250000Y-92215000D03*
X91600000Y-92765000D03*
X91600000Y-92215000D03*
X90950000Y-92765000D03*
X90950000Y-92215000D03*
X102760000Y-101475000D03*
X102760000Y-100925000D03*
X102120000Y-101475000D03*
X102120000Y-100925000D03*
X101470000Y-101475000D03*
X101470000Y-100925000D03*
X100820000Y-101475000D03*
X100820000Y-100925000D03*
X100170000Y-101475000D03*
X100170000Y-100925000D03*
X99520000Y-101475000D03*
X99520000Y-100925000D03*
X98870000Y-101475000D03*
X98870000Y-100925000D03*
X98220000Y-101475000D03*
X98220000Y-100925000D03*
X94850000Y-101455000D03*
X94850000Y-100905000D03*
X94200000Y-101455000D03*
X94200000Y-100905000D03*
X93550000Y-101455000D03*
X93550000Y-100905000D03*
X92900000Y-101455000D03*
X92900000Y-100905000D03*
X92250000Y-101455000D03*
X92250000Y-100905000D03*
X91600000Y-101455000D03*
X91600000Y-100905000D03*
X90950000Y-101455000D03*
X90950000Y-100905000D03*
X90300000Y-101455000D03*
X90300000Y-100905000D03*
D13*
X111160000Y-228659580D03*
X111160000Y-227760420D03*
X92320000Y-118439580D03*
X92320000Y-117540420D03*
X93990000Y-118439580D03*
X93990000Y-117540420D03*
X186490000Y-228809580D03*
X186490000Y-227910420D03*
X194580000Y-170250420D03*
X194580000Y-171149580D03*
X193480000Y-170250420D03*
X193480000Y-171149580D03*
X192390000Y-170250420D03*
X192390000Y-171149580D03*
X191280000Y-170250420D03*
X191280000Y-171149580D03*
X128340420Y-157190000D03*
X129239580Y-157190000D03*
X190130000Y-169290420D03*
X190130000Y-170189580D03*
X128340420Y-158180000D03*
X129239580Y-158180000D03*
X188940000Y-168720420D03*
X188940000Y-169619580D03*
X128340420Y-159190000D03*
X129239580Y-159190000D03*
X102989580Y-108730000D03*
X102090420Y-108730000D03*
X92440000Y-122489580D03*
X92440000Y-121590420D03*
X94330000Y-122519580D03*
X94330000Y-121620420D03*
X96190000Y-122519580D03*
X96190000Y-121620420D03*
X100350420Y-108090000D03*
X101249580Y-108090000D03*
X97160000Y-108709580D03*
X97160000Y-107810420D03*
X95310000Y-111599580D03*
X95310000Y-110700420D03*
X163890000Y-182999580D03*
X163890000Y-182100420D03*
D37*
X128860000Y-129350000D03*
X128860000Y-124610000D03*
D38*
X126490000Y-126980000D03*
D37*
X124120000Y-124610000D03*
X124120000Y-129350000D03*
X204350000Y-129330000D03*
X204350000Y-124590000D03*
D38*
X201980000Y-126960000D03*
D37*
X199610000Y-124590000D03*
X199610000Y-129330000D03*
D13*
X189000000Y-126130420D03*
X189000000Y-127029580D03*
D125*
X154665000Y-181825000D03*
D126*
X153390000Y-181825000D03*
D125*
X152115000Y-181825000D03*
X152115000Y-177475000D03*
D126*
X153390000Y-177475000D03*
D125*
X154665000Y-177475000D03*
X79275000Y-181685000D03*
D126*
X78000000Y-181685000D03*
D125*
X76725000Y-181685000D03*
X76725000Y-177335000D03*
D126*
X78000000Y-177335000D03*
D125*
X79275000Y-177335000D03*
D127*
X108965000Y-173440000D03*
X106015000Y-173440000D03*
D128*
X107490000Y-171540000D03*
X107490000Y-175340000D03*
D54*
X107450000Y-173980000D03*
X107450000Y-175480000D03*
X107460000Y-171500000D03*
X107460000Y-173000000D03*
D55*
X118410000Y-123590000D03*
X116910000Y-123590000D03*
X120850000Y-123590000D03*
X119350000Y-123590000D03*
D127*
X133275000Y-75830000D03*
X130325000Y-75830000D03*
D128*
X131800000Y-73930000D03*
X131800000Y-77730000D03*
D54*
X131810000Y-76320000D03*
X131810000Y-77820000D03*
X131810000Y-73830000D03*
X131810000Y-75330000D03*
D129*
X118890000Y-125105000D03*
X118890000Y-122155000D03*
D130*
X120790000Y-123630000D03*
X116990000Y-123630000D03*
D13*
X113560000Y-126120420D03*
X113560000Y-127019580D03*
D129*
X194460000Y-124815000D03*
X194460000Y-121865000D03*
D130*
X196360000Y-123340000D03*
X192560000Y-123340000D03*
D54*
X182910000Y-174250000D03*
X182910000Y-175750000D03*
X182910000Y-171810000D03*
X182910000Y-173310000D03*
D55*
X193990000Y-123340000D03*
X192490000Y-123340000D03*
X196420000Y-123340000D03*
X194920000Y-123340000D03*
D54*
X164550000Y-76200000D03*
X164550000Y-77700000D03*
X164550000Y-73640000D03*
X164550000Y-75140000D03*
D127*
X166025000Y-75670000D03*
X163075000Y-75670000D03*
D128*
X164550000Y-73770000D03*
X164550000Y-77570000D03*
D127*
X184385000Y-173780000D03*
X181435000Y-173780000D03*
D128*
X182910000Y-171880000D03*
X182910000Y-175680000D03*
D131*
X82500000Y-108700000D03*
X73000000Y-108700000D03*
D13*
X187590000Y-122279580D03*
X187590000Y-121380420D03*
D10*
G36*
X118318131Y-119097901D02*
X117967901Y-119448131D01*
X117617671Y-119097901D01*
X117967901Y-118747671D01*
X118318131Y-119097901D01*
X118318131Y-119097901D01*
G37*
G36*
X117682329Y-118462099D02*
X117332099Y-118812329D01*
X116981869Y-118462099D01*
X117332099Y-118111869D01*
X117682329Y-118462099D01*
X117682329Y-118462099D01*
G37*
G36*
X193788131Y-119097901D02*
X193437901Y-119448131D01*
X193087671Y-119097901D01*
X193437901Y-118747671D01*
X193788131Y-119097901D01*
X193788131Y-119097901D01*
G37*
G36*
X193152329Y-118462099D02*
X192802099Y-118812329D01*
X192451869Y-118462099D01*
X192802099Y-118111869D01*
X193152329Y-118462099D01*
X193152329Y-118462099D01*
G37*
G36*
X175847901Y-81021869D02*
X176198131Y-81372099D01*
X175847901Y-81722329D01*
X175497671Y-81372099D01*
X175847901Y-81021869D01*
X175847901Y-81021869D01*
G37*
G36*
X175212099Y-81657671D02*
X175562329Y-82007901D01*
X175212099Y-82358131D01*
X174861869Y-82007901D01*
X175212099Y-81657671D01*
X175212099Y-81657671D01*
G37*
G36*
X117967901Y-118741869D02*
X118318131Y-119092099D01*
X117967901Y-119442329D01*
X117617671Y-119092099D01*
X117967901Y-118741869D01*
X117967901Y-118741869D01*
G37*
G36*
X117332099Y-119377671D02*
X117682329Y-119727901D01*
X117332099Y-120078131D01*
X116981869Y-119727901D01*
X117332099Y-119377671D01*
X117332099Y-119377671D01*
G37*
D13*
X111459580Y-121490000D03*
X110560420Y-121490000D03*
X112210000Y-122389580D03*
X112210000Y-121490420D03*
D10*
G36*
X193437901Y-118751869D02*
X193788131Y-119102099D01*
X193437901Y-119452329D01*
X193087671Y-119102099D01*
X193437901Y-118751869D01*
X193437901Y-118751869D01*
G37*
G36*
X192802099Y-119387671D02*
X193152329Y-119737901D01*
X192802099Y-120088131D01*
X192451869Y-119737901D01*
X192802099Y-119387671D01*
X192802099Y-119387671D01*
G37*
D13*
X186839580Y-121380000D03*
X185940420Y-121380000D03*
D44*
X58160000Y-125355000D03*
X58160000Y-125905000D03*
X56850000Y-125365000D03*
X56850000Y-125915000D03*
X56200000Y-125365000D03*
X56200000Y-125915000D03*
X55550000Y-125365000D03*
X55550000Y-125915000D03*
X54890000Y-125365000D03*
X54890000Y-125915000D03*
X54250000Y-125365000D03*
X54250000Y-125915000D03*
X53600000Y-125365000D03*
X53600000Y-125915000D03*
X52940000Y-125365000D03*
X52940000Y-125915000D03*
D29*
X58145000Y-124030000D03*
X57495000Y-124030000D03*
X56845000Y-124030000D03*
X56195000Y-124030000D03*
X55545000Y-124030000D03*
X54895000Y-124030000D03*
X54245000Y-124030000D03*
X53595000Y-124030000D03*
X52945000Y-124030000D03*
X52295000Y-124030000D03*
X52295000Y-118230000D03*
X52945000Y-118230000D03*
X53595000Y-118230000D03*
X54245000Y-118230000D03*
X54895000Y-118230000D03*
X58145000Y-118230000D03*
X57495000Y-118230000D03*
X56845000Y-118230000D03*
X56195000Y-118230000D03*
X55545000Y-118230000D03*
D13*
X59490000Y-119530420D03*
X59490000Y-120429580D03*
X59859580Y-141510000D03*
X58960420Y-141510000D03*
X59899580Y-130710000D03*
X59000420Y-130710000D03*
X59490000Y-122559580D03*
X59490000Y-121660420D03*
X61410420Y-141510000D03*
X62309580Y-141510000D03*
X62329580Y-130720000D03*
X61430420Y-130720000D03*
X61468000Y-122486420D03*
X61468000Y-123385580D03*
X61468000Y-125163580D03*
X61468000Y-124264420D03*
D132*
X188805000Y-147575000D03*
X188805000Y-147075000D03*
X188805000Y-146575000D03*
X188805000Y-146075000D03*
D133*
X189325000Y-145555000D03*
X189825000Y-145555000D03*
X190325000Y-145555000D03*
X190825000Y-145555000D03*
D132*
X191345000Y-146075000D03*
X191345000Y-146575000D03*
X191345000Y-147075000D03*
X191345000Y-147575000D03*
D133*
X190825000Y-148095000D03*
X190325000Y-148095000D03*
X189825000Y-148095000D03*
X189325000Y-148095000D03*
D35*
X190075000Y-146825000D03*
D132*
X113360000Y-147580000D03*
X113360000Y-147080000D03*
X113360000Y-146580000D03*
X113360000Y-146080000D03*
D133*
X113880000Y-145560000D03*
X114380000Y-145560000D03*
X114880000Y-145560000D03*
X115380000Y-145560000D03*
D132*
X115900000Y-146080000D03*
X115900000Y-146580000D03*
X115900000Y-147080000D03*
X115900000Y-147580000D03*
D133*
X115380000Y-148100000D03*
X114880000Y-148100000D03*
X114380000Y-148100000D03*
X113880000Y-148100000D03*
D35*
X114630000Y-146830000D03*
M02*
