%FSLAX45Y45*%
G04 Gerber Fmt 4.5, Leading zero omitted, Abs format (unit mm)*
G04 Created by KiCad (PCBNEW 4.0.7-e2-6376~61~ubuntu18.04.1) date Mon May 30 11:29:45 2022*
%MOMM*%
%LPD*%
G01*
G04 APERTURE LIST*
%ADD10C,0.127000*%
%ADD11C,0.200000*%
%ADD12C,0.300000*%
G04 APERTURE END LIST*
D10*
D11*
X6339000Y-11149000D02*
X6339000Y-8735000D01*
X5096000Y-11149000D02*
X6339000Y-11149000D01*
X5096000Y-12459000D02*
X5096000Y-11149000D01*
X4677000Y-12878000D02*
X5096000Y-12459000D01*
X4677000Y-14500000D02*
X4677000Y-12878000D01*
X3682000Y-14500000D02*
X4677000Y-14500000D01*
X6339000Y-22555000D02*
X6339000Y-26274000D01*
X3682000Y-22555000D02*
X6339000Y-22555000D01*
X3682000Y-14500000D02*
X3682000Y-22555000D01*
X10433000Y-8735000D02*
X6339000Y-8735000D01*
X11251000Y-7917000D02*
X10433000Y-8735000D01*
X11251000Y-7016000D02*
X11251000Y-7917000D01*
X21399000Y-7016000D02*
X11251000Y-7016000D01*
X21399000Y-26274000D02*
X21399000Y-7016000D01*
X6339000Y-26274000D02*
X21399000Y-26274000D01*
D11*
X4178500Y-20846500D02*
X4193500Y-20861500D01*
X4193500Y-20846500D02*
X4178500Y-20861500D01*
X4869500Y-13562500D02*
X4884500Y-13577500D01*
X4884500Y-13562500D02*
X4869500Y-13577500D01*
X5000500Y-12670500D02*
X5015500Y-12685500D01*
X5015500Y-12670500D02*
X5000500Y-12685500D01*
X5035250Y-21519000D02*
X5050250Y-21534000D01*
X5050250Y-21519000D02*
X5035250Y-21534000D01*
X5123500Y-13057500D02*
X5138500Y-13072500D01*
X5138500Y-13057500D02*
X5123500Y-13072500D01*
X5123500Y-13613500D02*
X5138500Y-13628500D01*
X5138500Y-13613500D02*
X5123500Y-13628500D01*
X5252500Y-13507500D02*
X5267500Y-13522500D01*
X5267500Y-13507500D02*
X5252500Y-13522500D01*
X5269500Y-20435542D02*
X5284500Y-20450542D01*
X5284500Y-20435542D02*
X5269500Y-20450542D01*
X5283500Y-19778542D02*
X5298500Y-19793542D01*
X5298500Y-19778542D02*
X5283500Y-19793542D01*
X5285500Y-11562500D02*
X5300500Y-11577500D01*
X5300500Y-11562500D02*
X5285500Y-11577500D01*
X5335500Y-19687500D02*
X5350500Y-19702500D01*
X5350500Y-19687500D02*
X5335500Y-19702500D01*
X5352500Y-11624500D02*
X5367500Y-11639500D01*
X5367500Y-11624500D02*
X5352500Y-11639500D01*
X5366500Y-17913500D02*
X5381500Y-17928500D01*
X5381500Y-17913500D02*
X5366500Y-17928500D01*
X5366500Y-18019500D02*
X5381500Y-18034500D01*
X5381500Y-18019500D02*
X5366500Y-18034500D01*
X5366500Y-18135500D02*
X5381500Y-18150500D01*
X5381500Y-18135500D02*
X5366500Y-18150500D01*
X5376500Y-13698500D02*
X5391500Y-13713500D01*
X5391500Y-13698500D02*
X5376500Y-13713500D01*
X5418500Y-13057500D02*
X5433500Y-13072500D01*
X5433500Y-13057500D02*
X5418500Y-13072500D01*
X5431500Y-19688500D02*
X5446500Y-19703500D01*
X5446500Y-19688500D02*
X5431500Y-19703500D01*
X5482500Y-13560500D02*
X5497500Y-13575500D01*
X5497500Y-13560500D02*
X5482500Y-13575500D01*
X5610500Y-12919500D02*
X5625500Y-12934500D01*
X5625500Y-12919500D02*
X5610500Y-12934500D01*
X5631500Y-13508500D02*
X5646500Y-13523500D01*
X5646500Y-13508500D02*
X5631500Y-13523500D01*
X5729500Y-13603500D02*
X5744500Y-13618500D01*
X5744500Y-13603500D02*
X5729500Y-13618500D01*
X5784500Y-13693500D02*
X5799500Y-13708500D01*
X5799500Y-13693500D02*
X5784500Y-13708500D01*
X5785500Y-12919500D02*
X5800500Y-12934500D01*
X5800500Y-12919500D02*
X5785500Y-12934500D01*
X5810500Y-12671500D02*
X5825500Y-12686500D01*
X5825500Y-12671500D02*
X5810500Y-12686500D01*
X5874500Y-11486500D02*
X5889500Y-11501500D01*
X5889500Y-11486500D02*
X5874500Y-11501500D01*
X5875500Y-11271500D02*
X5890500Y-11286500D01*
X5890500Y-11271500D02*
X5875500Y-11286500D01*
X5884500Y-11359500D02*
X5899500Y-11374500D01*
X5899500Y-11359500D02*
X5884500Y-11374500D01*
X5929500Y-18948500D02*
X5944500Y-18963500D01*
X5944500Y-18948500D02*
X5929500Y-18963500D01*
X5997500Y-11363500D02*
X6012500Y-11378500D01*
X6012500Y-11363500D02*
X5997500Y-11378500D01*
X6008500Y-11512500D02*
X6023500Y-11527500D01*
X6023500Y-11512500D02*
X6008500Y-11527500D01*
X6026500Y-11412500D02*
X6041500Y-11427500D01*
X6041500Y-11412500D02*
X6026500Y-11427500D01*
X6122500Y-11499500D02*
X6137500Y-11514500D01*
X6137500Y-11499500D02*
X6122500Y-11514500D01*
X6177500Y-18063500D02*
X6192500Y-18078500D01*
X6192500Y-18063500D02*
X6177500Y-18078500D01*
X6206500Y-11562500D02*
X6221500Y-11577500D01*
X6221500Y-11562500D02*
X6206500Y-11577500D01*
X6228500Y-18735500D02*
X6243500Y-18750500D01*
X6243500Y-18735500D02*
X6228500Y-18750500D01*
X6268500Y-11625500D02*
X6283500Y-11640500D01*
X6283500Y-11625500D02*
X6268500Y-11640500D01*
X6303500Y-18061500D02*
X6318500Y-18076500D01*
X6318500Y-18061500D02*
X6303500Y-18076500D01*
X6398500Y-10359500D02*
X6413500Y-10374500D01*
X6413500Y-10359500D02*
X6398500Y-10374500D01*
X6557500Y-10392500D02*
X6572500Y-10407500D01*
X6572500Y-10392500D02*
X6557500Y-10407500D01*
X6570000Y-11594500D02*
X6585000Y-11609500D01*
X6585000Y-11594500D02*
X6570000Y-11609500D01*
X6571000Y-11724500D02*
X6586000Y-11739500D01*
X6586000Y-11724500D02*
X6571000Y-11739500D01*
X6754500Y-11790000D02*
X6769500Y-11805000D01*
X6769500Y-11790000D02*
X6754500Y-11805000D01*
X6754500Y-11855500D02*
X6769500Y-11870500D01*
X6769500Y-11855500D02*
X6754500Y-11870500D01*
X6754500Y-11920000D02*
X6769500Y-11935000D01*
X6769500Y-11920000D02*
X6754500Y-11935000D01*
X6754500Y-11985000D02*
X6769500Y-12000000D01*
X6769500Y-11985000D02*
X6754500Y-12000000D01*
X6754500Y-12180000D02*
X6769500Y-12195000D01*
X6769500Y-12180000D02*
X6754500Y-12195000D01*
X6775500Y-14000500D02*
X6790500Y-14015500D01*
X6790500Y-14000500D02*
X6775500Y-14015500D01*
X6776500Y-13610000D02*
X6791500Y-13625000D01*
X6791500Y-13610000D02*
X6776500Y-13625000D01*
X6776500Y-13675000D02*
X6791500Y-13690000D01*
X6791500Y-13675000D02*
X6776500Y-13690000D01*
X6776500Y-13740000D02*
X6791500Y-13755000D01*
X6791500Y-13740000D02*
X6776500Y-13755000D01*
X6776500Y-13805000D02*
X6791500Y-13820000D01*
X6791500Y-13805000D02*
X6776500Y-13820000D01*
X6821000Y-12362300D02*
X6836000Y-12377300D01*
X6836000Y-12362300D02*
X6821000Y-12377300D01*
X6821000Y-13142000D02*
X6836000Y-13157000D01*
X6836000Y-13142000D02*
X6821000Y-13157000D01*
X6902500Y-12884500D02*
X6917500Y-12899500D01*
X6917500Y-12884500D02*
X6902500Y-12899500D01*
X6933500Y-13934500D02*
X6948500Y-13949500D01*
X6948500Y-13934500D02*
X6933500Y-13949500D01*
X6988500Y-14593500D02*
X7003500Y-14608500D01*
X7003500Y-14593500D02*
X6988500Y-14608500D01*
X7089500Y-13863500D02*
X7104500Y-13878500D01*
X7104500Y-13863500D02*
X7089500Y-13878500D01*
X7116500Y-13800500D02*
X7131500Y-13815500D01*
X7131500Y-13800500D02*
X7116500Y-13815500D01*
X7120500Y-13926500D02*
X7135500Y-13941500D01*
X7135500Y-13926500D02*
X7120500Y-13941500D01*
X7120500Y-13987500D02*
X7135500Y-14002500D01*
X7135500Y-13987500D02*
X7120500Y-14002500D01*
X7195500Y-14462500D02*
X7210500Y-14477500D01*
X7210500Y-14462500D02*
X7195500Y-14477500D01*
X7221500Y-11305500D02*
X7236500Y-11320500D01*
X7236500Y-11305500D02*
X7221500Y-11320500D01*
X7356500Y-13739500D02*
X7371500Y-13754500D01*
X7371500Y-13739500D02*
X7356500Y-13754500D01*
X7356500Y-13805000D02*
X7371500Y-13820000D01*
X7371500Y-13805000D02*
X7356500Y-13820000D01*
X7356500Y-13870000D02*
X7371500Y-13885000D01*
X7371500Y-13870000D02*
X7356500Y-13885000D01*
X7356500Y-13935000D02*
X7371500Y-13950000D01*
X7371500Y-13935000D02*
X7356500Y-13950000D01*
X7356500Y-14000000D02*
X7371500Y-14015000D01*
X7371500Y-14000000D02*
X7356500Y-14015000D01*
X7356500Y-14065000D02*
X7371500Y-14080000D01*
X7371500Y-14065000D02*
X7356500Y-14080000D01*
X7362500Y-11018500D02*
X7377500Y-11033500D01*
X7377500Y-11018500D02*
X7362500Y-11033500D01*
X7387500Y-14378500D02*
X7402500Y-14393500D01*
X7402500Y-14378500D02*
X7387500Y-14393500D01*
X7431500Y-15030500D02*
X7446500Y-15045500D01*
X7446500Y-15030500D02*
X7431500Y-15045500D01*
X7452500Y-9103500D02*
X7467500Y-9118500D01*
X7467500Y-9103500D02*
X7452500Y-9118500D01*
X7474500Y-13507500D02*
X7489500Y-13522500D01*
X7489500Y-13507500D02*
X7474500Y-13522500D01*
X7482500Y-10678500D02*
X7497500Y-10693500D01*
X7497500Y-10678500D02*
X7482500Y-10693500D01*
X7509500Y-13752500D02*
X7524500Y-13767500D01*
X7524500Y-13752500D02*
X7509500Y-13767500D01*
X7527500Y-12752500D02*
X7542500Y-12767500D01*
X7542500Y-12752500D02*
X7527500Y-12767500D01*
X7529500Y-9103500D02*
X7544500Y-9118500D01*
X7544500Y-9103500D02*
X7529500Y-9118500D01*
X7539500Y-10610500D02*
X7554500Y-10625500D01*
X7554500Y-10610500D02*
X7539500Y-10625500D01*
X7540500Y-13559500D02*
X7555500Y-13574500D01*
X7555500Y-13559500D02*
X7540500Y-13574500D01*
X7540500Y-14328500D02*
X7555500Y-14343500D01*
X7555500Y-14328500D02*
X7540500Y-14343500D01*
X7542500Y-13661500D02*
X7557500Y-13676500D01*
X7557500Y-13661500D02*
X7542500Y-13676500D01*
X7543500Y-13147500D02*
X7558500Y-13162500D01*
X7558500Y-13147500D02*
X7543500Y-13162500D01*
X7548500Y-12893500D02*
X7563500Y-12908500D01*
X7563500Y-12893500D02*
X7548500Y-12908500D01*
X7551500Y-15975500D02*
X7566500Y-15990500D01*
X7566500Y-15975500D02*
X7551500Y-15990500D01*
X7572500Y-11597500D02*
X7587500Y-11612500D01*
X7587500Y-11597500D02*
X7572500Y-11612500D01*
X7582500Y-14080500D02*
X7597500Y-14095500D01*
X7597500Y-14080500D02*
X7582500Y-14095500D01*
X7594500Y-12114500D02*
X7609500Y-12129500D01*
X7609500Y-12114500D02*
X7594500Y-12129500D01*
X7595500Y-12049500D02*
X7610500Y-12064500D01*
X7610500Y-12049500D02*
X7595500Y-12064500D01*
X7598500Y-11919500D02*
X7613500Y-11934500D01*
X7613500Y-11919500D02*
X7598500Y-11934500D01*
X7598500Y-11984500D02*
X7613500Y-11999500D01*
X7613500Y-11984500D02*
X7598500Y-11999500D01*
X7601500Y-15473500D02*
X7616500Y-15488500D01*
X7616500Y-15473500D02*
X7601500Y-15488500D01*
X7602500Y-11722500D02*
X7617500Y-11737500D01*
X7617500Y-11722500D02*
X7602500Y-11737500D01*
X7602500Y-11854500D02*
X7617500Y-11869500D01*
X7617500Y-11854500D02*
X7602500Y-11869500D01*
X7603500Y-10598500D02*
X7618500Y-10613500D01*
X7618500Y-10598500D02*
X7603500Y-10613500D01*
X7603500Y-11790500D02*
X7618500Y-11805500D01*
X7618500Y-11790500D02*
X7603500Y-11805500D01*
X7605500Y-13706500D02*
X7620500Y-13721500D01*
X7620500Y-13706500D02*
X7605500Y-13721500D01*
X7611500Y-9108500D02*
X7626500Y-9123500D01*
X7626500Y-9108500D02*
X7611500Y-9123500D01*
X7636500Y-10831500D02*
X7651500Y-10846500D01*
X7651500Y-10831500D02*
X7636500Y-10846500D01*
X7639500Y-10678500D02*
X7654500Y-10693500D01*
X7654500Y-10678500D02*
X7639500Y-10693500D01*
X7652500Y-14323500D02*
X7667500Y-14338500D01*
X7667500Y-14323500D02*
X7652500Y-14338500D01*
X7678500Y-15560500D02*
X7693500Y-15575500D01*
X7693500Y-15560500D02*
X7678500Y-15575500D01*
X7680500Y-9107500D02*
X7695500Y-9122500D01*
X7695500Y-9107500D02*
X7680500Y-9122500D01*
X7737500Y-15774500D02*
X7752500Y-15789500D01*
X7752500Y-15774500D02*
X7737500Y-15789500D01*
X7738500Y-14722500D02*
X7753500Y-14737500D01*
X7753500Y-14722500D02*
X7738500Y-14737500D01*
X7742500Y-9107500D02*
X7757500Y-9122500D01*
X7757500Y-9107500D02*
X7742500Y-9122500D01*
X7758500Y-9442500D02*
X7773500Y-9457500D01*
X7773500Y-9442500D02*
X7758500Y-9457500D01*
X7774500Y-10645500D02*
X7789500Y-10660500D01*
X7789500Y-10645500D02*
X7774500Y-10660500D01*
X7780500Y-11790500D02*
X7795500Y-11805500D01*
X7795500Y-11790500D02*
X7780500Y-11805500D01*
X7781500Y-10735500D02*
X7796500Y-10750500D01*
X7796500Y-10735500D02*
X7781500Y-10750500D01*
X7785500Y-10810500D02*
X7800500Y-10825500D01*
X7800500Y-10810500D02*
X7785500Y-10825500D01*
X7793500Y-13622000D02*
X7808500Y-13637000D01*
X7808500Y-13622000D02*
X7793500Y-13637000D01*
X7793500Y-13687000D02*
X7808500Y-13702000D01*
X7808500Y-13687000D02*
X7793500Y-13702000D01*
X7807500Y-13547500D02*
X7822500Y-13562500D01*
X7822500Y-13547500D02*
X7807500Y-13562500D01*
X7812500Y-9147500D02*
X7827500Y-9162500D01*
X7827500Y-9147500D02*
X7812500Y-9162500D01*
X7820500Y-10881500D02*
X7835500Y-10896500D01*
X7835500Y-10881500D02*
X7820500Y-10896500D01*
X7820500Y-11983500D02*
X7835500Y-11998500D01*
X7835500Y-11983500D02*
X7820500Y-11998500D01*
X7850500Y-12322000D02*
X7865500Y-12337000D01*
X7865500Y-12322000D02*
X7850500Y-12337000D01*
X7858500Y-11919500D02*
X7873500Y-11934500D01*
X7873500Y-11919500D02*
X7858500Y-11934500D01*
X7869500Y-16144500D02*
X7884500Y-16159500D01*
X7884500Y-16144500D02*
X7869500Y-16159500D01*
X7894500Y-9210500D02*
X7909500Y-9225500D01*
X7909500Y-9210500D02*
X7894500Y-9225500D01*
X7905500Y-10835500D02*
X7920500Y-10850500D01*
X7920500Y-10835500D02*
X7905500Y-10850500D01*
X7910500Y-14593500D02*
X7925500Y-14608500D01*
X7925500Y-14593500D02*
X7910500Y-14608500D01*
X7919500Y-14411500D02*
X7934500Y-14426500D01*
X7934500Y-14411500D02*
X7919500Y-14426500D01*
X7928500Y-11855500D02*
X7943500Y-11870500D01*
X7943500Y-11855500D02*
X7928500Y-11870500D01*
X7932500Y-16771500D02*
X7947500Y-16786500D01*
X7947500Y-16771500D02*
X7932500Y-16786500D01*
X7965500Y-9208500D02*
X7980500Y-9223500D01*
X7980500Y-9208500D02*
X7965500Y-9223500D01*
X7976500Y-16828500D02*
X7991500Y-16843500D01*
X7991500Y-16828500D02*
X7976500Y-16843500D01*
X7978500Y-15964500D02*
X7993500Y-15979500D01*
X7993500Y-15964500D02*
X7978500Y-15979500D01*
X7992500Y-14602500D02*
X8007500Y-14617500D01*
X8007500Y-14602500D02*
X7992500Y-14617500D01*
X7997500Y-16143500D02*
X8012500Y-16158500D01*
X8012500Y-16143500D02*
X7997500Y-16158500D01*
X8120500Y-16833500D02*
X8135500Y-16848500D01*
X8135500Y-16833500D02*
X8120500Y-16848500D01*
X8123500Y-10472500D02*
X8138500Y-10487500D01*
X8138500Y-10472500D02*
X8123500Y-10487500D01*
X8151500Y-16694500D02*
X8166500Y-16709500D01*
X8166500Y-16694500D02*
X8151500Y-16709500D01*
X8152500Y-9341500D02*
X8167500Y-9356500D01*
X8167500Y-9341500D02*
X8152500Y-9356500D01*
X8174500Y-13504500D02*
X8189500Y-13519500D01*
X8189500Y-13504500D02*
X8174500Y-13519500D01*
X8238500Y-13436500D02*
X8253500Y-13451500D01*
X8253500Y-13436500D02*
X8238500Y-13451500D01*
X8238500Y-15717500D02*
X8253500Y-15732500D01*
X8253500Y-15717500D02*
X8238500Y-15732500D01*
X8249500Y-16085500D02*
X8264500Y-16100500D01*
X8264500Y-16085500D02*
X8249500Y-16100500D01*
X8250500Y-14116500D02*
X8265500Y-14131500D01*
X8265500Y-14116500D02*
X8250500Y-14131500D01*
X8252500Y-14268500D02*
X8267500Y-14283500D01*
X8267500Y-14268500D02*
X8252500Y-14283500D01*
X8257500Y-9490500D02*
X8272500Y-9505500D01*
X8272500Y-9490500D02*
X8257500Y-9505500D01*
X8257500Y-9537500D02*
X8272500Y-9552500D01*
X8272500Y-9537500D02*
X8257500Y-9552500D01*
X8259500Y-9442500D02*
X8274500Y-9457500D01*
X8274500Y-9442500D02*
X8259500Y-9457500D01*
X8262500Y-9336500D02*
X8277500Y-9351500D01*
X8277500Y-9336500D02*
X8262500Y-9351500D01*
X8263500Y-9393500D02*
X8278500Y-9408500D01*
X8278500Y-9393500D02*
X8263500Y-9408500D01*
X8283500Y-15950500D02*
X8298500Y-15965500D01*
X8298500Y-15950500D02*
X8283500Y-15965500D01*
X8290500Y-13301500D02*
X8305500Y-13316500D01*
X8305500Y-13301500D02*
X8290500Y-13316500D01*
X8291500Y-13230500D02*
X8306500Y-13245500D01*
X8306500Y-13230500D02*
X8291500Y-13245500D01*
X8293500Y-13079500D02*
X8308500Y-13094500D01*
X8308500Y-13079500D02*
X8293500Y-13094500D01*
X8293500Y-13157500D02*
X8308500Y-13172500D01*
X8308500Y-13157500D02*
X8293500Y-13172500D01*
X8309500Y-12993500D02*
X8324500Y-13008500D01*
X8324500Y-12993500D02*
X8309500Y-13008500D01*
X8330500Y-16963500D02*
X8345500Y-16978500D01*
X8345500Y-16963500D02*
X8330500Y-16978500D01*
X8332500Y-16466500D02*
X8347500Y-16481500D01*
X8347500Y-16466500D02*
X8332500Y-16481500D01*
X8340500Y-16795500D02*
X8355500Y-16810500D01*
X8355500Y-16795500D02*
X8340500Y-16810500D01*
X8369500Y-12049500D02*
X8384500Y-12064500D01*
X8384500Y-12049500D02*
X8369500Y-12064500D01*
X8373500Y-13687000D02*
X8388500Y-13702000D01*
X8388500Y-13687000D02*
X8373500Y-13702000D01*
X8373500Y-13752000D02*
X8388500Y-13767000D01*
X8388500Y-13752000D02*
X8373500Y-13767000D01*
X8373500Y-13817000D02*
X8388500Y-13832000D01*
X8388500Y-13817000D02*
X8373500Y-13832000D01*
X8373500Y-13882000D02*
X8388500Y-13897000D01*
X8388500Y-13882000D02*
X8373500Y-13897000D01*
X8373500Y-13947000D02*
X8388500Y-13962000D01*
X8388500Y-13947000D02*
X8373500Y-13962000D01*
X8373500Y-14012000D02*
X8388500Y-14027000D01*
X8388500Y-14012000D02*
X8373500Y-14027000D01*
X8395500Y-16322500D02*
X8410500Y-16337500D01*
X8410500Y-16322500D02*
X8395500Y-16337500D01*
X8410042Y-9886000D02*
X8425042Y-9901000D01*
X8425042Y-9886000D02*
X8410042Y-9901000D01*
X8418500Y-11282500D02*
X8433500Y-11297500D01*
X8433500Y-11282500D02*
X8418500Y-11297500D01*
X8418500Y-11597500D02*
X8433500Y-11612500D01*
X8433500Y-11597500D02*
X8418500Y-11612500D01*
X8445500Y-10235500D02*
X8460500Y-10250500D01*
X8460500Y-10235500D02*
X8445500Y-10250500D01*
X8459500Y-10134500D02*
X8474500Y-10149500D01*
X8474500Y-10134500D02*
X8459500Y-10149500D01*
X8470500Y-11660500D02*
X8485500Y-11675500D01*
X8485500Y-11660500D02*
X8470500Y-11675500D01*
X8494500Y-16229500D02*
X8509500Y-16244500D01*
X8509500Y-16229500D02*
X8494500Y-16244500D01*
X8592500Y-16113500D02*
X8607500Y-16128500D01*
X8607500Y-16113500D02*
X8592500Y-16128500D01*
X8598500Y-11282500D02*
X8613500Y-11297500D01*
X8613500Y-11282500D02*
X8598500Y-11297500D01*
X8618500Y-15860500D02*
X8633500Y-15875500D01*
X8633500Y-15860500D02*
X8618500Y-15875500D01*
X8640500Y-12115500D02*
X8655500Y-12130500D01*
X8655500Y-12115500D02*
X8640500Y-12130500D01*
X8687500Y-10049500D02*
X8702500Y-10064500D01*
X8702500Y-10049500D02*
X8687500Y-10064500D01*
X8694500Y-10131500D02*
X8709500Y-10146500D01*
X8709500Y-10131500D02*
X8694500Y-10146500D01*
X8741500Y-11039500D02*
X8756500Y-11054500D01*
X8756500Y-11039500D02*
X8741500Y-11054500D01*
X8757500Y-10300500D02*
X8772500Y-10315500D01*
X8772500Y-10300500D02*
X8757500Y-10315500D01*
X8773500Y-8953500D02*
X8788500Y-8968500D01*
X8788500Y-8953500D02*
X8773500Y-8968500D01*
X8790500Y-10925500D02*
X8805500Y-10940500D01*
X8805500Y-10925500D02*
X8790500Y-10940500D01*
X8813500Y-10049500D02*
X8828500Y-10064500D01*
X8828500Y-10049500D02*
X8813500Y-10064500D01*
X8830500Y-9291500D02*
X8845500Y-9306500D01*
X8845500Y-9291500D02*
X8830500Y-9306500D01*
X8830500Y-10151500D02*
X8845500Y-10166500D01*
X8845500Y-10151500D02*
X8830500Y-10166500D01*
X8833500Y-9174500D02*
X8848500Y-9189500D01*
X8848500Y-9174500D02*
X8833500Y-9189500D01*
X8838500Y-10623500D02*
X8853500Y-10638500D01*
X8853500Y-10623500D02*
X8838500Y-10638500D01*
X8850500Y-9038500D02*
X8865500Y-9053500D01*
X8865500Y-9038500D02*
X8850500Y-9053500D01*
X8850500Y-9606500D02*
X8865500Y-9621500D01*
X8865500Y-9606500D02*
X8850500Y-9621500D01*
X8853500Y-9494500D02*
X8868500Y-9509500D01*
X8868500Y-9494500D02*
X8853500Y-9509500D01*
X8871979Y-11601021D02*
X8886979Y-11616021D01*
X8886979Y-11601021D02*
X8871979Y-11616021D01*
X8881500Y-10367500D02*
X8896500Y-10382500D01*
X8896500Y-10367500D02*
X8881500Y-10382500D01*
X8902500Y-9442500D02*
X8917500Y-9457500D01*
X8917500Y-9442500D02*
X8902500Y-9457500D01*
X8902500Y-9607500D02*
X8917500Y-9622500D01*
X8917500Y-9607500D02*
X8902500Y-9622500D01*
X8911500Y-9179500D02*
X8926500Y-9194500D01*
X8926500Y-9179500D02*
X8911500Y-9194500D01*
X8922500Y-14039500D02*
X8937500Y-14054500D01*
X8937500Y-14039500D02*
X8922500Y-14054500D01*
X8932500Y-17695500D02*
X8947500Y-17710500D01*
X8947500Y-17695500D02*
X8932500Y-17710500D01*
X8938500Y-9960500D02*
X8953500Y-9975500D01*
X8953500Y-9960500D02*
X8938500Y-9975500D01*
X8944500Y-14560500D02*
X8959500Y-14575500D01*
X8959500Y-14560500D02*
X8944500Y-14575500D01*
X8946500Y-14484500D02*
X8961500Y-14499500D01*
X8961500Y-14484500D02*
X8946500Y-14499500D01*
X8952500Y-9557500D02*
X8967500Y-9572500D01*
X8967500Y-9557500D02*
X8952500Y-9572500D01*
X8955500Y-16878500D02*
X8970500Y-16893500D01*
X8970500Y-16878500D02*
X8955500Y-16893500D01*
X9008500Y-10769500D02*
X9023500Y-10784500D01*
X9023500Y-10769500D02*
X9008500Y-10784500D01*
X9020000Y-15328000D02*
X9035000Y-15343000D01*
X9035000Y-15328000D02*
X9020000Y-15343000D01*
X9022500Y-10138000D02*
X9037500Y-10153000D01*
X9037500Y-10138000D02*
X9022500Y-10153000D01*
X9040500Y-9668500D02*
X9055500Y-9683500D01*
X9055500Y-9668500D02*
X9040500Y-9683500D01*
X9056500Y-12010500D02*
X9071500Y-12025500D01*
X9071500Y-12010500D02*
X9056500Y-12025500D01*
X9068542Y-12319500D02*
X9083542Y-12334500D01*
X9083542Y-12319500D02*
X9068542Y-12334500D01*
X9087500Y-9214500D02*
X9102500Y-9229500D01*
X9102500Y-9214500D02*
X9087500Y-9229500D01*
X9087500Y-10138000D02*
X9102500Y-10153000D01*
X9102500Y-10138000D02*
X9087500Y-10153000D01*
X9093500Y-12914500D02*
X9108500Y-12929500D01*
X9108500Y-12914500D02*
X9093500Y-12929500D01*
X9152500Y-9214500D02*
X9167500Y-9229500D01*
X9167500Y-9214500D02*
X9152500Y-9229500D01*
X9152500Y-9607500D02*
X9167500Y-9622500D01*
X9167500Y-9607500D02*
X9152500Y-9622500D01*
X9152500Y-10138000D02*
X9167500Y-10153000D01*
X9167500Y-10138000D02*
X9152500Y-10153000D01*
X9168500Y-10840500D02*
X9183500Y-10855500D01*
X9183500Y-10840500D02*
X9168500Y-10855500D01*
X9217500Y-9214000D02*
X9232500Y-9229000D01*
X9232500Y-9214000D02*
X9217500Y-9229000D01*
X9217500Y-9557500D02*
X9232500Y-9572500D01*
X9232500Y-9557500D02*
X9217500Y-9572500D01*
X9217500Y-10138000D02*
X9232500Y-10153000D01*
X9232500Y-10138000D02*
X9217500Y-10153000D01*
X9271500Y-12937500D02*
X9286500Y-12952500D01*
X9286500Y-12937500D02*
X9271500Y-12952500D01*
X9281500Y-9511500D02*
X9296500Y-9526500D01*
X9296500Y-9511500D02*
X9281500Y-9526500D01*
X9282500Y-9214500D02*
X9297500Y-9229500D01*
X9297500Y-9214500D02*
X9282500Y-9229500D01*
X9282500Y-10138000D02*
X9297500Y-10153000D01*
X9297500Y-10138000D02*
X9282500Y-10153000D01*
X9309500Y-11823500D02*
X9324500Y-11838500D01*
X9324500Y-11823500D02*
X9309500Y-11838500D01*
X9330500Y-12240500D02*
X9345500Y-12255500D01*
X9345500Y-12240500D02*
X9330500Y-12255500D01*
X9347500Y-8990500D02*
X9362500Y-9005500D01*
X9362500Y-8990500D02*
X9347500Y-9005500D01*
X9347500Y-10138000D02*
X9362500Y-10153000D01*
X9362500Y-10138000D02*
X9347500Y-10153000D01*
X9377500Y-12571500D02*
X9392500Y-12586500D01*
X9392500Y-12571500D02*
X9377500Y-12586500D01*
X9391500Y-11933542D02*
X9406500Y-11948542D01*
X9406500Y-11933542D02*
X9391500Y-11948542D01*
X9400500Y-11251500D02*
X9415500Y-11266500D01*
X9415500Y-11251500D02*
X9400500Y-11266500D01*
X9412500Y-9037500D02*
X9427500Y-9052500D01*
X9427500Y-9037500D02*
X9412500Y-9052500D01*
X9412500Y-10138000D02*
X9427500Y-10153000D01*
X9427500Y-10138000D02*
X9412500Y-10153000D01*
X9425500Y-12154542D02*
X9440500Y-12169542D01*
X9440500Y-12154542D02*
X9425500Y-12169542D01*
X9462500Y-12698500D02*
X9477500Y-12713500D01*
X9477500Y-12698500D02*
X9462500Y-12713500D01*
X9463500Y-10379500D02*
X9478500Y-10394500D01*
X9478500Y-10379500D02*
X9463500Y-10394500D01*
X9477500Y-9085500D02*
X9492500Y-9100500D01*
X9492500Y-9085500D02*
X9477500Y-9100500D01*
X9477500Y-10138000D02*
X9492500Y-10153000D01*
X9492500Y-10138000D02*
X9477500Y-10153000D01*
X9511000Y-12752000D02*
X9526000Y-12767000D01*
X9526000Y-12752000D02*
X9511000Y-12767000D01*
X9519500Y-12154542D02*
X9534500Y-12169542D01*
X9534500Y-12154542D02*
X9519500Y-12169542D01*
X9523500Y-11062542D02*
X9538500Y-11077542D01*
X9538500Y-11062542D02*
X9523500Y-11077542D01*
X9542500Y-9131500D02*
X9557500Y-9146500D01*
X9557500Y-9131500D02*
X9542500Y-9146500D01*
X9555500Y-11746542D02*
X9570500Y-11761542D01*
X9570500Y-11746542D02*
X9555500Y-11761542D01*
X9555500Y-11933542D02*
X9570500Y-11948542D01*
X9570500Y-11933542D02*
X9555500Y-11948542D01*
X9611500Y-12154542D02*
X9626500Y-12169542D01*
X9626500Y-12154542D02*
X9611500Y-12169542D01*
X9630500Y-10955500D02*
X9645500Y-10970500D01*
X9645500Y-10955500D02*
X9630500Y-10970500D01*
X9640500Y-11153500D02*
X9655500Y-11168500D01*
X9655500Y-11153500D02*
X9640500Y-11168500D01*
X9683500Y-10314500D02*
X9698500Y-10329500D01*
X9698500Y-10314500D02*
X9683500Y-10329500D01*
X9690500Y-9933500D02*
X9705500Y-9948500D01*
X9705500Y-9933500D02*
X9690500Y-9948500D01*
X9706500Y-12154542D02*
X9721500Y-12169542D01*
X9721500Y-12154542D02*
X9706500Y-12169542D01*
X9721500Y-11746542D02*
X9736500Y-11761542D01*
X9736500Y-11746542D02*
X9721500Y-11761542D01*
X9721500Y-11933542D02*
X9736500Y-11948542D01*
X9736500Y-11933542D02*
X9721500Y-11948542D01*
X9768500Y-16679500D02*
X9783500Y-16694500D01*
X9783500Y-16679500D02*
X9768500Y-16694500D01*
X9814500Y-10140000D02*
X9829500Y-10155000D01*
X9829500Y-10140000D02*
X9814500Y-10155000D01*
X9822000Y-15688000D02*
X9837000Y-15703000D01*
X9837000Y-15688000D02*
X9822000Y-15703000D01*
X9826500Y-15632500D02*
X9841500Y-15647500D01*
X9841500Y-15632500D02*
X9826500Y-15647500D01*
X9827500Y-10865500D02*
X9842500Y-10880500D01*
X9842500Y-10865500D02*
X9827500Y-10880500D01*
X9848500Y-16975500D02*
X9863500Y-16990500D01*
X9863500Y-16975500D02*
X9848500Y-16990500D01*
X9849500Y-17025500D02*
X9864500Y-17040500D01*
X9864500Y-17025500D02*
X9849500Y-17040500D01*
X9879500Y-9211000D02*
X9894500Y-9226000D01*
X9894500Y-9211000D02*
X9879500Y-9226000D01*
X9879500Y-9651500D02*
X9894500Y-9666500D01*
X9894500Y-9651500D02*
X9879500Y-9666500D01*
X9879500Y-10140000D02*
X9894500Y-10155000D01*
X9894500Y-10140000D02*
X9879500Y-10155000D01*
X9887500Y-11746542D02*
X9902500Y-11761542D01*
X9902500Y-11746542D02*
X9887500Y-11761542D01*
X9887500Y-11933542D02*
X9902500Y-11948542D01*
X9902500Y-11933542D02*
X9887500Y-11948542D01*
X9895500Y-14430500D02*
X9910500Y-14445500D01*
X9910500Y-14430500D02*
X9895500Y-14445500D01*
X9940500Y-10724500D02*
X9955500Y-10739500D01*
X9955500Y-10724500D02*
X9940500Y-10739500D01*
X9944500Y-9211000D02*
X9959500Y-9226000D01*
X9959500Y-9211000D02*
X9944500Y-9226000D01*
X9944500Y-9606500D02*
X9959500Y-9621500D01*
X9959500Y-9606500D02*
X9944500Y-9621500D01*
X9944500Y-10140000D02*
X9959500Y-10155000D01*
X9959500Y-10140000D02*
X9944500Y-10155000D01*
X10009500Y-10140000D02*
X10024500Y-10155000D01*
X10024500Y-10140000D02*
X10009500Y-10155000D01*
X10010500Y-9211500D02*
X10025500Y-9226500D01*
X10025500Y-9211500D02*
X10010500Y-9226500D01*
X10028542Y-10583500D02*
X10043542Y-10598500D01*
X10043542Y-10583500D02*
X10028542Y-10598500D01*
X10028542Y-10720500D02*
X10043542Y-10735500D01*
X10043542Y-10720500D02*
X10028542Y-10735500D01*
X10044500Y-9593500D02*
X10059500Y-9608500D01*
X10059500Y-9593500D02*
X10044500Y-9608500D01*
X10074500Y-9211000D02*
X10089500Y-9226000D01*
X10089500Y-9211000D02*
X10074500Y-9226000D01*
X10074500Y-10140000D02*
X10089500Y-10155000D01*
X10089500Y-10140000D02*
X10074500Y-10155000D01*
X10075500Y-9513500D02*
X10090500Y-9528500D01*
X10090500Y-9513500D02*
X10075500Y-9528500D01*
X10117458Y-10801500D02*
X10132458Y-10816500D01*
X10132458Y-10801500D02*
X10117458Y-10816500D01*
X10117500Y-10666500D02*
X10132500Y-10681500D01*
X10132500Y-10666500D02*
X10117500Y-10681500D01*
X10125500Y-17024500D02*
X10140500Y-17039500D01*
X10140500Y-17024500D02*
X10125500Y-17039500D01*
X10138500Y-8990500D02*
X10153500Y-9005500D01*
X10153500Y-8990500D02*
X10138500Y-9005500D01*
X10139500Y-10140000D02*
X10154500Y-10155000D01*
X10154500Y-10140000D02*
X10139500Y-10155000D01*
X10192500Y-11736500D02*
X10207500Y-11751500D01*
X10207500Y-11736500D02*
X10192500Y-11751500D01*
X10192500Y-13030500D02*
X10207500Y-13045500D01*
X10207500Y-13030500D02*
X10192500Y-13045500D01*
X10204500Y-10140000D02*
X10219500Y-10155000D01*
X10219500Y-10140000D02*
X10204500Y-10155000D01*
X10207500Y-9037500D02*
X10222500Y-9052500D01*
X10222500Y-9037500D02*
X10207500Y-9052500D01*
X10248250Y-16875500D02*
X10263250Y-16890500D01*
X10263250Y-16875500D02*
X10248250Y-16890500D01*
X10264500Y-14009500D02*
X10279500Y-14024500D01*
X10279500Y-14009500D02*
X10264500Y-14024500D01*
X10268500Y-10140000D02*
X10283500Y-10155000D01*
X10283500Y-10140000D02*
X10268500Y-10155000D01*
X10270500Y-9084500D02*
X10285500Y-9099500D01*
X10285500Y-9084500D02*
X10270500Y-9099500D01*
X10333500Y-9131500D02*
X10348500Y-9146500D01*
X10348500Y-9131500D02*
X10333500Y-9146500D01*
X10361500Y-15549500D02*
X10376500Y-15564500D01*
X10376500Y-15549500D02*
X10361500Y-15564500D01*
X10381500Y-11851500D02*
X10396500Y-11866500D01*
X10396500Y-11851500D02*
X10381500Y-11866500D01*
X10460500Y-13030500D02*
X10475500Y-13045500D01*
X10475500Y-13030500D02*
X10460500Y-13045500D01*
X10471500Y-15551500D02*
X10486500Y-15566500D01*
X10486500Y-15551500D02*
X10471500Y-15566500D01*
X10475500Y-16572500D02*
X10490500Y-16587500D01*
X10490500Y-16572500D02*
X10475500Y-16587500D01*
X10484500Y-9937500D02*
X10499500Y-9952500D01*
X10499500Y-9937500D02*
X10484500Y-9952500D01*
X10498500Y-11979500D02*
X10513500Y-11994500D01*
X10513500Y-11979500D02*
X10498500Y-11994500D01*
X10502500Y-13030500D02*
X10517500Y-13045500D01*
X10517500Y-13030500D02*
X10502500Y-13045500D01*
X10523500Y-10705500D02*
X10538500Y-10720500D01*
X10538500Y-10705500D02*
X10523500Y-10720500D01*
X10551500Y-13073500D02*
X10566500Y-13088500D01*
X10566500Y-13073500D02*
X10551500Y-13088500D01*
X10619500Y-16169458D02*
X10634500Y-16184458D01*
X10634500Y-16169458D02*
X10619500Y-16184458D01*
X10665500Y-13391500D02*
X10680500Y-13406500D01*
X10680500Y-13391500D02*
X10665500Y-13406500D01*
X10666500Y-13846500D02*
X10681500Y-13861500D01*
X10681500Y-13846500D02*
X10666500Y-13861500D01*
X10759458Y-13455500D02*
X10774458Y-13470500D01*
X10774458Y-13455500D02*
X10759458Y-13470500D01*
X10803500Y-16162500D02*
X10818500Y-16177500D01*
X10818500Y-16162500D02*
X10803500Y-16177500D01*
X10845500Y-16223500D02*
X10860500Y-16238500D01*
X10860500Y-16223500D02*
X10845500Y-16238500D01*
X10958500Y-13421500D02*
X10973500Y-13436500D01*
X10973500Y-13421500D02*
X10958500Y-13436500D01*
X10975500Y-12822500D02*
X10990500Y-12837500D01*
X10990500Y-12822500D02*
X10975500Y-12837500D01*
X10975500Y-15829500D02*
X10990500Y-15844500D01*
X10990500Y-15829500D02*
X10975500Y-15844500D01*
X10980500Y-16541500D02*
X10995500Y-16556500D01*
X10995500Y-16541500D02*
X10980500Y-16556500D01*
X11014500Y-8900500D02*
X11029500Y-8915500D01*
X11029500Y-8900500D02*
X11014500Y-8915500D01*
X11066500Y-16039500D02*
X11081500Y-16054500D01*
X11081500Y-16039500D02*
X11066500Y-16054500D01*
X11067458Y-12887500D02*
X11082458Y-12902500D01*
X11082458Y-12887500D02*
X11067458Y-12902500D01*
X11191500Y-15963500D02*
X11206500Y-15978500D01*
X11206500Y-15963500D02*
X11191500Y-15978500D01*
X11220500Y-14988500D02*
X11235500Y-15003500D01*
X11235500Y-14988500D02*
X11220500Y-15003500D01*
X11253500Y-15791500D02*
X11268500Y-15806500D01*
X11268500Y-15791500D02*
X11253500Y-15806500D01*
X11265500Y-14917500D02*
X11280500Y-14932500D01*
X11280500Y-14917500D02*
X11265500Y-14932500D01*
X11401500Y-16236500D02*
X11416500Y-16251500D01*
X11416500Y-16236500D02*
X11401500Y-16251500D01*
X11429500Y-16270500D02*
X11444500Y-16285500D01*
X11444500Y-16270500D02*
X11429500Y-16285500D01*
X11468500Y-16268500D02*
X11483500Y-16283500D01*
X11483500Y-16268500D02*
X11468500Y-16283500D01*
X11603500Y-15642500D02*
X11618500Y-15657500D01*
X11618500Y-15642500D02*
X11603500Y-15657500D01*
X11663500Y-15013500D02*
X11678500Y-15028500D01*
X11678500Y-15013500D02*
X11663500Y-15028500D01*
X11668500Y-15642500D02*
X11683500Y-15657500D01*
X11683500Y-15642500D02*
X11668500Y-15657500D01*
X11784500Y-12989500D02*
X11799500Y-13004500D01*
X11799500Y-12989500D02*
X11784500Y-13004500D01*
X11784500Y-15847500D02*
X11799500Y-15862500D01*
X11799500Y-15847500D02*
X11784500Y-15862500D01*
X11784500Y-15985500D02*
X11799500Y-16000500D01*
X11799500Y-15985500D02*
X11784500Y-16000500D01*
X11871500Y-16896500D02*
X11886500Y-16911500D01*
X11886500Y-16896500D02*
X11871500Y-16911500D01*
X11946500Y-13155500D02*
X11961500Y-13170500D01*
X11961500Y-13155500D02*
X11946500Y-13170500D01*
X11971500Y-15586500D02*
X11986500Y-15601500D01*
X11986500Y-15586500D02*
X11971500Y-15601500D01*
X11996500Y-14979500D02*
X12011500Y-14994500D01*
X12011500Y-14979500D02*
X11996500Y-14994500D01*
X12032500Y-10863500D02*
X12047500Y-10878500D01*
X12047500Y-10863500D02*
X12032500Y-10878500D01*
X12032500Y-11664500D02*
X12047500Y-11679500D01*
X12047500Y-11664500D02*
X12032500Y-11679500D01*
X12040500Y-15171500D02*
X12055500Y-15186500D01*
X12055500Y-15171500D02*
X12040500Y-15186500D01*
X12132500Y-10675500D02*
X12147500Y-10690500D01*
X12147500Y-10675500D02*
X12132500Y-10690500D01*
X12207500Y-10424500D02*
X12222500Y-10439500D01*
X12222500Y-10424500D02*
X12207500Y-10439500D01*
X12298500Y-9708500D02*
X12313500Y-9723500D01*
X12313500Y-9708500D02*
X12298500Y-9723500D01*
X12347500Y-9593500D02*
X12362500Y-9608500D01*
X12362500Y-9593500D02*
X12347500Y-9608500D01*
X12444500Y-13728500D02*
X12459500Y-13743500D01*
X12459500Y-13728500D02*
X12444500Y-13743500D01*
X12512500Y-10344500D02*
X12527500Y-10359500D01*
X12527500Y-10344500D02*
X12512500Y-10359500D01*
X12512500Y-13427500D02*
X12527500Y-13442500D01*
X12527500Y-13427500D02*
X12512500Y-13442500D01*
X12513500Y-13543500D02*
X12528500Y-13558500D01*
X12528500Y-13543500D02*
X12513500Y-13558500D01*
X12515500Y-13283500D02*
X12530500Y-13298500D01*
X12530500Y-13283500D02*
X12515500Y-13298500D01*
X12525500Y-15302500D02*
X12540500Y-15317500D01*
X12540500Y-15302500D02*
X12525500Y-15317500D01*
X12564500Y-13762500D02*
X12579500Y-13777500D01*
X12579500Y-13762500D02*
X12564500Y-13777500D01*
X12615500Y-13581500D02*
X12630500Y-13596500D01*
X12630500Y-13581500D02*
X12615500Y-13596500D01*
X12624500Y-9759500D02*
X12639500Y-9774500D01*
X12639500Y-9759500D02*
X12624500Y-9774500D01*
X12626500Y-9526500D02*
X12641500Y-9541500D01*
X12641500Y-9526500D02*
X12626500Y-9541500D01*
X12627500Y-9654500D02*
X12642500Y-9669500D01*
X12642500Y-9654500D02*
X12627500Y-9669500D01*
X12659500Y-10235500D02*
X12674500Y-10250500D01*
X12674500Y-10235500D02*
X12659500Y-10250500D01*
X12682500Y-13449500D02*
X12697500Y-13464500D01*
X12697500Y-13449500D02*
X12682500Y-13464500D01*
X12683500Y-13283500D02*
X12698500Y-13298500D01*
X12698500Y-13283500D02*
X12683500Y-13298500D01*
X12699500Y-14576458D02*
X12714500Y-14591458D01*
X12714500Y-14576458D02*
X12699500Y-14591458D01*
X12704500Y-16229500D02*
X12719500Y-16244500D01*
X12719500Y-16229500D02*
X12704500Y-16244500D01*
X12741500Y-16191500D02*
X12756500Y-16206500D01*
X12756500Y-16191500D02*
X12741500Y-16206500D01*
X12755500Y-15392500D02*
X12770500Y-15407500D01*
X12770500Y-15392500D02*
X12755500Y-15407500D01*
X12755500Y-15605500D02*
X12770500Y-15620500D01*
X12770500Y-15605500D02*
X12755500Y-15620500D01*
X12756500Y-15285500D02*
X12771500Y-15300500D01*
X12771500Y-15285500D02*
X12756500Y-15300500D01*
X12756500Y-15911500D02*
X12771500Y-15926500D01*
X12771500Y-15911500D02*
X12756500Y-15926500D01*
X12757500Y-15499500D02*
X12772500Y-15514500D01*
X12772500Y-15499500D02*
X12757500Y-15514500D01*
X12757500Y-15710500D02*
X12772500Y-15725500D01*
X12772500Y-15710500D02*
X12757500Y-15725500D01*
X12757500Y-15810500D02*
X12772500Y-15825500D01*
X12772500Y-15810500D02*
X12757500Y-15825500D01*
X12758500Y-15225500D02*
X12773500Y-15240500D01*
X12773500Y-15225500D02*
X12758500Y-15240500D01*
X12774500Y-13625542D02*
X12789500Y-13640542D01*
X12789500Y-13625542D02*
X12774500Y-13640542D01*
X12779500Y-16959500D02*
X12794500Y-16974500D01*
X12794500Y-16959500D02*
X12779500Y-16974500D01*
X12783500Y-9423500D02*
X12798500Y-9438500D01*
X12798500Y-9423500D02*
X12783500Y-9438500D01*
X12793500Y-10102500D02*
X12808500Y-10117500D01*
X12808500Y-10102500D02*
X12793500Y-10117500D01*
X12797500Y-15994500D02*
X12812500Y-16009500D01*
X12812500Y-15994500D02*
X12797500Y-16009500D01*
X12837500Y-16721500D02*
X12852500Y-16736500D01*
X12852500Y-16721500D02*
X12837500Y-16736500D01*
X12839500Y-14512500D02*
X12854500Y-14527500D01*
X12854500Y-14512500D02*
X12839500Y-14527500D01*
X12840542Y-14454500D02*
X12855542Y-14469500D01*
X12855542Y-14454500D02*
X12840542Y-14469500D01*
X12863500Y-9328500D02*
X12878500Y-9343500D01*
X12878500Y-9328500D02*
X12863500Y-9343500D01*
X12920500Y-15122500D02*
X12935500Y-15137500D01*
X12935500Y-15122500D02*
X12920500Y-15137500D01*
X13001500Y-9244500D02*
X13016500Y-9259500D01*
X13016500Y-9244500D02*
X13001500Y-9259500D01*
X13037500Y-10264500D02*
X13052500Y-10279500D01*
X13052500Y-10264500D02*
X13037500Y-10279500D01*
X13166500Y-10434500D02*
X13181500Y-10449500D01*
X13181500Y-10434500D02*
X13166500Y-10449500D01*
X13466500Y-10655500D02*
X13481500Y-10670500D01*
X13481500Y-10655500D02*
X13466500Y-10670500D01*
X13473500Y-18435500D02*
X13488500Y-18450500D01*
X13488500Y-18435500D02*
X13473500Y-18450500D01*
X13529500Y-15148500D02*
X13544500Y-15163500D01*
X13544500Y-15148500D02*
X13529500Y-15163500D01*
X13576500Y-12959500D02*
X13591500Y-12974500D01*
X13591500Y-12959500D02*
X13576500Y-12974500D01*
X13578500Y-14513500D02*
X13593500Y-14528500D01*
X13593500Y-14513500D02*
X13578500Y-14528500D01*
X13589500Y-13120500D02*
X13604500Y-13135500D01*
X13604500Y-13120500D02*
X13589500Y-13135500D01*
X13589500Y-14441500D02*
X13604500Y-14456500D01*
X13604500Y-14441500D02*
X13589500Y-14456500D01*
X13652500Y-14575500D02*
X13667500Y-14590500D01*
X13667500Y-14575500D02*
X13652500Y-14590500D01*
X13762500Y-13586500D02*
X13777500Y-13601500D01*
X13777500Y-13586500D02*
X13762500Y-13601500D01*
X13766500Y-13417500D02*
X13781500Y-13432500D01*
X13781500Y-13417500D02*
X13766500Y-13432500D01*
X13819500Y-13728500D02*
X13834500Y-13743500D01*
X13834500Y-13728500D02*
X13819500Y-13743500D01*
X13822500Y-14163500D02*
X13837500Y-14178500D01*
X13837500Y-14163500D02*
X13822500Y-14178500D01*
X13838500Y-15448500D02*
X13853500Y-15463500D01*
X13853500Y-15448500D02*
X13838500Y-15463500D01*
X13839500Y-15269500D02*
X13854500Y-15284500D01*
X13854500Y-15269500D02*
X13839500Y-15284500D01*
X13839500Y-15504500D02*
X13854500Y-15519500D01*
X13854500Y-15504500D02*
X13839500Y-15519500D01*
X13839500Y-15568500D02*
X13854500Y-15583500D01*
X13854500Y-15568500D02*
X13839500Y-15583500D01*
X13839500Y-15632500D02*
X13854500Y-15647500D01*
X13854500Y-15632500D02*
X13839500Y-15647500D01*
X13839500Y-15698500D02*
X13854500Y-15713500D01*
X13854500Y-15698500D02*
X13839500Y-15713500D01*
X13839500Y-15761500D02*
X13854500Y-15776500D01*
X13854500Y-15761500D02*
X13839500Y-15776500D01*
X13840500Y-15828500D02*
X13855500Y-15843500D01*
X13855500Y-15828500D02*
X13840500Y-15843500D01*
X13869500Y-14376500D02*
X13884500Y-14391500D01*
X13884500Y-14376500D02*
X13869500Y-14391500D01*
X13948500Y-14288500D02*
X13963500Y-14303500D01*
X13963500Y-14288500D02*
X13948500Y-14303500D01*
X13991500Y-11599500D02*
X14006500Y-11614500D01*
X14006500Y-11599500D02*
X13991500Y-11614500D01*
X14102500Y-16337500D02*
X14117500Y-16352500D01*
X14117500Y-16337500D02*
X14102500Y-16352500D01*
X14102500Y-16485500D02*
X14117500Y-16500500D01*
X14117500Y-16485500D02*
X14102500Y-16500500D01*
X14120500Y-15889500D02*
X14135500Y-15904500D01*
X14135500Y-15889500D02*
X14120500Y-15904500D01*
X14130500Y-15974500D02*
X14145500Y-15989500D01*
X14145500Y-15974500D02*
X14130500Y-15989500D01*
X14135500Y-11440500D02*
X14150500Y-11455500D01*
X14150500Y-11440500D02*
X14135500Y-11455500D01*
X14145500Y-16043500D02*
X14160500Y-16058500D01*
X14160500Y-16043500D02*
X14145500Y-16058500D01*
X14161500Y-15284500D02*
X14176500Y-15299500D01*
X14176500Y-15284500D02*
X14161500Y-15299500D01*
X14214500Y-10535500D02*
X14229500Y-10550500D01*
X14229500Y-10535500D02*
X14214500Y-10550500D01*
X14216500Y-13349500D02*
X14231500Y-13364500D01*
X14231500Y-13349500D02*
X14216500Y-13364500D01*
X14235500Y-16592500D02*
X14250500Y-16607500D01*
X14250500Y-16592500D02*
X14235500Y-16607500D01*
X14249500Y-16321500D02*
X14264500Y-16336500D01*
X14264500Y-16321500D02*
X14249500Y-16336500D01*
X14290500Y-16263500D02*
X14305500Y-16278500D01*
X14305500Y-16263500D02*
X14290500Y-16278500D01*
X14295500Y-16831542D02*
X14310500Y-16846542D01*
X14310500Y-16831542D02*
X14295500Y-16846542D01*
X14295500Y-16921458D02*
X14310500Y-16936458D01*
X14310500Y-16921458D02*
X14295500Y-16936458D01*
X14295500Y-17006542D02*
X14310500Y-17021542D01*
X14310500Y-17006542D02*
X14295500Y-17021542D01*
X14312500Y-11989500D02*
X14327500Y-12004500D01*
X14327500Y-11989500D02*
X14312500Y-12004500D01*
X14329500Y-16659500D02*
X14344500Y-16674500D01*
X14344500Y-16659500D02*
X14329500Y-16674500D01*
X14353500Y-19642500D02*
X14368500Y-19657500D01*
X14368500Y-19642500D02*
X14353500Y-19657500D01*
X14363500Y-17712500D02*
X14378500Y-17727500D01*
X14378500Y-17712500D02*
X14363500Y-17727500D01*
X14366500Y-16143500D02*
X14381500Y-16158500D01*
X14381500Y-16143500D02*
X14366500Y-16158500D01*
X14366500Y-18181500D02*
X14381500Y-18196500D01*
X14381500Y-18181500D02*
X14366500Y-18196500D01*
X14379500Y-12807500D02*
X14394500Y-12822500D01*
X14394500Y-12807500D02*
X14379500Y-12822500D01*
X14395500Y-10631500D02*
X14410500Y-10646500D01*
X14410500Y-10631500D02*
X14395500Y-10646500D01*
X14396500Y-11667500D02*
X14411500Y-11682500D01*
X14411500Y-11667500D02*
X14396500Y-11682500D01*
X14396500Y-12090500D02*
X14411500Y-12105500D01*
X14411500Y-12090500D02*
X14396500Y-12105500D01*
X14403500Y-12499500D02*
X14418500Y-12514500D01*
X14418500Y-12499500D02*
X14403500Y-12514500D01*
X14415500Y-10255500D02*
X14430500Y-10270500D01*
X14430500Y-10255500D02*
X14415500Y-10270500D01*
X14416500Y-9890500D02*
X14431500Y-9905500D01*
X14431500Y-9890500D02*
X14416500Y-9905500D01*
X14423500Y-17181500D02*
X14438500Y-17196500D01*
X14438500Y-17181500D02*
X14423500Y-17196500D01*
X14462500Y-11568500D02*
X14477500Y-11583500D01*
X14477500Y-11568500D02*
X14462500Y-11583500D01*
X14467500Y-15698500D02*
X14482500Y-15713500D01*
X14482500Y-15698500D02*
X14467500Y-15713500D01*
X14468500Y-15504500D02*
X14483500Y-15519500D01*
X14483500Y-15504500D02*
X14468500Y-15519500D01*
X14468500Y-15568500D02*
X14483500Y-15583500D01*
X14483500Y-15568500D02*
X14468500Y-15583500D01*
X14468500Y-15632500D02*
X14483500Y-15647500D01*
X14483500Y-15632500D02*
X14468500Y-15647500D01*
X14468500Y-15761500D02*
X14483500Y-15776500D01*
X14483500Y-15761500D02*
X14468500Y-15776500D01*
X14468500Y-15828500D02*
X14483500Y-15843500D01*
X14483500Y-15828500D02*
X14468500Y-15843500D01*
X14469500Y-15438500D02*
X14484500Y-15453500D01*
X14484500Y-15438500D02*
X14469500Y-15453500D01*
X14469500Y-16831542D02*
X14484500Y-16846542D01*
X14484500Y-16831542D02*
X14469500Y-16846542D01*
X14469500Y-16921458D02*
X14484500Y-16936458D01*
X14484500Y-16921458D02*
X14469500Y-16936458D01*
X14469500Y-17006542D02*
X14484500Y-17021542D01*
X14484500Y-17006542D02*
X14469500Y-17021542D01*
X14481500Y-17181500D02*
X14496500Y-17196500D01*
X14496500Y-17181500D02*
X14481500Y-17196500D01*
X14499500Y-14444000D02*
X14514500Y-14459000D01*
X14514500Y-14444000D02*
X14499500Y-14459000D01*
X14499500Y-14574000D02*
X14514500Y-14589000D01*
X14514500Y-14574000D02*
X14499500Y-14589000D01*
X14499500Y-14639000D02*
X14514500Y-14654000D01*
X14514500Y-14639000D02*
X14499500Y-14654000D01*
X14499500Y-15029000D02*
X14514500Y-15044000D01*
X14514500Y-15029000D02*
X14499500Y-15044000D01*
X14509500Y-14325500D02*
X14524500Y-14340500D01*
X14524500Y-14325500D02*
X14509500Y-14340500D01*
X14519500Y-13995500D02*
X14534500Y-14010500D01*
X14534500Y-13995500D02*
X14519500Y-14010500D01*
X14569500Y-17324500D02*
X14584500Y-17339500D01*
X14584500Y-17324500D02*
X14569500Y-17339500D01*
X14570500Y-13635500D02*
X14585500Y-13650500D01*
X14585500Y-13635500D02*
X14570500Y-13650500D01*
X14606500Y-16082500D02*
X14621500Y-16097500D01*
X14621500Y-16082500D02*
X14606500Y-16097500D01*
X14612500Y-15381500D02*
X14627500Y-15396500D01*
X14627500Y-15381500D02*
X14612500Y-15396500D01*
X14615458Y-12692500D02*
X14630458Y-12707500D01*
X14630458Y-12692500D02*
X14615458Y-12707500D01*
X14618500Y-12996500D02*
X14633500Y-13011500D01*
X14633500Y-12996500D02*
X14618500Y-13011500D01*
X14623500Y-12434500D02*
X14638500Y-12449500D01*
X14638500Y-12434500D02*
X14623500Y-12449500D01*
X14635458Y-10135500D02*
X14650458Y-10150500D01*
X14650458Y-10135500D02*
X14635458Y-10150500D01*
X14635458Y-10481500D02*
X14650458Y-10496500D01*
X14650458Y-10481500D02*
X14635458Y-10496500D01*
X14636500Y-9766500D02*
X14651500Y-9781500D01*
X14651500Y-9766500D02*
X14636500Y-9781500D01*
X14637500Y-11571500D02*
X14652500Y-11586500D01*
X14652500Y-11571500D02*
X14637500Y-11586500D01*
X14638458Y-11876500D02*
X14653458Y-11891500D01*
X14653458Y-11876500D02*
X14638458Y-11891500D01*
X14639500Y-12185500D02*
X14654500Y-12200500D01*
X14654500Y-12185500D02*
X14639500Y-12200500D01*
X14698500Y-12512500D02*
X14713500Y-12527500D01*
X14713500Y-12512500D02*
X14698500Y-12527500D01*
X14704500Y-14688500D02*
X14719500Y-14703500D01*
X14719500Y-14688500D02*
X14704500Y-14703500D01*
X14721500Y-11763500D02*
X14736500Y-11778500D01*
X14736500Y-11763500D02*
X14721500Y-11778500D01*
X14724500Y-10318500D02*
X14739500Y-10333500D01*
X14739500Y-10318500D02*
X14724500Y-10333500D01*
X14736500Y-9956500D02*
X14751500Y-9971500D01*
X14751500Y-9956500D02*
X14736500Y-9971500D01*
X14737500Y-13327500D02*
X14752500Y-13342500D01*
X14752500Y-13327500D02*
X14737500Y-13342500D01*
X14738500Y-10815500D02*
X14753500Y-10830500D01*
X14753500Y-10815500D02*
X14738500Y-10830500D01*
X14750500Y-14099500D02*
X14765500Y-14114500D01*
X14765500Y-14099500D02*
X14750500Y-14114500D01*
X14756500Y-14452500D02*
X14771500Y-14467500D01*
X14771500Y-14452500D02*
X14756500Y-14467500D01*
X14757500Y-14576500D02*
X14772500Y-14591500D01*
X14772500Y-14576500D02*
X14757500Y-14591500D01*
X14784500Y-17114500D02*
X14799500Y-17129500D01*
X14799500Y-17114500D02*
X14784500Y-17129500D01*
X14816500Y-13196500D02*
X14831500Y-13211500D01*
X14831500Y-13196500D02*
X14816500Y-13211500D01*
X14833500Y-14587500D02*
X14848500Y-14602500D01*
X14848500Y-14587500D02*
X14833500Y-14602500D01*
X14868500Y-14835500D02*
X14883500Y-14850500D01*
X14883500Y-14835500D02*
X14868500Y-14850500D01*
X14881500Y-17029500D02*
X14896500Y-17044500D01*
X14896500Y-17029500D02*
X14881500Y-17044500D01*
X14904500Y-13824500D02*
X14919500Y-13839500D01*
X14919500Y-13824500D02*
X14904500Y-13839500D01*
X14909500Y-15203500D02*
X14924500Y-15218500D01*
X14924500Y-15203500D02*
X14909500Y-15218500D01*
X14913500Y-15031500D02*
X14928500Y-15046500D01*
X14928500Y-15031500D02*
X14913500Y-15046500D01*
X14948500Y-14610500D02*
X14963500Y-14625500D01*
X14963500Y-14610500D02*
X14948500Y-14625500D01*
X14955500Y-14714500D02*
X14970500Y-14729500D01*
X14970500Y-14714500D02*
X14955500Y-14729500D01*
X14958500Y-13588500D02*
X14973500Y-13603500D01*
X14973500Y-13588500D02*
X14958500Y-13603500D01*
X14959500Y-13876500D02*
X14974500Y-13891500D01*
X14974500Y-13876500D02*
X14959500Y-13891500D01*
X14986500Y-16912500D02*
X15001500Y-16927500D01*
X15001500Y-16912500D02*
X14986500Y-16927500D01*
X15031500Y-11666500D02*
X15046500Y-11681500D01*
X15046500Y-11666500D02*
X15031500Y-11681500D01*
X15033500Y-12091500D02*
X15048500Y-12106500D01*
X15048500Y-12091500D02*
X15033500Y-12106500D01*
X15043500Y-14442500D02*
X15058500Y-14457500D01*
X15058500Y-14442500D02*
X15043500Y-14457500D01*
X15048500Y-15503000D02*
X15063500Y-15518000D01*
X15063500Y-15503000D02*
X15048500Y-15518000D01*
X15048500Y-15568000D02*
X15063500Y-15583000D01*
X15063500Y-15568000D02*
X15048500Y-15583000D01*
X15049500Y-15697500D02*
X15064500Y-15712500D01*
X15064500Y-15697500D02*
X15049500Y-15712500D01*
X15050500Y-10492500D02*
X15065500Y-10507500D01*
X15065500Y-10492500D02*
X15050500Y-10507500D01*
X15050500Y-12499500D02*
X15065500Y-12514500D01*
X15065500Y-12499500D02*
X15050500Y-12514500D01*
X15050500Y-15437500D02*
X15065500Y-15452500D01*
X15065500Y-15437500D02*
X15050500Y-15452500D01*
X15050500Y-15633500D02*
X15065500Y-15648500D01*
X15065500Y-15633500D02*
X15050500Y-15648500D01*
X15050500Y-15762500D02*
X15065500Y-15777500D01*
X15065500Y-15762500D02*
X15050500Y-15777500D01*
X15050500Y-15828500D02*
X15065500Y-15843500D01*
X15065500Y-15828500D02*
X15050500Y-15843500D01*
X15054500Y-14312500D02*
X15069500Y-14327500D01*
X15069500Y-14312500D02*
X15054500Y-14327500D01*
X15055500Y-16098500D02*
X15070500Y-16113500D01*
X15070500Y-16098500D02*
X15055500Y-16113500D01*
X15055500Y-16228500D02*
X15070500Y-16243500D01*
X15070500Y-16228500D02*
X15055500Y-16243500D01*
X15080500Y-14701500D02*
X15095500Y-14716500D01*
X15095500Y-14701500D02*
X15080500Y-14716500D01*
X15098500Y-13657500D02*
X15113500Y-13672500D01*
X15113500Y-13657500D02*
X15098500Y-13672500D01*
X15105500Y-13578500D02*
X15120500Y-13593500D01*
X15120500Y-13578500D02*
X15105500Y-13593500D01*
X15123500Y-15952500D02*
X15138500Y-15967500D01*
X15138500Y-15952500D02*
X15123500Y-15967500D01*
X15130500Y-15124500D02*
X15145500Y-15139500D01*
X15145500Y-15124500D02*
X15130500Y-15139500D01*
X15136500Y-16907500D02*
X15151500Y-16922500D01*
X15151500Y-16907500D02*
X15136500Y-16922500D01*
X15155500Y-13227500D02*
X15170500Y-13242500D01*
X15170500Y-13227500D02*
X15155500Y-13242500D01*
X15170500Y-10860500D02*
X15185500Y-10875500D01*
X15185500Y-10860500D02*
X15170500Y-10875500D01*
X15172500Y-11281500D02*
X15187500Y-11296500D01*
X15187500Y-11281500D02*
X15172500Y-11296500D01*
X15205500Y-16598500D02*
X15220500Y-16613500D01*
X15220500Y-16598500D02*
X15205500Y-16613500D01*
X15207500Y-15222500D02*
X15222500Y-15237500D01*
X15222500Y-15222500D02*
X15207500Y-15237500D01*
X15225500Y-14099500D02*
X15240500Y-14114500D01*
X15240500Y-14099500D02*
X15225500Y-14114500D01*
X15233500Y-16727500D02*
X15248500Y-16742500D01*
X15248500Y-16727500D02*
X15233500Y-16742500D01*
X15249500Y-14642500D02*
X15264500Y-14657500D01*
X15264500Y-14642500D02*
X15249500Y-14657500D01*
X15254500Y-14885500D02*
X15269500Y-14900500D01*
X15269500Y-14885500D02*
X15254500Y-14900500D01*
X15258500Y-14712500D02*
X15273500Y-14727500D01*
X15273500Y-14712500D02*
X15258500Y-14727500D01*
X15269458Y-12321500D02*
X15284458Y-12336500D01*
X15284458Y-12321500D02*
X15269458Y-12336500D01*
X15269458Y-12688500D02*
X15284458Y-12703500D01*
X15284458Y-12688500D02*
X15269458Y-12703500D01*
X15270458Y-10314500D02*
X15285458Y-10329500D01*
X15285458Y-10314500D02*
X15270458Y-10329500D01*
X15270500Y-13001500D02*
X15285500Y-13016500D01*
X15285500Y-13001500D02*
X15270500Y-13016500D01*
X15270500Y-13452500D02*
X15285500Y-13467500D01*
X15285500Y-13452500D02*
X15270500Y-13467500D01*
X15271458Y-10679500D02*
X15286458Y-10694500D01*
X15286458Y-10679500D02*
X15271458Y-10694500D01*
X15271458Y-11454500D02*
X15286458Y-11469500D01*
X15286458Y-11454500D02*
X15271458Y-11469500D01*
X15272458Y-11029500D02*
X15287458Y-11044500D01*
X15287458Y-11029500D02*
X15272458Y-11044500D01*
X15272458Y-11881500D02*
X15287458Y-11896500D01*
X15287458Y-11881500D02*
X15272458Y-11896500D01*
X15304500Y-17119500D02*
X15319500Y-17134500D01*
X15319500Y-17119500D02*
X15304500Y-17134500D01*
X15313500Y-13222500D02*
X15328500Y-13237500D01*
X15328500Y-13222500D02*
X15313500Y-13237500D01*
X15335500Y-10924500D02*
X15350500Y-10939500D01*
X15350500Y-10924500D02*
X15335500Y-10939500D01*
X15342500Y-10558500D02*
X15357500Y-10573500D01*
X15357500Y-10558500D02*
X15342500Y-10573500D01*
X15347500Y-12185500D02*
X15362500Y-12200500D01*
X15362500Y-12185500D02*
X15347500Y-12200500D01*
X15355500Y-11760500D02*
X15370500Y-11775500D01*
X15370500Y-11760500D02*
X15355500Y-11775500D01*
X15362500Y-11328500D02*
X15377500Y-11343500D01*
X15377500Y-11328500D02*
X15362500Y-11343500D01*
X15380500Y-16741500D02*
X15395500Y-16756500D01*
X15395500Y-16741500D02*
X15380500Y-16756500D01*
X15397500Y-13820500D02*
X15412500Y-13835500D01*
X15412500Y-13820500D02*
X15397500Y-13835500D01*
X15400500Y-13894500D02*
X15415500Y-13909500D01*
X15415500Y-13894500D02*
X15400500Y-13909500D01*
X15405500Y-13557500D02*
X15420500Y-13572500D01*
X15420500Y-13557500D02*
X15405500Y-13572500D01*
X15417500Y-16842500D02*
X15432500Y-16857500D01*
X15432500Y-16842500D02*
X15417500Y-16857500D01*
X15458500Y-14081500D02*
X15473500Y-14096500D01*
X15473500Y-14081500D02*
X15458500Y-14096500D01*
X15463500Y-14954500D02*
X15478500Y-14969500D01*
X15478500Y-14954500D02*
X15463500Y-14969500D01*
X15466500Y-14564000D02*
X15481500Y-14579000D01*
X15481500Y-14564000D02*
X15466500Y-14579000D01*
X15466500Y-14759000D02*
X15481500Y-14774000D01*
X15481500Y-14759000D02*
X15466500Y-14774000D01*
X15466500Y-14823500D02*
X15481500Y-14838500D01*
X15481500Y-14823500D02*
X15466500Y-14838500D01*
X15466500Y-14889000D02*
X15481500Y-14904000D01*
X15481500Y-14889000D02*
X15466500Y-14904000D01*
X15467500Y-14627500D02*
X15482500Y-14642500D01*
X15482500Y-14627500D02*
X15467500Y-14642500D01*
X15468500Y-14692500D02*
X15483500Y-14707500D01*
X15483500Y-14692500D02*
X15468500Y-14707500D01*
X15503500Y-13674500D02*
X15518500Y-13689500D01*
X15518500Y-13674500D02*
X15503500Y-13689500D01*
X15583500Y-17011500D02*
X15598500Y-17026500D01*
X15598500Y-17011500D02*
X15583500Y-17026500D01*
X15635500Y-16879500D02*
X15650500Y-16894500D01*
X15650500Y-16879500D02*
X15635500Y-16894500D01*
X15684500Y-16749500D02*
X15699500Y-16764500D01*
X15699500Y-16749500D02*
X15684500Y-16764500D01*
X15737500Y-16684500D02*
X15752500Y-16699500D01*
X15752500Y-16684500D02*
X15737500Y-16699500D01*
X15746500Y-14388500D02*
X15761500Y-14403500D01*
X15761500Y-14388500D02*
X15746500Y-14403500D01*
X15775500Y-11241500D02*
X15790500Y-11256500D01*
X15790500Y-11241500D02*
X15775500Y-11256500D01*
X15780500Y-12907500D02*
X15795500Y-12922500D01*
X15795500Y-12907500D02*
X15780500Y-12922500D01*
X15785500Y-15601500D02*
X15800500Y-15616500D01*
X15800500Y-15601500D02*
X15785500Y-15616500D01*
X15801500Y-16101500D02*
X15816500Y-16116500D01*
X15816500Y-16101500D02*
X15801500Y-16116500D01*
X15814500Y-15787500D02*
X15829500Y-15802500D01*
X15829500Y-15787500D02*
X15814500Y-15802500D01*
X15896500Y-12102500D02*
X15911500Y-12117500D01*
X15911500Y-12102500D02*
X15896500Y-12117500D01*
X15908500Y-15519500D02*
X15923500Y-15534500D01*
X15923500Y-15519500D02*
X15908500Y-15534500D01*
X15912500Y-14396500D02*
X15927500Y-14411500D01*
X15927500Y-14396500D02*
X15912500Y-14411500D01*
X15912500Y-15591500D02*
X15927500Y-15606500D01*
X15927500Y-15591500D02*
X15912500Y-15606500D01*
X15914500Y-14212500D02*
X15929500Y-14227500D01*
X15929500Y-14212500D02*
X15914500Y-14227500D01*
X15920500Y-15721000D02*
X15935500Y-15736000D01*
X15935500Y-15721000D02*
X15920500Y-15736000D01*
X15920500Y-15916000D02*
X15935500Y-15931000D01*
X15935500Y-15916000D02*
X15920500Y-15931000D01*
X15920500Y-16046000D02*
X15935500Y-16061000D01*
X15935500Y-16046000D02*
X15920500Y-16061000D01*
X15940500Y-15848500D02*
X15955500Y-15863500D01*
X15955500Y-15848500D02*
X15940500Y-15863500D01*
X15941500Y-15980500D02*
X15956500Y-15995500D01*
X15956500Y-15980500D02*
X15941500Y-15995500D01*
X15961500Y-15484500D02*
X15976500Y-15499500D01*
X15976500Y-15484500D02*
X15961500Y-15499500D01*
X15993500Y-15424500D02*
X16008500Y-15439500D01*
X16008500Y-15424500D02*
X15993500Y-15439500D01*
X16002500Y-11672500D02*
X16017500Y-11687500D01*
X16017500Y-11672500D02*
X16002500Y-11687500D01*
X16002500Y-13065500D02*
X16017500Y-13080500D01*
X16017500Y-13065500D02*
X16002500Y-13080500D01*
X16004500Y-15656500D02*
X16019500Y-15671500D01*
X16019500Y-15656500D02*
X16004500Y-15671500D01*
X16006500Y-15366500D02*
X16021500Y-15381500D01*
X16021500Y-15366500D02*
X16006500Y-15381500D01*
X16017500Y-15305500D02*
X16032500Y-15320500D01*
X16032500Y-15305500D02*
X16017500Y-15320500D01*
X16032500Y-16280500D02*
X16047500Y-16295500D01*
X16047500Y-16280500D02*
X16032500Y-16295500D01*
X16036500Y-15237500D02*
X16051500Y-15252500D01*
X16051500Y-15237500D02*
X16036500Y-15252500D01*
X16045500Y-14564500D02*
X16060500Y-14579500D01*
X16060500Y-14564500D02*
X16045500Y-14579500D01*
X16046500Y-14694000D02*
X16061500Y-14709000D01*
X16061500Y-14694000D02*
X16046500Y-14709000D01*
X16046500Y-14759000D02*
X16061500Y-14774000D01*
X16061500Y-14759000D02*
X16046500Y-14774000D01*
X16046500Y-14954000D02*
X16061500Y-14969000D01*
X16061500Y-14954000D02*
X16046500Y-14969000D01*
X16081500Y-15858500D02*
X16096500Y-15873500D01*
X16096500Y-15858500D02*
X16081500Y-15873500D01*
X16112500Y-14010500D02*
X16127500Y-14025500D01*
X16127500Y-14010500D02*
X16112500Y-14025500D01*
X16121500Y-17067500D02*
X16136500Y-17082500D01*
X16136500Y-17067500D02*
X16121500Y-17082500D01*
X16201500Y-17067500D02*
X16216500Y-17082500D01*
X16216500Y-17067500D02*
X16201500Y-17082500D01*
X16281500Y-13967500D02*
X16296500Y-13982500D01*
X16296500Y-13967500D02*
X16281500Y-13982500D01*
X16286500Y-13144500D02*
X16301500Y-13159500D01*
X16301500Y-13144500D02*
X16286500Y-13159500D01*
X16414500Y-16547500D02*
X16429500Y-16562500D01*
X16429500Y-16547500D02*
X16414500Y-16562500D01*
X16415500Y-16619000D02*
X16430500Y-16634000D01*
X16430500Y-16619000D02*
X16415500Y-16634000D01*
X16415500Y-16684000D02*
X16430500Y-16699000D01*
X16430500Y-16684000D02*
X16415500Y-16699000D01*
X16415500Y-16749000D02*
X16430500Y-16764000D01*
X16430500Y-16749000D02*
X16415500Y-16764000D01*
X16415500Y-16814000D02*
X16430500Y-16829000D01*
X16430500Y-16814000D02*
X16415500Y-16829000D01*
X16415500Y-16879000D02*
X16430500Y-16894000D01*
X16430500Y-16879000D02*
X16415500Y-16894000D01*
X16415500Y-16944000D02*
X16430500Y-16959000D01*
X16430500Y-16944000D02*
X16415500Y-16959000D01*
X16415500Y-17009000D02*
X16430500Y-17024000D01*
X16430500Y-17009000D02*
X16415500Y-17024000D01*
X16440500Y-13786500D02*
X16455500Y-13801500D01*
X16455500Y-13786500D02*
X16440500Y-13801500D01*
X16469500Y-13649500D02*
X16484500Y-13664500D01*
X16484500Y-13649500D02*
X16469500Y-13664500D01*
X16557500Y-17003500D02*
X16572500Y-17018500D01*
X16572500Y-17003500D02*
X16557500Y-17018500D01*
X16562500Y-17074500D02*
X16577500Y-17089500D01*
X16577500Y-17074500D02*
X16562500Y-17089500D01*
X16578500Y-17132500D02*
X16593500Y-17147500D01*
X16593500Y-17132500D02*
X16578500Y-17147500D01*
X16598500Y-14529500D02*
X16613500Y-14544500D01*
X16613500Y-14529500D02*
X16598500Y-14544500D01*
X16612500Y-16947500D02*
X16627500Y-16962500D01*
X16627500Y-16947500D02*
X16612500Y-16962500D01*
X16668500Y-16878500D02*
X16683500Y-16893500D01*
X16683500Y-16878500D02*
X16668500Y-16893500D01*
X16688500Y-17197500D02*
X16703500Y-17212500D01*
X16703500Y-17197500D02*
X16688500Y-17212500D01*
X16712500Y-16813500D02*
X16727500Y-16828500D01*
X16727500Y-16813500D02*
X16712500Y-16828500D01*
X16796000Y-14134000D02*
X16811000Y-14149000D01*
X16811000Y-14134000D02*
X16796000Y-14149000D01*
X16919500Y-16585500D02*
X16934500Y-16600500D01*
X16934500Y-16585500D02*
X16919500Y-16600500D01*
X17007500Y-16087500D02*
X17022500Y-16102500D01*
X17022500Y-16087500D02*
X17007500Y-16102500D01*
X17013500Y-12399500D02*
X17028500Y-12414500D01*
X17028500Y-12399500D02*
X17013500Y-12414500D01*
X17056500Y-16101500D02*
X17071500Y-16116500D01*
X17071500Y-16101500D02*
X17056500Y-16116500D01*
X17064500Y-18920500D02*
X17079500Y-18935500D01*
X17079500Y-18920500D02*
X17064500Y-18935500D01*
X17104500Y-16146500D02*
X17119500Y-16161500D01*
X17119500Y-16146500D02*
X17104500Y-16161500D01*
X17105500Y-16771500D02*
X17120500Y-16786500D01*
X17120500Y-16771500D02*
X17105500Y-16786500D01*
X17106500Y-16102500D02*
X17121500Y-16117500D01*
X17121500Y-16102500D02*
X17106500Y-16117500D01*
X17140000Y-16619000D02*
X17155000Y-16634000D01*
X17155000Y-16619000D02*
X17140000Y-16634000D01*
X17160500Y-16950500D02*
X17175500Y-16965500D01*
X17175500Y-16950500D02*
X17160500Y-16965500D01*
X17195500Y-12605500D02*
X17210500Y-12620500D01*
X17210500Y-12605500D02*
X17195500Y-12620500D01*
X17221500Y-16529500D02*
X17236500Y-16544500D01*
X17236500Y-16529500D02*
X17221500Y-16544500D01*
X17321000Y-17026000D02*
X17336000Y-17041000D01*
X17336000Y-17026000D02*
X17321000Y-17041000D01*
X17366000Y-15688000D02*
X17381000Y-15703000D01*
X17381000Y-15688000D02*
X17366000Y-15703000D01*
X17370500Y-15632500D02*
X17385500Y-15647500D01*
X17385500Y-15632500D02*
X17370500Y-15647500D01*
X17423500Y-15879500D02*
X17438500Y-15894500D01*
X17438500Y-15879500D02*
X17423500Y-15894500D01*
X17578500Y-16514500D02*
X17593500Y-16529500D01*
X17593500Y-16514500D02*
X17578500Y-16529500D01*
X17583500Y-16970500D02*
X17598500Y-16985500D01*
X17598500Y-16970500D02*
X17583500Y-16985500D01*
X17712500Y-16363500D02*
X17727500Y-16378500D01*
X17727500Y-16363500D02*
X17712500Y-16378500D01*
X17903000Y-15549000D02*
X17918000Y-15564000D01*
X17918000Y-15549000D02*
X17903000Y-15564000D01*
X18016000Y-15551000D02*
X18031000Y-15566000D01*
X18031000Y-15551000D02*
X18016000Y-15566000D01*
X18075000Y-14248000D02*
X18090000Y-14263000D01*
X18090000Y-14248000D02*
X18075000Y-14263000D01*
X18163000Y-16168958D02*
X18178000Y-16183958D01*
X18178000Y-16168958D02*
X18163000Y-16183958D01*
X18213500Y-13385500D02*
X18228500Y-13400500D01*
X18228500Y-13385500D02*
X18213500Y-13400500D01*
X18303458Y-13455500D02*
X18318458Y-13470500D01*
X18318458Y-13455500D02*
X18303458Y-13470500D01*
X18346500Y-16214500D02*
X18361500Y-16229500D01*
X18361500Y-16214500D02*
X18346500Y-16229500D01*
X18440500Y-12848500D02*
X18455500Y-12863500D01*
X18455500Y-12848500D02*
X18440500Y-12863500D01*
X18466000Y-15841042D02*
X18481000Y-15856042D01*
X18481000Y-15841042D02*
X18466000Y-15856042D01*
X18611458Y-12887500D02*
X18626458Y-12902500D01*
X18626458Y-12887500D02*
X18611458Y-12902500D01*
X18716500Y-15963500D02*
X18731500Y-15978500D01*
X18731500Y-15963500D02*
X18716500Y-15978500D01*
X18772500Y-16740500D02*
X18787500Y-16755500D01*
X18787500Y-16740500D02*
X18772500Y-16755500D01*
X18886500Y-16813500D02*
X18901500Y-16828500D01*
X18901500Y-16813500D02*
X18886500Y-16828500D01*
X18941500Y-16988500D02*
X18956500Y-17003500D01*
X18956500Y-16988500D02*
X18941500Y-17003500D01*
X19005500Y-16873500D02*
X19020500Y-16888500D01*
X19020500Y-16873500D02*
X19005500Y-16888500D01*
X19120500Y-16968500D02*
X19135500Y-16983500D01*
X19135500Y-16968500D02*
X19120500Y-16983500D01*
X19206500Y-15012500D02*
X19221500Y-15027500D01*
X19221500Y-15012500D02*
X19206500Y-15027500D01*
X19231500Y-16969500D02*
X19246500Y-16984500D01*
X19246500Y-16969500D02*
X19231500Y-16984500D01*
X19307500Y-15644500D02*
X19322500Y-15659500D01*
X19322500Y-15644500D02*
X19307500Y-15659500D01*
X19340500Y-16966500D02*
X19355500Y-16981500D01*
X19355500Y-16966500D02*
X19340500Y-16981500D01*
X19350500Y-12977500D02*
X19365500Y-12992500D01*
X19365500Y-12977500D02*
X19350500Y-12992500D01*
X19448458Y-13060500D02*
X19463458Y-13075500D01*
X19463458Y-13060500D02*
X19448458Y-13075500D01*
X19450500Y-16967500D02*
X19465500Y-16982500D01*
X19465500Y-16967500D02*
X19450500Y-16982500D01*
X19679500Y-12202500D02*
X19694500Y-12217500D01*
X19694500Y-12202500D02*
X19679500Y-12217500D01*
X20026958Y-14579000D02*
X20041958Y-14594000D01*
X20041958Y-14579000D02*
X20026958Y-14594000D01*
X20090500Y-14579000D02*
X20105500Y-14594000D01*
X20105500Y-14579000D02*
X20090500Y-14594000D01*
X20143500Y-12398500D02*
X20158500Y-12413500D01*
X20158500Y-12398500D02*
X20143500Y-12413500D01*
X20216500Y-13606500D02*
X20231500Y-13621500D01*
X20231500Y-13606500D02*
X20216500Y-13621500D01*
X19468000Y-16198000D02*
G75*
G03X19468000Y-16198000I-10000J0D01*
G01*
D12*
X3943428Y-26749714D02*
X3943428Y-26449714D01*
X4014857Y-26449714D01*
X4057714Y-26464000D01*
X4086286Y-26492571D01*
X4100571Y-26521143D01*
X4114857Y-26578286D01*
X4114857Y-26621143D01*
X4100571Y-26678286D01*
X4086286Y-26706857D01*
X4057714Y-26735429D01*
X4014857Y-26749714D01*
X3943428Y-26749714D01*
X4243429Y-26749714D02*
X4243429Y-26549714D01*
X4243429Y-26606857D02*
X4257714Y-26578286D01*
X4272000Y-26564000D01*
X4300571Y-26549714D01*
X4329143Y-26549714D01*
X4429143Y-26749714D02*
X4429143Y-26549714D01*
X4429143Y-26449714D02*
X4414857Y-26464000D01*
X4429143Y-26478286D01*
X4443429Y-26464000D01*
X4429143Y-26449714D01*
X4429143Y-26478286D01*
X4614857Y-26749714D02*
X4586286Y-26735429D01*
X4572000Y-26706857D01*
X4572000Y-26449714D01*
X4772000Y-26749714D02*
X4743429Y-26735429D01*
X4729143Y-26706857D01*
X4729143Y-26449714D01*
X5114857Y-26749714D02*
X5114857Y-26449714D01*
X5214857Y-26664000D01*
X5314857Y-26449714D01*
X5314857Y-26749714D01*
X5586286Y-26749714D02*
X5586286Y-26592571D01*
X5572000Y-26564000D01*
X5543429Y-26549714D01*
X5486286Y-26549714D01*
X5457714Y-26564000D01*
X5586286Y-26735429D02*
X5557714Y-26749714D01*
X5486286Y-26749714D01*
X5457714Y-26735429D01*
X5443429Y-26706857D01*
X5443429Y-26678286D01*
X5457714Y-26649714D01*
X5486286Y-26635429D01*
X5557714Y-26635429D01*
X5586286Y-26621143D01*
X5729143Y-26549714D02*
X5729143Y-26849714D01*
X5729143Y-26564000D02*
X5757714Y-26549714D01*
X5814857Y-26549714D01*
X5843428Y-26564000D01*
X5857714Y-26578286D01*
X5872000Y-26606857D01*
X5872000Y-26692571D01*
X5857714Y-26721143D01*
X5843428Y-26735429D01*
X5814857Y-26749714D01*
X5757714Y-26749714D01*
X5729143Y-26735429D01*
X6000571Y-26721143D02*
X6014857Y-26735429D01*
X6000571Y-26749714D01*
X5986286Y-26735429D01*
X6000571Y-26721143D01*
X6000571Y-26749714D01*
X6000571Y-26564000D02*
X6014857Y-26578286D01*
X6000571Y-26592571D01*
X5986286Y-26578286D01*
X6000571Y-26564000D01*
X6000571Y-26592571D01*
X3657000Y-27236500D02*
X3672000Y-27251500D01*
X3672000Y-27236500D02*
X3657000Y-27251500D01*
X4000571Y-27079714D02*
X4029143Y-27079714D01*
X4057714Y-27094000D01*
X4072000Y-27108286D01*
X4086286Y-27136857D01*
X4100571Y-27194000D01*
X4100571Y-27265429D01*
X4086286Y-27322571D01*
X4072000Y-27351143D01*
X4057714Y-27365429D01*
X4029143Y-27379714D01*
X4000571Y-27379714D01*
X3972000Y-27365429D01*
X3957714Y-27351143D01*
X3943428Y-27322571D01*
X3929143Y-27265429D01*
X3929143Y-27194000D01*
X3943428Y-27136857D01*
X3957714Y-27108286D01*
X3972000Y-27094000D01*
X4000571Y-27079714D01*
X4229143Y-27351143D02*
X4243429Y-27365429D01*
X4229143Y-27379714D01*
X4214857Y-27365429D01*
X4229143Y-27351143D01*
X4229143Y-27379714D01*
X4529143Y-27379714D02*
X4357714Y-27379714D01*
X4443428Y-27379714D02*
X4443428Y-27079714D01*
X4414857Y-27122571D01*
X4386286Y-27151143D01*
X4357714Y-27165429D01*
X4800571Y-27079714D02*
X4657714Y-27079714D01*
X4643429Y-27222571D01*
X4657714Y-27208286D01*
X4686286Y-27194000D01*
X4757714Y-27194000D01*
X4786286Y-27208286D01*
X4800571Y-27222571D01*
X4814857Y-27251143D01*
X4814857Y-27322571D01*
X4800571Y-27351143D01*
X4786286Y-27365429D01*
X4757714Y-27379714D01*
X4686286Y-27379714D01*
X4657714Y-27365429D01*
X4643429Y-27351143D01*
X4943429Y-27379714D02*
X4943429Y-27179714D01*
X4943429Y-27208286D02*
X4957714Y-27194000D01*
X4986286Y-27179714D01*
X5029143Y-27179714D01*
X5057714Y-27194000D01*
X5072000Y-27222571D01*
X5072000Y-27379714D01*
X5072000Y-27222571D02*
X5086286Y-27194000D01*
X5114857Y-27179714D01*
X5157714Y-27179714D01*
X5186286Y-27194000D01*
X5200571Y-27222571D01*
X5200571Y-27379714D01*
X5343429Y-27379714D02*
X5343429Y-27179714D01*
X5343429Y-27208286D02*
X5357714Y-27194000D01*
X5386286Y-27179714D01*
X5429143Y-27179714D01*
X5457714Y-27194000D01*
X5472000Y-27222571D01*
X5472000Y-27379714D01*
X5472000Y-27222571D02*
X5486286Y-27194000D01*
X5514857Y-27179714D01*
X5557714Y-27179714D01*
X5586286Y-27194000D01*
X5600571Y-27222571D01*
X5600571Y-27379714D01*
X6186286Y-27065429D02*
X5929143Y-27451143D01*
X6572000Y-27079714D02*
X6600571Y-27079714D01*
X6629143Y-27094000D01*
X6643428Y-27108286D01*
X6657714Y-27136857D01*
X6672000Y-27194000D01*
X6672000Y-27265429D01*
X6657714Y-27322571D01*
X6643428Y-27351143D01*
X6629143Y-27365429D01*
X6600571Y-27379714D01*
X6572000Y-27379714D01*
X6543428Y-27365429D01*
X6529143Y-27351143D01*
X6514857Y-27322571D01*
X6500571Y-27265429D01*
X6500571Y-27194000D01*
X6514857Y-27136857D01*
X6529143Y-27108286D01*
X6543428Y-27094000D01*
X6572000Y-27079714D01*
X6800571Y-27351143D02*
X6814857Y-27365429D01*
X6800571Y-27379714D01*
X6786286Y-27365429D01*
X6800571Y-27351143D01*
X6800571Y-27379714D01*
X7000571Y-27079714D02*
X7029143Y-27079714D01*
X7057714Y-27094000D01*
X7072000Y-27108286D01*
X7086285Y-27136857D01*
X7100571Y-27194000D01*
X7100571Y-27265429D01*
X7086285Y-27322571D01*
X7072000Y-27351143D01*
X7057714Y-27365429D01*
X7029143Y-27379714D01*
X7000571Y-27379714D01*
X6972000Y-27365429D01*
X6957714Y-27351143D01*
X6943428Y-27322571D01*
X6929143Y-27265429D01*
X6929143Y-27194000D01*
X6943428Y-27136857D01*
X6957714Y-27108286D01*
X6972000Y-27094000D01*
X7000571Y-27079714D01*
X7286285Y-27079714D02*
X7314857Y-27079714D01*
X7343428Y-27094000D01*
X7357714Y-27108286D01*
X7372000Y-27136857D01*
X7386285Y-27194000D01*
X7386285Y-27265429D01*
X7372000Y-27322571D01*
X7357714Y-27351143D01*
X7343428Y-27365429D01*
X7314857Y-27379714D01*
X7286285Y-27379714D01*
X7257714Y-27365429D01*
X7243428Y-27351143D01*
X7229143Y-27322571D01*
X7214857Y-27265429D01*
X7214857Y-27194000D01*
X7229143Y-27136857D01*
X7243428Y-27108286D01*
X7257714Y-27094000D01*
X7286285Y-27079714D01*
X7643428Y-27079714D02*
X7586285Y-27079714D01*
X7557714Y-27094000D01*
X7543428Y-27108286D01*
X7514857Y-27151143D01*
X7500571Y-27208286D01*
X7500571Y-27322571D01*
X7514857Y-27351143D01*
X7529143Y-27365429D01*
X7557714Y-27379714D01*
X7614857Y-27379714D01*
X7643428Y-27365429D01*
X7657714Y-27351143D01*
X7672000Y-27322571D01*
X7672000Y-27251143D01*
X7657714Y-27222571D01*
X7643428Y-27208286D01*
X7614857Y-27194000D01*
X7557714Y-27194000D01*
X7529143Y-27208286D01*
X7514857Y-27222571D01*
X7500571Y-27251143D01*
X7786286Y-27079714D02*
X7786286Y-27136857D01*
X7900571Y-27079714D02*
X7900571Y-27136857D01*
X8343428Y-27494000D02*
X8329143Y-27479714D01*
X8300571Y-27436857D01*
X8286285Y-27408286D01*
X8272000Y-27365429D01*
X8257714Y-27294000D01*
X8257714Y-27236857D01*
X8272000Y-27165429D01*
X8286285Y-27122571D01*
X8300571Y-27094000D01*
X8329143Y-27051143D01*
X8343428Y-27036857D01*
X8586286Y-27079714D02*
X8529143Y-27079714D01*
X8500571Y-27094000D01*
X8486286Y-27108286D01*
X8457714Y-27151143D01*
X8443428Y-27208286D01*
X8443428Y-27322571D01*
X8457714Y-27351143D01*
X8472000Y-27365429D01*
X8500571Y-27379714D01*
X8557714Y-27379714D01*
X8586286Y-27365429D01*
X8600571Y-27351143D01*
X8614857Y-27322571D01*
X8614857Y-27251143D01*
X8600571Y-27222571D01*
X8586286Y-27208286D01*
X8557714Y-27194000D01*
X8500571Y-27194000D01*
X8472000Y-27208286D01*
X8457714Y-27222571D01*
X8443428Y-27251143D01*
X8872000Y-27179714D02*
X8872000Y-27379714D01*
X8800571Y-27065429D02*
X8729143Y-27279714D01*
X8914857Y-27279714D01*
X9157714Y-27179714D02*
X9157714Y-27379714D01*
X9086286Y-27065429D02*
X9014857Y-27279714D01*
X9200571Y-27279714D01*
X9543428Y-27379714D02*
X9543428Y-27079714D01*
X9672000Y-27379714D02*
X9672000Y-27222571D01*
X9657714Y-27194000D01*
X9629143Y-27179714D01*
X9586286Y-27179714D01*
X9557714Y-27194000D01*
X9543428Y-27208286D01*
X9857714Y-27379714D02*
X9829143Y-27365429D01*
X9814857Y-27351143D01*
X9800571Y-27322571D01*
X9800571Y-27236857D01*
X9814857Y-27208286D01*
X9829143Y-27194000D01*
X9857714Y-27179714D01*
X9900571Y-27179714D01*
X9929143Y-27194000D01*
X9943428Y-27208286D01*
X9957714Y-27236857D01*
X9957714Y-27322571D01*
X9943428Y-27351143D01*
X9929143Y-27365429D01*
X9900571Y-27379714D01*
X9857714Y-27379714D01*
X10129143Y-27379714D02*
X10100571Y-27365429D01*
X10086286Y-27336857D01*
X10086286Y-27079714D01*
X10357714Y-27365429D02*
X10329143Y-27379714D01*
X10272000Y-27379714D01*
X10243429Y-27365429D01*
X10229143Y-27336857D01*
X10229143Y-27222571D01*
X10243429Y-27194000D01*
X10272000Y-27179714D01*
X10329143Y-27179714D01*
X10357714Y-27194000D01*
X10372000Y-27222571D01*
X10372000Y-27251143D01*
X10229143Y-27279714D01*
X10486286Y-27365429D02*
X10514857Y-27379714D01*
X10572000Y-27379714D01*
X10600571Y-27365429D01*
X10614857Y-27336857D01*
X10614857Y-27322571D01*
X10600571Y-27294000D01*
X10572000Y-27279714D01*
X10529143Y-27279714D01*
X10500571Y-27265429D01*
X10486286Y-27236857D01*
X10486286Y-27222571D01*
X10500571Y-27194000D01*
X10529143Y-27179714D01*
X10572000Y-27179714D01*
X10600571Y-27194000D01*
X10714857Y-27494000D02*
X10729143Y-27479714D01*
X10757714Y-27436857D01*
X10772000Y-27408286D01*
X10786286Y-27365429D01*
X10800571Y-27294000D01*
X10800571Y-27236857D01*
X10786286Y-27165429D01*
X10772000Y-27122571D01*
X10757714Y-27094000D01*
X10729143Y-27051143D01*
X10714857Y-27036857D01*
X3672000Y-27640000D02*
G75*
G03X3672000Y-27640000I-10000J0D01*
G01*
X4000571Y-27475714D02*
X4029143Y-27475714D01*
X4057714Y-27490000D01*
X4072000Y-27504286D01*
X4086286Y-27532857D01*
X4100571Y-27590000D01*
X4100571Y-27661429D01*
X4086286Y-27718571D01*
X4072000Y-27747143D01*
X4057714Y-27761429D01*
X4029143Y-27775714D01*
X4000571Y-27775714D01*
X3972000Y-27761429D01*
X3957714Y-27747143D01*
X3943428Y-27718571D01*
X3929143Y-27661429D01*
X3929143Y-27590000D01*
X3943428Y-27532857D01*
X3957714Y-27504286D01*
X3972000Y-27490000D01*
X4000571Y-27475714D01*
X4229143Y-27747143D02*
X4243429Y-27761429D01*
X4229143Y-27775714D01*
X4214857Y-27761429D01*
X4229143Y-27747143D01*
X4229143Y-27775714D01*
X4357714Y-27504286D02*
X4372000Y-27490000D01*
X4400571Y-27475714D01*
X4472000Y-27475714D01*
X4500571Y-27490000D01*
X4514857Y-27504286D01*
X4529143Y-27532857D01*
X4529143Y-27561429D01*
X4514857Y-27604286D01*
X4343428Y-27775714D01*
X4529143Y-27775714D01*
X4714857Y-27475714D02*
X4743429Y-27475714D01*
X4772000Y-27490000D01*
X4786286Y-27504286D01*
X4800571Y-27532857D01*
X4814857Y-27590000D01*
X4814857Y-27661429D01*
X4800571Y-27718571D01*
X4786286Y-27747143D01*
X4772000Y-27761429D01*
X4743429Y-27775714D01*
X4714857Y-27775714D01*
X4686286Y-27761429D01*
X4672000Y-27747143D01*
X4657714Y-27718571D01*
X4643429Y-27661429D01*
X4643429Y-27590000D01*
X4657714Y-27532857D01*
X4672000Y-27504286D01*
X4686286Y-27490000D01*
X4714857Y-27475714D01*
X4943429Y-27775714D02*
X4943429Y-27575714D01*
X4943429Y-27604286D02*
X4957714Y-27590000D01*
X4986286Y-27575714D01*
X5029143Y-27575714D01*
X5057714Y-27590000D01*
X5072000Y-27618571D01*
X5072000Y-27775714D01*
X5072000Y-27618571D02*
X5086286Y-27590000D01*
X5114857Y-27575714D01*
X5157714Y-27575714D01*
X5186286Y-27590000D01*
X5200571Y-27618571D01*
X5200571Y-27775714D01*
X5343429Y-27775714D02*
X5343429Y-27575714D01*
X5343429Y-27604286D02*
X5357714Y-27590000D01*
X5386286Y-27575714D01*
X5429143Y-27575714D01*
X5457714Y-27590000D01*
X5472000Y-27618571D01*
X5472000Y-27775714D01*
X5472000Y-27618571D02*
X5486286Y-27590000D01*
X5514857Y-27575714D01*
X5557714Y-27575714D01*
X5586286Y-27590000D01*
X5600571Y-27618571D01*
X5600571Y-27775714D01*
X6186286Y-27461429D02*
X5929143Y-27847143D01*
X6572000Y-27475714D02*
X6600571Y-27475714D01*
X6629143Y-27490000D01*
X6643428Y-27504286D01*
X6657714Y-27532857D01*
X6672000Y-27590000D01*
X6672000Y-27661429D01*
X6657714Y-27718571D01*
X6643428Y-27747143D01*
X6629143Y-27761429D01*
X6600571Y-27775714D01*
X6572000Y-27775714D01*
X6543428Y-27761429D01*
X6529143Y-27747143D01*
X6514857Y-27718571D01*
X6500571Y-27661429D01*
X6500571Y-27590000D01*
X6514857Y-27532857D01*
X6529143Y-27504286D01*
X6543428Y-27490000D01*
X6572000Y-27475714D01*
X6800571Y-27747143D02*
X6814857Y-27761429D01*
X6800571Y-27775714D01*
X6786286Y-27761429D01*
X6800571Y-27747143D01*
X6800571Y-27775714D01*
X7000571Y-27475714D02*
X7029143Y-27475714D01*
X7057714Y-27490000D01*
X7072000Y-27504286D01*
X7086285Y-27532857D01*
X7100571Y-27590000D01*
X7100571Y-27661429D01*
X7086285Y-27718571D01*
X7072000Y-27747143D01*
X7057714Y-27761429D01*
X7029143Y-27775714D01*
X7000571Y-27775714D01*
X6972000Y-27761429D01*
X6957714Y-27747143D01*
X6943428Y-27718571D01*
X6929143Y-27661429D01*
X6929143Y-27590000D01*
X6943428Y-27532857D01*
X6957714Y-27504286D01*
X6972000Y-27490000D01*
X7000571Y-27475714D01*
X7286285Y-27475714D02*
X7314857Y-27475714D01*
X7343428Y-27490000D01*
X7357714Y-27504286D01*
X7372000Y-27532857D01*
X7386285Y-27590000D01*
X7386285Y-27661429D01*
X7372000Y-27718571D01*
X7357714Y-27747143D01*
X7343428Y-27761429D01*
X7314857Y-27775714D01*
X7286285Y-27775714D01*
X7257714Y-27761429D01*
X7243428Y-27747143D01*
X7229143Y-27718571D01*
X7214857Y-27661429D01*
X7214857Y-27590000D01*
X7229143Y-27532857D01*
X7243428Y-27504286D01*
X7257714Y-27490000D01*
X7286285Y-27475714D01*
X7557714Y-27604286D02*
X7529143Y-27590000D01*
X7514857Y-27575714D01*
X7500571Y-27547143D01*
X7500571Y-27532857D01*
X7514857Y-27504286D01*
X7529143Y-27490000D01*
X7557714Y-27475714D01*
X7614857Y-27475714D01*
X7643428Y-27490000D01*
X7657714Y-27504286D01*
X7672000Y-27532857D01*
X7672000Y-27547143D01*
X7657714Y-27575714D01*
X7643428Y-27590000D01*
X7614857Y-27604286D01*
X7557714Y-27604286D01*
X7529143Y-27618571D01*
X7514857Y-27632857D01*
X7500571Y-27661429D01*
X7500571Y-27718571D01*
X7514857Y-27747143D01*
X7529143Y-27761429D01*
X7557714Y-27775714D01*
X7614857Y-27775714D01*
X7643428Y-27761429D01*
X7657714Y-27747143D01*
X7672000Y-27718571D01*
X7672000Y-27661429D01*
X7657714Y-27632857D01*
X7643428Y-27618571D01*
X7614857Y-27604286D01*
X7786286Y-27475714D02*
X7786286Y-27532857D01*
X7900571Y-27475714D02*
X7900571Y-27532857D01*
X8343428Y-27890000D02*
X8329143Y-27875714D01*
X8300571Y-27832857D01*
X8286285Y-27804286D01*
X8272000Y-27761429D01*
X8257714Y-27690000D01*
X8257714Y-27632857D01*
X8272000Y-27561429D01*
X8286285Y-27518571D01*
X8300571Y-27490000D01*
X8329143Y-27447143D01*
X8343428Y-27432857D01*
X8614857Y-27775714D02*
X8443428Y-27775714D01*
X8529143Y-27775714D02*
X8529143Y-27475714D01*
X8500571Y-27518571D01*
X8472000Y-27547143D01*
X8443428Y-27561429D01*
X8972000Y-27775714D02*
X8972000Y-27475714D01*
X9100571Y-27775714D02*
X9100571Y-27618571D01*
X9086286Y-27590000D01*
X9057714Y-27575714D01*
X9014857Y-27575714D01*
X8986286Y-27590000D01*
X8972000Y-27604286D01*
X9286286Y-27775714D02*
X9257714Y-27761429D01*
X9243428Y-27747143D01*
X9229143Y-27718571D01*
X9229143Y-27632857D01*
X9243428Y-27604286D01*
X9257714Y-27590000D01*
X9286286Y-27575714D01*
X9329143Y-27575714D01*
X9357714Y-27590000D01*
X9372000Y-27604286D01*
X9386286Y-27632857D01*
X9386286Y-27718571D01*
X9372000Y-27747143D01*
X9357714Y-27761429D01*
X9329143Y-27775714D01*
X9286286Y-27775714D01*
X9557714Y-27775714D02*
X9529143Y-27761429D01*
X9514857Y-27732857D01*
X9514857Y-27475714D01*
X9786286Y-27761429D02*
X9757714Y-27775714D01*
X9700571Y-27775714D01*
X9672000Y-27761429D01*
X9657714Y-27732857D01*
X9657714Y-27618571D01*
X9672000Y-27590000D01*
X9700571Y-27575714D01*
X9757714Y-27575714D01*
X9786286Y-27590000D01*
X9800571Y-27618571D01*
X9800571Y-27647143D01*
X9657714Y-27675714D01*
X9900571Y-27890000D02*
X9914857Y-27875714D01*
X9943429Y-27832857D01*
X9957714Y-27804286D01*
X9972000Y-27761429D01*
X9986286Y-27690000D01*
X9986286Y-27632857D01*
X9972000Y-27561429D01*
X9957714Y-27518571D01*
X9943429Y-27490000D01*
X9914857Y-27447143D01*
X9900571Y-27432857D01*
M02*
