M48
;DRILL file {KiCad 4.0.7-e2-6376~61~ubuntu18.04.1} date Mon May 30 11:29:37 2022
;FORMAT={-:-/ absolute / inch / decimal}
FMAT,2
INCH,TZ
T1C0.006
T2C0.008
%
G90
G05
M72
T1
X1.648Y-8.2102
X1.9201Y-5.3425
X1.9717Y-4.9913
X1.9853Y-8.475
X2.0201Y-5.1437
X2.0201Y-5.3626
X2.0709Y-5.3209
X2.0776Y-8.0484
X2.0831Y-7.7898
X2.0839Y-4.5551
X2.1035Y-7.7539
X2.1102Y-4.5795
X2.1157Y-7.0555
X2.1157Y-7.0972
X2.1157Y-7.1429
X2.1197Y-5.3961
X2.1362Y-5.1437
X2.1413Y-7.7543
X2.1614Y-5.3417
X2.2118Y-5.0894
X2.2201Y-5.3213
X2.2587Y-5.3587
X2.2803Y-5.3941
X2.2807Y-5.0894
X2.2906Y-4.9917
X2.3157Y-4.5252
X2.3161Y-4.4406
X2.3197Y-4.4752
X2.3374Y-7.463
X2.3642Y-4.4768
X2.3685Y-4.5354
X2.3756Y-4.4961
X2.4134Y-4.5303
X2.435Y-7.1146
X2.4465Y-4.5551
X2.4551Y-7.3791
X2.4709Y-4.5799
X2.4846Y-7.1138
X2.522Y-4.0815
X2.5846Y-4.0945
X2.5896Y-4.5677
X2.59Y-4.6189
X2.6622Y-4.6447
X2.6622Y-4.6705
X2.6622Y-4.6959
X2.6622Y-4.7215
X2.6622Y-4.7982
X2.6705Y-5.515
X2.6709Y-5.3612
X2.6709Y-5.3868
X2.6709Y-5.4124
X2.6709Y-5.438
X2.6884Y-4.87
X2.6884Y-5.177
X2.7205Y-5.0756
X2.7327Y-5.489
X2.7543Y-5.7484
X2.7941Y-5.461
X2.8047Y-5.4362
X2.8063Y-5.4858
X2.8063Y-5.5098
X2.8358Y-5.6969
X2.8461Y-4.4539
X2.8992Y-5.4122
X2.8992Y-5.438
X2.8992Y-5.4636
X2.8992Y-5.4892
X2.8992Y-5.5148
X2.8992Y-5.5404
X2.9016Y-4.3409
X2.9114Y-5.6638
X2.9287Y-5.9205
X2.937Y-3.587
X2.9457Y-5.3209
X2.9488Y-4.2071
X2.9594Y-5.4173
X2.9665Y-5.0236
X2.9673Y-3.587
X2.9713Y-4.1803
X2.9717Y-5.3413
X2.9717Y-5.6441
X2.9724Y-5.3815
X2.9728Y-5.1791
X2.9748Y-5.0791
X2.976Y-6.2925
X2.9843Y-4.5689
X2.9882Y-5.5465
X2.9929Y-4.7724
X2.9933Y-4.7469
X2.9945Y-4.6957
X2.9945Y-4.7213
X2.9957Y-6.0949
X2.9961Y-4.6181
X2.9961Y-4.6701
X2.9965Y-4.1756
X2.9965Y-4.6449
X2.9972Y-5.3992
X2.9996Y-3.589
X3.0094Y-4.2673
X3.0106Y-4.2071
X3.0157Y-5.6421
X3.026Y-6.1291
X3.0268Y-3.5886
X3.0492Y-6.2134
X3.0496Y-5.7992
X3.0512Y-3.5886
X3.0575Y-3.7205
X3.0638Y-4.1941
X3.0661Y-4.6449
X3.0665Y-4.2295
X3.0681Y-4.2591
X3.0713Y-5.3659
X3.0713Y-5.3915
X3.0768Y-5.3366
X3.0787Y-3.6043
X3.0819Y-4.287
X3.0819Y-4.7209
X3.0937Y-4.8541
X3.0969Y-4.6957
X3.1012Y-6.3591
X3.111Y-3.6291
X3.1154Y-4.2689
X3.1173Y-5.7484
X3.1209Y-5.6768
X3.1244Y-4.6705
X3.126Y-6.6059
X3.139Y-3.6283
X3.1433Y-6.6283
X3.1441Y-6.2882
X3.1496Y-5.752
X3.1516Y-6.3587
X3.2Y-6.6303
X3.2012Y-4.126
X3.2122Y-6.5756
X3.2126Y-3.6807
X3.2213Y-5.3197
X3.2465Y-5.2929
X3.2465Y-6.1909
X3.2508Y-6.3358
X3.2512Y-5.5606
X3.252Y-5.6205
X3.2539Y-3.7394
X3.2539Y-3.7579
X3.2547Y-3.7205
X3.2559Y-3.6787
X3.2563Y-3.7012
X3.2642Y-6.2827
X3.2669Y-5.2398
X3.2673Y-5.2118
X3.2681Y-5.1524
X3.2681Y-5.1831
X3.2744Y-5.1185
X3.2827Y-6.6815
X3.2835Y-6.4858
X3.2866Y-6.6154
X3.298Y-4.7469
X3.2996Y-5.3915
X3.2996Y-5.4171
X3.2996Y-5.4427
X3.2996Y-5.4683
X3.2996Y-5.4939
X3.2996Y-5.5195
X3.3083Y-6.4291
X3.314Y-3.8951
X3.3173Y-4.4449
X3.3173Y-4.5689
X3.328Y-4.0327
X3.3335Y-3.9929
X3.3378Y-4.5937
X3.3472Y-6.3925
X3.3858Y-6.3469
X3.3882Y-4.4449
X3.3961Y-6.2472
X3.4047Y-4.7728
X3.4232Y-3.9594
X3.426Y-3.9917
X3.4445Y-4.3492
X3.4508Y-4.0583
X3.4571Y-3.528
X3.4638Y-4.3043
X3.4728Y-3.9594
X3.4795Y-3.661
X3.4795Y-3.9996
X3.4807Y-3.615
X3.4827Y-4.1854
X3.4874Y-3.5614
X3.4874Y-3.785
X3.4886Y-3.7409
X3.4959Y-4.5703
X3.4996Y-4.0846
X3.5079Y-3.7205
X3.5079Y-3.7854
X3.5114Y-3.6169
X3.5157Y-5.5303
X3.5197Y-6.9697
X3.522Y-3.9244
X3.5244Y-5.7354
X3.5252Y-5.7055
X3.5276Y-3.7657
X3.5287Y-6.648
X3.5496Y-4.2429
X3.5541Y-6.0376
X3.5551Y-3.9943
X3.5622Y-3.8094
X3.5685Y-4.7315
X3.5732Y-4.8531
X3.5807Y-3.6307
X3.5807Y-3.9943
X3.5831Y-5.0874
X3.6063Y-3.6307
X3.6063Y-3.7854
X3.6063Y-3.9943
X3.6126Y-4.2709
X3.6319Y-3.6305
X3.6319Y-3.7657
X3.6319Y-3.9943
X3.6531Y-5.0965
X3.6571Y-3.7476
X3.6575Y-3.6307
X3.6575Y-3.9943
X3.6681Y-4.6579
X3.6764Y-4.822
X3.6831Y-3.5425
X3.6831Y-3.9943
X3.6949Y-4.9524
X3.7004Y-4.7012
X3.7039Y-4.4327
X3.7087Y-3.561
X3.7087Y-3.9943
X3.7138Y-4.7882
X3.7283Y-5.0024
X3.7287Y-4.0894
X3.7343Y-3.5799
X3.7343Y-3.9943
X3.7474Y-5.0234
X3.7508Y-4.7882
X3.7524Y-4.3583
X3.7598Y-3.598
X3.765Y-4.6276
X3.765Y-4.7012
X3.787Y-4.7882
X3.7945Y-4.3161
X3.7984Y-4.3941
X3.8154Y-4.0638
X3.8181Y-3.9138
X3.8244Y-4.7882
X3.8303Y-4.6276
X3.8303Y-4.7012
X3.8488Y-6.5697
X3.8669Y-3.9951
X3.8699Y-6.1793
X3.8717Y-6.1575
X3.872Y-4.2807
X3.8803Y-6.6862
X3.8807Y-6.7059
X3.8925Y-3.6293
X3.8925Y-3.8028
X3.8925Y-3.9951
X3.8957Y-4.6276
X3.8957Y-4.7012
X3.8988Y-5.6843
X3.9165Y-4.2252
X3.9181Y-3.6293
X3.9181Y-3.785
X3.9181Y-3.9951
X3.9437Y-3.9951
X3.9441Y-3.6295
X3.9512Y-4.1697
X3.9512Y-4.2236
X3.9575Y-3.7799
X3.9693Y-3.6293
X3.9693Y-3.9951
X3.9697Y-3.7484
X3.9862Y-4.2555
X3.9862Y-4.2024
X3.9894Y-6.7055
X3.9945Y-3.5425
X3.9949Y-3.9951
X4.0157Y-4.6236
X4.0157Y-5.1331
X4.0205Y-3.9951
X4.0217Y-3.561
X4.0377Y-6.6469
X4.0441Y-5.5185
X4.0457Y-3.9951
X4.0465Y-3.5795
X4.0713Y-3.598
X4.0823Y-6.1248
X4.0902Y-4.6689
X4.1213Y-5.1331
X4.1256Y-6.1256
X4.1272Y-6.5276
X4.1307Y-3.9154
X4.1362Y-4.7193
X4.1378Y-5.1331
X4.1461Y-4.2177
X4.1571Y-5.15
X4.1839Y-6.3689
X4.202Y-5.2752
X4.2024Y-5.4543
X4.239Y-5.3004
X4.2563Y-6.3661
X4.2728Y-6.3902
X4.3173Y-5.287
X4.324Y-5.0512
X4.324Y-6.235
X4.326Y-6.5154
X4.3394Y-3.5071
X4.3598Y-6.3177
X4.3602Y-5.0768
X4.4091Y-6.2878
X4.4205Y-5.9039
X4.4335Y-6.2201
X4.4382Y-5.876
X4.4917Y-6.3953
X4.5028Y-6.4087
X4.5181Y-6.4079
X4.5713Y-6.1614
X4.5949Y-5.9138
X4.5969Y-6.1614
X4.6425Y-5.1169
X4.6425Y-6.2421
X4.6425Y-6.2965
X4.6768Y-6.6551
X4.7063Y-5.1823
X4.7161Y-6.1394
X4.726Y-5.9004
X4.7402Y-4.2799
X4.7402Y-4.5953
X4.7433Y-5.976
X4.7795Y-4.2059
X4.8091Y-4.1071
X4.8449Y-3.8252
X4.8642Y-3.7799
X4.9024Y-5.4079
X4.9291Y-4.0756
X4.9291Y-5.2894
X4.9295Y-5.335
X4.9303Y-5.2327
X4.9343Y-6.0276
X4.9496Y-5.4213
X4.9697Y-5.35
X4.9732Y-3.8453
X4.974Y-3.7535
X4.9744Y-3.8039
X4.987Y-4.0327
X4.9961Y-5.298
X4.9965Y-5.2327
X5.0028Y-5.7417
X5.0047Y-6.3925
X5.0193Y-6.3776
X5.0248Y-6.063
X5.0248Y-6.1469
X5.0252Y-6.0209
X5.0252Y-6.2673
X5.0256Y-6.1051
X5.0256Y-6.1882
X5.0256Y-6.2276
X5.026Y-5.9972
X5.0323Y-5.3673
X5.0343Y-6.6799
X5.0358Y-3.713
X5.0398Y-3.9803
X5.0413Y-6.3
X5.0571Y-6.5862
X5.0579Y-5.7165
X5.0583Y-5.6937
X5.0673Y-3.6756
X5.0898Y-5.9567
X5.1217Y-3.6425
X5.1358Y-4.0441
X5.1866Y-4.111
X5.3047Y-4.198
X5.3075Y-7.261
X5.3295Y-5.9669
X5.348Y-5.1051
X5.3488Y-5.7169
X5.3531Y-5.1685
X5.3531Y-5.6886
X5.378Y-5.7413
X5.4213Y-5.352
X5.4228Y-5.2854
X5.4437Y-5.4079
X5.4449Y-5.5791
X5.4512Y-6.085
X5.4516Y-6.0146
X5.4516Y-6.1071
X5.4516Y-6.1323
X5.4516Y-6.1575
X5.4516Y-6.1835
X5.4516Y-6.2083
X5.452Y-6.2346
X5.4634Y-5.663
X5.4945Y-5.6283
X5.5114Y-4.5697
X5.5551Y-6.435
X5.5551Y-6.4933
X5.5622Y-6.2587
X5.5661Y-6.2921
X5.5681Y-4.5071
X5.572Y-6.3193
X5.5783Y-6.0205
X5.5992Y-4.1508
X5.6Y-5.2587
X5.6075Y-6.5354
X5.613Y-6.4287
X5.6291Y-6.4059
X5.6311Y-6.6295
X5.6311Y-6.6649
X5.6311Y-6.6984
X5.6378Y-4.7232
X5.6445Y-6.5618
X5.6539Y-7.7362
X5.6579Y-6.9764
X5.6591Y-6.3587
X5.6591Y-7.161
X5.6642Y-5.0453
X5.6705Y-4.1886
X5.6709Y-4.5965
X5.6709Y-4.763
X5.6736Y-4.924
X5.6783Y-4.0406
X5.6787Y-3.8969
X5.6815Y-6.7673
X5.6969Y-4.5575
X5.6988Y-6.1835
X5.6992Y-6.1071
X5.6992Y-6.1323
X5.6992Y-6.1575
X5.6992Y-6.2083
X5.6992Y-6.2346
X5.6996Y-6.0811
X5.6996Y-6.6295
X5.6996Y-6.6649
X5.6996Y-6.6984
X5.7043Y-6.7673
X5.7114Y-5.6896
X5.7114Y-5.7407
X5.7114Y-5.7663
X5.7114Y-5.9199
X5.7154Y-5.6429
X5.7193Y-5.513
X5.739Y-6.8236
X5.7394Y-5.3713
X5.7535Y-6.3346
X5.7559Y-6.0587
X5.7571Y-5.
X5.7583Y-5.1197
X5.7602Y-4.8984
X5.7649Y-3.9933
X5.7649Y-4.1295
X5.7654Y-3.848
X5.7657Y-4.5587
X5.7661Y-4.6787
X5.7665Y-4.8004
X5.7898Y-4.9291
X5.7921Y-5.7858
X5.7988Y-4.6343
X5.8Y-4.0654
X5.8047Y-3.9228
X5.8051Y-5.25
X5.8055Y-4.261
X5.8102Y-5.5539
X5.8126Y-5.6929
X5.813Y-5.7417
X5.8236Y-6.7409
X5.8362Y-5.1984
X5.8429Y-5.7461
X5.8567Y-5.8437
X5.8618Y-6.7075
X5.8709Y-5.4457
X5.8728Y-5.9886
X5.8744Y-5.9209
X5.8882Y-5.7551
X5.8909Y-5.7961
X5.8921Y-5.3528
X5.8925Y-5.4661
X5.9031Y-6.6614
X5.9209Y-4.5961
X5.9217Y-4.7634
X5.9256Y-5.689
X5.9276Y-6.1065
X5.9276Y-6.1321
X5.928Y-6.1831
X5.9283Y-4.1339
X5.9283Y-4.924
X5.9283Y-6.0807
X5.9283Y-6.1579
X5.9283Y-6.2087
X5.9283Y-6.2346
X5.9299Y-5.6378
X5.9303Y-6.3409
X5.9303Y-6.3921
X5.9402Y-5.7909
X5.9472Y-5.3799
X5.95Y-5.3488
X5.9571Y-6.2835
X5.9598Y-5.9575
X5.9622Y-6.6594
X5.9697Y-5.2106
X5.9756Y-4.2787
X5.9764Y-4.4445
X5.9894Y-6.5378
X5.9902Y-5.9961
X5.9972Y-5.5539
X6.0004Y-6.5886
X6.0067Y-5.7677
X6.0087Y-5.8634
X6.0102Y-5.7953
X6.0146Y-4.8539
X6.0146Y-4.9984
X6.0149Y-4.0638
X6.015Y-5.1217
X6.015Y-5.2992
X6.0153Y-4.2075
X6.0153Y-4.5126
X6.0157Y-4.3453
X6.0157Y-4.6807
X6.0283Y-6.7429
X6.0319Y-5.2087
X6.0406Y-4.3039
X6.0433Y-4.1598
X6.0453Y-4.8004
X6.0484Y-4.6331
X6.0512Y-4.463
X6.0583Y-6.5941
X6.065Y-5.4441
X6.0661Y-5.4732
X6.0681Y-5.3406
X6.0728Y-6.6339
X6.089Y-5.5469
X6.0909Y-5.8906
X6.0921Y-5.7368
X6.0921Y-5.8136
X6.0921Y-5.839
X6.0921Y-5.8648
X6.0925Y-5.7618
X6.0929Y-5.7874
X6.1067Y-5.3866
X6.1382Y-6.7004
X6.1587Y-6.6484
X6.178Y-6.5972
X6.1988Y-6.5717
X6.2024Y-5.6677
X6.2138Y-4.4287
X6.2157Y-5.0846
X6.2177Y-6.1453
X6.224Y-6.3421
X6.2291Y-6.2185
X6.2614Y-4.7677
X6.2661Y-6.113
X6.2677Y-5.6709
X6.2677Y-6.1413
X6.2685Y-5.5984
X6.2709Y-6.1923
X6.2709Y-6.2691
X6.2709Y-6.3203
X6.2787Y-6.2425
X6.2791Y-6.2945
X6.287Y-6.0992
X6.2996Y-6.0756
X6.3031Y-4.5984
X6.3031Y-5.1469
X6.3039Y-6.1669
X6.3047Y-6.0528
X6.3091Y-6.0287
X6.315Y-6.4126
X6.3165Y-6.002
X6.3201Y-5.737
X6.3205Y-5.788
X6.3205Y-5.8136
X6.3205Y-5.8904
X6.3343Y-6.2465
X6.3465Y-5.5189
X6.35Y-6.7224
X6.3815Y-6.7224
X6.413Y-5.502
X6.415Y-5.178
X6.4654Y-6.5177
X6.4657Y-6.5459
X6.4657Y-6.5715
X6.4657Y-6.597
X6.4657Y-6.6226
X6.4657Y-6.6482
X6.4657Y-6.6738
X6.4657Y-6.6994
X6.4756Y-5.4307
X6.487Y-5.3768
X6.5217Y-6.6972
X6.5236Y-6.7252
X6.5299Y-6.748
X6.5378Y-5.7232
X6.5433Y-6.6752
X6.5654Y-6.648
X6.5732Y-6.7736
X6.5827Y-6.6224
X6.6156Y-5.5675
X6.6642Y-6.5327
X6.6988Y-6.3366
X6.7012Y-4.8846
X6.7181Y-6.3421
X6.7213Y-7.452
X6.737Y-6.3598
X6.7374Y-6.6059
X6.7378Y-6.3425
X6.751Y-6.5459
X6.7591Y-6.6764
X6.7728Y-4.9657
X6.7831Y-6.5106
X6.8222Y-6.7061
X6.84Y-6.1793
X6.8417Y-6.1575
X6.8626Y-6.2547
X6.9236Y-6.5047
X6.9256Y-6.6843
X6.9764Y-6.4453
X7.0514Y-6.1246
X7.0959Y-6.1254
X7.1191Y-5.6124
X7.1537Y-6.3687
X7.1736Y-5.2728
X7.209Y-5.3004
X7.226Y-6.3866
X7.263Y-5.0614
X7.273Y-6.2396
X7.3303Y-5.0768
X7.3717Y-6.2878
X7.3937Y-6.5937
X7.4386Y-6.6224
X7.4602Y-6.6913
X7.4854Y-6.6461
X7.5307Y-6.6835
X7.5646Y-5.9134
X7.5744Y-6.6839
X7.6043Y-6.1622
X7.6173Y-6.6827
X7.6213Y-5.1122
X7.6598Y-5.1449
X7.6606Y-6.6831
X7.7508Y-4.8071
X7.8876Y-5.7427
X7.9126Y-5.7427
X7.9335Y-4.8843
X7.9622Y-5.3598
T2
X7.6606Y-6.3772
T0
M30
