G04 #@! TF.FileFunction,Soldermask,Bot*
%FSLAX46Y46*%
G04 Gerber Fmt 4.6, Leading zero omitted, Abs format (unit mm)*
G04 Created by KiCad (PCBNEW 4.0.7-e2-6376~61~ubuntu18.04.1) date Mon May 30 11:29:29 2022*
%MOMM*%
%LPD*%
G01*
G04 APERTURE LIST*
%ADD10C,0.150000*%
%ADD11C,0.200000*%
%ADD12C,1.500000*%
%ADD13R,1.500000X1.500000*%
%ADD14R,1.500000X0.450000*%
%ADD15R,1.000000X0.700000*%
%ADD16R,0.693420X0.693420*%
%ADD17R,0.899160X1.399540*%
%ADD18R,0.750000X0.400000*%
%ADD19R,1.600000X2.350000*%
%ADD20C,0.250000*%
%ADD21R,0.250000X0.400000*%
%ADD22R,2.540000X1.700000*%
%ADD23R,0.998120X0.898120*%
%ADD24R,0.898120X0.998120*%
%ADD25R,0.650000X0.300000*%
%ADD26R,0.798500X0.897560*%
%ADD27R,0.897560X0.798500*%
%ADD28R,0.595300X0.595300*%
%ADD29R,0.299720X0.949960*%
%ADD30R,0.949960X0.299720*%
%ADD31R,2.250440X2.250440*%
%ADD32R,0.350000X0.300000*%
%ADD33R,0.300000X0.350000*%
%ADD34R,0.657860X0.355600*%
%ADD35R,0.495300X0.495300*%
%ADD36R,0.855980X0.553720*%
%ADD37R,0.500000X0.300000*%
%ADD38R,0.300000X0.600000*%
%ADD39R,1.750000X1.750000*%
%ADD40R,1.399540X0.899160*%
%ADD41R,0.600000X0.900000*%
%ADD42R,0.800000X0.900000*%
%ADD43R,1.496060X5.000000*%
%ADD44O,2.994660X1.524000*%
%ADD45C,3.198120*%
%ADD46C,3.298120*%
%ADD47R,0.700000X1.000000*%
%ADD48R,0.350000X0.600000*%
%ADD49R,0.600000X0.350000*%
%ADD50R,2.800000X2.800000*%
%ADD51C,5.000000*%
%ADD52C,6.000000*%
%ADD53C,0.254000*%
G04 APERTURE END LIST*
D10*
D11*
X63390000Y-111490000D02*
X63390000Y-87350000D01*
X50960000Y-111490000D02*
X63390000Y-111490000D01*
X50960000Y-124590000D02*
X50960000Y-111490000D01*
X46770000Y-128780000D02*
X50960000Y-124590000D01*
X46770000Y-145000000D02*
X46770000Y-128780000D01*
X36820000Y-145000000D02*
X46770000Y-145000000D01*
X63390000Y-225550000D02*
X63390000Y-262740000D01*
X36820000Y-225550000D02*
X63390000Y-225550000D01*
X36820000Y-145000000D02*
X36820000Y-225550000D01*
X104330000Y-87350000D02*
X63390000Y-87350000D01*
X112510000Y-79170000D02*
X104330000Y-87350000D01*
X112510000Y-70160000D02*
X112510000Y-79170000D01*
X213990000Y-70160000D02*
X112510000Y-70160000D01*
X213990000Y-262740000D02*
X213990000Y-70160000D01*
X63390000Y-262740000D02*
X213990000Y-262740000D01*
D12*
X196870000Y-227590000D03*
X196870000Y-230130000D03*
X196870000Y-232670000D03*
X196870000Y-235210000D03*
X196870000Y-237750000D03*
X196870000Y-240290000D03*
X196870000Y-242830000D03*
X199410000Y-227590000D03*
X199410000Y-230130000D03*
X199410000Y-232640000D03*
X199410000Y-235210000D03*
X199410000Y-237750000D03*
X199410000Y-240290000D03*
D13*
X199410000Y-242830000D03*
D12*
X121430000Y-227590000D03*
X121430000Y-230130000D03*
X121430000Y-232670000D03*
X121430000Y-235210000D03*
X121430000Y-237750000D03*
X121430000Y-240290000D03*
X121430000Y-242830000D03*
X123970000Y-227590000D03*
X123970000Y-230130000D03*
X123970000Y-232640000D03*
X123970000Y-235210000D03*
X123970000Y-237750000D03*
X123970000Y-240290000D03*
D13*
X123970000Y-242830000D03*
D14*
X116530000Y-249885000D03*
X116530000Y-255735000D03*
X122330000Y-255735000D03*
X122330000Y-249885000D03*
X116530000Y-250535000D03*
X116530000Y-251185000D03*
X116530000Y-251835000D03*
X116530000Y-252485000D03*
X116530000Y-253135000D03*
X116530000Y-253785000D03*
X116530000Y-254435000D03*
X116530000Y-255085000D03*
X122330000Y-255085000D03*
X122330000Y-254435000D03*
X122330000Y-253785000D03*
X122330000Y-253135000D03*
X122330000Y-250535000D03*
X122330000Y-251185000D03*
X122330000Y-251835000D03*
X122330000Y-252485000D03*
D15*
X149540000Y-211300000D03*
X149540000Y-213200000D03*
X151940000Y-213200000D03*
X151940000Y-211300000D03*
X151940000Y-212250000D03*
X74090000Y-211310000D03*
X74090000Y-213210000D03*
X76490000Y-213210000D03*
X76490000Y-211310000D03*
X76490000Y-212260000D03*
D16*
X155230420Y-250870000D03*
X156129580Y-250870000D03*
D10*
G36*
X153578729Y-219849897D02*
X153088407Y-220340219D01*
X152598085Y-219849897D01*
X153088407Y-219359575D01*
X153578729Y-219849897D01*
X153578729Y-219849897D01*
G37*
G36*
X152942927Y-219214095D02*
X152452605Y-219704417D01*
X151962283Y-219214095D01*
X152452605Y-218723773D01*
X152942927Y-219214095D01*
X152942927Y-219214095D01*
G37*
D17*
X159062500Y-193900000D03*
X157157500Y-193900000D03*
X159052500Y-198000000D03*
X157147500Y-198000000D03*
D16*
X151109580Y-194800000D03*
X150210420Y-194800000D03*
X152010000Y-192609580D03*
X152010000Y-191710420D03*
X151110000Y-193899580D03*
X151110000Y-193000420D03*
X151990000Y-193900420D03*
X151990000Y-194799580D03*
X155719580Y-194970000D03*
X154820420Y-194970000D03*
X159059580Y-192440000D03*
X158160420Y-192440000D03*
X159039580Y-196550000D03*
X158140420Y-196550000D03*
D18*
X155725000Y-193905000D03*
X155725000Y-193255000D03*
X155725000Y-192605000D03*
X155725000Y-191955000D03*
X152975000Y-191955000D03*
X152975000Y-192605000D03*
X152975000Y-193255000D03*
X152975000Y-193905000D03*
D19*
X154350000Y-192930000D03*
D18*
X155705000Y-198005000D03*
X155705000Y-197355000D03*
X155705000Y-196705000D03*
X155705000Y-196055000D03*
X152955000Y-196055000D03*
X152955000Y-196705000D03*
X152955000Y-197355000D03*
X152955000Y-198005000D03*
D19*
X154330000Y-197030000D03*
D16*
X151189580Y-198890000D03*
X150290420Y-198890000D03*
X152010000Y-196699580D03*
X152010000Y-195800420D03*
X151190000Y-197979580D03*
X151190000Y-197080420D03*
X152010000Y-198000420D03*
X152010000Y-198899580D03*
X155839580Y-199030000D03*
X154940420Y-199030000D03*
D20*
X146900000Y-207345000D03*
D21*
X146900000Y-207545000D03*
X146400000Y-207545000D03*
D20*
X146400000Y-207345000D03*
X147400000Y-207345000D03*
D21*
X147400000Y-207545000D03*
X147900000Y-207545000D03*
D20*
X147900000Y-207345000D03*
X147900000Y-204895000D03*
D21*
X147900000Y-204695000D03*
X147400000Y-204695000D03*
D20*
X147400000Y-204895000D03*
X146400000Y-204895000D03*
D21*
X146400000Y-204695000D03*
X146900000Y-204695000D03*
D20*
X146900000Y-204895000D03*
D22*
X147150000Y-206120000D03*
D16*
X147190000Y-194909580D03*
X147190000Y-194010420D03*
X147190000Y-194910420D03*
X147190000Y-195809580D03*
X146330420Y-209320000D03*
X147229580Y-209320000D03*
X148040420Y-209330000D03*
X148939580Y-209330000D03*
D17*
X155372500Y-212610000D03*
X153467500Y-212610000D03*
D23*
X146120000Y-194920000D03*
X146120000Y-196420000D03*
X148780000Y-201760000D03*
X148780000Y-203260000D03*
X148040000Y-211300000D03*
X148040000Y-212800000D03*
D24*
X145940000Y-203170000D03*
X147440000Y-203170000D03*
D16*
X153470420Y-211310000D03*
X154369580Y-211310000D03*
D23*
X146810000Y-212380000D03*
X146810000Y-210880000D03*
D16*
X156980000Y-212339580D03*
X156980000Y-211440420D03*
D18*
X153715000Y-205865000D03*
X153715000Y-206515000D03*
X153715000Y-207165000D03*
X153715000Y-207815000D03*
X156465000Y-207815000D03*
X156465000Y-207165000D03*
X156465000Y-206515000D03*
X156465000Y-205865000D03*
D19*
X155090000Y-206840000D03*
D16*
X159150000Y-205850420D03*
X159150000Y-206749580D03*
X157310000Y-207170420D03*
X157310000Y-208069580D03*
X158210000Y-205860420D03*
X158210000Y-206759580D03*
X149820000Y-206109580D03*
X149820000Y-205210420D03*
X149820000Y-206110420D03*
X149820000Y-207009580D03*
X157160000Y-205859580D03*
X157160000Y-204960420D03*
D23*
X152020000Y-207190000D03*
X152020000Y-208690000D03*
X150870000Y-207190000D03*
X150870000Y-208690000D03*
D18*
X155965000Y-202245000D03*
X155965000Y-201595000D03*
X155965000Y-200945000D03*
X155965000Y-200295000D03*
X153215000Y-200295000D03*
X153215000Y-200945000D03*
X153215000Y-201595000D03*
X153215000Y-202245000D03*
D19*
X154590000Y-201270000D03*
D16*
X150590000Y-206109580D03*
X150590000Y-205210420D03*
X151290000Y-203110420D03*
X151290000Y-204009580D03*
X152170000Y-201349580D03*
X152170000Y-200450420D03*
X151280000Y-202249580D03*
X151280000Y-201350420D03*
D17*
X159042500Y-202240000D03*
X157137500Y-202240000D03*
D16*
X152180000Y-202250420D03*
X152180000Y-203149580D03*
X157120420Y-200910000D03*
X158019580Y-200910000D03*
X159029580Y-203590000D03*
X158130420Y-203590000D03*
D14*
X206050000Y-220375000D03*
X206050000Y-219725000D03*
X206050000Y-219075000D03*
X206050000Y-218425000D03*
X206050000Y-217775000D03*
X206050000Y-217125000D03*
X206050000Y-216475000D03*
X206050000Y-215825000D03*
X206050000Y-215175000D03*
X206050000Y-214525000D03*
X200250000Y-214525000D03*
X200250000Y-215175000D03*
X200250000Y-215825000D03*
X200250000Y-216475000D03*
X200250000Y-217125000D03*
X200250000Y-220375000D03*
X200250000Y-219725000D03*
X200250000Y-219075000D03*
X200250000Y-218425000D03*
X200250000Y-217775000D03*
X128150000Y-241455000D03*
X128150000Y-242105000D03*
X128150000Y-242755000D03*
X128150000Y-243405000D03*
X128150000Y-244055000D03*
X128150000Y-244705000D03*
X128150000Y-245355000D03*
X128150000Y-246005000D03*
X128150000Y-246655000D03*
X128150000Y-247305000D03*
X133950000Y-247305000D03*
X133950000Y-246655000D03*
X133950000Y-246005000D03*
X133950000Y-245355000D03*
X133950000Y-244705000D03*
X133950000Y-241455000D03*
X133950000Y-242105000D03*
X133950000Y-242755000D03*
X133950000Y-243405000D03*
X133950000Y-244055000D03*
D17*
X71147500Y-242170000D03*
X73052500Y-242170000D03*
D19*
X79650000Y-206840000D03*
D25*
X78275000Y-207165000D03*
X78275000Y-206515000D03*
X78275000Y-205865000D03*
X78275000Y-207815480D03*
X81025000Y-207815480D03*
X81025000Y-205864760D03*
X81025000Y-206515000D03*
X81025000Y-207165000D03*
D19*
X79150000Y-201270000D03*
D25*
X80525000Y-200945000D03*
X80525000Y-201595000D03*
X80525000Y-202245000D03*
X80525000Y-200294520D03*
X77775000Y-200294520D03*
X77775000Y-202245240D03*
X77775000Y-201595000D03*
X77775000Y-200945000D03*
D19*
X78890000Y-197030000D03*
D25*
X80265000Y-196705000D03*
X80265000Y-197355000D03*
X80265000Y-198005000D03*
X80265000Y-196054520D03*
X77515000Y-196054520D03*
X77515000Y-198005240D03*
X77515000Y-197355000D03*
X77515000Y-196705000D03*
D19*
X78910000Y-192930000D03*
D25*
X80285000Y-192605000D03*
X80285000Y-193255000D03*
X80285000Y-193905000D03*
X80285000Y-191954520D03*
X77535000Y-191954520D03*
X77535000Y-193905240D03*
X77535000Y-193255000D03*
X77535000Y-192605000D03*
D17*
X83612500Y-198000000D03*
X81707500Y-198000000D03*
X83622500Y-193900000D03*
X81717500Y-193900000D03*
X79932500Y-212610000D03*
X78027500Y-212610000D03*
X92562500Y-211680000D03*
X90657500Y-211680000D03*
X92542500Y-209860000D03*
X90637500Y-209860000D03*
X83602500Y-202240000D03*
X81697500Y-202240000D03*
D26*
X70503900Y-203170000D03*
X71596100Y-203170000D03*
D27*
X70680000Y-194923900D03*
X70680000Y-196016100D03*
X73340000Y-202163900D03*
X73340000Y-203256100D03*
X71370000Y-211966100D03*
X71370000Y-210873900D03*
X72600000Y-211303900D03*
X72600000Y-212396100D03*
D28*
X81720000Y-205859580D03*
X81720000Y-204960420D03*
X76740000Y-202250420D03*
X76740000Y-203149580D03*
X76570000Y-198000420D03*
X76570000Y-198899580D03*
X76550000Y-193900420D03*
X76550000Y-194799580D03*
X81680420Y-200910000D03*
X82579580Y-200910000D03*
X81870000Y-207170420D03*
X81870000Y-208069580D03*
X76570000Y-196699580D03*
X76570000Y-195800420D03*
X83599580Y-196550000D03*
X82700420Y-196550000D03*
X80389580Y-199020000D03*
X79490420Y-199020000D03*
X83710000Y-205850420D03*
X83710000Y-206749580D03*
X75669580Y-194800000D03*
X74770420Y-194800000D03*
X83619580Y-192440000D03*
X82720420Y-192440000D03*
X80279580Y-194980000D03*
X79380420Y-194980000D03*
X70890420Y-209320000D03*
X71789580Y-209320000D03*
X72600420Y-209330000D03*
X73499580Y-209330000D03*
X74380000Y-206110420D03*
X74380000Y-207009580D03*
X74380000Y-206119580D03*
X74380000Y-205220420D03*
X71750000Y-194910420D03*
X71750000Y-195809580D03*
X71750000Y-194909580D03*
X71750000Y-194010420D03*
X76570000Y-192609580D03*
X76570000Y-191710420D03*
X82770000Y-205860420D03*
X82770000Y-206759580D03*
X75670000Y-193899580D03*
X75670000Y-193000420D03*
X75750000Y-197979580D03*
X75750000Y-197080420D03*
X75840000Y-202249580D03*
X75840000Y-201350420D03*
X76730000Y-201349580D03*
X76730000Y-200450420D03*
X83589580Y-203590000D03*
X82690420Y-203590000D03*
X81540000Y-212339580D03*
X81540000Y-211440420D03*
X75850000Y-203110420D03*
X75850000Y-204009580D03*
X75749580Y-198890000D03*
X74850420Y-198890000D03*
X78020420Y-211310000D03*
X78919580Y-211310000D03*
D29*
X130060600Y-179949600D03*
X129562760Y-179949600D03*
X129062380Y-179949600D03*
X128562000Y-179949600D03*
X128061620Y-179949600D03*
D30*
X127142140Y-180869080D03*
X127142140Y-181369460D03*
X127142140Y-181869840D03*
X127142140Y-182370220D03*
X127142140Y-182868060D03*
D29*
X128061620Y-183800240D03*
X128562000Y-183800240D03*
X129062380Y-183800240D03*
X129562760Y-183800240D03*
X130060600Y-183800240D03*
D30*
X130992780Y-182878220D03*
X130992780Y-182380380D03*
X130992780Y-181880000D03*
X130992780Y-181379620D03*
X130992780Y-180879240D03*
D31*
X129070000Y-181880000D03*
D28*
X133479580Y-178520000D03*
X132580420Y-178520000D03*
X131799580Y-177740000D03*
X130900420Y-177740000D03*
X131799580Y-178510000D03*
X130900420Y-178510000D03*
X132470420Y-181390000D03*
X133369580Y-181390000D03*
X125770000Y-184459580D03*
X125770000Y-183560420D03*
X124710420Y-181880000D03*
X125609580Y-181880000D03*
X129570000Y-185170420D03*
X129570000Y-186069580D03*
X130430000Y-185170420D03*
X130430000Y-186069580D03*
X128740000Y-185170420D03*
X128740000Y-186069580D03*
X124700420Y-181050000D03*
X125599580Y-181050000D03*
X129619580Y-178530000D03*
X128720420Y-178530000D03*
X132470000Y-180579580D03*
X132470000Y-179680420D03*
X131530000Y-185719580D03*
X131530000Y-184820420D03*
X124710420Y-182720000D03*
X125609580Y-182720000D03*
X122340000Y-180199580D03*
X122340000Y-179300420D03*
X124039580Y-180210000D03*
X123140420Y-180210000D03*
X124059580Y-179320000D03*
X123160420Y-179320000D03*
X124830000Y-180209580D03*
X124830000Y-179310420D03*
X125610000Y-180209580D03*
X125610000Y-179310420D03*
X128120000Y-188169580D03*
X128120000Y-187270420D03*
X91400000Y-183250420D03*
X91400000Y-184149580D03*
X90620000Y-186739580D03*
X90620000Y-185840420D03*
X91440000Y-186739580D03*
X91440000Y-185840420D03*
X89790000Y-185830420D03*
X89790000Y-186729580D03*
X88399580Y-189790000D03*
X87500420Y-189790000D03*
X84959580Y-189790000D03*
X84060420Y-189790000D03*
X95670000Y-183030420D03*
X95670000Y-183929580D03*
X86699580Y-189790000D03*
X85800420Y-189790000D03*
X87500000Y-190670420D03*
X87500000Y-191569580D03*
X89790420Y-188040000D03*
X90689580Y-188040000D03*
X90689580Y-184980000D03*
X89790420Y-184980000D03*
X80340420Y-185450000D03*
X81239580Y-185450000D03*
X81229580Y-186740000D03*
X80330420Y-186740000D03*
X104009144Y-193994995D03*
X104009144Y-193095835D03*
X103026164Y-193730835D03*
X103026164Y-192831675D03*
X90580000Y-184159580D03*
X90580000Y-183260420D03*
X89790000Y-184149580D03*
X89790000Y-183250420D03*
X80819580Y-189740000D03*
X79920420Y-189740000D03*
X92250000Y-186739580D03*
X92250000Y-185840420D03*
X92260000Y-184150420D03*
X92260000Y-185049580D03*
D26*
X95676100Y-184910000D03*
X94583900Y-184910000D03*
D27*
X93520000Y-184906100D03*
X93520000Y-183813900D03*
D32*
X110071584Y-193295175D03*
X110071584Y-192745175D03*
X109472144Y-193295175D03*
X109472144Y-192745175D03*
X110084284Y-207360335D03*
X110084284Y-207910335D03*
D33*
X111230504Y-204767675D03*
X110680504Y-204767675D03*
X115049304Y-199728315D03*
X115599304Y-199728315D03*
X107306204Y-201254855D03*
X106756204Y-201254855D03*
X108379364Y-200428375D03*
X108929364Y-200428375D03*
X108379364Y-199828375D03*
X108929364Y-199828375D03*
D32*
X112438864Y-207362875D03*
X112438864Y-207912875D03*
D33*
X113795904Y-207373715D03*
X113245904Y-207373715D03*
X108662564Y-206771735D03*
X108112564Y-206771735D03*
X113245904Y-206769195D03*
X113795904Y-206769195D03*
D32*
X109482304Y-207360335D03*
X109482304Y-207910335D03*
X111839424Y-207360335D03*
X111839424Y-207910335D03*
D34*
X110442424Y-206774275D03*
X110442424Y-205910675D03*
X109487384Y-206774275D03*
X109487384Y-205910675D03*
X111476204Y-206771735D03*
X111476204Y-205908135D03*
X112436324Y-206771735D03*
X112436324Y-205908135D03*
D33*
X111779364Y-203813135D03*
X112329364Y-203813135D03*
X111779364Y-203213135D03*
X112329364Y-203213135D03*
X111787944Y-204442555D03*
X112337944Y-204442555D03*
D32*
X110054364Y-202588135D03*
X110054364Y-202038135D03*
X110654364Y-202588135D03*
X110654364Y-202038135D03*
X111254364Y-202588135D03*
X111254364Y-202038135D03*
X111854364Y-202588135D03*
X111854364Y-202038135D03*
D33*
X109929364Y-203813135D03*
X109379364Y-203813135D03*
D32*
X108454364Y-202588135D03*
X108454364Y-202038135D03*
X109054364Y-202588135D03*
X109054364Y-202038135D03*
X106351824Y-199503375D03*
X106351824Y-198953375D03*
D33*
X106326824Y-200128375D03*
X105776824Y-200128375D03*
X105776824Y-198228375D03*
X106326824Y-198228375D03*
X107176824Y-198228375D03*
X107726824Y-198228375D03*
D16*
X107944204Y-196260175D03*
X107944204Y-195361015D03*
D32*
X111826044Y-193295095D03*
X111826044Y-192745095D03*
X112426044Y-193295095D03*
X112426044Y-192745095D03*
D33*
X108112584Y-193284155D03*
X108662584Y-193284155D03*
X113797744Y-193284155D03*
X113247744Y-193284155D03*
X108662564Y-193886315D03*
X108112564Y-193886315D03*
X113247744Y-193884155D03*
X113797744Y-193884155D03*
D32*
X112444204Y-197085595D03*
X112444204Y-196535595D03*
D33*
X115419204Y-198410595D03*
X114869204Y-198410595D03*
X115419204Y-197810595D03*
X114869204Y-197810595D03*
D32*
X114244204Y-196885595D03*
X114244204Y-196335595D03*
X114844204Y-196885595D03*
X114844204Y-196335595D03*
D33*
X113019204Y-200010595D03*
X112469204Y-200010595D03*
X113019204Y-199410595D03*
X112469204Y-199410595D03*
D32*
X111244204Y-198035595D03*
X111244204Y-198585595D03*
X111844204Y-198035595D03*
X111844204Y-198585595D03*
X110644204Y-198035595D03*
X110644204Y-198585595D03*
X110044204Y-198035595D03*
X110044204Y-198585595D03*
D33*
X110119204Y-196210595D03*
X109569204Y-196210595D03*
D32*
X111744204Y-197485595D03*
X111744204Y-196935595D03*
D33*
X110569204Y-197010595D03*
X111119204Y-197010595D03*
D32*
X113644204Y-198035595D03*
X113644204Y-198585595D03*
X113644204Y-197085595D03*
X113644204Y-196535595D03*
X113044204Y-198035595D03*
X113044204Y-198585595D03*
X113044204Y-197085595D03*
X113044204Y-196535595D03*
X112444204Y-198035595D03*
X112444204Y-198585595D03*
D34*
X112423624Y-193883775D03*
X112423624Y-194747375D03*
X111466044Y-193883775D03*
X111466044Y-194747375D03*
X110433484Y-193884155D03*
X110433484Y-194747755D03*
X109474684Y-193883775D03*
X109474684Y-194747375D03*
D32*
X115555444Y-200565835D03*
X115555444Y-201115835D03*
D33*
X108112564Y-207371175D03*
X108662564Y-207371175D03*
X110675424Y-195885295D03*
X111225424Y-195885295D03*
D35*
X104941324Y-194764615D03*
X105840484Y-194764615D03*
X102335284Y-192046815D03*
X103234444Y-192046815D03*
X104941324Y-193989915D03*
X105840484Y-193989915D03*
D32*
X190290000Y-196885000D03*
X190290000Y-196335000D03*
X189690000Y-196885000D03*
X189690000Y-196335000D03*
X187890000Y-198035000D03*
X187890000Y-198585000D03*
X187890000Y-197085000D03*
X187890000Y-196535000D03*
X188490000Y-198035000D03*
X188490000Y-198585000D03*
D33*
X182625000Y-198230000D03*
X183175000Y-198230000D03*
D32*
X183900000Y-202585000D03*
X183900000Y-202035000D03*
X188490000Y-197085000D03*
X188490000Y-196535000D03*
X184500000Y-202585000D03*
X184500000Y-202035000D03*
X189090000Y-198035000D03*
X189090000Y-198585000D03*
X189090000Y-197085000D03*
X189090000Y-196535000D03*
D33*
X181775000Y-200130000D03*
X181225000Y-200130000D03*
D32*
X187290000Y-198035000D03*
X187290000Y-198585000D03*
X186690000Y-198035000D03*
X186690000Y-198585000D03*
D33*
X183825000Y-199830000D03*
X184375000Y-199830000D03*
D32*
X187300000Y-202585000D03*
X187300000Y-202035000D03*
D33*
X183825000Y-200430000D03*
X184375000Y-200430000D03*
D32*
X186090000Y-198035000D03*
X186090000Y-198585000D03*
X186700000Y-202585000D03*
X186700000Y-202035000D03*
X185490000Y-198035000D03*
X185490000Y-198585000D03*
X186100000Y-202585000D03*
X186100000Y-202035000D03*
D33*
X186125000Y-195880000D03*
X186675000Y-195880000D03*
X188465000Y-200010000D03*
X187915000Y-200010000D03*
D32*
X185500000Y-202585000D03*
X185500000Y-202035000D03*
D33*
X188465000Y-199410000D03*
X187915000Y-199410000D03*
X186675000Y-204770000D03*
X186125000Y-204770000D03*
X190865000Y-197810000D03*
X190315000Y-197810000D03*
X190865000Y-198410000D03*
X190315000Y-198410000D03*
X185375000Y-203810000D03*
X184825000Y-203810000D03*
X181225000Y-198230000D03*
X181775000Y-198230000D03*
X185565000Y-196210000D03*
X185015000Y-196210000D03*
D32*
X187190000Y-197545000D03*
X187190000Y-196995000D03*
X181800000Y-199505000D03*
X181800000Y-198955000D03*
D33*
X187235000Y-204440000D03*
X187785000Y-204440000D03*
X187225000Y-203810000D03*
X187775000Y-203810000D03*
X187225000Y-203210000D03*
X187775000Y-203210000D03*
X182755000Y-201250000D03*
X182205000Y-201250000D03*
D16*
X183390000Y-196259580D03*
X183390000Y-195360420D03*
D32*
X184930000Y-207355000D03*
X184930000Y-207905000D03*
X187290000Y-207355000D03*
X187290000Y-207905000D03*
X185530000Y-207355000D03*
X185530000Y-207905000D03*
D33*
X183555000Y-193280000D03*
X184105000Y-193280000D03*
X183565000Y-207370000D03*
X184115000Y-207370000D03*
X189245000Y-207370000D03*
X188695000Y-207370000D03*
D36*
X184940000Y-206771800D03*
X184940000Y-205908200D03*
X186920000Y-206771800D03*
X186920000Y-205908200D03*
X185890000Y-206771800D03*
X185890000Y-205908200D03*
X187880000Y-206771800D03*
X187880000Y-205908200D03*
D33*
X184105000Y-193890000D03*
X183555000Y-193890000D03*
X184115000Y-206770000D03*
X183565000Y-206770000D03*
X188695000Y-206770000D03*
X189245000Y-206770000D03*
D16*
X73349580Y-239770000D03*
X72450420Y-239770000D03*
D33*
X190495000Y-199740000D03*
X191045000Y-199740000D03*
D16*
X180390420Y-194760000D03*
X181289580Y-194760000D03*
X178470000Y-193729580D03*
X178470000Y-192830420D03*
X177780420Y-192040000D03*
X178679580Y-192040000D03*
D32*
X184920000Y-193295000D03*
X184920000Y-192745000D03*
X187270000Y-193285000D03*
X187270000Y-192735000D03*
X185520000Y-193285000D03*
X185520000Y-192735000D03*
X187890000Y-207355000D03*
X187890000Y-207905000D03*
X187870000Y-193285000D03*
X187870000Y-192735000D03*
X191000000Y-200565000D03*
X191000000Y-201115000D03*
D33*
X189245000Y-193280000D03*
X188695000Y-193280000D03*
D36*
X185880000Y-193878200D03*
X185880000Y-194741800D03*
X187870000Y-193878200D03*
X187870000Y-194741800D03*
X184920000Y-193878200D03*
X184920000Y-194741800D03*
X186910000Y-193878200D03*
X186910000Y-194741800D03*
D16*
X179460000Y-193989580D03*
X179460000Y-193090420D03*
X180390420Y-193990000D03*
X181289580Y-193990000D03*
D33*
X188695000Y-193880000D03*
X189245000Y-193880000D03*
D29*
X205500600Y-179949600D03*
X205002760Y-179949600D03*
X204502380Y-179949600D03*
X204002000Y-179949600D03*
X203501620Y-179949600D03*
D30*
X202582140Y-180869080D03*
X202582140Y-181369460D03*
X202582140Y-181869840D03*
X202582140Y-182370220D03*
X202582140Y-182868060D03*
D29*
X203501620Y-183800240D03*
X204002000Y-183800240D03*
X204502380Y-183800240D03*
X205002760Y-183800240D03*
X205500600Y-183800240D03*
D30*
X206432780Y-182878220D03*
X206432780Y-182380380D03*
X206432780Y-181880000D03*
X206432780Y-181379620D03*
X206432780Y-180879240D03*
D31*
X204510000Y-181880000D03*
D16*
X197780000Y-180199580D03*
X197780000Y-179300420D03*
X200270000Y-180209580D03*
X200270000Y-179310420D03*
X201050000Y-180209580D03*
X201050000Y-179310420D03*
X201049580Y-181880000D03*
X200150420Y-181880000D03*
X201210000Y-183560420D03*
X201210000Y-184459580D03*
X208809580Y-181390000D03*
X207910420Y-181390000D03*
X160399580Y-189790000D03*
X159500420Y-189790000D03*
X205020000Y-185180420D03*
X205020000Y-186079580D03*
X204979580Y-178530000D03*
X204080420Y-178530000D03*
X207239580Y-178510000D03*
X206340420Y-178510000D03*
X208919580Y-178520000D03*
X208020420Y-178520000D03*
X163839580Y-189790000D03*
X162940420Y-189790000D03*
X207910000Y-179680420D03*
X207910000Y-180579580D03*
X199479580Y-180210000D03*
X198580420Y-180210000D03*
X199499580Y-179320000D03*
X198600420Y-179320000D03*
X200150420Y-182720000D03*
X201049580Y-182720000D03*
X206890000Y-185719580D03*
X206890000Y-184820420D03*
X200150420Y-181050000D03*
X201049580Y-181050000D03*
X203560000Y-187270420D03*
X203560000Y-188169580D03*
X162139580Y-189790000D03*
X161240420Y-189790000D03*
X156259580Y-189740000D03*
X155360420Y-189740000D03*
X205870000Y-186069580D03*
X205870000Y-185170420D03*
X204180000Y-186069580D03*
X204180000Y-185170420D03*
X207239580Y-177740000D03*
X206340420Y-177740000D03*
X162940000Y-190670420D03*
X162940000Y-191569580D03*
X156669580Y-186740000D03*
X155770420Y-186740000D03*
X155780420Y-185450000D03*
X156679580Y-185450000D03*
X171110000Y-183929580D03*
X171110000Y-183030420D03*
X165230000Y-184149580D03*
X165230000Y-183250420D03*
X166020000Y-184149580D03*
X166020000Y-183250420D03*
X166840000Y-184149580D03*
X166840000Y-183250420D03*
X165230000Y-186729580D03*
X165230000Y-185830420D03*
X166060000Y-186729580D03*
X166060000Y-185830420D03*
X166880000Y-186729580D03*
X166880000Y-185830420D03*
X165230420Y-188040000D03*
X166129580Y-188040000D03*
X167700000Y-184150420D03*
X167700000Y-185049580D03*
X167690000Y-186739580D03*
X167690000Y-185840420D03*
X166129580Y-184980000D03*
X165230420Y-184980000D03*
D27*
X168960000Y-184906100D03*
X168960000Y-183813900D03*
D26*
X171116100Y-184910000D03*
X170023900Y-184910000D03*
D16*
X70850420Y-239770000D03*
X71749580Y-239770000D03*
D17*
X71147500Y-238370000D03*
X73052500Y-238370000D03*
D16*
X78900000Y-237720420D03*
X78900000Y-238619580D03*
X78949580Y-239970000D03*
X78050420Y-239970000D03*
X70850420Y-243520000D03*
X71749580Y-243520000D03*
X73249580Y-243520000D03*
X72350420Y-243520000D03*
X77900000Y-241520420D03*
X77900000Y-242419580D03*
X77900000Y-237720420D03*
X77900000Y-238619580D03*
X78900000Y-241520420D03*
X78900000Y-242419580D03*
X78999580Y-243520000D03*
X78100420Y-243520000D03*
D18*
X74325000Y-237795000D03*
X74325000Y-238445000D03*
X74325000Y-239095000D03*
X74325000Y-239745000D03*
X77075000Y-239745000D03*
X77075000Y-239095000D03*
X77075000Y-238445000D03*
X77075000Y-237795000D03*
D19*
X75700000Y-238770000D03*
D18*
X74325000Y-241595000D03*
X74325000Y-242245000D03*
X74325000Y-242895000D03*
X74325000Y-243545000D03*
X77075000Y-243545000D03*
X77075000Y-242895000D03*
X77075000Y-242245000D03*
X77075000Y-241595000D03*
D19*
X75700000Y-242570000D03*
D16*
X146290420Y-239770000D03*
X147189580Y-239770000D03*
X146290420Y-243520000D03*
X147189580Y-243520000D03*
X148789580Y-239770000D03*
X147890420Y-239770000D03*
X148689580Y-243520000D03*
X147790420Y-243520000D03*
X153340000Y-241520420D03*
X153340000Y-242419580D03*
X153340000Y-237720420D03*
X153340000Y-238619580D03*
D17*
X146587500Y-242170000D03*
X148492500Y-242170000D03*
D16*
X79700000Y-241520420D03*
X79700000Y-242419580D03*
X79700000Y-237720420D03*
X79700000Y-238619580D03*
X154340000Y-241520420D03*
X154340000Y-242419580D03*
X154439580Y-243520000D03*
X153540420Y-243520000D03*
X154340000Y-237720420D03*
X154340000Y-238619580D03*
X154389580Y-239970000D03*
X153490420Y-239970000D03*
X155140000Y-241520420D03*
X155140000Y-242419580D03*
X155140000Y-237720420D03*
X155140000Y-238619580D03*
D18*
X149765000Y-237795000D03*
X149765000Y-238445000D03*
X149765000Y-239095000D03*
X149765000Y-239745000D03*
X152515000Y-239745000D03*
X152515000Y-239095000D03*
X152515000Y-238445000D03*
X152515000Y-237795000D03*
D19*
X151140000Y-238770000D03*
D18*
X149765000Y-241595000D03*
X149765000Y-242245000D03*
X149765000Y-242895000D03*
X149765000Y-243545000D03*
X152515000Y-243545000D03*
X152515000Y-242895000D03*
X152515000Y-242245000D03*
X152515000Y-241595000D03*
D19*
X151140000Y-242570000D03*
D16*
X132679580Y-248590000D03*
X131780420Y-248590000D03*
X129510420Y-248590000D03*
X130409580Y-248590000D03*
X132649580Y-240300000D03*
X131750420Y-240300000D03*
X129380420Y-240280000D03*
X130279580Y-240280000D03*
X116550420Y-248640000D03*
X117449580Y-248640000D03*
X132649580Y-232270000D03*
X131750420Y-232270000D03*
X129500420Y-232290000D03*
X130399580Y-232290000D03*
D33*
X135215000Y-249890000D03*
X135765000Y-249890000D03*
X135215000Y-251190000D03*
X135765000Y-251190000D03*
X124325000Y-253130000D03*
X124875000Y-253130000D03*
X115235000Y-253790000D03*
X114685000Y-253790000D03*
X135405000Y-241450000D03*
X135955000Y-241450000D03*
X135425000Y-242750000D03*
X135975000Y-242750000D03*
X135415000Y-243400000D03*
X135965000Y-243400000D03*
X135425000Y-244050000D03*
X135975000Y-244050000D03*
X135425000Y-244700000D03*
X135975000Y-244700000D03*
X135415000Y-245350000D03*
X135965000Y-245350000D03*
X135415000Y-246000000D03*
X135965000Y-246000000D03*
X135425000Y-246650000D03*
X135975000Y-246650000D03*
X124315000Y-250530000D03*
X124865000Y-250530000D03*
X124315000Y-251190000D03*
X124865000Y-251190000D03*
X124325000Y-251840000D03*
X124875000Y-251840000D03*
X124315000Y-252500000D03*
X124865000Y-252500000D03*
X135375000Y-233400000D03*
X135925000Y-233400000D03*
X135375000Y-234700000D03*
X135925000Y-234700000D03*
X135375000Y-235350000D03*
X135925000Y-235350000D03*
X135365000Y-236000000D03*
X135915000Y-236000000D03*
X135375000Y-236650000D03*
X135925000Y-236650000D03*
X135375000Y-237310000D03*
X135925000Y-237310000D03*
X135365000Y-237960000D03*
X135915000Y-237960000D03*
X135365000Y-238600000D03*
X135915000Y-238600000D03*
X115235000Y-251190000D03*
X114685000Y-251190000D03*
X115235000Y-251840000D03*
X114685000Y-251840000D03*
X115235000Y-252490000D03*
X114685000Y-252490000D03*
X115235000Y-253140000D03*
X114685000Y-253140000D03*
D16*
X115140000Y-249879580D03*
X115140000Y-248980420D03*
D14*
X128130000Y-249885000D03*
X128130000Y-250535000D03*
X128130000Y-251185000D03*
X128130000Y-251835000D03*
X128130000Y-252485000D03*
X128130000Y-253135000D03*
X128130000Y-253785000D03*
X128130000Y-254435000D03*
X128130000Y-255085000D03*
X128130000Y-255735000D03*
X133930000Y-255735000D03*
X133930000Y-255085000D03*
X133930000Y-254435000D03*
X133930000Y-253785000D03*
X133930000Y-253135000D03*
X133930000Y-249885000D03*
X133930000Y-250535000D03*
X133930000Y-251185000D03*
X133930000Y-251835000D03*
X133930000Y-252485000D03*
X128280000Y-233405000D03*
X128280000Y-234055000D03*
X128280000Y-234705000D03*
X128280000Y-235355000D03*
X128280000Y-236005000D03*
X128280000Y-236655000D03*
X128280000Y-237305000D03*
X128280000Y-237955000D03*
X128280000Y-238605000D03*
X128280000Y-239255000D03*
X134080000Y-239255000D03*
X134080000Y-238605000D03*
X134080000Y-237955000D03*
X134080000Y-237305000D03*
X134080000Y-236655000D03*
X134080000Y-233405000D03*
X134080000Y-234055000D03*
X134080000Y-234705000D03*
X134080000Y-235355000D03*
X134080000Y-236005000D03*
D16*
X201630420Y-221480000D03*
X202529580Y-221480000D03*
X201539580Y-212700000D03*
X200640420Y-212700000D03*
X204609580Y-221480000D03*
X203710420Y-221480000D03*
X204660420Y-212710000D03*
X205559580Y-212710000D03*
D10*
G36*
X76828223Y-223937901D02*
X76337901Y-224428223D01*
X75847579Y-223937901D01*
X76337901Y-223447579D01*
X76828223Y-223937901D01*
X76828223Y-223937901D01*
G37*
G36*
X76192421Y-223302099D02*
X75702099Y-223792421D01*
X75211777Y-223302099D01*
X75702099Y-222811777D01*
X76192421Y-223302099D01*
X76192421Y-223302099D01*
G37*
G36*
X73721777Y-221822099D02*
X74212099Y-221331777D01*
X74702421Y-221822099D01*
X74212099Y-222312421D01*
X73721777Y-221822099D01*
X73721777Y-221822099D01*
G37*
G36*
X74357579Y-222457901D02*
X74847901Y-221967579D01*
X75338223Y-222457901D01*
X74847901Y-222948223D01*
X74357579Y-222457901D01*
X74357579Y-222457901D01*
G37*
G36*
X77741777Y-220442099D02*
X78232099Y-219951777D01*
X78722421Y-220442099D01*
X78232099Y-220932421D01*
X77741777Y-220442099D01*
X77741777Y-220442099D01*
G37*
G36*
X78377579Y-221077901D02*
X78867901Y-220587579D01*
X79358223Y-221077901D01*
X78867901Y-221568223D01*
X78377579Y-221077901D01*
X78377579Y-221077901D01*
G37*
G36*
X78128223Y-219847901D02*
X77637901Y-220338223D01*
X77147579Y-219847901D01*
X77637901Y-219357579D01*
X78128223Y-219847901D01*
X78128223Y-219847901D01*
G37*
G36*
X77492421Y-219212099D02*
X77002099Y-219702421D01*
X76511777Y-219212099D01*
X77002099Y-218721777D01*
X77492421Y-219212099D01*
X77492421Y-219212099D01*
G37*
G36*
X70731777Y-227512099D02*
X71222099Y-227021777D01*
X71712421Y-227512099D01*
X71222099Y-228002421D01*
X70731777Y-227512099D01*
X70731777Y-227512099D01*
G37*
G36*
X71367579Y-228147901D02*
X71857901Y-227657579D01*
X72348223Y-228147901D01*
X71857901Y-228638223D01*
X71367579Y-228147901D01*
X71367579Y-228147901D01*
G37*
G36*
X71108223Y-226917901D02*
X70617901Y-227408223D01*
X70127579Y-226917901D01*
X70617901Y-226427579D01*
X71108223Y-226917901D01*
X71108223Y-226917901D01*
G37*
G36*
X70472421Y-226282099D02*
X69982099Y-226772421D01*
X69491777Y-226282099D01*
X69982099Y-225791777D01*
X70472421Y-226282099D01*
X70472421Y-226282099D01*
G37*
D24*
X101270000Y-259460000D03*
X102770000Y-259460000D03*
X101270000Y-258100000D03*
X102770000Y-258100000D03*
D16*
X101860420Y-256860000D03*
X102759580Y-256860000D03*
X105130420Y-251970000D03*
X106029580Y-251970000D03*
X79790420Y-250870000D03*
X80689580Y-250870000D03*
X81780000Y-252360420D03*
X81780000Y-253259580D03*
X82460000Y-252360420D03*
X82460000Y-253259580D03*
X80799580Y-252720000D03*
X79900420Y-252720000D03*
X84389580Y-252910000D03*
X83490420Y-252910000D03*
X80799580Y-253420000D03*
X79900420Y-253420000D03*
X84389580Y-253600000D03*
X83490420Y-253600000D03*
X79800000Y-255460420D03*
X79800000Y-256359580D03*
D10*
G36*
X149162140Y-221816248D02*
X149652462Y-221325926D01*
X150142784Y-221816248D01*
X149652462Y-222306570D01*
X149162140Y-221816248D01*
X149162140Y-221816248D01*
G37*
G36*
X149797942Y-222452050D02*
X150288264Y-221961728D01*
X150778586Y-222452050D01*
X150288264Y-222942372D01*
X149797942Y-222452050D01*
X149797942Y-222452050D01*
G37*
D24*
X176710000Y-259460000D03*
X178210000Y-259460000D03*
D10*
G36*
X152270581Y-223929904D02*
X151780259Y-224420226D01*
X151289937Y-223929904D01*
X151780259Y-223439582D01*
X152270581Y-223929904D01*
X152270581Y-223929904D01*
G37*
G36*
X151634779Y-223294102D02*
X151144457Y-223784424D01*
X150654135Y-223294102D01*
X151144457Y-222803780D01*
X151634779Y-223294102D01*
X151634779Y-223294102D01*
G37*
D24*
X176710000Y-258090000D03*
X178210000Y-258090000D03*
D10*
G36*
X153185578Y-220451532D02*
X153675900Y-219961210D01*
X154166222Y-220451532D01*
X153675900Y-220941854D01*
X153185578Y-220451532D01*
X153185578Y-220451532D01*
G37*
G36*
X153821380Y-221087334D02*
X154311702Y-220597012D01*
X154802024Y-221087334D01*
X154311702Y-221577656D01*
X153821380Y-221087334D01*
X153821380Y-221087334D01*
G37*
D16*
X177300420Y-256860000D03*
X178199580Y-256860000D03*
X180560420Y-251970000D03*
X181459580Y-251970000D03*
D10*
G36*
X146171078Y-227508458D02*
X146661400Y-227018136D01*
X147151722Y-227508458D01*
X146661400Y-227998780D01*
X146171078Y-227508458D01*
X146171078Y-227508458D01*
G37*
G36*
X146806880Y-228144260D02*
X147297202Y-227653938D01*
X147787524Y-228144260D01*
X147297202Y-228634582D01*
X146806880Y-228144260D01*
X146806880Y-228144260D01*
G37*
G36*
X146550088Y-226920965D02*
X146059766Y-227411287D01*
X145569444Y-226920965D01*
X146059766Y-226430643D01*
X146550088Y-226920965D01*
X146550088Y-226920965D01*
G37*
G36*
X145914286Y-226285163D02*
X145423964Y-226775485D01*
X144933642Y-226285163D01*
X145423964Y-225794841D01*
X145914286Y-226285163D01*
X145914286Y-226285163D01*
G37*
D16*
X157220000Y-252360420D03*
X157220000Y-253259580D03*
X157900000Y-252360420D03*
X157900000Y-253259580D03*
X156239580Y-252720000D03*
X155340420Y-252720000D03*
X159829580Y-252910000D03*
X158930420Y-252910000D03*
X156239580Y-253420000D03*
X155340420Y-253420000D03*
X159829580Y-253600000D03*
X158930420Y-253600000D03*
X155240000Y-255470420D03*
X155240000Y-256369580D03*
X208094580Y-232275000D03*
X207195420Y-232275000D03*
X208094580Y-240295000D03*
X207195420Y-240295000D03*
X208124580Y-248585000D03*
X207225420Y-248585000D03*
X204945420Y-232285000D03*
X205844580Y-232285000D03*
X204825420Y-240275000D03*
X205724580Y-240275000D03*
X204945420Y-248585000D03*
X205844580Y-248585000D03*
X191995420Y-248645000D03*
X192894580Y-248645000D03*
D37*
X80620000Y-255370000D03*
X80620000Y-255870000D03*
X80620000Y-256370000D03*
X80620000Y-256870000D03*
D38*
X81270000Y-257520000D03*
X81770000Y-257520000D03*
X82270000Y-257520000D03*
X82770000Y-257520000D03*
D37*
X83420000Y-256870000D03*
X83420000Y-256370000D03*
X83420000Y-255870000D03*
X83420000Y-255370000D03*
D38*
X82770000Y-254720000D03*
X82270000Y-254720000D03*
X81770000Y-254720000D03*
X81270000Y-254720000D03*
D39*
X82020000Y-256120000D03*
D37*
X156070000Y-255370000D03*
X156070000Y-255870000D03*
X156070000Y-256370000D03*
X156070000Y-256870000D03*
D38*
X156720000Y-257520000D03*
X157220000Y-257520000D03*
X157720000Y-257520000D03*
X158220000Y-257520000D03*
D37*
X158870000Y-256870000D03*
X158870000Y-256370000D03*
X158870000Y-255870000D03*
X158870000Y-255370000D03*
D38*
X158220000Y-254720000D03*
X157720000Y-254720000D03*
X157220000Y-254720000D03*
X156720000Y-254720000D03*
D39*
X157470000Y-256120000D03*
D16*
X196409580Y-206160000D03*
X195510420Y-206160000D03*
X196409580Y-206980000D03*
X195510420Y-206980000D03*
X196409580Y-207800000D03*
X195510420Y-207800000D03*
X196419580Y-208630000D03*
X195520420Y-208630000D03*
X196419580Y-209450000D03*
X195520420Y-209450000D03*
X196409580Y-210260000D03*
X195510420Y-210260000D03*
X196409580Y-211140000D03*
X195510420Y-211140000D03*
X196409580Y-212000000D03*
X195510420Y-212000000D03*
X196409580Y-212880000D03*
X195510420Y-212880000D03*
D10*
G36*
X75881777Y-219852099D02*
X76372099Y-219361777D01*
X76862421Y-219852099D01*
X76372099Y-220342421D01*
X75881777Y-219852099D01*
X75881777Y-219852099D01*
G37*
G36*
X76517579Y-220487901D02*
X77007901Y-219997579D01*
X77498223Y-220487901D01*
X77007901Y-220978223D01*
X76517579Y-220487901D01*
X76517579Y-220487901D01*
G37*
G36*
X72968223Y-227517901D02*
X72477901Y-228008223D01*
X71987579Y-227517901D01*
X72477901Y-227027579D01*
X72968223Y-227517901D01*
X72968223Y-227517901D01*
G37*
G36*
X72332421Y-226882099D02*
X71842099Y-227372421D01*
X71351777Y-226882099D01*
X71842099Y-226391777D01*
X72332421Y-226882099D01*
X72332421Y-226882099D01*
G37*
G36*
X70131777Y-225652099D02*
X70622099Y-225161777D01*
X71112421Y-225652099D01*
X70622099Y-226142421D01*
X70131777Y-225652099D01*
X70131777Y-225652099D01*
G37*
G36*
X70767579Y-226287901D02*
X71257901Y-225797579D01*
X71748223Y-226287901D01*
X71257901Y-226778223D01*
X70767579Y-226287901D01*
X70767579Y-226287901D01*
G37*
D16*
X106250000Y-255739580D03*
X106250000Y-254840420D03*
X104020000Y-251829580D03*
X104020000Y-250930420D03*
X103200000Y-250940420D03*
X103200000Y-251839580D03*
X105990000Y-250060420D03*
X105990000Y-250959580D03*
X105940000Y-248020420D03*
X105940000Y-248919580D03*
D40*
X73960000Y-250872500D03*
X73960000Y-248967500D03*
X75880000Y-250872500D03*
X75880000Y-248967500D03*
D24*
X77290000Y-250870000D03*
X78790000Y-250870000D03*
X78780000Y-249460000D03*
X80280000Y-249460000D03*
X81780000Y-250840000D03*
X83280000Y-250840000D03*
D16*
X81789580Y-258630000D03*
X80890420Y-258630000D03*
X83409580Y-258630000D03*
X82510420Y-258630000D03*
D10*
G36*
X154158555Y-221716659D02*
X153668233Y-222206981D01*
X153177911Y-221716659D01*
X153668233Y-221226337D01*
X154158555Y-221716659D01*
X154158555Y-221716659D01*
G37*
G36*
X153522753Y-221080857D02*
X153032431Y-221571179D01*
X152542109Y-221080857D01*
X153032431Y-220590535D01*
X153522753Y-221080857D01*
X153522753Y-221080857D01*
G37*
G36*
X151325886Y-219850492D02*
X151816208Y-219360170D01*
X152306530Y-219850492D01*
X151816208Y-220340814D01*
X151325886Y-219850492D01*
X151325886Y-219850492D01*
G37*
G36*
X151961688Y-220486294D02*
X152452010Y-219995972D01*
X152942332Y-220486294D01*
X152452010Y-220976616D01*
X151961688Y-220486294D01*
X151961688Y-220486294D01*
G37*
D16*
X181690000Y-255739580D03*
X181690000Y-254840420D03*
X179460000Y-251839580D03*
X179460000Y-250940420D03*
X178640000Y-250940420D03*
X178640000Y-251839580D03*
D10*
G36*
X148416849Y-227514935D02*
X147926527Y-228005257D01*
X147436205Y-227514935D01*
X147926527Y-227024613D01*
X148416849Y-227514935D01*
X148416849Y-227514935D01*
G37*
G36*
X147781047Y-226879133D02*
X147290725Y-227369455D01*
X146800403Y-226879133D01*
X147290725Y-226388811D01*
X147781047Y-226879133D01*
X147781047Y-226879133D01*
G37*
G36*
X145570038Y-225648767D02*
X146060360Y-225158445D01*
X146550682Y-225648767D01*
X146060360Y-226139089D01*
X145570038Y-225648767D01*
X145570038Y-225648767D01*
G37*
G36*
X146205840Y-226284569D02*
X146696162Y-225794247D01*
X147186484Y-226284569D01*
X146696162Y-226774891D01*
X146205840Y-226284569D01*
X146205840Y-226284569D01*
G37*
D16*
X181430000Y-250060420D03*
X181430000Y-250959580D03*
X181380000Y-248020420D03*
X181380000Y-248919580D03*
D40*
X149400000Y-250872500D03*
X149400000Y-248967500D03*
X151330000Y-250872500D03*
X151330000Y-248967500D03*
D24*
X152730000Y-250870000D03*
X154230000Y-250870000D03*
X154230000Y-249460000D03*
X155730000Y-249460000D03*
X157220000Y-250840000D03*
X158720000Y-250840000D03*
D16*
X157229580Y-258630000D03*
X156330420Y-258630000D03*
X158849580Y-258630000D03*
X157950420Y-258630000D03*
D33*
X210820000Y-233405000D03*
X211370000Y-233405000D03*
X210820000Y-234705000D03*
X211370000Y-234705000D03*
X210810000Y-235355000D03*
X211360000Y-235355000D03*
X210810000Y-236005000D03*
X211360000Y-236005000D03*
X210810000Y-236655000D03*
X211360000Y-236655000D03*
X210810000Y-237305000D03*
X211360000Y-237305000D03*
X210810000Y-237965000D03*
X211360000Y-237965000D03*
X210810000Y-238605000D03*
X211360000Y-238605000D03*
X210850000Y-241455000D03*
X211400000Y-241455000D03*
X210860000Y-242755000D03*
X211410000Y-242755000D03*
X210860000Y-243405000D03*
X211410000Y-243405000D03*
X210860000Y-244055000D03*
X211410000Y-244055000D03*
X210860000Y-244705000D03*
X211410000Y-244705000D03*
X210860000Y-245355000D03*
X211410000Y-245355000D03*
X210860000Y-246005000D03*
X211410000Y-246005000D03*
X210860000Y-246655000D03*
X211410000Y-246655000D03*
X210655000Y-249890000D03*
X211205000Y-249890000D03*
X210655000Y-251190000D03*
X211205000Y-251190000D03*
X199760000Y-250535000D03*
X200310000Y-250535000D03*
X199760000Y-251195000D03*
X200310000Y-251195000D03*
X199760000Y-251845000D03*
X200310000Y-251845000D03*
X199760000Y-252495000D03*
X200310000Y-252495000D03*
X199760000Y-253135000D03*
X200310000Y-253135000D03*
D16*
X190585000Y-249884580D03*
X190585000Y-248985420D03*
D14*
X206050000Y-211685000D03*
X206050000Y-211035000D03*
X206050000Y-210385000D03*
X206050000Y-209735000D03*
X206050000Y-209085000D03*
X206050000Y-208435000D03*
X206050000Y-207785000D03*
X206050000Y-207135000D03*
X206050000Y-206485000D03*
X206050000Y-205835000D03*
X200250000Y-205835000D03*
X200250000Y-206485000D03*
X200250000Y-207135000D03*
X200250000Y-207785000D03*
X200250000Y-208435000D03*
X200250000Y-211685000D03*
X200250000Y-211035000D03*
X200250000Y-210385000D03*
X200250000Y-209735000D03*
X200250000Y-209085000D03*
D41*
X105090000Y-253130000D03*
X103190000Y-253130000D03*
X103190000Y-255730000D03*
X104140000Y-255730000D03*
X105090000Y-255730000D03*
X180540000Y-253130000D03*
X178640000Y-253130000D03*
X178640000Y-255730000D03*
X179590000Y-255730000D03*
X180540000Y-255730000D03*
D14*
X203725000Y-233410000D03*
X203725000Y-234060000D03*
X203725000Y-234710000D03*
X203725000Y-235360000D03*
X203725000Y-236010000D03*
X203725000Y-236660000D03*
X203725000Y-237310000D03*
X203725000Y-237960000D03*
X203725000Y-238610000D03*
X203725000Y-239260000D03*
X209525000Y-239260000D03*
X209525000Y-238610000D03*
X209525000Y-237960000D03*
X209525000Y-237310000D03*
X209525000Y-236660000D03*
X209525000Y-233410000D03*
X209525000Y-234060000D03*
X209525000Y-234710000D03*
X209525000Y-235360000D03*
X209525000Y-236010000D03*
X203595000Y-241460000D03*
X203595000Y-242110000D03*
X203595000Y-242760000D03*
X203595000Y-243410000D03*
X203595000Y-244060000D03*
X203595000Y-244710000D03*
X203595000Y-245360000D03*
X203595000Y-246010000D03*
X203595000Y-246660000D03*
X203595000Y-247310000D03*
X209395000Y-247310000D03*
X209395000Y-246660000D03*
X209395000Y-246010000D03*
X209395000Y-245360000D03*
X209395000Y-244710000D03*
X209395000Y-241460000D03*
X209395000Y-242110000D03*
X209395000Y-242760000D03*
X209395000Y-243410000D03*
X209395000Y-244060000D03*
X203575000Y-249890000D03*
X203575000Y-250540000D03*
X203575000Y-251190000D03*
X203575000Y-251840000D03*
X203575000Y-252490000D03*
X203575000Y-253140000D03*
X203575000Y-253790000D03*
X203575000Y-254440000D03*
X203575000Y-255090000D03*
X203575000Y-255740000D03*
X209375000Y-255740000D03*
X209375000Y-255090000D03*
X209375000Y-254440000D03*
X209375000Y-253790000D03*
X209375000Y-253140000D03*
X209375000Y-249890000D03*
X209375000Y-250540000D03*
X209375000Y-251190000D03*
X209375000Y-251840000D03*
X209375000Y-252490000D03*
X191975000Y-249890000D03*
X191975000Y-255740000D03*
X197775000Y-255740000D03*
X197775000Y-249890000D03*
X191975000Y-250540000D03*
X191975000Y-251190000D03*
X191975000Y-251840000D03*
X191975000Y-252490000D03*
X191975000Y-253140000D03*
X191975000Y-253790000D03*
X191975000Y-254440000D03*
X191975000Y-255090000D03*
X197775000Y-255090000D03*
X197775000Y-254440000D03*
X197775000Y-253790000D03*
X197775000Y-253140000D03*
X197775000Y-250540000D03*
X197775000Y-251190000D03*
X197775000Y-251840000D03*
X197775000Y-252490000D03*
D42*
X102790000Y-249440000D03*
X104690000Y-249440000D03*
X103740000Y-247440000D03*
X178230000Y-249430000D03*
X180130000Y-249430000D03*
X179180000Y-247430000D03*
D10*
G36*
X78718223Y-221717901D02*
X78227901Y-222208223D01*
X77737579Y-221717901D01*
X78227901Y-221227579D01*
X78718223Y-221717901D01*
X78718223Y-221717901D01*
G37*
G36*
X78082421Y-221082099D02*
X77592099Y-221572421D01*
X77101777Y-221082099D01*
X77592099Y-220591777D01*
X78082421Y-221082099D01*
X78082421Y-221082099D01*
G37*
D23*
X75430000Y-207190000D03*
X75430000Y-208690000D03*
D16*
X126190420Y-221480000D03*
X127089580Y-221480000D03*
X126099580Y-212700000D03*
X125200420Y-212700000D03*
X129169580Y-221480000D03*
X128270420Y-221480000D03*
X129220420Y-212710000D03*
X130119580Y-212710000D03*
X120939704Y-206179815D03*
X120040544Y-206179815D03*
X120939704Y-206999815D03*
X120040544Y-206999815D03*
X120939704Y-207819815D03*
X120040544Y-207819815D03*
X120959704Y-208649815D03*
X120060544Y-208649815D03*
X120959704Y-209469815D03*
X120060544Y-209469815D03*
X120969580Y-210260000D03*
X120070420Y-210260000D03*
X120969580Y-211140000D03*
X120070420Y-211140000D03*
X120969580Y-212000000D03*
X120070420Y-212000000D03*
X120969580Y-212880000D03*
X120070420Y-212880000D03*
D14*
X130610000Y-220375000D03*
X130610000Y-219725000D03*
X130610000Y-219075000D03*
X130610000Y-218425000D03*
X130610000Y-217775000D03*
X130610000Y-217125000D03*
X130610000Y-216475000D03*
X130610000Y-215825000D03*
X130610000Y-215175000D03*
X130610000Y-214525000D03*
X124810000Y-214525000D03*
X124810000Y-215175000D03*
X124810000Y-215825000D03*
X124810000Y-216475000D03*
X124810000Y-217125000D03*
X124810000Y-220375000D03*
X124810000Y-219725000D03*
X124810000Y-219075000D03*
X124810000Y-218425000D03*
X124810000Y-217775000D03*
X130610000Y-211685000D03*
X130610000Y-211035000D03*
X130610000Y-210385000D03*
X130610000Y-209735000D03*
X130610000Y-209085000D03*
X130610000Y-208435000D03*
X130610000Y-207785000D03*
X130610000Y-207135000D03*
X130610000Y-206485000D03*
X130610000Y-205835000D03*
X124810000Y-205835000D03*
X124810000Y-206485000D03*
X124810000Y-207135000D03*
X124810000Y-207785000D03*
X124810000Y-208435000D03*
X124810000Y-211685000D03*
X124810000Y-211035000D03*
X124810000Y-210385000D03*
X124810000Y-209735000D03*
X124810000Y-209085000D03*
D23*
X76580000Y-207190000D03*
X76580000Y-208690000D03*
D16*
X75150000Y-206109580D03*
X75150000Y-205210420D03*
X76680000Y-205709580D03*
X76680000Y-204810420D03*
D43*
X180680000Y-260220000D03*
X188880000Y-260220000D03*
D16*
X82610000Y-182380420D03*
X82610000Y-183279580D03*
X158050000Y-182380420D03*
X158050000Y-183279580D03*
D20*
X71460000Y-207345000D03*
D21*
X71460000Y-207545000D03*
X70960000Y-207545000D03*
D20*
X70960000Y-207345000D03*
X71960000Y-207345000D03*
D21*
X71960000Y-207545000D03*
X72460000Y-207545000D03*
D20*
X72460000Y-207345000D03*
X72460000Y-204895000D03*
D21*
X72460000Y-204695000D03*
X71960000Y-204695000D03*
D20*
X71960000Y-204895000D03*
X70960000Y-204895000D03*
D21*
X70960000Y-204695000D03*
X71460000Y-204695000D03*
D20*
X71460000Y-204895000D03*
D22*
X71710000Y-206120000D03*
D43*
X168660000Y-72660000D03*
X160460000Y-72660000D03*
X196120000Y-72660000D03*
X187920000Y-72660000D03*
X141050000Y-260220000D03*
X149250000Y-260220000D03*
X160820000Y-260220000D03*
X169020000Y-260220000D03*
D16*
X177850000Y-246830420D03*
X177850000Y-247729580D03*
X159840420Y-251910000D03*
X160739580Y-251910000D03*
X200410420Y-246370000D03*
X201309580Y-246370000D03*
D33*
X190675000Y-251190000D03*
X190125000Y-251190000D03*
X190675000Y-251840000D03*
X190125000Y-251840000D03*
X190675000Y-252490000D03*
X190125000Y-252490000D03*
X190675000Y-253140000D03*
X190125000Y-253140000D03*
X190675000Y-253790000D03*
X190125000Y-253790000D03*
D17*
X146587500Y-238370000D03*
X148492500Y-238370000D03*
D16*
X200410420Y-247140000D03*
X201309580Y-247140000D03*
X208809580Y-182130000D03*
X207910420Y-182130000D03*
X210320000Y-181230420D03*
X210320000Y-182129580D03*
X73065420Y-99195000D03*
X73964580Y-99195000D03*
X73065420Y-97185000D03*
X73964580Y-97185000D03*
D44*
X44260000Y-189575000D03*
X44260000Y-194655000D03*
X44260000Y-192115000D03*
D43*
X153420000Y-72660000D03*
X145220000Y-72660000D03*
X85380000Y-260220000D03*
X93580000Y-260220000D03*
X105240000Y-260220000D03*
X113440000Y-260220000D03*
X65610000Y-260220000D03*
X73810000Y-260220000D03*
X135890000Y-72660000D03*
X127690000Y-72660000D03*
D44*
X44270000Y-185345000D03*
X44270000Y-180265000D03*
X44270000Y-182805000D03*
X45020000Y-147765000D03*
X45020000Y-152845000D03*
X45020000Y-150305000D03*
D45*
X39040000Y-156870000D03*
X39040000Y-151790000D03*
D46*
X56490000Y-164040000D03*
X56490000Y-168240000D03*
X56490000Y-172440000D03*
X50990000Y-164040000D03*
X50990000Y-168240000D03*
X50990000Y-172440000D03*
D16*
X127150000Y-185350420D03*
X127150000Y-186249580D03*
X209570000Y-183029580D03*
X209570000Y-182130420D03*
X202420000Y-186419580D03*
X202420000Y-185520420D03*
X102410000Y-246830420D03*
X102410000Y-247729580D03*
X84400420Y-251910000D03*
X85299580Y-251910000D03*
X124970420Y-246370000D03*
X125869580Y-246370000D03*
X124970420Y-247140000D03*
X125869580Y-247140000D03*
D17*
X167672500Y-209690000D03*
X165767500Y-209690000D03*
X167662500Y-211410000D03*
X165757500Y-211410000D03*
D16*
X152150000Y-205629580D03*
X152150000Y-204730420D03*
X133369580Y-182140000D03*
X132470420Y-182140000D03*
X134910000Y-181240420D03*
X134910000Y-182139580D03*
X134150000Y-183039580D03*
X134150000Y-182140420D03*
D33*
X185975000Y-197000000D03*
X186525000Y-197000000D03*
D16*
X105730000Y-203870420D03*
X105730000Y-204769580D03*
X106630000Y-204759580D03*
X106630000Y-203860420D03*
X104850000Y-203870420D03*
X104850000Y-204769580D03*
X181210000Y-203880420D03*
X181210000Y-204779580D03*
X182110000Y-204779580D03*
X182110000Y-203880420D03*
X180330000Y-203880420D03*
X180330000Y-204779580D03*
X77140420Y-210170000D03*
X78039580Y-210170000D03*
X73330000Y-199899580D03*
X73330000Y-199000420D03*
X152570420Y-210240000D03*
X153469580Y-210240000D03*
X148840000Y-199889580D03*
X148840000Y-198990420D03*
D47*
X70110000Y-201880000D03*
X72010000Y-201880000D03*
X72010000Y-199480000D03*
X70110000Y-199480000D03*
X71060000Y-199480000D03*
X145540000Y-201850000D03*
X147440000Y-201850000D03*
X147440000Y-199450000D03*
X145540000Y-199450000D03*
X146490000Y-199450000D03*
D48*
X83430000Y-188300000D03*
X83930000Y-188300000D03*
X84430000Y-188300000D03*
X84930000Y-188300000D03*
X85430000Y-188300000D03*
D49*
X86280000Y-187450000D03*
X86280000Y-186950000D03*
X86280000Y-186450000D03*
X86280000Y-185950000D03*
X86280000Y-185450000D03*
D48*
X85430000Y-184600000D03*
X84930000Y-184600000D03*
X84430000Y-184600000D03*
X83930000Y-184600000D03*
X83430000Y-184600000D03*
D49*
X82580000Y-185450000D03*
X82580000Y-185950000D03*
X82580000Y-186450000D03*
X82580000Y-186950000D03*
X82580000Y-187450000D03*
D50*
X84430000Y-186450000D03*
D48*
X158730000Y-188300000D03*
X159230000Y-188300000D03*
X159730000Y-188300000D03*
X160230000Y-188300000D03*
X160730000Y-188300000D03*
D49*
X161580000Y-187450000D03*
X161580000Y-186950000D03*
X161580000Y-186450000D03*
X161580000Y-185950000D03*
X161580000Y-185450000D03*
D48*
X160730000Y-184600000D03*
X160230000Y-184600000D03*
X159730000Y-184600000D03*
X159230000Y-184600000D03*
X158730000Y-184600000D03*
D49*
X157880000Y-185450000D03*
X157880000Y-185950000D03*
X157880000Y-186450000D03*
X157880000Y-186950000D03*
X157880000Y-187450000D03*
D50*
X159730000Y-186450000D03*
D51*
X191650000Y-164730000D03*
X145930000Y-164730000D03*
X100210000Y-164730000D03*
X100210000Y-111390000D03*
X191650000Y-111390000D03*
X145930000Y-111390000D03*
D52*
X121600000Y-78900000D03*
X209000000Y-79700000D03*
D53*
G36*
X205273000Y-169473000D02*
X86527000Y-169473000D01*
X86527000Y-106727000D01*
X205273000Y-106727000D01*
X205273000Y-169473000D01*
X205273000Y-169473000D01*
G37*
X205273000Y-169473000D02*
X86527000Y-169473000D01*
X86527000Y-106727000D01*
X205273000Y-106727000D01*
X205273000Y-169473000D01*
M02*
